<svg width="656" height="433" viewBox="0 0 656 433" fill="none" xmlns="http://www.w3.org/2000/svg">
<g clip-path="url(#clip0_4_241)">
<path d="M454.511 195.892L458.59 194.293C458.981 194.139 459.366 193.973 459.774 193.813C452.225 191.033 445.846 185.766 441.687 178.878C437.527 171.991 435.835 163.893 436.888 155.915C437.94 147.938 441.675 140.556 447.479 134.984C453.283 129.412 460.809 125.981 468.821 125.255L465.979 139.586L476.766 125.421H476.861C486.173 126.701 494.595 131.628 500.275 139.119C505.955 146.609 508.428 156.05 507.151 165.364C507.062 166.033 506.92 166.685 506.796 167.342C510.117 164.719 513.231 161.823 515.564 158.459C520.3 151.625 521.905 143.204 523.539 132.894C526.778 112.475 529.696 91.8314 532.325 71.1994C524.253 68.7635 517.314 63.5275 512.756 56.4328C508.198 49.338 506.32 40.8497 507.459 32.4936C507.607 31.4159 507.814 30.3677 508.051 29.3313C508.11 29.0708 508.169 28.8102 508.234 28.5556C508.489 27.5548 508.773 26.5717 509.105 25.5946C509.158 25.4347 509.229 25.2867 509.282 25.1327C509.578 24.3214 509.874 23.5219 510.259 22.7639C510.389 22.4678 510.52 22.1717 510.656 21.8934C511.064 21.0465 511.496 20.2175 511.97 19.4121C512.13 19.1456 512.302 18.891 512.462 18.6245C512.829 18.0323 513.213 17.4401 513.61 16.8894C513.823 16.5933 514.031 16.2972 514.25 16.007L514.409 15.776C519.436 9.19484 526.61 4.58382 534.684 2.74457C542.757 0.905316 551.22 1.95415 558.601 5.70874L554.906 24.3569L565.563 10.3575C571.296 15.215 575.325 21.7784 577.063 29.0891C578.802 36.3999 578.158 44.0751 575.226 50.9938H575.267C575.166 51.2307 575.042 51.4557 574.941 51.6926C574.746 52.1308 574.545 52.5631 574.349 52.9954C574.077 53.5461 573.757 54.085 573.491 54.618C573.266 55.0207 573.047 55.4234 572.804 55.8024C572.455 56.3946 572.076 56.9276 571.697 57.4783C571.472 57.7981 571.265 58.1297 571.034 58.4436C570.442 59.2667 569.779 60.0543 569.104 60.8123C568.867 61.0788 568.612 61.3216 568.364 61.5822C567.884 62.0915 567.404 62.5948 566.895 63.0745C566.582 63.3706 566.25 63.6667 565.924 63.9391C565.457 64.3537 564.977 64.7563 564.486 65.1235C564.136 65.4018 563.781 65.6683 563.426 65.9289C562.911 66.302 562.39 66.6514 561.863 67.0008C561.508 67.2317 561.152 67.4627 560.791 67.6818C560.199 68.043 559.577 68.3746 558.956 68.7004C558.642 68.8602 558.364 69.0379 558.014 69.1919C557.079 69.6479 556.12 70.0683 555.143 70.4414C554.959 70.5125 554.764 70.5658 554.581 70.6309C553.763 70.927 552.941 71.2231 552.106 71.4304C551.745 71.531 551.377 71.614 551.01 71.7028C550.33 71.8686 549.643 72.0226 548.95 72.1528C548.555 72.2239 548.147 72.289 547.724 72.3483C547.044 72.4489 546.357 72.5259 545.664 72.5851C545.256 72.6207 544.853 72.6562 544.439 72.6799C543.693 72.7154 542.941 72.7213 542.189 72.7154C542.139 72.7125 542.09 72.7125 542.041 72.7154C540.928 81.4009 539.759 90.0864 538.536 98.7719C541.407 94.8948 545.04 91.6452 549.211 89.2224C553.383 86.7997 558.005 85.2548 562.795 84.6825C567.585 84.1103 572.441 84.5228 577.066 85.8946C581.69 87.2665 585.986 89.5689 589.69 92.6605L580.406 108.401L595.332 98.5765C600.975 106.047 603.424 115.453 602.141 124.728C601.702 127.984 600.805 131.162 599.476 134.167C596.627 140.674 591.889 146.173 585.876 149.952C579.863 153.731 572.853 155.615 565.756 155.36C558.659 155.105 551.803 152.722 546.077 148.52C540.351 144.319 536.02 138.493 533.645 131.799C533.509 132.675 533.379 133.575 533.243 134.44C531.798 143.53 530.004 154.847 523.634 164.049C519.318 170.303 513.373 174.922 507.595 178.985C503.837 181.63 499.993 184.15 496.062 186.547C491.935 190.374 486.957 193.163 481.538 194.684C475.223 197.917 468.772 200.84 462.184 203.454L458.069 205.065C454.369 206.51 450.58 207.99 446.82 209.565C447.412 209.619 448.004 209.666 448.596 209.743C456.046 210.766 462.978 214.132 468.39 219.353C473.803 224.574 477.416 231.381 478.708 238.79L453.658 252.476L478.631 251.356C477.632 256.895 475.312 262.112 471.87 266.564C466.223 273.875 457.946 278.693 448.801 279.992C439.656 281.29 430.365 278.967 422.907 273.516L424.15 275.832C424.979 277.36 425.796 278.882 426.589 280.392C437.442 300.965 438.229 318.73 428.81 330.426L421.113 324.238C430.284 312.856 423.008 294.764 417.857 284.993C417.075 283.513 416.27 282.032 415.488 280.516C408.52 267.589 400.616 252.938 403.783 237.345C408.52 213.835 434.008 203.886 454.511 195.892Z" fill="#F2F2F2"/>
<path d="M159.619 307.354L156.434 306.105C156.126 305.986 155.841 305.85 155.522 305.732C161.415 303.558 166.394 299.443 169.641 294.064C172.887 288.685 174.207 282.361 173.385 276.132C172.563 269.903 169.647 264.139 165.116 259.787C160.585 255.436 154.708 252.755 148.453 252.186L150.673 263.378L142.254 252.316H142.177C138.573 252.808 135.102 254.006 131.962 255.84C128.821 257.674 126.073 260.109 123.874 263.007C121.674 265.904 120.067 269.206 119.144 272.724C118.221 276.243 118.001 279.909 118.494 283.513C118.565 284.04 118.678 284.543 118.773 285.058C116.161 283.094 113.854 280.753 111.929 278.112C108.24 272.782 106.973 266.197 105.694 258.149C103.19 242.201 100.916 226.082 98.8736 209.986C105.175 208.08 110.591 203.989 114.147 198.448C117.703 192.907 119.167 186.278 118.275 179.754C118.157 178.913 117.997 178.096 117.808 177.285L117.666 176.693C117.464 175.911 117.245 175.141 116.985 174.395C116.943 174.271 116.89 174.152 116.843 174.034C116.612 173.4 116.357 172.778 116.085 172.168C115.978 171.943 115.878 171.712 115.771 171.487C115.451 170.83 115.114 170.185 114.747 169.557C114.622 169.344 114.486 169.142 114.362 168.965C114.072 168.503 113.77 168.047 113.462 167.608C113.296 167.378 113.136 167.141 112.965 166.916L112.84 166.738C108.914 161.599 103.314 157.996 97.01 156.556C90.7063 155.115 84.0972 155.927 78.3292 158.85L81.2185 173.418L72.8882 162.486C68.412 166.28 65.2652 171.406 63.9072 177.115C62.5492 182.824 63.051 188.818 65.3395 194.222H65.3099C65.3869 194.405 65.4816 194.583 65.5645 194.766C65.7184 195.11 65.8723 195.447 66.0381 195.785C66.2513 196.211 66.4762 196.632 66.7131 197.046C66.8848 197.366 67.0565 197.68 67.2459 197.988C67.5183 198.432 67.838 198.864 68.1103 199.297C68.2879 199.545 68.4478 199.806 68.6313 200.049C69.105 200.688 69.6082 201.304 70.1352 201.902C70.3187 202.11 70.52 202.299 70.7272 202.495C71.1002 202.891 71.4791 203.282 71.8758 203.679C72.1186 203.916 72.3791 204.135 72.6336 204.354C73.0007 204.682 73.3737 204.996 73.7526 205.296C74.025 205.509 74.3033 205.716 74.5815 205.923C74.9841 206.214 75.3926 206.516 75.8012 206.758C76.0794 206.942 76.3577 207.12 76.6419 207.291C77.1096 207.576 77.5892 207.83 78.0747 208.085C78.3233 208.215 78.5601 208.351 78.8088 208.476C79.543 208.831 80.289 209.157 81.0527 209.447C81.1948 209.506 81.3487 209.542 81.4908 209.595C82.1243 209.826 82.7697 210.039 83.4269 210.223C83.7051 210.3 84.0189 210.365 84.2794 210.43C84.8123 210.56 85.3451 210.685 85.8898 210.785L86.843 210.939C87.3759 211.016 87.9147 211.075 88.4534 211.123C88.7731 211.152 89.0869 211.176 89.4126 211.194C90.0046 211.224 90.5967 211.229 91.1887 211.224H91.3012C92.1696 218.022 93.0813 224.814 94.0365 231.601C91.7982 228.569 88.9639 226.026 85.7076 224.129C82.4513 222.231 78.8417 221.02 75.1003 220.569C71.359 220.117 67.5649 220.435 63.951 221.504C60.3371 222.572 56.9795 224.367 54.0845 226.78L61.2721 239.003L49.6204 231.334C47.4348 234.222 45.8394 237.512 44.9251 241.017C44.0108 244.521 43.7956 248.172 44.2918 251.759C44.6356 254.305 45.3393 256.79 46.3818 259.138C48.6074 264.219 52.3082 268.514 57.0041 271.465C61.7 274.416 67.1743 275.887 72.7166 275.688C78.259 275.489 83.6135 273.628 88.0856 270.348C92.5577 267.067 95.9408 262.518 97.7961 257.29C97.9027 257.971 98.0033 258.664 98.1099 259.351C99.2348 266.457 100.638 275.293 105.611 282.494C108.986 287.374 113.628 290.98 118.139 294.154C121.076 296.223 124.078 298.197 127.144 300.076C130.369 303.065 134.257 305.245 138.488 306.436C143.414 308.959 148.458 311.257 153.609 313.282L156.818 314.544C159.708 315.669 162.668 316.823 165.587 318.055C165.125 318.097 164.657 318.132 164.189 318.197C158.374 318.994 152.963 321.619 148.736 325.693C144.509 329.766 141.685 335.078 140.673 340.861L160.211 351.52L140.708 350.65C141.567 355.251 143.577 359.56 146.552 363.174C149.526 366.788 153.368 369.589 157.717 371.316C162.067 373.043 166.784 373.639 171.426 373.049C176.069 372.459 180.486 370.702 184.266 367.942C183.941 368.534 183.621 369.126 183.295 369.748C182.65 370.932 182.01 372.117 181.389 373.301C172.916 389.367 172.301 403.248 179.66 412.386L185.657 407.553C178.494 398.671 184.177 384.535 188.203 376.901C188.795 375.747 189.441 374.58 190.074 373.408C195.515 363.34 201.684 351.869 199.227 339.688C195.551 321.366 175.628 313.62 159.619 307.354Z" fill="#F2F2F2"/>
<path d="M328 433C509.149 433 656 426.769 656 419.084C656 411.398 509.149 405.167 328 405.167C146.851 405.167 0 411.398 0 419.084C0 426.769 146.851 433 328 433Z" fill="#3F3D56"/>
<path opacity="0.1" d="M328 433C509.149 433 656 426.769 656 419.084C656 411.398 509.149 405.167 328 405.167C146.851 405.167 0 411.398 0 419.084C0 426.769 146.851 433 328 433Z" fill="black"/>
<path d="M328 425.301C509.149 425.301 656 419.071 656 411.385C656 403.699 509.149 397.468 328 397.468C146.851 397.468 0 403.699 0 411.385C0 419.071 146.851 425.301 328 425.301Z" fill="#3F3D56"/>
<path d="M50.3249 406.434C48.5487 403.171 50.5617 399.174 52.8589 396.26C55.1561 393.347 57.9565 390.338 57.8973 386.614C57.8144 381.284 52.1544 378.139 47.637 375.314C44.2852 373.217 41.1929 370.73 38.4245 367.906C37.2674 366.818 36.3096 365.535 35.5945 364.116C34.6591 362.032 34.6887 359.663 34.7479 357.377C34.9452 349.773 35.3202 342.177 35.8728 334.589" stroke="#3F3D56" stroke-width="4" stroke-miterlimit="10"/>
<path d="M27.2998 334.169C27.3637 332.778 27.7769 331.425 28.5012 330.236C29.2256 329.047 30.2377 328.059 31.4442 327.365L33.3032 331.042L33.25 326.589C34.1365 326.325 35.0613 326.213 35.9853 326.257C37.6212 326.337 39.1967 326.9 40.5129 327.875C41.8292 328.85 42.8272 330.193 43.381 331.735C43.9348 333.276 44.0195 334.948 43.6245 336.538C43.2294 338.127 42.3724 339.565 41.1614 340.668C39.9505 341.771 38.44 342.49 36.8206 342.735C35.2012 342.98 33.5455 342.74 32.0625 342.045C30.5795 341.35 29.3356 340.231 28.488 338.829C27.6403 337.427 27.2269 335.805 27.2998 334.169Z" fill="#0098AC"/>
<path d="M42.119 390.427C42.9447 392.071 44.2935 393.394 45.9531 394.186C47.6127 394.979 49.4889 395.198 51.2861 394.807C53.0833 394.416 54.6996 393.439 55.8804 392.028C57.0612 390.618 57.7395 388.855 57.8085 387.016C57.8676 385.868 57.6841 384.72 57.2697 383.647C56.6742 382.059 55.6064 380.693 54.2104 379.731C52.8143 378.77 51.1571 378.259 49.4621 378.269C47.7671 378.279 46.1159 378.808 44.7309 379.786C43.3459 380.763 42.2938 382.142 41.7164 383.736L46.9087 387.958L41.2013 386.631C41.1981 387.952 41.5129 389.254 42.119 390.427Z" fill="#0098AC"/>
<path d="M46.2219 374.29C48.2925 374.447 50.3464 373.82 51.9773 372.535C53.6083 371.249 54.6975 369.398 55.0294 367.348C55.3614 365.298 54.9119 363.198 53.7699 361.463C52.6279 359.729 50.8767 358.486 48.8625 357.981L48.904 361.41L47.0212 357.685C44.819 357.582 42.6661 358.358 41.0361 359.843C39.4061 361.328 38.4327 363.4 38.3298 365.602C38.227 367.805 39.0032 369.959 40.4877 371.589C41.9722 373.219 44.0434 374.193 46.2456 374.296L46.2219 374.29Z" fill="#0098AC"/>
<path d="M26.0505 360.865C27.139 360.916 28.227 360.753 29.2523 360.383C30.2776 360.014 31.2201 359.447 32.0261 358.713C32.832 357.979 33.4857 357.094 33.9496 356.108C34.4136 355.122 34.6788 354.054 34.7301 352.965C34.7814 351.876 34.6178 350.788 34.2487 349.763C33.8796 348.737 33.3121 347.794 32.5787 346.988C31.8453 346.182 30.9603 345.528 29.9743 345.064C28.9883 344.6 27.9206 344.335 26.8321 344.284C25.2781 344.206 23.7342 344.572 22.3798 345.338L23.8481 349.365L20.8227 346.463C19.2046 347.945 18.2401 350.009 18.1407 352.201C18.1005 352.967 18.1723 353.735 18.3538 354.481C18.767 356.238 19.7423 357.812 21.1314 358.964C22.5206 360.117 24.2477 360.784 26.0505 360.865Z" fill="#0098AC"/>
<path opacity="0.1" d="M28.4188 336.384C30.337 336.597 32.202 337.195 34.1262 337.313C36.0504 337.432 38.164 336.97 39.3837 335.478C40.0409 334.666 40.3665 333.648 40.9171 332.771C41.4445 331.953 42.164 331.276 43.013 330.799C43.5143 331.847 43.7898 332.989 43.8215 334.151C43.8532 335.313 43.6404 336.468 43.1969 337.542C42.7535 338.616 42.0893 339.585 41.2474 340.385C40.4055 341.186 39.4047 341.801 38.31 342.19C37.2153 342.579 36.051 342.733 34.8928 342.643C33.7346 342.553 32.6082 342.22 31.5868 341.666C30.5654 341.113 29.6717 340.351 28.9638 339.429C28.2559 338.508 27.7494 337.448 27.4774 336.319C27.7912 336.33 28.105 336.354 28.4188 336.384Z" fill="black"/>
<path opacity="0.1" d="M26.0505 360.865C27.4836 360.938 28.911 360.637 30.1931 359.992C31.4752 359.348 32.568 358.381 33.3646 357.188C34.1613 355.994 34.6344 354.614 34.7378 353.182C34.8412 351.751 34.5713 350.317 33.9545 349.021C33.2949 349.467 32.7279 350.036 32.2849 350.697C31.6929 351.591 31.3317 352.622 30.639 353.445C29.3424 354.967 27.134 355.464 25.1269 355.369C23.1199 355.275 21.1838 354.712 19.2064 354.528C18.9281 354.528 18.6498 354.481 18.3716 354.475C18.7828 356.23 19.755 357.804 21.1407 358.957C22.5263 360.11 24.25 360.78 26.0505 360.865Z" fill="black"/>
<path opacity="0.1" d="M46.2219 374.29C47.6422 374.363 49.0573 374.069 50.3312 373.437C51.6051 372.805 52.695 371.855 53.496 370.68C54.297 369.505 54.7822 368.143 54.905 366.726C55.0278 365.309 54.7839 363.884 54.197 362.588C53.5066 363.037 52.9046 363.609 52.4208 364.276C51.7754 365.188 51.3728 366.236 50.6446 367.077C49.2474 368.64 46.891 369.191 44.7655 369.138C42.64 369.085 40.7277 368.587 38.6791 368.433C39.1791 370.068 40.1723 371.509 41.5226 372.557C42.873 373.606 44.5143 374.211 46.2219 374.29Z" fill="black"/>
<path opacity="0.1" d="M42.119 390.427C42.9447 392.071 44.2935 393.393 45.9531 394.186C47.6127 394.979 49.4889 395.197 51.2861 394.807C53.0833 394.416 54.6996 393.438 55.8804 392.028C57.0612 390.618 57.7395 388.855 57.8085 387.016C57.8676 385.868 57.6841 384.719 57.2697 383.647C56.5852 384.095 55.9707 384.641 55.4462 385.269C54.6529 386.234 54.1378 387.324 53.2201 388.23C51.5209 389.9 48.7796 390.599 46.3404 390.652C44.9301 390.658 43.5207 390.583 42.119 390.427Z" fill="black"/>
<path d="M62.8706 402.68C62.8706 402.68 56.3106 402.478 54.3391 401.069C52.3675 399.659 44.2741 397.978 43.759 400.24C43.2439 402.502 33.9012 411.491 41.3079 411.527C48.7145 411.563 58.5131 410.343 60.4846 409.158C62.4562 407.974 62.8706 402.68 62.8706 402.68Z" fill="#656380"/>
<path opacity="0.2" d="M41.1717 410.739C48.5783 410.799 58.3769 409.555 60.3544 408.371C61.8523 407.459 62.4503 404.172 62.6516 402.656H62.8706C62.8706 402.656 62.4562 407.944 60.5024 409.17C58.5486 410.396 48.7264 411.586 41.3256 411.539C39.1883 411.539 38.4482 410.763 38.4897 409.632C38.7679 410.301 39.585 410.739 41.1717 410.739Z" fill="black"/>
<path d="M624.621 411.764C622.845 408.501 624.858 404.504 627.155 401.59C629.452 398.677 632.253 395.668 632.193 391.943C632.111 386.614 626.45 383.469 621.933 380.644C618.581 378.546 615.489 376.06 612.721 373.236C611.564 372.147 610.606 370.865 609.891 369.446C608.955 367.361 608.985 364.993 609.044 362.707C609.237 355.103 609.612 347.507 610.169 339.919" stroke="#3F3D56" stroke-width="4" stroke-miterlimit="10"/>
<path d="M601.596 339.499C601.66 338.108 602.073 336.755 602.797 335.566C603.522 334.377 604.534 333.389 605.74 332.694L607.599 336.372L607.546 331.918C608.433 331.655 609.357 331.542 610.281 331.587C611.917 331.668 613.492 332.232 614.807 333.208C616.123 334.183 617.12 335.527 617.673 337.068C618.225 338.61 618.309 340.281 617.914 341.87C617.518 343.46 616.661 344.897 615.449 345.999C614.238 347.101 612.728 347.82 611.109 348.065C609.489 348.31 607.834 348.069 606.351 347.374C604.869 346.678 603.625 345.559 602.778 344.158C601.93 342.756 601.517 341.135 601.59 339.499H601.596Z" fill="#0098AC"/>
<path d="M616.415 395.757C617.241 397.401 618.59 398.723 620.249 399.516C621.909 400.309 623.785 400.527 625.582 400.137C627.379 399.746 628.996 398.768 630.176 397.358C631.357 395.947 632.036 394.184 632.105 392.346C632.164 391.197 631.98 390.049 631.566 388.976C630.97 387.389 629.902 386.023 628.506 385.061C627.11 384.1 625.453 383.589 623.758 383.599C622.063 383.609 620.412 384.138 619.027 385.115C617.642 386.093 616.59 387.471 616.012 389.065L621.205 393.288L615.497 391.961C615.494 393.282 615.809 394.584 616.415 395.757Z" fill="#0098AC"/>
<path d="M620.518 379.62C622.588 379.776 624.642 379.15 626.273 377.865C627.904 376.579 628.993 374.728 629.325 372.678C629.657 370.628 629.208 368.528 628.066 366.793C626.924 365.058 625.173 363.816 623.159 363.311L623.2 366.739L621.317 363.015C619.115 362.912 616.962 363.688 615.332 365.173C613.702 366.658 612.729 368.729 612.626 370.932C612.523 373.135 613.299 375.288 614.784 376.919C616.268 378.549 618.339 379.523 620.542 379.626L620.518 379.62Z" fill="#0098AC"/>
<path d="M600.347 366.195C602.545 366.298 604.694 365.524 606.322 364.043C607.95 362.561 608.923 360.494 609.026 358.295C609.13 356.096 608.356 353.946 606.875 352.318C605.394 350.69 603.326 349.717 601.128 349.613C599.574 349.536 598.03 349.902 596.676 350.667L598.144 354.694L595.119 351.793C593.501 353.275 592.536 355.338 592.437 357.531C592.397 358.297 592.468 359.065 592.65 359.811C593.063 361.568 594.038 363.142 595.427 364.294C596.817 365.446 598.544 366.114 600.347 366.195Z" fill="#0098AC"/>
<path opacity="0.1" d="M602.715 341.713C604.633 341.927 606.498 342.525 608.422 342.643C610.346 342.762 612.46 342.3 613.68 340.807C614.337 339.996 614.662 338.977 615.213 338.101C615.74 337.283 616.46 336.606 617.309 336.129C617.81 337.177 618.086 338.319 618.117 339.481C618.149 340.642 617.936 341.798 617.493 342.872C617.05 343.946 616.385 344.914 615.543 345.715C614.702 346.516 613.701 347.131 612.606 347.519C611.511 347.908 610.347 348.063 609.189 347.973C608.031 347.882 606.904 347.55 605.883 346.996C604.861 346.443 603.968 345.68 603.26 344.759C602.552 343.838 602.045 342.778 601.773 341.648C602.087 341.66 602.401 341.684 602.715 341.713Z" fill="black"/>
<path opacity="0.1" d="M600.347 366.195C601.78 366.267 603.207 365.967 604.489 365.322C605.771 364.678 606.864 363.711 607.661 362.517C608.457 361.324 608.93 359.944 609.034 358.512C609.137 357.081 608.867 355.647 608.251 354.351C607.591 354.796 607.024 355.365 606.581 356.027C605.989 356.921 605.628 357.951 604.935 358.774C603.638 360.296 601.43 360.794 599.423 360.699C597.416 360.604 595.48 360.042 593.502 359.858C593.224 359.858 592.946 359.811 592.668 359.805C593.079 361.56 594.051 363.134 595.437 364.287C596.822 365.44 598.546 366.11 600.347 366.195Z" fill="black"/>
<path opacity="0.1" d="M620.518 379.62C621.938 379.693 623.353 379.399 624.627 378.767C625.901 378.134 626.991 377.185 627.792 376.01C628.593 374.834 629.078 373.473 629.201 372.056C629.324 370.638 629.08 369.214 628.493 367.918C627.803 368.367 627.201 368.939 626.717 369.606C626.071 370.518 625.669 371.566 624.941 372.407C623.543 373.97 621.187 374.521 619.062 374.468C616.936 374.414 615.024 373.917 612.975 373.763C613.475 375.398 614.468 376.838 615.819 377.887C617.169 378.935 618.81 379.541 620.518 379.62Z" fill="black"/>
<path opacity="0.1" d="M616.415 395.757C617.241 397.401 618.59 398.723 620.249 399.516C621.909 400.309 623.785 400.527 625.582 400.136C627.379 399.746 628.996 398.768 630.176 397.358C631.357 395.947 632.035 394.184 632.104 392.346C632.164 391.197 631.98 390.049 631.566 388.976C630.881 389.424 630.267 389.971 629.742 390.599C628.949 391.564 628.434 392.654 627.516 393.56C625.817 395.23 623.076 395.929 620.636 395.982C619.226 395.988 617.817 395.913 616.415 395.757Z" fill="black"/>
<path d="M637.167 408.009C637.167 408.009 630.607 407.808 628.635 406.399C626.663 404.989 618.57 403.307 618.055 405.57C617.54 407.832 608.197 416.821 615.604 416.857C623.01 416.892 632.809 415.672 634.781 414.488C636.752 413.304 637.167 408.009 637.167 408.009Z" fill="#656380"/>
<path opacity="0.2" d="M615.468 416.069C622.874 416.129 632.673 414.885 634.65 413.701C636.148 412.789 636.746 409.502 636.947 407.986H637.167C637.167 407.986 636.752 413.274 634.798 414.5C632.844 415.726 623.022 416.916 615.622 416.869C613.484 416.869 612.744 416.093 612.786 414.962C613.064 415.631 613.881 416.069 615.468 416.069Z" fill="black"/>
<path d="M441.42 196.105C437.505 194.763 433.558 193.519 429.579 192.374C430.235 189.693 430.844 186.999 431.409 184.291C440.373 140.758 434.511 105.689 414.494 94.1469C395.299 83.0729 363.908 94.6206 332.198 122.211C329.072 124.943 326.019 127.746 323.039 130.62C321.037 128.705 319.005 126.828 316.94 124.988C283.72 95.4793 250.44 83.0492 230.417 94.6266C211.24 105.73 205.551 138.698 213.632 179.956C214.422 184.042 215.327 188.104 216.35 192.143C211.643 193.481 207.09 194.909 202.732 196.431C163.781 209.986 138.903 231.305 138.903 253.388C138.903 276.193 165.61 299.069 206.184 312.939C209.476 314.056 212.791 315.094 216.131 316.054C215.049 320.396 214.086 324.775 213.241 329.188C205.545 369.73 211.56 401.922 230.683 412.954C250.44 424.36 283.596 412.634 315.875 384.41C318.426 382.178 320.984 379.809 323.571 377.334C326.8 380.449 330.114 383.473 333.512 386.406C364.785 413.321 395.678 424.194 414.778 413.126C434.511 401.703 440.923 367.118 432.599 325.049C431.967 321.835 431.231 318.557 430.39 315.213C432.723 314.526 435.005 313.813 437.235 313.075C479.413 299.099 506.861 276.501 506.861 253.388C506.861 231.222 481.177 209.79 441.438 196.105H441.42Z" fill="#53C1DE"/>
<path d="M432.273 298.152C430.26 298.821 428.2 299.46 426.092 300.088C420.95 284.141 414.724 268.564 407.46 253.465C414.448 238.567 420.431 223.219 425.37 207.522C429.129 208.612 432.788 209.761 436.305 210.975C470.354 222.694 491.124 240.028 491.124 253.388C491.124 267.6 468.691 286.083 432.273 298.152ZM417.164 328.105C420.846 346.706 421.367 363.524 418.94 376.665C416.749 388.479 412.345 396.355 406.898 399.511C395.299 406.221 370.504 397.498 343.761 374.479C340.694 371.838 337.609 369.025 334.507 366.041C345.656 353.694 355.96 340.608 365.347 326.873C382.115 325.452 398.765 322.88 415.18 319.174C415.93 322.207 416.596 325.167 417.176 328.057L417.164 328.105ZM264.342 398.363C253.01 402.366 243.987 402.478 238.534 399.334C226.93 392.636 222.105 366.763 228.688 332.12C229.478 328.026 230.372 323.953 231.37 319.903C247.718 323.414 264.284 325.814 280.955 327.086C290.617 340.773 301.168 353.81 312.541 366.112C310.256 368.327 307.919 370.48 305.531 372.573C291.257 385.056 276.947 393.892 264.342 398.363ZM211.27 298.063C193.325 291.928 178.511 283.957 168.352 275.263C159.228 267.446 154.622 259.683 154.622 253.388C154.622 239.986 174.598 222.89 207.907 211.277C212.091 209.82 216.312 208.492 220.571 207.291C225.519 223.161 231.51 238.687 238.505 253.767C231.422 269.063 225.358 284.81 220.352 300.905C217.297 300.033 214.27 299.085 211.27 298.063ZM229.061 176.936C222.146 141.588 226.734 114.921 238.291 108.241C250.6 101.135 277.817 111.273 306.508 136.755C308.344 138.384 310.185 140.089 312.026 141.848C300.735 154.075 290.266 167.037 280.689 180.649C264.175 182.13 247.774 184.68 231.589 188.282C230.646 184.524 229.803 180.743 229.061 176.941V176.936ZM387.798 216.133C384.202 209.919 380.474 203.784 376.614 197.727C388.354 199.214 399.598 201.18 410.16 203.596C406.77 214.35 402.84 224.927 398.384 235.284C394.985 228.829 391.457 222.446 387.798 216.133ZM323.05 153.082C330.702 161.426 337.928 170.15 344.702 179.221C330.212 178.538 315.717 178.538 301.215 179.221C308.361 169.794 315.685 161.029 323.05 153.088V153.082ZM257.924 216.239C254.312 222.505 250.849 228.849 247.533 235.273C242.957 224.418 239.043 213.74 235.846 203.43C246.343 201.062 257.539 199.161 269.203 197.698C265.287 203.793 261.524 209.974 257.912 216.239H257.924ZM269.534 310.191C258.15 308.955 246.837 307.134 235.639 304.737C238.889 294.249 242.892 283.341 247.569 272.249C250.896 278.68 254.372 285.029 257.995 291.294C261.682 297.686 265.524 303.985 269.522 310.191H269.534ZM323.494 354.801C316.035 346.783 308.604 337.9 301.357 328.3C308.403 328.58 315.579 328.721 322.885 328.721C330.384 328.721 337.787 328.555 345.093 328.223C338.349 337.446 331.136 346.317 323.483 354.801H323.494ZM398.502 271.687C403.189 282.254 407.324 293.058 410.888 304.056C399.552 306.607 388.09 308.562 376.549 309.913C380.437 303.742 384.202 297.498 387.845 291.182C391.548 284.762 395.1 278.264 398.502 271.687ZM374.228 283.329C368.655 293.009 362.772 302.504 356.579 311.814C345.661 312.595 334.382 312.998 322.885 312.998C311.387 312.998 300.298 312.643 289.57 311.944C283.219 302.666 277.221 293.157 271.577 283.418C265.933 273.678 260.701 263.793 255.881 253.761C260.724 243.682 265.94 233.792 271.53 224.092C277.111 214.396 283.057 204.921 289.368 195.667C300.315 194.838 311.529 194.405 322.873 194.405C334.217 194.405 345.501 194.843 356.437 195.673C362.677 204.899 368.597 214.337 374.198 223.985C379.799 233.634 385.086 243.478 390.059 253.518C385.145 263.633 379.874 273.562 374.246 283.305L374.228 283.329ZM406.655 107.767C418.976 114.874 423.765 143.536 416.027 181.122C415.518 183.566 414.965 186.004 414.369 188.436C398.161 184.761 381.727 182.163 365.175 180.66C355.69 167.036 345.3 154.066 334.075 141.836C336.837 139.175 339.658 136.587 342.535 134.073C369.699 110.426 395.086 101.093 406.655 107.767Z" fill="white"/>
<path d="M322.873 220.521C329.372 220.521 335.725 222.449 341.128 226.06C346.532 229.671 350.744 234.805 353.231 240.81C355.718 246.816 356.368 253.424 355.101 259.8C353.833 266.175 350.703 272.031 346.108 276.628C341.512 281.224 335.657 284.355 329.283 285.623C322.909 286.891 316.302 286.24 310.298 283.753C304.294 281.265 299.162 277.052 295.551 271.647C291.941 266.243 290.014 259.888 290.014 253.388C290.013 249.071 290.862 244.797 292.513 240.809C294.164 236.821 296.585 233.198 299.636 230.146C302.687 227.094 306.31 224.673 310.297 223.021C314.284 221.37 318.557 220.52 322.873 220.521Z" fill="#53C1DE"/>
<path d="M331.114 12.0808C331.114 14.025 330.538 15.9256 329.458 17.5423C328.378 19.1589 326.843 20.4188 325.047 21.1629C323.251 21.9069 321.275 22.1016 319.369 21.7223C317.462 21.343 315.711 20.4067 314.336 19.0319C312.962 17.6571 312.026 15.9055 311.647 13.9986C311.268 12.0917 311.462 10.1151 312.206 8.31884C312.95 6.52256 314.21 4.98726 315.826 3.90708C317.442 2.8269 319.342 2.25036 321.286 2.25036C322.578 2.24408 323.859 2.49407 325.055 2.98588C326.25 3.47768 327.336 4.20154 328.25 5.11563C329.163 6.02972 329.887 7.11591 330.379 8.31142C330.871 9.50694 331.12 10.7881 331.114 12.0808Z" fill="#3F3D56"/>
<path d="M313.435 14.562C312.656 13.1539 312.234 11.5761 312.206 9.96699C312.179 8.35785 312.546 6.76644 313.276 5.33215C314.005 3.89787 315.076 2.66447 316.393 1.74002C317.71 0.815574 319.233 0.228278 320.83 0.0295825C319.476 -0.0178471 318.127 0.215261 316.867 0.71427C315.608 1.21328 314.465 1.96741 313.51 2.9293C312.556 3.8912 311.811 5.04008 311.321 6.3038C310.832 7.56752 310.609 8.91878 310.667 10.2727C310.725 11.6267 311.062 12.9541 311.657 14.1715C312.252 15.389 313.092 16.4703 314.125 17.3474C315.158 18.2246 316.361 18.8787 317.658 19.2686C318.956 19.6586 320.32 19.776 321.665 19.6134C319.975 19.551 318.329 19.0532 316.887 18.1683C315.446 17.2833 314.257 16.0412 313.435 14.562Z" fill="#3F3D56"/>
<path d="M335.33 25.7723H309.001V66.8527H335.33V25.7723Z" fill="#3F3D56"/>
<path opacity="0.1" d="M335.33 25.7723H309.001V66.8527H335.33V25.7723Z" fill="black"/>
<path d="M267.409 174.815C267.409 174.815 264.597 182.544 257.936 183.598C251.275 184.652 247.403 186.405 247.403 186.405L263.199 196.585L271.624 195.53C271.624 195.53 272.678 184.646 276.189 182.188C279.7 179.731 267.409 174.815 267.409 174.815Z" fill="#A0616A"/>
<path d="M381.487 174.815C381.487 174.815 384.299 182.544 390.959 183.598C397.62 184.652 401.492 186.405 401.492 186.405L385.696 196.585L377.271 195.53C377.271 195.53 376.217 184.646 372.706 182.188C369.195 179.731 381.487 174.815 381.487 174.815Z" fill="#A0616A"/>
<path d="M304.614 106.701C304.614 106.701 300.404 108.81 299.001 113.026C299.001 113.026 291.304 115.484 287.065 122.152C287.065 122.152 281.796 127.772 281.097 130.579C280.399 133.386 272.347 150.239 272.347 150.239C272.347 150.239 264.271 176.574 260.061 179.381C260.061 179.381 273.4 176.574 275.857 189.916C275.857 189.916 279.013 189.916 282.524 177.628C286.035 165.34 294.46 150.239 294.46 150.239C294.46 150.239 297.266 139.71 299.723 137.951C302.18 136.193 306.041 128.121 309.551 130.253C313.062 132.385 336.23 129.898 336.23 129.898C336.23 129.898 349.906 136.199 350.25 140.409C350.593 144.62 353.056 144.975 353.405 148.487C353.754 151.998 366.744 179.731 366.744 179.731C366.744 179.731 369.201 187.429 369.906 189.206C369.906 189.206 377.603 170.599 387.81 181.134C387.81 181.134 387.454 174.111 384.299 169.883C381.143 165.654 367.449 132.669 367.449 132.669C367.449 132.669 366.046 127.754 364.642 126.35C363.239 124.947 352.351 113.707 348.491 113.707C348.491 113.707 346.389 108.442 343.932 107.738L304.614 106.701Z" fill="#3F3D56"/>
<path d="M273.021 193.073C270.28 194.174 267.3 194.546 264.372 194.152C261.444 193.759 258.668 192.614 256.314 190.828C254.026 189.071 251.521 187.618 248.86 186.505C245.136 185.001 240.683 183.888 239.328 186.405C236.87 190.971 269.161 202.204 269.161 202.204C269.161 202.204 273.377 199.747 273.021 193.073Z" fill="#3F3D56"/>
<path d="M375.874 193.073C378.615 194.174 381.595 194.546 384.523 194.152C387.451 193.759 390.228 192.614 392.582 190.828C394.869 189.071 397.375 187.618 400.036 186.505C403.76 185.001 408.212 183.888 409.568 186.405C412.025 190.971 379.734 202.204 379.734 202.204C379.734 202.204 375.519 199.747 375.874 193.073Z" fill="#3F3D56"/>
<path d="M316.088 48.9566C315.958 50.1766 315.555 51.4972 314.513 52.1426C313.66 52.6756 312.583 52.6342 311.6 52.8355C310.568 53.094 309.611 53.5915 308.807 54.2879C308.003 54.9843 307.374 55.8601 306.97 56.8447C306.182 58.8316 306.027 61.0138 306.526 63.0923C306.758 64.1102 307.059 65.1113 307.426 66.0888C308.456 69.0024 309.7 71.8923 311.624 74.3144C313.266 76.2399 315.112 77.9813 317.13 79.5079C318.379 80.5265 319.67 81.5628 321.209 82.0425C322.253 82.3181 323.327 82.4613 324.406 82.4689C325.738 82.5281 327.159 82.5695 328.314 81.9063C330.09 80.8818 330.617 78.6196 331.582 76.8016C332.399 75.2619 333.619 73.9531 334.382 72.3838C334.925 71.1469 335.322 69.8512 335.567 68.5227L337.206 61.2387C337.799 58.5916 338.343 55.607 336.857 53.3389C336.749 53.1543 336.599 52.998 336.419 52.8829C336.133 52.7701 335.822 52.7394 335.519 52.7941C333.631 52.9168 331.749 52.4867 330.102 51.5564C329.844 51.4228 329.613 51.242 329.421 51.0234C329.184 50.6441 329.042 50.2136 329.007 49.7679C328.846 48.8655 328.592 47.9823 328.249 47.1327C328.152 46.8265 327.974 46.5522 327.734 46.3392C327.481 46.1811 327.195 46.0857 326.899 46.0608C324.364 45.6495 321.808 45.3826 319.243 45.2614C318.403 45.2199 317.136 44.8824 316.556 45.6285C315.975 46.3747 316.159 48.0684 316.088 48.9566Z" fill="#A0616A"/>
<path opacity="0.1" d="M316.088 48.9566C315.958 50.1766 315.555 51.4972 314.513 52.1426C313.66 52.6756 312.583 52.6342 311.6 52.8355C310.568 53.094 309.611 53.5915 308.807 54.2879C308.003 54.9843 307.374 55.8601 306.97 56.8447C306.182 58.8316 306.027 61.0138 306.526 63.0923C306.758 64.1102 307.059 65.1113 307.426 66.0888C308.456 69.0024 309.7 71.8923 311.624 74.3144C313.266 76.2399 315.112 77.9813 317.13 79.5079C318.379 80.5265 319.67 81.5628 321.209 82.0425C322.253 82.3181 323.327 82.4613 324.406 82.4689C325.738 82.5281 327.159 82.5695 328.314 81.9063C330.09 80.8818 330.617 78.6196 331.582 76.8016C332.399 75.2619 333.619 73.9531 334.382 72.3838C334.925 71.1469 335.322 69.8512 335.567 68.5227L337.206 61.2387C337.799 58.5916 338.343 55.607 336.857 53.3389C336.749 53.1543 336.599 52.998 336.419 52.8829C336.133 52.7701 335.822 52.7394 335.519 52.7941C333.631 52.9168 331.749 52.4867 330.102 51.5564C329.844 51.4228 329.613 51.242 329.421 51.0234C329.184 50.6441 329.042 50.2136 329.007 49.7679C328.846 48.8655 328.592 47.9823 328.249 47.1327C328.152 46.8265 327.974 46.5522 327.734 46.3392C327.481 46.1811 327.195 46.0857 326.899 46.0608C324.364 45.6495 321.808 45.3826 319.243 45.2614C318.403 45.2199 317.136 44.8824 316.556 45.6285C315.975 46.3747 316.159 48.0684 316.088 48.9566Z" fill="black"/>
<path d="M311.334 53.1434C309.963 52.7339 308.543 52.5108 307.112 52.4802C303.726 52.3973 300.102 53.5639 298.148 56.3294C296.817 58.3256 296.33 60.7675 296.793 63.1219C297.264 65.4542 298.324 67.6273 299.871 69.4347C300.765 70.3847 301.559 71.4246 302.24 72.5378C303.175 74.3144 303.205 76.4403 303.459 78.4597C304.051 83.2683 306.1 87.7868 306.911 92.5658C307.722 97.3448 307.023 102.882 303.252 105.92C302.619 106.429 301.849 106.968 301.796 107.779C301.713 109.076 303.4 109.627 304.697 109.751C308.575 110.118 312.553 110.48 316.319 109.479C317.876 109.064 319.38 108.419 320.966 108.123C324.992 107.371 329.042 108.916 333.074 109.656C335.992 110.138 338.944 110.378 341.902 110.373C342.59 110.435 343.283 110.344 343.932 110.107C344.254 109.98 344.527 109.755 344.712 109.463C344.897 109.172 344.985 108.829 344.962 108.484C344.831 108.037 344.591 107.631 344.264 107.3C342.227 104.783 341.605 101.437 341.049 98.2449L339.184 87.5203C338.183 81.7878 337.254 75.558 339.966 70.4118C341.913 66.7106 345.507 64.1049 347.562 60.4629C348.278 59.3622 348.601 58.0517 348.479 56.744C348.171 54.9141 346.52 53.6054 344.826 52.8414C341.568 51.3795 337.869 51.2436 334.513 52.4624C334.572 55.0266 333.921 57.6204 333.5 60.1609L332.784 64.3063C332.419 66.7492 331.883 69.1635 331.179 71.531C330.924 72.4782 330.488 73.367 329.895 74.1485C329.262 74.8517 328.49 75.4145 327.627 75.8008C325.758 76.7147 323.704 77.1849 321.624 77.1747C320.723 77.1885 319.826 77.0504 318.971 76.766C317.594 76.1621 316.352 75.2882 315.318 74.1959C314.956 73.8862 314.632 73.5343 314.353 73.1477C314.058 72.6556 313.837 72.1229 313.696 71.5666C313.216 70.1181 312.839 68.638 312.565 67.137C312.387 65.9881 312.328 64.8215 312.245 63.6608C312.014 60.232 312.014 56.442 311.334 53.1434Z" fill="#0098AC"/>
<path d="M307.775 121.098C307.775 121.098 306.372 139.71 315.146 142.867C323.921 146.023 316.2 127.416 316.2 127.416L313.388 121.802L307.775 121.098Z" fill="#A0616A"/>
<path d="M337.609 121.098C337.609 121.098 339.012 139.71 330.238 142.867C321.464 146.023 329.184 127.416 329.184 127.416L331.996 121.802L337.609 121.098Z" fill="#A0616A"/>
<path opacity="0.1" d="M300.049 58.9766L297.243 63.5424C297.243 63.5424 299.7 79.3421 300.049 82.1491C300.352 84.1746 300.823 86.1713 301.458 88.1184C301.458 88.1184 301.807 96.5453 301.807 99.7076C301.807 102.87 303.584 108.135 303.584 108.135C303.831 111.119 304.427 114.065 305.36 116.911C306.763 120.772 308.166 125.338 308.166 125.338C308.166 125.338 309.942 120.423 316.94 127.795C317.724 127 318.164 125.928 318.164 124.811C318.164 123.694 317.724 122.622 316.94 121.826C316.94 121.826 314.839 112.351 314.839 107.43C314.839 102.509 310.972 79.0045 310.972 79.0045C310.972 79.0045 308.462 52.2848 300.049 58.9766Z" fill="black"/>
<path d="M299.35 58.6035L296.544 63.1693C296.544 63.1693 299.001 78.969 299.35 81.776C299.654 83.8019 300.128 85.7986 300.765 87.7453C300.765 87.7453 301.115 96.1722 301.115 99.3286C301.115 102.485 302.891 107.756 302.891 107.756C303.137 110.74 303.733 113.686 304.667 116.532C306.07 120.399 307.479 124.959 307.479 124.959C307.479 124.959 309.255 120.044 316.254 127.416C317.036 126.621 317.474 125.55 317.474 124.435C317.474 123.319 317.036 122.248 316.254 121.453C316.254 121.453 314.146 111.978 314.146 107.057C314.146 102.136 310.286 78.6315 310.286 78.6315C310.286 78.6315 307.775 51.9294 299.35 58.6035Z" fill="#0098AC"/>
<path opacity="0.1" d="M345.685 56.1459L347.461 58.2363C347.461 58.2363 349.527 70.1867 344.962 85.2877L343.559 98.9792C343.559 98.9792 341.102 110.568 340.753 113.375C340.404 116.182 340.404 116.532 339.699 117.586C339.485 117.832 339.368 118.148 339.368 118.474C339.368 118.801 339.485 119.116 339.699 119.362L337.591 127.061C337.591 127.061 334.436 123.2 328.118 128.115C328.118 128.115 326.342 125.308 327.763 122.85C329.184 120.393 329.166 119.339 328.817 118.634C328.468 117.929 330.22 114.424 330.22 113.719C330.22 113.014 332.695 96.8769 332.695 96.8769C332.695 96.8769 333.749 81.0772 334.803 75.8126C335.448 72.5733 335.436 65.3545 335.324 60.2734C335.211 54.9792 341.617 52.113 345.389 55.832C345.478 55.9267 345.584 56.0156 345.685 56.1459Z" fill="black"/>
<path d="M346.739 55.4234L348.515 57.5139C348.515 57.5139 350.581 69.4702 346.016 84.5653L344.613 98.2568C344.613 98.2568 342.156 109.846 341.807 112.653C341.457 115.46 341.452 115.815 340.753 116.869C340.538 117.115 340.42 117.431 340.42 117.758C340.42 118.084 340.538 118.4 340.753 118.646L338.657 126.368C338.657 126.368 335.501 122.501 329.184 127.416C329.184 127.416 327.408 124.609 328.835 122.152C330.262 119.694 330.238 118.64 329.889 117.941C329.539 117.243 331.292 113.725 331.292 113.026C331.292 112.327 333.749 96.1722 333.749 96.1722C333.749 96.1722 334.803 80.3725 335.857 75.102C336.91 69.8315 336.206 54.0377 336.206 54.0377C336.206 54.0377 341.825 50.1766 346.739 55.4234Z" fill="#0098AC"/>
<path d="M323.216 50.5319C330.972 50.5319 337.26 44.2429 337.26 36.4851C337.26 28.7272 330.972 22.4382 323.216 22.4382C315.46 22.4382 309.173 28.7272 309.173 36.4851C309.173 44.2429 315.46 50.5319 323.216 50.5319Z" fill="#A0616A"/>
<path opacity="0.1" d="M330.54 15.397C329.865 17.2818 328.63 18.9155 327.002 20.0796C325.373 21.2437 323.428 21.8826 321.427 21.9109C319.425 21.9392 317.463 21.3556 315.802 20.2381C314.141 19.1206 312.861 17.5225 312.133 15.6576C317.615 13.4487 323.216 15.4148 323.216 15.4148C326.017 14.4317 328.444 14.5206 330.54 15.397Z" fill="black"/>
<path d="M323.216 16.1195C323.216 16.1195 296.189 6.64442 302.861 52.6342C302.861 52.6342 308.829 56.4953 313.388 54.0377C313.388 54.0377 310.232 22.0888 322.518 23.4923C334.803 24.8958 332.695 53.3389 332.695 53.3389C332.695 53.3389 339.717 55.4412 341.825 51.5623C343.932 47.6834 341.12 9.82451 323.216 16.1195Z" fill="#3F3D56"/>
<path opacity="0.1" d="M322.518 21.3841C314.087 20.4247 312.926 35.1644 313.045 44.5092C313.145 35.2177 314.708 22.5981 322.518 23.4923C331.286 24.4931 332.725 39.2802 332.825 47.6538C332.926 39.9671 332.085 22.4796 322.518 21.3841Z" fill="black"/>
<path opacity="0.1" d="M302.861 50.526C302.25 46.5002 301.9 42.4392 301.813 38.3682C301.784 43.1438 302.134 47.9141 302.861 52.6342C302.861 52.6342 308.829 56.4953 313.388 54.0377C313.388 54.0377 313.317 53.2796 313.234 52.0064C308.693 54.2982 302.861 50.526 302.861 50.526Z" fill="black"/>
<path opacity="0.1" d="M341.825 49.5014C339.859 53.102 333.636 51.5208 332.796 51.278C332.754 52.5808 332.695 53.3625 332.695 53.3625C332.695 53.3625 339.717 55.4648 341.825 51.586C342.257 50.7924 342.482 48.548 342.417 45.5456C342.357 47.4702 342.15 48.9092 341.825 49.5014Z" fill="black"/>
<path d="M489.472 398.522C492.278 393.323 489.093 386.951 485.434 382.314C481.775 377.677 477.305 372.839 477.4 366.917C477.536 358.419 486.547 353.409 493.753 348.903C499.094 345.562 504.02 341.6 508.43 337.1C510.206 335.294 511.905 333.363 512.941 331.054C514.433 327.738 514.392 323.948 514.297 320.323C513.985 308.199 513.393 296.091 512.521 283.998" stroke="#3F3D56" stroke-width="4" stroke-miterlimit="10"/>
<path d="M526.185 283.359C526.084 281.141 525.426 278.984 524.271 277.088C523.116 275.192 521.502 273.617 519.578 272.51L516.618 278.372L516.707 271.266C514.014 270.469 511.137 270.549 508.493 271.494C505.848 272.44 503.573 274.201 501.994 276.524C500.416 278.848 499.617 281.613 499.713 284.42C499.808 287.227 500.794 289.932 502.526 292.142C504.259 294.353 506.649 295.955 509.352 296.718C512.054 297.481 514.929 297.366 517.562 296.387C520.194 295.409 522.448 293.619 523.997 291.276C525.546 288.933 526.31 286.159 526.179 283.353L526.185 283.359Z" fill="#0098AC"/>
<path d="M502.574 373.011C501.185 375.713 498.909 377.854 496.129 379.077C493.348 380.3 490.232 380.529 487.303 379.726C484.373 378.923 481.809 377.137 480.04 374.667C478.271 372.198 477.405 369.195 477.587 366.162C477.768 363.13 478.987 360.252 481.039 358.011C483.091 355.771 485.85 354.305 488.854 353.858C491.859 353.411 494.925 354.011 497.54 355.558C500.154 357.104 502.158 359.503 503.214 362.351L494.925 369.085L504.025 366.97C504.029 369.071 503.532 371.142 502.574 373.011Z" fill="#0098AC"/>
<path d="M496.032 347.292C492.792 347.429 489.614 346.373 487.101 344.323C484.588 342.273 482.914 339.372 482.397 336.17C481.879 332.968 482.554 329.688 484.293 326.95C486.033 324.213 488.716 322.209 491.834 321.318L491.763 326.778L494.759 320.856H494.794C496.539 320.762 498.285 321.014 499.932 321.598C501.579 322.182 503.094 323.086 504.39 324.258C505.687 325.43 506.738 326.847 507.484 328.427C508.23 330.007 508.657 331.72 508.738 333.466C508.82 335.211 508.555 336.956 507.96 338.599C507.364 340.242 506.45 341.751 505.269 343.039C504.088 344.327 502.663 345.368 501.078 346.103C499.493 346.838 497.778 347.252 496.032 347.321V347.292Z" fill="#0098AC"/>
<path d="M528.181 325.896C526.132 325.992 524.09 325.611 522.214 324.783C520.338 323.955 518.68 322.702 517.37 321.124C516.06 319.546 515.135 317.685 514.667 315.688C514.199 313.691 514.2 311.613 514.672 309.617C515.143 307.621 516.072 305.762 517.384 304.186C518.696 302.61 520.356 301.36 522.233 300.535C524.111 299.71 526.154 299.332 528.202 299.431C530.25 299.53 532.247 300.104 534.036 301.107L531.668 307.52L536.481 302.901C538.408 304.669 539.769 306.968 540.392 309.509C541.014 312.049 540.871 314.717 539.98 317.176C539.09 319.635 537.491 321.776 535.386 323.327C533.28 324.879 530.763 325.773 528.151 325.896H528.181Z" fill="#0098AC"/>
<path opacity="0.1" d="M524.409 286.888C521.348 287.226 518.376 288.179 515.309 288.369C512.242 288.558 508.874 287.824 506.938 285.408C505.89 284.123 505.369 282.5 504.487 281.096C503.649 279.793 502.504 278.716 501.153 277.958C500.299 279.637 499.813 281.479 499.728 283.362C499.642 285.244 499.959 287.123 500.657 288.872C501.355 290.622 502.418 292.203 503.775 293.51C505.133 294.816 506.753 295.818 508.528 296.448C510.303 297.078 512.192 297.322 514.069 297.164C515.946 297.006 517.768 296.45 519.413 295.531C521.058 294.613 522.488 293.354 523.608 291.84C524.728 290.325 525.512 288.588 525.907 286.746C525.404 286.799 524.907 286.835 524.409 286.888Z" fill="black"/>
<path opacity="0.1" d="M528.181 325.896C525.898 326.001 523.627 325.513 521.589 324.482C519.55 323.45 517.812 321.909 516.545 320.007C515.277 318.106 514.522 315.909 514.353 313.63C514.185 311.351 514.608 309.066 515.582 306.999C516.636 307.706 517.541 308.614 518.246 309.67C519.187 311.091 519.762 312.737 520.869 314.046C522.929 316.468 526.458 317.262 529.655 317.12C532.852 316.977 535.931 316.066 539.128 315.769C539.572 315.734 540.016 315.704 540.466 315.692C539.807 318.498 538.251 321.013 536.033 322.854C533.816 324.696 531.059 325.764 528.181 325.896Z" fill="black"/>
<path opacity="0.1" d="M496.032 347.292C493.772 347.398 491.523 346.922 489.499 345.912C487.475 344.901 485.743 343.389 484.469 341.519C483.195 339.649 482.421 337.484 482.221 335.23C482.021 332.976 482.402 330.709 483.326 328.644C484.418 329.361 485.368 330.274 486.127 331.338C487.157 332.789 487.796 334.459 489.004 335.803C491.236 338.291 494.99 339.167 498.376 339.084C501.656 339.013 504.812 338.208 508.074 337.959C507.272 340.566 505.685 342.861 503.53 344.532C501.374 346.202 498.756 347.166 496.032 347.292Z" fill="black"/>
<path opacity="0.1" d="M502.574 373.011C501.039 376.055 498.391 378.39 495.178 379.53C491.966 380.67 488.438 380.528 485.328 379.133C482.219 377.738 479.766 375.197 478.481 372.04C477.196 368.882 477.178 365.35 478.43 362.18C479.522 362.895 480.502 363.77 481.337 364.773C482.598 366.307 483.427 368.048 484.889 369.475C487.595 372.134 491.965 373.23 495.854 373.331C498.099 373.355 500.342 373.248 502.574 373.011Z" fill="black"/>
<path d="M469.502 392.535C469.502 392.535 479.952 392.216 483.119 389.971C486.287 387.727 499.199 385.05 499.981 388.645C500.762 392.239 515.688 406.541 503.889 406.636C492.089 406.73 476.47 404.8 473.327 402.881C470.183 400.962 469.502 392.535 469.502 392.535Z" fill="#656380"/>
<path opacity="0.2" d="M504.078 405.41C492.278 405.504 476.66 403.568 473.516 401.655C471.148 400.192 470.171 394.963 469.851 392.547H469.502C469.502 392.547 470.165 400.98 473.309 402.893C476.453 404.806 492.071 406.742 503.871 406.647C507.275 406.647 508.453 405.41 508.388 403.615C507.915 404.687 506.618 405.362 504.078 405.41Z" fill="black"/>
<path d="M191.235 25.3814L180.43 32.2331L186.99 20.3004C185.139 18.8199 182.847 17.9989 180.477 17.9672H180.299C179.55 17.9777 178.801 17.9222 178.061 17.8014L174.397 20.1227L175.965 17.2684C173.372 16.3619 171.13 14.6607 169.559 12.4065L163.005 16.5518L167.15 9.01912C163.313 4.41778 158.15 1.59302 152.461 1.59302C145.646 1.59302 139.578 5.64954 135.658 11.9682C134.499 13.8575 132.861 15.4068 130.911 16.4593C128.96 17.5117 126.766 18.0298 124.551 17.9612H124.184C116.659 17.9612 110.567 26.4947 110.567 37.0239C110.567 47.5531 116.665 56.0807 124.184 56.0807C125.836 56.0759 127.461 55.6695 128.921 54.8963C133.829 52.344 140.27 52.2966 145.409 54.5766C147.613 55.5678 150 56.0828 152.416 56.0879C154.832 56.093 157.222 55.5881 159.429 54.6062C164.533 52.3736 170.897 52.421 175.776 54.926C177.223 55.6919 178.834 56.0982 180.471 56.1103C187.996 56.1103 194.088 47.5768 194.088 37.0536C194.133 32.9847 193.152 28.9702 191.235 25.3814Z" fill="#F2F2F2"/>
<path opacity="0.03" d="M170.862 53.2678C166.931 52.5201 162.866 52.9613 159.187 54.5351C156.98 55.5161 154.591 56.0206 152.176 56.0155C149.762 56.0104 147.375 55.4958 145.173 54.5055C140.028 52.2255 133.586 52.2729 128.678 54.8253C127.218 55.5984 125.593 56.0048 123.941 56.0096C117.257 56.0096 111.698 49.2705 110.537 40.3876C111.872 39.4146 113.007 38.1919 113.876 36.787C117.819 30.4743 123.864 26.4059 130.679 26.4059C137.494 26.4059 143.491 30.415 147.411 36.6627C148.58 38.5503 150.217 40.1041 152.163 41.1737C154.109 42.2433 156.297 42.7925 158.518 42.7682H158.671C164 42.7741 168.618 47.0438 170.862 53.2678Z" fill="black"/>
<path d="M473.688 39.3335L468.318 42.7505L471.592 36.8285C470.667 36.0807 469.519 35.6637 468.33 35.6441H468.247C467.872 35.6494 467.498 35.6216 467.128 35.5612L465.298 36.7456L466.068 35.2888C464.774 34.838 463.655 33.9904 462.871 32.8667L459.603 34.9394L461.669 31.1849C460.799 30.0625 459.691 29.1476 458.424 28.5065C457.158 27.8653 455.764 27.5139 454.345 27.4778C450.941 27.4778 447.915 29.5031 445.962 32.6536C445.381 33.5919 444.562 34.36 443.589 34.88C442.616 35.4 441.523 35.6534 440.42 35.6145H440.236C436.483 35.6145 433.44 39.8724 433.44 45.0896C433.44 50.3068 436.483 54.5943 440.236 54.5943C441.062 54.5915 441.875 54.3882 442.605 54.0021C443.882 53.3813 445.279 53.0455 446.699 53.0179C448.119 52.9903 449.528 53.2716 450.828 53.8422C451.929 54.3322 453.12 54.5854 454.324 54.5854C455.529 54.5854 456.72 54.3322 457.821 53.8422C459.112 53.283 460.508 53.0078 461.914 53.0354C463.321 53.063 464.705 53.3927 465.973 54.0021C466.703 54.3885 467.516 54.5917 468.341 54.5943C472.095 54.5943 475.138 50.3424 475.138 45.0896C475.144 43.0797 474.645 41.1006 473.688 39.3335Z" fill="#F2F2F2"/>
<path opacity="0.03" d="M463.534 53.2441C461.574 52.8739 459.548 53.0944 457.714 53.8777C456.614 54.3677 455.422 54.6209 454.218 54.6209C453.013 54.6209 451.822 54.3677 450.722 53.8777C449.42 53.307 448.01 53.0256 446.589 53.0533C445.169 53.0809 443.771 53.4167 442.492 54.0376C441.763 54.4253 440.95 54.6286 440.124 54.6298C436.785 54.6298 434.014 51.2721 433.434 46.8425C434.098 46.3614 434.664 45.7585 435.103 45.0659C437.057 41.9154 440.088 39.8961 443.487 39.8961C446.885 39.8961 449.875 41.8918 451.829 45.0067C452.412 45.9489 453.228 46.7244 454.199 47.2577C455.17 47.7911 456.263 48.0642 457.371 48.0506H457.459C460.118 48.0091 462.397 50.141 463.534 53.2441Z" fill="black"/>
<path d="M120.981 127.831L129.661 133.326L124.403 123.763C125.894 122.576 127.738 121.919 129.643 121.897H129.779C130.374 121.906 130.968 121.862 131.555 121.767L134.486 123.626L133.213 121.34C135.289 120.61 137.084 119.247 138.346 117.444L143.598 120.772L140.318 114.737C143.39 111.054 147.529 108.816 152.082 108.816C157.547 108.816 162.407 112.061 165.551 117.106C166.477 118.618 167.787 119.859 169.346 120.702C170.906 121.545 172.66 121.962 174.432 121.909H174.728C180.755 121.909 185.64 128.743 185.64 137.176C185.64 145.609 180.755 152.448 174.728 152.448C173.401 152.443 172.094 152.116 170.921 151.495C168.869 150.498 166.625 149.959 164.345 149.915C162.064 149.871 159.801 150.323 157.712 151.24C155.943 152.031 154.026 152.44 152.088 152.44C150.149 152.44 148.233 152.031 146.463 151.24C144.39 150.342 142.147 149.9 139.887 149.943C137.628 149.987 135.404 150.516 133.367 151.495C132.206 152.1 130.917 152.418 129.607 152.425C123.574 152.425 118.69 145.591 118.69 137.152C118.661 133.902 119.449 130.697 120.981 127.831Z" fill="#F2F2F2"/>
<path opacity="0.03" d="M137.292 150.174C140.443 149.581 143.698 149.935 146.647 151.193C148.416 151.984 150.333 152.393 152.271 152.393C154.21 152.393 156.126 151.984 157.896 151.193C159.986 150.276 162.25 149.823 164.531 149.867C166.813 149.911 169.058 150.45 171.111 151.448C172.282 152.069 173.586 152.396 174.912 152.401C180.27 152.401 184.722 147.006 185.652 139.888C184.582 139.105 183.674 138.124 182.975 136.998C179.832 131.941 174.971 128.707 169.506 128.707C164.041 128.707 159.246 131.917 156.102 136.927C155.166 138.436 153.858 139.679 152.302 140.535C150.746 141.39 148.996 141.831 147.221 141.813H147.085C142.787 141.771 139.092 145.194 137.292 150.174Z" fill="black"/>
</g>
<defs>
<clipPath id="clip0_4_241">
<rect width="656" height="433" fill="white"/>
</clipPath>
</defs>
</svg>
