<svg width="215" height="148" viewBox="0 0 215 148" fill="none" xmlns="http://www.w3.org/2000/svg">
<g clip-path="url(#clip0_17_600)">
<path d="M19.4314 64.6383C15.451 67.88 21.9643 96.3348 21.9643 96.3348C21.9643 96.3348 23.4117 139.737 26.4875 141.718C29.5632 143.699 36.4384 141.538 39.1523 141.178C41.8661 140.818 39.5141 113.984 35.5337 104.079C31.5534 94.1737 34.6291 79.7662 34.6291 79.7662L56.1593 83.9084C56.1593 83.9084 43.1326 94.8941 43.6754 97.2353C44.2182 99.5765 58.1495 107.501 60.6824 107.861C63.2154 108.221 68.1004 93.4533 72.4426 83.3681C76.7849 73.2828 42.7708 66.7994 42.7708 66.7994L38.0667 57.9749C38.0667 57.9749 23.4117 61.3966 19.4314 64.6383Z" fill="#2F2E41"/>
<path d="M30.2372 142.466C30.2372 142.466 28.9243 147.04 30.2372 147.04C31.5501 147.04 33.9571 148.347 37.677 147.911C41.3968 147.476 40.3027 142.902 37.677 142.248C35.0512 141.595 35.7076 136.367 35.7076 136.367C34.8323 134.625 30.6748 136.803 30.6748 136.803L30.2372 142.466Z" fill="#2F2E41"/>
<path d="M48.8766 106.093C48.8766 106.093 46.6241 110.288 47.9075 110.564C49.1909 110.84 51.2668 112.622 54.9954 112.977C58.7239 113.332 58.6235 108.632 56.1952 107.442C53.7668 106.252 55.516 101.28 55.516 101.28C55.0296 99.3927 50.5041 100.649 50.5041 100.649L48.8766 106.093Z" fill="#2F2E41"/>
<path d="M21.8738 25.6479C22.2357 26.3683 20.6074 35.373 20.6074 35.373L22.0548 37.8943C22.0548 37.8943 30.3774 34.6526 29.1109 34.1124C27.8444 33.5721 28.0253 26.9086 28.0253 26.9086C28.0253 26.9086 21.512 24.9276 21.8738 25.6479Z" fill="#FFB9B9"/>
<path d="M25.0064 28.4238C31.133 28.4238 36.0996 23.48 36.0996 17.3816C36.0996 11.2831 31.133 6.33936 25.0064 6.33936C18.8797 6.33936 13.9131 11.2831 13.9131 17.3816C13.9131 23.48 18.8797 28.4238 25.0064 28.4238Z" fill="#2F2E41"/>
<path d="M24.2413 11.6135C26.7765 11.6135 28.8316 9.56779 28.8316 7.04429C28.8316 4.5208 26.7765 2.4751 24.2413 2.4751C21.7062 2.4751 19.651 4.5208 19.651 7.04429C19.651 9.56779 21.7062 11.6135 24.2413 11.6135Z" fill="#2F2E41"/>
<path d="M26.2496 9.11371C26.4084 9.13012 26.568 9.13837 26.7277 9.13841C27.3305 9.13841 27.9274 9.02022 28.4844 8.7906C29.0413 8.56098 29.5473 8.22441 29.9736 7.80012C30.3998 7.37583 30.7379 6.87212 30.9686 6.31776C31.1993 5.7634 31.318 5.16924 31.318 4.5692C31.318 3.96917 31.1993 3.37501 30.9686 2.82064C30.7379 2.26628 30.3998 1.76258 29.9736 1.33829C29.5473 0.913999 29.0413 0.577434 28.4844 0.34781C27.9274 0.118186 27.3305 -1.78825e-08 26.7277 0C26.568 4.08847e-05 26.4084 0.00828621 26.2496 0.0247038C27.378 0.142394 28.4228 0.671929 29.1821 1.51114C29.9415 2.35035 30.3617 3.43977 30.3617 4.5692C30.3617 5.69864 29.9415 6.78806 29.1821 7.62727C28.4228 8.46648 27.378 8.99601 26.2496 9.11371Z" fill="#2F2E41"/>
<path d="M25.3114 30.3305C29.5082 30.3305 32.9103 26.944 32.9103 22.7666C32.9103 18.5891 29.5082 15.2026 25.3114 15.2026C21.1147 15.2026 17.7126 18.5891 17.7126 22.7666C17.7126 26.944 21.1147 30.3305 25.3114 30.3305Z" fill="#FFB9B9"/>
<path d="M14.3654 34.3827C12.0134 34.9229 8.03299 40.6859 8.03299 40.6859L14.3654 46.9892C14.3654 46.9892 18.8885 63.918 19.4313 64.6384C22.9873 69.3578 38.9713 58.8754 38.9713 58.8754C38.9713 58.8754 38.3381 53.7427 38.6999 51.2214C39.048 48.7965 37.343 43.9276 37.343 43.9276C37.343 43.9276 43.3136 41.4063 42.0471 38.885C40.7806 36.3637 33.0008 30.6007 29.7441 32.5817C26.4875 34.5628 19.9741 32.5817 19.9741 32.5817C19.9741 32.5817 16.7174 33.8424 14.3654 34.3827Z" fill="#E6E6E6"/>
<path d="M60.592 70.6716C60.592 70.6716 70.9048 79.4962 73.4378 77.6953C75.9707 75.8943 63.6677 69.5911 63.6677 69.5911L60.592 70.6716Z" fill="#FFB9B9"/>
<path d="M14.275 67.61C15.7224 69.2309 22.5976 65.0887 21.7161 63.2492C20.8347 61.4097 15.3605 65.0887 15.3605 65.0887C15.3605 65.0887 12.8276 65.9892 14.275 67.61Z" fill="#FFB9B9"/>
<path d="M14.3654 43.2072L6.76654 57.2545C6.76654 57.2545 15.451 64.4583 16.5365 64.6383C17.6221 64.8184 14.3654 69.5009 14.3654 69.5009C14.3654 69.5009 4.59541 62.6573 0.795971 59.2355C-3.00347 55.8137 8.03301 40.6859 8.03301 40.6859L11.2897 38.7048L14.3654 43.2072Z" fill="#E6E6E6"/>
<path d="M36.4384 42.6671L45.3037 56.3542C45.3037 56.3542 58.8732 71.4821 60.6825 72.2024C62.4917 72.9228 64.6628 69.501 64.6628 69.501L48.3795 49.8708L42.228 38.8851L39.876 37.9846L36.4384 42.6671Z" fill="#E6E6E6"/>
<path d="M25.0064 18.3488C29.2316 18.3488 32.6569 16.3031 32.6569 13.7796C32.6569 11.2561 29.2316 9.21045 25.0064 9.21045C20.7811 9.21045 17.3559 11.2561 17.3559 13.7796C17.3559 16.3031 20.7811 18.3488 25.0064 18.3488Z" fill="#2F2E41"/>
<path d="M46.4686 112.365C46.2179 112.366 45.9775 112.465 45.8002 112.641C45.6229 112.818 45.5232 113.057 45.5229 113.307V145.415C45.5232 145.665 45.6229 145.904 45.8002 146.081C45.9775 146.257 46.2179 146.356 46.4686 146.357H156.459C156.71 146.356 156.95 146.257 157.128 146.081C157.305 145.904 157.405 145.665 157.405 145.415V113.307C157.405 113.057 157.305 112.818 157.128 112.641C156.95 112.465 156.71 112.366 156.459 112.365L46.4686 112.365Z" fill="#E6E6E6"/>
<path d="M47.8929 143.997H155.035V114.724H47.8929V143.997Z" fill="white"/>
<path d="M141.511 137.925C141.305 137.925 141.101 137.965 140.911 138.043C140.72 138.121 140.548 138.236 140.402 138.381C140.256 138.526 140.141 138.698 140.062 138.887C139.983 139.076 139.942 139.279 139.942 139.484C139.942 139.689 139.983 139.892 140.062 140.081C140.141 140.271 140.256 140.443 140.402 140.588C140.548 140.732 140.72 140.847 140.911 140.925C141.101 141.004 141.305 141.044 141.511 141.044H147.777C148.193 141.044 148.591 140.879 148.885 140.587C149.179 140.294 149.344 139.898 149.344 139.484C149.344 139.071 149.179 138.674 148.885 138.382C148.591 138.089 148.193 137.925 147.777 137.925H141.511Z" fill="#0098AC"/>
<path d="M149.344 134.9H77.0052V135.31H149.344V134.9Z" fill="#E6E6E6"/>
<path d="M61.8841 138.444C66.9235 138.444 71.0088 134.377 71.0088 129.361C71.0088 124.345 66.9235 120.278 61.8841 120.278C56.8447 120.278 52.7594 124.345 52.7594 129.361C52.7594 134.377 56.8447 138.444 61.8841 138.444Z" fill="#0098AC"/>
<path d="M77.1194 132.609L76.8909 132.267L84.4079 127.279L89.5626 129.742L96.977 125.027L111.726 131.289L123.471 125.546L134.876 130.149L149.207 117.514L149.481 117.821L134.958 130.625L123.487 125.996L111.738 131.741L97.0153 125.489L89.5912 130.211L84.4412 127.75L77.1194 132.609Z" fill="#3F3D56"/>
<path d="M78.3448 138.139C78.1687 138.139 77.9943 138.173 77.8316 138.24C77.6689 138.307 77.521 138.405 77.3964 138.529C77.2719 138.653 77.173 138.8 77.1056 138.962C77.0382 139.124 77.0035 139.297 77.0035 139.473C77.0035 139.648 77.0382 139.821 77.1056 139.983C77.173 140.145 77.2719 140.292 77.3964 140.416C77.521 140.54 77.6689 140.638 77.8316 140.705C77.9943 140.772 78.1687 140.806 78.3448 140.806H92.3591C92.7141 140.806 93.0544 140.665 93.3053 140.415C93.5561 140.165 93.697 139.826 93.697 139.473C93.697 139.119 93.5561 138.78 93.3053 138.53C93.0544 138.28 92.7141 138.14 92.3591 138.139H78.3448Z" fill="#E6E6E6"/>
<path d="M65.3691 125.298H66.7949L63.8281 128.22C63.3099 128.729 62.6114 129.014 61.8837 129.014C61.156 129.014 60.4575 128.729 59.9393 128.22L56.9729 125.298H58.3987L60.6524 127.518C60.9806 127.84 61.423 128.02 61.8839 128.02C62.3448 128.02 62.7872 127.84 63.1154 127.518L65.3691 125.298ZM58.3806 133.424H56.9548L59.9397 130.484C60.4579 129.975 61.1564 129.69 61.8841 129.69C62.6118 129.69 63.3103 129.975 63.8285 130.484L66.8134 133.424H65.3876L63.1155 131.186C62.7872 130.864 62.3448 130.684 61.8839 130.684C61.423 130.684 60.9806 130.864 60.6524 131.186L58.3806 133.424Z" fill="white"/>
<path d="M60.7913 9.51856C60.5405 9.51885 60.3001 9.61813 60.1228 9.79462C59.9455 9.9711 59.8458 10.2104 59.8455 10.46V42.5685C59.8458 42.8181 59.9455 43.0574 60.1228 43.2339C60.3001 43.4104 60.5405 43.5096 60.7913 43.5099H170.782C171.032 43.5096 171.273 43.4104 171.45 43.2339C171.627 43.0574 171.727 42.8181 171.727 42.5685V10.46C171.727 10.2104 171.627 9.9711 171.45 9.79461C171.273 9.61813 171.032 9.51885 170.782 9.51855L60.7913 9.51856Z" fill="#E6E6E6"/>
<path d="M62.2155 41.1508H169.357V11.8777H62.2155V41.1508Z" fill="white"/>
<path d="M155.833 35.0781C155.418 35.0781 155.019 35.2424 154.726 35.5349C154.432 35.8273 154.267 36.224 154.267 36.6375C154.267 37.0511 154.432 37.4478 154.726 37.7402C155.019 38.0326 155.418 38.1969 155.833 38.1969H162.1C162.515 38.1969 162.914 38.0326 163.208 37.7402C163.501 37.4478 163.667 37.0511 163.667 36.6375C163.667 36.224 163.501 35.8273 163.208 35.5349C162.914 35.2424 162.515 35.0781 162.1 35.0781H155.833Z" fill="#0098AC"/>
<path d="M163.667 32.053H91.3278V32.4633H163.667V32.053Z" fill="#E6E6E6"/>
<path d="M91.442 29.762L91.2135 29.4206L98.7305 24.4323L103.885 26.8953L111.3 22.1801L111.4 22.2225L126.049 28.4427L137.794 22.6996L149.199 27.3021L163.53 14.6672L163.803 14.9744L149.281 27.7779L137.81 23.1488L126.061 28.8939L111.338 22.6425L103.914 27.364L98.7638 24.9033L91.442 29.762Z" fill="#3F3D56"/>
<path d="M92.6674 35.2925C92.3124 35.2929 91.9721 35.4336 91.7213 35.6836C91.4704 35.9337 91.3295 36.2726 91.3295 36.6259C91.3295 36.9793 91.4704 37.3182 91.7213 37.5682C91.9721 37.8182 92.3124 37.9589 92.6674 37.9594H106.682C107.037 37.9594 107.378 37.8189 107.629 37.5688C107.88 37.3187 108.021 36.9796 108.021 36.6259C108.021 36.2723 107.88 35.9331 107.629 35.683C107.378 35.433 107.037 35.2925 106.682 35.2925H92.6674Z" fill="#E6E6E6"/>
<path d="M104.064 60.9419C103.813 60.9422 103.573 61.0415 103.395 61.218C103.218 61.3944 103.118 61.6337 103.118 61.8833V93.9919C103.118 94.2414 103.218 94.4807 103.395 94.6572C103.573 94.8337 103.813 94.933 104.064 94.9333H214.054C214.305 94.933 214.545 94.8337 214.723 94.6572C214.9 94.4807 215 94.2414 215 93.9919V61.8833C215 61.6337 214.9 61.3944 214.723 61.218C214.545 61.0415 214.305 60.9422 214.054 60.9419L104.064 60.9419Z" fill="#E6E6E6"/>
<path d="M105.488 92.5741H212.63V63.301H105.488V92.5741Z" fill="white"/>
<path d="M199.106 86.5015C198.69 86.5015 198.292 86.6658 197.998 86.9582C197.704 87.2507 197.539 87.6473 197.539 88.0609C197.539 88.4745 197.704 88.8711 197.998 89.1635C198.292 89.456 198.69 89.6203 199.106 89.6203H205.372C205.788 89.6203 206.186 89.456 206.48 89.1635C206.774 88.8711 206.939 88.4745 206.939 88.0609C206.939 87.6473 206.774 87.2507 206.48 86.9582C206.186 86.6658 205.788 86.5015 205.372 86.5015H199.106Z" fill="#0098AC"/>
<path d="M206.939 83.4766H134.6V83.8868H206.939V83.4766Z" fill="#E6E6E6"/>
<path d="M119.479 87.0205C124.519 87.0205 128.604 82.954 128.604 77.9377C128.604 72.9215 124.519 68.855 119.479 68.855C114.44 68.855 110.355 72.9215 110.355 77.9377C110.355 82.954 114.44 87.0205 119.479 87.0205Z" fill="#0098AC"/>
<path d="M134.715 81.1856L134.486 80.8442L142.003 75.8559L147.158 78.3189L154.572 73.6037L154.672 73.6461L169.321 79.8663L181.066 74.1232L192.472 78.7255L206.803 66.0908L207.076 66.3982L192.554 79.2015L181.082 74.5724L169.333 80.3175L154.611 74.0661L147.186 78.7876L142.036 76.3271L134.715 81.1856Z" fill="#3F3D56"/>
<path d="M135.94 86.7158C135.585 86.7158 135.244 86.8563 134.993 87.1064C134.741 87.3564 134.6 87.6956 134.6 88.0493C134.6 88.4029 134.741 88.7421 134.993 88.9921C135.244 89.2422 135.585 89.3827 135.94 89.3827H149.954C150.31 89.3827 150.65 89.2422 150.902 88.9921C151.153 88.7421 151.294 88.4029 151.294 88.0493C151.294 87.6956 151.153 87.3564 150.902 87.1064C150.65 86.8563 150.31 86.7158 149.954 86.7158H135.94Z" fill="#E6E6E6"/>
<path d="M119.478 83.9235L123.172 78.7454L119.478 80.9163L115.787 78.7454L119.478 83.9235H119.478Z" fill="white"/>
<path d="M119.478 80.2207H119.478L123.17 78.0486L119.478 71.9514H119.478L115.787 78.0486L119.478 80.2207Z" fill="white"/>
</g>
<defs>
<clipPath id="clip0_17_600">
<rect width="215" height="148" fill="white"/>
</clipPath>
</defs>
</svg>
