<svg width="229" height="167" viewBox="0 0 229 167" fill="none" xmlns="http://www.w3.org/2000/svg">
<g clip-path="url(#clip0_17_438)">
<path d="M229 50.707C229 50.707 225.802 49.4068 215.631 54.0677C205.459 58.7286 204.189 58.1425 201.554 57.4284C198.919 56.7142 197.454 56.5441 194.626 52.6457C194.626 52.6457 192.635 41.8494 190.708 40.1753C188.781 38.5013 180.593 41.1289 180.593 41.1289C180.593 41.1289 170.778 43.3827 168.907 30.2633C168.907 30.2633 170.234 20.3682 168.427 17.333C168.427 17.333 172.075 18.9062 178.097 16.3647C184.118 13.8232 188.94 19.0953 188.94 19.0953C188.94 19.0953 190.458 23.0294 190.299 25.3735C190.139 27.7176 191.103 28.5998 193.975 27.474C193.975 27.474 195.386 25.4659 193.387 22.1472C191.388 18.8285 189.963 16.3563 190.521 13.777C191.08 11.1976 192.682 7.62686 197.834 5.83938C202.986 4.0519 209.983 3.70743 213.342 2.30854C216.701 0.90964 217.514 -0.00195312 217.514 -0.00195312C217.514 -0.00195312 215.448 2.06908 220.317 10.8531C225.185 19.6372 222.082 23.4558 222.082 23.4558C222.082 23.4558 219.492 29.6311 208.056 29.127C208.056 29.127 197.036 29.5303 203.044 34.2059C203.044 34.2059 206.891 33.4224 212.643 31.5929C218.396 29.7634 222.548 37.3124 223.579 42.5656C224.61 47.8189 229 50.707 229 50.707Z" fill="#0098AC"/>
<path d="M214.188 6.6607L214.247 6.646C214.69 8.32635 209.765 15.0478 205.555 20.4102L205.505 20.3724C211.444 12.8192 214.528 7.95037 214.188 6.6607Z" fill="#444053"/>
<path d="M205.593 20.261L205.618 20.3303C202.259 24.6068 198.025 29.7109 194.64 33.4917C194.319 33.853 193.998 34.231 193.689 34.6175L193.593 34.5398C193.903 34.1512 194.223 33.771 194.548 33.4098C197.932 29.6311 202.232 24.5375 205.593 20.261Z" fill="#444053"/>
<path d="M193.675 34.4368L193.742 34.5523C187.582 42.2462 187.175 54.1935 187.16 54.2965L185.86 52.7967C185.881 52.6917 187.471 42.1853 193.675 34.4368Z" fill="#444053"/>
<path d="M221.856 46.5334C221.856 46.5334 214.591 42.7526 208.931 44.1116C203.271 45.4706 190.525 39.3204 190.525 39.3204C190.525 39.3204 185.115 37.1213 184.017 34.6133C184.017 34.6133 180.303 30.6876 180.091 28.6523C179.879 26.617 176.266 21.5108 173.908 21.3154" stroke="#444053" stroke-miterlimit="10"/>
<path d="M220.804 50.1712C220.804 50.1712 217.147 47.7052 217.571 44.8318" stroke="#444053" stroke-miterlimit="10"/>
<path d="M215.192 53.3556C215.192 53.3556 209.962 51.4547 209.435 44.0044" stroke="#444053" stroke-miterlimit="10"/>
<path d="M206.75 55.2838C206.75 55.2838 201.751 51.1333 203.41 43.8826" stroke="#444053" stroke-miterlimit="10"/>
<path d="M196.607 53.2547C196.607 53.2547 193.276 46.2707 196.24 41.7253" stroke="#444053" stroke-miterlimit="10"/>
<path d="M221.94 41.929C221.94 41.929 218.161 43.1304 218.969 45.1216" stroke="#444053" stroke-miterlimit="10"/>
<path d="M217.373 35.0586C217.373 35.0586 212.311 36.6654 212.192 43.83" stroke="#444053" stroke-miterlimit="10"/>
<path d="M210.315 33.4055C210.315 33.4055 205.709 39.0956 206.045 44.2669" stroke="#444053" stroke-miterlimit="10"/>
<path d="M202.257 35.6362C202.257 35.6362 197.68 40.0136 198.268 42.448" stroke="#444053" stroke-miterlimit="10"/>
<path d="M199.486 34.0901C199.486 34.0901 195.195 34.861 194.594 33.46" stroke="#444053" stroke-miterlimit="10"/>
<path d="M193.91 28.9062C193.91 28.9062 196.078 31.7797 196.639 31.1369" stroke="#444053" stroke-miterlimit="10"/>
<path d="M215.404 27.0895C215.404 27.0895 204.585 27.875 202.138 24.613" stroke="#444053" stroke-miterlimit="10"/>
<path d="M191.634 14.4302C191.634 14.4302 196.71 25.3315 200.395 26.7199" stroke="#444053" stroke-miterlimit="10"/>
<path d="M196.958 9.23779C196.958 9.23779 200.076 19.2653 203.939 22.395" stroke="#444053" stroke-miterlimit="10"/>
<path d="M219.956 18.8072C219.956 18.8072 211.73 22.3402 206.79 18.7673" stroke="#444053" stroke-width="0.75" stroke-miterlimit="10"/>
<path d="M204.287 7.09937C204.287 7.09937 206.166 14.4719 208.696 16.251" stroke="#444053" stroke-width="0.75" stroke-miterlimit="10"/>
<path d="M218.715 10.5588C218.715 10.5588 214.096 12.3085 212.364 10.9789" stroke="#444053" stroke-width="0.75" stroke-miterlimit="10"/>
<path d="M189.95 31.3154C189.95 31.3154 189.938 37.7407 188.199 38.1965" stroke="#444053" stroke-miterlimit="10"/>
<path d="M175.657 39.6395C175.657 39.6395 182.6 40.2319 185.802 36.6611" stroke="#444053" stroke-miterlimit="10"/>
<path d="M188.157 23.7246C188.157 23.7246 186.478 30.236 181.842 31.9962" stroke="#444053" stroke-miterlimit="10"/>
<path d="M171.492 32.7753C171.492 32.7753 176.407 34.4851 180.633 30.1309" stroke="#444053" stroke-miterlimit="10"/>
<path d="M182.692 18.1226C182.692 18.1226 182.228 23.6572 179.222 26.2471" stroke="#444053" stroke-miterlimit="10"/>
<path d="M171.679 24.3421C171.679 24.3421 175.758 24.3694 176.717 23.0398" stroke="#444053" stroke-miterlimit="10"/>
<path d="M39.4508 155.981C39.4508 155.981 42.2452 154.137 45.0144 155.45C45.0144 155.45 44.162 157.092 40.6559 156.937L39.4508 155.981Z" fill="#0098AC"/>
<path d="M39.1086 156.08C39.1086 156.08 38.2584 159.327 40.3893 161.522C40.3893 161.522 41.6721 160.186 40.3998 156.916L39.1086 156.08Z" fill="#0098AC"/>
<path d="M35.6235 152.971C35.6235 152.971 35.8335 150.215 42.0479 151.129C42.0479 151.129 42.0773 152.906 39.8938 153.748C37.7104 154.591 36.7132 153.881 35.6235 152.971Z" fill="#0098AC"/>
<path d="M35.2414 152.952C35.2414 152.952 32.6129 153.793 34.9559 159.63C34.9559 159.63 36.69 159.243 36.9966 156.922C37.3031 154.601 36.3814 153.797 35.2414 152.952Z" fill="#0098AC"/>
<path d="M31.7207 149.035C31.7207 149.035 31.3658 144.502 37.7188 144.968C37.7188 144.968 38.1702 149.071 32.8439 150.125L31.7207 149.035Z" fill="#0098AC"/>
<path d="M27.5238 143.927C27.5238 143.927 28.393 138.791 34.7438 140.322C34.7438 140.322 34.769 144.763 28.5589 145.153L27.5238 143.927Z" fill="#0098AC"/>
<path d="M24.4544 138.638C24.4544 138.638 25.9241 133.622 32.2056 135.132C32.2056 135.132 30.7087 139.631 24.8722 139.562L24.4544 138.638Z" fill="#0098AC"/>
<path d="M21.5404 133.47C21.5404 133.47 22.9659 128.278 29.0396 129.837C29.0396 129.837 27.0116 134.771 21.9393 134.355L21.5404 133.47Z" fill="#0098AC"/>
<path d="M19.6614 128.562C19.6614 128.562 20.7573 122.212 26.4216 123.617C26.4216 123.617 24.7757 129.394 20.0792 129.486L19.6614 128.562Z" fill="#0098AC"/>
<path d="M17.8999 122.632C17.8999 122.632 19.2163 116.232 24.9415 118.093C24.9415 118.093 22.693 124.143 18.2988 123.517L17.8999 122.632Z" fill="#0098AC"/>
<path d="M16.8103 117.108C16.8103 117.108 18.8972 110.706 23.3291 110.88C23.3291 110.88 21.194 117.642 17.1798 118.391L16.8103 117.108Z" fill="#0098AC"/>
<path d="M16.1175 111.729C16.1175 111.729 18.3891 104.022 21.996 104.619C21.996 104.619 20.4235 110.5 16.2456 112.93L16.1175 111.729Z" fill="#0098AC"/>
<path d="M15.7228 105.297C15.7228 105.297 17.8538 98.8763 21.4144 98.6243C21.4144 98.6243 19.9637 104.942 15.8026 106.969L15.7228 105.297Z" fill="#0098AC"/>
<path d="M15.2924 99.309C15.2924 99.309 17.9503 92.8795 20.3017 92.7346C20.3017 92.7346 19.1491 99.0654 15.5276 100.363L15.2924 99.309Z" fill="#0098AC"/>
<path d="M14.9964 93.7323C14.9964 93.7323 16.6298 86.7504 18.9854 86.1707C18.9854 86.1707 18.6641 91.8797 15.2378 94.2532L14.9964 93.7323Z" fill="#0098AC"/>
<path d="M14.1146 86.4417C14.1146 86.4417 15.832 80.8776 17.7341 80.0291C17.7341 80.0291 17.3583 86.5887 14.5555 87.8007L14.1146 86.4417Z" fill="#0098AC"/>
<path d="M13.3777 81.64L13.0313 71.8289C13.0313 71.8289 16.5836 79.235 13.6402 83.3708L13.3777 81.64Z" fill="#0098AC"/>
<path d="M10.6316 71.8897C10.6316 71.8897 8.07031 64.7251 7.45517 64.3281C7.45517 64.3281 12.4792 68.9764 11.9879 74.9564L10.6316 71.8897Z" fill="#0098AC"/>
<path d="M31.5485 149.012C31.5485 149.012 27.0431 148.422 27.1774 154.792C27.1774 154.792 31.2504 155.456 32.5793 150.188L31.5485 149.012Z" fill="#0098AC"/>
<path d="M27.3097 143.757C27.3097 143.757 22.103 143.738 22.5271 150.268C22.5271 150.268 26.8961 151.049 28.3384 144.996L27.3097 143.757Z" fill="#0098AC"/>
<path d="M24.404 139.06C24.404 139.06 19.6782 136.852 16.6529 142.566C16.6529 142.566 21.0197 144.412 24.8218 139.984L24.404 139.06Z" fill="#0098AC"/>
<path d="M21.4354 133.519C21.4354 133.519 16.5962 131.158 13.7535 136.751C13.7535 136.751 18.7922 138.486 21.8343 134.403L21.4354 133.519Z" fill="#0098AC"/>
<path d="M19.7223 128.701C19.7223 128.701 15.0657 124.248 11.3475 128.751C11.3475 128.751 16.107 132.414 19.9364 129.692L19.7223 128.701Z" fill="#0098AC"/>
<path d="M18.1645 122.481C18.1645 122.481 13.4785 117.927 9.78976 122.691C9.78976 122.691 15.051 126.426 18.3303 123.437L18.1645 122.481Z" fill="#0098AC"/>
<path d="M17.2953 116.932C17.2953 116.932 13.6863 111.26 9.43494 112.521C9.43494 112.521 13.1804 118.541 17.2554 118.272L17.2953 116.932Z" fill="#0098AC"/>
<path d="M16.2246 111.693C16.2246 111.693 12.582 104.533 9.14523 105.776C9.14523 105.776 11.7674 111.28 16.317 112.897L16.2246 111.693Z" fill="#0098AC"/>
<path d="M15.9726 104.926C15.9726 104.926 12.2335 99.2879 8.72952 99.9768C8.72952 99.9768 11.7863 105.692 16.3358 106.555L15.9726 104.926Z" fill="#0098AC"/>
<path d="M15.6871 99.183C15.6871 99.183 12.7899 92.8586 10.4385 92.804C10.4385 92.804 11.8304 99.0843 15.4982 100.246L15.6871 99.183Z" fill="#0098AC"/>
<path d="M15.114 93.5936C15.114 93.5936 11.8913 87.1894 9.47064 87.1768C9.47064 87.1768 11.1208 92.6526 15.0048 94.1586L15.114 93.5936Z" fill="#0098AC"/>
<path d="M14.629 86.8281C14.629 86.8281 12.2188 81.5265 10.2201 80.9258C10.2201 80.9258 11.4252 87.3868 14.3602 88.2333L14.629 86.8281Z" fill="#0098AC"/>
<path d="M13.0964 81.4552L7.70709 73.2488C7.70709 73.2488 9.08643 81.3439 13.8774 83.02L13.0964 81.4552Z" fill="#0098AC"/>
<path d="M9.39506 72.5513C9.39506 72.5513 3.13659 68.2286 2.90985 67.5376C2.90985 67.5376 6.10312 73.5932 12.0047 74.6602L9.39506 72.5513Z" fill="#0098AC"/>
<path d="M9.02133 70.6063C9.02133 70.6063 1.8349 63.6959 -0.00631714 63.7022C-0.00631714 63.7022 5.92044 63.9731 9.18719 70.2388L9.02133 70.6063Z" fill="#0098AC"/>
<path d="M14.566 87.8532L14.3036 87.8868C12.9536 77.311 10.9843 71.0622 8.75891 70.2893L8.84709 70.0393C11.2069 70.8585 13.1762 77.0191 14.566 87.8532Z" fill="#444053"/>
<path d="M16.5437 113.138L16.149 113.172C16.065 112.185 16.002 111.174 15.9579 110.168C15.5821 101.414 14.9964 93.3772 14.228 87.351L14.4568 87.0696C15.2273 93.1042 15.9768 101.386 16.3463 110.149C16.3988 111.151 16.4555 112.155 16.5437 113.138Z" fill="#444053"/>
<path d="M46.8304 161.007C46.7611 160.976 39.7993 157.867 32.5709 150.446C28.3386 146.103 24.8204 141.116 22.1471 135.672C18.8069 128.871 16.7704 120.509 16.0881 112.382L16.508 112.575C18.0427 130.816 26.3418 143.286 32.9425 150.068C40.0996 157.42 46.9837 160.501 47.0529 160.531L46.8304 161.007Z" fill="#444053"/>
<path d="M210.08 27.9926V155.036C210.08 158.817 206.437 161.885 201.938 161.885H29.6506C25.1536 161.885 21.511 158.812 21.511 155.036V27.9926C21.511 24.2118 25.1536 20.3491 29.6506 20.3491L201.93 20.7692C206.427 20.7671 210.08 24.2076 210.08 27.9926Z" fill="#E8EAF2"/>
<path d="M210.08 28.0304V33.9117H21.511V28.0304C21.511 25.9932 22.3199 24.0395 23.7598 22.5989C25.1996 21.1584 27.1525 20.3491 29.1887 20.3491H202.394C203.403 20.3483 204.402 20.5464 205.334 20.932C206.266 21.3176 207.114 21.8832 207.827 22.5966C208.541 23.3099 209.107 24.157 209.494 25.0893C209.88 26.0217 210.079 27.0211 210.08 28.0304Z" fill="#65617D"/>
<path opacity="0.8" d="M30.6457 29.8431C32.1438 29.8431 33.3582 28.6281 33.3582 27.1293C33.3582 25.6305 32.1438 24.4155 30.6457 24.4155C29.1477 24.4155 27.9332 25.6305 27.9332 27.1293C27.9332 28.6281 29.1477 29.8431 30.6457 29.8431Z" fill="#FA5959"/>
<path opacity="0.8" d="M38.5418 29.8431C40.0398 29.8431 41.2543 28.6281 41.2543 27.1293C41.2543 25.6305 40.0398 24.4155 38.5418 24.4155C37.0437 24.4155 35.8293 25.6305 35.8293 27.1293C35.8293 28.6281 37.0437 29.8431 38.5418 29.8431Z" fill="#FED253"/>
<path opacity="0.8" d="M46.4357 29.8431C47.9338 29.8431 49.1482 28.6281 49.1482 27.1293C49.1482 25.6305 47.9338 24.4155 46.4357 24.4155C44.9376 24.4155 43.7232 25.6305 43.7232 27.1293C43.7232 28.6281 44.9376 29.8431 46.4357 29.8431Z" fill="#8CCF4D"/>
<path d="M205.891 159.249L201.308 152.606C201.308 152.606 201.222 150.961 200.922 150.577C200.622 150.192 200.859 149.335 200.859 149.335C200.859 149.335 201.18 148.865 200.901 148.823C200.622 148.781 200.859 147.733 200.859 147.733L200.836 146.065C200.836 146.065 201.094 144.462 200.88 144.078C200.817 143.974 200.786 143.855 200.79 143.733C200.794 143.612 200.832 143.495 200.901 143.395C200.901 143.395 201.157 142.475 200.901 142.24C200.645 142.005 200.708 140.572 200.773 139.44C200.838 138.308 200.324 137.667 200.324 137.495C200.324 137.323 198.631 135.657 198.631 135.508C198.631 135.359 197.561 134.737 196.918 134.567C196.276 134.397 195.955 134.269 195.976 134.183C195.997 134.097 194.97 133.763 194.97 133.763C194.97 133.763 194.069 133.7 193.727 133.25C193.385 132.801 192.337 132.672 192.308 132.668C192.278 132.664 192.293 132.607 192.287 132.578L192.268 132.481C192.348 132.347 192.423 132.206 192.49 132.061L192.551 131.931C192.927 131.932 193.293 131.818 193.601 131.603C193.752 131.477 193.875 131.32 193.963 131.144C194.051 130.968 194.102 130.775 194.113 130.578C194.132 130.183 194.046 129.791 193.864 129.44C193.675 129.053 193.4 128.656 193.494 128.238C193.536 128.058 193.643 127.9 193.704 127.724C193.786 127.379 193.731 127.016 193.551 126.711C193.387 126.401 193.162 126.127 192.982 125.827C192.75 125.44 192.596 125.012 192.528 124.567C192.514 124.332 192.458 124.101 192.362 123.886C192.265 123.735 192.137 123.605 191.987 123.506C191.315 123.025 190.503 122.78 189.677 122.809C189.094 122.828 188.512 122.985 187.933 122.914C187.587 122.854 187.247 122.765 186.916 122.647C186.198 122.437 185.369 122.347 184.744 122.758C184.118 123.17 183.87 123.979 183.446 124.611C183.07 125.172 182.522 125.64 182.237 126.232C182.237 126.222 182.237 126.209 182.237 126.199C182.167 126.337 182.114 126.482 182.077 126.632C181.999 127.104 182.031 127.589 182.172 128.047C182.205 128.293 182.328 128.518 182.518 128.677C182.728 128.812 183.02 128.78 183.268 128.824C183.268 128.864 183.247 128.904 183.238 128.946C182.982 130.15 183.189 131.407 183.819 132.465C184.448 133.523 185.453 134.304 186.633 134.653C186.633 134.697 186.633 134.741 186.633 134.783C186.633 134.906 186.625 135.029 186.61 135.151C186.61 135.151 184.458 134.708 183.881 135.008C183.303 135.309 182.167 135.542 181.991 135.714C181.815 135.886 181.391 135.756 181.004 136.764C180.618 137.772 180.584 138.795 180.085 139.266C179.585 139.736 179.335 140.056 179.314 140.398C179.293 140.74 179.377 140.818 179.184 140.931C178.991 141.045 178.714 141.488 178.8 141.658C178.829 141.777 178.823 141.901 178.781 142.016C178.739 142.13 178.664 142.229 178.565 142.301C178.465 142.371 178.384 142.466 178.332 142.576C178.279 142.687 178.256 142.809 178.265 142.931C178.265 142.931 178.137 143.402 177.845 143.509C177.553 143.616 177.351 144.319 177.351 144.319L176.381 145.437L174.456 143.307C174.312 143.148 174.11 143.052 173.895 143.041C173.68 143.03 173.47 143.105 173.31 143.248L172.365 144.088C172.001 144.177 171.672 144.373 171.42 144.651C171.215 144.863 171.048 145.11 170.929 145.38L170.413 145.846C170.25 146.049 170.15 146.294 170.126 146.553C170.103 146.812 170.156 147.072 170.28 147.3L171.513 148.663V148.676C171.082 148.724 170.676 148.901 170.345 149.182C168.504 150.806 168.481 152.303 168.76 152.986C169.04 153.669 171.372 156.3 171.372 156.3C171.372 156.3 172.728 158.063 174.685 159.002L174.67 159.016C174.633 159.058 174.593 159.102 174.555 159.151L174.523 159.191C174.514 159.205 174.504 159.219 174.494 159.233L174.46 159.283L174.433 159.325L174.395 159.388L174.372 159.428L174.328 159.512C174.328 159.512 174.318 159.529 174.313 159.539C174.309 159.55 174.278 159.615 174.261 159.655C174.254 159.669 174.249 159.684 174.244 159.699C174.232 159.726 174.221 159.756 174.211 159.783L174.192 159.84C174.192 159.867 174.173 159.894 174.164 159.922L174.145 159.982L174.12 160.077C174.12 160.096 174.11 160.115 174.103 160.134C174.097 160.153 174.08 160.235 174.07 160.287C174.068 160.308 174.064 160.328 174.059 160.348L174.04 160.459C174.04 160.484 174.04 160.51 174.03 160.537L174.017 160.642C174.017 160.669 174.017 160.697 174.017 160.724C174.017 160.751 174.017 160.804 174.017 160.846V160.921C174.017 160.989 174.017 161.056 174.017 161.131C173.973 163.633 174.12 163.996 174.12 163.996C174.215 164.228 174.371 164.429 174.571 164.579C174.771 164.73 175.007 164.823 175.256 164.849C175.379 164.858 175.502 164.852 175.623 164.83C176.736 164.637 179.348 164.188 180.27 164.36C180.824 164.463 181.848 164.309 182.579 164.173L182.772 164.135L182.906 164.555L183.326 164.44L183.687 164.65C183.782 164.706 183.86 164.75 183.914 164.78C184.334 166.214 186.051 165.725 186.051 165.725L186.459 165.96L190.59 166.067C191.056 166.348 191.549 166.583 192.06 166.769C192.129 166.79 192.199 166.805 192.27 166.815C192.653 166.845 193.038 166.852 193.423 166.836C193.74 166.836 193.983 166.815 193.983 166.815C193.983 166.815 193.941 165.691 193.882 164.435C195.163 164.404 196.441 164.3 197.71 164.122C199.916 163.734 200.838 161.726 201.176 160.653C201.276 161.091 201.346 161.536 201.386 161.984C201.476 162.376 201.591 162.762 201.728 163.139C201.849 163.443 202.008 163.73 202.2 163.994C203.828 163.438 202.843 162.604 202.501 162.24C202.158 161.877 202.736 161.579 202.736 161.579C202.736 161.579 203.185 161.278 203.143 161.001C203.101 160.724 203.078 160.424 204.535 160.447C205.992 160.47 205.891 159.249 205.891 159.249ZM183.278 145.597C183.297 145.72 183.501 147.035 183.683 147.382C183.736 147.613 183.752 147.851 183.732 148.088C182.869 148.018 181.97 147.981 181.97 147.981C181.996 148.012 182.012 148.051 182.016 148.092L181.882 148.06L181.685 148.012L183.274 145.594L183.278 145.597ZM180.129 150.61L181.624 150.846L181.748 150.867C181.706 151.1 181.68 151.336 181.67 151.572C181.67 151.593 181.706 151.621 181.752 151.652C181.732 151.769 181.723 151.887 181.724 152.005C181.748 152.123 182.447 152.379 183.247 152.591C183.236 152.635 183.226 152.675 183.213 152.713C182.505 152.341 181.393 152.167 181.265 151.892C181.137 151.616 177.345 150.295 177.345 150.295C177.345 150.295 177.206 150.222 176.967 150.106L177.966 150.295L178.239 150.268C178.861 150.424 179.492 150.54 180.129 150.614V150.61Z" fill="url(#paint0_linear_17_438)"/>
<path d="M201.016 160.178C201.016 160.178 200.422 163.767 197.407 164.297C194.393 164.826 184.334 164.717 184.334 164.717C184.334 164.717 178.584 163.876 176.503 159.024C174.423 154.172 173.087 152.232 174.87 152.145C176.652 152.059 186.266 155.395 186.818 155.437C187.37 155.479 201.548 148.054 201.016 160.178Z" fill="#65617D"/>
<path opacity="0.05" d="M201.016 160.178C201.016 160.178 200.422 163.767 197.407 164.297C194.393 164.826 184.334 164.717 184.334 164.717C184.334 164.717 178.584 163.876 176.503 159.024C174.423 154.172 173.087 152.232 174.87 152.145C176.652 152.059 186.266 155.395 186.818 155.437C187.37 155.479 201.548 148.054 201.016 160.178Z" fill="black"/>
<path d="M174.038 164.171C174.133 164.399 174.288 164.597 174.486 164.745C174.684 164.893 174.918 164.985 175.164 165.011C175.285 165.02 175.407 165.013 175.527 164.992C176.631 164.801 179.22 164.362 180.133 164.526C180.681 164.626 181.697 164.475 182.419 164.339C182.9 164.248 183.259 164.164 183.259 164.164C183.259 164.164 182.409 161.339 182.304 161.255C182.199 161.171 178.483 158.945 178.483 158.945L175.544 158.735C175.148 158.795 174.791 159.005 174.546 159.321C174.236 159.697 173.969 160.314 173.952 161.324C173.894 163.809 174.038 164.171 174.038 164.171Z" fill="#3F3D56"/>
<path opacity="0.05" d="M174.038 164.171C174.133 164.399 174.288 164.598 174.486 164.745C174.684 164.893 174.918 164.985 175.164 165.011C174.875 164.639 174.608 164.249 174.366 163.845L174.381 161.787C174.321 161.222 174.394 160.651 174.594 160.12C174.795 159.589 175.117 159.112 175.535 158.729C175.535 158.729 173.986 158.834 173.944 161.318C173.902 163.803 174.038 164.171 174.038 164.171Z" fill="black"/>
<path opacity="0.1" d="M186.797 159.67L189.526 157.525L193.834 153.278C193.834 153.278 193.37 153.255 192.667 153.225C192.493 153.337 192.003 153.687 191.985 154.112C191.964 154.631 190.821 154.147 190.227 154.446C189.633 154.744 186.725 158.466 186.215 158.437C185.705 158.407 185.302 158.178 185.09 158.539L185.075 158.563L186.797 159.67Z" fill="black"/>
<path opacity="0.1" d="M174.53 159.327L174.828 159.464C176.906 160.354 179.474 162.224 179.657 162.564C179.774 162.774 181.263 163.673 182.411 164.351C182.892 164.261 183.251 164.177 183.251 164.177C183.251 164.177 182.401 161.352 182.296 161.268C182.191 161.184 178.475 158.957 178.475 158.957L175.535 158.747C175.138 158.804 174.778 159.011 174.53 159.327Z" fill="black"/>
<path d="M168.756 153.236C169.033 153.914 171.347 156.527 171.347 156.527C171.347 156.527 172.816 158.437 174.891 159.329C176.965 160.222 179.539 162.089 179.73 162.43C179.852 162.64 181.51 163.646 182.669 164.333L182.932 164.486L183.511 164.822L183.818 164.998L185.235 163.854C185.934 163.286 186.629 162.715 186.639 162.684C186.66 162.621 186.937 161.898 186.872 161.856C186.841 161.833 186.694 161.541 186.425 161.199C186.141 160.819 185.77 160.513 185.344 160.306C184.724 159.988 184.231 159.47 183.944 158.836C183.944 158.836 183.851 158.768 183.711 158.68C183.421 158.482 183.097 158.339 182.755 158.26C182.289 158.201 181.42 157.246 181.42 157.246C181.08 157.024 180.796 156.726 180.591 156.376C180.368 155.91 177.076 153.645 176.772 153.435L184.75 158.563L186.658 159.789L189.387 157.645L193.698 153.4C193.698 153.4 193.118 153.37 192.274 153.335C190.175 153.244 186.463 153.101 185.993 153.209C185.61 153.297 185.216 153.323 184.825 153.284C184.825 153.284 183.776 153.332 183.064 152.961C182.352 152.589 181.26 152.419 181.132 152.144C181.004 151.868 177.248 150.554 177.248 150.554C177.248 150.554 172.134 147.836 170.308 149.449C168.481 151.062 168.481 152.555 168.756 153.236Z" fill="#65617D"/>
<path d="M185.252 137.65L185.909 139.837L186.748 144.763L189.868 144.973L190.771 143.475L191.672 141.979C191.672 141.979 192.234 139.988 192.637 138.064C192.994 136.359 193.227 134.704 192.847 134.527C192.503 134.367 192.276 133.794 192.129 133.177C192.11 133.101 192.094 133.023 192.079 132.945C191.974 132.423 191.904 131.894 191.869 131.362C191.869 131.362 185.331 131.024 186.245 133.721C186.408 134.18 186.491 134.665 186.49 135.153C186.49 135.275 186.483 135.397 186.469 135.519C186.425 135.939 186.293 136.345 186.084 136.712C185.874 137.079 185.591 137.399 185.252 137.65Z" fill="#EE8E9E"/>
<path d="M183.889 137.289L184.122 141.005L184.653 144.168L185.247 145.638L185.779 153.656C185.779 153.656 190.895 154.248 192.14 153.645C192.229 153.607 192.306 153.546 192.365 153.469C193.859 151.192 193.376 144.624 193.376 144.624L193.95 140.379L193.568 138.174L192.644 138.077L191.932 137.999C191.932 137.999 191.773 138.197 191.542 138.503C190.912 139.343 189.755 140.969 189.833 141.654C189.938 142.589 189.705 143.544 189.343 143.693C188.982 143.843 188.686 144.097 188.621 143.841C188.533 143.626 188.511 143.389 188.558 143.162C188.621 142.801 188.283 141.692 188.283 141.692C188.283 141.692 187.71 140.398 187.752 139.845C187.794 139.293 187.689 138.657 187.519 138.507C187.349 138.358 187.116 138.209 187.309 137.531C187.502 136.852 186.469 135.529 186.469 135.529L183.889 137.289Z" fill="#E3E8F4"/>
<path opacity="0.1" d="M190.649 146.569L190.859 152.919L192.085 153.597C192.175 153.561 192.252 153.5 192.31 153.423C193.813 151.15 193.32 144.574 193.32 144.574L193.893 140.327L193.511 138.123L192.589 138.025C192.946 136.321 193.179 134.664 192.799 134.487C192.455 134.328 192.228 133.754 192.081 133.139L191.42 137.63C191.42 137.63 191.474 138.035 191.493 138.453C191.521 138.717 191.504 138.985 191.441 139.243C191.292 139.625 191.399 140.306 191.399 140.306C191.015 140.98 190.824 142.23 190.731 143.435C190.601 145.044 190.649 146.569 190.649 146.569Z" fill="black"/>
<path d="M192.094 133.036C192.094 133.036 193.164 133.17 193.502 133.615C193.84 134.061 194.735 134.126 194.735 134.126C194.735 134.126 195.753 134.464 195.732 134.546C195.711 134.628 196.028 134.756 196.666 134.928C197.305 135.1 198.363 135.714 198.363 135.863C198.363 136.012 200.042 137.667 200.042 137.837C200.042 138.007 200.552 138.644 200.487 139.77C200.422 140.896 200.361 142.318 200.615 142.551C200.869 142.784 200.615 143.697 200.615 143.697C200.548 143.797 200.509 143.913 200.506 144.034C200.502 144.154 200.533 144.273 200.594 144.376C200.804 144.758 200.552 146.35 200.552 146.35L200.573 148.008C200.573 148.008 200.34 149.058 200.615 149.089C200.89 149.121 200.573 149.6 200.573 149.6C200.573 149.6 200.34 150.44 200.636 150.831C200.932 151.221 201.018 152.849 201.018 152.849L205.56 159.453C205.56 159.453 205.625 160.663 204.18 160.642C202.736 160.621 202.759 160.917 202.801 161.194C202.843 161.471 202.398 161.766 202.398 161.766C202.398 161.766 201.825 162.064 202.165 162.425C202.505 162.786 203.481 163.614 201.867 164.166C201.677 163.907 201.521 163.624 201.401 163.326C201.264 162.952 201.15 162.57 201.06 162.181C201.06 162.181 200.911 160.566 200.615 160.354C200.319 160.142 200.368 159.117 200.368 159.117C200.368 159.117 200.788 158.289 200.198 157.949C199.608 157.609 190.985 152.832 190.985 152.832L190.775 146.483C190.775 146.483 190.628 141.79 191.518 140.219C191.518 140.219 191.413 139.539 191.56 139.156C191.707 138.774 191.539 137.543 191.539 137.543L192.094 133.036Z" fill="#3F3D56"/>
<path opacity="0.1" d="M186.532 135.592C186.532 135.592 184.399 135.153 183.826 135.449C183.253 135.745 182.128 135.981 181.958 136.151C181.788 136.321 181.363 136.193 180.981 137.201C180.599 138.209 180.561 139.22 180.068 139.686C179.575 140.152 179.327 140.471 179.306 140.812C179.285 141.152 179.369 141.232 179.178 141.343C178.987 141.454 178.71 141.893 178.796 142.064C178.882 142.234 183.205 145.97 183.205 145.97C183.205 145.97 183.415 147.395 183.608 147.754C183.801 148.113 183.398 153.085 182.978 153.425C182.558 153.765 185.844 153.732 185.844 153.732C185.844 153.732 185.993 150.472 186.121 150.304C186.249 150.136 186.035 146.651 186.035 146.651C186.035 146.651 186.014 143.679 186.289 142.891C186.564 142.104 186.534 139.495 186.534 139.495C186.534 139.495 186.778 137.928 187.074 137.562C187.37 137.197 186.532 135.592 186.532 135.592Z" fill="black"/>
<path d="M186.469 135.521C186.469 135.521 184.334 135.079 183.761 135.378C183.188 135.676 182.065 135.909 181.895 136.079C181.725 136.249 181.3 136.121 180.918 137.119C180.536 138.117 180.498 139.135 180.005 139.604C179.512 140.072 179.262 140.389 179.241 140.728C179.22 141.066 179.306 141.148 179.115 141.259C178.924 141.37 178.647 141.811 178.733 141.981C178.819 142.152 183.152 145.884 183.152 145.884C183.152 145.884 183.362 147.306 183.555 147.667C183.748 148.029 183.345 152.996 182.925 153.339C182.506 153.681 185.779 153.656 185.779 153.656C185.779 153.656 185.928 150.396 186.054 150.226C186.18 150.056 185.97 146.573 185.97 146.573C185.97 146.573 185.949 143.601 186.224 142.815C186.499 142.03 186.469 139.419 186.469 139.419C186.469 139.419 186.713 137.852 187.009 137.487C187.305 137.121 186.469 135.521 186.469 135.521Z" fill="#3F3D56"/>
<path opacity="0.1" d="M186.245 133.723C186.408 134.183 186.491 134.667 186.49 135.155C187.534 135.466 188.652 135.417 189.665 135.017C190.677 134.616 191.527 133.888 192.077 132.948C191.972 132.425 191.901 131.896 191.867 131.364C191.867 131.364 185.331 131.026 186.245 133.723Z" fill="black"/>
<path d="M183.02 130.366C183.021 131.61 183.5 132.806 184.357 133.707C185.214 134.609 186.384 135.147 187.625 135.21C188.867 135.274 190.086 134.858 191.03 134.049C191.975 133.24 192.573 132.1 192.702 130.862C192.83 129.625 192.479 128.386 191.721 127.4C190.963 126.414 189.856 125.756 188.628 125.563C187.4 125.37 186.144 125.656 185.12 126.361C184.096 127.067 183.382 128.139 183.125 129.356C183.055 129.688 183.02 130.027 183.02 130.366Z" fill="#EE8E9E"/>
<path d="M179.9 141.62L178.743 141.982C178.771 142.098 178.763 142.22 178.721 142.332C178.679 142.445 178.605 142.542 178.508 142.612C178.409 142.683 178.33 142.778 178.278 142.888C178.226 142.998 178.203 143.12 178.212 143.242C178.212 143.242 178.084 143.71 177.792 143.815C177.5 143.92 177.303 144.624 177.303 144.624L176.327 145.748C176.327 145.748 175.966 146.046 176.031 146.195C176.096 146.344 175.649 146.386 175.649 146.386L175.882 150.167L177.897 150.549L179.157 150.421L180.175 150.039L181.065 149.51L181.47 148.459L183.253 145.741L179.9 141.62Z" fill="#3F3D56"/>
<path d="M175.93 146.695C175.93 146.695 173.341 142.958 171.41 144.975C169.478 146.991 172.195 150.261 172.831 150.156C173.467 150.051 176.503 149.875 176.503 149.875L175.93 146.695Z" fill="#EE8E9E"/>
<path d="M182.051 145.098L170.557 139.229C170.398 139.147 170.203 139.211 170.122 139.37L165.632 148.17C165.551 148.329 165.614 148.524 165.773 148.605L177.268 154.475C177.427 154.556 177.622 154.493 177.703 154.334L182.192 145.533C182.274 145.374 182.21 145.18 182.051 145.098Z" fill="#3F3D56"/>
<path d="M180.955 145.605L170.808 140.424L166.906 148.074L177.052 153.255L180.955 145.605Z" fill="#0098AC"/>
<path d="M168.477 144.227C168.58 144.227 168.664 144.143 168.664 144.04C168.664 143.937 168.58 143.853 168.477 143.853C168.374 143.853 168.29 143.937 168.29 144.04C168.29 144.143 168.374 144.227 168.477 144.227Z" fill="#E6E8EC"/>
<path d="M179.459 149.978C179.63 149.978 179.768 149.84 179.768 149.669C179.768 149.499 179.63 149.36 179.459 149.36C179.289 149.36 179.151 149.499 179.151 149.669C179.151 149.84 179.289 149.978 179.459 149.978Z" fill="#E6E8EC"/>
<path d="M174.255 147.481C174.234 150.285 180.026 150.877 180.026 150.877L181.496 151.112L182.159 151.217L182.436 148.487C182.436 148.487 182.132 148.443 181.752 148.355C181.191 148.222 180.465 147.997 180.314 147.68C180.068 147.145 174.276 144.679 174.255 147.481Z" fill="#EE8E9E"/>
<path opacity="0.1" d="M183.125 129.356C183.258 129.365 183.384 129.422 183.48 129.515C183.646 129.69 183.654 129.996 183.866 130.104C183.946 130.14 184.034 130.15 184.12 130.133C184.685 130.053 185.01 129.417 185.552 129.24C185.869 129.161 186.204 129.19 186.503 129.322C186.624 129.362 186.732 129.435 186.816 129.532C186.998 129.767 186.87 130.114 186.954 130.398C187.072 130.792 187.542 130.948 187.949 131C188.357 131.053 188.816 131.08 189.087 131.387C189.178 131.502 189.244 131.634 189.28 131.776C189.317 131.918 189.322 132.066 189.297 132.21C189.273 132.31 189.273 132.413 189.297 132.513C189.411 132.832 189.961 132.784 190.106 132.534C190.211 132.351 190.177 132.198 190.425 132.147C190.603 132.133 190.782 132.164 190.945 132.238C191.377 132.388 191.832 132.459 192.289 132.448C192.58 131.827 192.736 131.152 192.748 130.467C192.76 129.782 192.627 129.102 192.358 128.472C192.088 127.842 191.689 127.276 191.186 126.811C190.683 126.346 190.087 125.992 189.438 125.774C188.788 125.556 188.1 125.477 187.419 125.543C186.737 125.61 186.077 125.819 185.482 126.159C184.887 126.498 184.37 126.959 183.966 127.513C183.561 128.066 183.278 128.698 183.135 129.368L183.125 129.356Z" fill="black"/>
<path d="M189.287 132.378C189.263 132.278 189.263 132.174 189.287 132.074C189.312 131.93 189.306 131.782 189.27 131.641C189.233 131.499 189.168 131.367 189.077 131.253C188.806 130.944 188.346 130.914 187.939 130.864C187.532 130.814 187.061 130.654 186.944 130.261C186.86 129.978 186.988 129.631 186.805 129.398C186.723 129.299 186.615 129.226 186.492 129.188C186.194 129.053 185.858 129.024 185.541 129.106C185 129.28 184.674 129.919 184.109 129.999C184.024 130.013 183.936 130.003 183.855 129.969C183.646 129.862 183.633 129.549 183.469 129.379C183.213 129.106 182.724 129.282 182.407 129.081C182.218 128.921 182.095 128.696 182.065 128.451C181.925 127.995 181.892 127.513 181.97 127.043C182.155 126.254 182.86 125.712 183.312 125.037C183.732 124.407 183.967 123.613 184.599 123.197C185.231 122.782 186.039 122.876 186.751 123.086C187.079 123.202 187.416 123.291 187.758 123.351C188.334 123.422 188.909 123.265 189.486 123.246C190.302 123.22 191.104 123.463 191.768 123.939C191.917 124.037 192.044 124.166 192.14 124.317C192.236 124.53 192.292 124.758 192.306 124.991C192.373 125.431 192.525 125.853 192.753 126.235C192.931 126.533 193.156 126.804 193.318 127.113C193.496 127.416 193.551 127.776 193.469 128.119C193.414 128.293 193.307 128.451 193.259 128.629C193.164 129.049 193.437 129.44 193.624 129.822C193.803 130.172 193.889 130.562 193.872 130.954C193.861 131.15 193.811 131.342 193.723 131.517C193.635 131.692 193.512 131.847 193.362 131.973C193.047 132.192 192.671 132.306 192.287 132.299C191.821 132.313 191.356 132.242 190.916 132.089C190.753 132.016 190.575 131.985 190.397 131.998C190.15 132.051 190.187 132.208 190.076 132.385C189.95 132.651 189.4 132.696 189.287 132.378Z" fill="#3F3D56"/>
<path opacity="0.1" d="M186.669 159.795L189.398 157.651L193.708 153.406C193.708 153.406 193.129 153.377 192.285 153.341C192.119 153.492 192.012 153.698 191.985 153.921C191.964 154.439 190.821 153.956 190.227 154.255C189.633 154.553 186.725 158.275 186.215 158.245C185.705 158.216 185.302 157.987 185.09 158.348L185.075 158.371C184.991 158.468 184.877 158.536 184.752 158.565L186.669 159.795Z" fill="black"/>
<path d="M181.151 159.649L182.522 164.041L182.732 164.732L183.387 164.551L184.832 164.154L191.264 162.388C192.071 162.347 192.859 162.132 193.574 161.757C194.788 161.078 196.176 160.774 197.563 160.886C198.403 160.966 199.358 160.598 200.143 159.149C200.143 159.149 201.925 153.883 197.426 152.375C192.927 150.867 192.711 153.177 192.711 153.177L192.65 153.215C192.476 153.326 191.987 153.677 191.968 154.101C191.947 154.62 190.805 154.137 190.211 154.435C189.616 154.734 186.709 158.456 186.198 158.426C185.688 158.397 185.285 158.168 185.073 158.529L185.058 158.552C184.901 158.762 184.429 158.819 184.116 158.829C183.946 158.829 183.822 158.829 183.822 158.829L183.782 158.842L183.454 158.939L181.151 159.649Z" fill="#65617D"/>
<path opacity="0.1" d="M181.506 151.112L182.17 151.217L182.447 148.487C182.447 148.487 182.142 148.442 181.762 148.354C181.863 148.728 181.636 150.205 181.506 151.112Z" fill="black"/>
<path opacity="0.1" d="M198.862 138.323C198.862 138.323 200.836 137.749 200.347 143.364C199.858 148.978 196.209 152.515 196.209 152.515C196.209 152.515 192.01 154.362 190.12 154.065C188.231 153.769 186.851 153.704 186.851 153.704C186.257 153.403 185.606 153.229 184.941 153.194C183.891 153.152 181.651 152.494 181.609 152.28C181.567 152.066 182.161 148.947 181.905 148.709C181.905 148.709 184.878 148.831 185.174 149.047C185.47 149.264 185.896 149.108 186.224 149.047C186.551 148.987 187.517 148.136 189.448 148.879C189.448 148.879 190.108 148.942 190.362 148.774C190.569 148.677 190.806 148.661 191.025 148.73C191.189 148.675 191.345 148.596 191.487 148.497C191.55 148.413 192.06 148.497 192.06 148.497C192.09 148.512 192.124 148.52 192.157 148.52C192.191 148.52 192.224 148.513 192.254 148.499C192.285 148.484 192.312 148.463 192.333 148.437C192.354 148.411 192.369 148.381 192.377 148.348C192.445 148.174 192.546 148.016 192.675 147.882C192.675 147.882 193.248 144.653 194.33 143.444C194.417 143.369 194.484 143.273 194.525 143.166C194.565 143.058 194.578 142.942 194.563 142.828C194.468 142.475 196.314 137.634 198.862 138.323Z" fill="black"/>
<path d="M198.81 137.884C198.81 137.884 200.783 137.31 200.294 142.925C199.805 148.539 196.156 152.077 196.156 152.077C196.156 152.077 191.957 153.923 190.068 153.627C188.178 153.33 186.799 153.265 186.799 153.265C186.205 152.964 185.554 152.79 184.888 152.755C183.839 152.713 181.599 152.056 181.557 151.841C181.515 151.627 182.109 148.508 181.855 148.271C181.855 148.271 184.825 148.392 185.121 148.609C185.417 148.825 185.844 148.67 186.171 148.609C186.499 148.548 187.464 147.697 189.396 148.441C189.396 148.441 190.055 148.504 190.309 148.334C190.517 148.237 190.754 148.222 190.973 148.292C191.137 148.236 191.292 148.157 191.434 148.058C191.497 147.974 192.008 148.058 192.008 148.058C192.038 148.073 192.071 148.081 192.105 148.081C192.138 148.081 192.171 148.074 192.202 148.06C192.232 148.046 192.259 148.025 192.28 147.999C192.302 147.972 192.317 147.942 192.325 147.909C192.392 147.736 192.493 147.577 192.623 147.443C192.623 147.443 193.196 144.215 194.277 143.005C194.364 142.93 194.432 142.834 194.473 142.727C194.514 142.619 194.527 142.503 194.512 142.389C194.416 142.045 196.263 137.203 198.81 137.884Z" fill="#3F3D56"/>
<path opacity="0.1" d="M183.48 158.949L186.285 162.343L186.301 162.324C186.322 162.259 186.597 161.537 186.534 161.495C186.471 161.453 185.982 160.39 185.006 159.945C184.51 159.703 184.094 159.324 183.807 158.852L183.48 158.949Z" fill="black"/>
<path opacity="0.1" d="M183.52 164.822L183.826 164.998L185.243 163.854C185.942 163.287 186.637 162.715 186.648 162.684C186.669 162.621 186.946 161.898 186.881 161.856C186.849 161.833 186.702 161.541 186.434 161.199C184.544 160.667 185.745 161.986 185.904 162.039C185.904 162.039 183.595 161.507 183.465 164.028C183.448 164.294 183.466 164.561 183.52 164.822Z" fill="black"/>
<path d="M185.862 165.891L186.266 166.124L190.362 166.229C190.821 166.509 191.307 166.743 191.812 166.929C191.881 166.949 191.951 166.964 192.022 166.973C192.402 167.004 192.784 167.011 193.164 166.994C193.477 166.994 193.721 166.973 193.721 166.973C193.721 166.973 193.525 161.806 193.381 161.262C193.309 161.001 192.961 161.052 192.629 161.188C192.374 161.292 192.129 161.416 191.894 161.56C191.894 161.56 190.154 161.728 189.879 161.879C189.604 162.03 188.816 161.793 188.329 161.879C187.842 161.965 186.971 161.304 186.971 161.304C184.594 160.518 185.921 161.984 186.1 162.047C186.1 162.047 183.79 161.516 183.66 164.036C183.53 166.557 185.862 165.891 185.862 165.891Z" fill="#3F3D56"/>
<path d="M191.783 163.893C191.829 164.965 192.663 166.292 193.16 166.994C193.473 166.994 193.717 166.973 193.717 166.973C193.717 166.973 193.521 161.805 193.376 161.261C193.305 161.001 192.957 161.051 192.625 161.188C192.213 161.959 191.76 163.032 191.783 163.893Z" fill="#565387"/>
<path opacity="0.1" d="M191.783 163.893C191.829 164.965 192.663 166.292 193.16 166.994C193.473 166.994 193.717 166.973 193.717 166.973C193.717 166.973 193.521 161.805 193.376 161.261C193.305 161.001 192.957 161.051 192.625 161.188C192.213 161.959 191.76 163.032 191.783 163.893Z" fill="black"/>
<path opacity="0.05" d="M191.084 164.036C191.365 165.07 191.363 166.227 191.812 166.928C191.881 166.949 191.951 166.964 192.022 166.973C192.402 167.004 192.784 167.011 193.164 166.994C193.477 166.994 193.721 166.973 193.721 166.973C193.721 166.973 193.526 161.805 193.381 161.261C193.309 161.001 192.961 161.051 192.629 161.188C192.374 161.291 192.129 161.416 191.894 161.56C191.894 161.56 190.723 162.713 191.084 164.036Z" fill="black"/>
<path opacity="0.1" d="M176.952 153.559C176.952 153.559 178.987 154.221 180.71 156.569L176.952 153.559Z" fill="black"/>
<g opacity="0.1">
<path opacity="0.1" d="M193.486 128.081L193.473 128.127C193.453 128.188 193.429 128.247 193.402 128.304C193.423 128.227 193.451 128.153 193.486 128.081Z" fill="black"/>
<path opacity="0.1" d="M181.974 127.052C182.011 126.906 182.063 126.765 182.132 126.632C182.132 126.667 182.111 126.703 182.102 126.741C182.023 127.212 182.055 127.694 182.197 128.15C182.227 128.396 182.349 128.621 182.539 128.78C182.854 128.99 183.343 128.808 183.601 129.081C183.765 129.253 183.774 129.562 183.988 129.669C184.068 129.704 184.156 129.714 184.242 129.698C184.804 129.618 185.132 128.98 185.674 128.806C185.99 128.723 186.325 128.752 186.622 128.887C186.744 128.928 186.853 129.001 186.937 129.098C187.118 129.333 186.992 129.677 187.076 129.963C187.191 130.356 187.662 130.513 188.069 130.564C188.476 130.614 188.936 130.646 189.209 130.952C189.299 131.067 189.364 131.199 189.401 131.341C189.437 131.482 189.443 131.63 189.419 131.773C189.394 131.873 189.394 131.978 189.419 132.078C189.53 132.397 190.08 132.349 190.225 132.097C190.33 131.914 190.299 131.763 190.546 131.713C190.724 131.697 190.903 131.728 191.065 131.803C191.505 131.955 191.97 132.026 192.436 132.013C192.82 132.019 193.197 131.904 193.513 131.685C193.65 131.577 193.763 131.44 193.843 131.284C193.772 131.567 193.611 131.82 193.385 132.005C193.07 132.223 192.694 132.337 192.31 132.33C191.844 132.345 191.379 132.274 190.939 132.12C190.775 132.048 190.597 132.017 190.418 132.03C190.171 132.082 190.208 132.24 190.097 132.416C189.954 132.668 189.404 132.714 189.291 132.397C189.268 132.297 189.268 132.193 189.291 132.093C189.316 131.949 189.311 131.801 189.275 131.659C189.238 131.518 189.172 131.386 189.081 131.271C188.81 130.963 188.35 130.933 187.943 130.883C187.536 130.832 187.065 130.673 186.948 130.28C186.864 129.997 186.992 129.65 186.809 129.417C186.727 129.319 186.618 129.246 186.497 129.207C186.198 129.072 185.863 129.043 185.545 129.125C185.004 129.299 184.676 129.938 184.114 130.018C184.028 130.032 183.94 130.022 183.86 129.988C183.65 129.881 183.637 129.568 183.473 129.398C183.215 129.125 182.728 129.301 182.411 129.1C182.221 128.941 182.099 128.715 182.069 128.469C181.926 128.011 181.894 127.525 181.974 127.052Z" fill="black"/>
</g>
<path opacity="0.1" d="M193.815 144.046C193.425 144.571 192.975 145.057 192.637 145.613C192.265 146.156 192.083 146.808 192.121 147.466C192.478 147.1 192.642 146.596 192.866 146.138C193.246 145.361 193.813 144.704 194.294 143.99C194.384 143.853 194.97 143.065 194.674 143.03C194.428 142.998 193.947 143.868 193.815 144.046Z" fill="black"/>
<path d="M60.1808 75.6707H42.8121C42.7332 75.666 42.6542 75.6774 42.5798 75.7044C42.5055 75.7313 42.4375 75.7731 42.38 75.8273C42.3224 75.8815 42.2766 75.9469 42.2453 76.0195C42.2139 76.0921 42.1978 76.1704 42.1978 76.2494C42.1978 76.3285 42.2139 76.4067 42.2453 76.4793C42.2766 76.5519 42.3224 76.6173 42.38 76.6715C42.4375 76.7257 42.5055 76.7675 42.5798 76.7945C42.6542 76.8214 42.7332 76.8328 42.8121 76.8281H60.1808C60.2597 76.8328 60.3388 76.8214 60.4131 76.7945C60.4874 76.7675 60.5554 76.7257 60.6129 76.6715C60.6705 76.6173 60.7163 76.5519 60.7477 76.4793C60.779 76.4067 60.7952 76.3285 60.7952 76.2494C60.7952 76.1704 60.779 76.0921 60.7477 76.0195C60.7163 75.9469 60.6705 75.8815 60.6129 75.8273C60.5554 75.7731 60.4874 75.7313 60.4131 75.7044C60.3388 75.6774 60.2597 75.666 60.1808 75.6707ZM60.1808 77.6557H42.8121C42.6584 77.6557 42.511 77.7167 42.4023 77.8255C42.2937 77.9342 42.2326 78.0816 42.2326 78.2354C42.2326 78.3891 42.2937 78.5366 42.4023 78.6453C42.511 78.754 42.6584 78.8151 42.8121 78.8151H60.1808C60.3345 78.8151 60.4819 78.754 60.5906 78.6453C60.6992 78.5366 60.7603 78.3891 60.7603 78.2354C60.7603 78.0816 60.6992 77.9342 60.5906 77.8255C60.4819 77.7167 60.3345 77.6557 60.1808 77.6557ZM59.3096 64.259H43.6854C43.3007 64.2596 42.9318 64.4126 42.6595 64.6846C42.3872 64.9566 42.2337 65.3255 42.2326 65.7104V73.062C42.2337 73.4469 42.3872 73.8158 42.6595 74.0878C42.9318 74.3598 43.3007 74.5128 43.6854 74.5134H59.3096C59.694 74.5123 60.0623 74.359 60.3342 74.0871C60.606 73.8151 60.7592 73.4466 60.7603 73.062V65.7104C60.7592 65.3258 60.606 64.9573 60.3342 64.6854C60.0623 64.4134 59.694 64.2601 59.3096 64.259ZM45.6232 73.1964H44.1347C43.981 73.1964 43.8337 73.1353 43.725 73.0266C43.6163 72.9179 43.5553 72.7704 43.5553 72.6167C43.5553 72.4629 43.6163 72.3155 43.725 72.2068C43.8337 72.0981 43.981 72.037 44.1347 72.037H45.6232C45.7769 72.037 45.9243 72.0981 46.033 72.2068C46.1416 72.3155 46.2027 72.4629 46.2027 72.6167C46.2027 72.7704 46.1416 72.9179 46.033 73.0266C45.9243 73.1353 45.7769 73.1964 45.6232 73.1964ZM45.6232 66.7418H44.1347C43.981 66.7418 43.8337 66.6807 43.725 66.572C43.6163 66.4632 43.5553 66.3158 43.5553 66.162C43.5553 66.0083 43.6163 65.8608 43.725 65.7521C43.8337 65.6434 43.981 65.5823 44.1347 65.5823H45.6232C45.7769 65.5823 45.9243 65.6434 46.033 65.7521C46.1416 65.8608 46.2027 66.0083 46.2027 66.162C46.2027 66.3158 46.1416 66.4632 46.033 66.572C45.9243 66.6807 45.7769 66.7418 45.6232 66.7418ZM51.5017 72.6986C50.8473 72.6986 50.2076 72.5045 49.6635 72.1407C49.1194 71.777 48.6953 71.26 48.4448 70.6551C48.1944 70.0502 48.1289 69.3846 48.2565 68.7425C48.3842 68.1004 48.6993 67.5105 49.1621 67.0476C49.6248 66.5846 50.2144 66.2693 50.8562 66.1416C51.498 66.0139 52.1633 66.0794 52.7679 66.33C53.3725 66.5805 53.8893 67.0048 54.2528 67.5492C54.6164 68.0936 54.8104 68.7336 54.8104 69.3883C54.8093 70.2666 54.4598 71.1086 53.8386 71.7293C53.2174 72.35 52.3754 72.6986 51.4975 72.6986H51.5017ZM58.8645 73.1964H57.376C57.2223 73.1964 57.0749 73.1353 56.9662 73.0266C56.8576 72.9179 56.7965 72.7704 56.7965 72.6167C56.7965 72.4629 56.8576 72.3155 56.9662 72.2068C57.0749 72.0981 57.2223 72.037 57.376 72.037H58.8645C59.0182 72.037 59.1656 72.0981 59.2742 72.2068C59.3829 72.3155 59.4439 72.4629 59.4439 72.6167C59.4439 72.7704 59.3829 72.9179 59.2742 73.0266C59.1656 73.1353 59.0182 73.1964 58.8645 73.1964ZM58.8645 66.7418H57.376C57.2223 66.7418 57.0749 66.6807 56.9662 66.572C56.8576 66.4632 56.7965 66.3158 56.7965 66.162C56.7965 66.0083 56.8576 65.8608 56.9662 65.7521C57.0749 65.6434 57.2223 65.5823 57.376 65.5823H58.8645C59.0182 65.5823 59.1656 65.6434 59.2742 65.7521C59.3829 65.8608 59.4439 66.0083 59.4439 66.162C59.4439 66.3158 59.3829 66.4632 59.2742 66.572C59.1656 66.6807 59.0182 66.7418 58.8645 66.7418Z" fill="white"/>
<path d="M51.4975 71.6609C52.708 71.6609 53.6893 70.6791 53.6893 69.468C53.6893 68.2569 52.708 67.2751 51.4975 67.2751C50.287 67.2751 49.3057 68.2569 49.3057 69.468C49.3057 70.6791 50.287 71.6609 51.4975 71.6609Z" fill="white"/>
<path opacity="0.2" d="M163.575 49.6292H84.7004V93.4403H163.575V49.6292Z" fill="#0098AC"/>
<path opacity="0.2" d="M163.575 103.241H84.7004V147.052H163.575V103.241Z" fill="#0098AC"/>
<path d="M102.598 80.1362H100.211V88.1389H102.598V80.1362Z" fill="white"/>
<path d="M107.144 70.2283H104.756V88.1387H107.144V70.2283Z" fill="white"/>
<path d="M111.691 61.3013H109.304V88.1386H111.691V61.3013Z" fill="#DFE3EF"/>
<path d="M116.238 54.9329H113.851V88.1388H116.238V54.9329Z" fill="white"/>
<path d="M111.691 54.9329H109.304V88.1388H111.691V54.9329Z" fill="#0098AC"/>
<path d="M120.784 69.886H118.397V88.1388H120.784V69.886Z" fill="#0098AC"/>
<path opacity="0.2" d="M125.331 65.1685H122.944V88.1389H125.331V65.1685Z" fill="#0098AC"/>
<path d="M129.876 58.0039H127.489V88.139H129.876V58.0039Z" fill="#0098AC"/>
<path opacity="0.2" d="M134.424 74.7192H132.037V88.139H134.424V74.7192Z" fill="#0098AC"/>
<path d="M138.971 68.5227H136.584V88.1387H138.971V68.5227Z" fill="#0098AC"/>
<path opacity="0.2" d="M143.517 61.3013H141.129V88.1386H143.517V61.3013Z" fill="#0098AC"/>
<path d="M148.064 61.3013H145.677V88.1386H148.064V61.3013Z" fill="#0098AC"/>
<path d="M60.754 119.849C60.7529 119.499 60.6132 119.163 60.3654 118.915C60.1176 118.667 59.7818 118.527 59.4313 118.526H43.5574C43.2067 118.527 42.8707 118.667 42.6226 118.915C42.3744 119.162 42.2343 119.498 42.2326 119.849V121.836H60.754V119.849ZM42.2263 130.442C42.2274 130.793 42.3674 131.129 42.6156 131.378C42.8638 131.626 43.2001 131.766 43.5511 131.767H59.4313C59.7822 131.766 60.1182 131.626 60.3661 131.378C60.614 131.129 60.7534 130.793 60.754 130.442V123.83H42.2326L42.2263 130.442ZM48.1048 128.457H54.8881C54.967 128.452 55.046 128.463 55.1203 128.49C55.1946 128.517 55.2627 128.559 55.3202 128.613C55.3777 128.668 55.4236 128.733 55.4549 128.806C55.4863 128.878 55.5024 128.956 55.5024 129.035C55.5024 129.115 55.4863 129.193 55.4549 129.265C55.4236 129.338 55.3777 129.403 55.3202 129.458C55.2627 129.512 55.1946 129.554 55.1203 129.581C55.046 129.607 54.967 129.619 54.8881 129.614H48.1048C47.9574 129.605 47.819 129.54 47.7178 129.433C47.6166 129.325 47.5602 129.183 47.5602 129.035C47.5602 128.888 47.6166 128.746 47.7178 128.638C47.819 128.531 47.9574 128.466 48.1048 128.457ZM45.1278 128.457H45.6232C45.7021 128.452 45.7811 128.463 45.8555 128.49C45.9298 128.517 45.9978 128.559 46.0553 128.613C46.1128 128.668 46.1587 128.733 46.19 128.806C46.2214 128.878 46.2375 128.956 46.2375 129.035C46.2375 129.115 46.2214 129.193 46.19 129.265C46.1587 129.338 46.1128 129.403 46.0553 129.458C45.9978 129.512 45.9298 129.554 45.8555 129.581C45.7811 129.607 45.7021 129.619 45.6232 129.614H45.1278C45.0489 129.619 44.9698 129.607 44.8955 129.581C44.8212 129.554 44.7532 129.512 44.6957 129.458C44.6381 129.403 44.5923 129.338 44.561 129.265C44.5296 129.193 44.5135 129.115 44.5135 129.035C44.5135 128.956 44.5296 128.878 44.561 128.806C44.5923 128.733 44.6381 128.668 44.6957 128.613C44.7532 128.559 44.8212 128.517 44.8955 128.49C44.9698 128.463 45.0489 128.452 45.1278 128.457Z" fill="white"/>
<path d="M102.598 133.746H100.211V141.749H102.598V133.746Z" fill="white"/>
<path d="M107.144 123.838H104.756V141.748H107.144V123.838Z" fill="white"/>
<path d="M111.691 114.911H109.304V141.748H111.691V114.911Z" fill="#DFE3EF"/>
<path d="M116.238 108.542H113.851V141.748H116.238V108.542Z" fill="white"/>
<path d="M111.691 108.542H109.304V141.748H111.691V108.542Z" fill="#0098AC"/>
<path d="M120.784 123.496H118.397V141.748H120.784V123.496Z" fill="#0098AC"/>
<path d="M125.331 118.778H122.944V141.749H125.331V118.778Z" fill="white"/>
<path d="M129.876 111.614H127.489V141.749H129.876V111.614Z" fill="white"/>
<path opacity="0.2" d="M134.424 128.329H132.037V141.749H134.424V128.329Z" fill="#0098AC"/>
<path opacity="0.2" d="M138.971 122.133H136.584V141.749H138.971V122.133Z" fill="#0098AC"/>
<path opacity="0.2" d="M143.517 114.911H141.129V141.748H143.517V114.911Z" fill="#0098AC"/>
<path opacity="0.2" d="M148.064 114.911H145.677V141.748H148.064V114.911Z" fill="#0098AC"/>
</g>
<defs>
<linearGradient id="paint0_linear_17_438" x1="187.259" y1="166.843" x2="187.259" y2="122.468" gradientUnits="userSpaceOnUse">
<stop stop-color="#808080" stop-opacity="0.25"/>
<stop offset="0.54" stop-color="#808080" stop-opacity="0.12"/>
<stop offset="1" stop-color="#808080" stop-opacity="0.1"/>
</linearGradient>
<clipPath id="clip0_17_438">
<rect width="229" height="167" fill="white"/>
</clipPath>
</defs>
</svg>
