<svg width="214" height="159" viewBox="0 0 214 159" fill="none" xmlns="http://www.w3.org/2000/svg">
<g clip-path="url(#clip0_17_577)">
<path d="M154.859 0.291545L4.52149 47.0794C1.1319 48.1343 -0.762084 51.7416 0.291158 55.1366L27.3369 142.314C28.3902 145.709 31.9918 147.606 35.3814 146.551L185.719 99.7629C189.109 98.708 191.003 95.1007 189.949 91.7057L162.904 4.52856C161.85 1.13362 158.249 -0.763356 154.859 0.291545Z" fill="url(#paint0_linear_17_577)"/>
<path d="M154.081 1.66836L7.06074 47.4237C3.67115 48.4786 1.77716 52.0859 2.8304 55.4808L28.7839 139.137C29.8372 142.532 33.4388 144.429 36.8284 143.374L183.848 97.6191C187.238 96.5642 189.132 92.9569 188.079 89.5619L162.125 5.90536C161.072 2.51042 157.47 0.613453 154.081 1.66836Z" fill="white"/>
<path d="M164.141 12.4031L4.84619 61.9785L9.1152 75.7389L168.41 26.1634L164.141 12.4031Z" fill="#0098AC"/>
<path d="M78.2511 110.908L37.7776 123.504L39.6236 129.455L80.0971 116.858L78.2511 110.908Z" fill="#BDBDBD"/>
<path d="M104.841 91.6219L34.6624 113.463L36.5084 119.413L106.687 97.5724L104.841 91.6219Z" fill="#E0E0E0"/>
<path d="M207.573 54.7346H49.1849C45.6355 54.7346 42.7581 57.6166 42.7581 61.1716V152.563C42.7581 156.118 45.6355 159 49.1849 159H207.573C211.123 159 214 156.118 214 152.563V61.1716C214 57.6166 211.123 54.7346 207.573 54.7346Z" fill="url(#paint1_linear_17_577)"/>
<path d="M205.083 55.7976H51.129C47.5796 55.7976 44.7021 58.6796 44.7021 62.2346V149.837C44.7021 153.392 47.5796 156.274 51.129 156.274H205.083C208.632 156.274 211.51 153.392 211.51 149.837V62.2346C211.51 58.6796 208.632 55.7976 205.083 55.7976Z" fill="white"/>
<path d="M89.2305 104.574H84.3702V118.4H89.2305V104.574Z" fill="#E0E0E0"/>
<path d="M95.4519 104.574H90.5915V118.4H95.4519V104.574Z" fill="#E0E0E0"/>
<path d="M101.673 104.574H96.8127V118.4H101.673V104.574Z" fill="#E0E0E0"/>
<path d="M112.56 104.574H107.7V118.4H112.56V104.574Z" fill="#E0E0E0"/>
<path d="M118.782 104.574H113.921V118.4H118.782V104.574Z" fill="#E0E0E0"/>
<path d="M125.003 104.574H120.143V118.4H125.003V104.574Z" fill="#E0E0E0"/>
<path d="M135.89 104.574H131.03V118.4H135.89V104.574Z" fill="#E0E0E0"/>
<path d="M142.111 104.574H137.251V118.4H142.111V104.574Z" fill="#E0E0E0"/>
<path d="M148.333 104.574H143.472V118.4H148.333V104.574Z" fill="#E0E0E0"/>
<path d="M159.22 104.574H154.359V118.4H159.22V104.574Z" fill="#E0E0E0"/>
<path d="M165.441 104.574H160.581V118.4H165.441V104.574Z" fill="#E0E0E0"/>
<path d="M171.662 104.574H166.802V118.4H171.662V104.574Z" fill="#E0E0E0"/>
<path d="M84.2942 82.1213H55.3149V98.0383H84.2942V82.1213Z" fill="#0098AC"/>
<path opacity="0.1" d="M185.722 134.319H167.96V152.109H185.722V134.319Z" fill="#0098AC"/>
<path opacity="0.1" d="M194.603 134.319H176.841V152.109H194.603V134.319Z" fill="#0098AC"/>
</g>
<defs>
<linearGradient id="paint0_linear_17_577" x1="95.4403" y1="147.115" x2="96.0894" y2="-0.267534" gradientUnits="userSpaceOnUse">
<stop stop-color="#808080" stop-opacity="0.25"/>
<stop offset="0.53514" stop-color="#808080" stop-opacity="0.12"/>
<stop offset="1" stop-color="#808080" stop-opacity="0.1"/>
</linearGradient>
<linearGradient id="paint1_linear_17_577" x1="94109.9" y1="70879.7" x2="94109.9" y2="24435.7" gradientUnits="userSpaceOnUse">
<stop stop-color="#808080" stop-opacity="0.25"/>
<stop offset="0.53514" stop-color="#808080" stop-opacity="0.12"/>
<stop offset="1" stop-color="#808080" stop-opacity="0.1"/>
</linearGradient>
<clipPath id="clip0_17_577">
<rect width="214" height="159" fill="white"/>
</clipPath>
</defs>
</svg>
