<svg width="41" height="41" viewBox="0 0 41 41" fill="none" xmlns="http://www.w3.org/2000/svg">
<path d="M20.2587 40.5464C31.3361 40.5464 40.3161 31.5535 40.3161 20.4601C40.3161 9.36682 31.3361 0.373901 20.2587 0.373901C9.18129 0.373901 0.201294 9.36682 0.201294 20.4601C0.201294 31.5535 9.18129 40.5464 20.2587 40.5464Z" fill="#F2F2F2"/>
<path d="M12 21.1684C12 20.0328 12.9206 19.1123 14.0561 19.1123H19.7105V21.1684H12Z" fill="#B3E0E6"/>
<path d="M17.6543 21.1684L17.6543 15L19.7105 15L19.7105 21.1684L17.6543 21.1684Z" fill="#B3E0E6"/>
<path d="M28.9048 19.6263C28.9048 20.7619 27.9843 21.6825 26.8487 21.6825L21.1943 21.6825L21.1943 19.6263L28.9048 19.6263Z" fill="#B3E0E6"/>
<path d="M12 23.7386H19.7105V25.7947H14.0561C12.9206 25.7947 12 24.8742 12 23.7386Z" fill="#B3E0E6"/>
<path d="M28.9048 17.0562L21.1943 17.0562L21.1943 15L26.8487 15C27.9843 15 28.9048 15.9206 28.9048 17.0562Z" fill="#B3E0E6"/>
<path d="M23.2504 19.6263L23.2504 25.7947L21.1942 25.7947L21.1942 19.6263L23.2504 19.6263Z" fill="#B3E0E6"/>
<rect x="12" y="24.7667" width="4.62631" height="2.05614" rx="1.02807" transform="rotate(-90 12 24.7667)" fill="#B3E0E6"/>
<rect x="28.9048" y="16.0281" width="4.62631" height="2.05614" rx="1.02807" transform="rotate(90 28.9048 16.0281)" fill="#B3E0E6"/>
</svg>
