<svg width="150" height="93" viewBox="0 0 150 93" fill="none" xmlns="http://www.w3.org/2000/svg">
<g clip-path="url(#clip0_4_1249)">
<path opacity="0.1" d="M150 59.259C150.003 61.7588 149.7 64.2495 149.1 66.6761C148.898 67.4929 148.663 68.2935 148.395 69.078C148.068 70.0451 147.689 70.994 147.259 71.9205C147.043 72.3884 146.814 72.8477 146.573 73.2985C146.577 75.8619 146.049 78.3983 145.023 80.7474C143.168 84.9617 139.86 88.3693 135.703 90.3499C133.101 91.5913 130.256 92.2436 127.373 92.2602H28.4751C24.0746 92.2701 19.75 91.1144 15.9409 88.9108C15.378 88.5848 14.8296 88.2375 14.2955 87.8691C13.136 87.068 12.0466 86.1699 11.0391 85.1844C9.67511 83.8503 8.47348 82.3597 7.45917 80.7436C5.07611 76.9597 3.81369 72.5781 3.81812 68.1063C1.40476 63.8718 -0.00250244 58.7993 -0.00250244 53.3485C-0.00250244 46.4714 2.23383 40.1979 5.90799 35.4489C6.67399 34.4567 7.51304 33.5232 8.41814 32.656C9.31119 31.798 10.2711 31.0123 11.2887 30.3064C12.1026 29.7405 12.9535 29.23 13.8358 28.7781C14.2038 28.5896 14.5732 28.4139 14.9488 28.2496C15.2787 28.1031 15.6124 27.9669 15.9499 27.8382C16.3548 27.6837 16.7649 27.5424 17.1801 27.4142C17.5953 27.286 18.0049 27.173 18.4091 27.0754C19.0034 26.9302 19.6079 26.8122 20.2226 26.7213C20.732 26.6462 21.2414 26.594 21.7508 26.5532C22.1558 26.5244 22.5642 26.5074 22.976 26.5023H23.1988C23.6522 26.5023 24.1031 26.5201 24.5501 26.5507C24.5972 26.4565 24.6481 26.3609 24.6952 26.2667C24.8735 25.9279 25.0582 25.5892 25.2441 25.2568V25.2479C25.276 25.1906 25.3078 25.1332 25.3409 25.0772C25.4912 24.8059 25.6479 24.5372 25.8083 24.2711C25.8822 24.1437 25.9548 24.024 26.0299 23.903C26.0465 23.8737 26.063 23.8457 26.0821 23.8164C26.1585 23.6891 26.2362 23.5617 26.3152 23.4343C26.7083 22.8069 27.1171 22.1892 27.5416 21.5813C27.5785 21.5291 27.6129 21.4782 27.6499 21.4272C27.7161 21.333 27.7772 21.24 27.8511 21.1471C28.0268 20.9013 28.2077 20.6542 28.3898 20.411C28.5171 20.239 28.6445 20.0671 28.782 19.9015C29.1132 19.4736 29.4532 19.0483 29.8009 18.628C30.1485 18.2077 30.5153 17.7849 30.8859 17.371C30.9369 17.3137 30.9878 17.2577 31.0413 17.2004L31.5851 16.6082C31.6118 16.5802 31.6348 16.5547 31.6602 16.5292C31.7252 16.4592 31.7876 16.3891 31.8576 16.3204C32.1493 16.0122 32.4486 15.7078 32.7491 15.4072C34.2843 13.8818 35.9198 12.4608 37.6446 11.1536C37.7121 11.1001 37.7809 11.0492 37.8484 10.9982C38.1718 10.7537 38.5004 10.513 38.829 10.2761C40.6366 8.98006 42.5257 7.80172 44.4848 6.74843C44.6198 6.67202 44.7573 6.59943 44.8961 6.52683C46.6529 5.59807 48.4594 4.76647 50.3074 4.03579C51.3143 3.6376 52.3391 3.26573 53.3817 2.92017C54.072 2.69476 54.7648 2.47953 55.4665 2.2834C56.5516 1.97181 57.6502 1.69078 58.7624 1.44032C62.0391 0.705086 65.3726 0.250906 68.7266 0.0827259C69.7454 0.0292373 70.7757 0.0024933 71.8175 0.0024933C76.8441 -0.00416144 81.8512 0.62921 86.7179 1.88733C86.7682 1.96337 86.837 2.02536 86.9179 2.06747C86.9988 2.10958 87.089 2.13042 87.1802 2.12803H87.6081C87.794 2.1777 87.9787 2.22991 88.1646 2.2834C89.203 2.58311 90.2265 2.90956 91.2351 3.26275L91.4898 3.35445C93.9793 4.23966 96.4015 5.30372 98.7375 6.5383C100.843 7.64898 102.871 8.90164 104.806 10.2876C105.104 10.5016 105.398 10.7176 105.687 10.9358C106.039 10.7091 106.396 10.4931 106.76 10.2876C108.163 9.48878 109.653 8.85379 111.202 8.39512C114.439 7.43718 117.864 7.30323 121.166 8.00541C125.4 8.90326 129.234 11.132 132.33 14.3018C133.591 15.5946 134.714 17.015 135.682 18.5401C135.752 18.6497 135.822 18.7605 135.889 18.8725C136.719 20.227 137.432 21.6496 138.021 23.1249C138.043 23.1784 138.064 23.2306 138.084 23.2841C138.627 24.6647 139.066 26.0845 139.395 27.5313C139.411 27.6039 139.428 27.6778 139.444 27.7516C139.752 29.1518 139.961 30.5719 140.07 32.0014C140.07 32.0524 140.07 32.1046 140.08 32.1568C140.134 32.8963 140.161 33.6439 140.162 34.3995C140.162 35.0745 140.139 35.7444 140.097 36.4079C140.097 36.4805 140.087 36.5569 140.08 36.6308C140.069 36.8243 140.052 37.0128 140.036 37.2077C141.009 37.9918 141.919 38.8502 142.759 39.7751C143.13 40.1801 143.489 40.6008 143.836 41.0372C144.894 42.3626 145.824 43.7856 146.612 45.287C148.762 49.3598 150 54.1406 150 59.259Z" fill="#0098AC"/>
<path opacity="0.1" d="M135.609 84.3262C135.609 87.2209 132.609 89.9297 127.373 92.2628H28.4751C23.8993 92.2628 19.6138 90.6073 15.9409 87.7201C15.0176 86.6249 14.5311 85.4902 14.5311 84.3249C14.5311 81.248 17.9238 78.3762 23.7898 75.9488L23.9553 75.8826C25.6109 75.2038 27.4614 74.5632 29.4838 73.9608C29.5347 73.9455 29.5869 73.9315 29.6379 73.9137C31.2425 73.4425 32.9495 72.9959 34.7588 72.5739C34.8161 72.5612 34.8721 72.5472 34.9294 72.537C35.6273 72.3714 36.3392 72.2173 37.0664 72.0632L37.3466 72.0047C42.6382 70.9069 48.6531 70.0358 55.1762 69.4448H55.1838C56.0973 69.3599 57.0207 69.284 57.9537 69.2169C58.9917 69.1341 60.0423 69.0641 61.1045 68.9991C61.9157 68.9469 62.7372 68.9023 63.5611 68.8616C63.5642 68.8603 63.5674 68.8596 63.5707 68.8596C63.574 68.8596 63.5772 68.8603 63.5802 68.8616C67.2977 68.6744 71.1387 68.5763 75.0663 68.5763C84.7783 68.5763 93.958 69.1723 102.092 70.2319C102.1 70.2306 102.107 70.2306 102.115 70.2319C103.366 70.3949 104.593 70.5668 105.79 70.7502C106.133 70.8037 106.474 70.8572 106.809 70.912C108.16 71.1302 109.476 71.3607 110.757 71.6035C125.823 74.4677 135.609 79.1021 135.609 84.3262Z" fill="#0098AC"/>
<path d="M110.989 30.9828C110.989 30.9828 109.641 30.4364 105.355 32.4015C101.068 34.3666 100.533 34.1182 99.4238 33.8228C98.3146 33.5273 97.6956 33.4509 96.5062 31.8093C96.5062 31.8093 95.6669 27.2615 94.8506 26.5559C94.0342 25.8504 90.588 26.9584 90.588 26.9584C90.588 26.9584 86.4503 27.9072 85.662 22.3736C85.662 22.3736 86.221 18.2066 85.4595 16.928C85.4595 16.928 86.9979 17.5902 89.5348 16.5204C92.0717 15.4507 94.103 17.673 94.103 17.673C94.103 17.673 94.7398 19.3286 94.6761 20.3169C94.6124 21.3051 95.0148 21.6757 96.2247 21.1981C96.2247 21.1981 96.8194 20.3525 95.9776 18.9542C95.1358 17.5558 94.5347 16.5153 94.769 15.4303C95.0034 14.3452 95.6796 12.8386 97.851 12.086C100.022 11.3333 102.971 11.1945 104.386 10.5997C105.8 10.005 106.149 9.62549 106.149 9.62549C106.149 9.62549 105.278 10.4979 107.33 14.1975C109.382 17.8971 108.074 19.5018 108.074 19.5018C108.074 19.5018 106.982 22.1036 102.163 21.8922C102.163 21.8922 97.5199 22.0616 100.052 24.0305C100.052 24.0305 101.673 23.7007 104.096 22.9302C106.52 22.1597 108.27 25.3397 108.704 27.5518C109.138 29.764 110.989 30.9828 110.989 30.9828Z" fill="#0098AC"/>
<path d="M104.747 12.4272L104.773 12.4196C104.959 13.1251 102.884 15.9625 101.11 18.218L101.09 18.2014C103.591 15.0252 104.891 12.9735 104.747 12.4272Z" fill="#444053"/>
<path d="M101.125 18.1582L101.137 18.1862C99.7194 19.987 97.9377 22.1342 96.5114 23.7299C96.3751 23.8815 96.2401 24.0407 96.1102 24.2037L96.0695 24.1706C96.1968 24.0076 96.3356 23.8471 96.4719 23.6956C97.897 22.1062 99.7067 19.9603 101.125 18.1582Z" fill="#444053"/>
<path d="M96.1038 24.1298L96.1318 24.1782C93.5363 27.4193 93.3644 32.4562 93.3581 32.4956L92.8104 31.8589C92.8168 31.8181 93.4905 27.3938 96.1038 24.1298Z" fill="#444053"/>
<path d="M107.985 29.2252C107.985 29.2252 104.928 27.6332 102.539 28.2063C100.15 28.7794 94.7768 26.1814 94.7768 26.1814C94.7768 26.1814 92.4972 25.2555 92.0387 24.1998C92.0387 24.1998 90.4735 22.5442 90.3831 21.6896C90.2927 20.8351 88.7708 18.6815 87.7775 18.5988" stroke="#444053" stroke-miterlimit="10"/>
<path d="M107.535 30.7573C107.535 30.7573 105.994 29.718 106.174 28.5082" stroke="#444053" stroke-miterlimit="10"/>
<path d="M105.171 32.0983C105.171 32.0983 102.967 31.2985 102.752 28.1605" stroke="#444053" stroke-miterlimit="10"/>
<path d="M101.617 32.9109C101.617 32.9109 99.5106 31.1636 100.21 28.1096" stroke="#444053" stroke-miterlimit="10"/>
<path d="M97.3393 32.0576C97.3393 32.0576 95.9383 29.1157 97.1852 27.2015" stroke="#444053" stroke-miterlimit="10"/>
<path d="M108.014 27.2856C108.014 27.2856 106.421 27.7951 106.762 28.6305" stroke="#444053" stroke-miterlimit="10"/>
<path d="M106.091 24.3986C106.091 24.3986 103.958 25.0748 103.908 28.0918" stroke="#444053" stroke-miterlimit="10"/>
<path d="M103.116 23.6954C103.116 23.6954 101.174 26.0922 101.316 28.27" stroke="#444053" stroke-miterlimit="10"/>
<path d="M99.7156 24.6354C99.7156 24.6354 97.7875 26.4795 98.0332 27.5047" stroke="#444053" stroke-miterlimit="10"/>
<path d="M98.5528 23.9846C98.5528 23.9846 96.7444 24.3081 96.491 23.7146" stroke="#444053" stroke-miterlimit="10"/>
<path d="M96.2032 21.8018C96.2032 21.8018 97.1163 23.0116 97.3494 22.7404" stroke="#444053" stroke-miterlimit="10"/>
<path d="M105.261 21.0364C105.261 21.0364 100.701 21.3675 99.6697 19.9921" stroke="#444053" stroke-miterlimit="10"/>
<path d="M95.2493 15.704C95.2493 15.704 97.3875 20.2951 98.9425 20.8796" stroke="#444053" stroke-miterlimit="10"/>
<path d="M97.4882 13.5173C97.4882 13.5173 98.8012 17.7404 100.429 19.0585" stroke="#444053" stroke-miterlimit="10"/>
<path d="M107.178 17.5505C107.178 17.5505 103.712 19.038 101.631 17.5327" stroke="#444053" stroke-width="0.75" stroke-miterlimit="10"/>
<path d="M100.575 12.6169C100.575 12.6169 101.367 15.7206 102.435 16.4707" stroke="#444053" stroke-width="0.75" stroke-miterlimit="10"/>
<path d="M106.655 14.0726C106.655 14.0726 104.707 14.8113 103.981 14.2458" stroke="#444053" stroke-width="0.75" stroke-miterlimit="10"/>
<path d="M94.5335 22.8154C94.5335 22.8154 94.5335 25.5217 93.7974 25.714" stroke="#444053" stroke-miterlimit="10"/>
<path d="M88.511 26.3215C88.511 26.3215 91.4401 26.5762 92.7862 25.062" stroke="#444053" stroke-miterlimit="10"/>
<path d="M93.7796 19.6188C93.7796 19.6188 93.0715 22.3632 91.1179 23.1032" stroke="#444053" stroke-miterlimit="10"/>
<path d="M86.7561 23.4306C86.7561 23.4306 88.8269 24.1501 90.6086 22.3175" stroke="#444053" stroke-miterlimit="10"/>
<path d="M91.4757 17.259C91.4757 17.259 91.2808 19.5896 90.0137 20.681" stroke="#444053" stroke-miterlimit="10"/>
<path d="M86.835 19.8786C86.835 19.8786 88.553 19.8901 88.9554 19.3297" stroke="#444053" stroke-miterlimit="10"/>
<path d="M99.2609 28.7285H50.3315V53.4275H99.2609V28.7285Z" fill="#33323D"/>
<path d="M114.658 60.9313H35.0898V77.1893H114.658V60.9313Z" fill="#33323D"/>
<path d="M54.0833 64.9951H94.8838L103.013 92.352H45.4857L54.0833 64.9951Z" fill="white"/>
<path d="M32.8229 51.2383V59.6806V61.4584V77.1879H48.0647V62.1818H101.683V77.1879H116.925V61.4584V59.6806V51.2383H32.8229Z" fill="#504F60"/>
<path opacity="0.1" d="M116.925 51.2383H32.8229V59.6793H116.925V51.2383Z" fill="#33323D"/>
<path opacity="0.8" d="M112.392 56.7107C113.083 56.7107 113.643 56.1508 113.643 55.4601C113.643 54.7694 113.083 54.2095 112.392 54.2095C111.702 54.2095 111.142 54.7694 111.142 55.4601C111.142 56.1508 111.702 56.7107 112.392 56.7107Z" fill="#8CCF4D"/>
<path opacity="0.8" d="M106.765 56.7107C107.455 56.7107 108.015 56.1508 108.015 55.4601C108.015 54.7694 107.455 54.2095 106.765 54.2095C106.074 54.2095 105.514 54.7694 105.514 55.4601C105.514 56.1508 106.074 56.7107 106.765 56.7107Z" fill="#FA5959"/>
<path d="M97.464 22.7875H52.1298V49.6744H97.464V22.7875Z" fill="white"/>
<path d="M104.36 62.0303C104.456 63.0708 103.67 64.0807 103.899 65.0995C103.948 65.3173 104.042 65.5236 104.076 65.7363C104.17 66.3412 103.81 66.9143 103.465 67.4212L100.506 71.7741C100.388 71.9651 100.246 72.1405 100.084 72.2963C99.5169 72.8057 98.6688 72.7471 97.9263 72.8974C97.4043 73.0032 96.9112 73.2204 96.4808 73.5342C96.4621 73.549 96.4497 73.5704 96.4461 73.5941C96.4426 73.6177 96.4481 73.6418 96.4617 73.6615C96.5841 73.8294 96.7466 73.964 96.9343 74.053C97.1221 74.142 97.3291 74.1825 97.5366 74.1709C97.6143 74.2728 97.5366 74.4257 97.4296 74.497C97.2704 74.6065 97.0475 74.6358 97.0208 74.9058C97.0096 74.9996 97.0283 75.0945 97.0743 75.177C97.194 75.3594 97.3798 75.4881 97.5926 75.5362C98.6114 75.8495 99.7232 75.2993 100.49 74.5505C101.257 73.8016 101.807 72.8567 102.559 72.0938C102.976 71.6723 103.451 71.3106 103.879 70.9018C104.735 70.0867 105.407 69.0946 106.044 68.1C106.254 67.8116 106.413 67.4888 106.512 67.1461C106.591 66.8073 106.556 66.4495 106.647 66.1133C106.767 65.6739 107.089 65.3237 107.357 64.9544C107.883 64.231 108.233 63.3471 108.163 62.4557C108.093 61.5642 107.543 60.6867 106.702 60.3836C106.442 60.2798 106.155 60.2624 105.883 60.334C105.538 60.4397 105.285 60.7249 105.049 60.9975L104.488 61.6457C104.348 61.7892 104.236 61.9582 104.16 62.1437C104.124 62.2371 104.116 62.3391 104.136 62.4372C104.157 62.5353 104.205 62.6253 104.276 62.6964" fill="#FBBEBE"/>
<path opacity="0.05" d="M104.36 62.0303C104.456 63.0708 103.67 64.0807 103.899 65.0995C103.948 65.3173 104.042 65.5236 104.076 65.7363C104.17 66.3412 103.81 66.9143 103.465 67.4212L100.506 71.7741C100.388 71.9651 100.246 72.1405 100.084 72.2963C99.5169 72.8057 98.6688 72.7471 97.9263 72.8974C97.4043 73.0032 96.9112 73.2204 96.4808 73.5342C96.4621 73.549 96.4497 73.5704 96.4461 73.5941C96.4426 73.6177 96.4481 73.6418 96.4617 73.6615C96.5841 73.8294 96.7466 73.964 96.9343 74.053C97.1221 74.142 97.3291 74.1825 97.5366 74.1709C97.6143 74.2728 97.5366 74.4257 97.4296 74.497C97.2704 74.6065 97.0475 74.6358 97.0208 74.9058C97.0096 74.9996 97.0283 75.0945 97.0743 75.177C97.194 75.3594 97.3798 75.4881 97.5926 75.5362C98.6114 75.8495 99.7232 75.2993 100.49 74.5505C101.257 73.8016 101.807 72.8567 102.559 72.0938C102.976 71.6723 103.451 71.3106 103.879 70.9018C104.735 70.0867 105.407 69.0946 106.044 68.1C106.254 67.8116 106.413 67.4888 106.512 67.1461C106.591 66.8073 106.556 66.4495 106.647 66.1133C106.767 65.6739 107.089 65.3237 107.357 64.9544C107.883 64.231 108.233 63.3471 108.163 62.4557C108.093 61.5642 107.543 60.6867 106.702 60.3836C106.442 60.2798 106.155 60.2624 105.883 60.334C105.538 60.4397 105.285 60.7249 105.049 60.9975L104.488 61.6457C104.348 61.7892 104.236 61.9582 104.16 62.1437C104.124 62.2371 104.116 62.3391 104.136 62.4372C104.157 62.5353 104.205 62.6253 104.276 62.6964" fill="black"/>
<path d="M106.6 88.8115C105.953 89.205 105.148 89.2305 104.397 89.1375C104.27 89.1235 104.133 89.1146 104.056 89.2076C103.944 89.3438 104.076 89.5425 104.212 89.652C104.656 89.9844 105.177 90.1986 105.727 90.2748C106.217 90.3432 106.711 90.376 107.206 90.3729C108.556 90.3958 109.914 90.4187 111.251 90.2239C111.328 90.2181 111.404 90.1959 111.472 90.1589C111.558 90.0986 111.618 90.0074 111.638 89.9042C111.731 89.5578 111.554 89.1834 111.288 88.9427C111.022 88.702 110.679 88.567 110.344 88.4332L109.17 87.976C108.894 87.8678 108.452 87.5838 108.151 87.6054C107.603 87.65 107.066 88.5389 106.6 88.8115Z" fill="#3F3D56"/>
<path opacity="0.05" d="M106.6 88.8115C105.953 89.205 105.148 89.2305 104.397 89.1375C104.27 89.1235 104.133 89.1146 104.056 89.2076C103.944 89.3438 104.076 89.5425 104.212 89.652C104.656 89.9844 105.177 90.1986 105.727 90.2748C106.217 90.3432 106.711 90.376 107.206 90.3729C108.556 90.3958 109.914 90.4187 111.251 90.2239C111.328 90.2181 111.404 90.1959 111.472 90.1589C111.558 90.0986 111.618 90.0074 111.638 89.9042C111.731 89.5578 111.554 89.1834 111.288 88.9427C111.022 88.702 110.679 88.567 110.344 88.4332L109.17 87.976C108.894 87.8678 108.452 87.5838 108.151 87.6054C107.603 87.65 107.066 88.5389 106.6 88.8115Z" fill="black"/>
<path d="M107.419 73.217C106.931 73.8678 106.425 74.6179 106.546 75.4241C106.611 75.8583 106.854 76.2417 107.032 76.6428C107.255 77.1947 107.42 77.7684 107.525 78.3545C107.708 79.2065 107.892 80.061 108.004 80.9257C108.131 81.9026 107.533 84.7285 107.477 85.713C107.463 85.9499 107.436 86.2071 107.27 86.3778C107.205 86.4453 107.119 86.5051 107.091 86.5879C107.073 86.6722 107.086 86.76 107.129 86.835C107.405 87.4577 107.969 87.92 108.596 88.1849C109.223 88.4498 110.747 88.9045 111.427 88.9287C111.517 88.9396 111.609 88.9273 111.693 88.893C111.785 88.8381 111.857 88.7557 111.9 88.6574C112.391 87.7188 111.919 84.377 111.926 83.3162C111.926 82.4247 112.142 81.5536 112.103 80.6698C112.071 79.9604 111.882 79.2689 111.813 78.5608C111.7 77.4006 111.912 76.2366 112.126 75.0904C112.289 74.2129 112.452 73.3342 112.661 72.4656C112.788 71.9371 112.936 71.4022 113.228 70.9374C113.458 70.5719 113.772 70.2675 114.035 69.9186C114.766 68.9608 115.09 67.754 114.938 66.559C114.923 66.4418 113.242 66.9856 113.095 67.0493C112.492 67.3058 111.937 67.6633 111.454 68.1063C111.072 68.4756 110.76 68.971 110.418 69.3862C109.937 69.972 109.462 70.5625 108.993 71.1577C108.461 71.8412 107.936 72.5276 107.419 73.217Z" fill="#464353"/>
<path opacity="0.05" d="M107.419 73.175C106.931 73.8258 106.425 74.5759 106.546 75.3833C106.611 75.8163 106.854 76.1997 107.032 76.6008C107.255 77.1528 107.42 77.7264 107.525 78.3125C107.708 79.1645 107.892 80.019 108.004 80.8838C108.131 81.8606 107.533 84.6878 107.477 85.6723C107.463 85.9079 107.436 86.1664 107.27 86.3358C107.205 86.4033 107.119 86.4631 107.091 86.5459C107.071 86.6326 107.085 86.7234 107.129 86.8006C107.405 87.4221 107.969 87.8857 108.596 88.1493C109.223 88.4129 110.747 88.6587 111.427 88.6804C111.517 88.6912 111.609 88.679 111.693 88.6447C111.785 88.5898 111.857 88.5073 111.9 88.4091C112.391 87.4705 111.919 84.3414 111.926 83.2818C111.926 82.3903 112.142 81.518 112.103 80.6341C112.071 79.9248 111.882 79.2332 111.813 78.5252C111.7 77.365 111.912 76.201 112.126 75.056C112.289 74.1773 112.452 73.2986 112.661 72.43C112.788 71.9015 112.936 71.3666 113.228 70.9018C113.458 70.5375 113.772 70.2319 114.035 69.8906C114.765 68.9324 115.089 67.7259 114.938 66.531C114.923 66.4125 113.242 66.9563 113.095 67.0213C112.492 67.278 111.936 67.6364 111.454 68.0809C111.072 68.4515 110.76 68.9456 110.418 69.3544C109.937 69.9402 109.462 70.5312 108.993 71.1272C108.461 71.8064 107.936 72.489 107.419 73.175Z" fill="black"/>
<path d="M101.983 58.8885C103.497 58.8885 104.724 57.6609 104.724 56.1466C104.724 54.6323 103.497 53.4047 101.983 53.4047C100.468 53.4047 99.2406 54.6323 99.2406 56.1466C99.2406 57.6609 100.468 58.8885 101.983 58.8885Z" fill="#FBBEBE"/>
<path d="M104.451 56.032C104.704 56.4363 105.036 56.7857 105.427 57.0591C105.818 57.3326 106.26 57.5247 106.726 57.6239L106.52 58.3715C106.163 59.6616 105.756 61.0255 104.766 61.9196C104.875 61.4827 104.735 61.0128 104.487 60.6371C104.223 60.2716 103.91 59.9442 103.557 59.6641L101.979 58.2912C101.932 58.2565 101.891 58.2133 101.86 58.1639C101.822 58.0673 101.822 57.9599 101.86 57.8633C102.061 57.238 102.636 56.8445 103.101 56.4242C103.334 56.2052 103.544 55.9614 103.725 55.697C104.048 55.2475 104.243 55.697 104.451 56.032Z" fill="#FBBEBE"/>
<path d="M98.3695 53.3907L98.3084 52.8813C98.7414 52.9933 99.1515 52.6265 99.4278 52.2445C99.7042 51.8624 99.9614 51.4141 100.383 51.2562C100.892 51.0626 101.437 51.3721 101.926 51.6268C102.475 51.9319 103.077 52.1287 103.699 52.2063C103.799 52.2096 103.897 52.2259 103.992 52.2547C104.311 52.368 104.462 52.7641 104.508 53.1296C104.554 53.4951 104.541 53.8772 104.699 54.2007C104.817 54.4452 105.022 54.6273 105.147 54.868C105.482 55.5175 105.159 56.4039 105.513 57.0407L104.634 56.2345C104.553 56.1606 104.439 56.0842 104.351 56.1466C104.263 56.209 104.276 56.3033 104.247 56.3886C104.162 56.6433 103.85 56.7146 103.622 56.6166C103.394 56.5185 103.229 56.302 103.062 56.1071C102.674 55.6487 102.212 55.2462 101.662 55.0501C101.424 54.9588 101.169 54.9194 100.914 54.9346C100.66 54.9497 100.411 55.0191 100.186 55.138C99.7755 55.3698 99.4749 55.9097 98.9732 55.9289C98.2842 55.9543 97.9976 54.6719 97.678 54.165C97.7944 54.0769 97.8762 53.9508 97.9092 53.8087C97.9423 53.6665 97.9244 53.5172 97.8588 53.3869C97.9149 53.3652 98.3606 53.3079 98.3695 53.3907Z" fill="#464353"/>
<path d="M109.798 88.7898C109.256 89.273 108.553 89.5353 107.827 89.5247C107.642 89.5247 107.386 89.5603 107.385 89.745C107.388 89.7999 107.407 89.8528 107.438 89.8978C107.668 90.2798 108.031 90.5637 108.457 90.695C108.852 90.8147 109.275 90.7944 109.687 90.774L110.891 90.7116C111.118 90.6989 111.346 90.6874 111.572 90.6594C111.799 90.6314 112.043 90.5842 112.28 90.5498C112.861 90.4669 113.447 90.4392 114.033 90.4671C114.188 90.4734 114.368 90.4671 114.464 90.3499C114.561 90.2327 114.509 90.0213 114.473 89.852C114.402 89.503 114.473 89.1375 114.407 88.7873C114.291 88.1722 113.763 87.7022 113.179 87.4793C112.638 87.273 111.678 87.0374 111.165 87.38C110.615 87.7493 110.283 88.3504 109.798 88.7898Z" fill="#3F3D56"/>
<path d="M110.99 68.2083C111.097 68.7177 111.585 69.0998 111.6 69.6092C111.612 70.0218 111.316 70.3733 111.105 70.7236C110.903 71.0905 110.732 71.4739 110.595 71.8697C110.193 72.8971 109.695 73.8843 109.108 74.818C108.825 75.265 108.509 75.7515 108.574 76.2775C108.619 76.5229 108.705 76.759 108.829 76.9754L109.676 78.6577C109.862 78.9937 110.007 79.3507 110.109 79.7211C110.181 80.0408 110.189 80.3719 110.236 80.6979C110.37 81.7295 110.854 82.7687 110.569 83.7684C110.543 83.855 110.454 83.9595 110.387 83.8958C110.665 84.4179 110.896 84.9452 110.869 85.5374C110.858 85.8481 110.762 86.1742 110.878 86.462C110.944 86.574 110.987 86.6977 111.005 86.8262C111.005 86.9103 110.966 86.9905 110.957 87.0809C110.934 87.3191 111.152 87.5177 111.38 87.5903C111.608 87.6629 111.854 87.6604 112.083 87.7292C112.525 87.8565 112.838 88.2386 113.216 88.5035C113.599 88.7691 114.052 88.9165 114.518 88.9276C114.584 88.9346 114.651 88.9213 114.709 88.8893C114.742 88.8603 114.769 88.8246 114.788 88.7844C114.806 88.7442 114.816 88.7005 114.816 88.6563C114.836 88.4454 114.804 88.2327 114.723 88.0371C114.642 87.8414 114.514 87.6687 114.35 87.5343C114.279 87.4889 114.22 87.4268 114.178 87.3535C114.156 87.2882 114.151 87.2188 114.161 87.151C114.23 86.2251 114.213 85.2949 114.112 84.3721C114.066 84.0799 114.051 83.7836 114.067 83.4883C114.093 83.2425 114.166 82.9979 114.138 82.7522C114.11 82.5064 113.987 82.2848 113.913 82.0479C113.786 81.6276 113.819 81.1768 113.805 80.7361C113.782 79.972 113.607 79.2232 113.433 78.4794C113.365 78.1878 113.289 77.8809 113.081 77.6644C112.906 77.481 112.622 77.3039 112.688 77.0594C112.724 76.9689 112.779 76.8869 112.848 76.8187C112.93 76.716 112.991 76.5977 113.026 76.4709C113.06 76.3441 113.069 76.2116 113.051 76.0813C113.125 76.1012 113.204 76.0942 113.274 76.0616C113.344 76.029 113.4 75.9729 113.433 75.903C114.81 75.2548 115.923 73.9558 116.413 72.5142C116.44 72.4079 116.483 72.3062 116.54 72.2123C116.668 72.034 116.889 71.9576 117.085 71.8583C117.702 71.5488 118.128 70.9668 118.519 70.3975C118.747 70.0664 118.974 69.7251 119.072 69.3367C119.126 69.0856 119.151 68.8293 119.148 68.5725L119.183 67.2455C119.19 67.1598 119.181 67.0735 119.157 66.9908C119.125 66.9116 119.076 66.84 119.015 66.7807C118.641 66.383 118.15 66.1152 117.614 66.0166C117.252 65.9516 116.883 65.9643 116.517 65.9338C115.808 65.8752 115.108 65.6561 114.398 65.7071C113.283 65.7886 112.29 66.5616 111.764 67.5486C111.58 67.9014 111.386 68.2083 110.99 68.2083Z" fill="#464353"/>
<path d="M104.801 59.5787C104.817 59.7833 104.79 59.989 104.721 60.1824C104.634 60.3683 104.415 60.5122 104.225 60.4371C104.282 60.3097 104.13 60.1582 103.988 60.1747C103.918 60.1903 103.853 60.2227 103.799 60.269C103.744 60.3154 103.702 60.3744 103.675 60.4409C103.58 60.6301 103.548 60.8449 103.585 61.0535C103.629 61.3082 103.779 61.5629 103.74 61.8176C103.708 62.0341 103.549 62.2506 103.634 62.4544C103.689 62.5459 103.758 62.6284 103.838 62.6989C103.95 62.8361 104.005 63.0112 103.991 63.1878C103.978 63.3644 103.897 63.529 103.765 63.6477L105.902 63.6897C105.825 64.0476 105.984 64.4131 106.167 64.7302C106.68 65.6018 107.388 66.3427 108.236 66.8951C109.083 67.4475 110.047 67.7962 111.051 67.914C110.997 67.946 110.951 67.9897 110.915 68.0418C110.88 68.0939 110.857 68.1531 110.847 68.2154C110.837 68.2776 110.841 68.3412 110.859 68.4016C110.877 68.462 110.908 68.5177 110.949 68.5648C111.123 68.7367 111.417 68.7151 111.635 68.603C111.852 68.4909 112.024 68.3063 112.223 68.1636C112.573 67.9139 113.002 67.7982 113.43 67.8376C113.698 67.8631 113.958 67.9497 114.226 67.965C115.018 68.007 115.698 67.4377 116.456 67.2008C117.011 67.0302 117.639 67.0302 118.112 66.6838C118.313 66.5348 118.477 66.2903 118.419 66.047C118.369 65.9074 118.291 65.7798 118.188 65.6726C117.92 65.3262 117.762 64.9085 117.571 64.5149C117.19 63.735 116.666 63.0334 116.026 62.4467C115.544 62.0243 115.033 61.6358 114.498 61.284C114.367 61.1867 114.228 61.1014 114.082 61.0293C113.888 60.9659 113.698 60.8889 113.514 60.7988C113.26 60.6408 113.118 60.3619 112.926 60.1365C112.502 59.6424 111.851 59.4144 111.329 59.026C110.979 58.7713 110.671 58.4223 110.252 58.2963C110.049 58.2351 109.833 58.23 109.629 58.1689C109.168 58.0288 108.832 57.6187 108.378 57.4532C108.019 57.3258 107.624 57.3564 107.245 57.3093C106.827 57.2575 106.428 57.1059 106.082 56.8673C105.967 56.7746 105.838 56.7007 105.7 56.6483C105.128 56.4738 105.081 57.5398 105.027 57.9104C104.942 58.4771 104.801 59.0222 104.801 59.5787Z" fill="#0098AC"/>
<path d="M105.359 63.1574C105.454 64.1979 104.668 65.2065 104.898 66.2266C104.946 66.4444 105.04 66.6507 105.075 66.8634C105.17 67.4683 104.808 68.0414 104.463 68.547L101.505 72.8898C101.386 73.0808 101.244 73.2562 101.082 73.412C100.515 73.9214 99.6672 73.8628 98.9247 74.0131C98.4028 74.1192 97.9098 74.3363 97.4792 74.6498C97.4605 74.6647 97.4481 74.6861 97.4445 74.7097C97.441 74.7334 97.4466 74.7575 97.4601 74.7772C97.5823 74.9454 97.7447 75.0801 97.9325 75.1691C98.1203 75.2582 98.3275 75.2985 98.535 75.2866C98.6127 75.3898 98.535 75.5413 98.428 75.6126C98.2688 75.7234 98.0459 75.7527 98.0192 76.0227C98.008 76.1165 98.0267 76.2114 98.0727 76.294C98.1928 76.4759 98.3785 76.6046 98.591 76.6531C99.6098 76.9664 100.722 76.4162 101.488 75.6674C102.255 74.9186 102.805 73.9736 103.559 73.2107C103.976 72.7892 104.451 72.4275 104.877 72.0187C105.734 71.2036 106.399 70.2115 107.042 69.2169C107.252 68.9283 107.411 68.6056 107.511 68.263C107.59 67.9243 107.554 67.5664 107.646 67.2302C107.766 66.7908 108.088 66.4393 108.355 66.0713C108.881 65.3479 109.231 64.4641 109.161 63.5726C109.091 62.6811 108.541 61.8036 107.701 61.5005C107.44 61.3961 107.153 61.3787 106.882 61.4509C106.538 61.5566 106.283 61.8418 106.048 62.1144L105.486 62.7626C105.346 62.9058 105.235 63.075 105.16 63.2606C105.124 63.3537 105.115 63.4554 105.135 63.5533C105.156 63.6512 105.204 63.7411 105.275 63.812" fill="#FBBEBE"/>
<path d="M106.856 58.882C106.467 58.905 106.039 58.9432 105.764 59.2208C105.649 59.3483 105.556 59.4937 105.489 59.6513C105.222 60.1951 104.963 60.7631 104.943 61.368C104.927 61.8519 105.071 62.3244 105.141 62.8033C105.202 63.2006 105.047 63.6056 105.013 64.0081C105.496 63.8603 106.133 63.6591 106.571 63.4095C106.858 63.2217 107.163 63.063 107.482 62.9357C107.946 62.7816 108.727 63.0465 109.165 63.2643C109.189 62.9536 108.958 62.4148 108.982 62.1041C108.986 61.974 109.009 61.8453 109.051 61.722C109.117 61.5915 109.195 61.4674 109.284 61.3514C109.453 61.0781 109.53 60.7582 109.506 60.4378C109.481 60.1174 109.356 59.813 109.147 59.5685C108.756 59.1278 108.143 58.9623 107.558 58.8948C107.19 58.8517 106.818 58.8385 106.448 58.8553" fill="#0098AC"/>
<path d="M49.1586 49.9724L46.6472 46.3301C46.6472 46.3301 46.6001 45.4284 46.4358 45.2183C46.2715 45.0081 46.4001 44.5395 46.4001 44.5395C46.4001 44.5395 46.5771 44.2848 46.4243 44.258C46.2715 44.2313 46.4001 43.6607 46.4001 43.6607L46.3887 42.7476C46.3887 42.7476 46.53 41.8689 46.4128 41.6587C46.3782 41.6017 46.3609 41.5359 46.3629 41.4692C46.365 41.4025 46.3863 41.3378 46.4243 41.283C46.4243 41.283 46.5644 40.78 46.4243 40.6463C46.2842 40.5125 46.3186 39.7331 46.353 39.1116C46.3874 38.4902 46.1072 38.1399 46.1072 38.047C46.1072 37.954 45.1801 37.0396 45.1801 36.9568C45.1801 36.874 44.593 36.5353 44.2402 36.4474C43.8874 36.3595 43.7129 36.2831 43.7244 36.236C43.7359 36.1889 43.173 36.0029 43.173 36.0029C43.173 36.0029 42.6801 35.9673 42.4916 35.7215C42.3031 35.4757 41.7275 35.4044 41.7135 35.4018L41.702 35.3534C41.702 35.3356 41.6957 35.3178 41.6918 35.2999C41.7383 35.2259 41.7808 35.1493 41.8192 35.0707L41.8523 34.9994C42.0586 35.0007 42.2601 34.938 42.4292 34.8198C42.5125 34.7508 42.5805 34.6652 42.6289 34.5686C42.6774 34.4719 42.7052 34.3662 42.7107 34.2582C42.7207 34.0417 42.6733 33.8264 42.5731 33.6342C42.47 33.424 42.3184 33.205 42.3719 32.9757C42.3948 32.8777 42.4534 32.7911 42.484 32.6943C42.5296 32.5053 42.4994 32.306 42.3999 32.139C42.3108 31.9696 42.1872 31.8194 42.0879 31.6551C41.9619 31.4447 41.8776 31.2121 41.8396 30.9699C41.8325 30.8411 41.8018 30.7146 41.7491 30.5968C41.6959 30.5137 41.6255 30.443 41.5428 30.3892C41.1753 30.127 40.7319 29.9928 40.2808 30.0071C39.9611 30.0173 39.644 30.1039 39.3256 30.0644C39.1359 30.0318 38.9493 29.9832 38.7678 29.9192C38.3743 29.8021 37.9196 29.755 37.577 29.9804C37.2344 30.2058 37.0982 30.649 36.8651 30.9992C36.6601 31.3049 36.3557 31.5621 36.2029 31.8907C36.2029 31.8907 36.2029 31.8779 36.2029 31.8729C36.1644 31.9477 36.1349 32.0267 36.115 32.1085C36.0713 32.3679 36.0892 32.634 36.1672 32.8853C36.1845 33.0206 36.2523 33.1444 36.357 33.2317C36.4729 33.3069 36.6321 33.289 36.7671 33.3132L36.7518 33.3794C36.6143 34.0378 36.7294 34.7237 37.074 35.3012C37.4187 35.8787 37.9678 36.3055 38.6124 36.4971C38.6124 36.5213 38.6124 36.5442 38.6124 36.5684C38.6121 36.6357 38.6079 36.7028 38.5997 36.7696C38.5997 36.7696 37.4191 36.5264 37.102 36.6907C36.7849 36.8549 36.1634 36.9836 36.0692 37.0727C35.9749 37.1619 35.7406 37.0969 35.5292 37.6471C35.3178 38.1972 35.2949 38.7589 35.0198 39.0174C34.7447 39.2759 34.6097 39.4504 34.597 39.6376C34.5842 39.8248 34.6326 39.8719 34.5269 39.9305C34.4212 39.9891 34.2722 40.2349 34.3155 40.3292C34.3317 40.3936 34.3282 40.4614 34.3055 40.5238C34.2828 40.5862 34.2419 40.6404 34.1881 40.6794C34.1324 40.7185 34.088 40.7716 34.0591 40.8332C34.0303 40.8949 34.0182 40.963 34.0239 41.0309C34.0239 41.0309 33.9525 41.2856 33.7883 41.348C33.624 41.4104 33.5183 41.7924 33.5183 41.7924L32.9859 42.4037L31.9314 41.2372C31.8522 41.15 31.7417 41.0977 31.6241 41.0917C31.5064 41.0858 31.3912 41.1266 31.3036 41.2053L30.7852 41.6715C30.5855 41.72 30.4049 41.8273 30.2669 41.9797C30.1546 42.0962 30.0636 42.2315 29.9982 42.3795L29.7155 42.6343C29.6262 42.7449 29.5715 42.8795 29.5584 43.0211C29.5452 43.1627 29.5742 43.305 29.6416 43.4302L30.3179 44.1778V44.1842C30.0783 44.2052 29.8506 44.298 29.6645 44.4503C28.6559 45.3418 28.6457 46.1607 28.796 46.5351C28.9463 46.9095 30.2274 48.3499 30.2274 48.3499C30.2274 48.3499 30.9712 49.3165 32.0448 49.8298L32.0371 49.8387C32.015 49.8617 31.9942 49.8859 31.9747 49.9113L31.9569 49.9342L31.9403 49.9571L31.9212 49.9851C31.9161 49.9925 31.9114 50.0001 31.9072 50.008L31.8869 50.0412C31.8821 50.0485 31.8779 50.0562 31.8741 50.0641C31.8652 50.0794 31.8576 50.0946 31.8499 50.1099C31.8471 50.1149 31.8446 50.12 31.8423 50.1252C31.8321 50.1456 31.8219 50.166 31.813 50.1889L31.8028 50.2118C31.7964 50.2271 31.7913 50.2424 31.785 50.2589C31.781 50.2689 31.7776 50.2791 31.7748 50.2895L31.7595 50.3353C31.7554 50.3461 31.752 50.3572 31.7493 50.3685C31.7493 50.385 31.7391 50.4016 31.7353 50.4194C31.7315 50.4372 31.7289 50.4398 31.7264 50.4512C31.7238 50.4627 31.7137 50.506 31.7086 50.5353C31.7086 50.5455 31.7086 50.5569 31.7022 50.5684C31.6958 50.5799 31.6958 50.6079 31.692 50.6283C31.6882 50.6486 31.692 50.6563 31.692 50.6716L31.6844 50.7289V50.7747C31.6844 50.7964 31.6844 50.818 31.678 50.8409C31.6716 50.8639 31.678 50.8677 31.678 50.8817C31.678 50.9186 31.678 50.9556 31.678 50.995C31.6551 52.3654 31.7353 52.564 31.7353 52.564C31.7877 52.6906 31.8731 52.8008 31.9827 52.883C32.0923 52.9652 32.2219 53.0165 32.3581 53.0314C32.4249 53.0367 32.4921 53.0332 32.558 53.0212C33.1693 52.9155 34.5957 52.6697 35.1051 52.7665C35.4095 52.8226 35.9711 52.7385 36.371 52.6634L36.4767 52.643L36.5493 52.8761L36.7811 52.8124L36.9785 52.9257L37.1058 52.9983C37.3376 53.7828 38.2775 53.5154 38.2775 53.5154L38.5003 53.6427L40.766 53.7013C41.0203 53.8546 41.289 53.9825 41.5683 54.0834C41.6052 54.0954 41.6432 54.1039 41.6817 54.1088C41.8935 54.1261 42.1061 54.1299 42.3184 54.1203C42.4916 54.1203 42.6253 54.1088 42.6253 54.1088C42.6253 54.1088 42.6024 53.4937 42.5693 52.8047C43.2716 52.7874 43.9723 52.73 44.6681 52.6328C45.878 52.4214 46.3823 51.3211 46.5682 50.7327C46.6239 50.973 46.6634 51.2168 46.6867 51.4624C46.7361 51.6784 46.7991 51.8911 46.8751 52.0992C46.94 52.2655 47.0256 52.423 47.1299 52.5679C48.0213 52.2635 47.4813 51.8037 47.2941 51.6076C47.1069 51.4115 47.4215 51.2446 47.4215 51.2446C47.4215 51.2446 47.6686 51.0804 47.6444 50.9288C47.6202 50.7773 47.6087 50.613 48.4085 50.6244C49.2083 50.6359 49.1586 49.9724 49.1586 49.9724ZM36.7645 42.4954C36.7747 42.5617 36.8919 43.2838 36.9861 43.4735C37.0142 43.5988 37.0233 43.7276 37.0129 43.8556C36.5404 43.8174 36.0475 43.797 36.0475 43.797C36.0614 43.8142 36.0702 43.8349 36.073 43.8569L35.9978 43.8403L35.8909 43.8148L36.762 42.4891L36.7645 42.4954ZM35.0376 45.2412L35.8565 45.3685L35.9253 45.3787C35.9021 45.5049 35.8881 45.6326 35.8832 45.7608C35.8832 45.7735 35.9011 45.7875 35.9278 45.8041C35.9164 45.8684 35.9113 45.9337 35.9125 45.9989C35.9253 46.0626 36.3073 46.2027 36.7467 46.3186C36.7403 46.3428 36.7352 46.3657 36.7289 46.3861C36.3404 46.1823 35.7304 46.0868 35.6604 45.9353C35.5903 45.7837 33.5119 45.0578 33.5119 45.0578L33.3056 44.9546L33.8519 45.0578L34.0022 45.0425C34.3427 45.1311 34.6885 45.1975 35.0376 45.2412Z" fill="url(#paint0_linear_4_1249)"/>
<path d="M46.4867 50.4819C46.4867 50.4819 46.162 52.4482 44.5102 52.7386C42.8584 53.029 37.344 52.9717 37.344 52.9717C37.344 52.9717 34.1907 52.517 33.0509 49.854C31.9111 47.1911 31.1775 46.1302 32.1594 46.0843C33.1413 46.0385 38.4074 47.8673 38.7092 47.8877C39.0111 47.9081 46.7784 43.8391 46.4867 50.4819Z" fill="#65617D"/>
<path opacity="0.05" d="M46.4867 50.4819C46.4867 50.4819 46.162 52.4482 44.5102 52.7386C42.8584 53.029 37.344 52.9717 37.344 52.9717C37.344 52.9717 34.1907 52.517 33.0509 49.854C31.9111 47.1911 31.1775 46.1302 32.1594 46.0843C33.1413 46.0385 38.4074 47.8673 38.7092 47.8877C39.0111 47.9081 46.7784 43.8391 46.4867 50.4819Z" fill="black"/>
<path d="M31.6997 52.6711C31.7509 52.797 31.8352 52.9067 31.9438 52.9886C32.0523 53.0704 32.1809 53.1213 32.3161 53.1359C32.383 53.1401 32.4501 53.1362 32.516 53.1245C33.121 53.0201 34.5397 52.7755 35.0402 52.8698C35.3408 52.9245 35.8973 52.8418 36.2934 52.7679C36.557 52.7182 36.7506 52.6711 36.7506 52.6711C36.7506 52.6711 36.2844 51.1238 36.2271 51.0779C36.1698 51.0321 34.1322 49.8044 34.1322 49.8044L32.5199 49.6885C32.3028 49.7209 32.1066 49.8359 31.9722 50.0094C31.8029 50.2157 31.6564 50.5532 31.6462 51.1072C31.6195 52.4712 31.6997 52.6711 31.6997 52.6711Z" fill="#3F3D56"/>
<path opacity="0.05" d="M31.6997 52.671C31.7509 52.7969 31.8352 52.9066 31.9437 52.9885C32.0523 53.0703 32.1809 53.1212 32.3161 53.1358C32.1582 52.932 32.0119 52.7194 31.878 52.4991L31.8869 51.3707C31.8549 51.0613 31.8958 50.7486 32.0063 50.4577C32.1169 50.1669 32.2941 49.9061 32.5237 49.696C32.5237 49.696 31.6742 49.7534 31.65 51.1148C31.6258 52.4762 31.6997 52.671 31.6997 52.671Z" fill="black"/>
<path opacity="0.1" d="M38.6927 50.2029L40.1942 49.0274L42.5554 46.7007L41.9186 46.6714C41.8231 46.7325 41.5556 46.9261 41.5454 47.1579C41.534 47.4419 40.9087 47.1783 40.5814 47.34C40.2541 47.5017 38.6621 49.5432 38.3832 49.5292C38.1043 49.5152 37.8827 49.3878 37.7656 49.5865L37.7579 49.5993L38.6927 50.2029Z" fill="black"/>
<path opacity="0.1" d="M31.9684 50.0118C32.0219 50.0373 32.0766 50.0628 32.1314 50.0857C33.2712 50.5747 34.6785 51.5987 34.7842 51.7846C34.8479 51.898 35.6642 52.3934 36.2933 52.7652C36.5569 52.7156 36.7505 52.6684 36.7505 52.6684C36.7505 52.6684 36.2844 51.1211 36.2271 51.0752C36.1698 51.0294 34.1321 49.8017 34.1321 49.8017L32.5198 49.6858C32.3006 49.7186 32.1028 49.8355 31.9684 50.0118Z" fill="black"/>
<path d="M28.8049 46.6777C28.9552 47.0496 30.2237 48.4811 30.2237 48.4811C30.2237 48.4811 31.026 49.5279 32.1671 50.0093C33.3082 50.4907 34.7142 51.5223 34.8186 51.7082C34.8861 51.8279 35.7954 52.3755 36.4347 52.7512L36.5786 52.8353L36.8958 53.02L37.0639 53.1155C37.0639 53.1155 37.4536 52.8035 37.842 52.4889C38.2304 52.1743 38.6061 51.8661 38.6061 51.8521C38.6061 51.8381 38.7691 51.4217 38.7335 51.3987C38.6978 51.3758 38.6354 51.2255 38.4877 51.0383C38.3318 50.8307 38.1288 50.6631 37.8955 50.5493C37.5579 50.3758 37.2887 50.0936 37.1314 49.7482C37.1314 49.7482 37.0804 49.7113 37.004 49.6616C36.8456 49.5528 36.6687 49.4738 36.4819 49.4286C36.2271 49.3967 35.7483 48.8733 35.7483 48.8733C35.5621 48.7521 35.4068 48.589 35.2949 48.397C35.1676 48.1423 33.368 46.9019 33.2012 46.7872L37.5746 49.5967L38.6214 50.2691L40.1229 49.0949L42.4841 46.7681L41.7047 46.7325C40.5585 46.6828 38.5208 46.6051 38.2661 46.6637C38.0575 46.7117 37.8425 46.7259 37.6293 46.7057C37.6293 46.7057 37.0486 46.7312 36.664 46.5287C36.2794 46.3262 35.6744 46.2307 35.6044 46.0804C35.5343 45.9302 33.4763 45.2093 33.4763 45.2093C33.4763 45.2093 30.6745 43.7206 29.6722 44.6044C28.67 45.4882 28.6534 46.3033 28.8049 46.6777Z" fill="#65617D"/>
<path d="M37.8432 38.1388L38.2036 39.3371L38.6697 42.0358L40.3801 42.1517L40.8691 41.3366L41.3632 40.5164C41.3632 40.5164 41.6714 39.4263 41.893 38.3718C42.0879 37.4383 42.2165 36.5315 42.0038 36.4335C41.8141 36.3469 41.6905 36.0323 41.609 35.6936C41.5989 35.6528 41.5899 35.6095 41.5823 35.5662C41.5253 35.2799 41.487 34.9902 41.4677 34.6989C41.4677 34.6989 37.8852 34.513 38.3857 35.9903C38.475 36.2427 38.5207 36.5084 38.5207 36.7761C38.5207 36.8448 38.5207 36.9123 38.508 36.976C38.4831 37.2051 38.4113 37.4267 38.2969 37.6267C38.1825 37.8268 38.0281 38.0011 37.8432 38.1388Z" fill="#EE8E9E"/>
<path d="M37.0995 37.9413L37.2268 39.979L37.5172 41.7123L37.8432 42.5159L38.1349 46.9071C38.1349 46.9071 40.9367 47.2318 41.6218 46.9007C41.6723 46.8813 41.7165 46.8483 41.7492 46.8052C42.5732 45.5609 42.3032 41.9568 42.3032 41.9568L42.6165 39.6301L42.4076 38.4227L41.8982 38.3693L41.5085 38.3272C41.5085 38.3272 41.4206 38.4355 41.2933 38.6036C40.9481 39.0582 40.3139 39.9548 40.3572 40.328C40.4145 40.8374 40.2872 41.3633 40.0885 41.4449C39.8898 41.5264 39.7281 41.6664 39.6937 41.5264C39.6442 41.4089 39.6317 41.2792 39.658 41.1545C39.6937 40.9558 39.5065 40.3509 39.5065 40.3509C39.5065 40.3509 39.1932 39.6415 39.2161 39.3397C39.239 39.0379 39.1817 38.6876 39.0888 38.6061C38.9958 38.5246 38.8672 38.4431 38.9716 38.0712C39.076 37.6994 38.5131 36.9747 38.5131 36.9747L37.0995 37.9413Z" fill="#E3E8F4"/>
<path opacity="0.1" d="M40.8042 43.0253L40.9214 46.5033L41.5925 46.8764C41.6429 46.8562 41.6869 46.8228 41.7199 46.7797C42.5438 45.5354 42.2739 41.9313 42.2739 41.9313L42.5884 39.6045L42.3783 38.3972L41.8689 38.3437C42.065 37.4102 42.1923 36.5047 41.9797 36.4054C41.7899 36.3188 41.6664 36.0042 41.5861 35.6667L41.2232 38.1272C41.2232 38.1272 41.2538 38.3488 41.2639 38.5781C41.279 38.723 41.2691 38.8695 41.2346 39.0111C41.1876 39.2015 41.1798 39.3995 41.2117 39.5931C41.0016 39.9624 40.8972 40.6476 40.8462 41.3085C40.7774 42.1873 40.8042 43.0253 40.8042 43.0253Z" fill="black"/>
<path d="M41.5964 35.6056C41.5964 35.6056 42.1835 35.6782 42.3694 35.9227C42.5553 36.1672 43.0444 36.2029 43.0444 36.2029C43.0444 36.2029 43.6022 36.3888 43.5907 36.4347C43.5793 36.4805 43.7537 36.5518 44.1001 36.6448C44.4465 36.7378 45.0311 37.0753 45.0311 37.1542C45.0311 37.2332 45.9493 38.1425 45.9493 38.2354C45.9493 38.3284 46.2282 38.6774 46.1938 39.2938C46.1594 39.9102 46.1238 40.6947 46.2639 40.822C46.404 40.9494 46.2639 41.4499 46.2639 41.4499C46.2262 41.5044 46.2051 41.5686 46.2031 41.6347C46.2011 41.7009 46.2182 41.7663 46.2524 41.823C46.3683 42.0319 46.2282 42.9042 46.2282 42.9042L46.2409 43.8123C46.2409 43.8123 46.1136 44.3816 46.2639 44.4057C46.4141 44.4299 46.2409 44.6847 46.2409 44.6847C46.2409 44.6847 46.1136 45.1495 46.2753 45.3596C46.4371 45.5698 46.4842 46.4638 46.4842 46.4638L48.974 50.0819C48.974 50.0819 49.0096 50.7454 48.2188 50.734C47.4279 50.7225 47.4381 50.8855 47.4623 51.0358C47.4865 51.1861 47.2407 51.3504 47.2407 51.3504C47.2407 51.3504 46.9274 51.5134 47.1133 51.7108C47.2993 51.9082 47.8341 52.3628 46.9503 52.6647C46.8462 52.521 46.7606 52.3649 46.6956 52.1998C46.6207 51.9946 46.5586 51.7849 46.5097 51.572C46.5097 51.572 46.4282 50.6868 46.2651 50.571C46.1021 50.4551 46.1251 49.896 46.1251 49.896C46.1251 49.896 46.3581 49.4426 46.0321 49.2592C45.7061 49.0758 40.9838 46.4574 40.9838 46.4574L40.8692 42.9781C40.8692 42.9781 40.7877 40.4068 41.2767 39.5459C41.2448 39.3524 41.2526 39.1544 41.2996 38.9639C41.3811 38.7551 41.2882 38.0801 41.2882 38.0801L41.5964 35.6056Z" fill="#3F3D56"/>
<path opacity="0.1" d="M38.5474 37.0065C38.5474 37.0065 37.3783 36.7658 37.0638 36.9288C36.7492 37.0918 36.1341 37.2192 36.0449 37.3109C35.9558 37.4026 35.7202 37.3351 35.51 37.8814C35.2999 38.4278 35.2783 38.9869 35.0095 39.2428C34.7408 39.4988 34.6033 39.6733 34.5918 39.8592C34.5804 40.0452 34.6262 40.0923 34.5218 40.1496C34.4173 40.2069 34.2671 40.4527 34.3116 40.5457C34.3562 40.6386 36.7314 42.6865 36.7314 42.6865C36.7314 42.6865 36.8485 43.4659 36.953 43.6633C37.0574 43.8607 36.8371 46.5835 36.604 46.7695C36.371 46.9554 38.1692 46.9401 38.1692 46.9401C38.1692 46.9401 38.2507 45.1572 38.3207 45.0604C38.3908 44.9636 38.2736 43.0596 38.2736 43.0596C38.2736 43.0596 38.2622 41.4308 38.4137 41.0003C38.5653 40.5699 38.5411 39.1384 38.5411 39.1384C38.5411 39.1384 38.6748 38.2801 38.8378 38.0801C39.0008 37.8802 38.5474 37.0065 38.5474 37.0065Z" fill="black"/>
<path d="M38.5131 36.9721C38.5131 36.9721 37.344 36.7314 37.0294 36.8932C36.7149 37.0549 36.0985 37.1848 36.0106 37.2752C35.9227 37.3657 35.6846 37.2982 35.4757 37.8458C35.2669 38.3934 35.2427 38.9499 34.9752 39.2059C34.7078 39.4619 34.5677 39.6364 34.5562 39.8223C34.5448 40.0083 34.5919 40.0554 34.4862 40.114C34.3805 40.1725 34.2315 40.4158 34.2773 40.5088C34.3232 40.6017 36.697 42.6496 36.697 42.6496C36.697 42.6496 36.8129 43.429 36.9186 43.6264C37.0243 43.8238 36.8015 46.5466 36.5684 46.7325C36.3354 46.9185 38.14 46.9019 38.14 46.9019C38.14 46.9019 38.2215 45.119 38.2902 45.0235C38.359 44.9279 38.2444 43.0215 38.2444 43.0215C38.2444 43.0215 38.2329 41.3939 38.3845 40.9634C38.536 40.533 38.5182 39.1015 38.5182 39.1015C38.5182 39.1015 38.6519 38.2431 38.8149 38.0432C38.9779 37.8432 38.5131 36.9721 38.5131 36.9721Z" fill="#3F3D56"/>
<path opacity="0.1" d="M38.3908 35.9877C38.4801 36.2401 38.5258 36.5058 38.5258 36.7735C39.0973 36.9409 39.7082 36.9128 40.2619 36.6936C40.8156 36.4745 41.2802 36.0768 41.5823 35.5637C41.5253 35.2774 41.487 34.9876 41.4677 34.6964C41.4677 34.6964 37.8904 34.5092 38.3908 35.9877Z" fill="black"/>
<path d="M36.6219 34.1487C36.6214 34.8315 36.883 35.4885 37.3527 35.9841C37.8224 36.4797 38.4643 36.7761 39.1462 36.8123C39.828 36.8485 40.4977 36.6216 41.0172 36.1785C41.5367 35.7354 41.8663 35.1098 41.9381 34.4308C42.0099 33.7518 41.8184 33.0711 41.4031 32.5292C40.9878 31.9872 40.3803 31.6253 39.706 31.5181C39.0317 31.4108 38.3419 31.5665 37.779 31.9529C37.216 32.3393 36.8228 32.927 36.6805 33.5947C36.6414 33.7768 36.6218 33.9625 36.6219 34.1487Z" fill="#EE8E9E"/>
<path d="M34.9115 40.3177L34.2748 40.5151C34.291 40.5794 34.2876 40.647 34.2649 40.7093C34.2422 40.7715 34.2012 40.8255 34.1474 40.8641C34.092 40.9028 34.0478 40.9554 34.0194 41.0167C33.991 41.078 33.9794 41.1458 33.9857 41.213C33.9857 41.213 33.9156 41.4678 33.7526 41.5276C33.5896 41.5875 33.4852 41.9695 33.4852 41.9695L32.9503 42.5859C32.9503 42.5859 32.7516 42.7489 32.7873 42.8304C32.8229 42.9119 32.5771 42.9349 32.5771 42.9349L32.7045 45.0056L33.8099 45.2158L34.4964 45.1457L35.0542 44.9369L35.5432 44.6452L35.7635 44.076L36.7416 42.5859L34.9115 40.3177Z" fill="#3F3D56"/>
<path d="M32.7363 43.0941C32.7363 43.0941 31.3176 41.0475 30.258 42.1517C29.1984 43.2558 30.6885 45.049 31.0374 44.9904C31.3864 44.9318 33.0509 44.8388 33.0509 44.8388L32.7363 43.0941Z" fill="#EE8E9E"/>
<path d="M36.0786 42.2091L29.8115 39.0103C29.715 38.9611 29.5969 38.9994 29.5476 39.0958L27.1038 43.8838C27.0546 43.9803 27.0928 44.0984 27.1893 44.1477L33.4565 47.3465C33.553 47.3957 33.6711 47.3574 33.7203 47.2609L36.1642 42.4729C36.2134 42.3765 36.1751 42.2583 36.0786 42.2091Z" fill="#3F3D56"/>
<path d="M35.4958 42.4935L29.9341 39.6548L27.7949 43.8461L33.3565 46.6848L35.4958 42.4935Z" fill="#0098AC"/>
<path d="M28.6508 41.7415C28.7071 41.7415 28.7527 41.6959 28.7527 41.6396C28.7527 41.5833 28.7071 41.5377 28.6508 41.5377C28.5946 41.5377 28.549 41.5833 28.549 41.6396C28.549 41.6959 28.5946 41.7415 28.6508 41.7415Z" fill="#E6E8EC"/>
<path d="M34.6708 44.8936C34.7643 44.8936 34.8402 44.8177 34.8402 44.7242C34.8402 44.6306 34.7643 44.5548 34.6708 44.5548C34.5772 44.5548 34.5014 44.6306 34.5014 44.7242C34.5014 44.8177 34.5772 44.8936 34.6708 44.8936Z" fill="#E6E8EC"/>
<path d="M31.8181 43.5245C31.8054 45.0603 34.9816 45.3864 34.9816 45.3864L35.7928 45.5137L36.157 45.571L36.3086 44.0708C36.3086 44.0708 36.1418 44.0453 35.9342 43.9969C35.626 43.9256 35.2274 43.8021 35.1446 43.6276C35.0109 43.3385 31.827 41.9886 31.8181 43.5245Z" fill="#EE8E9E"/>
<path opacity="0.1" d="M36.6804 33.5947C36.7534 33.6001 36.8223 33.6307 36.8753 33.6813C36.9644 33.7768 36.9695 33.9462 37.0867 34.0047C37.1305 34.0232 37.1787 34.0285 37.2255 34.02C37.535 33.9767 37.7133 33.6278 38.0113 33.531C38.1845 33.4865 38.3678 33.5022 38.5309 33.5756C38.5972 33.597 38.6568 33.6352 38.7041 33.6864C38.8034 33.8137 38.7334 34.0047 38.7792 34.1601C38.8429 34.3766 39.1014 34.4619 39.3243 34.49C39.5472 34.518 39.7993 34.5345 39.9483 34.7026C39.9977 34.7657 40.033 34.8385 40.0521 34.9162C40.0712 34.9939 40.0736 35.0748 40.0591 35.1535C40.0458 35.2083 40.0458 35.2655 40.0591 35.3203C40.1203 35.4948 40.4221 35.468 40.5011 35.3305C40.5596 35.2299 40.5418 35.1471 40.6781 35.1191C40.7754 35.1113 40.8731 35.1284 40.9621 35.1688C41.1992 35.2501 41.4489 35.2885 41.6995 35.2821C41.8589 34.9422 41.9446 34.5724 41.9511 34.197C41.9575 33.8216 41.8846 33.4491 41.737 33.1038C41.5894 32.7586 41.3705 32.4484 41.0947 32.1937C40.8189 31.939 40.4923 31.7455 40.1364 31.6258C39.7806 31.5061 39.4034 31.463 39.0297 31.4993C38.656 31.5356 38.2942 31.6504 37.968 31.8363C37.6418 32.0222 37.3586 32.275 37.1369 32.578C36.9152 32.881 36.7601 33.2275 36.6817 33.5947H36.6804Z" fill="black"/>
<path d="M40.0579 35.2504C40.0445 35.1955 40.0445 35.1383 40.0579 35.0835C40.0724 35.005 40.0701 34.9243 40.051 34.8468C40.0319 34.7693 39.9964 34.6967 39.9471 34.634C39.7981 34.4646 39.5472 34.4493 39.323 34.42C39.0989 34.3907 38.8416 34.3067 38.778 34.0902C38.7321 33.9348 38.8022 33.745 38.7028 33.6177C38.6563 33.5656 38.5964 33.5273 38.5296 33.5069C38.3666 33.4332 38.1834 33.417 38.01 33.461C37.712 33.5578 37.5337 33.9068 37.2243 33.9501C37.1775 33.9592 37.1291 33.9539 37.0854 33.9348C36.9683 33.8762 36.9581 33.7068 36.874 33.6113C36.7327 33.4623 36.464 33.5591 36.292 33.4483C36.1878 33.3613 36.1204 33.2379 36.1035 33.1032C36.0265 32.8534 36.0091 32.5891 36.0526 32.3314C36.1532 31.8997 36.5404 31.6029 36.7862 31.2323C37.0167 30.8885 37.1466 30.4529 37.4917 30.225C37.8368 29.997 38.2813 30.0479 38.6723 30.1638C38.852 30.228 39.0369 30.2765 39.225 30.309C39.5395 30.3472 39.8554 30.2619 40.1712 30.2517C40.6189 30.2373 41.0587 30.3716 41.4218 30.6338C41.5037 30.6872 41.5732 30.7575 41.6256 30.8401C41.6781 30.9571 41.7092 31.0827 41.7173 31.2107C41.7545 31.4511 41.838 31.6821 41.9631 31.8908C42.0599 32.055 42.1834 32.2028 42.2713 32.3722C42.3695 32.5382 42.3997 32.7358 42.3553 32.9236C42.3248 33.0191 42.2662 33.1057 42.2433 33.2038C42.1923 33.4305 42.3413 33.6482 42.4432 33.8571C42.5424 34.0483 42.5894 34.2622 42.5795 34.4773C42.5741 34.5845 42.5465 34.6894 42.4985 34.7854C42.4505 34.8814 42.3831 34.9665 42.3006 35.0351C42.1276 35.1551 41.9214 35.2179 41.7109 35.2147C41.4557 35.2225 41.2011 35.1841 40.9595 35.1014C40.8704 35.0617 40.7729 35.0446 40.6755 35.0517C40.5393 35.0797 40.5571 35.1625 40.4985 35.2631C40.4208 35.3981 40.1203 35.4248 40.0579 35.2504Z" fill="#3F3D56"/>
<path opacity="0.1" d="M38.6226 50.2718L40.1241 49.0975L42.4853 46.7708L41.7059 46.7351C41.6144 46.8178 41.556 46.931 41.5416 47.0535C41.5301 47.3375 40.9048 47.0726 40.5775 47.2356C40.2502 47.3986 38.6583 49.4389 38.3794 49.4248C38.1005 49.4108 37.8789 49.2835 37.7617 49.4809L37.7541 49.4936C37.7076 49.5472 37.6451 49.5842 37.5758 49.5993L38.6226 50.2718Z" fill="black"/>
<path d="M35.598 50.1902L36.3519 52.5985L36.4703 52.9805L36.8295 52.8825L37.6216 52.6647L41.1468 51.6968C41.5908 51.6775 42.0254 51.5619 42.4203 51.358C43.0868 50.9846 43.8494 50.8183 44.6108 50.8805C45.0769 50.9238 45.5952 50.7225 46.0257 49.9278C46.0257 49.9278 47.0025 47.0433 44.5369 46.2167C42.0714 45.3902 41.9529 46.6561 41.9529 46.6561L41.9185 46.6765C41.823 46.7376 41.5556 46.9312 41.5454 47.163C41.5339 47.447 40.9086 47.1834 40.5813 47.3451C40.254 47.5068 38.6621 49.5483 38.3832 49.5343C38.1043 49.5203 37.8827 49.393 37.7655 49.5916L37.7579 49.6044C37.6713 49.7228 37.4128 49.7508 37.2408 49.7546C37.1874 49.7575 37.1338 49.7575 37.0804 49.7546L37.0574 49.761L36.8791 49.8145L35.598 50.1902Z" fill="#65617D"/>
<path opacity="0.1" d="M35.7928 45.5151L36.157 45.5724L36.3086 44.0722C36.3086 44.0722 36.1417 44.0467 35.9341 43.9983C35.9889 44.2084 35.8641 45.0171 35.7928 45.5151Z" fill="black"/>
<path opacity="0.1" d="M45.3062 38.5028C45.3062 38.5028 46.3874 38.1883 46.12 41.2601C45.9343 43.1349 45.1373 44.8967 43.8518 46.274C43.8518 46.274 41.548 47.2852 40.5126 47.1222C39.4772 46.9592 38.722 46.9248 38.722 46.9248C38.3958 46.7601 38.0388 46.6651 37.6739 46.6459C37.0931 46.6229 35.8718 46.2638 35.8476 46.1454C35.8234 46.0269 36.1507 44.3191 36.0106 44.1917C36.0106 44.1917 37.6395 44.258 37.8025 44.3751C37.9655 44.4923 38.1986 44.4095 38.373 44.3751C38.5475 44.3407 39.0824 43.8772 40.1407 44.2847C40.1407 44.2847 40.5011 44.3191 40.6412 44.2261C40.7554 44.1729 40.8855 44.1647 41.0054 44.2032C41.096 44.1731 41.1818 44.1302 41.2601 44.0759C41.2945 44.03 41.5747 44.0759 41.5747 44.0759C41.5914 44.0833 41.6095 44.0871 41.6277 44.0869C41.646 44.0868 41.664 44.0827 41.6806 44.075C41.6971 44.0672 41.7118 44.056 41.7237 44.0421C41.7355 44.0282 41.7442 44.0119 41.7492 43.9943C41.786 43.8994 41.8414 43.8128 41.9122 43.7396C41.9122 43.7396 42.2255 41.972 42.819 41.3084C42.8663 41.267 42.9028 41.2146 42.925 41.1557C42.9472 41.0968 42.9545 41.0334 42.9463 40.971C42.8979 40.7825 43.9104 38.1297 45.3062 38.5028Z" fill="black"/>
<path d="M45.2769 38.2661C45.2769 38.2661 46.3594 37.9528 46.092 41.0233C45.9068 42.8983 45.1097 44.6602 43.8238 46.0372C43.8238 46.0372 41.52 47.0497 40.4846 46.8867C39.4492 46.7237 38.6927 46.6855 38.6927 46.6855C38.367 46.5206 38.0104 46.4257 37.6458 46.4066C37.0638 46.3824 35.8425 46.0245 35.8196 45.9061C35.7967 45.7876 36.1214 44.0798 35.9826 43.9512C35.9826 43.9512 37.6115 44.0187 37.7745 44.1359C37.9375 44.253 38.1693 44.169 38.3437 44.1359C38.5182 44.1027 39.0531 43.6379 40.1127 44.0442C40.1127 44.0442 40.4731 44.0798 40.6119 43.9868C40.7262 43.9341 40.8559 43.9254 40.9762 43.9626C41.0664 43.9319 41.1521 43.889 41.2309 43.8353C41.2652 43.7882 41.5441 43.8353 41.5441 43.8353C41.5608 43.8427 41.5789 43.8465 41.5972 43.8464C41.6154 43.8462 41.6335 43.8421 41.65 43.8344C41.6666 43.8267 41.6813 43.8155 41.6931 43.8016C41.7049 43.7877 41.7136 43.7714 41.7186 43.7538C41.7555 43.6589 41.8109 43.5723 41.8816 43.4991C41.8816 43.4991 42.1962 41.7314 42.7897 41.0679C42.8371 41.0265 42.8735 40.974 42.8957 40.9151C42.9179 40.8563 42.9252 40.7928 42.917 40.7304C42.8699 40.547 43.8811 37.8981 45.2769 38.2661Z" fill="#3F3D56"/>
<path opacity="0.1" d="M36.8753 49.8081L38.4112 51.6675L38.4214 51.6573C38.4329 51.6216 38.5844 51.2268 38.5487 51.2027C38.5131 51.1785 38.2469 50.5977 37.712 50.3532C37.44 50.2206 37.2115 50.0129 37.0536 49.7546L36.8753 49.8081Z" fill="black"/>
<path opacity="0.1" d="M36.8957 53.0264L37.0638 53.1219C37.0638 53.1219 37.4535 52.8099 37.8419 52.4953C38.2304 52.1807 38.6061 51.8725 38.6061 51.8585C38.6061 51.8445 38.7691 51.4281 38.7334 51.4051C38.6978 51.3822 38.6353 51.2319 38.4876 51.0447C37.4459 50.7531 38.1056 51.4764 38.1973 51.5096C38.1973 51.5096 36.9301 51.2179 36.86 52.5997C36.854 52.7429 36.866 52.8862 36.8957 53.0264Z" fill="black"/>
<path d="M38.1807 53.611L38.4023 53.7383L40.6476 53.7956C40.8993 53.9487 41.1655 54.0767 41.4423 54.1777C41.4789 54.1886 41.5164 54.1967 41.5543 54.2019C41.7627 54.2189 41.972 54.2227 42.1809 54.2133C42.3528 54.2133 42.4853 54.2019 42.4853 54.2019C42.4853 54.2019 42.3796 51.3708 42.2994 51.0728C42.2611 50.9302 42.0727 50.9607 41.8867 51.032C41.7473 51.0891 41.6128 51.1572 41.4843 51.2358C41.4843 51.2358 40.5317 51.3288 40.3801 51.4103C40.2286 51.4918 39.7981 51.3632 39.5307 51.4103C39.2632 51.4574 38.7856 51.0957 38.7856 51.0957C37.4828 50.6653 38.2164 51.4676 38.3093 51.5033C38.3093 51.5033 37.0358 51.2116 36.9708 52.5934C36.9059 53.9752 38.1807 53.611 38.1807 53.611Z" fill="#3F3D56"/>
<path d="M41.427 52.5182C41.4512 53.104 41.9084 53.8312 42.1809 54.2158C42.3528 54.2158 42.4853 54.2043 42.4853 54.2043C42.4853 54.2043 42.3796 51.3733 42.2994 51.0753C42.2611 50.9326 42.0727 50.9632 41.8867 51.0345C41.6613 51.4573 41.4066 52.0444 41.427 52.5182Z" fill="#565387"/>
<path opacity="0.1" d="M41.427 52.5182C41.4512 53.104 41.9084 53.8312 42.1809 54.2158C42.3528 54.2158 42.4853 54.2043 42.4853 54.2043C42.4853 54.2043 42.3796 51.3733 42.2994 51.0753C42.2611 50.9326 42.0727 50.9632 41.8867 51.0345C41.6613 51.4573 41.4066 52.0444 41.427 52.5182Z" fill="black"/>
<path opacity="0.05" d="M41.0424 52.5959C41.1977 53.1613 41.1952 53.7955 41.4422 54.1801C41.4789 54.1911 41.5164 54.1992 41.5543 54.2043C41.7627 54.2214 41.972 54.2252 42.1809 54.2158C42.3528 54.2158 42.4853 54.2043 42.4853 54.2043C42.4853 54.2043 42.3796 51.3733 42.2994 51.0753C42.2611 50.9326 42.0727 50.9632 41.8867 51.0345C41.7473 51.0916 41.6128 51.1597 41.4843 51.2383C41.4843 51.2383 40.8449 51.8712 41.0424 52.5959Z" fill="black"/>
<path opacity="0.1" d="M33.2967 46.8561C33.2967 46.8561 34.4123 47.2178 35.3573 48.5041L33.2967 46.8561Z" fill="black"/>
<g opacity="0.1">
<path opacity="0.1" d="M42.3592 32.8955C42.3592 32.9044 42.3592 32.9121 42.3528 32.921C42.3421 32.9542 42.3289 32.9865 42.3134 33.0178C42.3256 32.9759 42.341 32.9351 42.3592 32.8955Z" fill="black"/>
<path opacity="0.1" d="M36.0501 32.3314C36.069 32.2499 36.0981 32.1712 36.1367 32.097C36.1367 32.1161 36.1239 32.1365 36.1188 32.1569C36.0764 32.4147 36.0943 32.6789 36.171 32.9287C36.1879 33.0631 36.2548 33.1863 36.3583 33.2738C36.5315 33.3846 36.8002 33.2878 36.9415 33.4368C37.0307 33.5323 37.0358 33.7017 37.153 33.7603C37.1966 33.7794 37.245 33.7847 37.2918 33.7756C37.6012 33.7323 37.7795 33.3833 38.0775 33.2865C38.2509 33.2419 38.4343 33.2581 38.5971 33.3324C38.6639 33.3528 38.7238 33.3911 38.7703 33.4432C38.8697 33.5705 38.7996 33.7603 38.8455 33.9157C38.9092 34.1322 39.1677 34.2175 39.3906 34.2455C39.6134 34.2735 39.8656 34.2901 40.0146 34.4595C40.064 34.5222 40.0994 34.5948 40.1185 34.6723C40.1376 34.7498 40.1399 34.8305 40.1254 34.909C40.1121 34.9638 40.1121 35.021 40.1254 35.0758C40.1865 35.2503 40.4884 35.2236 40.5673 35.086C40.6259 34.9854 40.6081 34.9026 40.7443 34.8746C40.8416 34.8675 40.9392 34.8846 41.0283 34.9243C41.2699 35.007 41.5245 35.0454 41.7797 35.0376C41.9902 35.0409 42.1964 34.9781 42.3694 34.8581C42.445 34.7987 42.5067 34.7235 42.5502 34.6378C42.5109 34.7937 42.4214 34.9324 42.2955 35.0325C42.1226 35.1525 41.9163 35.2153 41.7059 35.2121C41.4506 35.2199 41.1961 35.1815 40.9545 35.0988C40.8653 35.0591 40.7678 35.042 40.6705 35.0491C40.5342 35.0771 40.552 35.1599 40.4947 35.2605C40.4145 35.3981 40.1127 35.4248 40.0515 35.2503C40.0388 35.1954 40.0388 35.1384 40.0515 35.0835C40.0661 35.005 40.0637 34.9243 40.0446 34.8468C40.0255 34.7692 39.9901 34.6967 39.9407 34.6339C39.7917 34.4645 39.5408 34.4493 39.3167 34.42C39.0926 34.3907 38.8353 34.3066 38.7716 34.0901C38.7258 33.9348 38.7958 33.745 38.6965 33.6176C38.6503 33.5658 38.5909 33.5275 38.5246 33.5068C38.3611 33.4331 38.1775 33.417 38.0037 33.461C37.7069 33.5578 37.5274 33.9067 37.2179 33.95C37.1712 33.9592 37.1227 33.9538 37.0791 33.9348C36.9619 33.8762 36.9517 33.7068 36.8677 33.6113C36.7263 33.4623 36.4589 33.5591 36.2857 33.4483C36.1814 33.3612 36.114 33.2379 36.0972 33.1031C36.0214 32.8531 36.0053 32.5888 36.0501 32.3314Z" fill="black"/>
</g>
<path opacity="0.1" d="M42.54 41.6435C42.3261 41.9313 42.0828 42.1975 41.8944 42.5006C41.6896 42.7994 41.5902 43.1578 41.6116 43.5194C41.8065 43.3194 41.8969 43.0418 42.0192 42.7909C42.228 42.3656 42.5388 42.0052 42.8024 41.6155C42.8521 41.5403 43.173 41.106 43.0113 41.0882C42.8763 41.0691 42.6126 41.5454 42.54 41.6435Z" fill="black"/>
<path d="M43.6862 68.8934C43.8403 69.3875 43.9956 69.8829 44.1879 70.363C44.5344 71.1977 44.9704 71.9924 45.4882 72.7331C45.8221 73.2207 46.1809 73.6909 46.5631 74.1416C47.042 74.7058 47.5819 75.2738 47.745 75.9946C47.843 76.4111 47.8099 76.8453 47.8507 77.2682C47.8914 77.691 48.0302 78.1444 48.3754 78.3991C48.6212 78.5812 48.9357 78.6359 49.2376 78.6831C49.4541 78.7174 49.7241 78.7289 49.8361 78.5417C49.8753 78.4652 49.8958 78.3806 49.896 78.2946L49.9482 77.6719C49.9584 77.5369 50.0068 77.3649 50.1418 77.3586C50.2768 77.3522 50.3443 77.5318 50.4589 77.6133C50.6117 77.7203 50.841 77.6133 50.925 77.4515C50.9948 77.2764 50.9993 77.0821 50.9377 76.9039C50.845 76.5495 50.6782 76.2186 50.4484 75.9333C50.2186 75.6479 49.9309 75.4145 49.6043 75.2483C49.3775 75.1569 49.16 75.0439 48.9548 74.9108C48.7464 74.7296 48.5736 74.511 48.4454 74.2664C47.2636 72.3204 46.0753 70.3643 45.2412 68.2464C45.0768 67.8679 44.9658 67.4685 44.9113 67.0594C44.8706 66.643 44.9355 66.224 44.9623 65.8063C45.0116 65.0559 44.942 64.3024 44.7559 63.5738C44.7153 63.3825 44.6434 63.1992 44.5433 63.0312C44.1994 62.5104 43.3971 62.4327 42.8877 62.7918C42.7001 62.9361 42.5446 63.1178 42.431 63.3255C42.3174 63.5331 42.2483 63.7621 42.228 63.9979C42.191 64.4207 42.4343 64.8588 42.5578 65.2523C42.9322 66.4673 43.3083 67.6809 43.6862 68.8934Z" fill="#A1616A"/>
<path opacity="0.05" d="M43.6862 68.8934C43.8403 69.3875 43.9956 69.8829 44.1879 70.363C44.5344 71.1977 44.9704 71.9924 45.4882 72.7331C45.8221 73.2207 46.1809 73.6909 46.5631 74.1416C47.042 74.7058 47.5819 75.2738 47.745 75.9946C47.843 76.4111 47.8099 76.8453 47.8507 77.2682C47.8914 77.691 48.0302 78.1444 48.3754 78.3991C48.6212 78.5812 48.9357 78.6359 49.2376 78.6831C49.4541 78.7174 49.7241 78.7289 49.8361 78.5417C49.8753 78.4652 49.8958 78.3806 49.896 78.2946L49.9482 77.6719C49.9584 77.5369 50.0068 77.3649 50.1418 77.3586C50.2768 77.3522 50.3443 77.5318 50.4589 77.6133C50.6117 77.7203 50.841 77.6133 50.925 77.4515C50.9948 77.2764 50.9993 77.0821 50.9377 76.9039C50.845 76.5495 50.6782 76.2186 50.4484 75.9333C50.2186 75.6479 49.9309 75.4145 49.6043 75.2483C49.3775 75.1569 49.16 75.0439 48.9548 74.9108C48.7464 74.7296 48.5736 74.511 48.4454 74.2664C47.2636 72.3204 46.0753 70.3643 45.2412 68.2464C45.0768 67.8679 44.9658 67.4685 44.9113 67.0594C44.8706 66.643 44.9355 66.224 44.9623 65.8063C45.0116 65.0559 44.942 64.3024 44.7559 63.5738C44.7153 63.3825 44.6434 63.1992 44.5433 63.0312C44.1994 62.5104 43.3971 62.4327 42.8877 62.7918C42.7001 62.9361 42.5446 63.1178 42.431 63.3255C42.3174 63.5331 42.2483 63.7621 42.228 63.9979C42.191 64.4207 42.4343 64.8588 42.5578 65.2523C42.9322 66.4673 43.3083 67.6809 43.6862 68.8934Z" fill="black"/>
<path d="M36.2615 89.7004C36.4919 89.7806 36.7369 89.8101 36.9797 89.787C36.9976 89.5884 37.265 89.5438 37.4637 89.554C37.5598 89.5508 37.655 89.5728 37.74 89.6177C37.7897 89.6495 37.8279 89.6953 37.8763 89.7285C37.9626 89.7758 38.0594 89.8007 38.1578 89.8011L39.1919 89.8876C39.6529 89.9271 40.133 89.9628 40.5647 89.7985C40.6508 89.7713 40.7272 89.72 40.7851 89.6508C40.9022 89.4827 40.7851 89.242 40.6233 89.1197C40.4616 88.9975 40.2527 88.9427 40.0897 88.8179C39.7306 88.5441 39.6809 88.0321 39.4912 87.622C39.3563 87.3635 39.1899 87.1227 38.9957 86.9051C38.8551 86.7182 38.6912 86.55 38.508 86.4046C38.0928 86.1053 37.6165 86.1116 37.1287 86.0683C36.7849 86.0378 36.4614 86.0174 36.2143 86.3231C35.9087 86.7051 36.031 87.4692 36.0501 87.915C36.0739 88.5147 36.1446 89.1117 36.2615 89.7004Z" fill="#514E7F"/>
<path opacity="0.05" d="M36.2615 89.7004C36.4919 89.7806 36.7369 89.8101 36.9797 89.787C36.9976 89.5884 37.265 89.5438 37.4637 89.554C37.5598 89.5508 37.655 89.5728 37.74 89.6177C37.7897 89.6495 37.8279 89.6953 37.8763 89.7285C37.9626 89.7758 38.0594 89.8007 38.1578 89.8011L39.1919 89.8876C39.6529 89.9271 40.133 89.9628 40.5647 89.7985C40.6508 89.7713 40.7272 89.72 40.7851 89.6508C40.9022 89.4827 40.7851 89.242 40.6233 89.1197C40.4616 88.9975 40.2527 88.9427 40.0897 88.8179C39.7306 88.5441 39.6809 88.0321 39.4912 87.622C39.3563 87.3635 39.1899 87.1227 38.9957 86.9051C38.8551 86.7182 38.6912 86.55 38.508 86.4046C38.0928 86.1053 37.6165 86.1116 37.1287 86.0683C36.7849 86.0378 36.4614 86.0174 36.2143 86.3231C35.9087 86.7051 36.031 87.4692 36.0501 87.915C36.0739 88.5147 36.1446 89.1117 36.2615 89.7004Z" fill="black"/>
<path d="M36.6792 69.5849C36.3634 69.6868 36.2258 70.0803 36.2844 70.4076C36.343 70.7349 36.5391 71.0176 36.7009 71.308C37.1619 72.1319 37.3606 73.0744 37.7477 73.934C38.0368 74.5708 38.4278 75.1693 38.7131 75.8137C38.9983 76.4581 39.1754 77.1853 39.0022 77.8692C38.9181 78.2016 38.7551 78.506 38.6468 78.8333C38.5397 79.188 38.4697 79.5529 38.438 79.9222C38.2977 81.1763 38.2726 82.4407 38.3628 83.6995C38.3636 83.8529 38.3957 84.0046 38.4571 84.1452C38.522 84.2726 38.6341 84.3999 38.5844 84.5273C38.5628 84.5795 38.5157 84.6177 38.4927 84.6686C38.4265 84.8113 38.559 84.9628 38.6799 85.0647C38.6583 85.103 38.6293 85.1366 38.5945 85.1635C38.5597 85.1904 38.5199 85.2101 38.4775 85.2213C38.5642 85.2766 38.6309 85.3583 38.6676 85.4544C38.7043 85.5505 38.7091 85.6559 38.6812 85.755C38.5742 85.7715 38.5679 85.9358 38.6354 86.0224C38.7029 86.109 38.8098 86.1625 38.8582 86.2606C38.8867 86.3404 38.8836 86.4282 38.8495 86.5058C38.8154 86.5835 38.7529 86.6452 38.6748 86.6783C38.5157 86.7395 38.3422 86.7528 38.1756 86.7165C37.8932 86.6772 37.6143 86.6158 37.3414 86.5331C37.1988 86.5051 37.0711 86.4265 36.9817 86.3119C36.8923 86.1973 36.8473 86.0542 36.855 85.9091C36.7919 85.3907 36.7727 84.868 36.7976 84.3464C36.8422 81.8197 36.7976 79.2905 36.6881 76.7651C36.6435 75.7462 36.3379 74.7592 35.9444 73.8219C35.7268 73.3429 35.485 72.8754 35.2197 72.421C34.6517 71.3818 34.15 70.2306 34.2799 69.0525C34.2939 68.9252 34.3397 68.7736 34.4658 68.7533C34.5151 68.748 34.5649 68.7563 34.6097 68.7774C34.8713 68.8996 35.1245 69.0392 35.3675 69.1952C35.7667 69.4293 36.2169 69.563 36.6792 69.5849Z" fill="#464353"/>
<path opacity="0.05" d="M36.6792 69.5849C36.3634 69.6868 36.2258 70.0803 36.2844 70.4076C36.343 70.7349 36.5391 71.0176 36.7009 71.308C37.1619 72.1319 37.3606 73.0744 37.7477 73.934C38.0368 74.5708 38.4278 75.1693 38.7131 75.8137C38.9983 76.4581 39.1754 77.1853 39.0022 77.8692C38.9181 78.2016 38.7551 78.506 38.6468 78.8333C38.5397 79.188 38.4697 79.5529 38.438 79.9222C38.2977 81.1763 38.2726 82.4407 38.3628 83.6995C38.3636 83.8529 38.3957 84.0046 38.4571 84.1452C38.522 84.2726 38.6341 84.3999 38.5844 84.5273C38.5628 84.5795 38.5157 84.6177 38.4927 84.6686C38.4265 84.8113 38.559 84.9628 38.6799 85.0647C38.6583 85.103 38.6293 85.1366 38.5945 85.1635C38.5597 85.1904 38.5199 85.2101 38.4775 85.2213C38.5642 85.2766 38.6309 85.3583 38.6676 85.4544C38.7043 85.5505 38.7091 85.6559 38.6812 85.755C38.5742 85.7715 38.5679 85.9358 38.6354 86.0224C38.7029 86.109 38.8098 86.1625 38.8582 86.2606C38.8867 86.3404 38.8836 86.4282 38.8495 86.5058C38.8154 86.5835 38.7529 86.6452 38.6748 86.6783C38.5157 86.7395 38.3422 86.7528 38.1756 86.7165C37.8932 86.6772 37.6143 86.6158 37.3414 86.5331C37.1988 86.5051 37.0711 86.4265 36.9817 86.3119C36.8923 86.1973 36.8473 86.0542 36.855 85.9091C36.7919 85.3907 36.7727 84.868 36.7976 84.3464C36.8422 81.8197 36.7976 79.2905 36.6881 76.7651C36.6435 75.7462 36.3379 74.7592 35.9444 73.8219C35.7268 73.3429 35.485 72.8754 35.2197 72.421C34.6517 71.3818 34.15 70.2306 34.2799 69.0525C34.2939 68.9252 34.3397 68.7736 34.4658 68.7533C34.5151 68.748 34.5649 68.7563 34.6097 68.7774C34.8713 68.8996 35.1245 69.0392 35.3675 69.1952C35.7667 69.4293 36.2169 69.563 36.6792 69.5849Z" fill="black"/>
<path d="M32.409 66.5132C32.2443 66.4074 32.0544 66.3476 31.8588 66.34C31.6322 66.3514 31.4386 66.5004 31.2616 66.6431C31.0518 66.804 30.8527 66.9785 30.6655 67.1652C30.2779 67.5784 30.0079 68.0877 29.8834 68.6403C29.7589 69.193 29.7845 69.7689 29.9574 70.3083C30.1447 70.8699 30.4872 71.3653 30.826 71.8506L31.5137 72.8388C32.5631 74.3454 33.6125 75.852 34.7116 77.323C34.7118 77.3591 34.7235 77.3943 34.7451 77.4234C34.7666 77.4524 34.7968 77.4739 34.8313 77.4847C34.8708 77.4949 34.9204 77.4936 34.9446 77.5267C34.9558 77.5474 34.9607 77.5708 34.9586 77.5942C34.9562 77.703 34.9355 77.8106 34.8975 77.9126C34.8797 77.9462 34.8751 77.9853 34.8848 78.0221C34.9204 78.1049 35.0707 78.0578 35.1191 78.1355C35.1509 78.1864 35.1115 78.2527 35.0694 78.296C35.0274 78.3393 34.9752 78.3877 34.9828 78.4475C34.9905 78.5074 35.0949 78.5749 35.0911 78.6487C35.0911 78.692 35.0529 78.7251 35.0261 78.7595C34.9887 78.8143 34.9716 78.8805 34.9779 78.9466C34.9842 79.0127 35.0134 79.0744 35.0605 79.1212C35.1331 79.8395 34.7421 80.5221 34.6645 81.2378C34.5371 82.3687 35.0529 83.4729 35.1153 84.6076C35.1115 84.7353 35.1359 84.8622 35.1866 84.9795C35.2923 85.1756 35.5687 85.294 35.5547 85.5169C35.5347 85.6085 35.5087 85.6987 35.477 85.7869C35.4553 85.9143 35.5164 86.0416 35.519 86.169C35.5215 86.2963 35.4082 86.453 35.2885 86.402C35.3785 86.7026 35.4587 87.0057 35.5292 87.3113L37.9362 87.51C37.9621 87.2937 37.9548 87.0746 37.9145 86.8605C37.8649 86.6275 37.7604 86.4109 37.7057 86.1804C37.6701 86.067 37.66 85.947 37.6763 85.8292C37.6926 85.7114 37.7348 85.5986 37.7999 85.4991C37.7372 85.4998 37.6762 85.4784 37.6277 85.4386C37.5792 85.3987 37.5464 85.343 37.535 85.2813C37.5149 85.1571 37.517 85.0303 37.5414 84.9069C37.6051 84.279 37.3414 83.6601 37.3491 83.0297C37.3567 82.533 37.5312 82.0554 37.6191 81.5677C37.8075 80.5234 37.6114 79.3912 38.0763 78.4373C38.3577 77.863 38.7474 77.2262 38.4316 76.6696C38.2762 76.3946 38.0011 76.2061 37.8216 75.9463C37.6752 75.7007 37.5653 75.4352 37.4955 75.158C37.1249 74.0118 36.5251 72.9471 35.9991 71.8569C35.8531 71.5837 35.7448 71.2919 35.6769 70.9897C35.6398 70.7244 35.6261 70.4563 35.6362 70.1886C35.6362 69.708 35.6068 69.2278 35.5483 68.7508C35.5364 68.5418 35.4767 68.3383 35.3738 68.156C35.2699 68.0181 35.1401 67.9018 34.9918 67.8135C34.2022 67.2722 33.2623 66.9627 32.409 66.5132Z" fill="#464353"/>
<path d="M35.2936 90.5832C35.5247 90.6622 35.77 90.6913 36.0131 90.6685C36.031 90.4698 36.2971 90.4252 36.4958 90.4354C36.5919 90.4323 36.6872 90.4542 36.7722 90.4991C36.8218 90.5309 36.86 90.5781 36.9097 90.6099C36.9958 90.6578 37.0927 90.6828 37.1912 90.6825L38.224 90.7691C38.6863 90.8086 39.1652 90.8455 39.5982 90.6799C39.684 90.6531 39.7602 90.6018 39.8172 90.5322C39.9344 90.3641 39.8172 90.1247 39.6555 90.0024C39.4937 89.8802 39.2849 89.8241 39.1231 89.6993C38.7627 89.4255 38.7143 88.9148 38.5233 88.5047C38.3896 88.2454 38.2236 88.004 38.0292 87.7864C37.888 87.5999 37.7237 87.4322 37.5401 87.2872C37.1262 86.9867 36.6486 86.993 36.1621 86.9497C35.817 86.9192 35.4935 86.9001 35.2477 87.2044C34.9421 87.5865 35.0644 88.3506 35.0822 88.7976C35.1061 89.3974 35.1768 89.9944 35.2936 90.5832Z" fill="#514E7F"/>
<path d="M45.962 62.3449C47.2787 62.3449 48.3461 61.2776 48.3461 59.9609C48.3461 58.6442 47.2787 57.5768 45.962 57.5768C44.6453 57.5768 43.5779 58.6442 43.5779 59.9609C43.5779 61.2776 44.6453 62.3449 45.962 62.3449Z" fill="#A1616A"/>
<path d="M43.7129 60.6688C43.3716 60.963 42.8813 60.9847 42.433 61.0305C41.4744 61.129 40.5414 61.399 39.6784 61.8277C39.5589 61.8792 39.4507 61.9536 39.36 62.0468C39.2825 62.1478 39.2274 62.2641 39.1982 62.3881C39.1162 62.6563 39.0855 62.9376 39.1078 63.2172C39.139 63.4883 39.217 63.752 39.3383 63.9966C39.6692 64.6815 40.1798 65.2639 40.8156 65.6814C40.9277 65.7649 41.0548 65.8259 41.19 65.861C41.5033 65.926 41.8064 65.7451 42.1159 65.6636C42.3974 65.5902 42.6941 65.5995 42.9705 65.6904C43.2252 65.777 43.5041 65.9349 43.7562 65.8292C43.9176 65.7389 44.0431 65.5959 44.1115 65.4242C44.3551 64.964 44.5724 64.4903 44.7623 64.0055C44.8306 63.8162 44.9092 63.6308 44.9979 63.4502C45.2743 62.9242 45.7519 62.518 45.99 61.9716C46.0142 61.93 46.0288 61.8834 46.0328 61.8354C46.0367 61.7874 46.03 61.7391 46.0129 61.694C45.9688 61.6331 45.9077 61.5866 45.8372 61.5603C45.485 61.3587 45.1641 61.1068 44.8846 60.8127C44.7279 60.6624 44.4401 60.2562 44.2147 60.2205C43.9613 60.1772 43.8849 60.5211 43.7129 60.6688Z" fill="#A1616A"/>
<path d="M43.7691 65.5134C43.4927 65.6407 43.1667 65.586 42.8674 65.5236C42.0956 65.3618 41.315 65.1988 40.6005 64.8651C40.3773 64.7797 40.1839 64.631 40.044 64.4372C39.957 64.2715 39.9042 64.0901 39.8886 63.9036L39.7612 63.0121C39.7154 62.7027 39.7943 62.4161 39.802 62.1028C39.8068 62.0681 39.8047 62.0328 39.7958 61.9989C39.7868 61.965 39.7712 61.9332 39.7498 61.9054C39.7062 61.8688 39.6499 61.8509 39.5931 61.8558C39.2353 61.8621 39.0188 62.2378 38.7679 62.4925C38.6229 62.6395 38.4496 62.7556 38.2585 62.8338C38.0292 62.9281 37.749 62.9943 37.6535 63.2235C37.6153 63.3191 37.6204 63.4273 37.5797 63.5228C37.4192 63.9049 36.7353 63.7775 36.5608 64.1596C36.5112 64.2666 36.515 64.4003 36.4335 64.4843C36.352 64.5684 36.1991 64.5671 36.0731 64.5875C35.5751 64.669 35.3344 65.2434 34.909 65.5146C34.5512 65.7439 34.0902 65.7388 33.7043 65.9171C33.4903 66.0164 33.3006 66.1718 33.0739 66.2367C32.8472 66.3017 32.5912 66.2673 32.3479 66.2737C32.322 66.2712 32.2958 66.2742 32.2711 66.2823C32.2463 66.2904 32.2235 66.3035 32.204 66.3208C32.1889 66.3438 32.1789 66.3699 32.1748 66.3971C32.1706 66.4244 32.1723 66.4522 32.1798 66.4787C32.2978 67.2318 32.6098 67.9411 33.0853 68.5369C33.5607 69.1327 34.1831 69.5944 34.8912 69.8765C34.9734 69.9027 35.0515 69.9404 35.123 69.9886C35.3395 70.1503 35.3777 70.498 35.6235 70.6126C35.7122 70.6439 35.8078 70.6499 35.8998 70.6301C35.9917 70.6104 36.0764 70.5655 36.1444 70.5006C36.28 70.37 36.4076 70.2314 36.5264 70.0854C36.7509 69.851 37.0454 69.6959 37.3657 69.6435C37.6612 69.5964 37.991 69.6307 38.2304 69.4486C38.3284 69.3587 38.4195 69.2617 38.503 69.1583C38.6804 68.9928 38.8909 68.8669 39.1206 68.7889C39.7484 68.5409 40.4118 68.3951 41.0857 68.3572C41.7136 68.3228 42.3593 68.3801 42.9527 68.1764C43.1068 68.1286 43.2488 68.0482 43.3692 67.9407C43.4968 67.8027 43.5917 67.6378 43.6468 67.4581C43.8609 66.8325 43.9031 66.1609 43.7691 65.5134Z" fill="#0098AC"/>
<path d="M40.696 61.9997C40.8717 61.9832 41.0487 61.9997 41.2258 61.9997C41.4334 61.9997 41.6384 61.9488 41.846 61.9475C42.1747 61.9529 42.4931 62.0631 42.7548 62.2622C43.0164 62.4613 43.2076 62.7388 43.3004 63.0542C43.3179 63.1046 43.3209 63.1588 43.3093 63.2109C43.3024 63.2365 43.2866 63.2589 43.2646 63.2739C43.2426 63.2888 43.216 63.2954 43.1896 63.2924C43.1207 63.104 43.0305 62.9241 42.9209 62.7562C42.7235 62.4867 42.4421 62.2905 42.1211 62.1984C41.801 62.1077 41.4637 62.0955 41.1379 62.1627C41.0016 62.1882 40.8692 62.2239 40.7367 62.2608L40.1 62.4365C39.9828 62.4684 39.8644 62.5002 39.751 62.5422C39.6631 62.5754 39.5129 62.6963 39.4263 62.7014C39.3091 62.7014 39.4033 62.5996 39.4555 62.5308C39.5595 62.389 39.7051 62.283 39.872 62.2277C40.1366 62.1193 40.4133 62.0428 40.696 61.9997Z" fill="#0098AC"/>
<path d="M42.3031 69.1607C42.4572 69.6549 42.6113 70.1503 42.8049 70.6304C43.1509 71.4653 43.5869 72.2601 44.1052 73.0005C44.439 73.4881 44.7978 73.9583 45.1801 74.409C45.6576 74.9732 46.1912 75.5412 46.3619 76.2607C46.46 76.6784 46.4268 77.1127 46.4676 77.5343C46.5084 77.9558 46.6472 78.4104 46.991 78.6652C47.2381 78.846 47.5527 78.9008 47.8545 78.9492C48.0697 78.9835 48.3397 78.995 48.453 78.8078C48.4915 78.731 48.512 78.6466 48.5129 78.5607L48.5638 77.938C48.5753 77.803 48.6237 77.631 48.7574 77.6247C48.8911 77.6183 48.9612 77.7979 49.0758 77.8794C49.2286 77.9864 49.4579 77.8794 49.5419 77.7176C49.6112 77.5424 49.6157 77.3483 49.5547 77.17C49.4615 76.8157 49.2945 76.4851 49.0648 76.1998C48.835 75.9145 48.5475 75.681 48.2213 75.5144C47.9942 75.4227 47.7763 75.3097 47.5705 75.1769C47.3617 74.9956 47.1889 74.7765 47.0611 74.5313C45.8779 72.5866 44.6897 70.6304 43.8568 68.5112C43.6926 68.1331 43.5811 67.7341 43.5257 67.3256C43.4862 66.9091 43.5499 66.4901 43.5779 66.0724C43.6273 65.322 43.5577 64.5685 43.3716 63.8399C43.331 63.6484 43.2587 63.465 43.1577 63.2974C42.8151 62.7752 42.0115 62.6988 41.5021 63.0579C41.3143 63.2022 41.1586 63.3839 41.0448 63.5915C40.931 63.7991 40.8617 64.0281 40.8411 64.264C40.8042 64.6868 41.0487 65.1249 41.1709 65.5184C41.5471 66.7342 41.9245 67.9483 42.3031 69.1607Z" fill="#A1616A"/>
<path d="M49.4299 58.2746C49.449 58.0759 49.2707 57.8925 49.0682 57.7652C48.8549 57.6559 48.6502 57.5307 48.4556 57.3908C48.2748 57.2341 48.1755 57.0304 47.9946 56.8737C47.789 56.7172 47.5557 56.6009 47.3069 56.5311C46.7777 56.3456 46.2222 56.2463 45.6615 56.2369C45.0948 56.2369 44.5153 56.3643 44.0887 56.6534C43.9834 56.7196 43.8925 56.8062 43.8212 56.9081C43.754 57.0304 43.7107 57.1644 43.6939 57.3029C43.5922 57.7302 43.4546 58.1481 43.2825 58.5522C43.1055 59.0018 42.917 59.4679 42.5006 59.8156C42.0548 60.1862 41.3735 60.4001 41.0793 60.8484C41.0468 60.8883 41.024 60.9351 41.0127 60.9853C41.0014 61.0355 41.002 61.0876 41.0144 61.1375C41.0564 61.2509 41.1914 61.3285 41.3162 61.3999C42.0396 61.815 42.6636 62.3538 42.9845 62.9969C43.3055 63.64 43.2965 64.3978 42.8393 64.99C42.6712 65.209 42.4394 65.4688 42.6037 65.6891C42.8584 66.0241 43.7104 65.8318 43.9091 66.1858C43.9715 66.2992 43.9346 66.4278 43.9346 66.5513C43.9346 66.9232 44.2924 67.2531 44.7267 67.425C45.161 67.5969 45.664 67.6377 46.1531 67.6593C46.2829 67.3675 46.2957 67.037 46.1887 66.736C46.1562 66.6711 46.1433 66.598 46.1518 66.5259C46.1883 66.4457 46.2449 66.3764 46.3161 66.3246C46.8382 65.8305 46.7275 65.1046 46.4142 64.5175C46.1009 63.9304 45.6118 63.3942 45.4297 62.7766C45.3393 62.4696 45.3393 62.1245 45.5825 61.8698C45.7222 61.7473 45.8726 61.6377 46.0321 61.5425C46.317 61.3491 46.5364 61.0738 46.6612 60.7529C46.8077 60.3467 46.7886 59.8614 47.2139 59.5876C47.6227 59.3329 48.1971 59.4068 48.6492 59.2323C48.9969 59.0948 49.4019 58.5662 49.4299 58.2746Z" fill="#464353"/>
<path d="M74.1238 78.2297C72.1816 77.4261 71.6111 76.8454 71.6111 75.6826C71.6111 74.7912 72.0033 73.7621 73.7226 73.7621C74.673 73.7482 75.6066 74.0139 76.4072 74.5263L76.9663 73.0477C76.3181 72.6656 75.4037 72.3103 74.0639 72.2657V70.1007H72.9343V72.3549C70.8801 72.6898 69.6906 74.0958 69.6906 75.9488C69.6906 77.891 70.8368 78.9187 73.1189 79.8114C74.772 80.4851 75.6367 81.2442 75.6367 82.4719C75.6367 83.7454 74.5657 84.6598 72.9801 84.6598C71.7308 84.6598 70.3146 84.2357 69.511 83.6996L68.9749 85.1947C69.7568 85.7538 71.0966 86.1549 72.3905 86.1779V88.432H74.3123V86.1104C76.6046 85.7283 77.8387 84.0727 77.8387 82.3152C77.8387 80.3285 76.4238 79.167 74.1238 78.2297Z" fill="url(#paint1_linear_4_1249)"/>
<path d="M72.3956 87.9227V85.6685C71.1017 85.6456 69.7619 85.2445 68.98 84.6854L69.5161 83.1902C70.3197 83.7264 71.7359 84.1505 72.9853 84.1505C74.5708 84.1505 75.6368 83.2361 75.6368 81.9626C75.6368 80.7349 74.7669 79.9758 73.1139 79.306C70.8368 78.4145 69.6855 77.3855 69.6855 75.4433C69.6855 73.5903 70.875 72.1843 72.9292 71.8494V69.5952H74.0589V71.7602C75.3986 71.8048 76.313 72.1614 76.9613 72.5422L76.4022 74.0144C75.6015 73.502 74.668 73.2363 73.7175 73.2503C71.9983 73.2503 71.606 74.278 71.606 75.1708C71.606 76.331 72.1766 76.9117 74.1187 77.7178C76.4187 78.6552 77.8336 79.8166 77.8336 81.8034C77.8336 83.5672 76.6059 85.219 74.3072 85.5985V87.9227H72.3956Z" fill="#0098AC"/>
</g>
<defs>
<linearGradient id="paint0_linear_4_1249" x1="38.9461" y1="54.133" x2="38.9461" y2="29.8212" gradientUnits="userSpaceOnUse">
<stop stop-color="#808080" stop-opacity="0.25"/>
<stop offset="0.54" stop-color="#808080" stop-opacity="0.12"/>
<stop offset="1" stop-color="#808080" stop-opacity="0.1"/>
</linearGradient>
<linearGradient id="paint1_linear_4_1249" x1="4968.28" y1="13082.4" x2="5584.85" y2="13082.4" gradientUnits="userSpaceOnUse">
<stop stop-color="#808080" stop-opacity="0.25"/>
<stop offset="0.54" stop-color="#808080" stop-opacity="0.12"/>
<stop offset="1" stop-color="#808080" stop-opacity="0.1"/>
</linearGradient>
<clipPath id="clip0_4_1249">
<rect width="150" height="92.352" fill="white"/>
</clipPath>
</defs>
</svg>
