<svg width="150" height="104" viewBox="0 0 150 104" fill="none" xmlns="http://www.w3.org/2000/svg">
<g clip-path="url(#clip0_4_1360)">
<path opacity="0.1" d="M87.6262 16.2967C78.0826 15.9676 68.9932 12.9116 60.3123 9.5674C51.6314 6.22321 43.036 2.5177 33.721 0.753445C27.7297 -0.386151 20.8788 -0.54707 16.051 2.63912C11.406 5.7112 9.90485 10.9996 9.09677 15.9105C8.49071 19.6073 8.13239 23.4956 9.7972 26.9554C10.9518 29.3575 13.003 31.3763 14.4215 33.6774C19.3555 41.6824 15.8681 51.554 10.5198 59.3702C8.01294 63.0363 5.1021 66.5384 3.16596 70.4385C1.22982 74.3386 0.334742 78.8136 2.02757 82.7956C3.70713 86.7454 7.7077 89.7063 12.0401 91.791C20.8419 96.0246 31.2098 97.2373 41.3284 97.9234C63.7157 99.4434 86.2239 98.7851 108.67 98.1268C116.978 97.8825 125.321 97.6352 133.493 96.361C138.032 95.653 142.718 94.5295 146.013 91.8261C150.195 88.3839 151.231 82.5542 148.43 78.2387C143.729 70.9988 130.734 69.1994 127.445 61.43C125.635 57.154 127.493 52.3893 130.121 48.4234C135.76 39.9137 145.211 32.45 145.709 22.7232C146.051 16.0436 141.508 9.35381 134.483 6.19249C127.119 2.87903 116.909 3.29596 111.479 8.78036C105.882 14.414 96.052 16.5864 87.6262 16.2967Z" fill="#0098AC"/>
<g opacity="0.1">
<path opacity="0.1" d="M12.7331 48.0358C12.7331 48.0358 1.71201 43.4364 0.262482 51.7296C0.262482 51.7296 -0.491035 53.0228 0.5574 54.0907C0.5574 54.0907 0.783013 53.5172 1.84767 54.1097C2.22793 54.3184 2.63186 54.4814 3.05094 54.5954C3.6169 54.7503 4.21828 54.7184 4.76441 54.5047C4.76441 54.5047 8.39044 54.3101 11.4399 49.604C11.4399 49.604 12.7479 48.8023 12.8127 48.501L10.6274 48.6473C10.6274 48.6473 10.7955 50.2345 9.8901 51.1868C9.8901 51.1868 10.6923 48.7233 10.3074 48.6546C10.2293 48.6399 9.1528 48.7804 9.1528 48.7804C9.1528 48.7804 9.4315 51.5409 7.97313 52.9687C7.97313 52.9687 9.3268 50.1614 8.73844 48.8301L7.12524 49.1388C7.12524 49.1388 7.56761 52.0426 5.97211 53.7308C5.97211 53.7308 7.28449 50.7465 6.77723 49.231L5.23333 49.7459C5.23333 49.7459 5.60493 52.5854 4.27042 53.9883C4.27042 53.9883 5.43535 50.3881 4.88681 49.8922C4.88681 49.8922 3.49774 50.451 3.20135 50.7699C3.20135 50.7699 3.42106 52.818 2.57317 53.5567C2.57317 53.5567 3.0937 51.0698 2.83565 50.9674C2.83565 50.9674 1.22244 52.1728 0.729927 53.213C0.729927 53.213 1.34336 51.6243 2.63363 50.726C2.63363 50.726 1.5498 50.5446 0.716657 50.9937C0.716657 50.9937 1.27405 49.939 3.02439 50.4393C3.02439 50.4393 4.32056 49.5484 4.58009 49.5616C4.58009 49.5616 2.92412 48.8301 1.72823 48.9208C1.72823 48.9208 3.01112 48.1894 4.98413 49.4109L6.52508 48.8594C6.52508 48.8594 4.38692 47.7724 3.31636 47.7768C3.31636 47.7768 4.74082 47.2297 6.92469 48.7511L8.50251 48.4322C8.50251 48.4322 6.733 47.357 5.54005 47.1068C5.54005 47.1068 6.9704 46.8815 8.95816 48.3576L10.0361 48.2684C10.0361 48.2684 8.73107 47.5047 8.33588 47.3189C7.94069 47.1332 7.95838 47.0132 7.95838 47.0132C8.89848 47.1754 9.77459 47.5938 10.4888 48.2216C10.4888 48.2216 12.7243 48.1718 12.7331 48.0358Z" fill="#0098AC"/>
</g>
<g opacity="0.1">
<path opacity="0.1" d="M12.3291 39.7909C12.3291 39.7909 8.41992 30.8277 2.79877 34.9384C2.79877 34.9384 1.61025 35.2808 1.61909 36.5037C1.61909 36.5037 2.08212 36.2902 2.37556 37.2454C2.48316 37.5843 2.6317 37.909 2.81794 38.2124C3.06408 38.6248 3.43957 38.9459 3.88702 39.1267C3.88702 39.1267 6.15347 41.0607 10.6701 39.9884C10.6701 39.9884 11.9088 40.2502 12.1197 40.1098L10.7395 38.9585C10.7395 38.9585 9.92695 39.9971 8.8387 40.0469C8.8387 40.0469 10.7306 39.0375 10.5419 38.7785C10.5035 38.7259 9.78244 38.2022 9.78244 38.2022C9.78244 38.2022 8.36388 39.9986 6.68579 40.0264C6.68579 40.0264 9.10265 39.1223 9.51701 38.0003L8.38158 37.2688C8.38158 37.2688 6.97482 39.2423 5.05932 39.3447C5.05932 39.3447 7.55286 38.3133 8.12205 37.1255L6.90846 36.5593C6.90846 36.5593 5.49875 38.4611 3.90471 38.5328C3.90471 38.5328 6.66515 37.0523 6.62239 36.4481C6.62239 36.4481 5.47663 35.9946 5.1124 36.021C5.1124 36.021 4.06987 37.3595 3.1394 37.3215C3.1394 37.3215 4.87794 36.138 4.78357 35.9317C4.78357 35.9317 3.13203 35.7357 2.24285 36.078C2.24285 36.078 3.51984 35.4812 4.80127 35.6772C4.80127 35.6772 4.26156 34.956 3.511 34.7556C3.511 34.7556 4.44884 34.444 5.20088 35.7284C5.20088 35.7284 6.48083 35.9332 6.63124 36.0853C6.63124 36.0853 6.06942 34.7117 5.3041 34.0929C5.3041 34.0929 6.48378 34.3855 6.95565 36.2243L8.18841 36.7671C8.18841 36.7671 7.54253 34.9121 6.90256 34.3109C6.90256 34.3109 8.06306 34.7907 8.48775 36.9294L9.60844 37.6302C9.60844 37.6302 9.17491 35.9917 8.61014 35.1681C8.61014 35.1681 9.58927 35.844 9.92105 37.8437L10.6141 38.3996C10.6141 38.3996 10.2764 37.2089 10.1481 36.8753C10.0199 36.5418 10.0995 36.4803 10.0995 36.4803C10.5653 37.1076 10.8456 37.8513 10.909 38.6279C10.909 38.6279 12.2421 39.8655 12.3291 39.7909Z" fill="#0098AC"/>
</g>
<path d="M137.619 97.5973C137.472 97.0677 137.324 96.5308 137.029 96.07C136.756 95.6789 136.431 95.3261 136.062 95.0211C134.993 94.057 133.679 93.0784 132.262 93.3227C131.823 93.4179 131.398 93.5715 131 93.7791C130.793 93.8742 130.586 93.9693 130.373 94.0497C129.775 94.2977 129.114 94.3549 128.481 94.2136C128.157 94.1273 127.855 93.9722 127.535 93.8756C127.382 93.8305 127.226 93.7972 127.069 93.7762C127.378 93.6374 127.678 93.4806 127.968 93.3066C129.559 92.3308 130.829 90.5753 130.65 88.7175C130.591 88.0884 130.373 87.4872 130.158 86.8947C129.969 86.3768 129.78 85.8585 129.59 85.3396C129.345 84.6652 129.093 83.9791 128.645 83.4189C128.147 82.7957 127.439 82.3729 126.707 82.0569C125.135 81.3796 123.418 81.1411 121.722 80.91L121.604 80.8939V62.7189C121.605 62.5645 121.575 62.4116 121.516 62.2687C121.457 62.1259 121.37 61.996 121.261 61.8866C121.151 61.7771 121.021 61.6903 120.877 61.631C120.734 61.5717 120.58 61.5412 120.424 61.5412H118.193C118.095 60.9444 117.996 60.348 117.898 59.7521C117.616 58.0537 117.326 56.3216 116.537 54.7914C116.021 53.7893 115.198 52.8355 114.091 52.638C113.873 52.6178 113.658 52.5686 113.454 52.4917C113.129 52.3337 112.952 51.9826 112.702 51.7222C112.059 51.0537 111.013 51.0435 110.151 50.6982C109.39 50.3983 108.767 49.8322 108.074 49.3977C107.381 48.9632 106.519 48.6531 105.75 48.9369C105.75 48.9925 105.74 49.0466 105.734 49.1022L105.242 48.8828C104.711 48.6399 104.168 48.3883 103.742 47.9875C103.193 47.474 102.902 46.7967 102.674 46.074C102.651 45.9979 102.629 45.9277 102.607 45.8473C103.549 44.892 104.187 43.6826 104.441 42.3699C104.481 42.4972 104.522 42.626 104.562 42.7547C104.598 42.8856 104.648 43.0125 104.709 43.1336C104.73 43.1736 104.753 43.2122 104.779 43.2491C104.827 43.321 104.888 43.3838 104.959 43.4349C105.028 43.4854 105.11 43.5171 105.196 43.5271C105.237 43.5329 105.279 43.5329 105.32 43.5271C105.431 43.5038 105.535 43.4531 105.621 43.3797C105.708 43.3064 105.775 43.2127 105.815 43.1072C105.839 43.0497 105.856 42.9899 105.867 42.9288C105.873 42.892 105.876 42.8548 105.877 42.8176C105.877 42.8059 105.877 42.7942 105.877 42.7825C105.877 42.7708 105.877 42.7313 105.877 42.7064C105.877 42.6815 105.877 42.6786 105.877 42.6655C105.877 42.6523 105.877 42.6157 105.877 42.5923V42.5543C105.877 42.525 105.868 42.4958 105.862 42.468C105.857 42.4402 105.862 42.4519 105.862 42.4446C105.855 42.4065 105.846 42.3699 105.839 42.3319C105.838 42.3236 105.838 42.3153 105.839 42.307L105.817 42.2149L105.804 42.1593V42.1447C105.789 42.0876 105.775 42.0291 105.762 41.9706C105.655 41.4624 105.628 40.9408 105.681 40.4243C105.77 39.6666 105.911 38.9159 106.103 38.1773L106.134 38.0442L106.169 37.8891C106.193 37.7838 106.215 37.6784 106.237 37.5731C106.256 37.4839 106.274 37.3932 106.29 37.3025C106.306 37.2118 106.318 37.143 106.33 37.0626C106.33 37.0523 106.33 37.0435 106.33 37.0333C106.42 36.488 106.444 35.9341 106.402 35.3831C106.333 34.6181 106.094 33.8939 105.569 33.3161C105.199 32.9079 104.712 32.6066 104.369 32.1779C104.046 31.7756 103.864 31.2812 103.531 30.8877C102.61 29.7963 100.246 28.9552 98.7948 28.8089C97.1329 28.6421 94.4477 29.0634 93.1087 30.0377C92.6133 30.3976 92.2741 30.9155 91.9291 31.4085C91.295 32.3242 90.5739 33.2371 89.5579 33.7491C89.173 33.9422 88.7336 34.0885 88.4785 34.425C88.3244 34.6531 88.2236 34.9125 88.1836 35.1842C87.9876 36.1376 87.8858 37.1077 87.8798 38.0807C87.8578 38.5063 87.9127 38.9324 88.042 39.3388C88.0627 39.3944 88.0877 39.4515 88.1143 39.5056C88.1379 39.5539 88.1644 39.6021 88.1924 39.6519L88.2101 39.6826C88.3881 39.936 88.5463 40.2026 88.6835 40.4799C88.716 40.558 88.7397 40.6395 88.7543 40.7227C88.7795 40.9375 88.7656 41.1551 88.713 41.3649C88.713 41.3971 88.7012 41.4278 88.6938 41.4586L88.6805 41.5259C88.6805 41.5463 88.6805 41.5683 88.6687 41.5888C88.6569 41.6522 88.6466 41.7151 88.6378 41.7775C88.6378 41.8214 88.6289 41.8667 88.6274 41.9121C88.617 42.0933 88.6519 42.2742 88.7292 42.4387C88.7486 42.4779 88.7718 42.5152 88.7985 42.5499C88.8513 42.62 88.9194 42.6775 88.9976 42.7181C89.1733 42.7836 89.3566 42.8269 89.5432 42.8468C90.0947 42.9697 90.4397 43.3881 90.6639 43.9016C90.7136 44.0169 90.7574 44.1345 90.7951 44.2542C90.8871 44.5543 90.9561 44.8609 91.0015 45.1714C91.2522 45.1582 91.3982 44.9388 91.4867 44.6989C91.5143 44.6198 91.5375 44.5392 91.556 44.4575C91.5899 44.3039 91.6238 44.1503 91.6592 43.9967C92.2413 45.2219 93.1789 46.2468 94.3518 46.94C94.3931 47.06 94.4329 47.1814 94.4698 47.3043C94.6629 47.967 94.7559 48.6619 94.4211 49.2412C94.1822 49.6523 93.7797 49.9068 93.3314 50.0823C93.2669 49.9964 93.1837 49.9259 93.0881 49.8761C92.6988 49.683 92.2328 49.9185 91.9084 50.2067C91.3186 50.7363 90.8379 51.4955 90.0608 51.6696C89.7806 51.734 89.4709 51.7208 89.2364 51.8905C89.0821 52.0345 88.953 52.2031 88.8545 52.3893C88.686 52.6292 88.4594 52.8233 88.1956 52.9536C87.9317 53.084 87.6391 53.1465 87.3445 53.1354C87.0747 53.1222 86.7547 53.0608 86.5704 53.2568C86.4332 53.4031 86.4229 53.6357 86.2755 53.7747C86.0764 53.9678 85.7535 53.8727 85.4762 53.861C85.2759 53.8615 85.0778 53.9025 84.894 53.9815C84.7102 54.0605 84.5446 54.1758 84.4072 54.3204C84.3897 53.7301 84.1619 53.1651 83.7642 52.7258C83.3661 52.3191 82.8131 52.1099 82.3413 51.791C81.1616 50.9952 80.5717 49.5967 79.9568 48.3152C79.3419 47.0337 78.5309 45.6819 77.189 45.2153C76.8808 45.107 76.4517 45.0982 76.3131 45.3952C76.266 45.5192 76.2583 45.6545 76.291 45.7829C76.4208 46.4646 76.9103 47.0117 77.3335 47.5603C78.0458 48.4849 78.643 49.6157 78.4704 50.7714C78.2684 52.1392 77.0401 53.2012 76.8926 54.5749C76.8278 55.1805 76.9826 55.7891 76.9811 56.3977C76.9811 56.778 76.9207 57.1628 77.0032 57.5329C77.0909 57.8141 77.1948 58.09 77.3144 58.3594C77.4473 58.8015 77.5158 59.2601 77.5179 59.7214C77.6221 61.6602 77.7258 63.5995 77.829 65.5393C77.9072 66.9861 77.5886 68.4139 77.2672 69.8373C76.8686 70.6811 76.5593 71.5635 76.3441 72.4705C75.9813 74.0548 75.971 75.743 76.4915 77.2849C76.7702 78.1232 77.1979 78.9087 77.4264 79.7616C77.4264 79.7806 77.4353 79.7982 77.4397 79.8157C77.4618 79.9971 77.4869 80.1785 77.5208 80.3585C77.5627 80.5664 77.6174 80.7716 77.6845 80.9729C77.7514 81.3196 77.8603 81.6571 78.0089 81.9779C78.2157 82.3854 78.5194 82.7368 78.8937 83.0019C78.6813 83.4145 78.3377 83.7465 78.1092 84.1503C77.711 84.8496 77.6948 85.7083 77.8393 86.5012C78.118 88.0314 78.9512 89.3992 80.0512 90.511C80.0021 90.5082 79.9529 90.5082 79.9038 90.511C79.5439 90.5505 79.1984 90.6732 78.8951 90.8694C76.5667 92.2196 75.2352 95.1118 75.7218 97.7596C75.8177 98.2775 75.9843 98.8012 76.3323 99.1947C76.622 99.508 76.9944 99.7346 77.4073 99.8487C77.6651 99.9256 77.9306 99.9747 78.1991 99.9949C80.0143 100.141 81.7721 99.3059 83.5917 99.2357C84.195 99.2262 84.7983 99.2541 85.3981 99.3191C86.274 99.3913 87.1519 99.4371 88.0317 99.4566C89.4606 99.4902 90.2657 99.1128 91.1785 98.0522C91.4028 97.789 91.5898 97.4967 91.7344 97.1833C92.51 97.1394 93.3668 97.0721 93.9876 97.0209L93.9964 97.1072C94.0304 97.3998 94.082 97.7362 94.3179 97.922C94.4511 98.0116 94.6018 98.0724 94.7603 98.1005C96.2511 98.4648 97.7596 98.8319 99.2932 98.8319C100.013 98.8171 100.732 98.7619 101.446 98.6666L104.145 98.358C104.93 98.4582 105.705 98.6256 106.461 98.8583C107.24 99.1216 107.968 99.5122 108.729 99.8194C110.499 100.532 112.404 100.786 114.29 101.035C114.611 101.077 114.98 101.107 115.219 100.889C115.525 100.596 115.422 100.106 115.337 99.6965C115.301 99.5297 115.275 99.36 115.253 99.1904C116.526 99.5223 117.771 99.9512 118.978 100.473L119.19 100.565C119.25 100.884 119.548 101.14 119.833 101.484C119.926 101.629 120.035 101.763 120.159 101.884C120.299 101.975 120.459 102.033 120.626 102.052C122.619 102.42 124.654 102.511 126.672 102.322C127.085 102.267 127.502 102.253 127.918 102.28C128.223 102.321 128.524 102.389 128.817 102.482L130.525 102.966C131.783 103.325 133.073 103.686 134.378 103.605C134.643 103.588 134.906 103.55 135.166 103.493C136.198 103.256 137.161 102.682 137.656 101.761C138.321 100.507 137.998 98.9665 137.619 97.5973ZM87.5333 74.7161C87.4807 75.3504 87.3139 75.9702 87.0408 76.5462C86.8579 76.9133 86.622 77.2513 86.4509 77.6199C86.2887 77.9535 86.1678 78.584 86.0956 79.2759C86.0071 79.2613 85.9171 79.2481 85.8287 79.2379C85.9599 78.7815 86.0587 78.3133 86.1899 77.8554C86.5011 76.7671 87.0128 75.7386 87.5333 74.7161Z" fill="url(#paint0_linear_4_1360)"/>
<path d="M89.8057 97.2153C89.4945 96.5131 89.1996 95.7056 89.5107 95.0034C89.7138 94.5899 90.0627 94.2646 90.4913 94.0891C90.9155 93.9175 91.3626 93.8081 91.8185 93.7643C93.2495 93.5781 94.6975 93.5585 96.1331 93.7058C96.2378 94.528 96.0166 95.3618 95.8264 96.1562C95.6539 96.8876 95.5551 96.9959 94.7942 97.0339C94.3017 97.0602 89.9221 97.4742 89.8057 97.2153Z" fill="#FBBEBE"/>
<path d="M102.937 92.4786C114.583 92.4786 124.024 89.8587 124.024 86.627C124.024 83.3952 114.583 80.7754 102.937 80.7754C91.2911 80.7754 81.8502 83.3952 81.8502 86.627C81.8502 89.8587 91.2911 92.4786 102.937 92.4786Z" fill="#464353"/>
<path opacity="0.1" d="M102.937 92.4786C114.583 92.4786 124.024 89.8587 124.024 86.627C124.024 83.3952 114.583 80.7754 102.937 80.7754C91.2911 80.7754 81.8502 83.3952 81.8502 86.627C81.8502 89.8587 91.2911 92.4786 102.937 92.4786Z" fill="black"/>
<path d="M106.718 55.7363C105.995 57.1219 104.795 58.2039 103.335 58.785C102.476 59.0957 101.571 59.2666 100.657 59.2912C99.6559 59.3365 98.6341 59.2722 97.6933 58.9328C96.431 58.4793 95.3826 57.5518 94.5966 56.4707C93.8107 55.3896 93.2695 54.155 92.7991 52.91C92.5513 52.262 92.3154 51.5715 92.4319 50.8868C93.1913 50.7157 94.023 50.4641 94.4152 49.7955C94.75 49.2221 94.6571 48.5345 94.4639 47.8791C94.4093 47.6933 94.3459 47.509 94.2825 47.332C94.1351 46.9078 93.6263 46.1017 93.9802 45.7389C94.2058 45.5092 95.1511 45.3922 95.4769 45.243C96.4811 44.7836 97.4072 44.1195 98.5102 43.9015C99.4642 43.7128 100.449 43.8898 101.402 44.0858C101.528 44.1041 101.65 44.1473 101.759 44.2131C101.883 44.3171 101.975 44.4541 102.024 44.6081C102.295 45.2635 102.455 45.9876 102.673 46.6708C102.9 47.3861 103.192 48.0576 103.739 48.5652C104.165 48.9617 104.708 49.2104 105.239 49.4517L106.545 50.0457C106.778 50.132 106.988 50.2673 107.163 50.4421C107.334 50.6751 107.436 50.9506 107.458 51.2379C107.692 52.7773 107.433 54.3507 106.718 55.7363Z" fill="#FBBEBE"/>
<path opacity="0.1" d="M102.667 46.6708C101.627 47.744 100.258 48.4448 98.7733 48.6635C97.2889 48.8821 95.7733 48.6063 94.4639 47.8791C94.4093 47.6933 94.3459 47.509 94.2825 47.332C94.1351 46.9077 93.6263 46.1017 93.9802 45.7389C94.2058 45.5092 95.151 45.3922 95.4769 45.243C96.4811 44.7836 97.4072 44.1195 98.5102 43.9015C99.4642 43.7128 100.449 43.8898 101.402 44.0858C101.528 44.1041 101.65 44.1473 101.759 44.2131C101.883 44.3171 101.975 44.4541 102.024 44.6081C102.29 45.2635 102.449 45.9876 102.667 46.6708Z" fill="black"/>
<path d="M97.7758 48.4452C101.522 48.4452 104.559 45.4324 104.559 41.7159C104.559 37.9994 101.522 34.9866 97.7758 34.9866C94.0296 34.9866 90.9927 37.9994 90.9927 41.7159C90.9927 45.4324 94.0296 48.4452 97.7758 48.4452Z" fill="#FBBEBE"/>
<path d="M118.442 63.5555L117.885 60.2055C117.603 58.5246 117.313 56.8115 116.525 55.2974C116.008 54.3056 115.186 53.3606 114.079 53.1645C113.861 53.1452 113.646 53.096 113.442 53.0182C113.117 52.8632 112.941 52.515 112.691 52.2575C112.048 51.5963 111.001 51.5861 110.14 51.2496C109.379 50.957 108.757 50.3938 108.064 49.9637C107.371 49.5336 106.508 49.2323 105.742 49.5073C105.618 50.8166 105.486 52.1551 104.926 53.3474C104.561 54.1236 104.026 54.809 103.36 55.3537C102.694 55.8984 101.914 56.2885 101.076 56.4955C100.239 56.7024 99.3649 56.721 98.5191 56.55C97.6733 56.3789 96.8768 56.0224 96.1877 55.5066C94.8738 54.525 94.0318 53.0109 93.6396 51.4266C93.5437 51.0404 93.4346 50.5971 93.0763 50.4201C92.6885 50.227 92.2225 50.4611 91.8966 50.7449C91.2994 51.2701 90.8246 52.022 90.049 52.199C89.7688 52.2634 89.4591 52.2502 89.2261 52.4185C89.0713 52.5602 88.9417 52.7269 88.8427 52.9114C88.673 53.1494 88.4462 53.3416 88.1829 53.4709C87.9195 53.6001 87.6279 53.6622 87.3342 53.6517C87.0644 53.6385 86.7444 53.5771 86.5601 53.7716C86.4229 53.9179 86.4126 54.1461 86.2651 54.2822C86.0661 54.4738 85.7431 54.3802 85.4659 54.37C84.941 54.348 84.4529 54.6816 84.1521 55.1014C83.8512 55.5213 83.7097 56.0406 83.5622 56.5438C85.1739 60.1045 86.6485 63.6696 88.2603 67.2303C88.3358 67.3645 88.3759 67.5155 88.3768 67.6692C88.3444 67.8287 88.2758 67.9788 88.1762 68.108C87.3858 69.3676 87.4109 70.9519 87.4979 72.4324C87.5849 73.9128 87.6911 75.4766 87.0246 76.8035C86.8432 77.1678 86.6072 77.5013 86.4347 77.8656C86.0307 78.6906 85.8847 81.3297 86.1206 82.2162H119.446C118.811 80.4827 119.053 77.0039 119.185 75.1636C119.278 73.8762 119.038 72.5903 118.935 71.303C118.718 68.6742 118.88 66.1799 118.442 63.5555Z" fill="#F86D70"/>
<path d="M120.148 81.1922C120.639 81.0064 121.181 81.0737 121.707 81.1439C123.401 81.3736 125.121 81.6091 126.691 82.2806C127.428 82.5936 128.13 83.012 128.629 83.6279C129.071 84.1823 129.329 84.8611 129.574 85.5297L130.14 87.0642C130.355 87.6494 130.574 88.2463 130.634 88.868C130.811 90.7098 129.541 92.4462 127.945 93.403C126.348 94.3597 124.467 94.7005 122.636 95.0575C120.805 95.4144 118.966 95.8094 117.142 96.2278C116.291 96.4468 115.428 96.6154 114.557 96.7325C112.604 96.9519 110.563 96.6286 108.708 97.2694C107.971 97.5254 107.247 97.9057 106.482 98.0828C105.974 98.1932 105.461 98.2753 104.944 98.3285L101.433 98.7264C100.719 98.8212 100 98.8759 99.2799 98.8903C97.7463 98.8903 96.2378 98.5304 94.7485 98.1705C94.5901 98.143 94.4394 98.0827 94.3061 97.9935C94.0702 97.8092 94.0186 97.483 93.9846 97.1875C93.8342 95.8796 93.7025 94.5703 93.5895 93.2596C93.5541 92.8339 93.5275 92.3731 93.762 92.0147C94.0569 91.5758 94.632 91.4383 95.157 91.3534C97.3829 90.9922 99.6379 90.8369 101.893 90.8897C102.75 90.0398 104.162 90.0354 105.284 89.5731C105.697 89.385 106.097 89.1695 106.48 88.928C108.487 87.7665 110.729 87.0634 113.044 86.8697C113.497 86.8559 113.948 86.7921 114.387 86.6795C115.256 86.4118 116.047 85.6833 116.94 85.8617C117.05 85.5589 117.127 85.1537 117.382 84.946C117.509 84.8392 117.665 84.7675 117.782 84.6534C118.028 84.4062 118.05 84.017 118.013 83.6718C117.976 83.3265 117.894 82.9725 117.984 82.636C118.021 82.5087 118.076 82.3871 118.147 82.2747C118.591 81.5052 119.259 81.119 120.148 81.1922Z" fill="#464353"/>
<path opacity="0.05" d="M120.148 81.1922C120.639 81.0064 121.181 81.0737 121.707 81.1439C123.401 81.3736 125.121 81.6091 126.691 82.2806C127.428 82.5936 128.13 83.012 128.629 83.6279C129.071 84.1823 129.329 84.8611 129.574 85.5297L130.14 87.0642C130.355 87.6494 130.574 88.2463 130.634 88.868C130.811 90.7098 129.541 92.4462 127.945 93.403C126.348 94.3597 124.467 94.7005 122.636 95.0575C120.805 95.4144 118.966 95.8094 117.142 96.2278C116.291 96.4468 115.428 96.6154 114.557 96.7325C112.604 96.9519 110.563 96.6286 108.708 97.2694C107.971 97.5254 107.247 97.9057 106.482 98.0828C105.974 98.1932 105.461 98.2753 104.944 98.3285L101.433 98.7264C100.719 98.8212 100 98.8759 99.2799 98.8903C97.7463 98.8903 96.2378 98.5304 94.7485 98.1705C94.5901 98.143 94.4394 98.0827 94.3061 97.9935C94.0702 97.8092 94.0186 97.483 93.9846 97.1875C93.8342 95.8796 93.7025 94.5703 93.5895 93.2596C93.5541 92.8339 93.5275 92.3731 93.762 92.0147C94.0569 91.5758 94.632 91.4383 95.157 91.3534C97.3829 90.9922 99.6379 90.8369 101.893 90.8897C102.75 90.0398 104.162 90.0354 105.284 89.5731C105.697 89.385 106.097 89.1695 106.48 88.928C108.487 87.7665 110.729 87.0634 113.044 86.8697C113.497 86.8559 113.948 86.7921 114.387 86.6795C115.256 86.4118 116.047 85.6833 116.94 85.8617C117.05 85.5589 117.127 85.1537 117.382 84.946C117.509 84.8392 117.665 84.7675 117.782 84.6534C118.028 84.4062 118.05 84.017 118.013 83.6718C117.976 83.3265 117.894 82.9725 117.984 82.636C118.021 82.5087 118.076 82.3871 118.147 82.2747C118.591 81.5052 119.259 81.119 120.148 81.1922Z" fill="black"/>
<path d="M91.1623 98.1194C90.2495 99.1683 89.4459 99.5428 88.017 99.5091C87.1381 99.4887 86.2602 99.4433 85.3833 99.3731C84.784 99.3088 84.1812 99.2809 83.5784 99.2897C81.7588 99.3599 80.0026 100.186 78.1873 100.042C77.9189 100.021 77.6535 99.9716 77.3955 99.8953C76.986 99.7822 76.616 99.5589 76.3264 99.2502C75.9784 98.8596 75.8118 98.3417 75.7159 97.8297C75.2308 95.2053 76.5609 92.3468 78.8892 91.0111C79.193 90.8165 79.5384 90.6948 79.8979 90.6557C80.2504 90.6542 80.5988 90.7302 80.9183 90.878L80.9404 90.8868C81.8864 91.2729 82.7455 91.8418 83.4678 92.5604C83.5774 92.6849 83.7082 92.7893 83.8542 92.869C83.9999 92.9236 84.1541 92.9523 84.3098 92.9539L86.2475 93.0753C86.5757 93.085 86.902 93.1296 87.2207 93.2084C87.572 93.3301 87.914 93.4768 88.2441 93.6473C89.2866 94.1096 90.4427 94.2325 91.5693 94.4109C91.6778 94.4169 91.7814 94.458 91.8642 94.528C91.9091 94.5834 91.9404 94.6486 91.9556 94.7181C92.1129 95.3063 92.1228 95.9236 91.9846 96.5165C91.8463 97.1093 91.564 97.6596 91.1623 98.1194Z" fill="#3F3D56"/>
<path opacity="0.1" d="M80.9345 90.8868C80.1827 91.5989 79.5306 92.4078 78.9954 93.2918C78.1366 94.7507 77.597 96.3726 77.4117 98.0521C77.3414 98.6647 77.336 99.283 77.3955 99.8968C76.9858 99.7833 76.6158 99.5595 76.3264 99.2502C75.9784 98.8596 75.8118 98.3417 75.7159 97.8297C75.2308 95.2053 76.5609 92.3468 78.8892 91.0111C79.193 90.8165 79.5384 90.6948 79.8978 90.6557C80.2503 90.6542 80.5988 90.7302 80.9183 90.878L80.9345 90.8868Z" fill="black"/>
<path d="M118.461 94.525C119.545 94.4957 120.762 94.4416 121.558 95.1657C122.318 95.8504 122.418 96.9797 122.468 97.9964L122.525 99.177C122.543 99.5369 122.558 99.9084 122.412 100.242C122.152 100.827 121.44 101.109 120.79 101.076C120.14 101.042 119.542 100.76 118.948 100.505C117.335 99.8158 115.655 99.2908 113.934 98.9385C113.99 98.1222 114.084 97.3098 114.215 96.5014C114.305 95.9411 114.319 95.0034 114.697 94.5382C115.096 94.0466 115.617 94.3129 116.16 94.4036C116.921 94.5188 117.692 94.5595 118.461 94.525Z" fill="#FBBEBE"/>
<path d="M89.8219 82.6639C89.8219 82.8102 89.5904 82.6639 89.5697 82.5074C89.4075 81.3239 88.4608 80.3482 87.3578 79.8742C86.2548 79.4002 84.9985 79.3753 83.8041 79.488C81.9977 79.6577 79.9775 80.3438 79.3095 82.0188C79.1532 82.4109 79.0824 82.8351 78.8907 83.2111C78.6784 83.6236 78.3318 83.9527 78.1018 84.3536C77.7051 85.047 77.6889 85.8969 77.832 86.6811C78.2168 88.773 79.659 90.5621 81.4064 91.8012C83.1538 93.0403 85.1961 93.7805 87.2325 94.4476C92.6172 96.2094 98.1419 97.5185 103.748 98.3608C104.656 98.4969 105.573 98.6227 106.444 98.9123C107.222 99.1713 107.951 99.5589 108.711 99.8632C110.481 100.568 112.385 100.82 114.271 101.067C114.592 101.108 114.961 101.137 115.198 100.921C115.505 100.639 115.403 100.147 115.316 99.7418C114.996 98.2023 115.263 96.5998 116.067 95.2449C116.382 94.7182 116.792 94.1784 116.733 93.5684C116.662 92.8574 115.949 92.3542 115.238 92.2401C114.527 92.126 113.805 92.2942 113.091 92.3864C112.845 92.4185 112.576 92.439 112.354 92.3147C112.248 92.2436 112.151 92.159 112.068 92.0631C111.576 91.5925 110.947 91.2885 110.27 91.1947C109.594 91.1009 108.904 91.222 108.301 91.5408C108.038 91.6871 107.638 91.3609 107.364 91.238L104.266 89.8438C100.703 88.2449 97.1226 86.6386 93.3535 85.6263C93.0528 85.5677 92.767 85.4498 92.513 85.2796C92.3257 85.1333 92.1915 84.9344 92.019 84.772C91.643 84.4194 91.1195 84.279 90.6683 84.0288C90.2171 83.7787 89.7157 83.1657 89.8219 82.6639Z" fill="#464353"/>
<path d="M137.627 101.783C137.131 102.694 136.17 103.262 135.138 103.496C134.879 103.554 134.615 103.591 134.35 103.607C133.045 103.687 131.756 103.329 130.499 102.975L128.791 102.495C128.497 102.403 128.196 102.337 127.891 102.296C127.476 102.269 127.059 102.283 126.647 102.338C124.629 102.525 122.594 102.434 120.601 102.069C120.434 102.051 120.274 101.995 120.134 101.904C120.01 101.784 119.901 101.651 119.808 101.508C119.343 100.953 118.843 100.63 119.393 99.8983C119.71 99.4741 120.299 99.262 120.545 98.7748C120.791 98.2877 120.633 97.5957 120.487 97.0925C120.288 96.3976 119.634 96.0977 119.399 95.4599C119.224 94.9786 119.519 94.4198 119.963 94.1579C120.406 93.8961 120.955 93.8756 121.467 93.9429C121.978 94.0102 122.48 94.1535 122.994 94.193C124.507 94.313 126.054 93.5391 127.507 93.9751C127.827 94.0716 128.129 94.2252 128.453 94.3101C129.086 94.4504 129.746 94.3937 130.345 94.1477C130.557 94.0687 130.765 93.9736 130.972 93.88C131.37 93.6744 131.794 93.5223 132.233 93.4279C133.65 93.1866 134.964 94.1594 136.033 95.1088C136.4 95.411 136.724 95.7603 136.999 96.1475C137.293 96.6039 137.45 97.1349 137.588 97.6586C137.979 99.0147 138.302 100.539 137.627 101.783Z" fill="#3F3D56"/>
<path opacity="0.1" d="M137.627 101.783C137.131 102.694 136.17 103.262 135.138 103.496C135.539 102.722 135.72 101.854 135.661 100.985C135.573 99.594 134.956 98.2833 134.17 97.1276C133.687 96.4162 133.137 95.7515 132.528 95.1424C132.059 94.6743 131.482 94.3027 130.978 93.8741C131.376 93.6685 131.8 93.5165 132.239 93.4221C133.656 93.1807 134.969 94.1535 136.039 95.1029C136.406 95.4051 136.73 95.7544 137.004 96.1416C137.299 96.598 137.456 97.1291 137.594 97.6528C137.979 99.0147 138.302 100.539 137.627 101.783Z" fill="black"/>
<path d="M93.0896 30.7939C92.5941 31.1494 92.2549 31.6599 91.9099 32.15C91.2743 33.0555 90.5547 33.9596 89.5387 34.4643C89.1539 34.6559 88.7144 34.8008 88.4593 35.1343C88.3079 35.3599 88.2096 35.6164 88.1718 35.8848C87.9772 36.8285 87.8754 37.7888 87.868 38.7521C87.868 39.2319 87.8887 39.7263 88.1025 40.1623C88.3045 40.5719 88.6687 40.9186 88.7439 41.3648C88.8014 41.713 88.6717 42.0597 88.626 42.4093C88.5803 42.7589 88.6599 43.1729 88.9858 43.3397C89.1614 43.4052 89.3447 43.448 89.5314 43.467C90.512 43.6835 90.8408 44.8245 90.9897 45.7681C91.323 45.7491 91.4734 45.3702 91.5427 45.0615L92.5646 40.5543C92.6752 40.0657 92.8595 39.4996 93.3506 39.3284C93.6794 39.2158 94.0392 39.3211 94.3828 39.3504C95.732 39.4601 96.8733 38.4258 98.1931 38.1406C98.6156 38.0565 99.0475 38.0284 99.4775 38.0572C100.519 38.1084 101.729 38.5326 101.95 39.4967C101.987 39.6532 102.009 39.8404 102.157 39.918C102.304 39.9955 102.452 39.9297 102.614 39.918C103.275 39.8522 103.664 40.5894 103.854 41.1922L104.547 43.3865C104.65 43.7186 104.824 44.1092 105.187 44.1516C105.522 44.1926 105.806 43.878 105.857 43.5664C105.907 43.2548 105.798 42.9315 105.725 42.6185C105.399 41.1775 105.898 39.7029 106.202 38.2591C106.505 36.8152 106.56 35.1563 105.541 34.0445C105.171 33.6422 104.684 33.3423 104.339 32.918C104.018 32.5201 103.836 32.0315 103.503 31.6409C102.581 30.5628 100.218 29.7304 98.7682 29.5929C97.1181 29.4129 94.4285 29.8298 93.0896 30.7939Z" fill="#3F3D56"/>
<g opacity="0.1">
<path opacity="0.1" d="M105.193 43.1262C104.83 43.0823 104.656 42.6873 104.553 42.3611C104.322 41.6287 104.091 40.8972 103.86 40.1667C103.67 39.5626 103.28 38.8253 102.62 38.8926C102.472 38.9087 102.298 38.9686 102.163 38.8926C102.027 38.8165 101.993 38.6278 101.956 38.4712C101.735 37.5057 100.524 37.083 99.4834 37.0318C99.0535 37.0037 98.6217 37.0318 98.199 37.1151C96.8719 37.4077 95.7379 38.4317 94.3887 38.325C94.0407 38.2972 93.6809 38.1918 93.3565 38.3045C92.8595 38.4742 92.6811 39.0359 92.5705 39.5304L91.5486 44.0361C91.4793 44.3462 91.3289 44.7251 90.9957 44.7427C90.8482 43.8006 90.5179 42.6595 89.5373 42.443C89.3509 42.4226 89.1677 42.3799 88.9917 42.3157C88.8634 42.2462 88.763 42.1352 88.7071 42.0012C88.6805 42.1373 88.6496 42.2733 88.6319 42.4094C88.5876 42.7575 88.6658 43.173 88.9917 43.3398C89.1673 43.4053 89.3507 43.4481 89.5373 43.467C90.5179 43.6836 90.8467 44.8246 90.9957 45.7682C91.3289 45.7492 91.4793 45.3703 91.5486 45.0616L92.5705 40.5544C92.6811 40.0658 92.8654 39.4997 93.3565 39.3285C93.6853 39.2159 94.0451 39.3212 94.3887 39.3504C95.7379 39.4602 96.8793 38.4259 98.199 38.1406C98.6196 38.0571 99.0495 38.029 99.4775 38.0572C100.519 38.1084 101.729 38.5327 101.95 39.4967C101.987 39.6533 102.009 39.8405 102.157 39.9181C102.304 39.9956 102.452 39.9298 102.614 39.9181C103.275 39.8522 103.664 40.5895 103.854 41.1922C104.084 41.9247 104.315 42.6561 104.547 43.3866C104.65 43.7187 104.824 44.1093 105.187 44.1517C105.522 44.1926 105.806 43.8781 105.857 43.5665C105.879 43.3043 105.849 43.0403 105.768 42.7897C105.716 42.8953 105.633 42.9833 105.531 43.0431C105.429 43.1029 105.312 43.1318 105.193 43.1262Z" fill="black"/>
<path opacity="0.1" d="M88.7455 40.3407C88.6703 39.8945 88.3031 39.5478 88.104 39.1382C87.976 38.862 87.9019 38.5641 87.8857 38.2605C87.8857 38.4243 87.871 38.5882 87.8695 38.7535C87.8695 39.2333 87.8902 39.7278 88.104 40.1637C88.2677 40.4958 88.5375 40.7884 88.6732 41.1263C88.7447 40.8709 88.7692 40.6048 88.7455 40.3407Z" fill="black"/>
<path opacity="0.1" d="M106.208 37.2277C105.939 38.5034 105.52 39.8024 105.65 41.081C105.734 40.1374 106.011 39.188 106.208 38.2518C106.371 37.5412 106.429 36.8108 106.379 36.0837C106.346 36.4683 106.289 36.8505 106.208 37.2277Z" fill="black"/>
</g>
<path d="M89.3264 70.0216C89.148 72.9269 86.9995 75.3275 86.1811 78.1217C85.9776 78.8209 85.8552 79.5465 85.5633 80.2121C84.9734 81.5507 83.7598 82.522 82.4666 83.2067C81.9948 83.4772 81.4787 83.6634 80.9419 83.7567C80.3518 83.8251 79.7547 83.7135 79.2302 83.4367C78.7057 83.16 78.2786 82.7312 78.006 82.2075C77.6683 81.5273 77.6211 80.7446 77.4161 80.0132C77.1876 79.1691 76.7599 78.3908 76.4812 77.5614C75.9681 76.0356 75.9784 74.3649 76.3338 72.7967C76.6705 71.4329 77.2034 70.1244 77.916 68.9113C78.0192 68.7313 78.1239 68.5529 78.2316 68.3758C78.5357 67.8641 78.8773 67.3752 79.2535 66.9129C80.1382 65.8553 81.2751 65.0419 82.4003 64.2402C82.4862 64.17 82.587 64.12 82.6952 64.0939H82.7129C82.8397 64.0895 82.9655 64.1188 83.0771 64.1788C84.6374 64.848 86.1351 65.6528 87.5525 66.5838C88.0598 66.9188 88.8605 67.2933 89.1259 67.8638C89.3913 68.4344 89.3648 69.4013 89.3264 70.0216Z" fill="#FBBEBE"/>
<path d="M83.4723 56.652C83.3286 56.8012 83.2172 56.9779 83.1449 57.1714C81.9529 59.8364 81.2489 62.6907 81.0657 65.6006C81.0689 65.7425 81.036 65.8829 80.9699 66.0087C80.9047 66.0925 80.8322 66.1703 80.7531 66.2413C80.6813 66.3258 80.6278 66.4239 80.5957 66.5297C80.5637 66.6354 80.5538 66.7466 80.5668 66.8563C80.5798 66.966 80.6154 67.0719 80.6713 67.1674C80.7271 67.2629 80.8022 67.346 80.8917 67.4117C81.135 66.9567 81.7175 66.8089 82.2351 66.7694C84.7139 66.5749 87.1352 67.7189 89.6213 67.6326C89.4458 67.0313 89.1937 66.4535 89.0506 65.8449C88.418 63.1429 89.9959 60.201 89.0285 57.5985C88.8354 57.0777 88.5124 56.5657 88.0037 56.3375C87.7931 56.2531 87.5726 56.1951 87.3475 56.1649C86.7193 56.0523 85.4689 55.571 84.8613 55.7641C84.6372 55.8357 84.5487 56.0449 84.3629 56.1707C84.0872 56.3507 83.7126 56.4136 83.4723 56.652Z" fill="#F86D70"/>
<path opacity="0.1" d="M84.4883 80.8412C84.1091 81.4791 83.5708 82.0095 82.9251 82.3813C82.2795 82.7531 81.5482 82.9537 80.8018 82.9638C80.3978 82.9743 79.996 82.9011 79.6221 82.7488C78.6798 82.3362 78.1475 81.3151 77.9499 80.3116C77.7523 79.308 77.8143 78.2723 77.6742 77.2585C77.5621 76.451 77.3232 75.6669 77.1994 74.8608C76.8956 72.8669 77.4943 70.8978 77.9204 68.9127C78.0237 68.7328 78.1283 68.5543 78.236 68.3773C78.5402 67.8655 78.8817 67.3766 79.2579 66.9144C80.1426 65.8567 81.2795 65.0433 82.4047 64.2417H81.225C81.2535 64.2209 81.287 64.208 81.3222 64.2042C81.3573 64.2004 81.3929 64.2058 81.4253 64.2198C81.4577 64.2339 81.4858 64.2561 81.5068 64.2844C81.5278 64.3126 81.541 64.3458 81.545 64.3806C81.6615 65.4047 83.1169 66.4287 83.4339 67.4235C83.63 68.035 83.866 68.6347 84.0238 69.2579C84.1481 69.7887 84.2426 70.3259 84.3069 70.8671C84.5163 72.3817 84.7247 73.8934 84.9321 75.4021C85.1931 77.2439 85.4172 79.2349 84.4883 80.8412Z" fill="black"/>
<path d="M82.5359 61.6332L83.9589 57.205C84.1712 56.5423 84.3865 55.8694 84.4116 55.1731C84.4367 54.4767 84.2523 53.7467 83.7613 53.2494C83.3631 52.8471 82.8117 52.6393 82.3398 52.3248C81.1601 51.5363 80.5703 50.1553 79.9554 48.8841C79.3405 47.6128 78.5309 46.2831 77.189 45.812C76.8794 45.7037 76.4517 45.695 76.3131 45.989C76.2652 46.1113 76.2574 46.2454 76.291 46.3723C76.4208 47.0481 76.9089 47.588 77.3335 48.1278C78.0458 49.0421 78.6415 50.1612 78.4704 51.3052C78.267 52.6598 77.0401 53.7102 76.8926 55.0721C76.8278 55.6719 76.9826 56.2732 76.9811 56.8773C76.9811 57.2518 76.9192 57.6337 77.0032 57.9994C77.0905 58.2822 77.1944 58.5596 77.3144 58.8303C77.4457 59.2677 77.5142 59.7213 77.5179 60.1776L77.829 65.9356C77.9971 69.0501 76.294 72.0797 76.7629 75.1518C76.8867 75.9579 77.1256 76.742 77.2377 77.5495C77.3851 78.5633 77.3158 79.5976 77.5134 80.6026C77.711 81.6076 78.2507 82.6272 79.1856 83.0398C79.5595 83.1921 79.9613 83.2653 80.3653 83.2548C81.1118 83.2447 81.843 83.0441 82.4887 82.6723C83.1343 82.3005 83.6726 81.7701 84.0518 81.1321C84.9808 79.523 84.7566 77.5349 84.503 75.7004L83.8778 71.1654C83.8136 70.6243 83.719 70.087 83.5947 69.5563C83.4384 68.9331 83.2024 68.3333 83.0048 67.7218C82.3722 65.722 81.8989 63.6198 82.5359 61.6332Z" fill="#FBBEBE"/>
<path d="M120.415 61.9771H89.8823C89.2333 61.9771 88.7071 62.4991 88.7071 63.143V81.5842C88.7071 82.2281 89.2333 82.7501 89.8823 82.7501H120.415C121.064 82.7501 121.59 82.2281 121.59 81.5842V63.143C121.59 62.4991 121.064 61.9771 120.415 61.9771Z" fill="#3F3D56"/>
<path opacity="0.2" d="M120.415 61.9771H89.8823C89.2333 61.9771 88.7071 62.4991 88.7071 63.143V81.5842C88.7071 82.2281 89.2333 82.7501 89.8823 82.7501H120.415C121.064 82.7501 121.59 82.2281 121.59 81.5842V63.143C121.59 62.4991 121.064 61.9771 120.415 61.9771Z" fill="black"/>
<path d="M105.075 73.2413C105.564 73.2413 105.96 72.8483 105.96 72.3635C105.96 71.8788 105.564 71.4858 105.075 71.4858C104.586 71.4858 104.19 71.8788 104.19 72.3635C104.19 72.8483 104.586 73.2413 105.075 73.2413Z" fill="white"/>
<path d="M66.2741 89.3829H68.0598C69.0375 89.3829 69.9752 89.7682 70.6666 90.4541C71.3579 91.14 71.7463 92.0702 71.7463 93.0402V98.469H62.5876V93.0402C62.5876 92.0702 62.976 91.14 63.6674 90.4541C64.3587 89.7682 65.2964 89.3829 66.2741 89.3829Z" fill="#3F3D56"/>
<path opacity="0.1" d="M66.2741 89.3829H68.0598C69.0375 89.3829 69.9752 89.7682 70.6666 90.4541C71.3579 91.14 71.7463 92.0702 71.7463 93.0402V98.469H62.5876V93.0402C62.5876 92.0702 62.976 91.14 63.6674 90.4541C64.3587 89.7682 65.2964 89.3829 66.2741 89.3829Z" fill="black"/>
<path d="M66.802 91.3827C67.2068 91.3827 67.5349 91.0572 67.5349 90.6557C67.5349 90.2541 67.2068 89.9286 66.802 89.9286C66.3972 89.9286 66.0691 90.2541 66.0691 90.6557C66.0691 91.0572 66.3972 91.3827 66.802 91.3827Z" fill="#3F3D56"/>
<path d="M66.802 90.4743C67.2068 90.4743 67.5349 90.1487 67.5349 89.7472C67.5349 89.3457 67.2068 89.0201 66.802 89.0201C66.3972 89.0201 66.0691 89.3457 66.0691 89.7472C66.0691 90.1487 66.3972 90.4743 66.802 90.4743Z" fill="#3F3D56"/>
<path d="M66.802 89.5658C67.2068 89.5658 67.5349 89.2403 67.5349 88.8388C67.5349 88.4372 67.2068 88.1117 66.802 88.1117C66.3972 88.1117 66.0691 88.4372 66.0691 88.8388C66.0691 89.2403 66.3972 89.5658 66.802 89.5658Z" fill="#3F3D56"/>
<path d="M66.802 88.6574C67.2068 88.6574 67.5349 88.3319 67.5349 87.9303C67.5349 87.5288 67.2068 87.2032 66.802 87.2032C66.3972 87.2032 66.0691 87.5288 66.0691 87.9303C66.0691 88.3319 66.3972 88.6574 66.802 88.6574Z" fill="#3F3D56"/>
<path d="M66.802 87.7489C67.2068 87.7489 67.5349 87.4234 67.5349 87.0219C67.5349 86.6203 67.2068 86.2948 66.802 86.2948C66.3972 86.2948 66.0691 86.6203 66.0691 87.0219C66.0691 87.4234 66.3972 87.7489 66.802 87.7489Z" fill="#3F3D56"/>
<path d="M66.802 86.8405C67.2068 86.8405 67.5349 86.515 67.5349 86.1134C67.5349 85.7119 67.2068 85.3864 66.802 85.3864C66.3972 85.3864 66.0691 85.7119 66.0691 86.1134C66.0691 86.515 66.3972 86.8405 66.802 86.8405Z" fill="#3F3D56"/>
<path d="M66.802 85.932C67.2068 85.932 67.5349 85.6065 67.5349 85.205C67.5349 84.8034 67.2068 84.4779 66.802 84.4779C66.3972 84.4779 66.0691 84.8034 66.0691 85.205C66.0691 85.6065 66.3972 85.932 66.802 85.932Z" fill="#3F3D56"/>
<path d="M67.9006 86.2948C68.3053 86.2948 68.6335 85.9693 68.6335 85.5678C68.6335 85.1662 68.3053 84.8407 67.9006 84.8407C67.4958 84.8407 67.1677 85.1662 67.1677 85.5678C67.1677 85.9693 67.4958 86.2948 67.9006 86.2948Z" fill="#3F3D56"/>
<path d="M68.6335 85.932C69.0382 85.932 69.3663 85.6065 69.3663 85.205C69.3663 84.8034 69.0382 84.4779 68.6335 84.4779C68.2287 84.4779 67.9006 84.8034 67.9006 85.205C67.9006 85.6065 68.2287 85.932 68.6335 85.932Z" fill="#3F3D56"/>
<path d="M69.3663 85.5678C69.7711 85.5678 70.0992 85.2423 70.0992 84.8407C70.0992 84.4392 69.7711 84.1136 69.3663 84.1136C68.9616 84.1136 68.6335 84.4392 68.6335 84.8407C68.6335 85.2423 68.9616 85.5678 69.3663 85.5678Z" fill="#3F3D56"/>
<path d="M66.802 85.0221C67.2068 85.0221 67.5349 84.6966 67.5349 84.295C67.5349 83.8935 67.2068 83.568 66.802 83.568C66.3972 83.568 66.0691 83.8935 66.0691 84.295C66.0691 84.6966 66.3972 85.0221 66.802 85.0221Z" fill="#3F3D56"/>
<path d="M66.802 84.1136C67.2068 84.1136 67.5349 83.788 67.5349 83.3865C67.5349 82.9849 67.2068 82.6594 66.802 82.6594C66.3972 82.6594 66.0691 82.9849 66.0691 83.3865C66.0691 83.788 66.3972 84.1136 66.802 84.1136Z" fill="#3F3D56"/>
<path d="M66.802 83.2051C67.2068 83.2051 67.5349 82.8796 67.5349 82.478C67.5349 82.0765 67.2068 81.751 66.802 81.751C66.3972 81.751 66.0691 82.0765 66.0691 82.478C66.0691 82.8796 66.3972 83.2051 66.802 83.2051Z" fill="#3F3D56"/>
<path d="M66.802 82.2967C67.2068 82.2967 67.5349 81.9711 67.5349 81.5696C67.5349 81.1681 67.2068 80.8425 66.802 80.8425C66.3972 80.8425 66.0691 81.1681 66.0691 81.5696C66.0691 81.9711 66.3972 82.2967 66.802 82.2967Z" fill="#3F3D56"/>
<path d="M69.8382 79.2246C69.6568 79.251 69.474 79.27 69.2911 79.2817C69.4611 79.1345 69.6189 78.9741 69.763 78.8019C69.6609 78.4966 69.5117 78.2088 69.3206 77.949C69.1389 78.0502 68.9381 78.113 68.7308 78.1333C68.5494 78.1597 68.3665 78.1801 68.1837 78.1918C68.4294 77.9599 68.6632 77.7157 68.8841 77.4604C68.354 76.9874 67.6762 76.7093 66.9641 76.6728C66.252 76.6363 65.5489 76.8435 64.9725 77.2598C64.396 77.6761 63.9811 78.2761 63.7973 78.9596C63.6135 79.643 63.6718 80.3683 63.9626 81.0142C64.2534 81.6601 64.7589 82.1873 65.3947 82.5076C66.0304 82.8278 66.7577 82.9218 67.4549 82.7737C68.1521 82.6256 68.7769 82.2444 69.2247 81.694C69.6725 81.1435 69.9161 80.4572 69.9149 79.7498C69.9149 79.5718 69.8991 79.3941 69.8677 79.2188L69.8382 79.2246Z" fill="#0098AC"/>
<path d="M72.2875 82.8365C72.1003 82.9502 71.8896 83.0203 71.6711 83.0414C71.4897 83.0677 71.3069 83.0867 71.124 83.0984C71.3184 82.9255 71.4998 82.7387 71.6667 82.5396C71.2248 82.4253 70.7559 82.4786 70.3515 82.6891C69.9472 82.8996 69.6365 83.2521 69.4802 83.6778C69.324 84.1034 69.3334 84.5716 69.5065 84.9908C69.6797 85.4099 70.0043 85.7499 70.4167 85.9443C70.8292 86.1387 71.2999 86.1735 71.7369 86.0419C72.1738 85.9103 72.5455 85.6217 72.7794 85.2326C73.0133 84.8435 73.0925 84.3819 73.0015 83.938C72.9106 83.4941 72.6559 83.0998 72.2875 82.8322V82.8365Z" fill="#0098AC"/>
<path d="M65.702 86.2948C66.1067 86.2948 66.4349 85.9693 66.4349 85.5678C66.4349 85.1662 66.1067 84.8407 65.702 84.8407C65.2972 84.8407 64.9691 85.1662 64.9691 85.5678C64.9691 85.9693 65.2972 86.2948 65.702 86.2948Z" fill="#3F3D56"/>
<path d="M64.9691 85.932C65.3738 85.932 65.702 85.6065 65.702 85.205C65.702 84.8034 65.3738 84.4779 64.9691 84.4779C64.5643 84.4779 64.2362 84.8034 64.2362 85.205C64.2362 85.6065 64.5643 85.932 64.9691 85.932Z" fill="#3F3D56"/>
<path d="M64.2362 85.5678C64.6409 85.5678 64.9691 85.2423 64.9691 84.8407C64.9691 84.4392 64.6409 84.1136 64.2362 84.1136C63.8314 84.1136 63.5033 84.4392 63.5033 84.8407C63.5033 85.2423 63.8314 85.5678 64.2362 85.5678Z" fill="#3F3D56"/>
<path d="M61.315 82.8365C61.5021 82.9505 61.7129 83.0205 61.9314 83.0414C62.1128 83.0677 62.2956 83.0867 62.4785 83.0984C62.2838 82.9258 62.1024 82.7391 61.9358 82.5396C62.3777 82.4253 62.8466 82.4786 63.251 82.6891C63.6553 82.8996 63.966 83.2521 64.1222 83.6778C64.2785 84.1034 64.2691 84.5716 64.0959 84.9908C63.9228 85.4099 63.5982 85.7499 63.1858 85.9443C62.7733 86.1387 62.3026 86.1735 61.8657 86.0419C61.4287 85.9103 61.057 85.6217 60.8231 85.2326C60.5892 84.8435 60.51 84.3819 60.601 83.938C60.692 83.4941 60.9466 83.0998 61.315 82.8322V82.8365Z" fill="#0098AC"/>
<path d="M66.2741 89.9286H68.0598C69.0375 89.9286 69.9752 90.3139 70.6666 90.9998C71.3579 91.6856 71.7463 92.6159 71.7463 93.5858V98.3944C71.7463 98.5589 71.6804 98.7167 71.5632 98.833C71.4459 98.9493 71.2869 99.0146 71.1211 99.0146H63.2128C63.047 99.0146 62.888 98.9493 62.7707 98.833C62.6535 98.7167 62.5876 98.5589 62.5876 98.3944V93.5858C62.5876 92.6159 62.976 91.6856 63.6674 90.9998C64.3587 90.3139 65.2964 89.9286 66.2741 89.9286Z" fill="#3F3D56"/>
<g opacity="0.1">
<path opacity="0.1" d="M69.8942 79.4235C69.82 79.5021 69.7413 79.5763 69.6583 79.6458C69.7423 79.6458 69.8249 79.6327 69.909 79.6239C69.906 79.5566 69.9016 79.4893 69.8942 79.4235Z" fill="black"/>
<path opacity="0.1" d="M68.5582 78.5546C68.7426 78.5429 68.9239 78.5239 69.1068 78.4976C69.2708 78.4769 69.4312 78.4336 69.5831 78.3688C69.5085 78.2226 69.4227 78.0822 69.3265 77.949C69.2348 78.0044 69.1354 78.0463 69.0316 78.0733C68.887 78.246 68.7287 78.407 68.5582 78.5546Z" fill="black"/>
<path opacity="0.1" d="M64.0534 80.1155C64.0523 79.5609 64.202 79.0162 64.4867 78.5389C64.7714 78.0616 65.1806 77.6693 65.6712 77.4034C66.1618 77.1374 66.7156 77.0076 67.2743 77.0277C67.833 77.0478 68.3759 77.2169 68.8458 77.5174L68.893 77.4677C68.5863 77.197 68.2286 76.9891 67.8406 76.8562C67.4526 76.7232 67.0419 76.6677 66.6322 76.6929C66.2225 76.7181 65.8219 76.8235 65.4534 77.003C65.0849 77.1825 64.7559 77.4326 64.4853 77.7388C64.2146 78.045 64.0078 78.4013 63.8766 78.7872C63.7454 79.1731 63.6924 79.5809 63.7208 79.9872C63.7492 80.3934 63.8583 80.7901 64.042 81.1544C64.2256 81.5186 64.48 81.8432 64.7907 82.1094C64.3138 81.5529 64.0524 80.846 64.0534 80.1155Z" fill="black"/>
</g>
<g opacity="0.1">
<path opacity="0.1" d="M71.124 83.4611C71.3069 83.4494 71.4897 83.4304 71.6711 83.404C71.8897 83.3836 72.1006 83.3135 72.2875 83.1992C72.4945 83.3505 72.6672 83.5433 72.7942 83.7651C72.9212 83.9869 72.9998 84.2327 73.0248 84.4866C73.0319 84.4229 73.0354 84.359 73.0351 84.2949C73.0365 84.0108 72.9705 83.7303 72.8424 83.4762C72.7143 83.2221 72.5277 83.0014 72.2978 82.832C72.1106 82.9457 71.8999 83.0157 71.6814 83.0368L71.534 83.0544C71.4081 83.2003 71.2711 83.3362 71.124 83.4611Z" fill="black"/>
<path opacity="0.1" d="M71.1977 82.8408C71.2589 82.8415 71.32 82.8459 71.3806 82.854C71.4764 82.753 71.5708 82.6448 71.6667 82.5395C71.3956 82.4676 71.1115 82.4587 70.8363 82.5132C70.5612 82.5678 70.3024 82.6845 70.08 82.8542C69.8575 83.0239 69.6775 83.2422 69.5537 83.492C69.43 83.7418 69.3659 84.0166 69.3663 84.2949C69.3663 84.3564 69.3663 84.4163 69.3752 84.4763C69.4205 84.0281 69.6321 83.6125 69.9689 83.3103C70.3057 83.0081 70.7436 82.8408 71.1977 82.8408Z" fill="black"/>
</g>
<g opacity="0.1">
<path opacity="0.1" d="M62.4785 83.4611C62.2956 83.4494 62.1128 83.4304 61.9314 83.404C61.7128 83.3838 61.5018 83.3138 61.315 83.1992C61.108 83.3505 60.9353 83.5433 60.8083 83.7651C60.6813 83.9869 60.6027 84.2327 60.5777 84.4866C60.5706 84.4229 60.5671 84.359 60.5674 84.2949C60.566 84.0108 60.632 83.7303 60.7601 83.4762C60.8882 83.2221 61.0747 83.0014 61.3047 82.832C61.4918 82.9459 61.7026 83.016 61.9211 83.0368L62.0685 83.0544C62.1936 83.201 62.3307 83.337 62.4785 83.4611Z" fill="black"/>
<path opacity="0.1" d="M62.4047 82.8408C62.3431 82.8415 62.2815 82.8459 62.2204 82.854C62.126 82.753 62.0317 82.6448 61.9358 82.5395C62.2069 82.4676 62.491 82.4587 62.7662 82.5132C63.0413 82.5678 63.3001 82.6845 63.5225 82.8542C63.7449 83.0239 63.925 83.2422 64.0487 83.492C64.1725 83.7418 64.2366 84.0166 64.2362 84.2949C64.2362 84.3564 64.2362 84.4163 64.2273 84.4763C64.182 84.0281 63.9704 83.6125 63.6336 83.3103C63.2968 83.0081 62.8589 82.8408 62.4047 82.8408Z" fill="black"/>
</g>
<path d="M56.6406 26.2809H23.3148V39.1544H56.6406V26.2809Z" fill="#0098AC"/>
<path d="M76.2527 26.2809H25.0843C24.107 26.2809 23.3148 27.0668 23.3148 28.0364V37.3989C23.3148 38.3684 24.107 39.1544 25.0843 39.1544H76.2527C77.23 39.1544 78.0222 38.3684 78.0222 37.3989V28.0364C78.0222 27.0668 77.23 26.2809 76.2527 26.2809Z" stroke="#3F3D56" stroke-width="9" stroke-miterlimit="10"/>
<path d="M53.2874 32.0287C53.1796 31.4902 52.9058 30.9983 52.5038 30.621C52.1018 30.2437 51.5916 29.9997 51.0437 29.9228C50.4958 29.8458 49.9373 29.9397 49.4455 30.1914C48.9538 30.4432 48.5531 30.8403 48.2988 31.328C47.7543 31.3849 47.2527 31.6473 46.8976 32.0607C46.5425 32.4742 46.3611 33.0072 46.3908 33.5495C46.4205 34.0919 46.6591 34.6022 47.0573 34.9751C47.4555 35.3479 47.9828 35.5547 48.5303 35.5528H53.1635C53.6369 35.5516 54.0904 35.3641 54.4244 35.0313C54.7584 34.6986 54.9456 34.2479 54.9448 33.7783C54.9467 33.3317 54.7759 32.9013 54.4676 32.5758C54.1593 32.2503 53.7369 32.0545 53.2874 32.0287ZM51.2392 33.0717V34.4147H50.0978V33.0717H48.8872L50.6685 31.3031L52.4498 33.0717H51.2392Z" fill="white"/>
</g>
<defs>
<linearGradient id="paint0_linear_4_1360" x1="106.824" y1="103.617" x2="106.824" y2="28.7679" gradientUnits="userSpaceOnUse">
<stop stop-color="#808080" stop-opacity="0.25"/>
<stop offset="0.54" stop-color="#808080" stop-opacity="0.12"/>
<stop offset="1" stop-color="#808080" stop-opacity="0.1"/>
</linearGradient>
<clipPath id="clip0_4_1360">
<rect width="150" height="103.618" fill="white"/>
</clipPath>
</defs>
</svg>
