<svg width="150" height="111" viewBox="0 0 150 111" fill="none" xmlns="http://www.w3.org/2000/svg">
<g clip-path="url(#clip0_4_986)">
<path opacity="0.2" d="M19.8511 55.7494C17.8783 56.3454 16.0318 57.7884 15.539 59.7905C14.9753 62.0913 16.2751 64.4106 16.463 66.773C17.0698 74.5133 6.0585 79.9743 7.62935 87.5774C8.25306 90.6005 10.7741 92.8244 13.2582 94.6616C17.2377 97.5954 21.653 100.187 26.5426 100.919C33.9641 102.031 41.7182 98.7628 48.9317 100.828C54.75 102.494 59.2022 107.378 64.9805 109.18C69.3788 110.552 74.1175 110.011 78.6868 109.455C81.1509 109.157 83.732 108.812 85.7202 107.333C89.4163 104.581 89.6489 99.1462 92.1237 95.2515C95.9461 89.2453 104.327 88.0656 111.354 89.233C118.381 90.4003 125.205 93.2741 132.325 93.04C133.846 92.9892 135.405 92.7828 136.733 92.0359C138.346 91.1288 139.437 89.5302 140.401 87.9486C146.426 78.0258 149.734 66.6918 149.991 55.0857C150.032 53.0913 149.961 51.0107 149.024 49.2505C147.838 47.0236 145.468 45.6914 143.108 44.7951C137.442 42.6391 131.184 42.2864 125.632 39.8547C120.277 37.5092 115.94 33.3957 111.277 29.8706C101.984 22.8591 91.2131 18.0622 79.7849 15.8454C77.1068 15.328 74.327 14.9584 71.6658 15.5559C68.5996 16.2443 65.9569 18.1555 63.5806 20.213C57.2587 25.6863 52.192 32.4394 46.366 38.4378C42.347 42.5745 37.9707 46.3484 33.288 49.7155C31.1319 51.2694 28.8403 53.1144 26.4379 54.2633C24.2387 55.3136 22.1766 55.0487 19.8511 55.7494Z" fill="#0098AC"/>
<path d="M48.0308 7.10571C48.0308 7.10571 42.0785 15.0107 46.3367 24.2248C50.595 33.4389 38.9153 48.2433 38.9153 48.2433" stroke="#535461" stroke-width="2" stroke-miterlimit="10"/>
<path d="M50.6997 4.14731C50.2269 6.1817 47.9646 7.39372 47.9646 7.39372C47.9646 7.39372 46.4708 5.30696 46.9436 3.27256C47.4163 1.23817 48.6376 -0.215631 49.6787 0.0261556C50.7197 0.267942 51.1725 2.11291 50.6997 4.14731Z" fill="#8ED16F"/>
<path d="M49.1802 3.79284C49.3288 3.15413 49.2552 2.5912 49.0158 2.53549C48.7764 2.47978 48.4618 2.95238 48.3132 3.59108C48.1646 4.22979 48.2381 4.79272 48.4776 4.84843C48.717 4.90415 49.0315 4.43154 49.1802 3.79284Z" fill="#8ED16F"/>
<path opacity="0.3" d="M49.1802 3.79284C49.3288 3.15413 49.2552 2.5912 49.0158 2.53549C48.7764 2.47978 48.4618 2.95238 48.3132 3.59108C48.1646 4.22979 48.2381 4.79272 48.4776 4.84843C48.717 4.90415 49.0315 4.43154 49.1802 3.79284Z" fill="black"/>
<path d="M49.6709 13.1858C47.7058 13.8942 45.4589 12.653 45.4589 12.653C45.4589 12.653 46.3983 10.2643 48.365 9.55747C50.3316 8.85058 52.2151 9.09545 52.577 10.0903C52.9389 11.0852 51.636 12.4774 49.6709 13.1858Z" fill="#8ED16F"/>
<path d="M49.1189 11.6174C49.7353 11.3944 50.1673 11.0263 50.0837 10.7953C50.0001 10.5642 49.4327 10.5577 48.8163 10.7806C48.1998 11.0036 47.7679 11.3716 47.8515 11.6027C47.935 11.8338 48.5025 11.8403 49.1189 11.6174Z" fill="#8ED16F"/>
<path opacity="0.3" d="M49.1189 11.6174C49.7353 11.3944 50.1673 11.0263 50.0837 10.7953C50.0001 10.5642 49.4327 10.5577 48.8163 10.7806C48.1998 11.0036 47.7679 11.3716 47.8515 11.6027C47.935 11.8338 48.5025 11.8403 49.1189 11.6174Z" fill="black"/>
<path d="M49.2136 20.3887C47.2485 21.0971 45.0016 19.8558 45.0016 19.8558C45.0016 19.8558 45.941 17.4672 47.9076 16.7603C49.8743 16.0535 51.7577 16.2983 52.1196 17.2932C52.4816 18.2881 51.1787 19.6818 49.2136 20.3887Z" fill="#8ED16F"/>
<path d="M48.6844 18.929C49.3014 18.7068 49.7341 18.3393 49.6509 18.108C49.5676 17.8767 48.9999 17.8693 48.3829 18.0914C47.7659 18.3136 47.3332 18.6811 47.4165 18.9124C47.4998 19.1437 48.0674 19.1511 48.6844 18.929Z" fill="#8ED16F"/>
<path opacity="0.3" d="M48.6844 18.929C49.3014 18.7068 49.7341 18.3393 49.6509 18.108C49.5676 17.8767 48.9999 17.8693 48.3829 18.0914C47.7659 18.3136 47.3332 18.6811 47.4165 18.9124C47.4998 19.1437 48.0674 19.1511 48.6844 18.929Z" fill="black"/>
<path d="M51.5097 28.8389C49.5446 29.5473 47.2977 28.306 47.2977 28.306C47.2977 28.306 48.2372 25.9174 50.2038 25.2105C52.1704 24.5037 54.0539 24.7485 54.4158 25.7434C54.7777 26.7383 53.4748 28.1351 51.5097 28.8389Z" fill="#8ED16F"/>
<path d="M50.981 27.3829C51.5979 27.1608 52.0306 26.7933 51.9474 26.562C51.8641 26.3307 51.2964 26.3233 50.6794 26.5454C50.0624 26.7676 49.6298 27.1351 49.713 27.3664C49.7963 27.5977 50.364 27.6051 50.981 27.3829Z" fill="#8ED16F"/>
<path opacity="0.3" d="M50.981 27.3829C51.5979 27.1608 52.0306 26.7933 51.9474 26.562C51.8641 26.3307 51.2964 26.3233 50.6794 26.5454C50.0624 26.7676 49.6298 27.1351 49.713 27.3664C49.7963 27.5977 50.364 27.6051 50.981 27.3829Z" fill="black"/>
<path d="M50.0159 36.5667C48.0508 37.2751 45.8039 36.0338 45.8039 36.0338C45.8039 36.0338 46.7433 33.6452 48.7099 32.9383C50.6766 32.2314 52.56 32.4763 52.922 33.4712C53.2839 34.466 51.9825 35.8598 50.0159 36.5667Z" fill="#8ED16F"/>
<path d="M49.4913 34.9795C50.1077 34.7566 50.5397 34.3885 50.4561 34.1575C50.3725 33.9264 49.8051 33.9198 49.1886 34.1428C48.5722 34.3658 48.1403 34.7338 48.2238 34.9649C48.3074 35.1959 48.8749 35.2025 49.4913 34.9795Z" fill="#8ED16F"/>
<path opacity="0.3" d="M49.4913 34.9795C50.1077 34.7566 50.5397 34.3885 50.4561 34.1575C50.3725 33.9264 49.8051 33.9198 49.1886 34.1428C48.5722 34.3658 48.1403 34.7338 48.2238 34.9649C48.3074 35.1959 48.8749 35.2025 49.4913 34.9795Z" fill="black"/>
<path d="M40.7988 15.2325C42.2495 16.7356 44.8137 16.6185 44.8137 16.6185C44.8137 16.6185 45.0247 14.0605 43.574 12.5574C42.1232 11.0544 40.326 10.4353 39.5591 11.1714C38.7921 11.9075 39.3481 13.7294 40.7988 15.2325Z" fill="#8ED16F"/>
<path d="M43.0662 14.6991C43.2431 14.5284 43.0172 14.0075 42.5618 13.5357C42.1063 13.0639 41.5937 12.8198 41.4169 12.9906C41.24 13.1613 41.4659 13.6821 41.9214 14.1539C42.3768 14.6257 42.8894 14.8698 43.0662 14.6991Z" fill="#8ED16F"/>
<path opacity="0.3" d="M43.0662 14.6991C43.2431 14.5284 43.0172 14.0075 42.5618 13.5357C42.1063 13.0639 41.5937 12.8198 41.4169 12.9906C41.24 13.1613 41.4659 13.6821 41.9214 14.1539C42.3768 14.6257 42.8894 14.8698 43.0662 14.6991Z" fill="black"/>
<path d="M39.9656 39.1016C41.4163 40.6047 43.9805 40.4877 43.9805 40.4877C43.9805 40.4877 44.1915 37.9297 42.7408 36.4266C41.29 34.9235 39.4928 34.3044 38.7259 35.0405C37.9589 35.7767 38.5149 37.5986 39.9656 39.1016Z" fill="#8ED16F"/>
<path d="M42.2309 38.5703C42.4077 38.3996 42.1819 37.8787 41.7264 37.4069C41.271 36.9351 40.7584 36.6911 40.5816 36.8618C40.4047 37.0325 40.6306 37.5534 41.086 38.0252C41.5415 38.497 42.054 38.741 42.2309 38.5703Z" fill="#8ED16F"/>
<path opacity="0.3" d="M42.2309 38.5703C42.4077 38.3996 42.1819 37.8787 41.7264 37.4069C41.271 36.9351 40.7584 36.6911 40.5816 36.8618C40.4047 37.0325 40.6306 37.5534 41.086 38.0252C41.5415 38.497 42.054 38.741 42.2309 38.5703Z" fill="black"/>
<path d="M41.8891 23.6688C43.7587 24.6021 46.135 23.6319 46.135 23.6319C46.135 23.6319 45.4805 21.1509 43.6124 20.2176C41.7444 19.2843 39.8424 19.2936 39.3665 20.2546C38.8907 21.2155 40.0195 22.7356 41.8891 23.6688Z" fill="#8ED16F"/>
<path d="M43.8432 22.405C43.953 22.1851 43.5663 21.7694 42.9795 21.4766C42.3928 21.1838 41.8281 21.1247 41.7184 21.3447C41.6086 21.5646 41.9953 21.9803 42.5821 22.2731C43.1688 22.5659 43.7335 22.625 43.8432 22.405Z" fill="#8ED16F"/>
<path opacity="0.3" d="M43.8432 22.405C43.953 22.1851 43.5663 21.7694 42.9795 21.4766C42.3928 21.1838 41.8281 21.1247 41.7184 21.3447C41.6086 21.5646 41.9953 21.9803 42.5821 22.2731C43.1688 22.5659 43.7335 22.625 43.8432 22.405Z" fill="black"/>
<path d="M42.673 32.0729C44.5426 33.0062 46.9189 32.0359 46.9189 32.0359C46.9189 32.0359 46.2644 29.5549 44.3963 28.6217C42.5282 27.6884 40.6263 27.6976 40.1504 28.6586C39.6746 29.6196 40.8111 31.1489 42.673 32.0729Z" fill="#8ED16F"/>
<path d="M44.6278 30.8102C44.7376 30.5902 44.3509 30.1746 43.7641 29.8818C43.1773 29.589 42.6127 29.5299 42.5029 29.7498C42.3932 29.9698 42.7799 30.3854 43.3666 30.6782C43.9534 30.9711 44.518 31.0301 44.6278 30.8102Z" fill="#8ED16F"/>
<path opacity="0.3" d="M44.6278 30.8102C44.7376 30.5902 44.3509 30.1746 43.7641 29.8818C43.1773 29.589 42.6127 29.5299 42.5029 29.7498C42.3932 29.9698 42.7799 30.3854 43.3666 30.6782C43.9534 30.9711 44.518 31.0301 44.6278 30.8102Z" fill="black"/>
<path d="M19.363 24.097C19.363 24.097 30.2341 34.9682 24.097 51.1001C17.96 67.2321 34.6171 94.058 34.6171 94.058C34.6171 94.058 34.4384 94.0319 34.1073 93.9733C11.7767 90.0324 0.688418 64.4954 13.1011 45.5252C17.7105 38.4718 21.5067 30.1987 19.363 24.097Z" fill="#8ED16F"/>
<path d="M0 68.0668C0 68.0668 12.405 66.0909 13.5354 77.2085C14.6658 88.326 37.3891 89.8676 37.3891 89.8676C37.3891 89.8676 37.2351 89.9692 36.9625 90.1509C18.2002 102.471 0.264888 97.9959 2.96766 81.6422C3.97485 75.5606 3.89168 69.4544 0 68.0668Z" fill="#8ED16F"/>
<g opacity="0.3">
<path opacity="0.3" d="M0 68.0668C0 68.0668 12.405 66.0909 13.5354 77.2085C14.6658 88.326 37.3891 89.8676 37.3891 89.8676C37.3891 89.8676 37.2351 89.9692 36.9625 90.1509C18.2002 102.471 0.264888 97.9959 2.96766 81.6422C3.97485 75.5606 3.89168 69.4544 0 68.0668Z" fill="white"/>
</g>
<path d="M16.2228 67.9296C18.1068 67.9296 19.634 63.945 19.634 59.0298C19.634 54.1145 18.1068 50.1299 16.2228 50.1299C14.3389 50.1299 12.8116 54.1145 12.8116 59.0298C12.8116 63.945 14.3389 67.9296 16.2228 67.9296Z" fill="#8ED16F"/>
<path opacity="0.3" d="M16.2228 67.9296C18.1068 67.9296 19.634 63.945 19.634 59.0298C19.634 54.1145 18.1068 50.1299 16.2228 50.1299C14.3389 50.1299 12.8116 54.1145 12.8116 59.0298C12.8116 63.945 14.3389 67.9296 16.2228 67.9296Z" fill="black"/>
<path d="M15.9111 91.3525C16.809 90.4545 15.9168 88.1065 13.9183 86.1079C11.9197 84.1094 9.57171 83.2172 8.67378 84.1151C7.77585 85.0131 8.66807 87.3611 10.6666 89.3596C12.6651 91.3582 15.0132 92.2504 15.9111 91.3525Z" fill="#8ED16F"/>
<path opacity="0.3" d="M15.9111 91.3525C16.809 90.4545 15.9168 88.1065 13.9183 86.1079C11.9197 84.1094 9.57171 83.2172 8.67378 84.1151C7.77585 85.0131 8.66807 87.3611 10.6666 89.3596C12.6651 91.3582 15.0132 92.2504 15.9111 91.3525Z" fill="black"/>
<path d="M111.482 40.882H30.7315C29.7558 40.882 28.8199 41.2696 28.13 41.9596C27.44 42.6495 27.0524 43.5853 27.0524 44.5611V91.8912C27.0524 92.867 27.44 93.8028 28.13 94.4928C28.8199 95.1827 29.7558 95.5704 30.7315 95.5704H111.482C112.458 95.5704 113.394 95.1827 114.084 94.4928C114.774 93.8028 115.161 92.867 115.161 91.8912V44.5611C115.161 43.5853 114.774 42.6495 114.084 41.9596C113.394 41.2696 112.458 40.882 111.482 40.882V40.882Z" fill="url(#paint0_linear_4_986)"/>
<path d="M110.302 41.5256H31.9096C29.7995 41.5256 28.0888 43.2363 28.0888 45.3465V91.1057C28.0888 93.2159 29.7995 94.9266 31.9096 94.9266H110.302C112.413 94.9266 114.123 93.2159 114.123 91.1057V45.3465C114.123 43.2363 112.413 41.5256 110.302 41.5256Z" fill="#0098AC"/>
<path d="M114.123 50.8706H28.0888V60.6606H114.123V50.8706Z" fill="#0098AC"/>
<path opacity="0.3" d="M114.123 50.8706H28.0888V60.6606H114.123V50.8706Z" fill="black"/>
<path d="M105.966 67.9297H36.2479V72.6761H105.966V67.9297Z" fill="#D6D6E3"/>
<path d="M42.0324 91.3675C45.8011 91.3675 48.8563 88.3123 48.8563 84.5435C48.8563 80.7748 45.8011 77.7196 42.0324 77.7196C38.2636 77.7196 35.2084 80.7748 35.2084 84.5435C35.2084 88.3123 38.2636 91.3675 42.0324 91.3675Z" fill="#0098AC"/>
<path opacity="0.3" d="M42.0324 91.3675C45.8011 91.3675 48.8563 88.3123 48.8563 84.5435C48.8563 80.7748 45.8011 77.7196 42.0324 77.7196C38.2636 77.7196 35.2084 80.7748 35.2084 84.5435C35.2084 88.3123 38.2636 91.3675 42.0324 91.3675Z" fill="black"/>
<path d="M109.232 28.3583C109.342 28.7066 109.576 29.0024 109.89 29.1899C111.305 30.1247 114.382 29.9261 114.752 29.9261C114.83 29.9261 114.933 30.0662 115.047 30.3018C115.591 31.423 116.433 34.7094 116.49 35.4486C116.566 36.3434 117.397 40.5308 118.759 42.0908C118.8 42.1386 118.842 42.1832 118.882 42.2248C120.217 43.5662 121.783 42.0908 121.783 42.0908L122.008 41.31C121.945 41.6181 121.874 41.9769 121.803 42.3788C121.768 42.5806 121.733 42.7946 121.699 43.0149C121.496 44.2558 121.389 45.5106 121.38 46.7679C121.376 47.2245 121.396 47.6809 121.438 48.1355C121.451 48.2618 121.465 48.3865 121.482 48.5082C121.551 49.0619 121.585 49.6195 121.583 50.1776C121.571 53.4918 120.725 57.6145 120.725 57.6145L120.758 57.6037C120.738 57.7069 120.725 57.7577 120.725 57.7577L120.775 57.7423C120.751 57.8953 120.728 58.0518 120.707 58.212C120.42 60.291 120.256 62.8783 120.177 64.3722C120.137 65.1601 120.172 65.9502 120.282 66.7315L121.785 77.3131V82.2413C121.78 82.988 121.871 83.7323 122.056 84.4558C122.546 86.3177 122.142 92.8167 121.916 95.8999C121.853 96.7407 121.803 97.329 121.79 97.4984V97.5493L121.833 97.5323C121.833 97.5677 121.833 97.5862 121.833 97.5862C121.897 97.5588 121.964 97.5391 122.033 97.5277C121.437 98.4517 120.357 99.9794 119.527 100.237C119.038 100.386 118.603 100.674 118.275 101.067L118.254 101.096L118.223 101.139C118.12 101.276 118.058 101.44 118.043 101.61C118.031 101.581 118.021 101.551 118.015 101.519C117.952 101.863 118.158 102.177 118.806 102.33C119.184 102.402 119.569 102.433 119.954 102.422C122.202 102.422 126.193 101.73 126.633 100.987V98.4209L126.705 98.444V98.4671L126.981 98.558L127.737 96.02C128.644 95.3485 127.891 83.3316 127.737 80.5703C127.599 78.0539 129.156 68.0436 129.431 66.2803L129.394 66.2356L129.436 65.9784C129.491 66.0187 129.543 66.064 129.59 66.1139C129.68 66.2214 129.759 66.3381 129.826 66.462C129.956 66.6824 130.067 66.9132 130.16 67.1519C131.681 70.9466 132.367 81.7977 132.367 82.771V92.9753C132.363 93.9823 132.503 94.9846 132.782 95.9522C132.922 96.4615 133.03 96.9789 133.106 97.5015C133.138 97.7063 133.166 97.9096 133.192 98.1037C133.218 98.2977 133.244 98.5195 133.264 98.7012C133.264 98.749 133.275 98.7952 133.28 98.8383C133.284 98.8814 133.28 98.8799 133.28 98.9014C133.321 99.3034 133.343 99.5667 133.343 99.5667C133.349 99.5447 133.359 99.5241 133.374 99.5067L133.381 99.6037C133.392 99.5669 133.413 99.5339 133.442 99.5082C133.504 99.4468 133.572 99.3911 133.645 99.3419V100.639L133.608 100.611V100.834C135.176 102.017 137.727 102.374 139.686 102.36C140.957 102.36 141.986 102.206 142.343 102.028C142.854 101.777 142.574 101.191 142.109 100.743C141.749 100.395 141.279 100.127 140.982 100.161C140.486 100.215 138.79 98.2946 137.901 97.2428L138.002 97.1981L138.143 97.1365V80.1222C138.143 80.1222 138.371 73.4045 139.05 66.7608C139.373 63.4118 138.976 60.0325 137.888 56.8491L137.866 56.7859L138.072 56.8183C138.291 56.8521 138.408 56.8722 138.408 56.8722C138.408 56.8722 138.408 56.8198 138.394 56.7182H138.408C138.408 56.7182 138.143 53.8367 138.14 50.2176C138.14 46.115 138.487 41.1129 139.92 38.2823C140.746 36.653 141.022 35.3562 140.999 34.3337C141.035 33.4339 140.775 32.547 140.261 31.808C140.045 31.5105 139.751 31.2782 139.412 31.1365L139.383 31.1196H139.368C139.12 31.0194 138.856 30.9671 138.588 30.9656H135.491C135.133 30.9659 134.78 30.873 134.469 30.6961L133.257 30.0092C132.853 29.1268 132.795 28.0333 132.881 27.0077C132.881 26.9261 132.896 26.8444 132.904 26.7644L132.992 26.672C133.06 26.5996 133.123 26.5179 133.184 26.4486C133.183 26.5094 133.178 26.5701 133.17 26.6304C133.155 26.7274 133.129 26.7844 133.087 26.7967C133.75 26.7105 134.489 26.5796 134.895 26.0683C134.912 26.0482 134.928 26.0267 134.943 26.0051C135.063 25.8106 135.163 25.6042 135.24 25.3891C135.297 25.2422 135.373 25.1034 135.467 24.9764C135.568 24.8439 135.701 24.7361 135.81 24.6098L135.829 24.5883C136.218 24.1263 136.24 23.464 136.244 22.8603C136.252 21.3942 136.209 19.7803 135.228 18.6807C134.413 17.7659 133.113 17.4194 131.88 17.3793C130.646 17.3393 129.416 17.5611 128.184 17.5672C127.346 17.5672 126.336 17.5534 125.874 18.2464C125.647 18.5867 125.62 19.0318 125.373 19.3583C125.232 19.5462 125.014 19.7079 125.002 19.942C125.001 20.05 125.028 20.1564 125.082 20.25V20.2608C125.381 20.8491 126.015 21.2156 126.678 21.3311C126.566 21.4658 126.463 21.6078 126.37 21.7561C125.965 22.4025 125.752 23.1498 125.754 23.9122C125.754 24.0015 125.754 24.0893 125.763 24.1771C125.832 25.2126 126.293 26.1827 127.053 26.8891C127.041 26.9753 127.029 27.0616 127.015 27.1463L127.043 27.1709C127.13 27.25 127.221 27.3249 127.315 27.3958L127.349 27.422C127.349 27.4759 127.349 27.5298 127.349 27.576C127.349 27.6653 127.349 27.7561 127.34 27.8439C127.331 27.9317 127.34 27.9856 127.331 28.0565L127.311 28.0395L125.806 26.7828L123.387 24.5436C123.387 24.5436 117.337 20.1406 117.034 22.2336C116.997 22.6053 117.1 22.9773 117.322 23.2777C118.432 24.9717 122.25 26.4132 122.25 26.4132C122.25 26.4132 124.526 28.8203 126.049 31.4153C125.995 31.4445 125.942 31.4723 125.885 31.4984C124.529 32.1283 122.552 31.8619 122.552 31.8619C120.268 32.2176 120.062 34.7202 120.074 35.732C120.074 35.7798 120.074 35.826 120.074 35.8675C120.074 35.9091 120.074 35.9184 120.074 35.9415L117.043 28.8249L117.034 28.8034C116.935 28.5717 116.779 28.3687 116.581 28.2131C116.383 28.0575 116.149 27.9544 115.9 27.9132C113.874 27.5729 108.809 26.8629 109.232 28.3583ZM121.92 97.5061C121.965 97.4956 122.009 97.4874 122.054 97.4815L122.041 97.5031L121.92 97.5061Z" fill="url(#paint1_linear_4_986)"/>
<path d="M137.064 96.0509C137.064 96.0509 139.934 99.6592 140.598 99.5853C141.262 99.5114 142.806 100.984 141.924 101.433C141.042 101.883 135.961 102.17 133.454 100.255V97.3707L137.064 96.0509Z" fill="#ACA9C9"/>
<path d="M122.558 96.271C122.558 96.271 120.864 99.2895 119.687 99.6591C118.511 100.029 117.479 101.353 119.025 101.721C120.571 102.089 126.094 101.279 126.608 100.395V96.4912L122.558 96.271Z" fill="#ACA9C9"/>
<path d="M120.431 66.6175L121.894 77.0559V81.9086C121.89 82.6448 121.979 83.3786 122.159 84.0924C122.637 85.9296 122.244 92.3393 122.022 95.3809C121.95 96.3726 121.894 97.0071 121.894 97.0071C122.851 96.5651 126.901 97.9635 126.901 97.9635L127.311 96.5698L127.637 95.4609C128.521 94.7987 127.791 82.945 127.637 80.2145C127.537 78.3495 128.369 72.3033 128.901 68.6796C129.055 67.6555 129.18 66.8316 129.256 66.3357C129.303 66.0277 129.33 65.8567 129.33 65.8567C129.492 65.9891 129.627 66.1517 129.727 66.3357C129.854 66.5533 129.962 66.781 130.052 67.0164C131.533 70.7602 132.208 81.4635 132.208 82.4168V92.4825C132.205 93.4756 132.341 94.4642 132.613 95.4194C132.795 96.116 132.929 96.8246 133.012 97.54C133.117 98.3393 133.166 98.983 133.166 98.983C133.24 98.541 137.804 96.5528 137.804 96.5528V79.7664C137.804 79.7664 138.025 73.1442 138.688 66.5867C138.974 63.6039 138.686 60.594 137.841 57.7191C137.658 57.0923 137.475 56.561 137.316 56.1406C137.047 55.4245 136.854 55.0287 136.854 55.0287H121.817C121.565 55.0764 121.355 55.5846 121.166 56.3562C121.043 56.8737 120.935 57.5082 120.841 58.2043C120.562 60.254 120.402 62.8059 120.325 64.2813C120.286 65.0616 120.322 65.8439 120.431 66.6175V66.6175Z" fill="#618FD8"/>
<g opacity="0.1">
<path opacity="0.1" d="M137.54 96.6006V79.8142C137.54 79.8142 137.76 73.192 138.424 66.6345C139.087 60.077 136.576 55.075 136.576 55.075H136.87C136.87 55.075 139.372 60.0816 138.718 66.6345C138.063 73.1874 137.834 79.8142 137.834 79.8142V96.6006C137.834 96.6006 133.269 98.5888 133.195 99.0308C133.195 99.0308 133.195 98.9323 133.172 98.7629C134.167 98.0714 137.54 96.6006 137.54 96.6006Z" fill="black"/>
<path opacity="0.1" d="M122.336 96.961C122.197 96.9639 122.06 96.9921 121.931 97.0442V96.9703C122.066 96.9568 122.201 96.9537 122.336 96.961V96.961Z" fill="black"/>
<path opacity="0.1" d="M127.38 95.4979C128.264 94.8357 127.534 82.982 127.38 80.2515C127.226 77.521 129.074 65.8953 129.074 65.8953C129.171 65.97 129.256 66.0582 129.328 66.1571C129.057 67.8942 127.542 77.7705 127.676 80.2515C127.83 82.9759 128.56 94.8296 127.676 95.4979L126.939 98.0005L126.671 97.9112L127.38 95.4979Z" fill="black"/>
</g>
<path d="M123.44 36.8547L121.9 42.3033C121.9 42.3033 120.28 43.8434 118.956 42.3033C117.631 40.7633 116.815 36.6345 116.735 35.7505C116.655 34.8665 115.483 30.3018 115.041 30.3018C114.599 30.3018 110.182 30.596 109.666 28.7618C109.254 27.2864 114.185 27.9918 116.159 28.3229C116.402 28.3643 116.631 28.4664 116.824 28.6199C117.017 28.7734 117.168 28.9732 117.263 29.2007L120.291 36.4312C120.291 36.4312 121.894 34.5723 123.44 36.8547Z" fill="#F7C4A7"/>
<path d="M133.38 24.191C133.38 24.191 131.466 29.5658 133.896 31.4801C136.326 33.3943 125.205 33.9102 125.205 33.9102L126.715 32.4749C126.715 32.4749 127.782 28.2413 127.046 24.707L133.38 24.191Z" fill="#F7C4A7"/>
<path opacity="0.1" d="M131.024 31.48C131.024 31.48 132.975 31.0011 132.975 30.4867L134.704 31.48H139.049C139.049 31.48 142.215 33.2464 139.565 38.5488C136.914 43.8512 138.092 56.8753 138.092 56.8753C138.092 56.8753 128.669 55.1813 120.864 57.7593C120.864 57.7593 122.042 51.9425 121.6 48.6299C121.158 45.3173 122.336 40.6787 122.336 40.6787L122.998 37.8804C122.998 37.8804 122.961 35.2624 120.237 36.5914C120.237 36.5914 119.832 32.7998 122.63 32.3578C122.63 32.3578 125.864 32.7998 126.827 31.1797C126.827 31.1859 128.963 32.4379 131.024 31.48Z" fill="black"/>
<path d="M131.024 31.3337C131.024 31.3337 132.975 30.8547 132.975 30.3403L134.242 31.0688C134.545 31.2423 134.888 31.3336 135.237 31.3337H138.276C138.593 31.3327 138.907 31.4074 139.19 31.5515C139.473 31.6955 139.717 31.9049 139.903 32.1622C140.601 33.1432 141.226 35.0775 139.565 38.4024C136.914 43.7033 138.092 56.7289 138.092 56.7289C138.092 56.7289 128.669 55.0349 120.864 57.6129C120.864 57.6129 122.042 51.7962 121.6 48.4836C121.158 45.1709 122.336 40.5431 122.336 40.5431L122.998 37.7448C122.998 37.7448 122.961 35.1268 120.237 36.4558C120.237 36.4558 119.843 32.769 122.515 32.2423C122.589 32.2258 122.665 32.2206 122.741 32.2269C123.313 32.2869 125.975 32.4794 126.829 31.0364C126.827 31.038 128.963 32.29 131.024 31.3337Z" fill="#E14B5A"/>
<path opacity="0.1" d="M138.46 38.0329C138.46 38.0329 136.104 39.5051 132.276 38.0329C132.276 38.0329 128.079 36.4928 126.753 33.4682C125.427 30.4435 133.452 33.9841 133.452 33.9841C133.452 33.9841 135.146 33.9841 135.661 33.616C136.175 33.2479 139.785 36.4127 138.46 38.0329Z" fill="black"/>
<path d="M138.46 37.7387C138.46 37.7387 136.104 39.211 132.276 37.7387C132.276 37.7387 128.079 36.1987 126.753 33.174C125.427 30.1494 122.336 26.8368 122.336 26.8368C122.336 26.8368 116.961 24.7747 117.254 22.7141C117.547 20.6535 123.439 24.9964 123.439 24.9964L125.795 27.2048L133.452 33.6838C133.452 33.6838 135.146 33.6838 135.661 33.3157C136.175 32.9477 139.785 36.1186 138.46 37.7387Z" fill="#F7C4A7"/>
<path opacity="0.1" d="M126.975 24.927L133.306 24.4111C132.98 25.3845 132.759 26.3896 132.645 27.4096C131.909 28.1728 130.903 28.6165 129.843 28.6453C128.783 28.6741 127.754 28.2857 126.978 27.5636C127.139 26.692 127.138 25.7982 126.975 24.927V24.927Z" fill="black"/>
<path d="M129.81 28.4245C132.046 28.4245 133.859 26.6119 133.859 24.3758C133.859 22.1397 132.046 20.327 129.81 20.327C127.574 20.327 125.761 22.1397 125.761 24.3758C125.761 26.6119 127.574 28.4245 129.81 28.4245Z" fill="#F7C4A7"/>
<path opacity="0.1" d="M132.032 25.2551C131.795 24.8639 132.277 24.3542 132.119 23.9261C131.972 23.5318 131.39 23.464 131.195 23.096C131.041 22.7987 131.195 22.4338 131.133 22.1057C131.045 21.6822 130.589 21.4189 130.157 21.3973C129.724 21.3757 129.306 21.5375 128.895 21.6761C128.225 21.9024 127.52 22.0765 126.818 21.9964C126.115 21.9163 125.415 21.5344 125.102 20.9076C125.051 20.8163 125.024 20.7135 125.024 20.6088C125.036 20.3778 125.248 20.2192 125.385 20.0344C125.626 19.7125 125.653 19.2736 125.872 18.9379C126.319 18.2541 127.3 18.271 128.116 18.268C129.317 18.268 130.512 18.0431 131.714 18.0831C132.915 18.1232 134.178 18.4635 134.974 19.366C135.929 20.4517 135.972 22.041 135.964 23.4887C135.964 24.0847 135.939 24.733 135.559 25.1935C135.448 25.3275 135.313 25.4384 135.206 25.5754C134.975 25.8834 134.914 26.2777 134.697 26.5903C134.312 27.1463 133.56 27.2818 132.89 27.3711C133.087 27.3449 132.924 26.0251 132.89 25.9035C132.761 25.2967 132.621 25.309 132.032 25.2551Z" fill="black"/>
<path d="M132.032 25.1089C131.795 24.7177 132.277 24.2079 132.119 23.7798C131.972 23.3856 131.39 23.3178 131.195 22.9497C131.041 22.6525 131.195 22.2875 131.133 21.9595C131.045 21.536 130.589 21.2726 130.157 21.2511C129.724 21.2295 129.306 21.3912 128.895 21.5298C128.225 21.7562 127.52 21.9302 126.818 21.8501C126.115 21.7701 125.415 21.3881 125.102 20.7613C125.051 20.67 125.024 20.5672 125.024 20.4626C125.036 20.2316 125.248 20.0729 125.385 19.8881C125.626 19.5663 125.653 19.1274 125.872 18.7916C126.319 18.1078 127.3 18.1248 128.116 18.1217C129.317 18.1217 130.512 17.8969 131.714 17.9369C132.915 17.9769 134.178 18.3173 134.974 19.2198C135.929 20.3055 135.972 21.8948 135.964 23.3424C135.964 23.9384 135.939 24.5868 135.559 25.0473C135.448 25.1813 135.313 25.2921 135.206 25.4292C134.975 25.7372 134.914 26.1315 134.697 26.4441C134.312 27 133.56 27.1356 132.89 27.2249C133.087 27.1987 132.924 25.8789 132.89 25.7572C132.761 25.1428 132.621 25.1612 132.032 25.1089Z" fill="#281C1C"/>
<path opacity="0.1" d="M138.424 38.2176C138.424 38.2176 136.435 33.0631 134.889 32.9168C133.343 32.7705 137.834 32.9168 137.834 32.9168L139.306 35.5672L138.424 38.2176Z" fill="black"/>
<path d="M138.571 38.2176C138.571 38.2176 136.583 33.0631 135.037 32.9168C133.491 32.7705 137.982 32.9168 137.982 32.9168L139.454 35.5672L138.571 38.2176Z" fill="#E14B5A"/>
<path d="M133.006 97.5524C133.11 98.3517 133.16 98.9954 133.16 98.9954C133.234 98.5534 137.798 96.5652 137.798 96.5652V95.3686C137.682 95.3643 137.565 95.3699 137.45 95.3855C136.565 95.5041 135.744 95.9338 134.986 96.3927C134.346 96.8128 133.685 97.1998 133.006 97.5524V97.5524Z" fill="#618FD8"/>
<path opacity="0.3" d="M133.006 97.5524C133.11 98.3517 133.16 98.9954 133.16 98.9954C133.234 98.5534 137.798 96.5652 137.798 96.5652V95.3686C137.682 95.3643 137.565 95.3699 137.45 95.3855C136.565 95.5041 135.744 95.9338 134.986 96.3927C134.346 96.8128 133.685 97.1998 133.006 97.5524V97.5524Z" fill="black"/>
<path d="M121.894 97.0072C122.851 96.5652 126.901 97.9636 126.901 97.9636L127.311 96.5698C126.604 96.4266 125.901 96.248 125.211 96.0354C124.889 95.9422 124.574 95.8259 124.269 95.6874C124.065 95.5784 123.855 95.4807 123.641 95.3948C123.112 95.2131 122.563 95.2901 122.021 95.3809C121.95 96.3727 121.894 97.0072 121.894 97.0072Z" fill="#618FD8"/>
<path opacity="0.3" d="M121.894 97.0072C122.851 96.5652 126.901 97.9636 126.901 97.9636L127.311 96.5698C126.604 96.4266 125.901 96.248 125.211 96.0354C124.889 95.9422 124.574 95.8259 124.269 95.6874C124.065 95.5784 123.855 95.4807 123.641 95.3948C123.112 95.2131 122.563 95.2901 122.021 95.3809C121.95 96.3727 121.894 97.0072 121.894 97.0072Z" fill="black"/>
<path opacity="0.4" d="M141.884 101.204C141.946 101.177 142 101.137 142.044 101.087C142.088 101.036 142.119 100.976 142.136 100.911C142.164 101.013 142.153 101.121 142.107 101.215C142.06 101.31 141.981 101.384 141.884 101.424C141 101.866 135.921 102.16 133.414 100.246V100.026C135.921 101.94 141 101.646 141.884 101.204Z" fill="white"/>
<path opacity="0.4" d="M118.987 101.498C120.527 101.866 126.055 101.056 126.57 100.172V100.392C126.054 101.276 120.533 102.086 118.987 101.718C118.355 101.564 118.154 101.256 118.217 100.919C118.266 101.168 118.497 101.375 118.987 101.498Z" fill="white"/>
<path opacity="0.1" d="M127.968 47.863C127.968 47.863 126.348 47.347 125.906 47.863C125.464 48.3789 121.686 49.5878 121.686 49.5878" fill="black"/>
<path d="M109.637 27.6331H117.514V27.4667H109.637V27.6331Z" fill="#8ED16F"/>
<path d="M109.637 27.7992H117.514V27.6329H109.637V27.7992Z" fill="#8ED16F"/>
<path opacity="0.1" d="M109.637 27.7992H117.514V27.6329H109.637V27.7992Z" fill="black"/>
<path d="M109.637 27.9656H117.514V27.7993H109.637V27.9656Z" fill="#8ED16F"/>
<path d="M109.637 28.1304H117.514V27.964H109.637V28.1304Z" fill="#8ED16F"/>
<path opacity="0.1" d="M109.637 28.1304H117.514V27.964H109.637V28.1304Z" fill="black"/>
<path d="M109.637 28.2968H117.514V28.1304H109.637V28.2968Z" fill="#8ED16F"/>
<path d="M109.637 28.4615H117.514V28.2952H109.637V28.4615Z" fill="#8ED16F"/>
<path opacity="0.1" d="M109.637 28.4615H117.514V28.2952H109.637V28.4615Z" fill="black"/>
<path d="M109.637 28.6278H117.514V28.4615H109.637V28.6278Z" fill="#8ED16F"/>
<path d="M109.637 28.7926H117.514V28.6263H109.637V28.7926Z" fill="#8ED16F"/>
<path opacity="0.1" d="M109.637 28.7926H117.514V28.6263H109.637V28.7926Z" fill="black"/>
<path d="M109.637 26.3085H117.514V26.1421H109.637V26.3085Z" fill="#8ED16F"/>
<path d="M115.209 22.3707L121.265 27.4077L121.372 27.2798L115.315 22.2428L115.209 22.3707Z" fill="#8ED16F"/>
<path d="M109.687 19.7206L115.744 24.7577L115.85 24.6298L109.794 19.5928L109.687 19.7206Z" fill="#8ED16F"/>
<path d="M109.637 26.4733H117.514V26.3069H109.637V26.4733Z" fill="#8ED16F"/>
<path opacity="0.1" d="M109.637 26.4733H117.514V26.3069H109.637V26.4733Z" fill="black"/>
<path d="M109.637 26.6411H117.514V26.4748H109.637V26.6411Z" fill="#8ED16F"/>
<path d="M109.637 26.8059H117.514V26.6396H109.637V26.8059Z" fill="#8ED16F"/>
<path opacity="0.1" d="M109.637 26.8059H117.514V26.6396H109.637V26.8059Z" fill="black"/>
<path d="M109.637 26.9707H117.514V26.8044H109.637V26.9707Z" fill="#8ED16F"/>
<path d="M109.637 27.1371H117.514V26.9708H109.637V27.1371Z" fill="#8ED16F"/>
<path opacity="0.1" d="M109.637 27.1371H117.514V26.9708H109.637V27.1371Z" fill="black"/>
<path d="M109.637 27.3018H117.514V27.1354H109.637V27.3018Z" fill="#8ED16F"/>
<path d="M109.637 27.4683H117.514V27.3019H109.637V27.4683Z" fill="#8ED16F"/>
<path opacity="0.1" d="M109.637 27.4683H117.514V27.3019H109.637V27.4683Z" fill="black"/>
<path d="M108.639 33.926L111.461 34.4501L112.482 28.9491L109.66 28.425L108.639 33.926Z" fill="#8ED16F"/>
<path d="M111.178 31.5625C111.297 30.9228 111.134 30.3561 110.815 30.2967C110.496 30.2374 110.14 30.7079 110.021 31.3477C109.903 31.9874 110.065 32.5541 110.385 32.6134C110.704 32.6727 111.059 32.2022 111.178 31.5625Z" fill="#8ED16F"/>
<path opacity="0.1" d="M111.178 31.5625C111.297 30.9228 111.134 30.3561 110.815 30.2967C110.496 30.2374 110.14 30.7079 110.021 31.3477C109.903 31.9874 110.065 32.5541 110.385 32.6134C110.704 32.6727 111.059 32.2022 111.178 31.5625Z" fill="black"/>
<path d="M109.121 45.5369L111.944 46.061L112.965 40.5601L110.143 40.036L109.121 45.5369Z" fill="#8ED16F"/>
<path d="M111.66 43.1722C111.778 42.5325 111.616 41.9658 111.296 41.9065C110.977 41.8471 110.622 42.3177 110.503 42.9574C110.384 43.5971 110.547 44.1638 110.866 44.2231C111.186 44.2825 111.541 43.8119 111.66 43.1722Z" fill="#8ED16F"/>
<path opacity="0.1" d="M111.66 43.1722C111.778 42.5325 111.616 41.9658 111.296 41.9065C110.977 41.8471 110.622 42.3177 110.503 42.9574C110.384 43.5971 110.547 44.1638 110.866 44.2231C111.186 44.2825 111.541 43.8119 111.66 43.1722Z" fill="black"/>
<path d="M98.9132 16.9975L97.547 19.5222L102.468 22.185L103.834 19.6604L98.9132 16.9975Z" fill="#8ED16F"/>
<path d="M102.206 20.265C102.362 19.9791 102.025 19.4942 101.452 19.1818C100.879 18.8695 100.289 18.8481 100.133 19.134C99.9769 19.42 100.315 19.9049 100.887 20.2172C101.46 20.5295 102.05 20.551 102.206 20.265Z" fill="#8ED16F"/>
<path opacity="0.1" d="M102.206 20.265C102.362 19.9791 102.025 19.4942 101.452 19.1818C100.879 18.8695 100.289 18.8481 100.133 19.134C99.9769 19.42 100.315 19.9049 100.887 20.2172C101.46 20.5295 102.05 20.551 102.206 20.265Z" fill="black"/>
<path d="M88.1087 66.8215L86.7424 69.3462L91.6631 72.009L93.0293 69.4843L88.1087 66.8215Z" fill="#8ED16F"/>
<path d="M90.9061 70.0097C91.0608 69.7239 90.7222 69.2412 90.15 68.9316C89.5777 68.6219 88.9885 68.6025 88.8338 68.8882C88.6792 69.174 89.0177 69.6567 89.59 69.9663C90.1622 70.276 90.7515 70.2954 90.9061 70.0097Z" fill="#8ED16F"/>
<path opacity="0.1" d="M90.9061 70.0097C91.0608 69.7239 90.7222 69.2412 90.15 68.9316C89.5777 68.6219 88.9885 68.6025 88.8338 68.8882C88.6792 69.174 89.0177 69.6567 89.59 69.9663C90.1622 70.276 90.7515 70.2954 90.9061 70.0097Z" fill="black"/>
<path d="M81.4981 25.7051L80.1318 28.2297L85.0525 30.8926L86.4188 28.3679L81.4981 25.7051Z" fill="#8ED16F"/>
<path d="M84.2942 28.891C84.4488 28.6053 84.1103 28.1226 83.538 27.8129C82.9658 27.5032 82.3765 27.4838 82.2219 27.7696C82.0673 28.0553 82.4058 28.538 82.9781 28.8477C83.5503 29.1574 84.1396 29.1768 84.2942 28.891Z" fill="#8ED16F"/>
<path opacity="0.1" d="M84.2942 28.891C84.4488 28.6053 84.1103 28.1226 83.538 27.8129C82.9658 27.5032 82.3765 27.4838 82.2219 27.7696C82.0673 28.0553 82.4058 28.538 82.9781 28.8477C83.5503 29.1574 84.1396 29.1768 84.2942 28.891Z" fill="black"/>
<path d="M89.7833 16.9969L88.4171 19.5216L93.3378 22.1844L94.704 19.6598L89.7833 16.9969Z" fill="#8ED16F"/>
<path d="M92.5794 20.1829C92.7341 19.8971 92.3955 19.4144 91.8233 19.1048C91.251 18.7951 90.6618 18.7757 90.5072 19.0615C90.3525 19.3472 90.6911 19.8299 91.2633 20.1396C91.8356 20.4492 92.4248 20.4686 92.5794 20.1829Z" fill="#8ED16F"/>
<path opacity="0.1" d="M92.5794 20.1829C92.7341 19.8971 92.3955 19.4144 91.8233 19.1048C91.251 18.7951 90.6618 18.7757 90.5072 19.0615C90.3525 19.3472 90.6911 19.8299 91.2633 20.1396C91.8356 20.4492 92.4248 20.4686 92.5794 20.1829Z" fill="black"/>
<path d="M98.0554 27.272L95.2017 27.584L95.8099 33.1458L98.6635 32.8338L98.0554 27.272Z" fill="#8ED16F"/>
<path d="M97.023 31.3848C97.346 31.3495 97.5505 30.7965 97.4798 30.1497C97.409 29.5029 97.0899 29.0072 96.7669 29.0425C96.4439 29.0778 96.2394 29.6308 96.3101 30.2776C96.3808 30.9244 96.7 31.4201 97.023 31.3848Z" fill="#8ED16F"/>
<path opacity="0.1" d="M97.023 31.3848C97.346 31.3495 97.5505 30.7965 97.4798 30.1497C97.409 29.5029 97.0899 29.0072 96.7669 29.0425C96.4439 29.0778 96.2394 29.6308 96.3101 30.2776C96.3808 30.9244 96.7 31.4201 97.023 31.3848Z" fill="black"/>
<path d="M117.62 57.7275L114.767 58.0396L115.375 63.6014L118.228 63.2894L117.62 57.7275Z" fill="#8ED16F"/>
<path d="M116.589 61.8403C116.912 61.805 117.117 61.252 117.046 60.6052C116.975 59.9583 116.656 59.4626 116.333 59.4979C116.01 59.5333 115.806 60.0862 115.876 60.733C115.947 61.3799 116.266 61.8756 116.589 61.8403Z" fill="#8ED16F"/>
<path opacity="0.1" d="M116.589 61.8403C116.912 61.805 117.117 61.252 117.046 60.6052C116.975 59.9583 116.656 59.4626 116.333 59.4979C116.01 59.5333 115.806 60.0862 115.876 60.733C115.947 61.3799 116.266 61.8756 116.589 61.8403Z" fill="black"/>
<path d="M86.8814 39.0867L85.5151 41.6113L90.4358 44.2741L91.8021 41.7495L86.8814 39.0867Z" fill="#8ED16F"/>
<path d="M89.6766 42.2748C89.8312 41.989 89.4927 41.5064 88.9204 41.1967C88.3482 40.887 87.7589 40.8676 87.6043 41.1534C87.4496 41.4391 87.7882 41.9218 88.3604 42.2315C88.9327 42.5412 89.5219 42.5605 89.6766 42.2748Z" fill="#8ED16F"/>
<path opacity="0.1" d="M89.6766 42.2748C89.8312 41.989 89.4927 41.5064 88.9204 41.1967C88.3482 40.887 87.7589 40.8676 87.6043 41.1534C87.4496 41.4391 87.7882 41.9218 88.3604 42.2315C88.9327 42.5412 89.5219 42.5605 89.6766 42.2748Z" fill="black"/>
<path d="M74.4642 35.5404L73.098 38.0651L78.0186 40.7279L79.3848 38.2032L74.4642 35.5404Z" fill="#8ED16F"/>
<path d="M77.669 38.896C77.825 38.6101 77.4872 38.1251 76.9146 37.8128C76.342 37.5005 75.7514 37.4791 75.5955 37.765C75.4395 38.0509 75.7773 38.5359 76.3499 38.8482C76.9224 39.1605 77.513 39.1819 77.669 38.896Z" fill="#8ED16F"/>
<path opacity="0.1" d="M77.669 38.896C77.825 38.6101 77.4872 38.1251 76.9146 37.8128C76.342 37.5005 75.7514 37.4791 75.5955 37.765C75.4395 38.0509 75.7773 38.5359 76.3499 38.8482C76.9224 39.1605 77.513 39.1819 77.669 38.896Z" fill="black"/>
<path d="M70.4873 95.2488L69.1211 97.7734L74.0418 100.436L75.408 97.9116L70.4873 95.2488Z" fill="#8ED16F"/>
<path d="M73.2833 98.4354C73.4379 98.1497 73.0993 97.667 72.5271 97.3573C71.9548 97.0477 71.3656 97.0283 71.211 97.314C71.0563 97.5998 71.3949 98.0825 71.9671 98.3921C72.5394 98.7018 73.1286 98.7212 73.2833 98.4354Z" fill="#8ED16F"/>
<path opacity="0.1" d="M73.2833 98.4354C73.4379 98.1497 73.0993 97.667 72.5271 97.3573C71.9548 97.0477 71.3656 97.0283 71.211 97.314C71.0563 97.5998 71.3949 98.0825 71.9671 98.3921C72.5394 98.7018 73.1286 98.7212 73.2833 98.4354Z" fill="black"/>
<path d="M66.9072 96.2218L66.3836 99.0443L71.8847 100.065L72.4083 97.2424L66.9072 96.2218Z" fill="#8ED16F"/>
<path opacity="0.05" d="M66.9072 96.2218L66.3836 99.0443L71.8847 100.065L72.4083 97.2424L66.9072 96.2218Z" fill="black"/>
<path d="M70.5487 98.3941C70.608 98.0746 70.1374 97.7195 69.4977 97.6008C68.8579 97.4821 68.2913 97.6448 68.232 97.9643C68.1727 98.2838 68.6433 98.6389 69.2831 98.7576C69.9228 98.8763 70.4895 98.7136 70.5487 98.3941Z" fill="#8ED16F"/>
<path opacity="0.1" d="M70.5487 98.3941C70.608 98.0746 70.1374 97.7195 69.4977 97.6008C68.8579 97.4821 68.2913 97.6448 68.232 97.9643C68.1727 98.2838 68.6433 98.6389 69.2831 98.7576C69.9228 98.8763 70.4895 98.7136 70.5487 98.3941Z" fill="black"/>
<path d="M67.4227 97.9145L66.899 100.737L72.4002 101.757L72.9238 98.935L67.4227 97.9145Z" fill="#8ED16F"/>
<path d="M71.0626 100.087C71.1218 99.7673 70.6513 99.4121 70.0115 99.2934C69.3718 99.1747 68.8051 99.3375 68.7459 99.6569C68.6866 99.9764 69.1572 100.332 69.7969 100.45C70.4367 100.569 71.0033 100.406 71.0626 100.087Z" fill="#8ED16F"/>
<path opacity="0.1" d="M71.0626 100.087C71.1218 99.7673 70.6513 99.4121 70.0115 99.2934C69.3718 99.1747 68.8051 99.3375 68.7459 99.6569C68.6866 99.9764 69.1572 100.332 69.7969 100.45C70.4367 100.569 71.0033 100.406 71.0626 100.087Z" fill="black"/>
<path d="M76.2916 102.505L74.9254 105.03L79.8461 107.693L81.2123 105.168L76.2916 102.505Z" fill="#8ED16F"/>
<path d="M79.0891 105.692C79.2438 105.406 78.9052 104.923 78.333 104.614C77.7607 104.304 77.1714 104.285 77.0168 104.571C76.8622 104.856 77.2007 105.339 77.773 105.649C78.3452 105.958 78.9345 105.978 79.0891 105.692Z" fill="#8ED16F"/>
<path opacity="0.1" d="M79.0891 105.692C79.2438 105.406 78.9052 104.923 78.333 104.614C77.7607 104.304 77.1714 104.285 77.0168 104.571C76.8622 104.856 77.2007 105.339 77.773 105.649C78.3452 105.958 78.9345 105.978 79.0891 105.692Z" fill="black"/>
<path d="M72.7126 103.476L72.189 106.299L77.6901 107.319L78.2137 104.497L72.7126 103.476Z" fill="#8ED16F"/>
<path opacity="0.05" d="M72.7126 103.476L72.189 106.299L77.6901 107.319L78.2137 104.497L72.7126 103.476Z" fill="black"/>
<path d="M76.3526 105.648C76.4119 105.329 75.9413 104.974 75.3016 104.855C74.6618 104.736 74.0952 104.899 74.0359 105.219C73.9766 105.538 74.4472 105.893 75.087 106.012C75.7267 106.131 76.2934 105.968 76.3526 105.648Z" fill="#8ED16F"/>
<path opacity="0.1" d="M76.3526 105.648C76.4119 105.329 75.9413 104.974 75.3016 104.855C74.6618 104.736 74.0952 104.899 74.0359 105.219C73.9766 105.538 74.4472 105.893 75.087 106.012C75.7267 106.131 76.2934 105.968 76.3526 105.648Z" fill="black"/>
<path d="M73.2277 105.171L72.704 107.993L78.2052 109.014L78.7288 106.191L73.2277 105.171Z" fill="#8ED16F"/>
<path d="M76.8693 107.343C76.9285 107.024 76.4579 106.668 75.8182 106.55C75.1784 106.431 74.6118 106.594 74.5525 106.913C74.4932 107.233 74.9638 107.588 75.6036 107.707C76.2433 107.825 76.81 107.663 76.8693 107.343Z" fill="#8ED16F"/>
<path opacity="0.1" d="M76.8693 107.343C76.9285 107.024 76.4579 106.668 75.8182 106.55C75.1784 106.431 74.6118 106.594 74.5525 106.913C74.4932 107.233 74.9638 107.588 75.6036 107.707C76.2433 107.825 76.81 107.663 76.8693 107.343Z" fill="black"/>
<path d="M85.0003 97.8289L83.634 100.354L88.5547 103.016L89.921 100.492L85.0003 97.8289Z" fill="#8ED16F"/>
<path d="M87.7948 101.015C87.9494 100.729 87.6109 100.246 87.0386 99.9367C86.4664 99.627 85.8771 99.6076 85.7225 99.8934C85.5679 100.179 85.9064 100.662 86.4787 100.971C87.0509 101.281 87.6402 101.301 87.7948 101.015Z" fill="#8ED16F"/>
<path opacity="0.1" d="M87.7948 101.015C87.9494 100.729 87.6109 100.246 87.0386 99.9367C86.4664 99.627 85.8771 99.6076 85.7225 99.8934C85.5679 100.179 85.9064 100.662 86.4787 100.971C87.0509 101.281 87.6402 101.301 87.7948 101.015Z" fill="black"/>
<path d="M81.4204 98.801L80.8968 101.623L86.3979 102.644L86.9215 99.8215L81.4204 98.801Z" fill="#8ED16F"/>
<path opacity="0.05" d="M81.4204 98.801L80.8968 101.623L86.3979 102.644L86.9215 99.8215L81.4204 98.801Z" fill="black"/>
<path d="M85.0604 100.973C85.1197 100.654 84.6491 100.298 84.0093 100.18C83.3696 100.061 82.8029 100.224 82.7437 100.543C82.6844 100.863 83.155 101.218 83.7947 101.337C84.4345 101.455 85.0011 101.293 85.0604 100.973Z" fill="#8ED16F"/>
<path opacity="0.1" d="M85.0604 100.973C85.1197 100.654 84.6491 100.298 84.0093 100.18C83.3696 100.061 82.8029 100.224 82.7437 100.543C82.6844 100.863 83.155 101.218 83.7947 101.337C84.4345 101.455 85.0011 101.293 85.0604 100.973Z" fill="black"/>
<path d="M81.9356 100.495L81.4119 103.318L86.9131 104.338L87.4367 101.516L81.9356 100.495Z" fill="#8ED16F"/>
<path d="M85.5771 102.668C85.6363 102.348 85.1658 101.993 84.526 101.874C83.8863 101.756 83.3196 101.918 83.2603 102.238C83.2011 102.557 83.6716 102.912 84.3114 103.031C84.9511 103.15 85.5178 102.987 85.5771 102.668Z" fill="#8ED16F"/>
<path opacity="0.1" d="M85.5771 102.668C85.6363 102.348 85.1658 101.993 84.526 101.874C83.8863 101.756 83.3196 101.918 83.2603 102.238C83.2011 102.557 83.6716 102.912 84.3114 103.031C84.9511 103.15 85.5178 102.987 85.5771 102.668Z" fill="black"/>
</g>
<defs>
<linearGradient id="paint0_linear_4_986" x1="71.1068" y1="95.5704" x2="71.1068" y2="40.882" gradientUnits="userSpaceOnUse">
<stop stop-color="#808080" stop-opacity="0.25"/>
<stop offset="0.54" stop-color="#808080" stop-opacity="0.12"/>
<stop offset="1" stop-color="#808080" stop-opacity="0.1"/>
</linearGradient>
<linearGradient id="paint1_linear_4_986" x1="-98947.6" y1="64466.2" x2="-98947.6" y2="17503.6" gradientUnits="userSpaceOnUse">
<stop stop-color="#808080" stop-opacity="0.25"/>
<stop offset="0.54" stop-color="#808080" stop-opacity="0.12"/>
<stop offset="1" stop-color="#808080" stop-opacity="0.1"/>
</linearGradient>
<clipPath id="clip0_4_986">
<rect width="150" height="110.039" fill="white"/>
</clipPath>
</defs>
</svg>
