<svg width="166" height="119" viewBox="0 0 166 119" fill="none" xmlns="http://www.w3.org/2000/svg">
<g clip-path="url(#clip0_79_776)">
<path opacity="0.1" d="M83 119C128.84 119 166 114.491 166 108.929C166 103.366 128.84 98.8572 83 98.8572C37.1604 98.8572 0 103.366 0 108.929C0 114.491 37.1604 119 83 119Z" fill="#0098AC"/>
<path d="M142.019 113.865C142.019 113.865 146.347 108.366 145.997 102.91C145.836 100.623 146.422 98.3448 147.668 96.4181C148.266 95.5081 148.947 94.6548 149.702 93.8688" stroke="#535461" stroke-width="2" stroke-miterlimit="10"/>
<path d="M149.502 90.4292C149.197 91.1929 149.697 93.9592 149.697 93.9592C149.697 93.9592 151.967 92.2963 152.272 91.5326C152.418 91.166 152.413 90.7564 152.256 90.3938C152.1 90.0312 151.806 89.7454 151.439 89.5992C151.072 89.4529 150.662 89.4582 150.298 89.6138C149.935 89.7695 149.648 90.0628 149.502 90.4292Z" fill="#0098AC"/>
<path d="M145.521 93.7474C145.681 94.554 147.607 96.6048 147.607 96.6048C147.607 96.6048 148.607 93.9772 148.447 93.1706C148.41 92.9788 148.334 92.7963 148.226 92.6336C148.117 92.4709 147.977 92.3311 147.815 92.2223C147.652 92.1134 147.469 92.0376 147.277 91.9992C147.085 91.9608 146.888 91.9605 146.696 91.9984C146.503 92.0363 146.321 92.1116 146.158 92.22C145.995 92.3284 145.855 92.4677 145.746 92.6301C145.637 92.7925 145.561 92.9748 145.522 93.1665C145.484 93.3582 145.484 93.5556 145.521 93.7474Z" fill="#0098AC"/>
<path d="M142.732 101.016C143.278 101.632 145.977 102.432 145.977 102.432C145.977 102.432 145.512 99.6593 144.967 99.0434C144.837 98.8969 144.68 98.7774 144.504 98.6916C144.328 98.6058 144.136 98.5555 143.941 98.5435C143.745 98.5315 143.549 98.558 143.364 98.6216C143.179 98.6852 143.008 98.7847 142.861 98.9142C142.715 99.0437 142.595 99.2009 142.509 99.3766C142.423 99.5523 142.373 99.7433 142.361 99.9384C142.349 100.134 142.376 100.329 142.439 100.514C142.503 100.699 142.603 100.87 142.732 101.016Z" fill="#0098AC"/>
<path d="M141.863 106.99C142.296 107.689 144.821 108.933 144.821 108.933C144.821 108.933 144.832 106.122 144.399 105.423C144.296 105.256 144.161 105.112 144.002 104.998C143.843 104.883 143.663 104.801 143.472 104.756C143.282 104.712 143.084 104.705 142.891 104.736C142.697 104.768 142.512 104.837 142.345 104.94C142.179 105.043 142.034 105.177 141.92 105.336C141.805 105.495 141.723 105.675 141.679 105.865C141.634 106.055 141.627 106.253 141.659 106.446C141.69 106.639 141.759 106.824 141.863 106.99Z" fill="#0098AC"/>
<path d="M150.456 97.9111C149.695 98.2247 146.918 97.7577 146.918 97.7577C146.918 97.7577 148.557 95.4722 149.319 95.1587C149.684 95.0081 150.095 95.0087 150.46 95.1603C150.825 95.3119 151.115 95.6021 151.266 95.9671C151.417 96.3321 151.416 96.742 151.264 97.1066C151.112 97.4711 150.822 97.7606 150.456 97.9111Z" fill="#0098AC"/>
<path d="M149.35 104.885C148.53 104.957 146.02 103.682 146.02 103.682C146.02 103.682 148.269 101.99 149.09 101.919C149.285 101.901 149.482 101.923 149.669 101.981C149.855 102.04 150.029 102.135 150.179 102.261C150.329 102.386 150.453 102.54 150.544 102.714C150.634 102.887 150.69 103.077 150.707 103.272C150.724 103.467 150.703 103.663 150.644 103.849C150.585 104.036 150.489 104.209 150.363 104.359C150.237 104.509 150.083 104.632 149.909 104.723C149.735 104.813 149.545 104.868 149.35 104.885Z" fill="#0098AC"/>
<path d="M147.343 111.516C146.547 111.725 143.858 110.891 143.858 110.891C143.858 110.891 145.788 108.845 146.585 108.636C146.967 108.536 147.374 108.591 147.716 108.79C148.057 108.989 148.306 109.315 148.406 109.697C148.507 110.079 148.452 110.485 148.252 110.826C148.053 111.167 147.726 111.415 147.343 111.516Z" fill="#0098AC"/>
<path opacity="0.25" d="M149.502 90.4292C149.197 91.1929 149.697 93.9592 149.697 93.9592C149.697 93.9592 151.967 92.2963 152.272 91.5326C152.418 91.166 152.413 90.7564 152.256 90.3938C152.1 90.0312 151.806 89.7454 151.439 89.5992C151.072 89.4529 150.662 89.4582 150.298 89.6138C149.935 89.7695 149.648 90.0628 149.502 90.4292Z" fill="black"/>
<path opacity="0.25" d="M145.521 93.7474C145.681 94.554 147.607 96.6048 147.607 96.6048C147.607 96.6048 148.607 93.9772 148.447 93.1706C148.41 92.9788 148.334 92.7963 148.226 92.6336C148.117 92.4709 147.977 92.3311 147.815 92.2223C147.652 92.1134 147.469 92.0376 147.277 91.9992C147.085 91.9608 146.888 91.9605 146.696 91.9984C146.503 92.0363 146.321 92.1116 146.158 92.22C145.995 92.3284 145.855 92.4677 145.746 92.6301C145.637 92.7925 145.561 92.9748 145.522 93.1665C145.484 93.3582 145.484 93.5556 145.521 93.7474Z" fill="black"/>
<path opacity="0.25" d="M142.732 101.016C143.278 101.632 145.977 102.432 145.977 102.432C145.977 102.432 145.512 99.6593 144.967 99.0434C144.837 98.8969 144.68 98.7774 144.504 98.6916C144.328 98.6058 144.136 98.5555 143.941 98.5435C143.745 98.5315 143.549 98.558 143.364 98.6216C143.179 98.6852 143.008 98.7847 142.861 98.9142C142.715 99.0437 142.595 99.2009 142.509 99.3766C142.423 99.5523 142.373 99.7433 142.361 99.9384C142.349 100.134 142.376 100.329 142.439 100.514C142.503 100.699 142.603 100.87 142.732 101.016Z" fill="black"/>
<path opacity="0.25" d="M141.863 106.99C142.296 107.689 144.821 108.933 144.821 108.933C144.821 108.933 144.832 106.122 144.399 105.423C144.296 105.256 144.161 105.112 144.002 104.998C143.843 104.883 143.663 104.801 143.472 104.756C143.282 104.712 143.084 104.705 142.891 104.736C142.697 104.768 142.512 104.837 142.345 104.94C142.179 105.043 142.034 105.177 141.92 105.336C141.805 105.495 141.723 105.675 141.679 105.865C141.634 106.055 141.627 106.253 141.659 106.446C141.69 106.639 141.759 106.824 141.863 106.99Z" fill="black"/>
<path opacity="0.25" d="M150.456 97.9111C149.695 98.2247 146.918 97.7577 146.918 97.7577C146.918 97.7577 148.557 95.4722 149.319 95.1587C149.684 95.0081 150.095 95.0087 150.46 95.1603C150.825 95.3119 151.115 95.6021 151.266 95.9671C151.417 96.3321 151.416 96.742 151.264 97.1066C151.112 97.4711 150.822 97.7606 150.456 97.9111Z" fill="black"/>
<path opacity="0.25" d="M149.35 104.885C148.53 104.957 146.02 103.682 146.02 103.682C146.02 103.682 148.269 101.99 149.09 101.919C149.285 101.901 149.482 101.923 149.669 101.981C149.855 102.04 150.029 102.135 150.179 102.261C150.329 102.386 150.453 102.54 150.544 102.714C150.634 102.887 150.69 103.077 150.707 103.272C150.724 103.467 150.703 103.663 150.644 103.849C150.585 104.036 150.489 104.209 150.363 104.359C150.237 104.509 150.083 104.632 149.909 104.723C149.735 104.813 149.545 104.868 149.35 104.885Z" fill="black"/>
<path opacity="0.25" d="M147.343 111.516C146.547 111.725 143.858 110.891 143.858 110.891C143.858 110.891 145.788 108.845 146.585 108.636C146.967 108.536 147.374 108.591 147.716 108.79C148.057 108.989 148.306 109.315 148.406 109.697C148.507 110.079 148.452 110.485 148.252 110.826C148.053 111.167 147.726 111.415 147.343 111.516Z" fill="black"/>
<path d="M142.055 113.636C142.055 113.636 148.245 110.36 150.139 105.231C150.92 103.074 152.381 101.229 154.302 99.9712C155.218 99.3814 156.187 98.8767 157.196 98.4634" stroke="#535461" stroke-width="2" stroke-miterlimit="10"/>
<path d="M158.409 95.2379C157.82 95.8126 157.155 98.5438 157.155 98.5438C157.155 98.5438 159.905 97.942 160.494 97.3673C160.777 97.0913 160.938 96.7145 160.943 96.3197C160.948 95.9248 160.795 95.5444 160.518 95.262C160.242 94.9796 159.864 94.8185 159.469 94.8139C159.073 94.8094 158.692 94.9619 158.409 95.2379Z" fill="#0098AC"/>
<path d="M153.424 96.6613C153.242 97.4633 154.17 100.117 154.17 100.117C154.17 100.117 156.151 98.1197 156.333 97.3177C156.376 97.127 156.381 96.9297 156.348 96.737C156.315 96.5443 156.244 96.3601 156.139 96.1947C156.035 96.0294 155.899 95.8863 155.739 95.7735C155.579 95.6607 155.398 95.5805 155.207 95.5374C155.016 95.4943 154.818 95.4891 154.625 95.5223C154.432 95.5555 154.248 95.6263 154.082 95.7306C153.917 95.835 153.773 95.9709 153.66 96.1306C153.547 96.2903 153.467 96.4706 153.424 96.6613Z" fill="#0098AC"/>
<path d="M147.924 102.178C148.172 102.962 150.316 104.785 150.316 104.785C150.316 104.785 151.016 102.062 150.767 101.278C150.708 101.092 150.612 100.919 150.486 100.77C150.36 100.62 150.206 100.497 150.032 100.407C149.858 100.317 149.668 100.262 149.473 100.245C149.278 100.228 149.081 100.25 148.895 100.309C148.708 100.368 148.535 100.463 148.385 100.589C148.235 100.715 148.112 100.869 148.021 101.043C147.931 101.216 147.876 101.406 147.859 101.601C147.843 101.795 147.864 101.992 147.924 102.178Z" fill="#0098AC"/>
<path d="M144.704 107.288C144.816 108.102 146.62 110.261 146.62 110.261C146.62 110.261 147.771 107.695 147.658 106.881C147.631 106.687 147.567 106.501 147.468 106.332C147.369 106.163 147.237 106.016 147.081 105.898C146.925 105.779 146.747 105.693 146.558 105.644C146.368 105.594 146.171 105.583 145.977 105.609C145.783 105.636 145.596 105.701 145.427 105.8C145.258 105.898 145.11 106.029 144.992 106.185C144.874 106.341 144.787 106.519 144.738 106.708C144.688 106.897 144.677 107.094 144.704 107.288Z" fill="#0098AC"/>
<path d="M156.245 102.464C155.421 102.443 153.073 100.893 153.073 100.893C153.073 100.893 155.499 99.4662 156.322 99.4875C156.718 99.4978 157.093 99.6644 157.365 99.9508C157.637 100.237 157.785 100.62 157.774 101.014C157.764 101.409 157.597 101.784 157.31 102.055C157.023 102.327 156.64 102.474 156.245 102.464H156.245Z" fill="#0098AC"/>
<path d="M152.403 108.392C151.624 108.126 149.847 105.945 149.847 105.945C149.847 105.945 152.59 105.309 153.369 105.575C153.743 105.703 154.051 105.974 154.225 106.329C154.399 106.683 154.425 107.092 154.297 107.466C154.169 107.839 153.897 108.147 153.542 108.321C153.187 108.494 152.777 108.52 152.403 108.392V108.392Z" fill="#0098AC"/>
<path d="M147.877 113.642C147.064 113.511 144.944 111.662 144.944 111.662C144.944 111.662 147.539 110.572 148.352 110.703C148.743 110.766 149.092 110.981 149.324 111.301C149.555 111.621 149.65 112.02 149.587 112.41C149.524 112.8 149.308 113.148 148.988 113.38C148.667 113.611 148.267 113.705 147.877 113.642Z" fill="#0098AC"/>
<path opacity="0.1" d="M94.6021 14.0931C86.4006 13.8088 78.5891 11.1656 71.13 8.27376C63.6709 5.38188 56.2825 2.17793 48.2773 0.645573C43.1286 -0.34001 37.2405 -0.479456 33.0919 2.2764C29.0997 4.92836 27.8097 9.5062 27.1161 13.7539C26.5943 16.9496 26.2876 20.3131 27.7173 23.3049C28.7099 25.382 30.4724 27.128 31.6912 29.1175C35.9321 36.0404 32.9346 44.577 28.3387 51.3366C26.1828 54.5074 23.6822 57.5323 22.0186 60.9076C20.355 64.283 19.5855 68.1507 21.0409 71.5938C22.4836 75.0066 25.9216 77.5701 29.6457 79.3731C37.2096 83.035 46.1229 84.0831 54.8144 84.6767C74.0543 85.9907 93.3969 85.4218 112.688 84.852C119.827 84.6412 126.997 84.4275 134.021 83.3254C137.921 82.7134 141.947 81.7421 144.779 79.3972C148.373 76.4203 149.264 71.3797 146.855 67.6471C142.815 61.3861 131.645 59.8309 128.821 53.1118C127.267 49.4133 128.863 45.2936 131.122 41.8635C135.968 34.5051 144.09 28.0496 144.518 19.6389C144.811 13.8623 140.907 8.07724 134.87 5.3441C128.542 2.47922 119.767 2.8396 115.099 7.58193C110.291 12.4652 101.844 14.3441 94.6021 14.0931Z" fill="#0098AC"/>
<path d="M80.5594 104.411C83.6392 104.411 86.1359 101.766 86.1359 98.5023C86.1359 95.2388 83.6392 92.5931 80.5594 92.5931C77.4797 92.5931 74.983 95.2388 74.983 98.5023C74.983 101.766 77.4797 104.411 80.5594 104.411Z" fill="#FBD56F"/>
<path opacity="0.1" d="M80.5594 104.411C83.6392 104.411 86.1359 101.766 86.1359 98.5023C86.1359 95.2388 83.6392 92.5931 80.5594 92.5931C77.4797 92.5931 74.983 95.2388 74.983 98.5023C74.983 101.766 77.4797 104.411 80.5594 104.411Z" fill="black"/>
<path d="M81.5219 104.411C84.6016 104.411 87.0983 101.825 87.0983 98.6338C87.0983 95.4429 84.6016 92.8562 81.5219 92.8562C78.4421 92.8562 75.9454 95.4429 75.9454 98.6338C75.9454 101.825 78.4421 104.411 81.5219 104.411Z" fill="#FBD56F"/>
<path d="M83.7805 103.87L83.2004 103.547C83.2004 103.547 82.9291 104.677 83.0178 105.483C83.0266 105.564 83.0602 105.642 83.1142 105.704C83.1682 105.766 83.24 105.809 83.3199 105.829C84.6542 106.16 91.0141 107.57 95.3876 105.584C95.451 105.556 95.5058 105.511 95.5465 105.454C95.5873 105.398 95.6126 105.332 95.62 105.263C95.6736 104.768 95.4837 103.746 95.4079 103.547C95.2448 103.119 83.7805 103.87 83.7805 103.87Z" fill="#FBD56F"/>
<path opacity="0.1" d="M83.7805 103.87L83.2004 103.547C83.2004 103.547 82.9291 104.677 83.0178 105.483C83.0266 105.564 83.0602 105.642 83.1142 105.704C83.1682 105.766 83.24 105.809 83.3199 105.829C84.6542 106.16 91.0141 107.57 95.3876 105.584C95.451 105.556 95.5058 105.511 95.5465 105.454C95.5873 105.398 95.6126 105.332 95.62 105.263C95.6736 104.768 95.4837 103.746 95.4079 103.547C95.2448 103.119 83.7805 103.87 83.7805 103.87Z" fill="black"/>
<path d="M89.3042 104.921C92.6752 104.921 95.4079 104.306 95.4079 103.547C95.4079 102.789 92.6752 102.174 89.3042 102.174C85.9332 102.174 83.2004 102.789 83.2004 103.547C83.2004 104.306 85.9332 104.921 89.3042 104.921Z" fill="#FBD56F"/>
<path d="M86.1125 101.843L85.5324 101.521C85.5324 101.521 85.2611 102.651 85.3498 103.456C85.3585 103.538 85.3922 103.615 85.4462 103.677C85.5002 103.739 85.572 103.783 85.6518 103.803C86.9862 104.134 93.3461 105.543 97.7195 103.558C97.7829 103.529 97.8377 103.484 97.8785 103.428C97.9192 103.371 97.9446 103.305 97.952 103.236C98.0056 102.741 97.8157 101.72 97.7399 101.521C97.5768 101.092 86.1125 101.843 86.1125 101.843Z" fill="#FBD56F"/>
<path opacity="0.1" d="M86.1125 101.843L85.5324 101.521C85.5324 101.521 85.2611 102.651 85.3498 103.456C85.3585 103.538 85.3922 103.615 85.4462 103.677C85.5002 103.739 85.572 103.783 85.6518 103.803C86.9862 104.134 93.3461 105.543 97.7195 103.558C97.7829 103.529 97.8377 103.484 97.8785 103.428C97.9192 103.371 97.9446 103.305 97.952 103.236C98.0056 102.741 97.8157 101.72 97.7399 101.521C97.5768 101.092 86.1125 101.843 86.1125 101.843Z" fill="black"/>
<path d="M91.6362 102.894C95.0072 102.894 97.7399 102.279 97.7399 101.521C97.7399 100.762 95.0072 100.147 91.6362 100.147C88.2652 100.147 85.5324 100.762 85.5324 101.521C85.5324 102.279 88.2652 102.894 91.6362 102.894Z" fill="#FBD56F"/>
<path d="M88.174 99.1796L87.594 98.8571C87.594 98.8571 87.3227 99.9874 87.4114 100.793C87.4201 100.875 87.4538 100.952 87.5078 101.014C87.5618 101.076 87.6336 101.12 87.7134 101.14C89.0478 101.47 95.4077 102.88 99.7811 100.895C99.8445 100.866 99.8993 100.821 99.9401 100.764C99.9808 100.708 100.006 100.642 100.014 100.573C100.067 100.078 99.8773 99.0562 99.8015 98.8571C99.6383 98.4288 88.174 99.1796 88.174 99.1796Z" fill="#FBD56F"/>
<path opacity="0.1" d="M88.174 99.1796L87.594 98.8571C87.594 98.8571 87.3227 99.9874 87.4114 100.793C87.4201 100.875 87.4538 100.952 87.5078 101.014C87.5618 101.076 87.6336 101.12 87.7134 101.14C89.0478 101.47 95.4077 102.88 99.7811 100.895C99.8445 100.866 99.8993 100.821 99.9401 100.764C99.9808 100.708 100.006 100.642 100.014 100.573C100.067 100.078 99.8773 99.0562 99.8015 98.8571C99.6383 98.4288 88.174 99.1796 88.174 99.1796Z" fill="black"/>
<path d="M93.6977 100.231C97.0688 100.231 99.8015 99.6158 99.8015 98.8572C99.8015 98.0986 97.0688 97.4836 93.6977 97.4836C90.3267 97.4836 87.594 98.0986 87.594 98.8572C87.594 99.6158 90.3267 100.231 93.6977 100.231Z" fill="#FBD56F"/>
<path d="M85.891 96.4069L85.311 96.0844C85.311 96.0844 85.0397 97.2147 85.1283 98.0202C85.1371 98.1019 85.1707 98.1789 85.2248 98.2409C85.2788 98.3029 85.3506 98.3469 85.4304 98.3668C86.7648 98.6976 93.1247 100.107 97.4981 98.1219C97.5615 98.093 97.6163 98.0481 97.657 97.9917C97.6978 97.9352 97.7231 97.8691 97.7305 97.7999C97.7842 97.3049 97.5943 96.2835 97.5185 96.0844C97.3553 95.6561 85.891 96.4069 85.891 96.4069Z" fill="#FBD56F"/>
<path opacity="0.1" d="M85.891 96.4069L85.311 96.0844C85.311 96.0844 85.0397 97.2147 85.1283 98.0202C85.1371 98.1019 85.1707 98.1789 85.2248 98.2409C85.2788 98.3029 85.3506 98.3469 85.4304 98.3668C86.7648 98.6976 93.1247 100.107 97.4981 98.1219C97.5615 98.093 97.6163 98.0481 97.657 97.9917C97.6978 97.9352 97.7231 97.8691 97.7305 97.7999C97.7842 97.3049 97.5943 96.2835 97.5185 96.0844C97.3553 95.6561 85.891 96.4069 85.891 96.4069Z" fill="black"/>
<path d="M91.4146 97.458C94.7856 97.458 97.5183 96.8431 97.5183 96.0845C97.5183 95.3259 94.7856 94.7109 91.4146 94.7109C88.0436 94.7109 85.3109 95.3259 85.3109 96.0845C85.3109 96.8431 88.0436 97.458 91.4146 97.458Z" fill="#FBD56F"/>
<path d="M91.0271 94.1819L90.447 93.8595C90.447 93.8595 90.1757 94.9897 90.2644 95.7952C90.2731 95.8769 90.3068 95.9539 90.3608 96.0159C90.4148 96.0779 90.4866 96.1219 90.5664 96.1418C91.9008 96.4726 98.2607 97.8821 102.634 95.8969C102.698 95.868 102.752 95.8231 102.793 95.7667C102.834 95.7102 102.859 95.6441 102.867 95.5749C102.92 95.0799 102.73 94.0585 102.654 93.8595C102.491 93.4312 91.0271 94.1819 91.0271 94.1819Z" fill="#FBD56F"/>
<path opacity="0.1" d="M91.0271 94.1819L90.447 93.8595C90.447 93.8595 90.1757 94.9897 90.2644 95.7952C90.2731 95.8769 90.3068 95.9539 90.3608 96.0159C90.4148 96.0779 90.4866 96.1219 90.5664 96.1418C91.9008 96.4726 98.2607 97.8821 102.634 95.8969C102.698 95.868 102.752 95.8231 102.793 95.7667C102.834 95.7102 102.859 95.6441 102.867 95.5749C102.92 95.0799 102.73 94.0585 102.654 93.8595C102.491 93.4312 91.0271 94.1819 91.0271 94.1819Z" fill="black"/>
<path d="M96.5508 95.2329C99.9218 95.2329 102.655 94.618 102.655 93.8594C102.655 93.1008 99.9218 92.4858 96.5508 92.4858C93.1798 92.4858 90.447 93.1008 90.447 93.8594C90.447 94.618 93.1798 95.2329 96.5508 95.2329Z" fill="#FBD56F"/>
<path d="M87.5569 92.6863L86.9768 92.3638C86.9768 92.3638 86.7055 93.4941 86.7942 94.2996C86.8029 94.3813 86.8366 94.4583 86.8906 94.5203C86.9446 94.5823 87.0164 94.6262 87.0962 94.6462C88.4306 94.977 94.7905 96.3864 99.1639 94.4013C99.2273 94.3724 99.2821 94.3275 99.3229 94.271C99.3636 94.2146 99.389 94.1485 99.3964 94.0793C99.45 93.5843 99.2601 92.5629 99.1843 92.3639C99.0212 91.9356 87.5569 92.6863 87.5569 92.6863Z" fill="#FBD56F"/>
<path opacity="0.1" d="M87.5569 92.6863L86.9768 92.3638C86.9768 92.3638 86.7055 93.4941 86.7942 94.2996C86.8029 94.3813 86.8366 94.4583 86.8906 94.5203C86.9446 94.5823 87.0164 94.6262 87.0962 94.6462C88.4306 94.977 94.7905 96.3864 99.1639 94.4013C99.2273 94.3724 99.2821 94.3275 99.3229 94.271C99.3636 94.2146 99.389 94.1485 99.3964 94.0793C99.45 93.5843 99.2601 92.5629 99.1843 92.3639C99.0212 91.9356 87.5569 92.6863 87.5569 92.6863Z" fill="black"/>
<path d="M93.0806 93.7374C96.4516 93.7374 99.1843 93.1225 99.1843 92.3639C99.1843 91.6053 96.4516 90.9904 93.0806 90.9904C89.7095 90.9904 86.9768 91.6053 86.9768 92.3639C86.9768 93.1225 89.7095 93.7374 93.0806 93.7374Z" fill="#FBD56F"/>
<path d="M89.8738 89.7991L89.2937 89.4766C89.2937 89.4766 89.0224 90.6069 89.1111 91.4124C89.1198 91.4941 89.1535 91.5712 89.2075 91.6331C89.2615 91.6951 89.3333 91.7391 89.4131 91.759C90.7475 92.0899 97.1074 93.4993 101.481 91.5141C101.544 91.4852 101.599 91.4403 101.64 91.3839C101.681 91.3274 101.706 91.2614 101.713 91.1922C101.767 90.6971 101.577 89.6757 101.501 89.4766C101.338 89.0483 89.8738 89.7991 89.8738 89.7991Z" fill="#FBD56F"/>
<path opacity="0.1" d="M89.8738 89.7991L89.2937 89.4766C89.2937 89.4766 89.0224 90.6069 89.1111 91.4124C89.1198 91.4941 89.1535 91.5712 89.2075 91.6331C89.2615 91.6951 89.3333 91.7391 89.4131 91.759C90.7475 92.0899 97.1074 93.4993 101.481 91.5141C101.544 91.4852 101.599 91.4403 101.64 91.3839C101.681 91.3274 101.706 91.2614 101.713 91.1922C101.767 90.6971 101.577 89.6757 101.501 89.4766C101.338 89.0483 89.8738 89.7991 89.8738 89.7991Z" fill="black"/>
<path d="M95.3974 90.8502C98.7684 90.8502 101.501 90.2353 101.501 89.4767C101.501 88.7181 98.7684 88.1031 95.3974 88.1031C92.0264 88.1031 89.2936 88.7181 89.2936 89.4767C89.2936 90.2353 92.0264 90.8502 95.3974 90.8502Z" fill="#FBD56F"/>
<path d="M91.0165 86.3721L90.4364 86.0496C90.4364 86.0496 90.1651 87.1799 90.2538 87.9854C90.2625 88.0671 90.2962 88.1441 90.3502 88.2061C90.4042 88.2681 90.476 88.312 90.5558 88.332C91.8902 88.6628 98.2501 90.0722 102.624 88.0871C102.687 88.0582 102.742 88.0133 102.782 87.9568C102.823 87.9004 102.849 87.8343 102.856 87.7651C102.91 87.2701 102.72 86.2486 102.644 86.0496C102.481 85.6213 91.0165 86.3721 91.0165 86.3721Z" fill="#FBD56F"/>
<path opacity="0.1" d="M91.0165 86.3721L90.4364 86.0496C90.4364 86.0496 90.1651 87.1799 90.2538 87.9854C90.2625 88.0671 90.2962 88.1441 90.3502 88.2061C90.4042 88.2681 90.476 88.312 90.5558 88.332C91.8902 88.6628 98.2501 90.0722 102.624 88.0871C102.687 88.0582 102.742 88.0133 102.782 87.9568C102.823 87.9004 102.849 87.8343 102.856 87.7651C102.91 87.2701 102.72 86.2486 102.644 86.0496C102.481 85.6213 91.0165 86.3721 91.0165 86.3721Z" fill="black"/>
<path d="M96.5402 87.4232C99.9112 87.4232 102.644 86.8083 102.644 86.0497C102.644 85.2911 99.9112 84.6761 96.5402 84.6761C93.1692 84.6761 90.4365 85.2911 90.4365 86.0497C90.4365 86.8083 93.1692 87.4232 96.5402 87.4232Z" fill="#FBD56F"/>
<path d="M101.32 104.664L100.74 104.342C100.74 104.342 100.469 105.472 100.558 106.278C100.566 106.359 100.6 106.437 100.654 106.498C100.708 106.56 100.78 106.604 100.86 106.624C102.194 106.955 108.554 108.365 112.927 106.379C112.991 106.351 113.046 106.306 113.086 106.249C113.127 106.193 113.152 106.127 113.16 106.058C113.213 105.562 113.024 104.541 112.948 104.342C112.785 103.914 101.32 104.664 101.32 104.664Z" fill="#FBD56F"/>
<path opacity="0.1" d="M101.32 104.664L100.74 104.342C100.74 104.342 100.469 105.472 100.558 106.278C100.566 106.359 100.6 106.437 100.654 106.498C100.708 106.56 100.78 106.604 100.86 106.624C102.194 106.955 108.554 108.365 112.927 106.379C112.991 106.351 113.046 106.306 113.086 106.249C113.127 106.193 113.152 106.127 113.16 106.058C113.213 105.562 113.024 104.541 112.948 104.342C112.785 103.914 101.32 104.664 101.32 104.664Z" fill="black"/>
<path d="M106.844 105.715C110.215 105.715 112.948 105.1 112.948 104.342C112.948 103.583 110.215 102.968 106.844 102.968C103.473 102.968 100.74 103.583 100.74 104.342C100.74 105.1 103.473 105.715 106.844 105.715Z" fill="#FBD56F"/>
<path d="M103.382 102.001L102.802 101.679C102.802 101.679 102.53 102.809 102.619 103.614C102.628 103.696 102.661 103.773 102.715 103.835C102.769 103.897 102.841 103.941 102.921 103.961C104.256 104.292 110.615 105.701 114.989 103.716C115.052 103.687 115.107 103.642 115.148 103.586C115.189 103.529 115.214 103.463 115.221 103.394C115.275 102.899 115.085 101.878 115.009 101.679C114.846 101.25 103.382 102.001 103.382 102.001Z" fill="#FBD56F"/>
<path opacity="0.1" d="M103.382 102.001L102.802 101.679C102.802 101.679 102.53 102.809 102.619 103.614C102.628 103.696 102.661 103.773 102.715 103.835C102.769 103.897 102.841 103.941 102.921 103.961C104.256 104.292 110.615 105.701 114.989 103.716C115.052 103.687 115.107 103.642 115.148 103.586C115.189 103.529 115.214 103.463 115.221 103.394C115.275 102.899 115.085 101.878 115.009 101.679C114.846 101.25 103.382 102.001 103.382 102.001Z" fill="black"/>
<path d="M108.906 103.052C112.277 103.052 115.009 102.437 115.009 101.678C115.009 100.92 112.277 100.305 108.906 100.305C105.534 100.305 102.802 100.92 102.802 101.678C102.802 102.437 105.534 103.052 108.906 103.052Z" fill="#FBD56F"/>
<path d="M101.099 99.2284L100.519 98.906C100.519 98.906 100.247 100.036 100.336 100.842C100.345 100.923 100.378 101 100.432 101.062C100.486 101.124 100.558 101.168 100.638 101.188C101.972 101.519 108.332 102.929 112.706 100.943C112.769 100.915 112.824 100.87 112.865 100.813C112.905 100.757 112.931 100.691 112.938 100.621C112.992 100.126 112.802 99.105 112.726 98.906C112.563 98.4777 101.099 99.2284 101.099 99.2284Z" fill="#FBD56F"/>
<path opacity="0.1" d="M101.099 99.2284L100.519 98.906C100.519 98.906 100.247 100.036 100.336 100.842C100.345 100.923 100.378 101 100.432 101.062C100.486 101.124 100.558 101.168 100.638 101.188C101.972 101.519 108.332 102.929 112.706 100.943C112.769 100.915 112.824 100.87 112.865 100.813C112.905 100.757 112.931 100.691 112.938 100.621C112.992 100.126 112.802 99.105 112.726 98.906C112.563 98.4777 101.099 99.2284 101.099 99.2284Z" fill="black"/>
<path d="M106.622 100.279C109.993 100.279 112.726 99.6643 112.726 98.9058C112.726 98.1472 109.993 97.5322 106.622 97.5322C103.251 97.5322 100.519 98.1472 100.519 98.9058C100.519 99.6643 103.251 100.279 106.622 100.279Z" fill="#FBD56F"/>
<path d="M106.235 97.0032L105.655 96.6807C105.655 96.6807 105.383 97.811 105.472 98.6165C105.481 98.6982 105.514 98.7752 105.569 98.8372C105.623 98.8992 105.694 98.9431 105.774 98.9631C107.109 99.2939 113.468 100.703 117.842 98.7182C117.905 98.6893 117.96 98.6444 118.001 98.5879C118.042 98.5315 118.067 98.4654 118.074 98.3962C118.128 97.9012 117.938 96.8798 117.862 96.6807C117.699 96.2524 106.235 97.0032 106.235 97.0032Z" fill="#FBD56F"/>
<path opacity="0.1" d="M106.235 97.0032L105.655 96.6807C105.655 96.6807 105.383 97.811 105.472 98.6165C105.481 98.6982 105.514 98.7752 105.569 98.8372C105.623 98.8992 105.694 98.9431 105.774 98.9631C107.109 99.2939 113.468 100.703 117.842 98.7182C117.905 98.6893 117.96 98.6444 118.001 98.5879C118.042 98.5315 118.067 98.4654 118.074 98.3962C118.128 97.9012 117.938 96.8798 117.862 96.6807C117.699 96.2524 106.235 97.0032 106.235 97.0032Z" fill="black"/>
<path d="M111.758 98.0543C115.129 98.0543 117.862 97.4394 117.862 96.6808C117.862 95.9222 115.129 95.3073 111.758 95.3073C108.387 95.3073 105.655 95.9222 105.655 96.6808C105.655 97.4394 108.387 98.0543 111.758 98.0543Z" fill="#FBD56F"/>
<path d="M102.765 95.5077L102.185 95.1853C102.185 95.1853 101.913 96.3156 102.002 97.121C102.011 97.2027 102.044 97.2798 102.098 97.3418C102.152 97.4037 102.224 97.4477 102.304 97.4676C103.638 97.7985 109.998 99.2079 114.372 97.2227C114.435 97.1938 114.49 97.1489 114.531 97.0925C114.571 97.036 114.597 96.97 114.604 96.9008C114.658 96.4057 114.468 95.3843 114.392 95.1853C114.229 94.757 102.765 95.5077 102.765 95.5077Z" fill="#FBD56F"/>
<path opacity="0.1" d="M102.765 95.5077L102.185 95.1853C102.185 95.1853 101.913 96.3156 102.002 97.121C102.011 97.2027 102.044 97.2798 102.098 97.3418C102.152 97.4037 102.224 97.4477 102.304 97.4676C103.638 97.7985 109.998 99.2079 114.372 97.2227C114.435 97.1938 114.49 97.1489 114.531 97.0925C114.571 97.036 114.597 96.97 114.604 96.9008C114.658 96.4057 114.468 95.3843 114.392 95.1853C114.229 94.757 102.765 95.5077 102.765 95.5077Z" fill="black"/>
<path d="M108.288 96.5587C111.659 96.5587 114.392 95.9438 114.392 95.1852C114.392 94.4266 111.659 93.8116 108.288 93.8116C104.917 93.8116 102.185 94.4266 102.185 95.1852C102.185 95.9438 104.917 96.5587 108.288 96.5587Z" fill="#FBD56F"/>
<path d="M105.081 92.6205L104.501 92.298C104.501 92.298 104.23 93.4283 104.319 94.2338C104.327 94.3155 104.361 94.3926 104.415 94.4545C104.469 94.5165 104.541 94.5605 104.621 94.5804C105.955 94.9113 112.315 96.3207 116.688 94.3355C116.752 94.3066 116.807 94.2617 116.847 94.2053C116.888 94.1488 116.913 94.0828 116.921 94.0136C116.975 93.5185 116.785 92.4971 116.709 92.2981C116.546 91.8697 105.081 92.6205 105.081 92.6205Z" fill="#FBD56F"/>
<path opacity="0.1" d="M105.081 92.6205L104.501 92.298C104.501 92.298 104.23 93.4283 104.319 94.2338C104.327 94.3155 104.361 94.3926 104.415 94.4545C104.469 94.5165 104.541 94.5605 104.621 94.5804C105.955 94.9113 112.315 96.3207 116.688 94.3355C116.752 94.3066 116.807 94.2617 116.847 94.2053C116.888 94.1488 116.913 94.0828 116.921 94.0136C116.975 93.5185 116.785 92.4971 116.709 92.2981C116.546 91.8697 105.081 92.6205 105.081 92.6205Z" fill="black"/>
<path d="M110.605 93.6715C113.976 93.6715 116.709 93.0565 116.709 92.298C116.709 91.5394 113.976 90.9244 110.605 90.9244C107.234 90.9244 104.501 91.5394 104.501 92.298C104.501 93.0565 107.234 93.6715 110.605 93.6715Z" fill="#FBD56F"/>
<path d="M106.224 89.1934L105.644 88.8709C105.644 88.8709 105.373 90.0012 105.462 90.8067C105.47 90.8884 105.504 90.9654 105.558 91.0274C105.612 91.0894 105.684 91.1334 105.764 91.1533C107.098 91.4841 113.458 92.8936 117.831 90.9084C117.895 90.8795 117.95 90.8346 117.99 90.7782C118.031 90.7217 118.056 90.6556 118.064 90.5864C118.117 90.0914 117.928 89.0699 117.852 88.8709C117.689 88.4426 106.224 89.1934 106.224 89.1934Z" fill="#FBD56F"/>
<path opacity="0.1" d="M106.224 89.1934L105.644 88.8709C105.644 88.8709 105.373 90.0012 105.462 90.8067C105.47 90.8884 105.504 90.9654 105.558 91.0274C105.612 91.0894 105.684 91.1334 105.764 91.1533C107.098 91.4841 113.458 92.8936 117.831 90.9084C117.895 90.8795 117.95 90.8346 117.99 90.7782C118.031 90.7217 118.056 90.6556 118.064 90.5864C118.117 90.0914 117.928 89.0699 117.852 88.8709C117.689 88.4426 106.224 89.1934 106.224 89.1934Z" fill="black"/>
<path d="M111.748 90.2446C115.119 90.2446 117.852 89.6297 117.852 88.8711C117.852 88.1125 115.119 87.4976 111.748 87.4976C108.377 87.4976 105.644 88.1125 105.644 88.8711C105.644 89.6297 108.377 90.2446 111.748 90.2446Z" fill="#FBD56F"/>
<path d="M143.014 112.748C142.164 112.719 142.134 112.39 141.042 111.822C140.425 111.501 139.489 110.571 138.791 109.821C138.735 109.761 138.681 109.703 138.628 109.646C138.813 109.642 138.918 109.64 138.918 109.64C138.918 109.64 138.645 107.248 138.887 106.68C139.13 106.112 138.948 102.735 138.948 102.735C138.948 102.735 139.1 100.164 138.827 99.5662C138.553 98.9683 138.918 95.1422 138.918 95.1422C138.918 95.1422 139.16 92.8704 139.221 88.2372C139.282 83.604 136.551 83.4545 136.551 83.4545C136.551 83.4545 136.187 83.4264 135.634 83.3738C135.581 83.3688 135.525 83.3634 135.468 83.3579C135.826 82.6097 136.035 82.0496 136.035 82.0496C136.035 82.0496 135.58 77.7153 135.458 76.968C135.337 76.2207 134.609 73.1419 134.609 73.1419C134.609 73.1419 134.093 71.8267 133.79 70.9C133.486 69.9734 132.576 68.8973 132.576 68.8973C132.576 68.8973 130.937 65.669 130.482 65.1907C130.271 64.9689 129.975 64.6891 129.718 64.453C129.672 64.4104 129.627 64.3699 129.584 64.3308C129.653 63.9939 129.69 63.6513 129.693 63.3075C129.693 63.3075 127.994 61.6336 127.872 61.2151C127.751 60.7966 126.143 59.2422 126.143 59.2422C126.143 59.2422 125.233 57.5683 124.201 57.5384C123.713 57.5108 123.225 57.5256 122.74 57.5826C122.951 56.7997 123.202 55.9795 123.427 55.2756C123.452 55.1972 123.477 55.1207 123.501 55.0454C124.326 54.4888 124.973 53.7076 125.365 52.7946C125.387 52.746 125.406 52.697 125.426 52.6479C125.437 52.6482 125.447 52.65 125.458 52.6498C125.501 52.6493 125.544 52.6454 125.586 52.6383C125.926 52.58 126.213 52.1971 126.056 51.895C126.067 51.912 126.081 51.9261 126.099 51.9356C126.116 51.9451 126.136 51.9499 126.155 51.9492C126.269 51.9455 126.407 51.782 126.433 51.6382C126.438 51.6132 126.44 51.588 126.444 51.5629C126.449 51.5317 126.454 51.5006 126.458 51.4692C126.461 51.4397 126.464 51.4102 126.466 51.3806C126.469 51.3501 126.471 51.3197 126.473 51.2891C126.474 51.2605 126.475 51.2319 126.475 51.2033C126.476 51.1703 126.476 51.1374 126.475 51.1045C126.475 51.0781 126.474 51.0518 126.473 51.0255C126.471 50.9854 126.468 50.9454 126.464 50.9055C126.463 50.8891 126.462 50.8726 126.461 50.8562L126.46 50.8586C126.443 50.6953 126.41 50.5339 126.363 50.3765C126.195 49.8209 125.843 49.2699 125.979 48.7058C125.98 48.6998 125.983 48.6942 125.984 48.6882L125.985 48.6893C126.098 48.2516 126.477 47.9335 126.709 47.5424C126.731 47.5051 126.751 47.4666 126.77 47.4281C126.773 47.421 126.778 47.4142 126.781 47.4071C126.795 47.378 126.807 47.3482 126.819 47.3185C126.827 47.2994 126.836 47.2806 126.843 47.2612C126.853 47.2352 126.861 47.2086 126.869 47.1822C126.877 47.1581 126.885 47.1342 126.892 47.1098C126.899 47.0863 126.904 47.0626 126.91 47.039C126.916 47.0104 126.923 46.982 126.929 46.9531C126.932 46.9325 126.936 46.9117 126.939 46.8909C126.944 46.8583 126.949 46.8256 126.952 46.7927C126.954 46.7749 126.955 46.757 126.957 46.7392C126.96 46.7024 126.962 46.6657 126.963 46.6289C126.963 46.6141 126.963 46.5994 126.963 46.5846C126.963 46.5443 126.962 46.504 126.96 46.4637C126.959 46.4516 126.959 46.4396 126.958 46.4275C126.955 46.3845 126.95 46.3418 126.945 46.299C126.944 46.2928 126.944 46.2866 126.943 46.2804L126.942 46.2821C126.891 45.9065 126.741 45.5511 126.508 45.2519C126.242 44.9361 125.906 44.6865 125.527 44.5228C125.148 44.3591 124.736 44.2859 124.324 44.3088C124.096 44.3345 123.866 44.3387 123.637 44.3214C123.256 44.2657 122.934 44.0241 122.63 43.7906C121.783 43.1392 120.936 42.4877 120.089 41.8362C119.805 41.5902 119.48 41.3971 119.128 41.266C118.769 41.1563 118.338 41.1941 118.072 41.4561C117.596 41.9249 117.899 42.7317 117.708 43.3674C117.542 43.918 117.01 44.2911 116.458 44.4771C115.907 44.6631 115.317 44.7039 114.75 44.8385C114.581 44.8658 114.423 44.9383 114.293 45.0482C114.146 45.2261 114.075 45.4541 114.094 45.6837C114.091 46.2467 114.226 46.8019 114.489 47.3002C114.596 47.5032 114.726 47.7083 114.84 47.9163C114.849 47.9335 114.858 47.9507 114.867 47.9679C114.88 47.9918 114.893 48.0156 114.905 48.0396C114.925 48.0785 114.944 48.1174 114.962 48.1565C114.969 48.1734 114.976 48.1903 114.983 48.2073C114.995 48.2349 115.007 48.2627 115.017 48.2905C115.024 48.3082 115.031 48.3259 115.037 48.3436C115.049 48.3763 115.059 48.4091 115.068 48.442C115.129 48.6353 115.134 48.8417 115.085 49.038C114.997 49.3593 114.746 49.6069 114.524 49.8579C114.343 50.054 114.215 50.2922 114.15 50.5508L114.149 50.5565C114.136 50.6166 114.134 50.6784 114.142 50.7393C114.143 50.7468 114.144 50.7545 114.145 50.7618C114.148 50.7754 114.152 50.7887 114.157 50.8018C114.16 50.8113 114.164 50.8206 114.169 50.8297C114.173 50.8403 114.178 50.8506 114.184 50.8606C114.195 50.8773 114.208 50.8926 114.223 50.906C114.23 50.9117 114.237 50.9169 114.244 50.9218C114.256 50.9309 114.269 50.9389 114.283 50.9457C114.291 50.9498 114.3 50.9537 114.309 50.9571C114.329 50.9646 114.35 50.9703 114.371 50.9741C114.377 50.9752 114.382 50.977 114.388 50.9779C114.421 50.9821 114.453 50.9835 114.486 50.982C114.495 50.9817 114.506 50.9806 114.516 50.9799C114.547 50.9775 114.578 50.9736 114.609 50.9681C114.62 50.9661 114.631 50.9643 114.643 50.9619C114.688 50.9527 114.735 50.9413 114.786 50.9253C114.957 50.8739 115.122 50.8085 115.282 50.7297C115.282 50.7479 115.281 50.7658 115.281 50.7841C115.281 50.8155 115.281 50.8484 115.284 50.8798C115.292 51.4659 115.403 52.0462 115.611 52.5943C115.937 53.4485 116.483 54.2015 117.194 54.7769C117.185 54.8286 117.175 54.8804 117.165 54.9325C117.019 55.6493 116.713 56.3685 116.524 56.3129C116.339 56.2718 116.151 56.2511 115.961 56.2513C115.904 56.2496 115.849 56.2488 115.796 56.2485L115.796 56.2483C115.624 56.2285 115.451 56.2285 115.28 56.2483C115.203 56.2535 115.126 56.2429 115.054 56.2172C114.564 56.063 114.043 56.0338 113.538 56.1323C112.489 56.347 110.893 56.7397 110.455 57.2096C109.788 57.927 108.817 58.6145 107.724 61.6037C107.724 61.6037 107.178 63.4271 106.753 63.6662C106.847 63.6178 106.943 63.5746 107.041 63.5369C106.985 63.6357 106.907 63.7207 106.814 63.7858C106.968 63.7073 107.128 63.6408 107.292 63.5869C106.96 65.5344 107.451 71.1052 107.451 71.1052C107.451 71.1052 107.057 72.0658 107.573 72.6337C107.879 72.9713 108.046 73.4976 108.131 73.8701C108.107 73.9074 108.082 73.9461 108.056 73.9861V73.9866C107.783 74.4093 107.418 74.9605 107.178 75.2642C106.753 75.8023 106.875 77.5061 106.875 77.5061C106.875 77.5061 106.784 78.3132 106.48 78.6121C106.177 78.911 106.237 80.017 106.237 80.017L105.448 82.9165C105.448 82.9165 104.72 83.5741 104.72 83.873C104.72 84.172 104.144 85.0089 104.144 85.0089C104.144 85.0089 103.264 86.4437 104.144 86.2345C104.464 86.1407 104.765 85.9896 105.032 85.7885L105.032 85.81C105.03 85.8626 105.029 85.916 105.028 85.9702C105.004 87.533 105.174 89.7318 106.328 89.7318C108.119 89.7318 112.731 91.8541 112.731 91.8541C113.672 92.5715 114.946 92.3324 114.946 92.3324C114.946 92.3324 112.701 94.5743 112.761 95.5009C112.822 96.4275 111.487 97.952 111.487 97.952L107.36 105.993C107.383 106.553 107.483 107.108 107.656 107.641C107.636 107.658 107.616 107.674 107.597 107.692C106.011 109.138 105.873 112.001 105.873 112.001L105.509 113.466L111.032 115.887C111.032 115.887 118.193 116.037 119.437 115.708C120.681 115.379 120.408 114.004 118.769 113.735C117.131 113.466 116.736 112.748 116.19 112.42C115.822 112.198 114.513 110.764 113.701 109.855C113.689 109.842 113.678 109.829 113.666 109.815L113.854 108.773C114.218 108.593 114.764 106.8 114.764 106.8C114.764 106.8 114.764 106.083 115.128 105.873C115.492 105.664 116.251 103.512 116.251 103.512C116.251 103.512 117.889 100.792 117.798 100.433C117.707 100.074 118.982 98.2509 118.982 98.2509C118.982 98.2509 121.136 96.1585 121.045 95.7849C120.954 95.4112 122.775 93.4982 122.775 93.4982C123.433 92.9968 123.981 92.3665 124.386 91.6461C124.55 91.6198 124.726 91.5917 124.912 91.5606C127.294 91.1708 131.253 90.4659 131.696 90.2698C132.303 90.0008 132.181 91.1965 131.939 92.2128C131.696 93.2291 131.514 98.1015 131.787 98.7292C132.06 99.3569 131.939 100.373 131.939 100.373L131.574 105.843L131.817 107.009C131.817 107.009 130.998 107.667 131.332 108.055C131.665 108.444 131.362 110.118 131.362 110.118C131.391 110.107 131.425 110.097 131.463 110.087C131.434 110.152 131.406 110.22 131.381 110.291C130.91 111.629 131.18 113.825 131.18 113.825V115.558C131.18 115.558 139.585 115.708 141.436 115.708C143.287 115.708 145.836 114.811 145.988 114.094C146.139 113.376 143.864 112.778 143.014 112.748ZM119.108 81.6298L118.557 81.676C118.74 81.6495 118.924 81.6341 119.108 81.6298ZM122.465 58.6859C122.542 58.3401 122.635 57.9681 122.739 57.5867L122.465 58.6859ZM123.503 82.4681C122.978 82.6756 122.394 82.6762 121.868 82.4699L121.864 82.4681C121.864 82.4681 121.895 80.3757 122.138 79.5088C122.38 78.642 122.714 77.0577 122.714 77.0577C122.714 77.0577 122.987 74.8756 123.26 73.8892C123.533 72.9028 124.595 67.4027 125.142 67.044C125.688 66.6853 125.991 67.313 125.991 67.313C125.991 67.313 126.073 67.3114 126.21 67.2962C126.235 67.3536 126.264 67.4146 126.296 67.4792C126.944 68.7855 128.843 71.468 128.843 71.468C129.407 71.815 129.884 72.2851 130.239 72.843C130.755 73.7098 130.907 75.7425 130.907 75.7425C130.907 75.7425 132.06 80.2561 132.606 80.8839C132.879 81.1977 132.758 81.3848 132.568 81.493C132.182 81.7045 131.853 82.0077 131.611 82.376C131.533 82.4992 131.451 82.6344 131.367 82.7785C131.159 82.7302 130.972 82.6801 130.816 82.6277C129.329 82.1291 124.322 82.1094 123.503 82.4681Z" fill="url(#paint0_linear_79_776)"/>
<path d="M130.981 113.842V115.561C130.981 115.561 139.206 115.709 141.017 115.709C142.828 115.709 145.322 114.82 145.471 114.109C145.619 113.397 143.392 112.805 142.561 112.775C141.729 112.745 141.7 112.419 140.631 111.856C140.027 111.538 139.111 110.615 138.428 109.872C137.902 109.299 137.513 108.833 137.513 108.833C137.513 108.833 133.089 108.744 131.812 109.455C131.518 109.619 131.315 109.941 131.178 110.338C130.717 111.665 130.981 113.842 130.981 113.842Z" fill="#434175"/>
<path opacity="0.1" d="M131.177 110.338C132.105 110.016 137.536 109.891 138.428 109.872C137.901 109.299 137.513 108.833 137.513 108.833C137.513 108.833 133.089 108.744 131.812 109.455C131.518 109.619 131.315 109.941 131.177 110.338Z" fill="black"/>
<path d="M107.316 82.9259C107.316 82.9259 107.488 83.0296 107.796 83.2152C107.852 83.2484 107.912 83.2851 107.976 83.3237C108.172 83.4417 108.406 83.5822 108.674 83.7434C112.406 85.9885 122.585 92.0745 123.142 92.0258C123.288 92.0134 123.727 91.9476 124.333 91.8492C124.493 91.8231 124.665 91.7952 124.847 91.7644C127.179 91.3779 131.053 90.6789 131.486 90.4845C132.08 90.2177 131.961 91.4034 131.723 92.4112C131.486 93.419 131.308 98.2506 131.575 98.873C131.842 99.4955 131.723 100.503 131.723 100.503L131.367 105.928L131.604 107.084C131.604 107.084 130.803 107.736 131.129 108.121C131.456 108.507 131.159 110.166 131.159 110.166C132.109 109.811 138.552 109.692 138.552 109.692C138.552 109.692 138.285 107.321 138.523 106.758C138.76 106.194 138.582 102.845 138.582 102.845C138.582 102.845 138.731 100.296 138.463 99.703C138.196 99.1102 138.552 95.3161 138.552 95.3161C138.552 95.3161 138.79 93.0633 138.849 88.4689C138.909 83.8744 136.236 83.7262 136.236 83.7262C136.236 83.7262 135.88 83.6984 135.339 83.6462C134.281 83.5448 132.517 83.351 131.339 83.0954C131.098 83.0456 130.859 82.9825 130.625 82.9063C129.17 82.4119 124.271 82.3923 123.469 82.748C122.956 82.9537 122.383 82.9544 121.869 82.7498L121.866 82.748L121.242 81.7402L115.286 82.2471L114.655 82.301L108.792 82.8002L108.389 82.8346L107.316 82.9259Z" fill="#565387"/>
<path opacity="0.1" d="M131.189 87.473C132.919 88.3148 134.569 85.3305 135.339 83.6463C134.281 83.5449 132.517 83.3511 131.339 83.0956C130.564 84.3939 129.53 86.6662 131.189 87.473Z" fill="black"/>
<path d="M125.993 67.3049C126.029 67.5087 126.1 67.7048 126.202 67.8847C126.836 69.18 128.695 71.8401 128.695 71.8401C129.247 72.1854 129.714 72.6516 130.06 73.2036C130.565 74.0632 130.714 76.0788 130.714 76.0788C130.714 76.0788 131.842 80.5547 132.376 81.1772C132.644 81.4884 132.525 81.6739 132.34 81.7812C131.96 81.9919 131.638 82.2926 131.402 82.6569C130.624 83.9065 129.381 86.3852 131.129 87.2359C133.505 88.3919 135.732 82.3332 135.732 82.3332C135.732 82.3332 135.286 78.0351 135.167 77.2941C135.049 76.5531 134.336 73.5 134.336 73.5C134.336 73.5 133.831 72.1958 133.534 71.2769C133.237 70.358 132.347 69.2909 132.347 69.2909C132.347 69.2909 130.743 66.0896 130.298 65.6153C130.091 65.3954 129.802 65.1179 129.55 64.8838C129.26 64.6128 129.021 64.4 129.021 64.4C129.021 64.4 125.963 66.5935 125.993 67.3049Z" fill="#EE8E9E"/>
<path d="M105.862 113.486L111.266 115.887C111.266 115.887 118.273 116.035 119.49 115.709C120.708 115.383 120.44 114.02 118.837 113.753C117.234 113.486 116.848 112.775 116.313 112.449C115.953 112.229 114.672 110.807 113.878 109.906C113.495 109.472 113.225 109.159 113.225 109.159C113.225 109.159 112.186 106.402 109.306 107.024C108.78 107.138 108.296 107.392 107.904 107.761C106.353 109.195 106.218 112.034 106.218 112.034L105.862 113.486Z" fill="#434175"/>
<path opacity="0.1" d="M107.976 83.3237C108.172 83.4417 108.406 83.5822 108.674 83.7434C112.406 85.9885 122.585 92.0745 123.142 92.0259C123.288 92.0134 123.727 91.9476 124.333 91.8492C124.493 91.8231 124.665 91.7953 124.847 91.7644C124.854 91.7532 124.861 91.7419 124.867 91.7307C125.166 91.2093 125.395 90.6508 125.547 90.0695C126.171 87.6982 123.083 85.8901 123.083 85.8901L122.43 85.3832C121.687 84.1353 116.343 82.9556 116.343 82.9556L115.654 82.4938L115.286 82.2471L115.19 82.1825L114.353 81.6217L110.167 81.9181L108.923 82.7161L108.792 82.8003L108.331 83.0967L107.976 83.3237Z" fill="black"/>
<path opacity="0.1" d="M107.904 107.761C109.041 111.685 113.789 110.404 113.789 110.404L113.878 109.906C113.495 109.472 113.225 109.159 113.225 109.159C113.225 109.159 112.186 106.402 109.306 107.024C108.78 107.138 108.296 107.392 107.904 107.761Z" fill="black"/>
<path d="M106.663 89.9509C108.415 89.9509 112.928 92.0555 112.928 92.0555C113.849 92.7669 115.096 92.5298 115.096 92.5298C115.096 92.5298 112.899 94.7529 112.958 95.6718C113.017 96.5906 111.711 98.1024 111.711 98.1024L107.673 106.076C107.97 111.737 113.789 110.166 113.789 110.166L114.027 108.833C114.383 108.655 114.918 106.876 114.918 106.876C114.918 106.876 114.918 106.165 115.274 105.957C115.63 105.75 116.372 103.616 116.372 103.616C116.372 103.616 117.976 100.918 117.887 100.563C117.798 100.207 119.045 98.3988 119.045 98.3988C119.045 98.3988 121.153 96.3239 121.064 95.9534C120.975 95.5828 122.756 93.6858 122.756 93.6858C123.402 93.1871 123.938 92.5621 124.333 91.8492C124.632 91.3278 124.861 90.7693 125.013 90.1881C125.515 88.2786 123.61 86.7336 122.849 86.2054C122.665 86.0774 122.548 86.0086 122.548 86.0086L121.895 85.5017C121.558 84.9338 120.268 84.3807 118.962 83.9462C118.02 83.6325 117.07 83.3806 116.462 83.2294C116.06 83.1298 115.808 83.0741 115.808 83.0741L115.12 82.6123L114.877 82.4498L114.655 82.301L113.819 81.7402L111.956 81.8718L109.632 82.0366L108.389 82.8346L107.796 83.2152L105.476 84.7044C105.476 84.7044 105.414 85.2747 105.395 86.04C105.394 86.0993 105.392 86.1592 105.391 86.2208C105.367 87.7705 105.534 89.9509 106.663 89.9509Z" fill="#565387"/>
<path d="M115.6 56.7524L116.224 58.9755C116.224 58.9755 117.323 62.7993 117.441 63.066C117.56 63.3328 120.44 66.0302 120.559 66.0895C120.678 66.1487 122.246 67.038 122.246 67.038C122.246 67.038 122.37 62.1471 122.251 60.7243C122.241 60.4118 122.267 60.0991 122.329 59.7924C122.518 58.6773 122.997 57.0423 123.395 55.7831C123.727 54.7279 124.003 53.9364 124.003 53.9364C124.003 53.9364 117.055 53.64 117.293 54.3218C117.383 54.5797 117.353 55.0106 117.267 55.4428C117.124 56.1536 116.824 56.8668 116.64 56.8117C116.459 56.7709 116.274 56.7504 116.089 56.7506C115.833 56.7429 115.6 56.7524 115.6 56.7524Z" fill="#EE8E9E"/>
<path opacity="0.1" d="M117.267 55.4428C118.116 56.1501 119.17 56.5652 120.274 56.6265C121.378 56.6878 122.473 56.392 123.395 55.7831C123.727 54.7279 124.003 53.9364 124.003 53.9364C124.003 53.9364 117.055 53.64 117.293 54.3218C117.383 54.5797 117.354 55.0106 117.267 55.4428Z" fill="black"/>
<path d="M125.696 51.3292C125.697 51.8731 125.61 52.4135 125.44 52.9301C125.397 53.0634 125.347 53.1945 125.291 53.3229C124.891 54.2686 124.216 55.0727 123.353 55.6312C122.49 56.1896 121.48 56.4767 120.451 56.4553C119.423 56.4339 118.425 56.105 117.587 55.5111C116.748 54.9173 116.107 54.0858 115.747 53.1243C115.543 52.5802 115.434 52.005 115.426 51.4241C115.423 51.393 115.423 51.3604 115.423 51.3292C115.423 49.9692 115.964 48.6649 116.928 47.7032C117.891 46.7416 119.197 46.2013 120.56 46.2013C121.922 46.2013 123.229 46.7416 124.192 47.7032C125.155 48.6649 125.696 49.9692 125.696 51.3292H125.696Z" fill="#EE8E9E"/>
<path opacity="0.1" d="M115.6 56.7525L116.224 58.9756C116.224 58.9756 117.323 62.7993 117.441 63.0661C117.56 63.3329 120.44 66.0303 120.559 66.0896C120.678 66.1488 122.246 67.0381 122.246 67.0381C122.246 67.0381 122.37 62.1472 122.251 60.7244C122.241 60.4119 122.267 60.0992 122.329 59.7925L121.925 61.4358L121.955 64.726L122.192 64.9039L121.658 65.7042V65.1114C121.658 65.1114 119.757 63.2736 119.46 62.5029C119.163 61.7323 118.095 60.3367 118.095 60.3367C118.095 60.3367 116.877 58.2938 116.848 57.9381C116.824 57.6607 116.313 57.0193 116.089 56.7507C115.833 56.743 115.6 56.7525 115.6 56.7525Z" fill="black"/>
<path opacity="0.1" d="M125.993 67.3049C126.029 67.5087 126.1 67.7048 126.202 67.8847C126.851 67.8183 129.063 67.4062 129.55 64.8838C129.26 64.6128 129.021 64.4 129.021 64.4C129.021 64.4 125.963 66.5935 125.993 67.3049Z" fill="black"/>
<path opacity="0.1" d="M105.391 86.221C105.99 85.7977 106.561 85.2203 106.901 85.0602C107.406 84.8231 108.178 84.0524 108.178 84.0524C108.178 84.0524 108.373 83.9196 108.674 83.7435C109.225 83.421 110.128 82.9539 110.82 82.8964C111.44 82.8448 113.499 82.7132 115.119 82.6124C116.292 82.5389 117.234 82.4814 117.234 82.4814C117.234 82.4814 119.164 81.7996 119.995 82.2443C120.59 82.542 121.218 82.7708 121.865 82.926C121.865 82.926 121.866 82.8614 121.869 82.7499L121.865 82.7482L121.242 81.7404L114.655 82.3012L113.819 81.7404L109.632 82.0368L108.389 82.8347L107.316 82.926C107.316 82.926 107.488 83.0298 107.796 83.2153L105.476 84.7045C105.476 84.7045 105.404 85.3667 105.391 86.221Z" fill="black"/>
<path d="M104.525 86.483C104.84 86.3897 105.134 86.2398 105.395 86.0407V86.0401C105.993 85.6174 106.561 85.0418 106.901 84.8823C107.406 84.6452 108.177 83.8745 108.177 83.8745C108.177 83.8745 109.751 82.8074 110.82 82.7185C111.112 82.6942 111.721 82.6521 112.453 82.6047C113.203 82.5549 114.08 82.4991 114.877 82.4499C115.337 82.4209 115.77 82.3936 116.136 82.3711C116.791 82.3308 117.234 82.3035 117.234 82.3035C117.234 82.3035 119.163 81.6217 119.995 82.0664C120.59 82.3641 121.218 82.5929 121.865 82.7481C121.865 82.7481 121.895 80.6732 122.133 79.8136C122.37 78.954 122.697 77.383 122.697 77.383C122.697 77.383 122.964 75.2192 123.231 74.241C123.498 73.2628 124.538 67.8088 125.072 67.4531C125.607 67.0974 125.904 67.7199 125.904 67.7199C125.904 67.7199 129.467 67.6606 129.526 63.7479C129.526 63.7479 127.863 62.088 127.744 61.673C127.626 61.258 126.052 59.7166 126.052 59.7166C126.052 59.7166 125.161 58.0567 124.152 58.0271C123.675 57.9997 123.196 58.0144 122.722 58.0709L121.865 61.5544L121.895 64.8446L122.133 65.0225L121.598 65.8228V65.23C121.598 65.23 119.698 63.3922 119.401 62.6215C119.104 61.8508 118.035 60.4553 118.035 60.4553C118.035 60.4553 116.818 58.4124 116.788 58.0567C116.758 57.701 115.927 56.7477 115.927 56.7477C115.759 56.7281 115.59 56.7281 115.422 56.7477C115.347 56.7529 115.272 56.7424 115.201 56.7169C114.722 56.564 114.212 56.535 113.718 56.6327C112.691 56.8456 111.129 57.235 110.701 57.701C110.048 58.4124 109.098 59.0942 108.029 62.0583L113.789 64.1332L113.296 65.0687L108.712 73.7667C108.712 73.7667 108.56 74.0139 108.354 74.337V74.3376C108.087 74.7567 107.729 75.3033 107.495 75.6045C107.079 76.1381 107.198 77.8276 107.198 77.8276C107.198 77.8276 107.109 78.6279 106.812 78.9244C106.515 79.2208 106.574 80.3175 106.574 80.3175L105.802 83.1928C105.802 83.1928 105.09 83.8449 105.09 84.1413C105.09 84.4377 104.525 85.2677 104.525 85.2677C104.525 85.2677 103.664 86.6905 104.525 86.483Z" fill="#434175"/>
<path opacity="0.1" d="M134.93 88.6171C134.93 88.6171 133.059 89.2395 132.555 90.1288C132.05 91.018 134.93 88.6171 134.93 88.6171Z" fill="black"/>
<path opacity="0.1" d="M133.98 86.6608C133.92 86.7497 131.418 89.2567 131.575 89.8621C131.732 90.4674 133.98 86.6608 133.98 86.6608Z" fill="black"/>
<path opacity="0.1" d="M120.232 88.4392C120.232 88.4392 117.441 89.7532 117.204 90.3263C116.966 90.8994 120.232 88.4392 120.232 88.4392Z" fill="black"/>
<path opacity="0.1" d="M120.054 90.1288C120.054 90.1288 117.535 91.1958 117.192 91.4626C116.848 91.7294 120.054 90.1288 120.054 90.1288Z" fill="black"/>
<path opacity="0.1" d="M118.896 92.4112C118.896 92.4112 117.781 93.2412 117.166 92.589C116.551 91.9369 118.896 92.4112 118.896 92.4112Z" fill="black"/>
<path opacity="0.1" d="M123.083 70.7729C123.023 70.8619 119.312 77.5312 118.332 78.0351C117.352 78.539 123.083 70.7729 123.083 70.7729Z" fill="black"/>
<path opacity="0.1" d="M122.905 73.2925C122.905 73.4407 119.282 81.1772 118.688 81.2661C118.095 81.355 122.905 73.2925 122.905 73.2925Z" fill="black"/>
<path opacity="0.1" d="M109.128 78.2722C109.128 78.2722 107.378 82.0019 106.693 82.2146C106.008 82.4272 109.128 78.2722 109.128 78.2722Z" fill="black"/>
<path opacity="0.1" d="M108.831 76.6123C108.831 76.6123 108.228 77.9165 107.861 77.9165C107.495 77.9165 108.831 76.6123 108.831 76.6123Z" fill="black"/>
<path opacity="0.1" d="M125.696 51.3292C125.697 51.8731 125.61 52.4135 125.439 52.9301C125.397 53.0634 125.347 53.1945 125.291 53.3229C125.027 53.283 124.779 53.1741 124.571 53.0072C124.35 52.858 124.166 52.6615 124.032 52.432C123.931 52.1875 123.843 51.9376 123.769 51.6835C123.651 51.3966 123.458 51.1466 123.21 50.9592C122.962 50.7719 122.669 50.654 122.36 50.6177C122.531 50.9083 122.259 51.307 121.925 51.3589C121.591 51.4093 121.266 51.2106 121.036 50.9631C120.805 50.7156 120.639 50.4147 120.41 50.1671C120.18 49.9196 119.855 49.721 119.521 49.7714C119.226 49.8158 118.997 50.0411 118.749 50.2086C118.503 50.3761 118.157 50.4888 117.918 50.3094C117.784 50.2101 117.719 50.0411 117.591 49.9329C117.263 49.6587 116.752 49.9418 116.51 50.2961C116.137 50.8445 115.91 51.1766 115.426 51.4241C115.423 51.393 115.423 51.3604 115.423 51.3292C115.423 49.9692 115.964 48.6649 116.928 47.7032C117.891 46.7416 119.197 46.2013 120.56 46.2013C121.922 46.2013 123.229 46.7416 124.192 47.7032C125.155 48.6649 125.696 49.9692 125.696 51.3292Z" fill="black"/>
<path d="M116.51 50.1478C116.752 49.7933 117.263 49.5098 117.592 49.7854C117.719 49.8924 117.784 50.0615 117.918 50.1617C118.156 50.3412 118.503 50.2286 118.75 50.0605C118.996 49.8924 119.226 49.6681 119.521 49.6232C119.855 49.5725 120.181 49.7713 120.41 50.019C120.64 50.2668 120.806 50.5673 121.036 50.815C121.265 51.0627 121.591 51.2613 121.925 51.2103C122.259 51.1593 122.531 50.7601 122.36 50.4695C122.668 50.5058 122.962 50.6238 123.209 50.8111C123.457 50.9985 123.65 51.2485 123.768 51.5352C123.842 51.7893 123.93 52.0392 124.031 52.2837C124.166 52.5131 124.35 52.7095 124.571 52.8583C124.844 53.0576 125.174 53.2258 125.507 53.1679C125.839 53.1101 126.121 52.7294 125.966 52.4296C126.073 52.5908 126.301 52.3662 126.336 52.1762C126.411 51.7596 126.387 51.3311 126.267 50.9252C126.103 50.3742 125.759 49.8278 125.891 49.2685C125.996 48.8256 126.376 48.5076 126.606 48.1148C127.014 47.4184 126.905 46.4802 126.409 45.8434C126.151 45.5312 125.823 45.284 125.452 45.1216C125.081 44.9591 124.677 44.886 124.272 44.9082C124.049 44.9337 123.824 44.9379 123.6 44.9207C123.227 44.8654 122.912 44.6259 122.615 44.3944L120.128 42.4563C119.851 42.2128 119.533 42.0213 119.188 41.8909C118.836 41.7821 118.415 41.8196 118.155 42.0794C117.689 42.5443 117.985 43.3443 117.798 43.9747C117.636 44.5207 117.115 44.8907 116.575 45.0751C116.036 45.2595 115.458 45.3 114.904 45.4335C114.739 45.4607 114.584 45.5327 114.457 45.6415C114.313 45.8186 114.243 46.0444 114.262 46.2716C114.259 46.8293 114.391 47.3795 114.648 47.8746C114.936 48.4275 115.393 48.9959 115.231 49.5979C115.146 49.9165 114.9 50.1619 114.683 50.4109C114.213 50.9505 114.055 51.7479 114.939 51.4693C115.791 51.201 116.03 50.8533 116.51 50.1478Z" fill="#434175"/>
<g opacity="0.1">
<path opacity="0.1" d="M126.336 51.5919C126.302 51.7818 126.073 52.0065 125.967 51.8452C126.122 52.145 125.84 52.5257 125.507 52.5836C125.174 52.6414 124.844 52.4733 124.572 52.2739C124.351 52.1251 124.166 51.9287 124.032 51.6993C123.931 51.4548 123.843 51.205 123.769 50.9509C123.65 50.6641 123.457 50.4141 123.21 50.2268C122.962 50.0394 122.669 49.9215 122.36 49.8852C122.532 50.1758 122.259 50.5749 121.925 50.6259C121.591 50.677 121.266 50.4783 121.036 50.2306C120.806 49.983 120.64 49.6824 120.411 49.4347C120.181 49.1869 119.856 48.9881 119.521 49.0389C119.226 49.0837 118.997 49.308 118.75 49.4761C118.503 49.6442 118.157 49.7568 117.918 49.5773C117.785 49.4772 117.72 49.308 117.592 49.2011C117.263 48.9255 116.752 49.2089 116.511 49.5635C116.03 50.2689 115.791 50.6166 114.939 50.885C114.66 50.973 114.485 50.9531 114.391 50.8682C114.204 51.2968 114.289 51.6742 114.939 51.4694C115.791 51.201 116.03 50.8533 116.511 50.1479C116.752 49.7933 117.263 49.5099 117.592 49.7855C117.72 49.8924 117.785 50.0616 117.918 50.1617C118.157 50.3412 118.503 50.2286 118.75 50.0605C118.997 49.8924 119.226 49.6681 119.521 49.6232C119.856 49.5725 120.181 49.7713 120.411 50.0191C120.64 50.2668 120.806 50.5674 121.036 50.815C121.266 51.0627 121.591 51.2614 121.925 51.2103C122.259 51.1593 122.532 50.7602 122.36 50.4696C122.669 50.5059 122.962 50.6238 123.21 50.8111C123.457 50.9985 123.65 51.2485 123.769 51.5352C123.843 51.7893 123.931 52.0392 124.032 52.2837C124.166 52.5131 124.351 52.7095 124.572 52.8583C124.844 53.0577 125.174 53.2258 125.507 53.168C125.84 53.1101 126.122 52.7294 125.967 52.4296C126.073 52.5909 126.302 52.3662 126.336 52.1763C126.382 51.9204 126.391 51.6593 126.363 51.4009C126.356 51.4648 126.348 51.5286 126.336 51.5919Z" fill="black"/>
<path opacity="0.1" d="M115.224 49.0359C115.226 49.0283 115.23 49.0211 115.232 49.0134C115.393 48.4114 114.937 47.8431 114.649 47.2901C114.447 46.9002 114.321 46.4752 114.28 46.0382C114.269 46.1155 114.263 46.1935 114.263 46.2716C114.259 46.8293 114.392 47.3794 114.649 47.8745C114.846 48.2525 115.121 48.6377 115.224 49.0359Z" fill="black"/>
<path opacity="0.1" d="M126.606 47.5303C126.376 47.9232 125.997 48.2411 125.892 48.684C125.851 48.8713 125.853 49.0654 125.897 49.252C126.008 48.8179 126.379 48.5025 126.606 48.1147C126.82 47.7349 126.901 47.2942 126.835 46.8633C126.802 47.0983 126.725 47.3248 126.606 47.5303Z" fill="black"/>
</g>
<path opacity="0.1" d="M108.354 74.337V74.3376C108.393 74.5012 108.424 74.6669 108.445 74.8338C108.445 74.8338 110.79 80.3175 111.087 80.6436C111.179 80.7438 111.523 81.237 111.956 81.8719C112.113 82.1013 112.281 82.3497 112.453 82.6047C113.351 83.935 114.353 85.4455 114.353 85.4455L116.551 87.3722C116.551 87.3722 121.33 87.754 122.849 86.2055C122.665 86.0775 122.548 86.0087 122.548 86.0087L121.895 85.5018C121.558 84.9339 120.268 84.3808 118.962 83.9462C117.759 83.9551 116.775 84.0524 116.775 84.0524L116.462 83.2295L116.135 82.3711L114.475 78.0055C114.475 78.0055 113.403 72.4922 113.047 72.2254C112.691 71.9586 112.78 71.1286 112.78 71.1286C112.78 71.1286 113.433 68.787 113.195 68.4609C112.958 68.1348 113.581 65.7339 113.581 65.7339C113.519 65.4995 113.423 65.2754 113.296 65.0687L108.712 73.7667C108.712 73.7667 108.56 74.014 108.354 74.337Z" fill="black"/>
<path d="M113.641 65.556C113.641 65.556 113.017 67.957 113.255 68.283C113.492 68.6091 112.839 70.9508 112.839 70.9508C112.839 70.9508 112.75 71.7807 113.106 72.0475C113.463 72.3143 114.534 77.8276 114.534 77.8276L116.834 83.8745C116.834 83.8745 124.033 83.1631 123.291 85.4159C122.548 87.6686 116.61 87.1944 116.61 87.1944L114.413 85.2677C114.413 85.2677 111.444 80.7918 111.147 80.4657C110.85 80.1397 108.504 74.656 108.504 74.656C108.504 74.656 108.385 73.5592 107.881 72.996C107.376 72.4329 107.762 71.4803 107.762 71.4803C107.762 71.4803 107.138 64.3111 107.792 63.4514C108.445 62.5918 112.958 62.9772 113.641 65.556Z" fill="#EE8E9E"/>
<path opacity="0.1" d="M109.959 61.0505L108.089 62.1769C108.089 62.1769 107.554 63.985 107.138 64.2221C107.138 64.2221 110.88 62.1472 113.7 66.9195C113.7 66.9195 113.611 66.297 113.997 66.0006C114.383 65.7042 114.294 64.4296 114.294 64.4296C114.397 64.2282 114.486 64.0203 114.561 63.8072C114.829 63.155 113.433 59.4202 109.959 61.0505Z" fill="black"/>
<path d="M109.9 60.932L108.029 62.0583C108.029 62.0583 107.495 63.8665 107.079 64.1036C107.079 64.1036 110.82 62.0287 113.641 66.801C113.641 66.801 113.552 66.1785 113.938 65.8821C114.324 65.5857 114.235 64.3111 114.235 64.3111C114.337 64.1097 114.427 63.9018 114.502 63.6886C114.769 63.0365 113.374 59.3017 109.9 60.932Z" fill="#434175"/>
<path d="M93.2271 112.842C96.3068 112.842 98.8035 110.197 98.8035 106.933C98.8035 103.67 96.3068 101.024 93.2271 101.024C90.1473 101.024 87.6506 103.67 87.6506 106.933C87.6506 110.197 90.1473 112.842 93.2271 112.842Z" fill="#FBD56F"/>
<path opacity="0.1" d="M93.2271 112.842C96.3068 112.842 98.8035 110.197 98.8035 106.933C98.8035 103.67 96.3068 101.024 93.2271 101.024C90.1473 101.024 87.6506 103.67 87.6506 106.933C87.6506 110.197 90.1473 112.842 93.2271 112.842Z" fill="black"/>
<path d="M94.1895 112.842C97.2692 112.842 99.7659 110.255 99.7659 107.065C99.7659 103.874 97.2692 101.287 94.1895 101.287C91.1097 101.287 88.613 103.874 88.613 107.065C88.613 110.255 91.1097 112.842 94.1895 112.842Z" fill="#FBD56F"/>
<path d="M13.3843 110.18C17.1881 110.18 20.2716 109.66 20.2716 109.018C20.2716 108.376 17.1881 107.856 13.3843 107.856C9.58057 107.856 6.49701 108.376 6.49701 109.018C6.49701 109.66 9.58057 110.18 13.3843 110.18Z" fill="#0098AC"/>
<path d="M16.2323 107.116C16.5272 106.843 16.8039 106.52 16.8889 106.127C16.9739 105.734 16.8061 105.263 16.43 105.12C16.0086 104.959 15.5583 105.25 15.2169 105.545C14.8755 105.839 14.4842 106.175 14.0374 106.113C14.2672 105.905 14.4392 105.641 14.5365 105.347C14.6339 105.053 14.6532 104.739 14.5927 104.435C14.5731 104.31 14.5197 104.192 14.4383 104.094C14.2044 103.845 13.7803 103.952 13.5002 104.149C12.6094 104.774 12.3609 105.982 12.3561 107.069C12.2662 106.677 12.3419 106.268 12.3397 105.866C12.3374 105.464 12.227 105.018 11.8871 104.802C11.6754 104.688 11.4372 104.632 11.1969 104.64C10.7964 104.625 10.3505 104.665 10.077 104.958C9.73728 105.321 9.8254 105.93 10.121 106.33C10.4166 106.73 10.8662 106.981 11.28 107.257C11.612 107.454 11.8951 107.724 12.1083 108.046C12.1334 108.091 12.1539 108.138 12.1697 108.187H14.6799C15.2434 107.902 15.7656 107.542 16.2323 107.116Z" fill="#0098AC"/>
<path d="M75.6683 101.439C75.9751 101.858 76.226 102.316 76.4147 102.8C76.4646 102.925 76.5134 103.056 76.5596 103.194C77.3016 105.408 76.1259 108.063 75.7898 107.776C75.4537 107.49 74.4062 106.959 74.2037 107.705C74.0012 108.452 73.253 109.215 73.253 109.215C71.8899 110.584 70.6561 109.105 69.8463 107.577C69.5817 107.073 69.3464 106.554 69.1417 106.023C68.9619 105.554 68.8586 105.229 68.8586 105.229L74.536 100.4C74.536 100.4 75.0848 100.652 75.6683 101.439Z" fill="#0098AC"/>
<path d="M66.7203 104.526C67.0271 104.946 67.2781 105.403 67.4668 105.887C67.5167 106.012 67.5655 106.144 67.6117 106.282C68.3537 108.496 67.178 111.15 66.8418 110.864C66.5057 110.578 65.4583 110.046 65.2558 110.793C65.0532 111.54 64.3051 112.303 64.3051 112.303C62.942 113.671 61.7082 112.193 60.8983 110.665C60.6337 110.161 60.3985 109.642 60.1937 109.11C60.0139 108.641 59.9106 108.317 59.9106 108.317L65.588 103.488C65.588 103.488 66.1369 103.739 66.7203 104.526Z" fill="#0098AC"/>
<path d="M48.7538 108.793C48.7219 109.311 48.6227 109.823 48.4586 110.316C48.417 110.444 48.3705 110.576 48.3179 110.712C47.4739 112.889 44.8717 114.184 44.7959 113.749C44.7202 113.315 44.2535 112.238 43.6202 112.684C42.987 113.13 41.9232 113.241 41.9232 113.241C39.9988 113.426 39.9943 111.501 40.3475 109.809C40.4661 109.252 40.6167 108.703 40.7986 108.164C40.9602 107.688 41.088 107.372 41.088 107.372L48.546 107.272C48.546 107.272 48.8077 107.815 48.7538 108.793Z" fill="#0098AC"/>
<path d="M39.1176 106.366C39.0857 106.885 38.9865 107.397 38.8224 107.89C38.7808 108.018 38.7343 108.15 38.6817 108.286C37.8377 110.463 35.2355 111.757 35.1598 111.323C35.084 110.888 34.6173 109.812 33.9841 110.258C33.3509 110.703 32.287 110.814 32.287 110.814C30.3627 111 30.3581 109.075 30.7114 107.383C30.8299 106.826 30.9805 106.277 31.1625 105.737C31.324 105.261 31.4518 104.946 31.4518 104.946L38.9098 104.845C38.9098 104.845 39.1715 105.389 39.1176 106.366Z" fill="#0098AC"/>
<path opacity="0.2" d="M75.6683 101.439C75.9751 101.858 76.226 102.316 76.4147 102.8C76.4646 102.925 76.5134 103.056 76.5596 103.194C77.3016 105.408 76.1259 108.063 75.7898 107.776C75.4537 107.49 74.4062 106.959 74.2037 107.705C74.0012 108.452 73.253 109.215 73.253 109.215C71.8899 110.584 70.6561 109.105 69.8463 107.577C69.5817 107.073 69.3464 106.554 69.1417 106.023C68.9619 105.554 68.8586 105.229 68.8586 105.229L74.536 100.4C74.536 100.4 75.0848 100.652 75.6683 101.439Z" fill="black"/>
<path opacity="0.2" d="M66.7203 104.526C67.0271 104.946 67.2781 105.403 67.4668 105.887C67.5167 106.012 67.5655 106.144 67.6117 106.282C68.3537 108.496 67.178 111.15 66.8418 110.864C66.5057 110.578 65.4583 110.046 65.2558 110.793C65.0532 111.54 64.3051 112.303 64.3051 112.303C62.942 113.671 61.7082 112.193 60.8983 110.665C60.6337 110.161 60.3985 109.642 60.1937 109.11C60.0139 108.641 59.9106 108.317 59.9106 108.317L65.588 103.488C65.588 103.488 66.1369 103.739 66.7203 104.526Z" fill="black"/>
<path opacity="0.2" d="M48.7538 108.793C48.7219 109.311 48.6227 109.823 48.4586 110.316C48.417 110.444 48.3705 110.576 48.3179 110.712C47.4739 112.889 44.8717 114.184 44.7959 113.749C44.7202 113.315 44.2535 112.238 43.6202 112.684C42.987 113.13 41.9232 113.241 41.9232 113.241C39.9988 113.426 39.9943 111.501 40.3475 109.809C40.4661 109.252 40.6167 108.703 40.7986 108.164C40.9602 107.688 41.088 107.372 41.088 107.372L48.546 107.272C48.546 107.272 48.8077 107.815 48.7538 108.793Z" fill="black"/>
<path opacity="0.2" d="M39.1176 106.366C39.0857 106.885 38.9865 107.397 38.8224 107.89C38.7808 108.018 38.7343 108.15 38.6817 108.286C37.8377 110.463 35.2355 111.757 35.1598 111.323C35.084 110.888 34.6173 109.812 33.9841 110.258C33.3509 110.703 32.287 110.814 32.287 110.814C30.3627 111 30.3581 109.075 30.7114 107.383C30.8299 106.826 30.9805 106.277 31.1625 105.737C31.324 105.261 31.4518 104.946 31.4518 104.946L38.9098 104.845C38.9098 104.845 39.1715 105.389 39.1176 106.366Z" fill="black"/>
<path d="M90.8124 73.7364C90.8124 93.6224 84.0738 109.743 52.9768 109.743C32.0808 109.743 15.9146 104.56 15.1413 73.7364C14.6426 53.8566 32.0808 37.7295 52.9768 37.7295C73.8728 37.7295 90.8124 53.8503 90.8124 73.7364Z" fill="#0098AC"/>
<path opacity="0.2" d="M45.8792 38.3582H45.8834C45.8825 38.3587 45.8814 38.3591 45.8803 38.3592L45.8792 38.3582Z" fill="black"/>
<path opacity="0.2" d="M45.9532 38.3461C46.0493 38.3306 46.2394 38.3042 46.5155 38.2832L45.9002 38.356C45.909 38.3538 45.9201 38.3516 45.9333 38.3494C45.94 38.3483 45.9455 38.3472 45.9532 38.3461Z" fill="black"/>
<path opacity="0.2" d="M73.9107 53.0586L71.149 54.0511C69.7411 52.1664 68.2263 50.3636 66.612 48.6518C64.8501 46.7757 62.9276 45.0565 60.8665 43.5138C53.7954 38.282 48.3261 38.1486 46.52 38.2831L50.6714 37.7957C54.595 38.4696 58.3682 39.8313 61.8166 41.8176C64.2291 43.206 66.476 44.8631 68.5143 46.7571C72.1288 50.1064 73.9107 53.0586 73.9107 53.0586Z" fill="black"/>
<path opacity="0.2" d="M48.9447 54.9333C48.9447 54.9333 45.2993 42.8024 48.3924 39.4939C48.3924 39.4939 53.253 37.8397 56.8985 47.2136L48.9447 54.9333Z" fill="black"/>
<path d="M67.404 43.6031C67.404 43.6031 77.0714 35.4018 81.3482 36.9025C81.3482 36.9025 84.8165 40.6833 77.6786 47.7783L67.404 43.6031Z" fill="#0098AC"/>
<path opacity="0.2" d="M67.404 43.6031C67.404 43.6031 77.0714 35.4018 81.3482 36.9025C81.3482 36.9025 84.8165 40.6833 77.6786 47.7783L67.404 43.6031Z" fill="black"/>
<path d="M97.5509 82.8898C97.5509 93.5789 89.8673 102.024 82.6377 102.024C75.408 102.024 71.3699 93.5789 71.3699 82.8898C71.3699 72.2006 77.2428 63.9531 84.4604 63.5354C95.8939 62.8737 97.5509 72.2006 97.5509 82.8898Z" fill="#0098AC"/>
<path opacity="0.2" d="M97.5509 82.8898C97.5509 93.5789 89.8673 102.024 82.6377 102.024C75.408 102.024 71.3699 93.5789 71.3699 82.8898C71.3699 72.2006 77.2428 63.9531 84.4604 63.5354C95.8939 62.8737 97.5509 72.2006 97.5509 82.8898Z" fill="black"/>
<path d="M82.1958 87.5766C83.538 87.5766 84.6261 86.1942 84.6261 84.4888C84.6261 82.7834 83.538 81.4009 82.1958 81.4009C80.8536 81.4009 79.7655 82.7834 79.7655 84.4888C79.7655 86.1942 80.8536 87.5766 82.1958 87.5766Z" fill="#0098AC"/>
<path d="M90.8124 84.9299C92.1547 84.9299 93.2428 83.5474 93.2428 81.842C93.2428 80.1366 92.1547 78.7542 90.8124 78.7542C89.4702 78.7542 88.3821 80.1366 88.3821 81.842C88.3821 83.5474 89.4702 84.9299 90.8124 84.9299Z" fill="#0098AC"/>
<path d="M68.986 44.7654C68.9876 45.4571 68.826 46.1394 68.5142 46.7571C68.1027 47.5779 67.4351 48.2428 66.612 48.6518C64.85 46.7756 62.9276 45.0565 60.8665 43.5137C61.0501 42.8837 61.375 42.3037 61.8165 41.8176C62.1972 41.394 62.6627 41.0548 63.183 40.8221C63.7033 40.5894 64.2667 40.4683 64.8367 40.4667C67.1279 40.4667 68.986 42.3911 68.986 44.7654Z" fill="#FAD46F"/>
</g>
<defs>
<linearGradient id="paint0_linear_79_776" x1="124.874" y1="115.921" x2="124.874" y2="41.2083" gradientUnits="userSpaceOnUse">
<stop stop-color="#808080" stop-opacity="0.25"/>
<stop offset="0.53514" stop-color="#808080" stop-opacity="0.12"/>
<stop offset="1" stop-color="#808080" stop-opacity="0.1"/>
</linearGradient>
<clipPath id="clip0_79_776">
<rect width="166" height="119" fill="white"/>
</clipPath>
</defs>
</svg>
