<svg width="150" height="119" viewBox="0 0 150 119" fill="none" xmlns="http://www.w3.org/2000/svg">
<g clip-path="url(#clip0_86_7286)">
<path d="M38.1228 13.6746C36.2413 14.654 34.3568 15.8871 33.399 17.7794C32.695 19.172 32.5666 20.7687 32.4505 22.3222L31.058 40.8675C30.7486 45.0003 30.4097 49.2475 28.6056 52.9794C25.4972 59.4083 18.7295 63.0768 13.6483 68.093C5.32256 76.3136 1.74841 90.1708 8.00085 100.061C10.7592 104.384 15.0203 107.533 19.9627 108.9C22.8622 109.689 25.8917 109.829 28.8934 109.963C54.0363 111.054 79.1961 111.491 104.373 111.275C107.362 111.249 110.434 111.198 113.192 110.062C117.003 108.495 119.742 105.045 121.628 101.381C123.514 97.7167 124.723 93.7387 126.506 90.0253C130.158 82.4438 136.099 76.264 141.277 69.6372C144.131 65.9856 146.803 62.116 148.406 57.7682C150.955 50.8582 150.509 42.7304 146.526 36.5337C144.806 33.8554 142.463 31.5361 141.292 28.5762C139.657 24.4373 140.569 19.8017 140.959 15.3688C141.349 10.9359 140.922 5.87487 137.511 3.01709C135.628 1.44044 133.133 0.818447 130.703 0.462579C119.066 -1.2394 107.378 2.12897 95.8384 4.40034C85.6559 6.41177 75.3327 7.56292 65.0032 8.48044C55.8342 9.29739 46.4903 9.31906 38.1228 13.6746Z" fill="#E6F5F7"/>
<path d="M34.1819 100.138C34.1819 100.138 29.6778 84.8467 35.0267 73.592C37.2718 68.8682 38.0175 63.5658 36.9793 58.4398C36.4835 56.0067 35.7657 53.6243 34.8348 51.3224" stroke="#535461" stroke-width="2" stroke-miterlimit="10"/>
<path d="M38.1615 44.2173C38.1615 46.0911 34.7683 51.525 34.7683 51.525C34.7683 51.525 31.3752 46.0911 31.3752 44.2173C31.3752 43.3174 31.7327 42.4544 32.369 41.818C33.0054 41.1817 33.8684 40.8242 34.7683 40.8242C35.6683 40.8242 36.5313 41.1817 37.1677 41.818C37.804 42.4544 38.1615 43.3174 38.1615 44.2173Z" fill="#0098AC"/>
<path d="M43.7703 54.5918C42.7522 56.1653 36.95 58.8823 36.95 58.8823C36.95 58.8823 37.0552 52.4767 38.0733 50.9031C38.3155 50.5291 38.629 50.2064 38.9959 49.9534C39.3628 49.7005 39.7759 49.5224 40.2117 49.4291C40.6475 49.3359 41.0973 49.3294 41.5356 49.41C41.9739 49.4906 42.392 49.6568 42.7661 49.899C43.1402 50.1412 43.4629 50.4547 43.7158 50.8216C43.9687 51.1885 44.1468 51.6016 44.2401 52.0374C44.3333 52.4732 44.3398 52.923 44.2592 53.3613C44.1786 53.7996 44.0125 54.2177 43.7703 54.5918Z" fill="#0098AC"/>
<path d="M43.5258 72.3357C41.8532 73.179 35.48 72.5972 35.48 72.5972C35.48 72.5972 38.7943 67.1245 40.4699 66.2766C41.2724 65.8802 42.199 65.8169 43.048 66.1005C43.8969 66.3841 44.5994 66.9917 45.0024 67.7908C45.4055 68.59 45.4765 69.5161 45.1999 70.3673C44.9233 71.2186 44.3216 71.9261 43.5258 72.3357Z" fill="#0098AC"/>
<path d="M40.3183 85.7147C38.8113 86.8287 32.4273 87.3331 32.4273 87.3331C32.4273 87.3331 34.7791 81.3731 36.2846 80.2591C36.6424 79.9879 37.0504 79.7904 37.4851 79.678C37.9197 79.5657 38.3724 79.5407 38.8168 79.6045C39.2611 79.6684 39.6884 79.8198 40.0739 80.05C40.4593 80.2801 40.7953 80.5845 41.0623 80.9454C41.3292 81.3064 41.5219 81.7167 41.6292 82.1527C41.7364 82.5886 41.7561 83.0415 41.687 83.4851C41.618 83.9287 41.4616 84.3542 41.2269 84.7369C40.9922 85.1197 40.6839 85.452 40.3198 85.7147H40.3183Z" fill="#0098AC"/>
<path d="M29.8202 59.2505C31.1648 60.5564 37.4265 61.9087 37.4265 61.9087C37.4265 61.9087 35.8932 55.6888 34.5486 54.3829C33.902 53.7615 33.0358 53.4213 32.1391 53.4367C31.2424 53.4521 30.3883 53.8218 29.7635 54.465C29.1386 55.1083 28.7938 55.9728 28.8045 56.8695C28.8151 57.7662 29.1803 58.6223 29.8202 59.2505Z" fill="#0098AC"/>
<path d="M26.2724 74.9458C27.9449 75.789 34.3181 75.2073 34.3181 75.2073C34.3181 75.2073 30.993 69.73 29.3204 68.8867C28.9222 68.6817 28.4872 68.5576 28.0407 68.5215C27.5942 68.4854 27.145 68.5381 26.719 68.6766C26.293 68.815 25.8985 69.0364 25.5585 69.328C25.2185 69.6196 24.9396 69.9757 24.7379 70.3757C24.5361 70.7756 24.4156 71.2116 24.3832 71.6584C24.3509 72.1051 24.4073 72.5539 24.5492 72.9788C24.6911 73.4037 24.9158 73.7962 25.2102 74.1338C25.5046 74.4714 25.863 74.7474 26.2646 74.9458H26.2724Z" fill="#0098AC"/>
<path d="M24.9123 90.6752C26.4193 91.7892 32.8033 92.2936 32.8033 92.2936C32.8033 92.2936 30.4515 86.3336 28.946 85.2196C28.2218 84.6971 27.3209 84.481 26.4385 84.6184C25.5561 84.7558 24.7635 85.2354 24.2324 85.9534C23.7014 86.6713 23.4748 87.5697 23.6018 88.4536C23.7288 89.3375 24.1991 90.1358 24.9108 90.6752H24.9123Z" fill="#0098AC"/>
<path opacity="0.25" d="M38.1615 44.2173C38.1615 46.0911 34.7683 51.525 34.7683 51.525C34.7683 51.525 31.3752 46.0911 31.3752 44.2173C31.3752 43.3174 31.7327 42.4544 32.369 41.818C33.0054 41.1817 33.8684 40.8242 34.7683 40.8242C35.6683 40.8242 36.5313 41.1817 37.1677 41.818C37.804 42.4544 38.1615 43.3174 38.1615 44.2173Z" fill="black"/>
<path opacity="0.25" d="M43.7703 54.5918C42.7522 56.1653 36.95 58.8823 36.95 58.8823C36.95 58.8823 37.0552 52.4767 38.0733 50.9031C38.3155 50.5291 38.629 50.2064 38.9959 49.9534C39.3628 49.7005 39.7759 49.5224 40.2117 49.4291C40.6475 49.3359 41.0973 49.3294 41.5356 49.41C41.9739 49.4906 42.392 49.6568 42.7661 49.899C43.1402 50.1412 43.4629 50.4547 43.7158 50.8216C43.9687 51.1885 44.1468 51.6016 44.2401 52.0374C44.3333 52.4732 44.3398 52.923 44.2592 53.3613C44.1786 53.7996 44.0125 54.2177 43.7703 54.5918Z" fill="black"/>
<path opacity="0.25" d="M43.5258 72.3357C41.8532 73.179 35.48 72.5972 35.48 72.5972C35.48 72.5972 38.7943 67.1245 40.4699 66.2766C41.2724 65.8802 42.199 65.8169 43.048 66.1005C43.8969 66.3841 44.5994 66.9917 45.0024 67.7908C45.4055 68.59 45.4765 69.5161 45.1999 70.3673C44.9233 71.2186 44.3216 71.9261 43.5258 72.3357Z" fill="black"/>
<path opacity="0.25" d="M40.3183 85.7147C38.8113 86.8287 32.4273 87.3331 32.4273 87.3331C32.4273 87.3331 34.7791 81.3731 36.2846 80.2591C36.6424 79.9879 37.0504 79.7904 37.4851 79.678C37.9197 79.5657 38.3724 79.5407 38.8168 79.6045C39.2611 79.6684 39.6884 79.8198 40.0739 80.05C40.4593 80.2801 40.7953 80.5845 41.0623 80.9454C41.3292 81.3064 41.5219 81.7167 41.6292 82.1527C41.7364 82.5886 41.7561 83.0415 41.687 83.4851C41.618 83.9287 41.4616 84.3542 41.2269 84.7369C40.9922 85.1197 40.6839 85.452 40.3198 85.7147H40.3183Z" fill="black"/>
<path opacity="0.25" d="M29.8202 59.2505C31.1648 60.5564 37.4265 61.9087 37.4265 61.9087C37.4265 61.9087 35.8932 55.6888 34.5486 54.3829C33.902 53.7615 33.0358 53.4213 32.1391 53.4367C31.2424 53.4521 30.3883 53.8218 29.7635 54.465C29.1386 55.1083 28.7938 55.9728 28.8045 56.8695C28.8151 57.7662 29.1803 58.6223 29.8202 59.2505Z" fill="black"/>
<path opacity="0.25" d="M26.2724 74.9458C27.9449 75.789 34.3181 75.2073 34.3181 75.2073C34.3181 75.2073 30.993 69.73 29.3204 68.8867C28.9222 68.6817 28.4872 68.5576 28.0407 68.5215C27.5942 68.4854 27.145 68.5381 26.719 68.6766C26.293 68.815 25.8985 69.0364 25.5585 69.328C25.2185 69.6196 24.9396 69.9757 24.7379 70.3757C24.5361 70.7756 24.4156 71.2116 24.3832 71.6584C24.3509 72.1051 24.4073 72.5539 24.5492 72.9788C24.6911 73.4037 24.9158 73.7962 25.2102 74.1338C25.5046 74.4714 25.863 74.7474 26.2646 74.9458H26.2724Z" fill="black"/>
<path opacity="0.25" d="M24.9123 90.6752C26.4193 91.7892 32.8033 92.2936 32.8033 92.2936C32.8033 92.2936 30.4515 86.3336 28.946 85.2196C28.2218 84.6971 27.3209 84.481 26.4385 84.6184C25.5561 84.7558 24.7635 85.2354 24.2324 85.9534C23.7014 86.6713 23.4748 87.5697 23.6018 88.4536C23.7288 89.3375 24.1991 90.1358 24.9108 90.6752H24.9123Z" fill="black"/>
<path d="M120.577 91.9161C120.577 91.9161 116.073 76.6261 121.418 65.3714C123.663 60.6477 124.408 55.3452 123.37 50.2192C122.874 47.7862 122.157 45.4037 121.226 43.1018" stroke="#535461" stroke-width="2" stroke-miterlimit="10"/>
<path d="M124.557 35.9953C124.557 37.869 121.164 43.303 121.164 43.303C121.164 43.303 117.771 37.869 117.771 35.9953C117.771 35.0954 118.128 34.2323 118.765 33.596C119.401 32.9597 120.264 32.6022 121.164 32.6022C122.064 32.6022 122.927 32.9597 123.563 33.596C124.199 34.2323 124.557 35.0954 124.557 35.9953Z" fill="#0098AC"/>
<path d="M130.166 46.3758C129.148 47.9494 123.345 50.6664 123.345 50.6664C123.345 50.6664 123.451 44.2607 124.469 42.6872C124.711 42.3131 125.024 41.9904 125.391 41.7375C125.758 41.4846 126.171 41.3064 126.607 41.2132C127.043 41.1199 127.493 41.1134 127.931 41.194C128.369 41.2747 128.787 41.4408 129.162 41.683C129.536 41.9252 129.858 42.2387 130.111 42.6056C130.364 42.9725 130.542 43.3857 130.636 43.8214C130.729 44.2572 130.735 44.7071 130.655 45.1454C130.574 45.5836 130.408 46.0018 130.166 46.3758Z" fill="#0098AC"/>
<path d="M129.927 64.1136C128.255 64.9568 121.882 64.3751 121.882 64.3751C121.882 64.3751 125.207 58.8978 126.879 58.0545C127.279 57.8367 127.718 57.7015 128.171 57.6569C128.624 57.6122 129.081 57.6592 129.515 57.7948C129.95 57.9305 130.352 58.1522 130.699 58.4466C131.046 58.741 131.33 59.1023 131.535 59.5088C131.739 59.9153 131.86 60.3587 131.89 60.8128C131.919 61.2669 131.857 61.7223 131.707 62.1519C131.557 62.5815 131.322 62.9766 131.017 63.3136C130.711 63.6506 130.341 63.9226 129.927 64.1136Z" fill="#0098AC"/>
<path d="M126.714 77.4911C125.207 78.6051 118.823 79.1096 118.823 79.1096C118.823 79.1096 121.175 73.1495 122.68 72.0355C123.038 71.7598 123.446 71.5583 123.883 71.4426C124.319 71.327 124.774 71.2995 125.221 71.3619C125.668 71.4243 126.098 71.5752 126.486 71.8059C126.874 72.0365 127.212 72.3423 127.481 72.7052C127.749 73.0682 127.942 73.481 128.049 73.9195C128.156 74.3581 128.174 74.8136 128.103 75.2592C128.031 75.7049 127.872 76.1319 127.633 76.5151C127.395 76.8984 127.082 77.2302 126.714 77.4911Z" fill="#0098AC"/>
<path d="M116.22 51.0331C117.565 52.3389 123.827 53.6912 123.827 53.6912C123.827 53.6912 122.293 47.4744 120.953 46.1608C120.634 45.85 120.256 45.6053 119.841 45.4406C119.427 45.2759 118.984 45.1945 118.538 45.2009C118.092 45.2074 117.651 45.3016 117.242 45.4783C116.832 45.6549 116.462 45.9105 116.151 46.2304C115.84 46.5503 115.595 46.9283 115.431 47.3428C115.266 47.7573 115.184 48.2002 115.191 48.6462C115.197 49.0921 115.292 49.5325 115.468 49.942C115.645 50.3515 115.9 50.7223 116.22 51.0331Z" fill="#0098AC"/>
<path d="M112.668 66.7237C114.34 67.567 120.714 66.9852 120.714 66.9852C120.714 66.9852 117.395 61.5079 115.724 60.6647C115.325 60.4597 114.89 60.3355 114.444 60.2995C113.997 60.2634 113.548 60.3161 113.122 60.4545C112.696 60.5929 112.302 60.8143 111.962 61.106C111.622 61.3976 111.343 61.7536 111.141 62.1536C110.939 62.5536 110.819 62.9895 110.786 63.4363C110.754 63.8831 110.811 64.3318 110.952 64.7567C111.094 65.1816 111.319 65.5741 111.613 65.9117C111.908 66.2493 112.266 66.5253 112.668 66.7237Z" fill="#0098AC"/>
<path d="M111.308 82.453C112.815 83.5671 119.199 84.0715 119.199 84.0715C119.199 84.0715 116.847 78.1115 115.342 76.9975C114.617 76.4749 113.716 76.2589 112.834 76.3962C111.952 76.5336 111.159 77.0133 110.628 77.7312C110.097 78.4492 109.87 79.3475 109.997 80.2314C110.124 81.1154 110.595 81.9136 111.306 82.453H111.308Z" fill="#0098AC"/>
<path opacity="0.25" d="M124.557 35.9953C124.557 37.869 121.164 43.303 121.164 43.303C121.164 43.303 117.771 37.869 117.771 35.9953C117.771 35.0954 118.128 34.2323 118.765 33.596C119.401 32.9597 120.264 32.6022 121.164 32.6022C122.064 32.6022 122.927 32.9597 123.563 33.596C124.199 34.2323 124.557 35.0954 124.557 35.9953Z" fill="black"/>
<path opacity="0.25" d="M130.166 46.3758C129.148 47.9494 123.345 50.6664 123.345 50.6664C123.345 50.6664 123.451 44.2607 124.469 42.6872C124.711 42.3131 125.024 41.9904 125.391 41.7375C125.758 41.4846 126.171 41.3064 126.607 41.2132C127.043 41.1199 127.493 41.1134 127.931 41.194C128.369 41.2747 128.787 41.4408 129.162 41.683C129.536 41.9252 129.858 42.2387 130.111 42.6056C130.364 42.9725 130.542 43.3857 130.636 43.8214C130.729 44.2572 130.735 44.7071 130.655 45.1454C130.574 45.5836 130.408 46.0018 130.166 46.3758Z" fill="black"/>
<path opacity="0.25" d="M129.927 64.1136C128.255 64.9568 121.882 64.3751 121.882 64.3751C121.882 64.3751 125.207 58.8978 126.879 58.0545C127.279 57.8367 127.718 57.7015 128.171 57.6569C128.624 57.6122 129.081 57.6592 129.515 57.7948C129.95 57.9305 130.352 58.1522 130.699 58.4466C131.046 58.741 131.33 59.1023 131.535 59.5088C131.739 59.9153 131.86 60.3587 131.89 60.8128C131.919 61.2669 131.857 61.7223 131.707 62.1519C131.557 62.5815 131.322 62.9766 131.017 63.3136C130.711 63.6506 130.341 63.9226 129.927 64.1136Z" fill="black"/>
<path opacity="0.25" d="M126.714 77.4911C125.207 78.6051 118.823 79.1096 118.823 79.1096C118.823 79.1096 121.175 73.1495 122.68 72.0355C123.038 71.7598 123.446 71.5583 123.883 71.4426C124.319 71.327 124.774 71.2995 125.221 71.3619C125.668 71.4243 126.098 71.5752 126.486 71.8059C126.874 72.0365 127.212 72.3423 127.481 72.7052C127.749 73.0682 127.942 73.481 128.049 73.9195C128.156 74.3581 128.174 74.8136 128.103 75.2592C128.031 75.7049 127.872 76.1319 127.633 76.5151C127.395 76.8984 127.082 77.2302 126.714 77.4911Z" fill="black"/>
<path opacity="0.25" d="M116.22 51.0331C117.565 52.3389 123.827 53.6912 123.827 53.6912C123.827 53.6912 122.293 47.4744 120.953 46.1608C120.634 45.85 120.256 45.6053 119.841 45.4406C119.427 45.2759 118.984 45.1945 118.538 45.2009C118.092 45.2074 117.651 45.3016 117.242 45.4783C116.832 45.6549 116.462 45.9105 116.151 46.2304C115.84 46.5503 115.595 46.9283 115.431 47.3428C115.266 47.7573 115.184 48.2002 115.191 48.6462C115.197 49.0921 115.292 49.5325 115.468 49.942C115.645 50.3515 115.9 50.7223 116.22 51.0331Z" fill="black"/>
<path opacity="0.25" d="M112.668 66.7237C114.34 67.567 120.714 66.9852 120.714 66.9852C120.714 66.9852 117.395 61.5079 115.724 60.6647C115.325 60.4597 114.89 60.3355 114.444 60.2995C113.997 60.2634 113.548 60.3161 113.122 60.4545C112.696 60.5929 112.302 60.8143 111.962 61.106C111.622 61.3976 111.343 61.7536 111.141 62.1536C110.939 62.5536 110.819 62.9895 110.786 63.4363C110.754 63.8831 110.811 64.3318 110.952 64.7567C111.094 65.1816 111.319 65.5741 111.613 65.9117C111.908 66.2493 112.266 66.5253 112.668 66.7237Z" fill="black"/>
<path opacity="0.25" d="M111.308 82.453C112.815 83.5671 119.199 84.0715 119.199 84.0715C119.199 84.0715 116.847 78.1115 115.342 76.9975C114.617 76.4749 113.716 76.2589 112.834 76.3962C111.952 76.5336 111.159 77.0133 110.628 77.7312C110.097 78.4492 109.87 79.3475 109.997 80.2314C110.124 81.1154 110.595 81.9136 111.306 82.453H111.308Z" fill="black"/>
<g opacity="0.1">
<path opacity="0.1" d="M0.134619 118.465C1.85207 117.847 0.345046 118.351 0.0479736 118.45C0.0755395 118.461 0.104996 118.466 0.134619 118.465Z" fill="#00FFFF"/>
</g>
<g opacity="0.1">
<path opacity="0.1" d="M0.0479745 118.448L0.0015564 118.435V118.466L0.0479745 118.448Z" fill="#00FFFF"/>
</g>
<path d="M117.902 99.103C117.902 99.0845 117.902 99.0643 117.913 99.0442C117.924 99.0241 117.913 99.0334 117.913 99.0288C117.916 98.9901 117.916 98.9513 117.913 98.9127C117.913 98.9127 117.706 98.5151 117.464 97.9689C117.135 97.2185 116.743 96.1865 116.743 95.5103C116.743 95.5103 113.127 82.8569 110.683 81.4752C110.683 81.4752 108.671 77.8933 108.693 75.8772C108.696 75.2329 108.644 74.5895 108.538 73.954C108.181 71.7306 107.585 67.4741 108.13 66.6958C108.821 65.7071 109.974 61.4057 107.222 58.1581L107.704 58.0838C107.704 58.0838 107.678 58.0513 107.635 57.9879L107.704 57.977C107.704 57.977 106.64 56.699 106.64 53.8753C106.655 52.2491 107.022 50.1247 108.13 47.4495C108.276 47.0947 108.41 46.7435 108.532 46.3958C109.048 46.1396 109.518 45.8009 109.925 45.3932L109.974 45.3422L110.031 45.288C111.048 44.2668 111.664 42.9114 112.092 41.5359C112.486 40.2717 112.737 38.9676 112.843 37.6477C112.957 36.2134 112.897 34.7729 112.843 33.3355C112.773 31.6583 112.688 29.9315 112.016 28.4013C111.752 27.8025 111.398 27.2362 111.235 26.6018C111.145 26.1663 111.082 25.7255 111.048 25.282C110.827 23.5445 110.003 21.8595 108.654 20.7439C107.305 19.6284 105.419 19.1317 103.731 19.599C102.765 19.8666 101.904 20.4206 101.101 21.0271C100.757 21.2863 100.432 21.5702 100.129 21.8765C99.1588 22.8281 98.4269 24.0752 99.1294 25.3857C99.181 25.4806 99.2361 25.5734 99.2949 25.6642C98.924 26.256 98.6872 26.9219 98.601 27.6151C98.5149 28.3082 98.5817 29.0118 98.7965 29.6765C99.0114 30.3411 99.3691 30.9506 99.8447 31.4622C100.32 31.9737 100.902 32.375 101.549 32.6377L101.675 32.8574H101.689C102.055 33.5351 102.454 34.3814 102.56 35.0235C102.1 35.3508 101.684 35.735 101.322 36.167C100.07 37.6601 99.3847 38.6735 99.0102 39.3342C98.6562 39.9464 98.2454 40.524 97.7833 41.0594C97.2154 41.7309 96.5455 43.0414 96.5455 45.4799C96.5455 45.6583 96.5455 45.8435 96.5455 46.0353C93.5484 49.2985 81.8605 46.9064 81.8605 46.9064C80.4525 46.3587 78.8139 47.0194 78.0465 47.4078C77.9838 47.4386 77.9289 47.4832 77.8858 47.5382C77.8427 47.5932 77.8126 47.6572 77.7978 47.7255C77.7829 47.7938 77.7836 47.8645 77.7999 47.9325C77.8162 48.0004 77.8476 48.0638 77.8918 48.1179C79.1296 49.6095 82.1746 48.7152 82.1746 48.7152C82.1746 48.7152 93.126 50.6291 93.977 51.2666C94.5557 51.7014 95.5784 51.3471 96.1726 51.0763L96.0503 51.214L96.2051 51.1382L95.3634 58.7089H95.3757L95.3634 58.8156C95.3634 58.8156 95.5583 58.7986 95.8693 58.777L96.1293 59.45H96.1076L96.3768 60.0875L96.5981 60.612C95.9374 63.001 93.2746 72.8353 93.5546 75.0804C93.5546 75.0804 91.8526 79.1202 92.4917 81.3545C92.4917 81.3545 90.1522 98.1546 88.6638 99.0055L88.8726 99.0999C87.2836 100.008 83.8224 101.716 81.4334 100.919C81.4334 100.919 79.945 101.345 82.2844 102.833C82.2844 102.833 91.8542 105.385 93.1307 104.535L92.9187 100.858L93.027 100.896C93.0425 100.689 93.1817 99.168 93.7697 98.4748C93.7697 98.4748 97.5976 88.0541 97.3856 82.7377L100.958 74.1041C101.345 75.0943 101.755 75.9345 102.17 76.4652L103.658 80.2931L106.104 83.4835C106.104 83.4835 113.76 95.6047 113.222 99.2206L113.401 99.2655C112.685 100.54 110.902 103.154 108.329 103.154C108.329 103.154 106.097 105.493 110.243 105.174C110.243 105.174 115.453 104.856 119.281 102.728L117.902 99.103Z" fill="url(#paint0_linear_86_7286)"/>
<path d="M90.7696 98.1206C90.7696 98.1206 85.8478 101.402 82.7718 100.376C82.7718 100.376 81.336 100.787 83.5919 102.222C83.5919 102.222 92.8212 104.684 94.0513 103.862L93.7418 98.5306L90.7696 98.1206Z" fill="#333333"/>
<path d="M113.944 98.1206C113.944 98.1206 111.996 102.53 108.715 102.53C108.715 102.53 106.561 104.786 110.561 104.478C110.561 104.478 115.584 104.169 119.276 102.12L117.511 97.5187L113.944 98.1206Z" fill="#333333"/>
<path d="M96.4093 58.9998L97.183 61.0004L102.204 60.6414L101.69 57.2576L96.4093 58.9998Z" fill="#FDB797"/>
<path d="M97.5373 61.0005C97.5373 61.0005 94.1535 73.0041 94.4614 75.4596C94.4614 75.4596 92.8213 79.3555 93.4355 81.5093C93.4355 81.5093 91.1796 97.7106 89.7438 98.5291C89.7438 98.5291 93.9214 100.42 94.0498 100.375C95.4856 99.8628 93.9477 100.375 93.9477 100.375C93.9477 100.375 94.0498 98.7349 94.6656 98.0169C94.6656 98.0169 98.3573 87.9676 98.1516 82.8415L103.073 70.9462L97.5373 61.0005Z" fill="#252A62"/>
<path opacity="0.1" d="M97.5373 61.0005C97.5373 61.0005 94.1535 73.0041 94.4614 75.4596C94.4614 75.4596 92.8213 79.3555 93.4355 81.5093C93.4355 81.5093 91.1796 97.7106 89.7438 98.5291C89.7438 98.5291 93.9214 100.42 94.0498 100.375C95.4856 99.8628 93.9477 100.375 93.9477 100.375C93.9477 100.375 94.0498 98.7349 94.6656 98.0169C94.6656 98.0169 98.3573 87.9676 98.1516 82.8415L103.073 70.9462L97.5373 61.0005Z" fill="black"/>
<path d="M96.923 60.3847L99.1789 65.7165C99.1789 65.7165 100.923 74.4322 102.769 76.7902L104.204 80.482L106.564 83.5594C106.564 83.5594 113.947 95.2489 113.434 98.7349C113.434 98.7349 118.048 99.9727 117.946 98.4254C117.946 98.4254 116.818 96.2717 116.818 95.1437C116.818 95.1437 113.332 82.9421 110.972 81.6084C110.972 81.6084 109.035 78.1533 109.054 76.21C109.055 75.5878 109.003 74.9667 108.899 74.3533C108.554 72.2088 107.98 68.1055 108.506 67.3551C109.224 66.3292 110.454 61.6132 106.968 58.4336L96.923 60.3847Z" fill="#252A62"/>
<path opacity="0.1" d="M117.942 98.4286C117.942 98.4286 116.815 96.2748 116.815 95.1469C116.815 95.1469 113.329 82.9453 110.969 81.6115C110.969 81.6115 109.032 78.1565 109.05 76.2132C109.051 75.591 109 74.9699 108.896 74.3564C108.551 72.212 107.977 68.1086 108.503 67.3582C109.221 66.3324 110.451 61.6164 106.965 58.4368L106.371 58.5528C109.703 61.7293 108.495 66.3448 107.786 67.3582C107.078 68.3717 108.405 75.6639 108.405 75.6639C107.893 77.4076 110.251 81.6115 110.251 81.6115C112.609 82.9453 116.097 95.1469 116.097 95.1469C116.097 96.2748 117.225 98.4286 117.225 98.4286C117.259 98.9361 116.777 99.1419 116.118 99.1899C117.112 99.2471 117.989 99.1079 117.942 98.4286Z" fill="black"/>
<path d="M101.639 33.6218C101.639 33.6218 103.587 36.5956 103.075 37.5178L108.099 36.28C108.099 36.28 106.765 34.8441 107.073 31.3582L101.639 33.6218Z" fill="#FDB797"/>
<path opacity="0.1" d="M108.817 35.7756C108.817 35.7756 104.613 34.8472 101.947 38.0315C100.74 39.4704 100.079 40.4483 99.7174 41.0858C99.3762 41.676 98.9805 42.2329 98.5353 42.7491C97.8684 43.5366 97.0514 45.234 97.4352 48.6952L96.1974 59.7689C96.1974 59.7689 99.787 59.4594 100.709 59.7689C101.631 60.0783 108.093 59.0509 108.093 59.0509C108.093 59.0509 105.529 55.975 108.503 48.7973C111.476 41.6196 108.817 35.7756 108.817 35.7756Z" fill="black"/>
<path d="M108.817 35.6734C108.817 35.6734 104.613 34.7451 101.947 37.9293C100.74 39.3683 100.079 40.3461 99.7174 40.9836C99.3762 41.5738 98.9805 42.1307 98.5353 42.6469C97.8684 43.4344 97.0514 45.1318 97.4352 48.593L96.1974 59.6667C96.1974 59.6667 99.787 59.3572 100.709 59.6667C101.631 59.9761 108.093 58.9487 108.093 58.9487C108.093 58.9487 105.529 55.8728 108.503 48.6951C111.476 41.5174 108.817 35.6734 108.817 35.6734Z" fill="#F55F44"/>
<path opacity="0.1" d="M103.742 45.1536C103.742 45.1536 99.7421 50.9001 97.8993 51.9259L96.8735 52.438C96.8735 52.438 103.332 45.1536 103.742 45.1536Z" fill="black"/>
<path d="M99.999 42.2354C99.999 42.2354 102.629 41.2003 103.757 44.6321C103.803 44.7714 103.811 44.9204 103.78 45.0638C103.749 45.2072 103.68 45.3396 103.581 45.4475L97.4352 52.079C97.4352 52.079 95.6914 53.1049 94.8714 52.489C94.0513 51.8732 83.4898 50.0274 83.4898 50.0274C83.4898 50.0274 80.5577 50.8892 79.3602 49.4518C79.3169 49.4002 79.2859 49.3395 79.2695 49.2742C79.2531 49.2089 79.2518 49.1407 79.2657 49.0748C79.2796 49.009 79.3082 48.9471 79.3495 48.8939C79.3908 48.8407 79.4437 48.7977 79.5041 48.7679C80.0765 48.4786 81.0312 48.6457 82.1576 48.5064C83.0223 48.4032 83.8973 48.4214 84.757 48.5606C88.2739 49.1114 96.5594 50.0212 97.8452 46.6435C99.4853 42.3391 99.999 42.2354 99.999 42.2354Z" fill="#FDB797"/>
<path opacity="0.1" d="M99.9479 42.2865C99.9479 42.2865 103.126 41.7744 103.844 44.9524V44.7466C103.844 44.7466 102.922 41.2622 99.9479 42.2865Z" fill="black"/>
<path opacity="0.1" d="M107.183 31.5717L101.741 33.8276C101.741 33.8276 101.987 34.202 102.28 34.7265C102.81 34.94 103.544 34.8023 104.15 34.8023C105.388 34.8023 106.293 34.4759 107.124 33.6744C107.048 33.0586 107.101 32.4211 107.183 31.5717Z" fill="black"/>
<path d="M103.895 34.8518C106.443 34.8518 108.509 32.7861 108.509 30.2379C108.509 27.6897 106.443 25.624 103.895 25.624C101.347 25.624 99.281 27.6897 99.281 30.2379C99.281 32.7861 101.347 34.8518 103.895 34.8518Z" fill="#FDB797"/>
<path opacity="0.1" d="M103.903 29.6145C104.003 29.9703 103.708 30.2999 103.494 30.6016C102.747 31.6584 102.885 33.0973 103.227 34.3444C103.394 34.9556 103.644 35.6054 104.19 35.9257C104.627 36.181 105.164 36.1702 105.653 36.2986C106.533 36.5291 107.245 37.227 107.664 38.03C108.083 38.833 108.233 39.7598 108.283 40.6696C108.432 43.3011 107.8 45.9181 106.465 48.1908C107.834 48.4244 109.25 47.8009 110.233 46.8153C111.215 45.8297 111.806 44.5238 112.219 43.1978C112.599 41.9788 112.842 40.7215 112.943 39.4488C113.053 38.0656 112.996 36.6761 112.943 35.2898C112.877 33.6729 112.799 32.0127 112.146 30.532C111.891 29.9533 111.551 29.4087 111.393 28.796C111.306 28.3763 111.245 27.9515 111.212 27.5241C110.998 25.8485 110.205 24.2238 108.903 23.1469C107.602 22.0701 105.784 21.5997 104.156 22.0438C103.228 22.3021 102.396 22.8359 101.625 23.4208C100.378 24.3693 98.9468 25.8964 99.8272 27.521C100.593 28.943 102.286 29.8682 103.903 29.6145Z" fill="black"/>
<path d="M104.005 29.5123C104.105 29.8682 103.81 30.1977 103.596 30.4994C102.849 31.5562 102.987 32.9952 103.329 34.2422C103.496 34.8534 103.746 35.5033 104.293 35.8235C104.729 36.0788 105.266 36.068 105.755 36.1964C106.635 36.427 107.347 37.1248 107.766 37.9278C108.185 38.7308 108.336 39.6576 108.385 40.5674C108.535 43.2008 107.901 45.8195 106.564 48.0932C107.933 48.3269 109.349 47.7033 110.331 46.7177C111.314 45.7321 111.905 44.4263 112.318 43.1003C112.698 41.8813 112.941 40.6239 113.042 39.3513C113.152 37.968 113.095 36.5786 113.042 35.1922C112.976 33.5754 112.898 31.9152 112.245 30.4344C111.99 29.8558 111.65 29.3111 111.492 28.6984C111.405 28.2787 111.344 27.8539 111.311 27.4266C111.097 25.7509 110.304 24.1263 109.002 23.0494C107.701 21.9725 105.883 21.5022 104.255 21.9462C103.327 22.2046 102.495 22.7384 101.724 23.3233C100.477 24.2717 99.0459 25.7989 99.9262 27.4235C100.697 28.8408 102.386 29.766 104.005 29.5123Z" fill="#72351C"/>
<path opacity="0.1" d="M104.46 52.438C104.46 52.438 106.408 52.438 107.126 51.5096L104.46 52.438Z" fill="black"/>
<path opacity="0.1" d="M104.46 53.1558C104.46 53.1558 106.408 53.1558 107.126 52.2274L104.46 53.1558Z" fill="black"/>
<path opacity="0.1" d="M106.306 41.3643C106.306 41.3643 105.996 43.8259 104.87 44.9539L106.306 41.3643Z" fill="black"/>
<g opacity="0.1">
<path opacity="0.1" d="M61.8484 102.807V102.782L61.8112 102.795L61.8484 102.807Z" fill="url(#paint1_linear_86_7286)"/>
</g>
<g opacity="0.1">
<path opacity="0.1" d="M61.74 102.807C61.7638 102.808 61.7875 102.804 61.8097 102.795C61.5714 102.711 60.3661 102.315 61.74 102.807Z" fill="url(#paint2_linear_86_7286)"/>
</g>
<path d="M77.1275 48.4895C76.3445 48.1073 74.6735 47.4543 73.2377 47.9943C73.2377 47.9943 59.4671 50.7237 57.7311 46.314C57.6496 46.1077 57.5707 45.9092 57.4944 45.7183C57.5291 45.4293 57.5441 45.1383 57.5392 44.8472C57.5452 44.4893 57.5199 44.1316 57.4634 43.7781C57.3726 43.2607 57.1739 42.7683 56.8801 42.3329C56.5385 41.7603 56.259 41.153 56.0461 40.5211C55.712 39.6105 55.1886 38.781 54.5104 38.0876C53.8321 37.3942 53.0145 36.8524 52.1115 36.4982C52.1378 35.8391 52.6035 34.8659 53.0259 34.1093H53.0398L53.1683 33.8927C54.0572 33.554 54.8234 32.9551 55.3666 32.1742C55.9098 31.3933 56.2049 30.4667 56.2132 29.5155C56.2131 28.5989 55.9389 27.7034 55.4257 26.944C56.8817 26.7103 56.3834 25.4725 55.4829 24.4111C55.3083 24.2054 55.1218 24.0101 54.9244 23.8262C54.0451 22.9603 52.9383 22.3616 51.7324 22.0995C51.5885 22.0686 51.4431 22.0454 51.2976 22.0252C50.4315 21.7269 49.5087 21.6296 48.5994 21.7409C47.6901 21.8521 46.818 22.169 46.0493 22.6673C45.8618 22.1351 45.5124 21.6748 45.0502 21.351C44.5879 21.0272 44.036 20.8561 43.4716 20.8617C41.9739 20.8617 40.7608 22.0361 40.7608 23.492C40.7608 24.948 41.9739 26.1224 43.4716 26.1224H43.6264C43.5261 26.5363 43.4742 26.9605 43.4716 27.3865C43.4716 30.0354 45.3484 32.2603 47.8859 32.8823L47.9308 32.9241C47.9308 32.9674 47.9231 33.0123 47.9169 33.0556L47.9277 33.0649C47.831 33.8441 47.5852 34.5974 47.2036 35.2837L47.1077 35.2604C45.1071 36.653 44.383 38.765 44.4 40.9652C44.3891 42.8342 44.9059 44.79 45.6378 46.3805C45.9066 47.0165 46.0394 47.7017 46.0277 48.392C45.989 50.7747 44.892 53.6341 44.1462 55.3082C43.8507 55.972 39.5664 66.3324 39.5664 66.3324L39.6638 66.3076L39.5664 66.5428C40.504 66.2798 41.5097 66.4005 42.3638 66.631C42.9518 66.7854 43.5647 66.8211 44.1666 66.7361C44.7686 66.6511 45.3476 66.4471 45.8699 66.1359C45.9846 66.6334 46.1817 67.1083 46.4532 67.5408C47.0086 68.3144 46.4021 72.5106 46.037 74.7061C45.93 75.3337 45.8783 75.9695 45.8822 76.6061C45.9024 78.5975 43.8538 82.1345 43.8538 82.1345C41.3596 83.4992 37.6725 95.9917 37.6725 95.9917C37.6725 96.6601 37.2733 97.6782 36.9376 98.4193C36.6931 98.9593 36.4734 99.3477 36.4734 99.3477C36.4702 99.3858 36.4702 99.4241 36.4734 99.4622C36.4734 99.4622 36.4734 99.473 36.4734 99.4776C36.476 99.4974 36.4796 99.517 36.4842 99.5364L35.0608 103.128C38.9645 105.227 44.2777 105.543 44.2777 105.543C48.5064 105.852 46.2304 103.548 46.2304 103.548C43.6 103.548 41.7898 100.968 41.0579 99.7097L41.242 99.6649C40.7005 96.0953 48.5141 84.1273 48.5141 84.1273L51.0083 80.9771L52.5261 77.1817C52.9485 76.6587 53.3678 75.8294 53.7639 74.8516L57.4062 83.3707C57.1896 88.6206 61.0933 98.9082 61.0933 98.9082C61.6983 99.5921 61.8344 101.095 61.8499 101.299L61.9597 101.262L61.7431 104.893C63.0444 105.733 72.8044 103.213 72.8044 103.213C75.1903 101.743 73.6724 101.324 73.6724 101.324C71.2371 102.11 67.7062 100.423 66.0909 99.5271L66.3029 99.4343C64.785 98.5942 62.3992 82.0076 62.3992 82.0076C63.0506 79.8028 61.3161 75.8186 61.3161 75.8186C61.5141 74.2868 60.267 69.1422 59.2613 65.3468C60.5524 65.3358 61.8396 65.2042 63.1063 64.9538C63.0258 64.9027 62.9515 64.8486 62.8695 64.7991C63.0242 64.7697 63.1063 64.7511 63.1063 64.7511C59.7549 62.6081 57.8456 55.3701 57.0209 51.2699C57.2272 51.445 57.4494 51.6004 57.6847 51.734L58.7678 52.2586L58.644 52.124C59.249 52.3916 60.2918 52.7429 60.8829 52.3112C61.7509 51.6814 72.9189 49.7922 72.9189 49.7922C72.9189 49.7922 76.0134 50.6757 77.2868 49.2027C77.3343 49.1494 77.3684 49.0855 77.3863 49.0164C77.4042 48.9473 77.4054 48.8749 77.3899 48.8053C77.3743 48.7356 77.3424 48.6706 77.2968 48.6157C77.2511 48.5608 77.1931 48.5175 77.1275 48.4895Z" fill="url(#paint3_linear_86_7286)"/>
<path d="M49.7024 33.9807C52.7608 33.9807 55.24 31.5015 55.24 28.4431C55.24 25.3848 52.7608 22.9055 49.7024 22.9055C46.6441 22.9055 44.1648 25.3848 44.1648 28.4431C44.1648 31.5015 46.6441 33.9807 49.7024 33.9807Z" fill="#FFC533"/>
<path d="M53.8552 33.9296C53.8552 33.9296 51.9072 36.9035 52.4194 37.8256L47.3954 36.5878C47.3954 36.5878 48.7292 35.152 48.4213 31.666L53.8552 33.9296Z" fill="#FDB797"/>
<path opacity="0.1" d="M48.3176 31.8795L53.7516 34.1354C53.7516 34.1354 53.5056 34.5098 53.2131 35.0344C52.6824 35.2479 51.949 35.1102 51.3425 35.1102C50.1047 35.1102 49.1996 34.7837 48.3687 33.9822C48.4461 33.3664 48.3873 32.729 48.3176 31.8795Z" fill="black"/>
<path d="M51.5993 35.1598C54.1475 35.1598 56.2133 33.0941 56.2133 30.5459C56.2133 27.9977 54.1475 25.932 51.5993 25.932C49.0512 25.932 46.9854 27.9977 46.9854 30.5459C46.9854 33.0941 49.0512 35.1598 51.5993 35.1598Z" fill="#FDB797"/>
<path d="M44.1648 27.213C45.5807 27.213 46.7286 26.0652 46.7286 24.6492C46.7286 23.2333 45.5807 22.0854 44.1648 22.0854C42.7488 22.0854 41.601 23.2333 41.601 24.6492C41.601 26.0652 42.7488 27.213 44.1648 27.213Z" fill="#FFC533"/>
<path opacity="0.1" d="M54.8764 28.0719C53.7222 28.0517 52.4101 27.8197 51.5452 28.5824C50.9263 29.1302 50.7592 30.0152 50.5488 30.8167C50.2393 32.0204 49.5307 33.3433 48.299 33.5228C47.5471 33.6327 46.7905 33.2582 46.2567 32.7167C45.7229 32.1752 45.3778 31.4789 45.0514 30.7966C44.7249 30.1142 44.4062 29.404 44.4325 28.6474C44.465 27.7485 44.9895 26.9455 45.5248 26.226C45.8477 25.7742 46.2074 25.3498 46.6002 24.9572C47.2065 24.373 47.9285 23.922 48.7195 23.6335C49.5106 23.345 50.3533 23.2252 51.1935 23.2819C52.0336 23.3386 52.8526 23.5705 53.5977 23.9627C54.3429 24.3549 54.9977 24.8987 55.5201 25.5591C56.4809 26.7242 56.959 28.1074 54.8764 28.0719Z" fill="black"/>
<path d="M54.7743 27.9697C53.6201 27.9496 52.308 27.7175 51.4431 28.4803C50.8242 29.028 50.6571 29.913 50.4466 30.7145C50.1372 31.9183 49.4285 33.2412 48.1969 33.4207C47.445 33.5305 46.6884 33.1561 46.1546 32.6145C45.6208 32.073 45.2757 31.3767 44.9493 30.6944C44.6228 30.0121 44.304 29.3019 44.3304 28.5453C44.3628 27.6463 44.8874 26.8433 45.4227 26.1238C45.7456 25.672 46.1053 25.2477 46.4981 24.8551C47.1044 24.2708 47.8263 23.8199 48.6174 23.5313C49.4085 23.2428 50.2512 23.123 51.0914 23.1797C51.9315 23.2364 52.7505 23.4683 53.4956 23.8605C54.2408 24.2527 54.8956 24.7965 55.418 25.4569C56.3773 26.622 56.8569 28.0053 54.7743 27.9697Z" fill="#FFC533"/>
<path d="M64.7247 98.4285C64.7247 98.4285 69.6465 101.71 72.7224 100.684C72.7224 100.684 74.1583 101.094 71.9024 102.53C71.9024 102.53 62.673 104.992 61.443 104.17L61.7524 98.8385L64.7247 98.4285Z" fill="#333333"/>
<path d="M41.5499 98.4285C41.5499 98.4285 43.4979 102.838 46.7796 102.838C46.7796 102.838 48.9334 105.094 44.9338 104.786C44.9338 104.786 39.9098 104.477 36.2181 102.428L37.9835 97.8267L41.5499 98.4285Z" fill="#333333"/>
<path d="M57.957 61.3083C57.957 61.3083 61.3408 73.3058 61.0329 75.7659C61.0329 75.7659 62.673 79.6619 62.0588 81.8157C62.0588 81.8157 64.3147 98.017 65.7505 98.8355C65.7505 98.8355 61.5729 100.726 61.4445 100.681C60.0087 100.169 61.5466 100.681 61.5466 100.681C61.5466 100.681 61.4445 99.0413 60.8287 98.3233C60.8287 98.3233 57.137 88.2739 57.3427 83.1479L52.4209 71.2526L57.957 61.3083Z" fill="#3AD29F"/>
<path opacity="0.1" d="M57.957 61.3083C57.957 61.3083 61.3408 73.3058 61.0329 75.7659C61.0329 75.7659 62.673 79.6619 62.0588 81.8157C62.0588 81.8157 64.3147 98.017 65.7505 98.8355C65.7505 98.8355 61.5729 100.726 61.4445 100.681C60.0087 100.169 61.5466 100.681 61.5466 100.681C61.5466 100.681 61.4445 99.0413 60.8287 98.3233C60.8287 98.3233 57.137 88.2739 57.3427 83.1479L52.4209 71.2526L57.957 61.3083Z" fill="black"/>
<path d="M58.5728 60.6925L56.3169 66.0243C56.3169 66.0243 54.5731 74.74 52.7273 77.098L51.2914 80.7898L48.9334 83.8657C48.9334 83.8657 41.5499 95.5552 42.0636 99.0412C42.0636 99.0412 37.4497 100.279 37.5518 98.7318C37.5518 98.7318 38.6798 96.578 38.6798 95.45C38.6798 95.45 42.1657 83.2484 44.5253 81.9146C44.5253 81.9146 46.4624 78.4596 46.4439 76.5163C46.4428 75.8941 46.4946 75.273 46.5986 74.6596C46.9436 72.5151 47.5177 68.4118 46.9916 67.6613C46.2737 66.6355 45.0436 61.9195 48.5296 58.7399L58.5728 60.6925Z" fill="#3AD29F"/>
<path opacity="0.1" d="M37.5565 98.7349C37.5565 98.7349 38.6844 96.5812 38.6844 95.4532C38.6844 95.4532 42.1704 83.2515 44.5299 81.9178C44.5299 81.9178 46.4671 78.4628 46.4485 76.5194C46.4475 75.8973 46.4992 75.2761 46.6033 74.6627C46.9483 72.5182 47.5223 68.4149 46.9963 67.6645C46.2783 66.6387 45.0483 61.9226 48.5342 58.743L49.1284 58.8591C45.7848 62.0371 46.9947 66.6603 47.7034 67.6661C48.412 68.6718 47.0845 75.9717 47.0845 75.9717C47.5966 77.7155 45.2386 81.9194 45.2386 81.9194C42.8806 83.2531 39.3931 95.4547 39.3931 95.4547C39.3931 96.5827 38.2651 98.7365 38.2651 98.7365C38.2311 99.244 38.7123 99.4498 39.3714 99.4977C38.3827 99.555 37.5054 99.4157 37.5565 98.7349Z" fill="black"/>
<path opacity="0.1" d="M47.6043 36.3342L51.4152 37.2719C52.4789 37.5349 53.4604 38.0588 54.2708 38.7963C55.0812 39.5338 55.6951 40.4616 56.057 41.4959C56.2572 42.1117 56.5211 42.7049 56.8445 43.2659C57.1231 43.694 57.3106 44.1749 57.3953 44.6786C57.5501 45.6827 57.5377 47.3089 56.4856 49.1532C56.4856 49.1532 58.22 62.1765 62.7241 65.1503C62.7241 65.1503 58.3283 66.1622 54.4757 64.9105C51.8933 64.0719 49.0603 64.4246 46.8477 66.009L46.7518 66.0786C46.2396 66.4614 45.6472 66.723 45.0193 66.8439C44.3914 66.9648 43.7443 66.9417 43.1266 66.7765C42.3189 66.5521 41.3673 66.4345 40.4808 66.6914C40.4808 66.6914 44.533 56.5739 44.8131 55.924C45.7569 53.7285 47.3042 49.4457 46.2211 47.0103C44.7156 43.6202 44.1648 38.5963 47.6043 36.3342Z" fill="black"/>
<path d="M47.6043 36.1345L51.4152 37.0722C52.4789 37.3351 53.4604 37.8591 54.2708 38.5966C55.0812 39.334 55.6951 40.2619 56.057 41.2962C56.2572 41.912 56.5211 42.5052 56.8445 43.0662C57.1231 43.4943 57.3106 43.9752 57.3953 44.4789C57.5501 45.483 57.5377 47.1092 56.4856 48.9535C56.4856 48.9535 58.22 61.9767 62.7241 64.9506C62.7241 64.9506 58.3283 65.9625 54.4757 64.7107C51.8933 63.8721 49.0603 64.2249 46.8477 65.8093L46.7518 65.8789C46.2392 66.2609 45.6467 66.5217 45.0188 66.6417C44.3909 66.7618 43.7439 66.738 43.1266 66.5721C42.3189 66.3477 41.3673 66.2301 40.4808 66.487C40.4808 66.487 44.533 56.3695 44.8131 55.7197C45.7569 53.5226 47.3042 49.2398 46.2211 46.7982C44.7156 43.4143 44.1648 38.5962 47.6043 36.1345Z" fill="#535461"/>
<path opacity="0.1" d="M51.7541 45.463C51.7541 45.463 55.7537 51.2049 57.5996 52.2307L58.6254 52.7428C58.6254 52.7428 52.1641 45.463 51.7541 45.463Z" fill="black"/>
<path d="M55.4953 42.5433C55.4953 42.5433 52.865 41.5082 51.737 44.94C51.6911 45.0793 51.6833 45.2283 51.7143 45.3717C51.7453 45.515 51.8141 45.6475 51.9134 45.7554L58.0591 52.3885C58.0591 52.3885 59.8029 53.4143 60.6229 52.7985C61.443 52.1827 72.0045 50.3368 72.0045 50.3368C72.0045 50.3368 74.9165 51.1924 76.1218 49.7751C76.1665 49.7234 76.1989 49.6622 76.2167 49.5962C76.2345 49.5302 76.2372 49.461 76.2245 49.3938C76.2119 49.3266 76.1843 49.2631 76.1437 49.208C76.1032 49.153 76.0507 49.1078 75.9903 49.0758C75.3543 48.7555 74.1908 48.7663 72.9391 48.6596C72.5062 48.6222 72.0702 48.642 71.6425 48.7184C68.9657 49.1934 59.0633 50.6695 57.6491 46.953C56.009 42.6454 55.4953 42.5433 55.4953 42.5433Z" fill="#FDB797"/>
<path opacity="0.1" d="M55.5479 42.5943C55.5479 42.5943 52.3699 42.0822 51.6519 45.2603V45.0545C51.6519 45.0545 52.5741 41.5685 55.5479 42.5943Z" fill="black"/>
<path d="M76.0738 97.7601C76.0738 97.7601 73.6353 89.4823 76.538 83.3892C77.7679 80.842 78.1387 77.9646 77.5947 75.1888C77.3258 73.8728 76.9368 72.5842 76.4327 71.3392" stroke="#535461" stroke-width="2" stroke-miterlimit="10"/>
<path d="M78.2291 67.4851C78.2291 68.5001 76.3926 71.4414 76.3926 71.4414C76.3926 71.4414 74.556 68.5016 74.556 67.4851C74.556 67.2438 74.6035 67.0049 74.6958 66.7819C74.7882 66.559 74.9235 66.3565 75.0941 66.1859C75.2647 66.0152 75.4673 65.8799 75.6902 65.7876C75.9131 65.6952 76.152 65.6477 76.3933 65.6477C76.6346 65.6477 76.8735 65.6952 77.0965 65.7876C77.3194 65.8799 77.5219 66.0152 77.6925 66.1859C77.8632 66.3565 77.9985 66.559 78.0908 66.7819C78.1832 67.0049 78.2307 67.2438 78.2307 67.4851H78.2291Z" fill="#0098AC"/>
<path d="M81.2648 73.1045C80.714 73.9555 77.5731 75.4254 77.5731 75.4254C77.5731 75.4254 77.6304 71.958 78.1812 71.1055C78.3123 70.903 78.4821 70.7284 78.6808 70.5915C78.8794 70.4546 79.1031 70.3582 79.339 70.3078C79.5749 70.2574 79.8185 70.2539 80.0557 70.2976C80.293 70.3413 80.5193 70.4313 80.7218 70.5624C80.9242 70.6936 81.0989 70.8633 81.2358 71.062C81.3726 71.2607 81.469 71.4843 81.5195 71.7202C81.5699 71.9561 81.5734 72.1997 81.5297 72.4369C81.486 72.6742 81.396 72.9005 81.2648 73.103V73.1045Z" fill="#0098AC"/>
<path d="M81.1317 82.7084C80.2266 83.1726 76.7716 82.8492 76.7716 82.8492C76.7716 82.8492 78.5711 79.8847 79.4777 79.4267C79.6931 79.3181 79.9278 79.253 80.1683 79.2351C80.4089 79.2171 80.6506 79.2468 80.8797 79.3223C81.1088 79.3978 81.3207 79.5177 81.5035 79.6751C81.6863 79.8325 81.8362 80.0244 81.9448 80.2398C82.0534 80.4551 82.1186 80.6898 82.1365 80.9304C82.1544 81.1709 82.1247 81.4126 82.0492 81.6417C81.9737 81.8708 81.8539 82.0828 81.6964 82.2655C81.539 82.4483 81.3471 82.5982 81.1317 82.7068V82.7084Z" fill="#0098AC"/>
<path d="M79.3957 89.9527C78.5803 90.5561 75.1222 90.8285 75.1222 90.8285C75.1222 90.8285 76.3956 87.6024 77.211 86.999C77.4049 86.8556 77.6253 86.7517 77.8593 86.6934C78.0934 86.6351 78.3367 86.6234 78.5753 86.6591C78.8138 86.6948 79.043 86.7772 79.2498 86.9015C79.4565 87.0258 79.6368 87.1896 79.7802 87.3835C79.9237 87.5774 80.0275 87.7977 80.0859 88.0318C80.1442 88.2659 80.1558 88.5092 80.1201 88.7477C80.0844 88.9863 80.0021 89.2155 79.8778 89.4223C79.7535 89.629 79.5897 89.8093 79.3957 89.9527Z" fill="#0098AC"/>
<path d="M73.7157 75.6251C74.4429 76.3322 77.8345 77.0641 77.8345 77.0641C77.8345 77.0641 77.0037 73.6957 76.2764 72.9902C76.1059 72.8121 75.9012 72.6702 75.6746 72.573C75.448 72.4757 75.2042 72.4251 74.9576 72.4241C74.711 72.4231 74.4668 72.4718 74.2394 72.5672C74.0121 72.6626 73.8062 72.8028 73.6342 72.9795C73.4622 73.1562 73.3276 73.3657 73.2383 73.5955C73.149 73.8254 73.1069 74.0708 73.1145 74.3173C73.1221 74.5638 73.1793 74.8062 73.2826 75.0301C73.3858 75.2539 73.5332 75.4547 73.7157 75.6205V75.6251Z" fill="#0098AC"/>
<path d="M71.7925 84.121C72.6977 84.5852 76.1527 84.2618 76.1527 84.2618C76.1527 84.2618 74.3517 81.2973 73.4527 80.8409C73.2373 80.7323 73.0027 80.6672 72.7621 80.6492C72.5216 80.6313 72.2799 80.661 72.0508 80.7365C71.8217 80.812 71.6097 80.9319 71.427 81.0893C71.2442 81.2467 71.0942 81.4386 70.9856 81.654C70.877 81.8693 70.8119 82.104 70.794 82.3445C70.7761 82.5851 70.8057 82.8268 70.8812 83.0559C70.9567 83.285 71.0766 83.497 71.234 83.6797C71.3914 83.8625 71.5833 84.0124 71.7987 84.121H71.7925Z" fill="#0098AC"/>
<path d="M71.0561 92.6372C71.8715 93.2406 75.3296 93.5129 75.3296 93.5129C75.3296 93.5129 74.0562 90.2869 73.2408 89.6835C72.8491 89.3937 72.3584 89.2715 71.8765 89.3436C71.3947 89.4157 70.9613 89.6763 70.6716 90.0679C70.3818 90.4596 70.2596 90.9504 70.3317 91.4322C70.4038 91.914 70.6644 92.3475 71.0561 92.6372Z" fill="#0098AC"/>
<path opacity="0.5" d="M78.2291 67.4851C78.2291 68.5001 76.3926 71.4414 76.3926 71.4414C76.3926 71.4414 74.556 68.5016 74.556 67.4851C74.556 67.2438 74.6035 67.0049 74.6958 66.7819C74.7882 66.559 74.9235 66.3565 75.0941 66.1859C75.2647 66.0152 75.4673 65.8799 75.6902 65.7876C75.9131 65.6952 76.152 65.6477 76.3933 65.6477C76.6346 65.6477 76.8735 65.6952 77.0965 65.7876C77.3194 65.8799 77.5219 66.0152 77.6925 66.1859C77.8632 66.3565 77.9985 66.559 78.0908 66.7819C78.1832 67.0049 78.2307 67.2438 78.2307 67.4851H78.2291Z" fill="white"/>
<path opacity="0.5" d="M81.2648 73.1045C80.714 73.9555 77.5731 75.4254 77.5731 75.4254C77.5731 75.4254 77.6304 71.958 78.1812 71.1055C78.3123 70.903 78.4821 70.7284 78.6808 70.5915C78.8794 70.4546 79.1031 70.3582 79.339 70.3078C79.5749 70.2574 79.8185 70.2539 80.0557 70.2976C80.293 70.3413 80.5193 70.4313 80.7218 70.5624C80.9242 70.6936 81.0989 70.8633 81.2358 71.062C81.3726 71.2607 81.469 71.4843 81.5195 71.7202C81.5699 71.9561 81.5734 72.1997 81.5297 72.4369C81.486 72.6742 81.396 72.9005 81.2648 73.103V73.1045Z" fill="white"/>
<path opacity="0.5" d="M81.1317 82.7084C80.2266 83.1726 76.7716 82.8492 76.7716 82.8492C76.7716 82.8492 78.5711 79.8847 79.4777 79.4267C79.6931 79.3181 79.9278 79.253 80.1683 79.2351C80.4089 79.2171 80.6506 79.2468 80.8797 79.3223C81.1088 79.3978 81.3207 79.5177 81.5035 79.6751C81.6863 79.8325 81.8362 80.0244 81.9448 80.2398C82.0534 80.4551 82.1186 80.6898 82.1365 80.9304C82.1544 81.1709 82.1247 81.4126 82.0492 81.6417C81.9737 81.8708 81.8539 82.0828 81.6964 82.2655C81.539 82.4483 81.3471 82.5982 81.1317 82.7068V82.7084Z" fill="white"/>
<path opacity="0.5" d="M79.3957 89.9527C78.5803 90.5561 75.1222 90.8285 75.1222 90.8285C75.1222 90.8285 76.3956 87.6024 77.211 86.999C77.4049 86.8556 77.6253 86.7517 77.8593 86.6934C78.0934 86.6351 78.3367 86.6234 78.5753 86.6591C78.8138 86.6948 79.043 86.7772 79.2498 86.9015C79.4565 87.0258 79.6368 87.1896 79.7802 87.3835C79.9237 87.5774 80.0275 87.7977 80.0859 88.0318C80.1442 88.2659 80.1558 88.5092 80.1201 88.7477C80.0844 88.9863 80.0021 89.2155 79.8778 89.4223C79.7535 89.629 79.5897 89.8093 79.3957 89.9527Z" fill="white"/>
<path opacity="0.5" d="M73.7157 75.6251C74.4429 76.3322 77.8345 77.0641 77.8345 77.0641C77.8345 77.0641 77.0037 73.6957 76.2764 72.9902C76.1059 72.8121 75.9012 72.6702 75.6746 72.573C75.448 72.4757 75.2042 72.4251 74.9576 72.4241C74.711 72.4231 74.4668 72.4718 74.2394 72.5672C74.0121 72.6626 73.8062 72.8028 73.6342 72.9795C73.4622 73.1562 73.3276 73.3657 73.2383 73.5955C73.149 73.8254 73.1069 74.0708 73.1145 74.3173C73.1221 74.5638 73.1793 74.8062 73.2826 75.0301C73.3858 75.2539 73.5332 75.4547 73.7157 75.6205V75.6251Z" fill="white"/>
<path opacity="0.5" d="M71.7925 84.121C72.6977 84.5852 76.1527 84.2618 76.1527 84.2618C76.1527 84.2618 74.3517 81.2973 73.4527 80.8409C73.2373 80.7323 73.0027 80.6672 72.7621 80.6492C72.5216 80.6313 72.2799 80.661 72.0508 80.7365C71.8217 80.812 71.6097 80.9319 71.427 81.0893C71.2442 81.2467 71.0942 81.4386 70.9856 81.654C70.877 81.8693 70.8119 82.104 70.794 82.3445C70.7761 82.5851 70.8057 82.8268 70.8812 83.0559C70.9567 83.285 71.0766 83.497 71.234 83.6797C71.3914 83.8625 71.5833 84.0124 71.7987 84.121H71.7925Z" fill="white"/>
<path opacity="0.5" d="M71.0561 92.6372C71.8715 93.2406 75.3296 93.5129 75.3296 93.5129C75.3296 93.5129 74.0562 90.2869 73.2408 89.6835C72.8491 89.3937 72.3584 89.2715 71.8765 89.3436C71.3947 89.4157 70.9613 89.6763 70.6716 90.0679C70.3818 90.4596 70.2596 90.9504 70.3317 91.4322C70.4038 91.914 70.6644 92.3475 71.0561 92.6372Z" fill="white"/>
</g>
<path d="M77.5233 49.0797C83.8874 49.0797 89.0466 43.9131 89.0466 37.5399C89.0466 31.1666 83.8874 26 77.5233 26C71.1592 26 66 31.1666 66 37.5399C66 43.9131 71.1592 49.0797 77.5233 49.0797Z" fill="#007281"/>
<path d="M72.7785 37.9468C72.7785 37.2944 73.3074 36.7655 73.9598 36.7655H77.2083V37.9468H72.7785Z" fill="#B3E0E6"/>
<path d="M76.027 37.9468L76.027 34.4029L77.2083 34.4029L77.2083 37.9468L76.027 37.9468Z" fill="#B3E0E6"/>
<path d="M82.4906 37.0608C82.4906 37.7132 81.9618 38.2421 81.3093 38.2421L78.0608 38.2421L78.0608 37.0608L82.4906 37.0608Z" fill="#B3E0E6"/>
<path d="M72.7785 39.4235H77.2083V40.6047H73.9598C73.3074 40.6047 72.7785 40.0759 72.7785 39.4235Z" fill="#B3E0E6"/>
<path d="M82.4906 35.5842L78.0608 35.5842L78.0608 34.4029L81.3093 34.4029C81.9618 34.4029 82.4906 34.9318 82.4906 35.5842Z" fill="#B3E0E6"/>
<path d="M79.242 37.0608L79.242 40.6046L78.0608 40.6046L78.0608 37.0608L79.242 37.0608Z" fill="#B3E0E6"/>
<rect x="72.7785" y="40.014" width="2.65789" height="1.18128" rx="0.590642" transform="rotate(-90 72.7785 40.014)" fill="#B3E0E6"/>
<rect x="82.4906" y="34.9935" width="2.65789" height="1.18128" rx="0.590642" transform="rotate(90 82.4906 34.9935)" fill="#B3E0E6"/>
<defs>
<linearGradient id="paint0_linear_86_7286" x1="98.5492" y1="105.216" x2="98.5492" y2="19.421" gradientUnits="userSpaceOnUse">
<stop stop-color="#808080" stop-opacity="0.25"/>
<stop offset="0.54" stop-color="#808080" stop-opacity="0.12"/>
<stop offset="1" stop-color="#808080" stop-opacity="0.1"/>
</linearGradient>
<linearGradient id="paint1_linear_86_7286" x1="80.9299" y1="120.895" x2="80.9299" y2="120.892" gradientUnits="userSpaceOnUse">
<stop stop-color="#808080" stop-opacity="0.25"/>
<stop offset="0.54" stop-color="#808080" stop-opacity="0.12"/>
<stop offset="1" stop-color="#808080" stop-opacity="0.1"/>
</linearGradient>
<linearGradient id="paint2_linear_86_7286" x1="428.242" y1="279.81" x2="428.242" y2="279.432" gradientUnits="userSpaceOnUse">
<stop stop-color="#808080" stop-opacity="0.25"/>
<stop offset="0.54" stop-color="#808080" stop-opacity="0.12"/>
<stop offset="1" stop-color="#808080" stop-opacity="0.1"/>
</linearGradient>
<linearGradient id="paint3_linear_86_7286" x1="20301.9" y1="63500.8" x2="20301.9" y2="17128.9" gradientUnits="userSpaceOnUse">
<stop stop-color="#808080" stop-opacity="0.25"/>
<stop offset="0.54" stop-color="#808080" stop-opacity="0.12"/>
<stop offset="1" stop-color="#808080" stop-opacity="0.1"/>
</linearGradient>
<clipPath id="clip0_86_7286">
<rect width="150" height="118.465" fill="white"/>
</clipPath>
</defs>
</svg>
