<svg width="296" height="227" viewBox="0 0 296 227" fill="none" xmlns="http://www.w3.org/2000/svg">
<path d="M67.8875 27.8839C64.051 29.8809 60.2083 32.3953 58.2554 36.2537C56.8199 39.093 56.558 42.3488 56.3214 45.5163L53.4819 83.3302C52.8509 91.7567 52.16 100.417 48.4813 108.026C42.143 121.135 28.3432 128.615 17.9823 138.843C1.00545 155.604 -6.28251 183.859 6.46669 204.025C12.0911 212.84 20.7798 219.26 30.8577 222.048C36.7701 223.657 42.9475 223.941 49.0681 224.216C100.336 226.439 151.639 227.331 202.977 226.891C209.072 226.838 215.335 226.733 220.96 224.418C228.731 221.222 234.315 214.187 238.161 206.716C242.007 199.245 244.471 191.134 248.108 183.563C255.554 168.104 267.669 155.503 278.226 141.991C284.046 134.546 289.495 126.656 292.764 117.79C297.96 103.701 297.051 87.1286 288.93 74.4935C285.422 69.0324 280.645 64.3033 278.257 58.2681C274.922 49.8289 276.784 40.377 277.579 31.3384C278.374 22.2998 277.503 11.9803 270.546 6.15333C266.707 2.93855 261.621 1.6703 256.665 0.94469C232.936 -2.52563 209.104 4.34245 185.574 8.97376C164.811 13.075 143.761 15.4222 122.699 17.2931C104.002 18.9588 84.9495 19.003 67.8875 27.8839Z" fill="#E6F5F7"/>
<path d="M60.5245 204C60.5245 204 51.5718 172.988 62.2036 150.163C66.6661 140.584 68.1485 129.83 66.0848 119.434C65.0994 114.5 63.6726 109.668 61.8223 105" stroke="#535461" stroke-width="2" stroke-miterlimit="10"/>
<path d="M68 89.976C68 93.8282 61 105 61 105C61 105 54 93.8282 54 89.976C54 88.1259 54.7375 86.3515 56.0503 85.0432C57.363 83.735 59.1435 83 61 83C62.8565 83 64.637 83.735 65.9497 85.0432C67.2625 86.3515 68 88.1259 68 89.976Z" fill="#0098AC"/>
<path d="M79.8162 111.444C77.6045 114.582 65 120 65 120C65 120 65.2286 107.227 67.4402 104.089C67.9664 103.343 68.6474 102.7 69.4445 102.195C70.2416 101.691 71.1391 101.336 72.0857 101.15C73.0324 100.964 74.0096 100.951 74.9617 101.112C75.9138 101.272 76.8221 101.604 77.6348 102.087C78.4474 102.57 79.1484 103.195 79.6978 103.926C80.2472 104.658 80.6343 105.482 80.8368 106.351C81.0394 107.22 81.0535 108.117 80.8784 108.991C80.7033 109.865 80.3423 110.699 79.8162 111.444Z" fill="#0098AC"/>
<path d="M79.2772 147.068C75.8934 148.787 63 147.601 63 147.601C63 147.601 69.7049 136.444 73.095 134.716C74.7185 133.907 76.5931 133.778 78.3105 134.356C80.028 134.935 81.4492 136.173 82.2646 137.803C83.08 139.432 83.2236 141.32 82.664 143.055C82.1045 144.791 80.8872 146.233 79.2772 147.068Z" fill="#0098AC"/>
<path d="M73.1212 174.873C70.0424 177.025 57 178 57 178C57 178 61.8047 166.484 64.8804 164.331C65.6114 163.807 66.445 163.426 67.333 163.209C68.221 162.992 69.1457 162.943 70.0536 163.067C70.9615 163.19 71.8344 163.482 72.6219 163.927C73.4094 164.372 74.0957 164.96 74.6411 165.658C75.1866 166.355 75.5802 167.148 75.7993 167.99C76.0184 168.833 76.0586 169.708 75.9175 170.565C75.7764 171.422 75.4569 172.244 74.9774 172.984C74.498 173.723 73.8681 174.365 73.1244 174.873H73.1212Z" fill="#0098AC"/>
<path d="M51.0031 120.666C53.6541 123.287 66 126 66 126C66 126 62.9768 113.52 60.3258 110.9C59.051 109.653 57.343 108.97 55.5752 109.001C53.8073 109.032 52.1233 109.774 50.8913 111.064C49.6593 112.355 48.9795 114.09 49.0005 115.889C49.0214 117.688 49.7414 119.406 51.0031 120.666Z" fill="#0098AC"/>
<path d="M43.8175 153.005C47.1816 154.84 60 153.574 60 153.574C60 153.574 53.3123 141.654 49.9482 139.819C49.1471 139.373 48.2723 139.102 47.3743 139.024C46.4762 138.945 45.5727 139.06 44.7158 139.361C43.8589 139.663 43.0656 140.145 42.3817 140.779C41.6978 141.414 41.1368 142.189 40.7311 143.059C40.3254 143.93 40.083 144.878 40.0179 145.851C39.9527 146.823 40.0662 147.8 40.3517 148.724C40.6371 149.649 41.089 150.503 41.6812 151.238C42.2734 151.973 42.9941 152.573 43.8019 153.005H43.8175Z" fill="#0098AC"/>
<path d="M41.7669 184.644C44.8671 186.954 58 188 58 188C58 188 53.1619 175.641 50.0649 173.331C48.5752 172.247 46.7218 171.799 44.9066 172.084C43.0914 172.369 41.4607 173.363 40.3683 174.852C39.2759 176.341 38.8097 178.204 39.071 180.037C39.3322 181.87 40.2997 183.525 41.7637 184.644H41.7669Z" fill="#0098AC"/>
<path opacity="0.25" d="M68 89.976C68 93.8282 61 105 61 105C61 105 54 93.8282 54 89.976C54 88.1259 54.7375 86.3515 56.0503 85.0432C57.363 83.735 59.1435 83 61 83C62.8565 83 64.637 83.735 65.9497 85.0432C67.2625 86.3515 68 88.1259 68 89.976Z" fill="black"/>
<path opacity="0.25" d="M79.8162 111.444C77.6045 114.582 65 120 65 120C65 120 65.2286 107.227 67.4402 104.089C67.9664 103.343 68.6474 102.7 69.4445 102.195C70.2416 101.691 71.1391 101.336 72.0857 101.15C73.0324 100.964 74.0096 100.951 74.9617 101.112C75.9138 101.272 76.8221 101.604 77.6348 102.087C78.4474 102.57 79.1484 103.195 79.6978 103.926C80.2472 104.658 80.6343 105.482 80.8368 106.351C81.0394 107.22 81.0535 108.117 80.8784 108.991C80.7033 109.865 80.3423 110.699 79.8162 111.444Z" fill="black"/>
<path opacity="0.25" d="M79.2772 147.068C75.8934 148.787 63 147.601 63 147.601C63 147.601 69.7049 136.444 73.095 134.716C74.7185 133.907 76.5931 133.778 78.3105 134.356C80.028 134.935 81.4492 136.173 82.2646 137.803C83.08 139.432 83.2236 141.32 82.664 143.055C82.1045 144.791 80.8872 146.233 79.2772 147.068Z" fill="black"/>
<path opacity="0.25" d="M73.1212 174.873C70.0424 177.025 57 178 57 178C57 178 61.8047 166.484 64.8804 164.331C65.6114 163.807 66.445 163.426 67.333 163.209C68.221 162.992 69.1457 162.943 70.0536 163.067C70.9615 163.19 71.8344 163.482 72.6219 163.927C73.4094 164.372 74.0957 164.96 74.6411 165.658C75.1866 166.355 75.5802 167.148 75.7993 167.99C76.0184 168.833 76.0586 169.708 75.9175 170.565C75.7764 171.422 75.4569 172.244 74.9774 172.984C74.498 173.723 73.8681 174.365 73.1244 174.873H73.1212Z" fill="black"/>
<path opacity="0.25" d="M51.0031 120.666C53.6541 123.287 66 126 66 126C66 126 62.9768 113.52 60.3258 110.9C59.051 109.653 57.343 108.97 55.5752 109.001C53.8073 109.032 52.1233 109.774 50.8913 111.064C49.6593 112.355 48.9795 114.09 49.0005 115.889C49.0214 117.688 49.7414 119.406 51.0031 120.666Z" fill="black"/>
<path opacity="0.25" d="M43.8175 153.005C47.1816 154.84 60 153.574 60 153.574C60 153.574 53.3123 141.654 49.9482 139.819C49.1471 139.373 48.2723 139.102 47.3743 139.024C46.4762 138.945 45.5727 139.06 44.7158 139.361C43.8589 139.663 43.0656 140.145 42.3817 140.779C41.6978 141.414 41.1368 142.189 40.7311 143.059C40.3254 143.93 40.083 144.878 40.0179 145.851C39.9527 146.823 40.0662 147.8 40.3517 148.724C40.6371 149.649 41.089 150.503 41.6812 151.238C42.2734 151.973 42.9941 152.573 43.8019 153.005H43.8175Z" fill="black"/>
<path opacity="0.25" d="M41.7669 184.644C44.8671 186.954 58 188 58 188C58 188 53.1619 175.641 50.0649 173.331C48.5752 172.247 46.7218 171.799 44.9066 172.084C43.0914 172.369 41.4607 173.363 40.3683 174.852C39.2759 176.341 38.8097 178.204 39.071 180.037C39.3322 181.87 40.2997 183.525 41.7637 184.644H41.7669Z" fill="black"/>
<path d="M235.529 187C235.529 187 226.57 155.991 237.2 133.165C241.666 123.585 243.149 112.831 241.084 102.435C240.098 97.5003 238.67 92.6685 236.819 88" stroke="#535461" stroke-width="2" stroke-miterlimit="10"/>
<path d="M244 73.2931C244 77.3204 237 89 237 89C237 89 230 77.3204 230 73.2931C230 71.3588 230.738 69.5038 232.05 68.1361C233.363 66.7684 235.143 66 237 66C238.857 66 240.637 66.7684 241.95 68.1361C243.262 69.5038 244 71.3588 244 73.2931Z" fill="#0098AC"/>
<path d="M254.964 93.9941C253.029 97.297 242 103 242 103C242 103 242.2 89.5545 244.135 86.2516C244.596 85.4664 245.192 84.7891 245.889 84.2582C246.586 83.7274 247.372 83.3534 248.2 83.1577C249.028 82.962 249.883 82.9483 250.717 83.1175C251.55 83.2867 252.344 83.6355 253.055 84.1439C253.766 84.6522 254.38 85.3103 254.861 86.0804C255.341 86.8506 255.68 87.7178 255.857 88.6325C256.034 89.5471 256.047 90.4914 255.894 91.4114C255.74 92.3313 255.425 93.209 254.964 93.9941Z" fill="#0098AC"/>
<path d="M254.871 131.077C251.363 132.78 238 131.605 238 131.605C238 131.605 244.972 120.54 248.479 118.836C249.317 118.396 250.238 118.123 251.188 118.033C252.137 117.943 253.096 118.038 254.007 118.312C254.917 118.586 255.761 119.034 256.489 119.628C257.216 120.223 257.812 120.953 258.241 121.774C258.67 122.595 258.923 123.491 258.985 124.409C259.047 125.326 258.917 126.246 258.603 127.114C258.288 127.982 257.796 128.78 257.155 129.461C256.513 130.141 255.737 130.691 254.871 131.077Z" fill="#0098AC"/>
<path d="M248.083 157.672C245.011 159.963 232 161 232 161C232 161 236.793 148.743 239.862 146.452C240.59 145.885 241.423 145.471 242.312 145.233C243.202 144.995 244.129 144.939 245.04 145.067C245.951 145.195 246.828 145.506 247.619 145.98C248.409 146.454 249.098 147.083 249.645 147.829C250.192 148.576 250.586 149.425 250.804 150.327C251.021 151.229 251.058 152.165 250.913 153.082C250.767 153.998 250.442 154.876 249.956 155.665C249.47 156.453 248.833 157.135 248.083 157.672Z" fill="#0098AC"/>
<path d="M227.027 103.678C229.674 106.292 242 109 242 109C242 109 238.982 96.5526 236.344 93.9225C235.714 93.3003 234.97 92.8103 234.154 92.4806C233.338 92.1508 232.467 91.9878 231.589 92.0007C230.711 92.0137 229.844 92.2024 229.038 92.556C228.232 92.9097 227.502 93.4214 226.89 94.0619C226.278 94.7025 225.797 95.4593 225.472 96.2892C225.148 97.1191 224.988 98.0058 225.001 98.8987C225.013 99.7917 225.199 100.673 225.547 101.493C225.894 102.313 226.397 103.056 227.027 103.678Z" fill="#0098AC"/>
<path d="M219.805 136.072C223.172 137.784 236 136.603 236 136.603C236 136.603 229.32 125.477 225.956 123.764C225.154 123.348 224.279 123.096 223.38 123.022C222.481 122.949 221.577 123.056 220.719 123.337C219.862 123.618 219.068 124.068 218.384 124.661C217.699 125.253 217.138 125.976 216.732 126.789C216.326 127.601 216.083 128.487 216.018 129.394C215.953 130.302 216.066 131.213 216.352 132.076C216.638 132.939 217.09 133.737 217.683 134.422C218.275 135.108 218.996 135.669 219.805 136.072Z" fill="#0098AC"/>
<path d="M216.767 167.854C219.867 170.019 233 171 233 171C233 171 228.162 159.413 225.065 157.247C223.575 156.231 221.722 155.811 219.907 156.079C218.091 156.346 216.461 157.278 215.368 158.674C214.276 160.07 213.81 161.816 214.071 163.535C214.332 165.253 215.3 166.805 216.764 167.854H216.767Z" fill="#0098AC"/>
<path opacity="0.25" d="M244 73.2931C244 77.3204 237 89 237 89C237 89 230 77.3204 230 73.2931C230 71.3588 230.738 69.5038 232.05 68.1361C233.363 66.7684 235.143 66 237 66C238.857 66 240.637 66.7684 241.95 68.1361C243.262 69.5038 244 71.3588 244 73.2931Z" fill="black"/>
<path opacity="0.25" d="M254.964 93.9941C253.029 97.297 242 103 242 103C242 103 242.2 89.5545 244.135 86.2516C244.596 85.4664 245.192 84.7891 245.889 84.2582C246.586 83.7274 247.372 83.3534 248.2 83.1577C249.028 82.962 249.883 82.9483 250.717 83.1175C251.55 83.2867 252.344 83.6355 253.055 84.1439C253.766 84.6522 254.38 85.3103 254.861 86.0804C255.341 86.8506 255.68 87.7178 255.857 88.6325C256.034 89.5471 256.047 90.4914 255.894 91.4114C255.74 92.3313 255.425 93.209 254.964 93.9941Z" fill="black"/>
<path opacity="0.25" d="M254.871 131.077C251.363 132.78 238 131.605 238 131.605C238 131.605 244.972 120.54 248.479 118.836C249.317 118.396 250.238 118.123 251.188 118.033C252.137 117.943 253.096 118.038 254.007 118.312C254.917 118.586 255.761 119.034 256.489 119.628C257.216 120.223 257.812 120.953 258.241 121.774C258.67 122.595 258.923 123.491 258.985 124.409C259.047 125.326 258.917 126.246 258.603 127.114C258.288 127.982 257.796 128.78 257.155 129.461C256.513 130.141 255.737 130.691 254.871 131.077Z" fill="black"/>
<path opacity="0.25" d="M248.083 157.672C245.011 159.963 232 161 232 161C232 161 236.793 148.743 239.862 146.452C240.59 145.885 241.423 145.471 242.312 145.233C243.202 144.995 244.129 144.939 245.04 145.067C245.951 145.195 246.828 145.506 247.619 145.98C248.409 146.454 249.098 147.083 249.645 147.829C250.192 148.576 250.586 149.425 250.804 150.327C251.021 151.229 251.058 152.165 250.913 153.082C250.767 153.998 250.442 154.876 249.956 155.665C249.47 156.453 248.833 157.135 248.083 157.672Z" fill="black"/>
<path opacity="0.25" d="M227.027 103.678C229.674 106.292 242 109 242 109C242 109 238.982 96.5526 236.344 93.9225C235.714 93.3003 234.97 92.8103 234.154 92.4806C233.338 92.1508 232.467 91.9878 231.589 92.0007C230.711 92.0137 229.844 92.2024 229.038 92.556C228.232 92.9097 227.502 93.4214 226.89 94.0619C226.278 94.7025 225.797 95.4593 225.472 96.2892C225.148 97.1191 224.988 98.0058 225.001 98.8987C225.013 99.7917 225.199 100.673 225.547 101.493C225.894 102.313 226.397 103.056 227.027 103.678Z" fill="black"/>
<path opacity="0.25" d="M219.805 136.072C223.172 137.784 236 136.603 236 136.603C236 136.603 229.32 125.477 225.956 123.764C225.154 123.348 224.279 123.096 223.38 123.022C222.481 122.949 221.577 123.056 220.719 123.337C219.862 123.618 219.068 124.068 218.384 124.661C217.699 125.253 217.138 125.976 216.732 126.789C216.326 127.601 216.083 128.487 216.018 129.394C215.953 130.302 216.066 131.213 216.352 132.076C216.638 132.939 217.09 133.737 217.683 134.422C218.275 135.108 218.996 135.669 219.805 136.072Z" fill="black"/>
<path opacity="0.25" d="M216.767 167.854C219.867 170.019 233 171 233 171C233 171 228.162 159.413 225.065 157.247C223.575 156.231 221.722 155.811 219.907 156.079C218.091 156.346 216.461 157.278 215.368 158.674C214.276 160.07 213.81 161.816 214.071 163.535C214.332 165.253 215.3 166.805 216.764 167.854H216.767Z" fill="black"/>
<path d="M230.209 201.624C230.209 201.586 230.209 201.546 230.231 201.505C230.253 201.464 230.231 201.483 230.231 201.473C230.237 201.395 230.237 201.316 230.231 201.238C230.231 201.238 229.811 200.431 229.323 199.323C228.656 197.801 227.863 195.708 227.863 194.336C227.863 194.336 220.543 168.67 215.594 165.867C215.594 165.867 211.522 158.601 211.566 154.512C211.572 153.205 211.467 151.9 211.253 150.611C210.529 146.101 209.323 137.467 210.426 135.888C211.826 133.883 214.159 125.158 208.587 118.57L209.564 118.419C209.564 118.419 209.511 118.353 209.423 118.225L209.564 118.203C209.564 118.203 207.409 115.61 207.409 109.882C207.441 106.584 208.183 102.275 210.426 96.8483C210.722 96.1285 210.994 95.4161 211.24 94.711C212.284 94.1911 213.236 93.5042 214.059 92.6772L214.159 92.5736L214.275 92.4638C216.333 90.3924 217.58 87.6431 218.447 84.8529C219.244 82.2884 219.754 79.6432 219.967 76.9659C220.198 74.0565 220.076 71.1345 219.967 68.2189C219.826 64.8167 219.653 61.3142 218.294 58.2102C217.758 56.9956 217.041 55.8469 216.712 54.5601C216.53 53.6767 216.403 52.7825 216.333 51.883C215.885 48.3585 214.219 44.9406 211.488 42.6778C208.756 40.4149 204.938 39.4074 201.521 40.3553C199.566 40.8982 197.822 42.0218 196.196 43.2521C195.499 43.778 194.842 44.3538 194.229 44.9751C192.265 46.9053 190.783 49.435 192.205 52.0933C192.31 52.2858 192.422 52.4741 192.541 52.6582C191.79 53.8587 191.31 55.2094 191.136 56.6154C190.962 58.0214 191.097 59.4487 191.532 60.7968C191.966 62.1449 192.691 63.3812 193.653 64.4189C194.616 65.4566 195.794 66.2705 197.104 66.8034L197.358 67.2491H197.386C198.128 68.6237 198.937 70.3405 199.15 71.643C198.22 72.3067 197.378 73.0861 196.644 73.9623C194.11 76.991 192.722 79.0467 191.964 80.3869C191.247 81.6287 190.416 82.8003 189.48 83.8863C188.331 85.2484 186.974 87.9067 186.974 92.853C186.974 93.2149 186.974 93.5905 186.974 93.9797C180.907 100.599 157.246 95.7467 157.246 95.7467C154.396 94.6356 151.079 95.9758 149.525 96.7635C149.398 96.8261 149.287 96.9165 149.2 97.0281C149.113 97.1397 149.052 97.2696 149.022 97.4081C148.991 97.5466 148.993 97.6901 149.026 97.8279C149.059 97.9657 149.122 98.0943 149.212 98.2041C151.718 101.23 157.882 99.4156 157.882 99.4156C157.882 99.4156 180.052 103.298 181.775 104.591C182.946 105.473 185.017 104.754 186.22 104.205L185.972 104.484L186.285 104.33L184.581 119.687H184.606L184.581 119.904C184.581 119.904 184.976 119.869 185.606 119.825L186.132 121.19H186.088L186.633 122.484L187.081 123.548C185.744 128.393 180.353 148.342 180.92 152.896C180.92 152.896 177.474 161.09 178.768 165.622C178.768 165.622 174.032 199.7 171.019 201.426L171.442 201.618C168.225 203.46 161.218 206.925 156.382 205.309C156.382 205.309 153.368 206.172 158.104 209.191C158.104 209.191 177.477 214.366 180.062 212.643L179.632 205.183L179.852 205.262C179.883 204.841 180.165 201.756 181.355 200.35C181.355 200.35 189.104 179.212 188.675 168.428L195.908 150.915C196.691 152.924 197.521 154.628 198.36 155.705L201.374 163.469L206.326 169.941C206.326 169.941 221.824 194.528 220.734 201.863L221.097 201.954C219.647 204.54 216.039 209.841 210.83 209.841C210.83 209.841 206.31 214.586 214.704 213.939C214.704 213.939 225.251 213.293 233 208.978L230.209 201.624Z" fill="url(#paint0_linear_254_4979)"/>
<path d="M175.285 199C175.285 199 165.215 206.219 158.921 203.962C158.921 203.962 155.984 204.864 160.599 208.023C160.599 208.023 179.483 213.438 182 211.631L181.367 199.902L175.285 199Z" fill="#333333"/>
<path d="M222.471 200.206C222.471 200.206 218.624 209.04 212.144 209.04C212.144 209.04 207.89 213.559 215.789 212.942C215.789 212.942 225.71 212.322 233 208.218L229.514 199L222.471 200.206Z" fill="#333333"/>
<path d="M187 120.724L188.602 125L199 124.233L197.936 117L187 120.724Z" fill="#FDB797"/>
<path d="M188.786 125C188.786 125 181.932 149.388 182.556 154.377C182.556 154.377 179.234 162.293 180.478 166.668C180.478 166.668 175.908 199.585 173 201.248C173 201.248 181.462 205.09 181.722 204.998C184.631 203.958 181.515 204.998 181.515 204.998C181.515 204.998 181.722 201.666 182.969 200.208C182.969 200.208 190.447 179.79 190.031 169.375L200 145.207L188.786 125Z" fill="#252A62"/>
<path opacity="0.1" d="M188.786 125C188.786 125 181.932 149.388 182.556 154.377C182.556 154.377 179.234 162.293 180.478 166.668C180.478 166.668 175.908 199.585 173 201.248C173 201.248 181.462 205.09 181.722 204.998C184.631 203.958 181.515 204.998 181.515 204.998C181.515 204.998 181.722 201.666 182.969 200.208C182.969 200.208 190.447 179.79 190.031 169.375L200 145.207L188.786 125Z" fill="black"/>
<path d="M187 122.972L191.614 133.827C191.614 133.827 195.18 151.57 198.956 156.371L201.892 163.886L206.718 170.151C206.718 170.151 221.819 193.949 220.769 201.046C220.769 201.046 230.205 203.566 229.997 200.416C229.997 200.416 227.69 196.031 227.69 193.735C227.69 193.735 220.56 168.895 215.734 166.179C215.734 166.179 211.772 159.146 211.81 155.189C211.812 153.923 211.706 152.658 211.494 151.409C210.788 147.044 209.614 138.69 210.69 137.162C212.158 135.074 214.674 125.473 207.544 119L187 122.972Z" fill="#252A62"/>
<path opacity="0.1" d="M229.996 200.426C229.996 200.426 227.755 196.041 227.755 193.745C227.755 193.745 220.827 168.901 216.138 166.186C216.138 166.186 212.289 159.151 212.326 155.194C212.328 153.927 212.225 152.663 212.018 151.414C211.332 147.047 210.192 138.693 211.237 137.165C212.664 135.076 215.108 125.474 208.181 119L207 119.236C213.623 125.704 211.222 135.101 209.813 137.165C208.405 139.228 211.043 154.076 211.043 154.076C210.026 157.626 214.712 166.186 214.712 166.186C219.398 168.901 226.328 193.745 226.328 193.745C226.328 196.041 228.57 200.426 228.57 200.426C228.637 201.46 227.681 201.879 226.371 201.976C228.345 202.093 230.089 201.809 229.996 200.426Z" fill="black"/>
<path d="M198 68.7774C198 68.7774 201.92 75.0538 200.89 77L211 74.3876C211 74.3876 208.316 71.3572 208.936 64L198 68.7774Z" fill="#FDB797"/>
<path opacity="0.1" d="M211.846 72.2605C211.846 72.2605 203.569 70.3406 198.32 76.9258C195.944 79.9016 194.643 81.9239 193.93 83.2422C193.259 84.4628 192.48 85.6144 191.603 86.682C190.29 88.3107 188.682 91.8209 189.437 98.9788L187 121.88C187 121.88 194.067 121.24 195.883 121.88C197.699 122.52 210.42 120.395 210.42 120.395C210.42 120.395 205.372 114.034 211.227 99.19C217.082 84.3461 211.846 72.2605 211.846 72.2605Z" fill="black"/>
<path d="M211.846 72.2552C211.846 72.2552 203.569 70.3738 198.32 76.8273C195.944 79.7436 194.643 81.7254 193.93 83.0173C193.259 84.2135 192.48 85.3421 191.603 86.3883C190.29 87.9845 188.682 91.4245 189.437 98.4393L187 120.882C187 120.882 194.067 120.255 195.883 120.882C197.699 121.509 210.42 119.427 210.42 119.427C210.42 119.427 205.372 113.193 211.227 98.6462C217.082 84.0992 211.846 72.2552 211.846 72.2552Z" fill="#F55F44"/>
<path opacity="0.1" d="M201 92C201 92 192.847 103.833 189.091 105.945L187 107C187 107 200.164 92 201 92Z" fill="black"/>
<path d="M194.259 86.2904C194.259 86.2904 199.618 84.2391 201.916 91.0399C202.009 91.316 202.025 91.6113 201.962 91.8954C201.899 92.1795 201.759 92.442 201.556 92.6558L189.036 105.797C189.036 105.797 185.483 107.83 183.813 106.61C182.142 105.39 160.625 101.732 160.625 101.732C160.625 101.732 154.652 103.44 152.212 100.591C152.124 100.489 152.06 100.369 152.027 100.239C151.994 100.11 151.991 99.9746 152.019 99.844C152.048 99.7135 152.106 99.5909 152.19 99.4855C152.274 99.3801 152.382 99.2947 152.505 99.2358C153.671 98.6624 155.616 98.9936 157.911 98.7176C159.673 98.513 161.455 98.5491 163.207 98.8249C170.372 99.9165 187.252 101.719 189.871 95.0259C193.213 86.4958 194.259 86.2904 194.259 86.2904Z" fill="#FDB797"/>
<path opacity="0.1" d="M194 86.3302C194 86.3302 200.526 85.433 202 91V90.6395C202 90.6395 200.106 84.5359 194 86.3302Z" fill="black"/>
<path opacity="0.1" d="M209 64L198 68.8227C198 68.8227 198.497 69.6232 199.088 70.7445C200.161 71.201 201.644 70.9066 202.87 70.9066C205.372 70.9066 207.202 70.2087 208.881 68.4952C208.728 67.1788 208.834 65.816 209 64Z" fill="black"/>
<path d="M202.5 71C207.747 71 212 66.7467 212 61.5C212 56.2533 207.747 52 202.5 52C197.253 52 193 56.2533 193 61.5C193 66.7467 197.253 71 202.5 71Z" fill="#FDB797"/>
<path opacity="0.1" d="M201.727 60.555C201.929 61.2704 201.336 61.933 200.907 62.5396C199.407 64.6641 199.683 67.557 200.37 70.0642C200.705 71.2929 201.208 72.5994 202.305 73.2433C203.18 73.7565 204.258 73.7347 205.24 73.9929C207.007 74.4564 208.435 75.8593 209.277 77.4737C210.119 79.0882 210.42 80.9514 210.519 82.7805C210.82 88.071 209.55 93.3322 206.87 97.9013C209.619 98.371 212.461 97.1174 214.433 95.1359C216.405 93.1545 217.591 90.5291 218.421 87.8633C219.182 85.4126 219.67 82.8847 219.874 80.3262C220.095 77.5453 219.98 74.7519 219.874 71.9648C219.741 68.7142 219.585 65.3765 218.275 62.3996C217.762 61.2362 217.079 60.1412 216.762 58.9094C216.587 58.0657 216.466 57.2116 216.399 56.3525C215.97 52.9837 214.377 49.7175 211.765 47.5525C209.153 45.3875 205.504 44.4419 202.236 45.3346C200.373 45.8541 198.702 46.9273 197.155 48.1031C194.652 50.0099 191.779 53.0801 193.546 56.3463C195.084 59.2049 198.481 61.0651 201.727 60.555Z" fill="black"/>
<path d="M202.057 60.5456C202.266 61.2611 201.651 61.9237 201.206 62.5302C199.651 64.6548 199.937 67.5477 200.649 70.0549C200.997 71.2836 201.519 72.59 202.656 73.2339C203.564 73.7472 204.682 73.7254 205.699 73.9836C207.532 74.4471 209.014 75.85 209.886 77.4644C210.759 79.0788 211.072 80.9421 211.175 82.7711C211.486 88.0654 210.167 93.3302 207.384 97.9013C210.234 98.371 213.181 97.1174 215.227 95.1359C217.272 93.1545 218.502 90.5291 219.362 87.8633C220.152 85.4126 220.658 82.8847 220.869 80.3262C221.098 77.5453 220.979 74.7519 220.869 71.9648C220.731 68.7142 220.57 65.3765 219.211 62.3996C218.679 61.2362 217.971 60.1412 217.642 58.9094C217.461 58.0657 217.335 57.2116 217.265 56.3525C216.821 52.9837 215.169 49.7175 212.46 47.5525C209.751 45.3875 205.967 44.4419 202.578 45.3346C200.646 45.8541 198.913 46.9273 197.309 48.1031C194.713 50.0099 191.734 53.0801 193.566 56.3463C195.17 59.1956 198.688 61.0558 202.057 60.5456Z" fill="#72351C"/>
<path opacity="0.1" d="M203 107C203 107 207.384 107 209 105L203 107Z" fill="black"/>
<path opacity="0.1" d="M203 108C203 108 207.384 108 209 107L203 108Z" fill="black"/>
<path opacity="0.1" d="M207 84C207 84 206.353 88.8004 204 91L207 84Z" fill="black"/>
<g opacity="0.1">
<path opacity="0.1" d="M116.338 209.466V209.414L116.261 209.44L116.338 209.466Z" fill="url(#paint1_linear_254_4979)"/>
</g>
<g opacity="0.1">
<path opacity="0.1" d="M116.116 209.465C116.164 209.466 116.212 209.457 116.257 209.44C115.772 209.269 113.318 208.462 116.116 209.465Z" fill="url(#paint2_linear_254_4979)"/>
</g>
<path d="M147.445 98.4234C145.855 97.6429 142.461 96.3095 139.544 97.4123C139.544 97.4123 111.574 102.986 108.048 93.9806C107.882 93.5593 107.722 93.1538 107.567 92.7641C107.637 92.1738 107.668 91.5794 107.658 90.985C107.67 90.2541 107.618 89.5235 107.504 88.8015C107.319 87.745 106.916 86.7394 106.319 85.8502C105.625 84.6808 105.057 83.4404 104.625 82.15C103.946 80.2902 102.883 78.5963 101.506 77.1801C100.128 75.7639 98.4673 74.6576 96.6331 73.9342C96.6865 72.5881 97.6325 70.6005 98.4904 69.0553H98.5187L98.7796 68.613C100.585 67.9214 102.141 66.6983 103.245 65.1035C104.348 63.5086 104.948 61.6163 104.964 59.6736C104.964 57.8018 104.407 55.9728 103.365 54.4218C106.322 53.9447 105.31 51.4168 103.481 49.2491C103.126 48.829 102.748 48.4302 102.347 48.0546C100.561 46.2862 98.3125 45.0634 95.8631 44.5282C95.5708 44.465 95.2754 44.4176 94.98 44.3765C93.2207 43.7671 91.3464 43.5685 89.4994 43.7957C87.6524 44.0229 85.8811 44.67 84.3198 45.6879C83.9388 44.6008 83.2292 43.6608 82.2903 42.9995C81.3514 42.3382 80.2303 41.9888 79.084 42.0003C76.0418 42.0003 73.5779 44.3986 73.5779 47.3721C73.5779 50.3456 76.0418 52.7439 79.084 52.7439H79.3983C79.1946 53.5894 79.0891 54.4557 79.084 55.3256C79.084 60.7353 82.8961 65.2793 88.0502 66.5495L88.1414 66.6348C88.1414 66.7233 88.1257 66.815 88.1131 66.9034L88.1351 66.9224C87.9387 68.5138 87.4394 70.0522 86.6643 71.4537L86.4694 71.4063C82.4059 74.2502 80.9351 78.5635 80.9696 83.0568C80.9476 86.874 81.9973 90.8681 83.4838 94.1165C84.0298 95.4153 84.2995 96.8145 84.2758 98.2244C84.1972 103.091 81.969 108.93 80.4542 112.349C79.8539 113.705 71.1517 134.863 71.1517 134.863L71.3497 134.813L71.1517 135.293C73.0562 134.756 75.099 135.002 76.8338 135.473C78.0281 135.789 79.273 135.862 80.4957 135.688C81.7184 135.514 82.8944 135.098 83.9552 134.462C84.1882 135.478 84.5887 136.448 85.14 137.331C86.2683 138.911 85.0363 147.481 84.2946 151.965C84.0774 153.247 83.9723 154.545 83.9804 155.845C84.0212 159.912 79.8602 167.135 79.8602 167.135C74.7941 169.923 67.305 195.436 67.305 195.436C67.305 196.801 66.4941 198.88 65.8122 200.393C65.3156 201.496 64.8693 202.289 64.8693 202.289C64.8628 202.367 64.8628 202.445 64.8693 202.523C64.8693 202.523 64.8693 202.545 64.8693 202.555C64.8746 202.595 64.882 202.635 64.8913 202.675L62 210.009C69.9292 214.297 80.7213 214.942 80.7213 214.942C89.3105 215.574 84.6875 210.868 84.6875 210.868C79.3448 210.868 75.6678 205.598 74.1813 203.029L74.5553 202.937C73.4553 195.647 89.3262 171.205 89.3262 171.205L94.3923 164.772L97.4753 157.021C98.3333 155.953 99.185 154.259 99.9895 152.262L107.388 169.66C106.948 180.382 114.877 201.392 114.877 201.392C116.106 202.789 116.382 205.857 116.414 206.274L116.637 206.198L116.197 213.614C118.84 215.33 138.664 210.183 138.664 210.183C143.51 207.181 140.427 206.325 140.427 206.325C135.481 207.93 128.309 204.485 125.028 202.656L125.458 202.466C122.375 200.75 117.529 166.876 117.529 166.876C118.852 162.374 115.329 154.237 115.329 154.237C115.732 151.108 113.198 140.602 111.156 132.851C113.778 132.828 116.393 132.559 118.965 132.048C118.802 131.944 118.651 131.833 118.485 131.732C118.799 131.672 118.965 131.634 118.965 131.634C112.158 127.258 108.28 112.476 106.605 104.102C107.024 104.459 107.475 104.777 107.953 105.05L110.153 106.121L109.902 105.846C111.131 106.393 113.249 107.11 114.449 106.228C116.212 104.942 138.897 101.084 138.897 101.084C138.897 101.084 145.182 102.888 147.769 99.8802C147.865 99.7712 147.934 99.6408 147.971 99.4997C148.007 99.3585 148.01 99.2107 147.978 99.0684C147.946 98.9261 147.882 98.7934 147.789 98.6813C147.696 98.5691 147.578 98.4808 147.445 98.4234Z" fill="url(#paint3_linear_254_4979)"/>
<path d="M91.5 69C97.8513 69 103 63.8513 103 57.5C103 51.1487 97.8513 46 91.5 46C85.1487 46 80 51.1487 80 57.5C80 63.8513 85.1487 69 91.5 69Z" fill="#FFC533"/>
<path d="M100 68.7774C100 68.7774 96.0798 75.0538 97.1104 77L87 74.3876C87 74.3876 89.6841 71.3572 89.0644 64L100 68.7774Z" fill="#FDB797"/>
<path opacity="0.1" d="M89 64L100 68.8227C100 68.8227 99.502 69.6232 98.91 70.7445C97.8357 71.201 96.3511 70.9066 95.1233 70.9066C92.6176 70.9066 90.7853 70.2087 89.1034 68.4952C89.26 67.1787 89.1409 65.816 89 64Z" fill="black"/>
<path d="M95.5 71C100.747 71 105 66.7467 105 61.5C105 56.2533 100.747 52 95.5 52C90.2533 52 86 56.2533 86 61.5C86 66.7467 90.2533 71 95.5 71Z" fill="#FDB797"/>
<path d="M80 55C82.7614 55 85 52.7614 85 50C85 47.2386 82.7614 45 80 45C77.2386 45 75 47.2386 75 50C75 52.7614 77.2386 55 80 55Z" fill="#FFC533"/>
<path opacity="0.1" d="M102.05 56.8188C99.7237 56.7777 97.0797 56.3033 95.3367 57.8625C94.0895 58.9821 93.7527 60.7911 93.3287 62.4294C92.7051 64.8899 91.277 67.5939 88.795 67.9608C87.2797 68.1853 85.755 67.42 84.6792 66.3131C83.6035 65.2061 82.9082 63.783 82.2503 62.3882C81.5924 60.9935 80.9501 59.5419 81.0031 57.9953C81.0685 56.1579 82.1256 54.5164 83.2044 53.0458C83.8551 52.1223 84.5799 51.2549 85.3714 50.4525C86.5934 49.2582 88.0482 48.3365 89.6424 47.7467C91.2366 47.1569 92.9348 46.9121 94.6279 47.028C96.321 47.1439 97.9714 47.6179 99.473 48.4195C100.975 49.2212 102.294 50.3328 103.347 51.6827C105.283 54.0642 106.247 56.8916 102.05 56.8188Z" fill="black"/>
<path d="M102.051 56.8188C99.7247 56.7777 97.0805 56.3033 95.3374 57.8625C94.0901 58.9821 93.7533 60.7911 93.3293 62.4293C92.7056 64.8899 91.2775 67.5939 88.7954 67.9608C87.28 68.1853 85.7552 67.42 84.6794 66.3131C83.6036 65.2061 82.9083 63.7829 82.2503 62.3882C81.5924 60.9935 80.9501 59.5419 81.0031 57.9953C81.0686 56.1578 82.1256 54.5164 83.2045 53.0458C83.8553 52.1223 84.5801 51.2549 85.3717 50.4525C86.5937 49.2582 88.0486 48.3365 89.6428 47.7467C91.2371 47.1569 92.9354 46.9121 94.6286 47.028C96.3217 47.1439 97.9722 47.6179 99.4739 48.4195C100.976 49.2212 102.295 50.3327 103.348 51.6827C105.281 54.0642 106.248 56.8916 102.051 56.8188Z" fill="#FFC533"/>
<path d="M121.715 200C121.715 200 131.785 206.664 138.079 204.581C138.079 204.581 141.016 205.413 136.401 208.329C136.401 208.329 117.517 213.327 115 211.659L115.633 200.833L121.715 200Z" fill="#333333"/>
<path d="M75.0076 200.206C75.0076 200.206 79.0293 209.04 85.8044 209.04C85.8044 209.04 90.2509 213.559 81.9936 212.942C81.9936 212.942 71.6217 212.322 64 208.218L67.6447 199L75.0076 200.206Z" fill="#333333"/>
<path d="M108.629 125C108.629 125 115.737 149.681 115.09 154.742C115.09 154.742 118.535 162.757 117.245 167.188C117.245 167.188 121.984 200.517 125 202.201C125 202.201 116.225 206.091 115.955 205.998C112.939 204.945 116.169 205.998 116.169 205.998C116.169 205.998 115.955 202.624 114.661 201.147C114.661 201.147 106.906 180.474 107.339 169.928L97 145.457L108.629 125Z" fill="#3AD29F"/>
<path opacity="0.1" d="M108.629 125C108.629 125 115.737 149.681 115.09 154.742C115.09 154.742 118.535 162.757 117.245 167.188C117.245 167.188 121.984 200.517 125 202.201C125 202.201 116.225 206.091 115.955 205.998C112.939 204.945 116.169 205.998 116.169 205.998C116.169 205.998 115.955 202.624 114.661 201.147C114.661 201.147 106.906 180.474 107.339 169.928L97 145.457L108.629 125Z" fill="black"/>
<path d="M110 123.975L105.386 134.83C105.386 134.83 101.819 152.573 98.0435 157.374L95.1066 164.889L90.2835 171.151C90.2835 171.151 75.1812 194.949 76.2319 202.046C76.2319 202.046 66.7945 204.566 67.0034 201.416C67.0034 201.416 69.3105 197.031 69.3105 194.735C69.3105 194.735 76.4408 169.895 81.267 167.179C81.267 167.179 85.2293 160.146 85.1914 156.189C85.1892 154.923 85.2951 153.658 85.5078 152.409C86.2136 148.044 87.3877 139.69 86.3117 138.162C84.8432 136.074 82.3272 126.473 89.4575 120L110 123.975Z" fill="#3AD29F"/>
<path opacity="0.1" d="M67.0042 201.423C67.0042 201.423 69.2457 197.038 69.2457 194.742C69.2457 194.742 76.173 169.899 80.862 167.184C80.862 167.184 84.7115 160.149 84.6746 156.193C84.6725 154.926 84.7754 153.661 84.9821 152.412C85.6677 148.046 86.8084 139.692 85.763 138.164C84.3364 136.075 81.892 126.474 88.8193 120L90 120.236C83.3555 126.707 85.76 136.12 87.1682 138.167C88.5764 140.215 85.9383 155.078 85.9383 155.078C86.956 158.628 82.2702 167.187 82.2702 167.187C77.5843 169.902 70.6539 194.745 70.6539 194.745C70.6539 197.041 68.4124 201.426 68.4124 201.426C68.3448 202.46 69.301 202.879 70.6109 202.976C68.6461 203.093 66.9028 202.809 67.0042 201.423Z" fill="black"/>
<path opacity="0.1" d="M87.4115 74L95.1213 75.9313C97.2733 76.473 99.2588 77.5522 100.898 79.0712C102.538 80.5903 103.78 82.5014 104.512 84.6318C104.917 85.9002 105.451 87.1222 106.105 88.2777C106.669 89.1595 107.048 90.1499 107.22 91.1874C107.533 93.2558 107.508 96.6053 105.379 100.404C105.379 100.404 108.888 127.229 118 133.355C118 133.355 109.107 135.439 101.313 132.861C96.0885 131.133 90.3571 131.86 85.8808 135.123L85.6868 135.267C84.6505 136.055 83.4521 136.594 82.1819 136.843C80.9116 137.092 79.6024 137.044 78.3527 136.704C76.7187 136.242 74.7936 136 73 136.529C73 136.529 81.198 115.689 81.7646 114.35C83.674 109.828 86.8043 101.007 84.6131 95.9902C81.5674 89.0075 80.4531 78.6594 87.4115 74Z" fill="black"/>
<path d="M87.4115 74L95.1213 75.9009C97.2733 76.434 99.2588 77.4962 100.898 78.9913C102.538 80.4864 103.78 82.3674 104.512 84.4642C104.917 85.7127 105.451 86.9153 106.105 88.0527C106.669 88.9205 107.048 89.8954 107.22 90.9165C107.533 92.9523 107.508 96.249 105.379 99.988C105.379 99.988 108.888 126.39 118 132.419C118 132.419 109.107 134.47 101.313 131.933C96.0885 130.233 90.3571 130.948 85.8808 134.16L85.6868 134.301C84.6497 135.075 83.451 135.604 82.1807 135.847C80.9105 136.091 79.6017 136.043 78.3527 135.706C76.7187 135.251 74.7936 135.013 73 135.534C73 135.534 81.198 115.022 81.7646 113.705C83.674 109.251 86.8043 100.568 84.6131 95.6185C81.5674 88.7584 80.4531 78.9906 87.4115 74Z" fill="#535461"/>
<path opacity="0.1" d="M95 93C95 93 103.731 104.042 107.761 106.015L110 107C110 107 95.8951 93 95 93Z" fill="black"/>
<path d="M102.743 86.3042C102.743 86.3042 97.3828 84.1556 95.0843 91.2791C94.9907 91.5683 94.9747 91.8777 95.0379 92.1752C95.1011 92.4728 95.2412 92.7478 95.4437 92.9717L107.967 106.74C107.967 106.74 111.521 108.87 113.192 107.591C114.863 106.313 136.385 102.482 136.385 102.482C136.385 102.482 142.318 104.258 144.775 101.316C144.866 101.208 144.932 101.081 144.968 100.944C145.004 100.807 145.01 100.664 144.984 100.524C144.958 100.385 144.902 100.253 144.819 100.139C144.737 100.024 144.63 99.9304 144.507 99.864C143.211 99.1992 140.84 99.2217 138.289 99.0001C137.407 98.9225 136.519 98.9635 135.647 99.1221C130.192 100.108 110.013 103.172 107.132 95.4576C103.79 86.5162 102.743 86.3042 102.743 86.3042Z" fill="#FDB797"/>
<path opacity="0.1" d="M103 86.3971C103 86.3971 96.4742 85.3207 95 92V91.5675C95 91.5675 96.8936 84.2411 103 86.3971Z" fill="black"/>
<path d="M145.759 199C145.759 199 141.282 182.082 146.612 169.628C148.87 164.422 149.551 158.541 148.552 152.868C148.058 150.178 147.344 147.545 146.418 145" stroke="#535461" stroke-width="2" stroke-miterlimit="10"/>
<path d="M149.997 137.488C149.997 139.416 145.998 145 145.998 145C145.998 145 142 139.418 142 137.488C142 137.03 142.103 136.577 142.304 136.153C142.506 135.73 142.8 135.346 143.172 135.022C143.543 134.698 143.984 134.441 144.469 134.266C144.955 134.09 145.475 134 146 134C146.525 134 147.045 134.09 147.531 134.266C148.016 134.441 148.457 134.698 148.828 135.022C149.2 135.346 149.494 135.73 149.696 136.153C149.897 136.577 150 137.03 150 137.488H149.997Z" fill="#0098AC"/>
<path d="M155.482 149.051C154.515 150.865 149 154 149 154C149 154 149.101 146.606 150.068 144.788C150.298 144.356 150.596 143.983 150.945 143.692C151.294 143.4 151.686 143.194 152.1 143.087C152.515 142.979 152.942 142.972 153.359 143.065C153.775 143.158 154.173 143.35 154.528 143.63C154.884 143.909 155.19 144.271 155.431 144.695C155.671 145.119 155.84 145.596 155.929 146.099C156.017 146.602 156.023 147.121 155.947 147.627C155.87 148.133 155.712 148.616 155.482 149.047V149.051Z" fill="#0098AC"/>
<path d="M155.12 168.53C153.434 169.401 147 168.794 147 168.794C147 168.794 150.351 163.229 152.039 162.369C152.441 162.165 152.877 162.043 153.325 162.01C153.773 161.976 154.224 162.032 154.65 162.173C155.077 162.315 155.471 162.54 155.812 162.836C156.152 163.131 156.431 163.491 156.634 163.896C156.836 164.3 156.957 164.74 156.991 165.192C157.024 165.644 156.969 166.097 156.828 166.527C156.688 166.958 156.464 167.355 156.171 167.699C155.878 168.042 155.521 168.323 155.12 168.527V168.53Z" fill="#0098AC"/>
<path d="M152.516 183.119C150.891 184.415 144 185 144 185C144 185 146.538 178.07 148.163 176.774C148.549 176.465 148.988 176.242 149.454 176.117C149.921 175.992 150.406 175.967 150.881 176.043C151.357 176.12 151.813 176.297 152.225 176.564C152.637 176.831 152.997 177.183 153.282 177.6C153.568 178.016 153.775 178.489 153.891 178.992C154.008 179.495 154.031 180.018 153.96 180.53C153.889 181.043 153.724 181.535 153.477 181.979C153.229 182.423 152.903 182.811 152.516 183.119Z" fill="#0098AC"/>
<path d="M140.275 154.209C141.816 155.58 149 157 149 157C149 157 147.24 150.467 145.7 149.098C145.338 148.753 144.905 148.477 144.425 148.289C143.945 148.1 143.428 148.002 142.906 148C142.384 147.998 141.866 148.093 141.385 148.278C140.903 148.463 140.467 148.735 140.103 149.077C139.738 149.42 139.453 149.826 139.264 150.272C139.075 150.718 138.986 151.194 139.002 151.672C139.018 152.15 139.139 152.62 139.358 153.055C139.577 153.489 139.889 153.878 140.275 154.2V154.209Z" fill="#0098AC"/>
<path d="M136.058 171.463C137.914 172.459 145 171.765 145 171.765C145 171.765 141.307 165.402 139.463 164.422C139.021 164.189 138.54 164.049 138.047 164.011C137.553 163.972 137.058 164.036 136.588 164.198C136.118 164.36 135.683 164.617 135.309 164.955C134.934 165.293 134.626 165.705 134.403 166.167C134.181 166.63 134.047 167.133 134.01 167.65C133.974 168.166 134.034 168.685 134.189 169.176C134.344 169.668 134.59 170.123 134.913 170.515C135.236 170.908 135.629 171.229 136.071 171.463H136.058Z" fill="#0098AC"/>
<path d="M134.632 189.119C136.42 190.415 144 191 144 191C144 191 141.209 184.07 139.421 182.774C138.563 182.151 137.487 181.889 136.431 182.043C135.375 182.198 134.424 182.758 133.789 183.6C133.154 184.441 132.886 185.495 133.044 186.53C133.202 187.565 133.774 188.496 134.632 189.119Z" fill="#0098AC"/>
<path opacity="0.5" d="M149.997 137.488C149.997 139.416 145.998 145 145.998 145C145.998 145 142 139.418 142 137.488C142 137.03 142.103 136.577 142.304 136.153C142.506 135.73 142.8 135.346 143.172 135.022C143.543 134.698 143.984 134.441 144.469 134.266C144.955 134.09 145.475 134 146 134C146.525 134 147.045 134.09 147.531 134.266C148.016 134.441 148.457 134.698 148.828 135.022C149.2 135.346 149.494 135.73 149.696 136.153C149.897 136.577 150 137.03 150 137.488H149.997Z" fill="white"/>
<path opacity="0.5" d="M155.482 149.051C154.515 150.865 149 154 149 154C149 154 149.101 146.606 150.068 144.788C150.298 144.356 150.596 143.983 150.945 143.692C151.294 143.4 151.686 143.194 152.1 143.087C152.515 142.979 152.942 142.972 153.359 143.065C153.775 143.158 154.173 143.35 154.528 143.63C154.884 143.909 155.19 144.271 155.431 144.695C155.671 145.119 155.84 145.596 155.929 146.099C156.017 146.602 156.023 147.121 155.947 147.627C155.87 148.133 155.712 148.616 155.482 149.047V149.051Z" fill="white"/>
<path opacity="0.5" d="M155.12 168.53C153.434 169.401 147 168.794 147 168.794C147 168.794 150.351 163.229 152.039 162.369C152.441 162.165 152.877 162.043 153.325 162.01C153.773 161.976 154.224 162.032 154.65 162.173C155.077 162.315 155.471 162.54 155.812 162.836C156.152 163.131 156.431 163.491 156.634 163.896C156.836 164.3 156.957 164.74 156.991 165.192C157.024 165.644 156.969 166.097 156.828 166.527C156.688 166.958 156.464 167.355 156.171 167.699C155.878 168.042 155.521 168.323 155.12 168.527V168.53Z" fill="white"/>
<path opacity="0.5" d="M152.516 183.119C150.891 184.415 144 185 144 185C144 185 146.538 178.07 148.163 176.774C148.549 176.465 148.988 176.242 149.454 176.117C149.921 175.992 150.406 175.967 150.881 176.043C151.357 176.12 151.813 176.297 152.225 176.564C152.637 176.831 152.997 177.183 153.282 177.6C153.568 178.016 153.775 178.489 153.891 178.992C154.008 179.495 154.031 180.018 153.96 180.53C153.889 181.043 153.724 181.535 153.477 181.979C153.229 182.423 152.903 182.811 152.516 183.119Z" fill="white"/>
<path opacity="0.5" d="M140.275 154.209C141.816 155.58 149 157 149 157C149 157 147.24 150.467 145.7 149.098C145.338 148.753 144.905 148.477 144.425 148.289C143.945 148.1 143.428 148.002 142.906 148C142.384 147.998 141.866 148.093 141.385 148.278C140.903 148.463 140.467 148.735 140.103 149.077C139.738 149.42 139.453 149.826 139.264 150.272C139.075 150.718 138.986 151.194 139.002 151.672C139.018 152.15 139.139 152.62 139.358 153.055C139.577 153.489 139.889 153.878 140.275 154.2V154.209Z" fill="white"/>
<path opacity="0.5" d="M136.058 171.463C137.914 172.459 145 171.765 145 171.765C145 171.765 141.307 165.402 139.463 164.422C139.021 164.189 138.54 164.049 138.047 164.011C137.553 163.972 137.058 164.036 136.588 164.198C136.118 164.36 135.683 164.617 135.309 164.955C134.934 165.293 134.626 165.705 134.403 166.167C134.181 166.63 134.047 167.133 134.01 167.65C133.974 168.166 134.034 168.685 134.189 169.176C134.344 169.668 134.59 170.123 134.913 170.515C135.236 170.908 135.629 171.229 136.071 171.463H136.058Z" fill="white"/>
<path opacity="0.5" d="M134.632 189.119C136.42 190.415 144 191 144 191C144 191 141.209 184.07 139.421 182.774C138.563 182.151 137.487 181.889 136.431 182.043C135.375 182.198 134.424 182.758 133.789 183.6C133.154 184.441 132.886 185.495 133.044 186.53C133.202 187.565 133.774 188.496 134.632 189.119Z" fill="white"/>
<path d="M148.465 95.9141C161.228 95.9141 171.574 85.5532 171.574 72.7723C171.574 59.9914 161.228 49.6305 148.465 49.6305C135.703 49.6305 125.357 59.9914 125.357 72.7723C125.357 85.5532 135.703 95.9141 148.465 95.9141Z" fill="#007281"/>
<path d="M138.95 73.5884C138.95 72.2801 140.011 71.2195 141.319 71.2195H147.834V73.5884H138.95Z" fill="#B3E0E6"/>
<path d="M145.465 73.5884L145.465 66.4816L147.834 66.4816L147.834 73.5884L145.465 73.5884Z" fill="#B3E0E6"/>
<path d="M158.427 71.8116C158.427 73.1199 157.366 74.1805 156.058 74.1805L149.543 74.1805L149.543 71.8116L158.427 71.8116Z" fill="#B3E0E6"/>
<path d="M138.95 76.5497H147.834V78.9186H141.319C140.011 78.9186 138.95 77.858 138.95 76.5497Z" fill="#B3E0E6"/>
<path d="M158.427 68.8506L149.543 68.8506L149.543 66.4817L156.058 66.4817C157.366 66.4817 158.427 67.5423 158.427 68.8506Z" fill="#B3E0E6"/>
<path d="M151.912 71.8116L151.912 78.9184L149.543 78.9184L149.543 71.8116L151.912 71.8116Z" fill="#B3E0E6"/>
<rect x="138.95" y="77.734" width="5.33007" height="2.36892" rx="1.18446" transform="rotate(-90 138.95 77.734)" fill="#B3E0E6"/>
<rect x="158.427" y="67.666" width="5.33007" height="2.36892" rx="1.18446" transform="rotate(90 158.427 67.666)" fill="#B3E0E6"/>
<defs>
<linearGradient id="paint0_linear_254_4979" x1="191.031" y1="214.024" x2="191.031" y2="39.9943" gradientUnits="userSpaceOnUse">
<stop stop-color="#808080" stop-opacity="0.25"/>
<stop offset="0.54" stop-color="#808080" stop-opacity="0.12"/>
<stop offset="1" stop-color="#808080" stop-opacity="0.1"/>
</linearGradient>
<linearGradient id="paint1_linear_254_4979" x1="155.911" y1="247.139" x2="155.911" y2="247.131" gradientUnits="userSpaceOnUse">
<stop stop-color="#808080" stop-opacity="0.25"/>
<stop offset="0.54" stop-color="#808080" stop-opacity="0.12"/>
<stop offset="1" stop-color="#808080" stop-opacity="0.1"/>
</linearGradient>
<linearGradient id="paint2_linear_254_4979" x1="862.253" y1="570.221" x2="862.253" y2="569.451" gradientUnits="userSpaceOnUse">
<stop stop-color="#808080" stop-opacity="0.25"/>
<stop offset="0.54" stop-color="#808080" stop-opacity="0.12"/>
<stop offset="1" stop-color="#808080" stop-opacity="0.1"/>
</linearGradient>
<linearGradient id="paint3_linear_254_4979" x1="41227.6" y1="129685" x2="41227.6" y2="34981.1" gradientUnits="userSpaceOnUse">
<stop stop-color="#808080" stop-opacity="0.25"/>
<stop offset="0.54" stop-color="#808080" stop-opacity="0.12"/>
<stop offset="1" stop-color="#808080" stop-opacity="0.1"/>
</linearGradient>
</defs>
</svg>
