<svg width="80" height="80" viewBox="0 0 80 80" fill="none" xmlns="http://www.w3.org/2000/svg">
<path d="M65.8064 67.0968C73.6323 67.0968 80 60.729 80 52.9032C80 45.0774 73.6323 38.7097 65.8064 38.7097C65.3755 38.7097 64.9445 38.7368 64.5161 38.7755V34.8387C64.5161 32.7045 62.7794 30.9677 60.6452 30.9677H54.9677L49.0916 22.889L50.0839 18.0645H54.1935V14.1935C54.1935 12.0594 52.4568 10.3226 50.3226 10.3226H42.5806C40.4464 10.3226 38.7097 12.0594 38.7097 14.1935V18.0645H42.2645L41.6942 20.6452H23.5819L23.9897 18.0645H25.8064C27.9406 18.0645 29.6774 16.3277 29.6774 14.1935C29.6774 12.0594 27.9406 10.3226 25.8064 10.3226H25.2116L25.791 6.6529L25.8064 0H16.7742C11.7935 0 7.74194 4.05161 7.74194 9.03226C7.74194 13.791 11.4426 17.6916 16.1161 18.031L12.6555 38.7961C5.43484 39.5742 0 45.6219 0 52.9032C0 60.729 6.36774 67.0968 14.1935 67.0968C15.5187 67.0968 16.8116 66.9019 18.0645 66.5458V77.4193H5.16129V80H74.8387V77.4193H64.5161V67.0323C64.9445 67.071 65.3755 67.0968 65.8064 67.0968ZM64.5161 48.4839L66.8555 51.7019C67.0142 51.9187 67.0968 52.1742 67.0968 52.4413V52.9394C67.0968 53.6297 66.5329 54.1935 65.8413 54.1935C65.4323 54.1935 65.0477 53.9935 64.8129 53.6581L64.5161 53.2335V48.4839ZM64.5161 56.5084C64.9381 56.6658 65.3794 56.7742 65.8413 56.7742C67.9574 56.7742 69.6774 55.0542 69.6774 52.9381V52.44C69.6774 51.6245 69.4232 50.8452 68.9432 50.1832L66.2619 46.4968C69.6039 46.7368 72.2581 49.5019 72.2581 52.9032C72.2581 56.4606 69.3639 59.3548 65.8064 59.3548C65.369 59.3548 64.9394 59.2981 64.5161 59.2116V56.5084ZM64.5161 61.8271C64.9419 61.8877 65.3716 61.9355 65.8064 61.9355C70.7871 61.9355 74.8387 57.8839 74.8387 52.9032C74.8387 47.9226 70.7871 43.871 65.8064 43.871C65.3755 43.871 64.9432 43.92 64.5161 43.9819V41.3664C64.9432 41.3187 65.3742 41.2903 65.8064 41.2903C72.209 41.2903 77.4193 46.5006 77.4193 52.9032C77.4193 59.3058 72.209 64.5161 65.8064 64.5161C65.3742 64.5161 64.9432 64.4865 64.5161 64.44V61.8271ZM51.7768 30.9677H47.4297L48.3884 26.3084L51.7768 30.9677ZM41.2903 15.4839V14.1935C41.2903 13.4826 41.8697 12.9032 42.5806 12.9032H50.3226C51.0335 12.9032 51.6129 13.4826 51.6129 14.1935V15.4839H41.2903ZM44.9071 18.0645H47.449L44.7948 30.9677H42.0529L44.9071 18.0645ZM41.1226 23.2258L40.5523 25.8064H22.7664L23.1742 23.2258H41.1226ZM39.9806 28.3871L39.4103 30.9677H21.9523L22.3587 28.3871H39.9806ZM10.3226 9.03226C10.3226 5.47484 13.2168 2.58065 16.7742 2.58065H23.2258V5.16129H16.7742C14.64 5.16129 12.9032 6.89806 12.9032 9.03226C12.9032 11.1665 14.64 12.9032 16.7742 12.9032H25.8064C26.5174 12.9032 27.0968 13.4826 27.0968 14.1935C27.0968 14.9045 26.5174 15.4839 25.8064 15.4839H16.7742C13.2168 15.4839 10.3226 12.5897 10.3226 9.03226ZM23.0052 7.74194L22.5974 10.3226H20.0168L20.4477 7.74194H23.0052ZM17.8323 7.74194L17.4026 10.3226H16.7742C16.0632 10.3226 15.4839 9.74323 15.4839 9.03226C15.4839 8.32129 16.0632 7.74194 16.7742 7.74194H17.8323ZM18.0645 63.8426C16.8258 64.2813 15.529 64.5161 14.1935 64.5161C7.79097 64.5161 2.58065 59.3058 2.58065 52.9032C2.58065 47.1923 6.66839 42.4168 12.2103 41.4697L11.7497 44.2361C7.91097 45.3226 5.16129 48.8761 5.16129 52.9032C5.16129 57.8839 9.2129 61.9355 14.1935 61.9355C15.5471 61.9355 16.8645 61.6297 18.0645 61.0606V63.8426ZM18.0645 58.031C16.9497 58.8735 15.6039 59.3548 14.1935 59.3548C10.6361 59.3548 7.74194 56.4606 7.74194 52.9032C7.74194 50.4645 9.15871 48.2735 11.2568 47.1858L10.3716 52.4994C10.3394 52.6981 10.3226 52.8994 10.3226 53.1006C10.3226 55.1264 11.9703 56.7742 13.9961 56.7742H14.7381C16.2116 56.7742 17.48 55.911 18.0645 54.6297V58.031ZM18.0645 34.8387V39.8181L17.9445 39.7987L15.8181 53.271C15.7329 53.8052 15.2787 54.1935 14.7381 54.1935H13.9961C13.3935 54.1935 12.9032 53.7032 12.9032 53.1006C12.9032 53.04 12.9084 52.9794 12.9174 52.9213L18.7277 18.0645H21.3768L19.1677 32.0568L19.2413 32.0684C18.5174 32.7729 18.0645 33.7523 18.0645 34.8387ZM56.7742 77.4193H25.8064V42.5626L33.8813 48.1523C32.1084 49.5716 30.9677 51.751 30.9677 54.1935C30.9677 58.0219 33.7639 61.2013 37.4194 61.8194V67.0968H34.8387V65.8064H32.2581V69.6774H42.5806V70.9677H45.1613V67.0968H40V61.8194C42.791 61.3484 45.0735 59.3832 46 56.7742H52.1574C52.9394 59.5368 54.5471 61.9923 56.7742 63.8335V77.4193ZM38.7097 49.0323C41.5561 49.0323 43.871 51.3471 43.871 54.1935C43.871 56.591 42.2194 58.5948 40 59.1716V55.4839H37.4194V59.1716C35.2 58.5948 33.5484 56.591 33.5484 54.1935C33.5484 51.3471 35.8632 49.0323 38.7097 49.0323ZM38.6284 46.4555L40.3419 38.7097H43.2039L41.5019 46.9806C40.6348 46.6439 39.6955 46.4516 38.7097 46.4516C38.6826 46.4516 38.6555 46.4555 38.6284 46.4555ZM43.8426 48.4129L45.8374 38.7097H51.2L54.8542 43.9303C53.6181 45.4361 52.7135 47.1652 52.1845 49.0323H44.4645C44.2684 48.8142 44.0619 48.6077 43.8426 48.4129ZM37.2194 40.8723L34.0955 38.7097H37.6981L37.2194 40.8723ZM36.6181 43.5948L35.9832 46.4671L25.8064 39.4232V38.7097H29.5613L36.6181 43.5948ZM56.7742 60.191C55.9484 59.169 55.3058 58.0155 54.8658 56.7742H56.7742V60.191ZM56.7742 54.1935H46.4516C46.4516 53.2877 46.2865 52.4219 46 51.6129H56.7742V54.1935ZM56.7742 49.0323H54.8555C55.2219 47.9935 55.7368 47.0129 56.3845 46.1161L56.7742 46.6735V49.0323ZM56.7742 42.1742L54.3497 38.7097H56.7742V42.1742ZM61.9355 77.4193H59.3548V36.129H23.2258V77.4193H20.6452V34.8387C20.6452 34.1277 21.2245 33.5484 21.9355 33.5484H60.6452C61.3561 33.5484 61.9355 34.1277 61.9355 34.8387V77.4193Z" fill="black"/>
</svg>
