<svg width="100" height="100" viewBox="0 0 100 100" fill="none" xmlns="http://www.w3.org/2000/svg">
<path d="M100 59.5823C100 57.7887 99.5387 56.0113 98.6677 54.4436L91.271 41.129H88.7097V25H75.8064V25.1774C73.7548 23.0806 70.9 21.7742 67.7419 21.7742V18.5484H32.2581V25H11.2903V41.129H8.72903L1.33226 54.4436C0.46129 56.0113 0 57.7871 0 59.5806C0 65.1097 4.26452 69.6548 9.67742 70.1145V95.9677H6.45161V99.1936H16.129H35.4839H93.5484V95.9677H90.3226V70.1161C95.7355 69.6565 100 65.1113 100 59.5823ZM89.3726 44.3548L94.75 54.0323H79.2645L76.3613 44.3548H89.3726ZM76.8645 57.2581L77.4016 59.0468C77.3064 63.4097 73.7419 66.9355 69.3548 66.9355C64.9081 66.9355 61.2903 63.3177 61.2823 58.7097L61.1371 57.2581H76.8645ZM60.8145 54.0323L60.1694 47.5806C61.4758 46.6629 62.6597 45.5823 63.6758 44.3548H67.7419H72.9936L75.8968 54.0323H60.8145ZM79.0323 33.0645C79.0323 31.3306 78.629 29.6952 77.9274 28.2258H85.4839V41.129H75.629C77.7258 39.0774 79.0323 36.2226 79.0323 33.0645ZM67.7419 33.0645V25C72.1887 25 75.8064 28.6177 75.8064 33.0645C75.8064 37.5113 72.1887 41.129 67.7419 41.129H65.7839C67.0258 38.7065 67.7419 35.9694 67.7419 33.0645ZM35.4839 21.7742H64.5161V33.0645C64.5161 41.0677 58.0032 47.5806 50 47.5806C41.9968 47.5806 35.4839 41.0677 35.4839 33.0645V21.7742ZM57.9016 57.2581L58.0645 58.871C58.0645 63.3177 54.4468 66.9355 50 66.9355C45.5532 66.9355 41.9355 63.3177 41.9274 59.0323L42.1048 57.2581H57.9016ZM42.4274 54.0323L42.9 49.3129C45.0758 50.2677 47.4758 50.8065 50 50.8065C52.5258 50.8065 54.9242 50.2677 57.1016 49.3129L57.5774 54.0323H42.4274ZM24.1032 54.0323L27.0065 44.3548H36.3242C37.3403 45.5823 38.5242 46.6629 39.8306 47.5806L39.1903 54.0323H24.1032ZM38.8694 57.2581L38.7097 58.871C38.7097 63.3177 35.0919 66.9355 30.6452 66.9355C26.2597 66.9355 22.6952 63.4113 22.5984 59.0484L23.1355 57.2581H38.8694ZM14.5161 28.2258H32.2581V33.0645C32.2581 35.9694 32.9742 38.7065 34.2161 41.129H14.5161V28.2258ZM10.6258 44.3548H23.6387L20.7355 54.0323H5.25L10.6258 44.3548ZM10.5806 66.9355C6.52419 66.9355 3.22581 63.6371 3.22581 59.5806C3.22581 58.7887 3.36935 58.0048 3.61774 57.2581H19.7677L19.4371 58.3613L18.2548 61.9081C17.2532 64.9145 14.4484 66.9355 11.279 66.9355H10.5806ZM32.2581 95.9677H19.3548V76.6129H32.2581V95.9677ZM87.0968 95.9677H35.4839V73.3871H16.129V95.9677H12.9032V70.0323C16.2935 69.5081 19.2129 67.3629 20.7403 64.2839C22.6613 67.7823 26.3806 70.1613 30.6452 70.1613C34.7548 70.1613 38.3468 67.9468 40.3226 64.6565C42.2984 67.9468 45.8903 70.1613 50 70.1613C54.1097 70.1613 57.7016 67.9468 59.6774 64.6565C61.6532 67.9468 65.2452 70.1613 69.3548 70.1613C73.6194 70.1613 77.3387 67.7823 79.2597 64.2839C80.7871 67.3645 83.7065 69.5081 87.0968 70.0323V95.9677ZM89.4193 66.9355H88.7194C85.55 66.9355 82.7452 64.9145 81.7435 61.9065L80.5758 58.4081L80.2323 57.2581H96.3823C96.6306 58.0065 96.7742 58.7887 96.7742 59.5806C96.7742 63.6371 93.4758 66.9355 89.4193 66.9355Z" fill="black"/>
<path d="M43.6369 5.91613C42.5708 5.20645 41.9353 4.01774 41.9353 2.7371V0.806452H38.7095V2.7371C38.7095 5.1 39.8821 7.29032 41.8466 8.6C42.9127 9.30968 43.5482 10.4984 43.5482 11.779V15.3226H46.774V11.779C46.774 9.41774 45.6014 7.22581 43.6369 5.91613Z" fill="black"/>
<path d="M53.3146 5.91613C52.2485 5.20645 51.613 4.01774 51.613 2.7371V0.806452H48.3872V2.7371C48.3872 5.1 49.5598 7.29032 51.5243 8.6C52.5904 9.30968 53.2259 10.4984 53.2259 11.779V15.3226H56.4517V11.779C56.4517 9.41774 55.2791 7.22581 53.3146 5.91613Z" fill="black"/>
<path d="M51.6128 73.3871V89.5161H83.8709V73.3871H51.6128ZM61.2902 86.2903H54.8386V83.0645H61.2902V86.2903ZM61.2902 79.8387H54.8386V76.6129H61.2902V79.8387ZM70.9676 86.2903H64.516V83.0645H70.9676V86.2903ZM70.9676 79.8387H64.516V76.6129H70.9676V79.8387ZM80.6451 86.2903H74.1934V83.0645H80.6451V86.2903ZM80.6451 79.8387H74.1934V76.6129H80.6451V79.8387Z" fill="black"/>
<path d="M100 95.9677H96.7744V99.1936H100V95.9677Z" fill="black"/>
<path d="M3.22581 95.9677H0V99.1936H3.22581V95.9677Z" fill="black"/>
</svg>
