<svg width="80" height="80" viewBox="0 0 80 80" fill="none" xmlns="http://www.w3.org/2000/svg">
<path d="M80 52.8756C80 42.2262 71.336 33.5622 60.6866 33.5622H52.9612C49.2827 33.5622 45.8539 34.6141 42.9247 36.4064L44.0989 25.8368H38.7981V5.23587H31.0727V10.3861H28.4976V0.0856247H20.7722V6.52343H18.1971V3.94831H13.0469V0.0856247H5.32149V25.8368H0L5.47213 69.6139H33.6478V73.4766C33.6478 77.0264 36.5358 79.9144 40.0856 79.9144H73.5622C77.112 79.9144 80 77.0264 80 73.4766V69.6139H79.2841C79.727 68.8529 80 67.9813 80 67.0388C80 65.4937 79.3021 64.1211 78.2206 63.1761C79.3021 62.231 80 60.8585 80 59.3134C80 58.3709 79.727 57.4992 79.2841 56.7383H80V52.8756ZM33.6478 10.3861V7.81099H36.2229V25.8368H33.6478V10.3861ZM28.4976 12.9612H31.0727V25.8368H28.4976V12.9612ZM23.3473 27.1244V6.52343V2.66075H25.9225V25.8368V27.1244C25.9225 28.8008 24.8422 30.2171 23.3473 30.7502V27.1244ZM18.1971 25.8368V9.09855H20.7722V27.1244V30.7502C19.2774 30.2171 18.1971 28.8008 18.1971 27.1244V25.8368ZM13.0469 6.52343H15.622V25.8368H13.0469V6.52343ZM7.89661 2.66075H10.4717V25.8368H7.89661V2.66075ZM2.91761 28.412H15.752C16.3507 31.3463 18.9503 33.5622 22.0598 33.5622C25.1692 33.5622 27.7701 31.3463 28.3675 28.412H41.2213L40.0985 38.5077C39.1457 39.3627 38.2792 40.309 37.5105 41.3365V41.2876H31.6843C29.5431 38.0931 25.9212 36.1373 22.0598 36.1373C18.1984 36.1373 14.5765 38.0931 12.4353 41.2876H4.52706L2.91761 28.412ZM38.7981 61.8885C37.3779 61.8885 36.2229 60.7336 36.2229 59.3134C36.2229 57.8932 37.3779 56.7383 38.7981 56.7383H40.0856C40.7964 56.7383 41.3732 57.3164 41.3732 58.0258V61.8885H38.7981ZM41.3732 64.4636V69.6139H40.0856H38.7981C37.3779 69.6139 36.2229 68.4589 36.2229 67.0388C36.2229 65.6186 37.3779 64.4636 38.7981 64.4636H41.3732ZM33.6478 67.0388H7.74596L7.10218 61.8885H34.365C34.6495 62.3752 35.0062 62.8078 35.4285 63.1761C34.3457 64.1211 33.6478 65.4937 33.6478 67.0388ZM33.6478 52.8756V56.7383H34.3637C33.9208 57.4992 33.6478 58.3709 33.6478 59.3134H6.78029L4.84895 43.8627H13.8902L14.2623 43.2202C15.873 40.4403 18.8615 38.7124 22.0598 38.7124C25.2581 38.7124 28.2465 40.4403 29.8572 43.2202L30.2293 43.8627H35.8933C34.4654 46.5563 33.6478 49.6206 33.6478 52.8756ZM77.4249 73.4766C77.4249 75.6062 75.6918 77.3392 73.5622 77.3392H40.0856C37.956 77.3392 36.2229 75.6062 36.2229 73.4766V72.189H38.7981H40.0856H41.6101C42.1431 73.6839 43.5595 74.7641 45.2359 74.7641C46.9123 74.7641 48.3286 73.6839 48.8616 72.189H50.3861H74.8498H77.4249V73.4766ZM62.9578 69.6139H50.3861H49.0985V67.0388H50.3861C51.8462 67.0388 53.1054 66.2147 53.7608 65.016L62.9578 69.6139ZM58.4153 64.4636H69.2012L67.66 69.086L58.4153 64.4636ZM74.8498 69.6139H70.1978L71.9141 64.4636H74.8498C76.2699 64.4636 77.4249 65.6186 77.4249 67.0388C77.4249 68.4589 76.2699 69.6139 74.8498 69.6139ZM74.8498 61.8885H54.2488V58.0258C54.2488 57.3164 54.8256 56.7383 55.5364 56.7383H74.8498C76.2699 56.7383 77.4249 57.8932 77.4249 59.3134C77.4249 60.7336 76.2699 61.8885 74.8498 61.8885ZM77.4249 54.1632H55.5364C53.4067 54.1632 51.6737 55.8962 51.6737 58.0258V63.1761C51.6737 63.8855 51.0968 64.4636 50.3861 64.4636H49.0985V54.1632H46.5234V64.4636V65.7512V70.9014C46.5234 71.6109 45.9466 72.189 45.2359 72.189C44.5251 72.189 43.9483 71.6109 43.9483 70.9014V58.0258C43.9483 55.8962 42.2152 54.1632 40.0856 54.1632H36.2229V52.8756C36.2229 43.6464 43.732 36.1373 52.9612 36.1373H60.6866C69.9158 36.1373 77.4249 43.6464 77.4249 52.8756V54.1632Z" fill="black"/>
<path d="M52.9614 43.8627H50.3862V46.4378H52.9614V43.8627Z" fill="black"/>
<path d="M64.5492 49.0129H61.9741V51.5881H64.5492V49.0129Z" fill="black"/>
<path d="M68.412 41.2876H65.8369V43.8627H68.412V41.2876Z" fill="black"/>
<path d="M43.9482 49.0129H41.373V51.5881H43.9482V49.0129Z" fill="black"/>
<path d="M56.8241 38.7124H54.249V41.2876H56.8241V38.7124Z" fill="black"/>
<path d="M73.5624 49.0129H70.9873V51.5881H73.5624V49.0129Z" fill="black"/>
<path d="M49.0986 40H46.5234V42.5751H49.0986V40Z" fill="black"/>
<path d="M61.974 43.8627H59.3989V46.4378H61.974V43.8627Z" fill="black"/>
<path d="M55.5365 49.0129H52.9614V51.5881H55.5365V49.0129Z" fill="black"/>
</svg>
