<svg width="637" height="470" viewBox="0 0 637 470" fill="none" xmlns="http://www.w3.org/2000/svg">
<g clip-path="url(#clip0_4_207)">
<path d="M586.846 114.25C514.548 14.3163 361.821 -26.2212 211.619 17.4387C132.212 40.5204 55.6492 86.768 17.7063 176.318C-50.1205 336.399 92.2906 387.525 185.412 403.819C230.44 411.698 272.85 424.934 311.603 442.953C381.325 475.372 504.737 504.099 597.798 369.059C665.249 271.181 635.004 180.816 586.846 114.25Z" fill="#F2F2F2"/>
<path d="M167.685 134.022C167.483 132.434 167.074 130.878 166.468 129.395C166.391 129.114 166.256 128.852 166.071 128.627C165.887 128.401 165.657 128.216 165.396 128.083C165.048 127.993 164.683 127.989 164.333 128.071L158.871 128.901C158.414 128.922 157.977 129.091 157.625 129.382C156.914 130.125 157.615 131.322 157.593 132.347C157.568 133.499 156.537 134.435 155.419 134.745C154.278 134.974 153.1 134.959 151.965 134.702L144.329 133.523C146.578 132.81 148.58 131.483 150.106 129.694C151.111 128.512 151.645 126.304 150.193 125.744C149.762 125.626 149.312 125.59 148.867 125.638C145.407 125.665 142.684 122.795 139.445 121.587C137.373 120.863 135.122 120.81 133.017 121.433C130.911 122.057 129.058 123.326 127.722 125.058L131.79 125.253C132.173 125.232 132.552 125.333 132.873 125.54C133.765 126.268 132.657 127.665 132.782 128.805C132.945 130.285 134.924 130.601 136.415 130.751C137.907 130.9 139.799 132.104 139.082 133.412C131.585 135.976 123.957 128.398 116.084 129.331C114.091 129.567 112.21 130.344 110.265 130.833C98.3807 133.82 86.0949 125.851 73.9548 127.539C71.256 127.996 68.6034 128.691 66.0287 129.615C64.3764 130.154 62.653 130.737 61.4525 131.986C60.2519 133.236 59.795 135.373 60.9323 136.68C57.7976 136.937 54.6419 136.639 51.6119 135.8C52.4313 136.253 53.1129 136.916 53.5853 137.72C54.0577 138.524 54.3033 139.44 54.2965 140.371C49.402 141.164 44.637 142.607 40.1299 144.662C40.9711 146.052 41.9536 147.352 43.062 148.542L36.8657 152.496C38.9591 153.02 40.0414 155.856 38.824 157.627C40.9947 156.667 42.3399 154.186 44.6611 153.683C46.1818 153.353 47.7291 153.971 49.1716 154.552C50.6142 155.132 52.1997 155.695 53.6931 155.259C55.1865 154.824 56.288 152.9 55.3391 151.675C61.7221 149.825 68.3189 148.801 74.9658 148.629C75.4786 148.565 75.9987 148.663 76.4523 148.909C77.3175 149.505 77.0899 150.793 77.0433 151.838C76.9967 152.883 77.8166 154.257 78.757 153.786C77.6507 154.739 78.5964 156.533 79.6577 157.535C80.7191 158.537 81.9983 159.919 81.3485 161.223C81.179 161.563 80.8913 161.835 80.7281 162.178C80.2465 163.192 81.0112 164.373 81.9132 165.046C82.8153 165.719 83.9201 166.189 84.5467 167.121C85.1733 168.052 84.8887 169.683 83.7683 169.814L80.5837 165.797C79.4956 166.918 78.7497 168.322 78.4324 169.847C81.8094 172.589 82.3174 178.17 79.4902 181.47C78.0454 183.156 75.9908 184.18 74.1976 185.495C72.4043 186.81 70.745 188.683 70.7495 190.897C70.7573 194.722 70.4427 198.276 71.8857 201.823C74.5467 208.362 77.6189 214.729 81.0841 220.885C81.9941 222.502 83.1702 224.274 85.0136 224.552C82.6839 218.918 80.5867 213.197 78.7219 207.388C79.9365 207.393 81.34 207.489 82.052 208.466C82.6416 209.275 82.5149 210.376 82.6981 211.358C82.9311 212.31 83.3197 213.217 83.8483 214.044L94.9735 233.729C95.8958 235.361 96.9537 237.112 98.7163 237.773C99.8432 238.196 101.147 238.116 102.184 238.724C102.997 239.201 103.545 240.047 104.374 240.497C106.717 241.767 109.976 239.331 112.167 240.847C112.793 241.281 113.191 241.97 113.768 242.466C115.791 244.206 119.109 243.042 121.444 244.34C122.949 245.176 123.729 246.849 124.532 248.366C126.543 252.163 129.796 255.884 134.105 256.187C135.459 256.282 136.841 256.027 138.164 256.326C139.487 256.625 140.79 257.772 140.577 259.103C140.213 261.385 141.349 263.884 141.044 266.175C140.488 270.348 134.53 272.182 134.018 276.36C133.906 277.275 134.081 278.219 133.862 279.115C133.593 280.212 132.763 281.106 132.468 282.197C131.91 284.264 133.401 286.321 135.039 287.712C136.677 289.103 138.631 290.302 139.526 292.249C140.473 294.307 140.008 296.706 140.316 298.948C140.988 303.842 145.243 307.47 149.623 309.809C150.957 310.522 152.39 311.212 153.253 312.449C154.38 314.062 154.268 316.19 154.644 318.118C155.566 322.841 159.569 326.732 159.682 331.541C159.763 334.959 157.85 338.06 156.707 341.285C155.636 344.375 155.249 347.658 155.571 350.911C155.893 354.163 156.918 357.308 158.576 360.132C159.43 361.565 160.453 362.917 161.057 364.471C162.136 367.245 161.786 370.398 162.781 373.202C164.097 376.91 167.711 379.972 167.365 383.888C169.006 387.273 172.629 388.936 176.273 389.944L182.803 391.749C184.053 392.095 185.36 392.443 186.633 392.193C187.906 391.943 189.121 390.893 189.088 389.604C185.886 388.887 182.581 388.124 179.941 386.185C177.302 384.247 175.493 380.796 176.495 377.69C176.959 376.25 177.947 374.588 177.008 373.398C176.47 372.717 175.487 372.539 174.88 371.917C173.934 370.948 174.259 369.319 174.939 368.15C175.619 366.981 176.603 365.937 176.877 364.614C177.016 363.874 176.923 363.11 176.612 362.424C176.301 361.738 175.786 361.163 175.136 360.776C176.347 360.321 177.448 359.62 178.368 358.716C179.218 357.751 179.611 356.265 178.942 355.169C180.928 355.419 183.272 355.541 184.575 354.033C185.616 352.828 185.544 351.027 185.133 349.493C184.722 347.959 184.027 346.468 184.005 344.881C188.586 345.097 193.176 344.942 197.731 344.419C197.072 342.215 195.575 340.353 193.558 339.227C195.621 338.881 197.5 336.427 198.152 334.452C198.804 332.477 198.638 330.326 198.235 328.287C198.08 327.762 198.059 327.207 198.173 326.671C198.405 325.936 199.133 325.487 199.806 325.103L210.046 319.262C210.657 318.958 211.211 318.552 211.683 318.061C212.756 316.809 212.597 314.92 212.048 313.369C211.498 311.818 210.618 310.36 210.407 308.729C209.774 303.853 215.029 300.354 216.802 295.764C217.498 293.963 217.64 292.005 217.775 290.08C217.92 288.013 217.93 285.611 216.332 284.279C214.801 283.002 212.407 283.287 210.804 282.099C209.335 281.01 208.827 278.895 207.222 278.015C205.764 277.216 203.936 277.724 202.314 277.349C199.459 276.687 197.663 273.419 194.747 273.116C193.102 272.945 191.24 273.744 189.891 272.792C188.703 271.954 188.656 270.268 188.429 268.838C188.033 266.615 186.96 264.566 185.356 262.967C183.752 261.369 181.693 260.297 179.456 259.896C177.76 259.626 175.913 259.728 174.47 258.802C173.009 257.865 172.339 256.109 171.191 254.811C169.342 252.718 166.428 251.975 163.699 251.337L152.597 248.745C150.627 248.285 148.086 248.041 147.029 249.755C146.716 250.408 146.494 251.101 146.37 251.813C145.974 253.102 145.176 254.233 144.092 255.044C143.008 255.854 141.693 256.303 140.337 256.324C139.406 254.748 137.899 253.589 136.129 253.09C135.004 252.779 133.799 252.744 132.725 252.286C132.14 252.002 131.62 251.603 131.196 251.113C130.772 250.623 130.453 250.052 130.259 249.435C130.065 248.818 129.999 248.169 130.066 247.526C130.134 246.883 130.332 246.261 130.65 245.697C131.29 244.565 131.537 243.255 131.354 241.97C131.17 240.684 130.565 239.495 129.633 238.585C127.745 236.901 125.014 236.494 122.483 236.663C121.82 235.226 122.928 233.604 124.123 232.56C125.317 231.516 126.768 230.489 127.028 228.93C127.437 226.477 124.286 224.614 121.894 225.345C119.502 226.076 117.975 228.385 116.965 230.66C116.386 231.965 115.894 233.34 114.98 234.441C114.067 235.542 112.595 236.33 111.204 235.977C109.234 235.477 108.473 233.152 108.037 231.179C107.452 228.532 106.864 225.849 106.986 223.142C107.109 220.435 108.028 217.655 110.037 215.822C113.312 212.836 118.336 213.129 122.755 213.605C121.711 212.437 121.969 210.467 123.086 209.367C123.676 208.847 124.385 208.477 125.151 208.29C125.917 208.103 126.717 208.105 127.483 208.295C128.815 208.57 130.014 209.282 130.889 210.317C132.145 211.838 132.502 213.892 133.451 215.618C134.4 217.345 136.535 218.817 138.282 217.891C139.791 217.091 140.031 215.012 139.655 213.355C139.279 211.697 138.482 210.085 138.618 208.392C138.877 205.16 142.25 203.215 145.226 201.884C148.202 200.553 151.61 198.763 152.082 195.554C152.098 194.926 152.217 194.305 152.435 193.715C152.765 193.194 153.224 192.766 153.767 192.47C162.453 186.768 171.284 180.997 181.212 177.881C181.728 177.719 181.789 177.899 182.315 177.772C183.052 177.349 182.564 176.179 181.857 175.708C181.151 175.237 180.207 174.875 180.028 174.049C179.896 173.442 180.256 172.845 180.35 172.231C180.58 170.722 178.762 169.328 177.35 169.931C176.553 168.882 178.131 167.663 179.406 167.314C183.238 166.267 187.171 165.629 191.139 165.411C191.596 165.338 192.065 165.418 192.474 165.636C193.14 166.095 193.055 167.147 192.583 167.801C192.11 168.456 191.376 168.866 190.787 169.42C190.144 170.042 189.685 170.828 189.461 171.692C189.237 172.555 189.256 173.463 189.516 174.317C191.587 175.363 193.839 176.441 196.133 176.072C198.427 175.703 200.463 173.143 199.385 171.098C198.381 169.194 195.365 168.764 194.846 166.677C194.239 164.234 197.721 162.06 196.937 159.667C196.593 158.619 195.541 158.002 194.734 157.245C193.781 156.317 193.133 155.125 192.874 153.824C192.616 152.523 192.759 151.176 193.286 149.957C191.972 150.187 190.621 150.1 189.347 149.704C188.073 149.308 186.913 148.615 185.965 147.682C184.214 145.926 182.817 143.157 180.33 143.236C178.049 143.308 176.083 145.952 173.95 145.145C173.425 144.947 172.871 144.543 172.363 144.78C172.196 144.887 172.056 145.031 171.953 145.2C171.851 145.369 171.788 145.559 171.771 145.756C171.228 148.331 172.161 151.265 170.748 153.49C169.211 155.911 165.654 156.247 163.79 158.431C162.779 159.616 162.387 161.213 161.457 162.463C160.527 163.712 158.553 164.507 157.437 163.418C157.985 162.298 158.135 161.026 157.861 159.81C157.588 158.594 156.908 157.507 155.931 156.725C154.895 156.054 153.778 155.514 152.607 155.119C151.297 154.568 150.052 153.879 148.892 153.062C148.311 152.714 147.839 152.213 147.529 151.613C147.283 150.863 147.316 150.05 147.622 149.321C148.188 147.71 149.186 146.282 150.509 145.193C151.832 144.103 153.43 143.394 155.129 143.14C156.615 142.94 158.345 143.01 159.328 141.886C159.849 141.291 160.122 140.391 160.877 140.149C161.36 140.053 161.862 140.114 162.307 140.324L167.854 142.263C168.473 142.541 169.154 142.653 169.83 142.588C170.165 142.543 170.47 142.374 170.685 142.115C170.9 141.855 171.008 141.525 170.988 141.19C170.811 140.275 169.393 139.835 169.522 138.913C169.595 138.614 169.756 138.343 169.987 138.137C171.988 136.021 174.436 134.371 177.155 133.304C179.874 132.237 182.797 131.781 185.715 131.968C186.415 133.11 185.307 134.463 184.386 135.438C183.465 136.413 182.725 138.155 183.839 138.905C184.295 139.137 184.803 139.25 185.316 139.236C186.681 139.419 188.008 139.819 189.247 140.42C191.163 141.248 193.043 142.155 194.886 143.14C194.723 141.932 194.568 140.661 195.029 139.532C195.489 138.403 196.798 137.518 197.942 137.958C199.044 138.381 199.609 139.831 200.783 139.963C202.349 140.141 202.967 137.842 202.313 136.418C201.659 134.993 200.364 133.801 200.256 132.238C200.183 131.185 200.586 129.878 199.739 129.24C199.437 129.048 199.095 128.929 198.739 128.891L177.58 125.024C176.323 124.794 174.508 124.97 174.452 126.238C174.421 126.946 175.057 127.646 174.775 128.296C174.475 128.991 173.486 128.927 172.766 129.173C171.65 129.554 171.089 130.871 171.196 132.04C171.393 133.201 171.845 134.304 172.522 135.27C171.145 134.699 169.061 134.594 167.685 134.022Z" fill="#3F3D56"/>
<path d="M150.802 116.18C149.468 115.741 148.03 115.721 146.683 116.121C145.337 116.522 144.147 117.324 143.275 118.419C142.927 118.875 142.634 119.503 142.926 119.996C143.344 120.704 144.41 120.424 145.195 120.171C146.35 119.761 147.607 119.732 148.78 120.086C149.517 120.338 150.177 120.782 150.918 121.024C151.279 121.174 151.673 121.224 152.06 121.168C152.447 121.111 152.811 120.952 153.114 120.706C153.622 120.191 153.654 119.39 153.655 118.668C153.69 118.427 153.671 118.181 153.598 117.948C153.525 117.715 153.401 117.501 153.235 117.322C152.938 117.151 152.605 117.053 152.263 117.036C151.496 116.895 150.803 116.493 150.303 115.899" fill="#3F3D56"/>
<path d="M158.432 114.07C158.133 114.054 157.835 114.114 157.567 114.245C157.299 114.377 157.069 114.574 156.9 114.819C156.73 115.064 156.627 115.348 156.601 115.644C156.574 115.94 156.624 116.237 156.747 116.508C157.664 116.757 158.622 116.819 159.564 116.691C160.033 116.618 160.471 116.409 160.821 116.09C161.172 115.771 161.419 115.356 161.533 114.898C160.424 115.098 159.28 114.881 158.323 114.289" fill="#3F3D56"/>
<path d="M184.03 110.546C181.534 111.073 179.11 111.891 176.807 112.983C177.892 113.398 178.815 114.148 179.439 115.122C180.063 116.097 180.356 117.245 180.273 118.398C180.176 118.84 180.187 119.299 180.306 119.736C180.571 120.375 181.34 120.615 182.016 120.779C183.23 121.146 184.498 121.307 185.766 121.254C186.4 121.221 187.016 121.032 187.558 120.703C188.1 120.374 188.551 119.916 188.87 119.37C189.054 118.852 189.269 118.346 189.516 117.854C191.136 115.404 195.948 118.367 197.687 115.998C198.3 115.164 198.244 113.908 199.043 113.247C199.456 112.959 199.935 112.777 200.436 112.719C203.934 112.028 207.467 111.529 211.019 111.222C212.702 111.076 214.896 110.476 214.91 108.797C208.57 107.56 201.996 108.439 196.21 111.296C194.126 112.333 191.369 114.515 189.361 113.14C188.609 112.625 188.646 111.239 187.611 110.66C186.553 110.068 185.153 110.309 184.03 110.546Z" fill="#3F3D56"/>
<path d="M204.765 114.397L207.741 114.965C207.193 114.941 206.646 115.034 206.137 115.236C205.628 115.438 205.168 115.746 204.788 116.139C204.409 116.532 204.118 117.001 203.935 117.515C203.752 118.028 203.681 118.574 203.727 119.117C206.515 120.042 209.553 119.142 212.489 119.265C215.425 119.388 218.841 121.471 218.34 124.347C218.188 125.217 217.682 126.086 217.945 126.929C218.13 127.52 218.654 127.939 218.951 128.483C219.568 129.617 219.074 131.052 218.295 132.082C217.516 133.113 216.469 133.936 215.785 135.031C214.084 137.756 215.05 141.278 216.064 144.322C216.357 145.472 216.898 146.546 217.649 147.468C219.15 149.053 221.597 149.191 223.788 149.223C225.382 149.246 227.209 149.168 228.218 147.94C229.534 146.338 228.613 143.838 229.48 141.958C230.267 140.25 232.273 139.517 234.09 138.998C237.419 138.046 240.812 137.236 243.959 135.798C247.867 134.013 251.52 131.23 255.815 131C257.02 130.936 258.255 131.077 259.416 130.749C260.577 130.421 261.68 129.424 261.592 128.229C261.517 127.207 260.646 126.457 259.967 125.687C259.287 124.917 258.753 123.733 259.378 122.918L270.637 120.829C269.839 118.669 269.217 115.823 271.051 114.417C271.712 113.909 272.598 113.707 273.162 113.093C274.122 112.048 273.639 110.247 272.531 109.358C271.422 108.469 269.924 108.262 268.504 108.145C263.567 107.738 258.602 108.007 253.655 108.276C243.986 108.803 234.317 109.329 224.648 109.856C222.702 109.962 220.454 109.8 218.669 110.459C217.158 111.018 216.083 112.043 214.355 112.403C211.164 113.068 207.652 112.618 204.765 114.397Z" fill="#3F3D56"/>
<path d="M258.083 137.765C257.78 137.718 257.47 137.787 257.217 137.96C257.049 138.143 256.95 138.377 256.935 138.624C256.742 139.712 256.971 140.833 257.575 141.76C257.883 142.216 258.308 142.581 258.806 142.818C259.303 143.055 259.856 143.155 260.406 143.108C261.746 142.939 262.734 141.803 263.966 141.249C265.864 140.395 273.929 139.065 268.35 136.071C266.428 135.04 265.186 135.951 263.67 136.63C261.946 137.506 260.015 137.898 258.083 137.765Z" fill="#3F3D56"/>
<path d="M306.943 112.707C306.292 112.972 305.747 113.443 305.393 114.047C305.231 114.354 305.193 114.712 305.288 115.045C305.383 115.379 305.603 115.664 305.904 115.841C306.147 115.928 306.405 115.969 306.664 115.961L309.312 116.039C310.437 116.073 311.843 116.311 312.145 117.388C312.37 118.187 311.867 119.215 312.474 119.787C312.734 119.987 313.047 120.108 313.374 120.136C314.247 120.358 315.158 120.387 316.043 120.221C317.97 119.708 316.958 118.539 317.565 117.499C318.493 115.907 318.332 116.871 319.969 115.959C321.177 115.285 322.739 114.063 321.73 112.346C319.976 109.36 309.531 111.425 306.943 112.707Z" fill="#3F3D56"/>
<path d="M359.219 111.206L357.681 111.41C354.213 111.87 350.725 112.334 347.385 113.368C348.831 113.936 350.348 114.306 351.894 114.467C352.745 114.509 353.591 114.628 354.42 114.824C355.895 115.26 357.382 116.387 358.807 115.81C359.691 115.452 359.979 114.538 360.711 114.053C361.217 113.719 363.134 113.177 363.348 112.84C365.081 110.11 360.551 111.03 359.219 111.206Z" fill="#3F3D56"/>
<path d="M365.972 118.149C363.918 119.29 362.012 120.677 360.297 122.278C359.574 122.953 358.836 123.792 358.902 124.775C358.989 126.081 360.39 126.839 361.603 127.349L366.52 129.417C367.116 128.582 366.57 127.429 365.954 126.609C365.338 125.788 364.605 124.839 364.877 123.851C365.188 122.724 366.571 122.34 367.731 122.146C369.621 121.83 374.719 121.855 374.107 118.83C373.385 115.265 367.869 117.096 365.972 118.149Z" fill="#3F3D56"/>
<path d="M364.983 319.882C364.515 321.228 364.471 322.813 365.281 323.988C366.189 325.307 368.007 325.799 369.58 325.464C371.147 325.05 372.543 324.159 373.572 322.915C374.514 321.873 375.288 320.693 375.868 319.417C376.678 317.429 377.249 315.353 377.57 313.232L379.097 305.27C379.438 303.491 379.425 298.036 376.132 299.813C375.233 300.299 373.151 304.132 372.208 305.219C370.509 307.179 370.285 309.08 369.39 311.453C368.27 314.426 366.019 316.904 364.983 319.882Z" fill="#3F3D56"/>
<path d="M538.867 360.622C537.79 360.204 536.745 359.71 535.739 359.143C534.731 361.896 534.195 364.798 534.153 367.728L541.525 363.585C542.634 362.961 543.89 362.095 543.867 360.83C543.877 360.674 543.844 360.518 543.772 360.378C543.701 360.239 543.592 360.121 543.459 360.037C543.295 359.972 543.117 359.951 542.942 359.977C541.849 360.068 540.853 360.602 539.821 360.973C538.79 361.345 537.585 361.541 536.639 360.99" fill="#3F3D56"/>
<path d="M577.753 363.082C576.944 363.3 576.154 363.582 575.39 363.924C573.698 364.779 572.547 366.403 571.025 367.529C569.568 368.607 567.815 369.198 566.093 369.774C565.587 370.218 565.819 371.114 566.369 371.504C566.96 371.838 567.638 371.99 568.316 371.939C570.104 371.978 571.989 371.995 573.555 371.137C574.438 370.569 575.264 369.917 576.022 369.193C577.853 367.675 580.053 366.673 582.23 365.705C583.022 365.408 583.755 364.973 584.394 364.42C585.762 363.081 585.858 361.016 583.885 360.56C582.291 360.192 579.271 362.594 577.753 363.082Z" fill="#3F3D56"/>
<path d="M594.935 351.934C595.024 351.012 594.9 350.083 594.574 349.216C594.248 348.349 593.728 347.567 593.054 346.929C593.033 348.772 592.977 350.736 591.933 352.26C591.19 353.346 590.024 354.08 589.209 355.114C588.394 356.149 588.033 357.788 588.988 358.696C589.599 359.158 590.343 359.412 591.111 359.422C593.013 359.645 595.215 359.769 596.549 358.404C597.277 357.658 597.632 356.555 598.52 356.007C598.851 355.869 599.146 355.659 599.384 355.392C599.751 354.813 599.168 354.05 598.512 353.842C597.857 353.633 597.134 353.731 596.475 353.533C595.815 353.335 595.21 352.598 595.549 352.002" fill="#3F3D56"/>
<path d="M564.398 284.351C563.4 284.592 562.367 284.653 561.347 284.53C559.653 284.221 558.335 282.953 556.968 281.913C553.718 279.455 549.767 278.084 545.682 277.996C541.967 277.927 538.217 278.927 534.568 278.229C534.807 279.546 535.941 280.534 537.152 281.121C538.363 281.708 539.699 282.004 540.915 282.579C542.863 283.51 544.409 285.106 545.268 287.077C545.659 287.985 545.906 288.974 546.499 289.767C547.712 291.388 550.012 291.744 552.041 291.612C554.686 291.439 557.45 290.683 559.911 291.662C561.794 292.411 563.141 294.048 564.714 295.321C566.286 296.594 568.5 297.539 570.305 296.62C568.43 296.017 566.798 294.835 565.647 293.245C564.497 291.656 563.888 289.742 563.909 287.785C565.68 287.946 570.779 287.884 570.505 284.895C570.272 282.363 565.918 284.078 564.398 284.351Z" fill="#3F3D56"/>
<path d="M541.236 304.957C541.55 303.244 543.27 301.732 542.734 300.074C542.364 298.928 541.026 298.362 539.814 298.334C538.602 298.305 537.412 298.664 536.2 298.698C535.412 298.656 534.621 298.667 533.834 298.731C531.429 299.124 529.946 301.628 527.68 302.518C526.302 303.059 524.753 302.956 523.32 303.33C520.066 304.18 518.007 307.234 515.733 309.696C512.058 313.657 507.27 316.43 501.99 317.657C500.14 318.083 498.152 318.355 496.681 319.548C494.734 321.129 494.255 323.838 493.821 326.299C492.624 333.094 490.795 339.764 488.357 346.223L496.083 347.203C497.552 347.39 499.074 347.572 500.489 347.14C501.518 346.754 502.492 346.239 503.388 345.606C506.828 343.484 510.679 342.103 514.691 341.553C516.715 341.277 518.836 341.227 520.734 341.974C522.633 342.721 524.262 344.415 524.421 346.437C525.242 346.183 526.117 346.156 526.952 346.358C527.788 346.56 528.553 346.983 529.165 347.583C530.374 348.807 531.167 350.378 531.429 352.074C531.633 353.124 531.836 354.382 532.817 354.822C533.617 355.182 534.535 354.795 535.411 354.725C538.381 354.489 540.846 357.929 543.765 357.337C546.896 356.702 547.665 352.044 550.72 351.111C552.474 350.575 554.935 351.226 555.775 349.605C556.516 348.176 555.038 346.528 555.191 344.928C555.378 342.958 557.718 342.122 559.521 341.281C565.738 338.383 568.689 330.071 565.676 323.941C563.891 320.309 560.378 317.45 559.73 313.459C559.231 310.389 560.449 306.809 558.479 304.393C557.476 303.164 555.779 302.485 555.182 301.018C554.807 300.095 554.958 299.047 554.756 298.072C554.554 297.097 553.697 296.077 552.728 296.329C549.913 297.063 549.015 305.7 547.508 307.798C545.217 310.988 540.515 308.887 541.236 304.957Z" fill="#3F3D56"/>
<path d="M489.212 287.614C488.25 287.346 487.2 287.083 486.278 287.465C485.356 287.848 484.818 289.192 485.558 289.859C491.344 289.635 497.166 289.413 502.904 290.194C509.514 291.093 516.056 293.321 522.696 292.665C518.903 291.554 515.048 290.665 511.15 290.004L504.65 288.771C502.907 288.408 501.145 288.138 499.372 287.961C495.664 287.656 492.858 288.63 489.212 287.614Z" fill="#3F3D56"/>
<path d="M495.005 267.595C494.524 267.556 493.929 267.521 493.681 267.932C493.443 268.324 493.715 268.842 493.588 269.281C493.413 269.882 492.621 270.035 491.998 269.953C491.374 269.871 490.699 269.676 490.146 269.974C489.866 270.165 489.655 270.44 489.546 270.759C489.437 271.078 489.434 271.424 489.54 271.745C489.766 272.381 490.131 272.96 490.61 273.439C491.427 274.462 492.358 275.39 493.386 276.205C495.375 277.663 498.069 278.366 499.322 280.483C499.498 280.893 499.77 281.256 500.114 281.542C500.716 281.921 501.5 281.633 502.147 281.339L504.417 280.309C504.826 280.163 505.191 279.916 505.478 279.592C505.996 278.894 505.678 277.9 505.243 277.147C504.808 276.394 504.25 275.615 504.344 274.752C504.51 273.213 506.502 272.624 507.321 271.308C508.147 269.981 507.61 268.27 507.705 266.713C507.816 264.892 508.968 262.523 507.115 261.162C505.539 260.005 504.033 261.074 502.902 262.351C500.517 265.043 499.389 267.959 495.005 267.595Z" fill="#3F3D56"/>
<path d="M508.781 240.383C509.555 241.856 511.171 242.736 512.015 244.171C512.931 245.726 512.827 247.736 513.821 249.244C514.84 250.791 516.891 251.612 517.463 253.372C518.087 255.292 516.671 257.627 517.8 259.306C518.01 259.58 518.276 259.808 518.58 259.975C518.883 260.142 519.219 260.244 519.565 260.276C519.91 260.308 520.259 260.267 520.588 260.158C520.918 260.049 521.221 259.873 521.478 259.641C521.954 259.127 522.209 258.448 522.188 257.749C522.167 257.05 521.872 256.388 521.367 255.902C520.698 255.297 519.739 255.035 519.181 254.328C518.89 253.92 518.697 253.452 518.615 252.959C518.31 251.536 518.359 250.062 518.757 248.662C518.906 248.307 518.944 247.916 518.865 247.539C518.614 246.813 517.625 246.762 516.931 246.425C515.355 245.661 515.394 243.452 515.669 241.731C515.486 242.877 511.378 240.928 510.948 240.28C510.093 238.991 510.558 236.504 510.389 235.08C508.545 235.963 507.833 238.581 508.781 240.383Z" fill="#3F3D56"/>
<path d="M467.399 263.056C466.64 262.213 465.498 261.331 464.482 261.839C463.707 262.227 463.493 263.293 463.797 264.101C464.167 264.886 464.738 265.561 465.451 266.06C467.569 267.795 469.85 269.361 471.698 271.378C475.005 274.988 476.757 279.859 480.353 283.185C481.076 283.956 482.034 284.47 483.079 284.65C484.127 284.746 485.303 284.08 485.424 283.042C485.523 282.186 484.922 281.421 484.336 280.787C482.939 279.277 481.409 277.888 480.09 276.311C479.481 275.705 479.098 274.911 479.005 274.06C478.998 273.21 479.778 272.321 480.606 272.532C479.599 272.276 478.852 270.609 477.373 270.295C476.138 270.033 475.839 270.793 474.368 270.167C471.563 268.972 469.363 265.24 467.399 263.056Z" fill="#3F3D56"/>
<path d="M533.303 180.967C532.498 180.73 531.707 180.449 530.933 180.126C528.851 179.505 526.096 181.026 526.373 183.168C526.558 184.591 527.891 185.551 528.627 186.785C529.72 188.616 529.428 190.938 528.855 192.989C528.714 193.623 528.446 194.224 528.067 194.753C527.537 195.313 526.903 195.766 526.2 196.087C523.388 197.653 520.908 199.746 518.897 202.25C518.679 202.481 518.526 202.766 518.456 203.076C518.357 203.799 519.089 204.326 519.503 204.929C520.422 206.269 519.757 208.072 519.848 209.691C519.834 209.92 519.879 210.149 519.979 210.355C520.079 210.562 520.231 210.74 520.419 210.872C520.973 211.152 521.63 210.677 521.93 210.137C522.927 208.343 522.176 205.465 524.045 204.6C524.399 204.437 524.828 204.368 525.063 204.059C525.438 203.57 525.077 202.845 525.266 202.26C525.551 201.381 526.761 201.342 527.689 201.381C529.288 201.447 530.886 201.236 532.412 200.756C533.011 200.615 533.554 200.302 533.975 199.857C534.534 199.164 534.485 198.179 534.373 197.298C533.814 192.908 532.414 188.663 530.248 184.795C531.89 185.004 533.677 185.184 535.094 184.334C535.887 183.858 536.839 182.435 536.445 181.466C535.823 179.934 534.699 181.223 533.303 180.967Z" fill="#3F3D56"/>
<path d="M322.785 205.117C322.981 206.164 323.175 207.266 322.829 208.274C322.484 209.282 321.397 210.125 320.371 209.816C319.575 209.576 319.115 208.781 318.549 208.174C315.405 204.802 308.311 206.755 306.368 202.583C305.575 200.88 306.114 198.841 305.573 197.043C305.232 196.005 304.553 195.108 303.644 194.494C302.734 193.88 301.644 193.583 300.546 193.651C299.545 193.795 298.57 194.084 297.654 194.509C291.512 196.952 285.064 198.554 278.488 199.271C277.238 199.346 276.002 199.57 274.805 199.936C272.105 200.909 270.26 203.395 268.947 205.933C267.634 208.47 266.664 211.218 264.904 213.472C263.054 215.841 260.461 217.501 258.043 219.295C257.111 219.892 256.336 220.699 255.78 221.652C255.255 222.721 255.285 223.964 255.326 225.153L255.82 239.589C255.883 241.445 255.963 243.369 256.8 245.03C257.845 247.105 259.908 248.464 261.34 250.297C262.801 252.181 263.562 254.508 263.495 256.885C263.464 257.841 263.369 258.971 264.118 259.571C264.574 259.865 265.107 260.017 265.65 260.009L285.309 261.607C288.767 261.888 292.599 262.351 294.857 264.968C295.923 266.203 296.779 267.979 298.411 268.111C299.111 268.168 299.792 267.883 300.492 267.828C302.259 267.689 303.811 269.021 304.79 270.488C306.272 272.724 306.945 275.394 306.698 278.06C306.538 279.733 306.015 281.36 305.903 283.037C305.474 289.419 310.921 294.964 311.026 301.36C311.089 305.122 309.291 308.636 307.538 311.972C310.367 316.229 308.05 321.897 309.177 326.874C310.245 331.595 314.208 335.292 315.196 340.03C315.648 342.2 315.674 344.869 317.6 345.987C318.445 346.396 319.382 346.582 320.32 346.528C325.981 346.594 331.577 345.329 336.651 342.835C339.033 341.661 341.501 339.909 341.916 337.3C342.252 335.197 341.178 332.844 342.271 331.012C343.559 328.853 346.858 329.024 348.753 327.364C351.828 324.671 349.43 319.534 350.676 315.655C351.796 312.168 355.65 310.315 357.56 307.186C358.312 305.84 358.852 304.387 359.16 302.879C360.035 299.274 360.58 295.597 360.788 291.894C360.839 289.645 361.006 287.399 361.288 285.166C363.348 272.454 376 263.942 380.107 251.731C380.499 250.564 380.684 249.011 379.639 248.351C379.02 248.058 378.317 247.985 377.65 248.144L368.588 249.279C367.462 249.42 366.269 249.552 365.235 249.088C364.202 248.623 363.461 247.324 364.009 246.338C365.548 243.568 362.382 240.069 360.976 237.231C357.187 229.589 352.676 222.322 347.503 215.528C347.172 215.178 346.965 214.731 346.913 214.254L349.485 214.339C348.616 211.245 347.184 207.858 344.157 206.726C342.452 206.088 340.563 206.309 338.743 206.408C333.531 206.691 327.943 205.909 322.785 205.117Z" fill="#3F3D56"/>
<path d="M338.747 135.381C340.111 136.82 341.64 138.345 343.613 138.596C347.098 139.039 349.604 135.458 351.2 132.349C351.259 133.141 351.627 133.88 352.226 134.407C352.825 134.935 353.607 135.209 354.407 135.173C355.267 135.029 356.088 134.71 356.818 134.236C363.724 130.487 371.459 128.501 379.329 128.456C379.253 127.864 379.401 127.265 379.744 126.774C380.087 126.284 380.6 125.937 381.185 125.801C382.785 125.486 384.227 126.86 384.998 128.287C385.77 129.715 386.251 131.369 387.478 132.438C388.704 133.506 391.078 133.46 391.563 131.912C392.028 130.427 390.47 129.16 389.176 128.285C387.881 127.409 386.517 125.788 387.389 124.496C394.001 123.042 400.654 121.582 407.42 121.294C408.572 121.333 409.72 121.137 410.792 120.717C411.824 120.214 412.644 119.072 412.366 117.964C410.89 118.309 409.343 118.209 407.924 117.677C406.505 117.145 405.277 116.206 404.398 114.978C413.786 114.209 423.772 113.553 432.092 117.941C433.09 120.07 428.001 121.841 429.363 123.762C429.797 124.374 430.667 124.446 431.421 124.46C437.203 124.566 443.018 124.671 448.735 123.804C450.824 123.487 452.934 123.04 455.031 123.297C458.524 123.725 461.512 126.04 464.949 126.795C466.348 127.102 467.917 127.113 469.096 126.304C470.275 125.496 470.782 123.656 469.815 122.605C473.051 119.455 478.422 120.236 482.691 121.744C486.96 123.252 491.004 125.685 495.523 126.021C498.763 126.262 502.048 125.396 505.249 125.946C507.261 126.292 509.134 127.181 511.1 127.727C514.819 128.76 518.753 128.542 522.614 128.592C532.466 128.724 542.211 130.647 551.365 134.267C552.556 134.652 553.647 135.292 554.561 136.143C555.413 137.049 555.848 138.457 555.275 139.558L545.816 138.185C546.707 139.928 549.013 140.225 550.885 140.826C552.758 141.428 554.699 143.482 553.574 145.085C551.545 144.444 549.706 146.459 548.682 148.312C547.657 150.166 546.408 152.387 544.281 152.5C542.378 152.601 540.075 150.99 538.834 152.428C540.548 154.577 542.017 156.908 543.211 159.38C544.437 161.917 545.311 165.114 543.653 167.397C543.393 167.804 542.997 168.109 542.535 168.258C541.182 168.599 540.302 166.954 539.332 165.957C538.109 164.701 536.259 164.345 534.603 163.756C532.946 163.167 531.202 162.008 531.072 160.265C530.991 159.181 531.568 158.173 531.992 157.171C532.706 155.482 533.018 153.652 532.904 151.824C532.811 150.353 532.396 148.823 531.332 147.795C530.269 146.767 528.433 146.441 527.291 147.382C526.758 147.822 526.332 148.524 525.64 148.55C524.417 148.597 523.479 146.48 522.495 147.203C522.611 147.973 522.45 148.758 522.041 149.422C519.107 151.958 514.598 150.885 510.815 151.781C509.016 152.292 507.294 153.039 505.693 154.003C505.094 154.257 504.585 154.682 504.229 155.223C503.757 156.135 504.278 157.302 505.11 157.909C505.993 158.446 506.985 158.783 508.014 158.893C512.627 159.761 517.306 161.104 520.948 164.047C524.589 166.99 526.977 171.854 525.825 176.375L516.729 167.741C517.075 171.366 517.271 175.001 517.317 178.646C517.376 179.358 517.278 180.073 517.029 180.743C516.38 182.166 514.623 182.645 513.083 182.959C512.655 183.04 512.248 183.21 511.891 183.458C511.533 183.705 511.233 184.026 511.008 184.397C510.784 184.769 510.642 185.183 510.591 185.613C510.539 186.043 510.58 186.479 510.71 186.893C511.257 188.664 512.622 190.045 513.871 191.422C515.12 192.798 516.349 194.362 516.513 196.208C516.676 198.054 515.274 200.135 513.413 200.006C512.003 199.909 510.956 198.654 510.354 197.383C509.752 196.112 509.394 194.696 508.49 193.616C505.753 190.346 499.606 191.747 497.155 188.261C496.53 188.966 496.097 189.817 495.896 190.734C495.695 191.651 495.734 192.604 496.008 193.503C497.149 192.793 498.71 193.452 499.567 194.483C500.424 195.513 500.828 196.835 501.501 197.992C502.409 199.554 503.855 200.939 503.981 202.738C503.948 203.418 503.959 204.1 504.016 204.779C504.241 205.869 505.169 206.652 505.812 207.563C507.308 209.683 507.234 212.596 506.27 215.002C505.305 217.407 503.572 219.418 501.856 221.367C498.858 224.771 495.798 228.155 492.244 230.982C491.23 231.788 490.148 232.581 489.516 233.709C488.884 234.837 488.852 236.42 489.823 237.278C489.128 237.312 487.882 237.652 487.188 237.686C486.944 234.919 486.891 232.138 487.029 229.363C484.288 228.056 481.337 231.557 481.691 234.556C482.045 237.556 484.229 239.963 485.784 242.558C486.921 244.456 487.766 246.669 487.386 248.845C487.007 251.021 485.051 253.029 482.836 252.837C479.313 252.531 477.839 247.507 474.35 246.932C474.043 246.861 473.72 246.892 473.432 247.023C472.914 247.305 472.824 247.994 472.795 248.58C472.653 251.456 472.529 254.447 473.659 257.099C475.313 260.979 479.586 264.238 478.69 268.356C473.862 266.127 471.351 260.749 470.212 255.583C469.072 250.417 468.882 244.994 466.839 240.11C465.287 242.085 462.027 240.452 460.609 238.38C459.266 236.416 458.438 234.144 457.134 232.153C455.831 230.162 453.833 228.379 451.445 228.27C448.941 228.155 446.769 229.862 444.859 231.475C443.289 232.801 441.676 234.179 440.758 236.013C439.422 238.681 439.772 241.826 439.707 244.805C439.638 248.025 438.951 251.423 436.741 253.781C434.531 256.138 430.452 256.96 428.015 254.835C426.743 253.725 426.127 252.068 425.578 250.477C422.932 242.808 420.729 234.996 418.979 227.078C418.57 228.885 416.972 231.215 415.446 230.15C415.104 229.864 414.826 229.509 414.632 229.108C411.785 224.316 406.513 221.441 401.187 219.717C395.86 217.993 390.256 217.189 384.988 215.295C382.036 214.233 379.217 212.838 376.585 211.137C375.914 212.116 375.523 213.257 375.452 214.44C375.38 215.622 375.633 216.801 376.181 217.852C377.35 219.908 379.994 221.097 382.257 220.378C383.427 220.007 384.415 219.201 385.575 218.802C386.736 218.404 388.294 218.599 388.801 219.71C389.287 220.773 388.553 222.059 388.917 223.169C389.472 224.86 392.038 224.99 392.936 226.528C393.604 227.673 393.054 229.193 392.101 230.117C391.147 231.04 389.875 231.547 388.711 232.19C384.934 234.276 382.248 237.837 378.948 240.608C375.647 243.379 370.99 245.402 367.056 243.624C367.994 238.908 362.338 235.445 361.298 230.75C360.955 229.205 361.133 227.564 360.644 226.058C359.936 223.877 357.988 222.378 356.391 220.726C354.453 218.7 352.944 216.309 351.951 213.694C350.959 211.079 350.504 208.294 350.613 205.501C350.699 203.561 351.058 201.589 350.613 199.698C350.168 197.806 348.591 195.976 346.638 196.062C342.176 196.257 336.556 196.587 334.215 192.809C333.379 191.461 333.016 189.486 334.224 188.453C335.076 187.724 336.334 187.793 337.453 187.902L347.505 188.884C349.856 189.114 352.398 189.304 354.416 188.083C356.433 186.862 357.307 183.621 355.439 182.184C354.074 181.135 351.629 181.192 351.232 179.523C350.901 178.133 352.45 176.556 351.614 175.395C351.014 174.562 349.665 174.793 348.848 175.417C348.031 176.042 347.439 176.955 346.524 177.427C344.92 178.257 343.003 177.467 341.278 176.931C339.552 176.395 337.238 176.349 336.401 177.941C335.465 179.722 337.231 182.055 336.302 183.84C335.074 186.199 330.914 184.856 329.189 186.885C327.209 189.213 330.536 192.685 329.868 195.66C329.016 196.079 328.069 196.272 327.119 196.219C326.17 196.166 325.25 195.869 324.451 195.358C323.664 194.826 323.037 194.093 322.637 193.236C322.236 192.379 322.077 191.43 322.176 190.491C322.342 189.152 323.044 187.786 322.573 186.522C322.193 185.5 321.16 184.891 320.199 184.364L310.43 179.002C309.523 180.673 310.67 182.745 312.104 184C313.538 185.255 315.334 186.201 316.276 187.853C316.872 188.997 317.006 190.325 316.65 191.564C316.293 192.803 315.475 193.86 314.36 194.52C314.221 194.616 314.062 194.68 313.895 194.709C313.727 194.738 313.556 194.731 313.392 194.688C313.236 194.597 313.1 194.475 312.992 194.331C312.884 194.187 312.807 194.023 312.764 193.849C311.04 189.467 308.453 185.147 304.315 182.859C300.178 180.57 294.233 181.04 291.52 184.896C290.875 185.812 290.443 186.856 289.881 187.824C286.899 192.968 280.505 195.404 274.531 195.244C273.947 195.277 273.365 195.141 272.857 194.854C271.891 194.191 271.935 192.786 272.082 191.63L272.709 186.723C272.835 185.737 273.018 184.648 273.803 184.033C274.91 183.166 276.506 183.713 277.915 183.693C278.983 183.644 280.01 183.269 280.856 182.62C281.702 181.972 282.327 181.08 282.646 180.067C282.931 179.043 282.929 177.962 282.641 176.94C282.353 175.917 281.789 174.992 281.011 174.265C280.365 173.662 279.498 172.905 279.839 172.093C279.975 171.868 280.159 171.675 280.378 171.529C280.597 171.382 280.846 171.285 281.107 171.245C283.638 170.514 286.313 170.323 288.803 169.461C291.292 168.6 293.706 166.837 294.296 164.285C294.476 163.502 294.559 162.555 295.266 162.167C295.621 162.018 296.002 161.941 296.387 161.94C297.737 161.749 298.966 161.063 299.832 160.018C300.698 158.972 301.138 157.642 301.067 156.29C302.26 155.462 303.931 156.071 305.086 156.952C306.24 157.832 307.259 158.996 308.663 159.376C311.28 160.083 313.809 157.782 316.522 157.771C317.662 157.766 318.843 158.167 319.916 157.783C321.004 157.393 321.654 156.318 322.489 155.523C323.323 154.728 324.788 154.244 325.559 155.1L324.903 150.27C326.225 150.601 327.603 150.648 328.945 150.407C330.287 150.166 331.561 149.643 332.683 148.872L324.198 146.025C323.903 145.951 323.63 145.807 323.405 145.603C322.788 144.944 323.401 143.915 323.902 143.165C325.102 141.371 325.304 138.416 323.33 137.522C321.983 136.913 320.437 137.645 319.145 138.361L312.952 141.79C312.755 142.96 314.195 143.622 315.087 144.41C315.626 144.886 316.008 145.514 316.182 146.21C316.356 146.906 316.314 147.638 316.062 148.31C315.809 148.982 315.358 149.563 314.768 149.975C314.177 150.388 313.475 150.613 312.753 150.622C313.16 151.149 313.444 151.76 313.582 152.41C313.719 153.06 313.708 153.733 313.549 154.378L309.382 154.676C308.915 154.769 308.429 154.675 308.031 154.414C307.585 154.02 307.646 153.332 307.543 152.748C307.293 151.341 305.906 150.355 304.49 150.102C303.074 149.849 301.626 150.173 300.224 150.493C299.629 150.706 298.975 150.691 298.39 150.451C298.055 150.235 297.8 149.915 297.665 149.542C297.05 148.061 297.624 146.321 298.612 145.055C299.599 143.789 300.95 142.864 302.164 141.81C305.066 139.28 307.199 135.995 308.32 132.325C310.614 131.37 312.989 130.073 315.282 129.119C318.819 127.34 322.784 126.577 326.733 126.915L334.501 127.062C336.801 127.106 339.163 127.162 341.29 128.033C343.416 128.904 345.285 130.787 345.432 133.067C345.476 133.326 345.453 133.591 345.366 133.838C345.279 134.085 345.13 134.306 344.934 134.48C344.633 134.643 344.293 134.719 343.951 134.7C341.807 134.775 340.892 135.306 338.747 135.381Z" fill="#3F3D56"/>
<path d="M276.832 159.563C277.136 159.278 277.354 158.915 277.464 158.514C277.573 158.114 277.569 157.691 277.452 157.292C276.714 157.009 275.91 156.936 275.133 157.082C274.355 157.228 273.633 157.587 273.05 158.118C272.589 158.58 272.193 159.101 271.87 159.667C270.849 161.321 269.947 163.297 270.538 165.146C270.586 165.348 270.675 165.538 270.798 165.705C270.921 165.872 271.077 166.013 271.255 166.12C271.52 166.226 271.806 166.27 272.091 166.25C273.216 166.249 274.339 166.18 275.455 166.045C276.141 165.961 276.937 165.769 277.202 165.136C277.55 164.303 276.707 163.361 276.953 162.493C277.114 162.104 277.359 161.756 277.671 161.472C277.825 161.328 277.944 161.151 278.017 160.955C278.091 160.758 278.117 160.547 278.094 160.338C277.995 159.931 277.367 159.7 277.141 160.054" fill="#3F3D56"/>
<path d="M282.663 152.054C281.664 151.826 280.635 151.762 279.615 151.864C279.389 151.857 279.166 151.908 278.965 152.01C278.771 152.153 278.63 152.355 278.565 152.586C278.35 153.273 278.403 154.015 278.713 154.665C279.024 155.314 279.57 155.824 280.242 156.092C280.608 156.175 280.959 156.315 281.281 156.507C282.144 157.171 281.594 158.529 281.757 159.601C281.94 160.805 283.113 161.815 282.898 163.013C282.729 163.957 281.714 164.705 281.877 165.65C282.048 166.64 283.313 166.937 284.321 167.016C284.905 167.118 285.506 167.05 286.052 166.819C286.599 166.448 286.988 165.888 287.144 165.248C287.557 164.028 287.73 162.741 287.655 161.456C287.651 160.871 287.503 160.297 287.225 159.782C286.921 159.374 286.585 158.991 286.219 158.638C284.288 156.406 286.321 153.078 282.663 152.054Z" fill="#3F3D56"/>
<path opacity="0.8" d="M536.607 326.848C536.607 326.848 388.7 242.514 325.023 258.493C325.023 258.493 190.074 272.919 174.434 304.655C174.434 304.655 131.537 171.495 115.897 167.057" stroke="#0098AC" stroke-width="2" stroke-miterlimit="10"/>
<path opacity="0.8" d="M174.434 304.655C199.235 238.963 422.66 166.169 422.66 166.169C390.934 174.159 325.023 258.493 325.023 258.493C325.023 258.493 185.606 157.735 115.897 167.057C115.897 167.057 422.884 177.044 536.607 326.849" stroke="#0098AC" stroke-width="2" stroke-miterlimit="10"/>
<path d="M115.897 173.493C119.475 173.493 122.376 170.611 122.376 167.057C122.376 163.502 119.475 160.621 115.897 160.621C112.318 160.621 109.417 163.502 109.417 167.057C109.417 170.611 112.318 173.493 115.897 173.493Z" fill="#0098AC"/>
<path d="M174.434 311.091C178.013 311.091 180.914 308.21 180.914 304.655C180.914 301.101 178.013 298.219 174.434 298.219C170.856 298.219 167.955 301.101 167.955 304.655C167.955 308.21 170.856 311.091 174.434 311.091Z" fill="#0098AC"/>
<path d="M422.66 172.605C426.239 172.605 429.14 169.724 429.14 166.169C429.14 162.614 426.239 159.733 422.66 159.733C419.082 159.733 416.181 162.614 416.181 166.169C416.181 169.724 419.082 172.605 422.66 172.605Z" fill="#0098AC"/>
<path d="M536.607 333.284C540.186 333.284 543.087 330.403 543.087 326.848C543.087 323.294 540.186 320.412 536.607 320.412C533.029 320.412 530.128 323.294 530.128 326.848C530.128 330.403 533.029 333.284 536.607 333.284Z" fill="#0098AC"/>
<path d="M325.023 264.929C328.602 264.929 331.503 262.048 331.503 258.493C331.503 254.939 328.602 252.057 325.023 252.057C321.445 252.057 318.544 254.939 318.544 258.493C318.544 262.048 321.445 264.929 325.023 264.929Z" fill="#0098AC"/>
</g>
<defs>
<clipPath id="clip0_4_207">
<rect width="637" height="470" fill="white"/>
</clipPath>
</defs>
</svg>
