<svg width="274" height="207" viewBox="0 0 274 207" fill="none" xmlns="http://www.w3.org/2000/svg">
<path opacity="0.1" d="M159.196 39.7336C141.631 39.1096 124.9 33.2926 108.926 26.9293C92.9515 20.566 77.125 13.5132 59.9818 10.141C48.9539 7.97296 36.3426 7.66706 27.4583 13.7293C18.9061 19.556 16.1442 29.6412 14.6603 38.9785C13.5424 46.0192 12.8853 53.4119 15.9454 59.9961C18.0719 64.5677 21.8473 68.4084 24.4588 72.7858C33.5396 88.0203 27.1261 106.807 17.2766 121.682C12.6695 128.659 7.30349 135.316 3.74149 142.743C0.179495 150.17 -1.46935 158.682 1.64649 166.259C4.73808 173.771 12.0997 179.41 20.0748 183.377C36.2747 191.438 55.365 193.744 73.9801 195.05C115.187 197.942 156.614 196.689 197.93 195.436C213.221 194.97 228.577 194.502 243.62 192.076C251.971 190.729 260.593 188.592 266.655 183.431C274.354 176.876 276.262 165.788 271.102 157.575C262.458 143.802 238.533 140.383 232.485 125.593C229.156 117.455 232.575 108.39 237.413 100.829C247.791 84.6384 265.186 70.4332 266.103 51.9236C266.733 39.2116 258.37 26.4802 245.441 20.4665C231.886 14.1542 213.094 14.9553 203.095 25.3901C192.799 36.1526 174.705 40.2871 159.196 39.7336Z" fill="#0098AC"/>
<path opacity="0.1" d="M111.552 38.8059C111.191 37.5653 112.068 36.7908 113.751 36.298C116.521 35.5496 119.427 35.4582 122.238 36.0309L120.056 28.5533C117.258 28.2949 114.438 28.5801 111.748 29.3933C105.298 31.2773 101.991 35.9047 103.633 41.5323C106.183 50.3307 117.844 45.3901 118.955 49.1751C119.382 50.6318 118.252 51.4888 116.472 52.0083C113.834 52.7804 110.148 52.6833 107.052 52.0083L109.261 59.5807C112.349 59.9667 115.485 59.7189 118.475 58.8523C125.085 56.9101 128.673 52.3142 127.012 46.6186C124.217 37.1501 112.602 42.3723 111.562 38.8083L111.552 38.8059ZM128.666 17.5383L121.392 21.4592L128.79 46.9512C130.165 51.6612 134.701 54.0987 139.405 52.7221C142.012 51.9622 143.77 50.928 144.66 50.0515L142.778 43.5935C141.881 44.3049 137.286 47.2353 135.914 42.5253L132.635 31.2311L138.673 29.4661L136.697 22.6877L130.659 24.4527L128.666 17.5383ZM147.254 22.1511L146.059 19.9442L139.194 21.952L147.313 49.7966L155.259 47.4732L149.757 28.6042C150.916 25.6059 154.226 25.1228 155.312 25.1859L153.178 17.866C152.051 17.7811 148.127 18.1695 147.254 22.1535V22.1511ZM155.116 17.2955L163.093 14.9648L171.211 42.8045L163.234 45.1376L155.116 17.3125V17.2955ZM154.412 14.8677L161.888 10.8181L160.004 4.37226L152.519 8.39028L154.412 14.8847V14.8677ZM179.523 9.57748C177.202 10.2464 175.229 11.789 174.019 13.882L173.03 12.0296L166.039 14.0738L176.856 51.1732L184.31 47.1746L181.718 38.1601C183.102 38.6457 185.129 39.3376 187.925 38.5218C193.614 36.8588 197.459 30.7528 194.518 20.675C191.795 11.4493 185.086 7.96299 179.523 9.58719V9.57748ZM184.009 32.059C182.135 32.6077 180.828 32.2654 179.824 31.6609L176.349 19.8641C176.907 18.7012 177.865 17.7301 179.679 17.1935C182.569 16.3462 185.517 19.0071 186.732 23.1757C187.976 27.4389 186.933 31.1874 184.009 32.0517V32.059ZM219.653 13.6708C217.277 5.52547 211.463 0.249835 203.931 2.45186C196.4 4.65388 193.665 12.4277 196.022 20.5099C198.815 30.0803 205.621 33.336 213.381 31.0709C217.163 29.9662 219.772 28.2692 221.581 26.4289L219.726 20.0656C217.881 21.7797 215.604 23.1732 212.452 24.0909C209.37 24.9917 206.322 24.71 204.877 21.0562L220.412 16.5137C220.291 16.101 219.872 14.4282 219.651 13.6635L219.653 13.6708ZM203.073 15.2367C202.023 11.6411 203.781 9.50465 205.784 8.9244C207.723 8.35872 210.223 9.24973 211.271 12.8453L203.073 15.2367Z" fill="black"/>
<path d="M111.552 36.864C111.191 35.6234 112.068 34.8489 113.751 34.3561C116.521 33.6077 119.427 33.5163 122.238 34.089L120.056 26.6114C117.258 26.353 114.438 26.6382 111.748 27.4514C105.298 29.3354 101.991 33.9628 103.633 39.5904C106.183 48.3888 117.844 43.4482 118.955 47.2332C119.382 48.6899 118.252 49.5469 116.472 50.0665C113.834 50.8385 110.148 50.7414 107.052 50.0665L109.261 57.6388C112.349 58.0249 115.485 57.777 118.475 56.9105C125.085 54.9682 128.673 50.3724 127.012 44.6767C124.217 35.2083 112.602 40.4305 111.562 36.8664L111.552 36.864ZM128.666 15.5964L121.392 19.5173L128.79 45.0093C130.165 49.7193 134.701 52.1568 139.405 50.7802C142.012 50.0203 143.77 48.9861 144.66 48.1096L142.778 41.6517C141.881 42.363 137.286 45.2934 135.914 40.5834L132.635 29.2892L138.673 27.5242L136.697 20.7458L130.659 22.5108L128.666 15.5964ZM147.254 20.2092L146.059 18.0023L139.194 20.0101L147.313 47.8547L155.259 45.5313L149.757 26.6623C150.916 23.664 154.226 23.1809 155.312 23.244L153.178 15.9241C152.051 15.8392 148.127 16.2276 147.254 20.2117V20.2092ZM155.116 15.3536L163.093 13.0229L171.211 40.8626L163.234 43.1958L155.116 15.3706V15.3536ZM154.412 12.9258L161.888 8.8762L160.004 2.43036L152.519 6.44839L154.412 12.9428V12.9258ZM179.523 7.63559C177.202 8.30446 175.229 9.84709 174.019 11.9401L173.03 10.0877L166.039 12.1319L176.856 49.2313L184.31 45.2327L181.718 36.2182C183.102 36.7038 185.129 37.3957 187.925 36.58C193.614 34.9169 197.459 28.811 194.518 18.7331C191.795 9.50743 185.086 6.0211 179.523 7.6453V7.63559ZM184.009 30.1171C182.135 30.6658 180.828 30.3235 179.824 29.719L176.349 17.9222C176.907 16.7593 177.865 15.7882 179.679 15.2516C182.569 14.4043 185.517 17.0652 186.732 21.2338C187.976 25.497 186.933 29.2455 184.009 30.1098V30.1171ZM219.653 11.7289C217.277 3.58357 211.463 -1.69206 203.931 0.509965C196.4 2.71199 193.665 10.4858 196.022 18.568C198.815 28.1385 205.621 31.3942 213.381 29.129C217.163 28.0244 219.772 26.3273 221.581 24.487L219.726 18.1237C217.881 19.8378 215.604 21.2313 212.452 22.149C209.37 23.0498 206.322 22.7681 204.877 19.1143L220.412 14.5718C220.291 14.1591 219.872 12.4864 219.651 11.7216L219.653 11.7289ZM203.073 13.2948C202.023 9.69923 203.781 7.56276 205.784 6.98251C207.723 6.41683 210.223 7.30784 211.271 10.9034L203.073 13.2948Z" fill="#6772E5"/>
<path opacity="0.1" d="M164.601 206.997C176.995 206.997 187.043 205.489 187.043 203.628C187.043 201.767 176.995 200.258 164.601 200.258C152.207 200.258 142.16 201.767 142.16 203.628C142.16 205.489 152.207 206.997 164.601 206.997Z" fill="#0098AC"/>
<path d="M156.27 197.548L113.062 196.995L113.191 195.885L115.279 177.582H153.224L156.015 195.885L156.228 197.272L156.27 197.548Z" fill="#D0D2D5"/>
<path opacity="0.1" d="M156.228 197.272H134.667L113.062 196.995L113.191 195.886H156.015L156.228 197.272Z" fill="black"/>
<path d="M163.195 196.162H105.861V197.548H163.195V196.162Z" fill="#D0D2D5"/>
<path d="M217.895 67.6506C217.898 67.1763 217.807 66.7061 217.628 66.267C217.449 65.8278 217.186 65.4283 216.852 65.0912C216.519 64.7542 216.123 64.4862 215.686 64.3025C215.249 64.1189 214.781 64.0232 214.307 64.021H54.1938C53.2373 64.0261 52.322 64.4113 51.6491 65.092C50.9761 65.7726 50.6006 66.6929 50.6051 67.6506V164.826H217.895V67.6506Z" fill="#444053"/>
<path d="M50.6051 163.855V175.237C50.6051 176.19 50.9832 177.103 51.6562 177.777C52.3292 178.451 53.242 178.83 54.1938 178.83H214.307C214.778 178.83 215.245 178.737 215.68 178.557C216.116 178.376 216.512 178.112 216.845 177.778C217.178 177.444 217.443 177.048 217.623 176.612C217.803 176.176 217.896 175.709 217.895 175.237V163.855H50.6051Z" fill="#D0D2D5"/>
<path d="M211.802 70.1226H57.5303V157.478H211.802V70.1226Z" fill="white"/>
<path d="M135.082 174.514C135.648 174.514 136.207 174.385 136.717 174.138C137.226 173.89 137.673 173.53 138.023 173.084C138.13 172.948 138.227 172.804 138.314 172.654L136.273 172.314L138.491 172.331C138.704 171.868 138.82 171.365 138.832 170.855C138.844 170.345 138.752 169.838 138.562 169.364L135.586 170.911L138.331 168.891C138.071 168.452 137.724 168.07 137.312 167.77C136.899 167.47 136.429 167.258 135.932 167.146C135.434 167.035 134.919 167.026 134.418 167.121C133.917 167.216 133.44 167.413 133.018 167.699C132.596 167.986 132.236 168.356 131.962 168.786C131.688 169.217 131.504 169.699 131.423 170.203C131.342 170.707 131.364 171.222 131.49 171.717C131.615 172.212 131.84 172.677 132.15 173.081C132.499 173.526 132.944 173.886 133.452 174.134C133.96 174.382 134.517 174.512 135.082 174.514Z" fill="#0098AC"/>
<path opacity="0.1" d="M138.821 178.83L156.059 196.162L153.413 178.83H138.821Z" fill="black"/>
<path opacity="0.1" d="M211.848 70.1318H57.4091V75.2351H211.848V70.1318Z" fill="#444053"/>
<path d="M62.5374 71.021H58.4832C58.3787 71.021 58.2941 71.1058 58.2941 71.2104V73.9368C58.2941 74.0414 58.3787 74.1262 58.4832 74.1262H62.5374C62.6419 74.1262 62.7266 74.0414 62.7266 73.9368V71.2104C62.7266 71.1058 62.6419 71.021 62.5374 71.021Z" fill="#0098AC"/>
<path opacity="0.3" d="M157.421 71.021H111.171C111.094 71.021 111.031 71.084 111.031 71.1618V73.9853C111.031 74.0631 111.094 74.1262 111.171 74.1262H157.421C157.499 74.1262 157.562 74.0631 157.562 73.9853V71.1618C157.562 71.084 157.499 71.021 157.421 71.021Z" fill="#0098AC"/>
<path d="M156.18 72.8926H156.066L156.025 72.8587C156.166 72.6887 156.244 72.4751 156.245 72.2541C156.244 72.0721 156.19 71.8945 156.088 71.7438C155.986 71.593 155.842 71.4758 155.674 71.4071C155.505 71.3383 155.321 71.3211 155.142 71.3575C154.964 71.394 154.801 71.4824 154.673 71.6118C154.545 71.7412 154.459 71.9056 154.424 72.0843C154.39 72.2629 154.409 72.4478 154.479 72.6156C154.55 72.7834 154.668 72.9264 154.82 73.0267C154.972 73.127 155.15 73.1801 155.331 73.1791C155.551 73.1758 155.763 73.0979 155.933 72.9582L155.974 72.9922V73.1063L156.684 73.8176L156.895 73.604L156.18 72.8926ZM155.331 72.8926C155.204 72.8931 155.08 72.8559 154.975 72.7856C154.869 72.7154 154.787 72.6153 154.738 72.4981C154.689 72.3809 154.676 72.2518 154.701 72.1273C154.726 72.0027 154.787 71.8883 154.876 71.7985C154.966 71.7087 155.08 71.6476 155.205 71.623C155.329 71.5983 155.458 71.6112 155.575 71.66C155.692 71.7088 155.792 71.7914 155.862 71.8971C155.932 72.0029 155.97 72.1272 155.969 72.2541C155.97 72.3382 155.954 72.4215 155.922 72.4992C155.89 72.577 155.843 72.6476 155.784 72.7071C155.724 72.7665 155.654 72.8135 155.576 72.8454C155.498 72.8772 155.415 72.8933 155.331 72.8926Z" fill="#444053"/>
<path d="M209.632 74.1257C210.489 74.1257 211.184 73.43 211.184 72.5719C211.184 71.7137 210.489 71.0181 209.632 71.0181C208.775 71.0181 208.08 71.7137 208.08 72.5719C208.08 73.43 208.775 74.1257 209.632 74.1257Z" fill="#0098AC"/>
<path d="M175.503 158.536C175.489 158.119 175.438 157.701 175.387 157.286C175.2 155.727 175.008 154.169 174.705 152.632C174.652 152.332 174.571 152.038 174.463 151.753C174.354 151.484 174.203 151.236 174.089 150.969C174.09 150.959 174.09 150.949 174.089 150.94C174.23 150.872 174.368 150.804 174.504 150.731C174.602 150.681 174.696 150.623 174.785 150.559C174.875 150.494 174.95 150.411 175.006 150.316C175.248 149.889 174.977 149.345 174.853 148.859C174.722 148.337 174.751 147.711 174.368 147.361C173.001 146.147 173.68 143.671 172.996 141.933C172.875 141.629 172.736 141.331 172.632 141.02C172.552 140.777 172.496 140.534 172.438 140.291C171.953 138.268 171.442 136.254 170.906 134.249C170.341 132.17 170.401 130.005 169.693 127.975C169.56 127.554 169.385 127.148 169.172 126.761C168.935 126.358 168.614 126.012 168.231 125.744C167.198 125.03 166.158 124.421 164.946 124.161C163.733 123.901 162.424 123.943 161.187 123.947C160.744 123.332 160.135 122.856 159.432 122.576L159.41 122.513C159.311 122.267 159.235 122.012 159.182 121.753C159.142 121.496 159.122 121.236 159.121 120.976C159.121 120.697 159.109 120.415 159.102 120.136L159.17 120.07C159.332 119.899 159.481 119.715 159.616 119.521C159.746 119.338 159.859 119.144 159.955 118.941C160.064 118.711 160.157 118.473 160.232 118.23C160.379 117.738 160.479 117.233 160.53 116.722C160.596 116.123 160.615 115.508 160.632 114.909C160.632 114.787 160.632 114.666 160.632 114.542V114.452C160.632 114.355 160.632 114.26 160.632 114.166V114.134C160.652 113.514 160.496 112.901 160.181 112.367C159.742 111.711 158.99 111.396 158.265 111.133C156.81 110.628 155.213 110.296 153.775 110.837C152.633 111.269 151.721 112.211 150.593 112.69C150.619 112.733 150.643 112.777 150.664 112.823C150.664 112.83 150.664 112.836 150.664 112.843C150.683 112.886 150.7 112.928 150.715 112.971C150.751 113.07 150.778 113.171 150.795 113.275C150.827 113.471 150.827 113.671 150.795 113.867C150.454 114.02 150.078 114.075 149.708 114.027C149.848 114.485 150.081 114.908 150.392 115.27C150.491 115.397 150.596 115.513 150.695 115.647L150.848 115.836C151.108 116.141 151.32 116.484 151.476 116.853C151.533 116.999 151.573 117.152 151.595 117.307C151.641 117.616 151.629 117.97 151.67 118.278C151.685 118.411 151.719 118.541 151.769 118.664C151.862 119.304 152.106 119.912 152.48 120.439C152.855 120.965 153.349 121.395 153.923 121.692C154.08 122.652 154.08 123.631 153.923 124.591C153.923 124.644 153.903 124.698 153.891 124.751C153.231 125.584 152.599 126.463 151.786 127.113C151.417 127.403 151.022 127.658 150.605 127.876C150.361 128.017 150.099 128.125 149.827 128.198C149.522 128.269 149.202 128.259 148.898 128.334C148.313 128.521 147.82 128.922 147.519 129.459C147.365 129.742 147.195 130.016 147.01 130.279C146.84 130.49 146.626 130.663 146.447 130.864C145.797 131.593 145.62 132.646 145.477 133.632C144.972 134.191 144.417 134.704 143.821 135.164C143.634 135.313 143.427 135.433 143.205 135.521C142.633 135.713 142.005 135.467 141.508 135.098C141.011 134.729 140.623 134.244 140.143 133.865L140.016 134.052C139.981 134.016 139.947 133.978 139.917 133.938C139.72 133.66 139.584 133.344 139.517 133.01C139.342 132.115 139.672 131.156 139.415 130.284C139.321 129.968 139.093 129.643 138.777 129.65C138.462 129.658 138.266 129.973 137.994 130.121C137.558 130.364 137.024 130.143 136.593 129.903C136.161 129.662 135.669 129.393 135.196 129.536C135.187 129.693 135.215 129.849 135.278 129.992C135.341 130.136 135.436 130.262 135.557 130.362C135.801 130.555 136.001 130.797 136.144 131.073C136.215 131.374 136.242 131.684 136.224 131.993C136.273 132.702 136.709 133.311 137.131 133.865C137.655 134.537 138.203 135.189 138.775 135.822C138.706 135.942 138.599 136.036 138.469 136.086C138.437 136.202 138.437 136.323 138.469 136.438C138.493 136.518 138.524 136.595 138.562 136.669C138.617 136.783 138.685 136.895 138.743 136.999L139.595 138.497L139.733 138.74C139.791 138.842 139.849 138.939 139.91 139.039C140.11 139.387 140.349 139.713 140.62 140.01C140.756 140.152 140.905 140.281 141.066 140.393C141.171 140.469 141.282 140.536 141.399 140.592C141.561 140.675 141.734 140.735 141.913 140.77C142 140.788 142.09 140.8 142.179 140.804C142.272 140.811 142.365 140.811 142.458 140.804C142.738 140.765 143.012 140.694 143.275 140.592C144.898 140.022 146.386 139.111 147.929 138.337C148.141 138.218 148.368 138.13 148.605 138.075C148.685 138.059 148.766 138.053 148.847 138.055C148.93 138.058 149.011 138.072 149.09 138.097C149.167 138.123 149.241 138.159 149.308 138.206C149.444 138.297 149.539 138.439 149.572 138.599C149.619 138.842 149.662 139.068 149.706 139.301C149.75 139.534 149.798 139.767 149.846 140C149.943 140.464 150.048 140.928 150.169 141.386C150.234 141.629 150.298 141.886 150.361 142.139C150.516 142.756 150.669 143.377 150.809 143.999C150.853 144.193 150.894 144.39 150.933 144.584C151.005 144.929 151.057 145.279 151.088 145.63C151.089 145.638 151.089 145.646 151.088 145.654C151.112 145.96 151.115 146.264 151.117 146.57V147.529L151.141 150.36C151.141 150.767 150.923 151.022 150.751 151.389C150.717 151.464 150.685 151.542 150.659 151.62C150.626 151.718 150.599 151.819 150.579 151.921C150.579 151.952 150.564 151.986 150.559 152.018C150.555 152.049 150.559 152.093 150.545 152.129C150.53 152.166 150.545 152.202 150.533 152.236C150.521 152.27 150.533 152.309 150.533 152.343C150.533 152.377 150.533 152.421 150.533 152.46C150.533 152.498 150.533 152.528 150.533 152.559C150.533 152.591 150.533 152.644 150.533 152.685C150.533 152.727 150.533 152.746 150.533 152.775C150.533 152.804 150.55 152.87 150.557 152.918L150.572 152.991C150.588 153.062 150.605 153.132 150.63 153.203C150.678 153.348 150.739 153.491 150.802 153.632C150.865 153.773 150.928 153.916 150.981 154.062C151.015 154.154 151.044 154.248 151.069 154.344C151.075 154.365 151.079 154.387 151.083 154.409C151.103 154.484 151.12 154.56 151.134 154.637V154.691C151.149 154.773 151.161 154.858 151.17 154.934C151.172 154.943 151.172 154.953 151.17 154.963C151.17 155.057 151.19 155.152 151.195 155.247C151.216 155.591 151.212 155.944 151.195 156.291L151.166 158.019V158.073C151.163 158.127 151.175 158.18 151.2 158.228C151.217 158.255 151.241 158.278 151.269 158.293C151.298 158.308 151.33 158.316 151.362 158.315C151.485 158.307 151.602 158.261 151.699 158.184L152.47 157.624H152.519C151.91 158.621 151.423 159.721 151.328 160.894C151.291 161.668 151.341 162.444 151.476 163.208C152.186 168.306 153.86 173.45 153.508 178.597C153.37 180.625 154.209 182.601 154.204 184.631C154.204 185.42 154.07 186.201 154.037 186.988C153.889 190.367 155.61 193.786 154.909 197.088C155.152 197.908 156.071 198.345 156.33 199.161C156.549 199.853 156.233 200.589 155.979 201.266C155.887 201.502 155.817 201.746 155.768 201.994C155.062 201.994 154.279 202.009 153.809 202.205C153.678 202.248 153.551 202.3 153.428 202.361C152.994 202.621 152.965 203.332 153.239 203.762C153.513 204.191 155.052 205.563 155.504 205.789L156.49 206.274C157.02 206.574 157.592 206.79 158.188 206.915C158.689 206.971 159.195 206.961 159.694 206.886C160.079 206.845 160.506 206.782 160.756 206.466C161.107 206.02 160.928 205.294 160.688 204.648C160.776 204.577 160.845 204.484 160.887 204.378C160.929 204.209 160.951 204.036 160.952 203.861C161.023 203.524 161.139 203.197 161.296 202.89C161.701 201.902 161.684 200.79 161.66 199.715C161.664 197.966 161.545 196.219 161.301 194.487C161.18 193.759 161.015 193.031 160.874 192.302C160.357 189.665 160.135 186.978 160.212 184.291C160.221 183.638 160.13 182.988 159.943 182.363C159.864 182.002 159.842 181.631 159.88 181.263L160.171 176.818C160.254 175.914 160.268 175.005 160.212 174.099C160.171 173.613 160.091 173.128 160.043 172.642C159.969 171.716 159.954 170.787 159.997 169.86C160.023 168.862 160.069 167.791 160.639 166.99C160.668 166.939 160.707 166.893 160.754 166.857C160.8 166.821 160.854 166.794 160.911 166.779C161.027 166.762 161.061 166.92 161.017 167.022C161.078 167.206 161.141 167.388 161.204 167.573C161.224 167.626 161.241 167.677 161.26 167.728C161.291 167.823 161.325 167.917 161.359 168.012C161.393 168.107 161.408 168.143 161.43 168.209L161.524 168.452C161.551 168.524 161.58 168.595 161.607 168.665C161.633 168.736 161.667 168.818 161.699 168.893C161.73 168.969 161.762 169.044 161.796 169.119C161.83 169.195 161.854 169.258 161.886 169.328L162.002 169.571C162.031 169.632 162.06 169.695 162.092 169.755C162.123 169.816 162.186 169.933 162.235 170.02C162.261 170.071 162.288 170.122 162.317 170.17C162.395 170.306 162.475 170.438 162.56 170.569C162.724 170.811 162.901 171.054 163.045 171.314C163.095 171.399 163.14 171.488 163.18 171.579C163.315 171.914 163.421 172.26 163.498 172.613C163.583 172.933 163.682 173.247 163.791 173.555C163.901 173.863 164.034 174.172 164.153 174.473C164.218 174.623 164.286 174.774 164.354 174.922C164.558 175.371 164.778 175.813 165.001 176.25C165.04 176.327 165.071 176.409 165.093 176.493C165.105 176.533 165.114 176.575 165.12 176.616C165.129 176.697 165.129 176.778 165.12 176.859C165.117 176.91 165.111 176.96 165.101 177.01C165.086 177.084 165.064 177.158 165.035 177.228C164.737 177.91 164.977 178.583 165.108 179.253C165.223 179.959 165.278 180.674 165.273 181.389C165.273 181.632 165.273 181.875 165.295 182.101C165.295 182.397 165.295 182.691 165.312 182.987C165.329 183.283 165.312 183.623 165.329 183.941C165.334 184.26 165.321 184.578 165.29 184.895C165.29 185.007 165.261 185.116 165.244 185.225C165.19 185.553 165.115 185.878 165.05 186.196C164.808 187.477 164.696 188.778 164.715 190.081C164.715 190.604 164.732 191.127 164.766 191.652C164.795 192.179 164.836 192.703 164.883 193.23C164.907 193.519 164.936 193.808 164.965 194.097C165.013 194.597 165.067 195.097 165.12 195.597C165.174 196.097 165.232 196.648 165.283 197.17C165.334 197.692 165.38 198.214 165.416 198.734C165.439 198.991 165.385 199.25 165.261 199.477C165.212 199.567 165.171 199.661 165.14 199.758C165.117 199.826 165.099 199.895 165.086 199.965C165.072 200.045 165.062 200.126 165.057 200.207C165.051 200.378 165.061 200.549 165.086 200.717C165.099 200.801 165.114 200.882 165.13 200.96C165.166 201.128 165.21 201.295 165.254 201.46C165.353 201.918 165.517 202.359 165.738 202.771C165.786 202.856 165.839 202.937 165.899 203.014C165.915 203.038 165.935 203.06 165.954 203.084C166.004 203.143 166.051 203.204 166.092 203.269C166.112 203.299 166.129 203.33 166.143 203.364C166.193 203.498 166.203 203.644 166.173 203.784C166.146 203.929 166.095 204.075 166.056 204.213L166.182 204.23C166.005 204.791 165.923 205.366 166.221 205.743C166.463 206.058 166.898 206.122 167.283 206.163C167.781 206.24 168.288 206.251 168.789 206.194C169.384 206.069 169.957 205.853 170.486 205.553L171.473 205.068C171.924 204.842 173.461 203.48 173.735 203.038C174.009 202.596 173.978 201.9 173.549 201.64C173.426 201.578 173.299 201.525 173.168 201.482C172.732 201.3 172.026 201.283 171.366 201.273C171.332 201.03 171.313 200.766 171.303 200.516C171.259 199.587 171.277 198.655 171.357 197.729C171.412 197.071 171.497 196.415 171.49 195.757C171.49 194.878 171.308 194.009 171.214 193.135C171.119 192.261 171.109 191.407 171.095 190.542C171.073 189.27 171.446 188.059 171.609 186.801L171.893 184.589C171.94 184.321 171.947 184.046 171.912 183.776C171.868 183.533 171.757 183.29 171.711 183.048C171.611 182.496 171.861 181.95 171.939 181.394C172.028 180.756 171.89 180.108 171.8 179.467C171.683 178.454 171.627 177.436 171.633 176.417C171.546 170.154 171.369 163.749 169.254 157.888C169.17 157.645 169.077 157.403 168.983 157.177C169.026 157.165 169.068 157.152 169.109 157.136C169.175 157.111 169.238 157.078 169.296 157.038C169.321 157.023 169.346 157.005 169.368 156.985C169.436 156.918 169.485 156.834 169.511 156.742C169.54 156.654 169.555 156.561 169.555 156.468C169.552 156.304 169.528 156.141 169.485 155.982L169.456 155.883C169.407 155.718 169.354 155.555 169.298 155.397C169.245 155.239 169.187 155.087 169.126 154.931C169 154.643 168.897 154.345 168.82 154.04C168.672 153.351 168.82 152.554 168.406 151.993C167.489 150.736 168.137 148.803 167.753 147.271C167.627 146.786 167.443 146.3 167.327 145.815C167.254 145.504 167.208 145.186 167.162 144.868C167.041 144.18 166.981 143.483 166.982 142.785C166.982 142.435 167.036 142.086 167.077 141.738L167.368 139.33C167.693 139.953 167.925 140.621 168.057 141.311C168.078 141.411 168.098 141.508 168.12 141.607C168.382 142.795 168.706 143.969 169.09 145.123C169.31 145.82 169.528 146.514 169.766 147.203C169.836 147.4 169.904 147.599 169.967 147.801C170.029 148.002 170.078 148.207 170.113 148.415C170.139 148.58 170.152 148.75 170.164 148.917C170.176 149.085 170.186 149.257 170.202 149.425C170.282 150.142 170.522 150.832 170.906 151.442C170.918 151.458 170.929 151.474 170.94 151.491C171.005 151.609 171.11 151.7 171.235 151.748C171.323 151.766 171.413 151.766 171.5 151.748H171.514C171.643 151.722 171.771 151.692 171.897 151.661C171.916 151.657 171.935 151.652 171.953 151.646C172.011 152.399 172.234 153.149 172.254 153.909C172.278 155.014 171.873 156.072 171.616 157.143C171.4 158.12 171.255 159.111 171.182 160.11C171.149 160.307 171.161 160.51 171.218 160.702C171.246 160.795 171.305 160.876 171.386 160.93C171.466 160.985 171.563 161.01 171.66 161.001C171.728 160.978 171.791 160.941 171.845 160.893C171.898 160.845 171.942 160.787 171.973 160.721C172.261 160.241 172.357 159.67 172.242 159.122C172.472 159.17 172.591 159.435 172.647 159.675C172.794 160.298 172.759 160.951 172.545 161.554C172.402 161.957 172.181 162.329 172.06 162.744C172.016 162.873 172.016 163.013 172.06 163.142C172.181 163.421 172.564 163.402 172.841 163.3C173.744 162.931 174.478 162.239 174.899 161.358C175.329 160.481 175.536 159.512 175.503 158.536Z" fill="url(#paint0_linear_86_8267)"/>
<path d="M161.357 206.488C161.097 206.801 160.654 206.864 160.251 206.905C159.732 206.981 159.204 206.99 158.682 206.935C158.067 206.81 157.473 206.596 156.92 206.299L155.891 205.813C155.423 205.587 153.823 204.232 153.537 203.793C153.251 203.354 153.28 202.662 153.731 202.402C153.86 202.341 153.993 202.289 154.129 202.246C154.885 201.945 156.418 202.098 157.223 201.982C157.622 201.963 158.018 202.056 158.367 202.251C159.162 202.603 160.564 202.883 160.911 203.778C161.18 204.468 161.917 205.806 161.357 206.488Z" fill="#2F2E41"/>
<path d="M167.067 205.823C167.327 206.136 167.771 206.199 168.173 206.24C169.32 206.455 170.505 206.238 171.502 205.631L172.53 205.145C173.001 204.919 174.601 203.565 174.887 203.125C175.173 202.686 175.144 201.991 174.691 201.734C174.563 201.672 174.431 201.62 174.296 201.579C173.539 201.278 172.007 201.431 171.202 201.314C170.802 201.294 170.404 201.388 170.055 201.584C169.262 201.936 167.872 202.215 167.513 203.111C167.237 203.803 166.497 205.14 167.067 205.823Z" fill="#2F2E41"/>
<path d="M169.567 156.732C169.815 157.209 170.031 157.702 170.215 158.208C172.416 164.035 172.601 170.41 172.693 176.642C172.685 177.656 172.742 178.669 172.865 179.675C172.957 180.313 173.107 180.957 173.008 181.595C172.928 182.146 172.669 182.69 172.766 183.236C172.812 183.479 172.928 183.722 172.974 183.965C173.01 184.234 173.003 184.507 172.952 184.773L172.659 186.973C172.489 188.225 172.101 189.43 172.123 190.695C172.138 191.556 172.152 192.418 172.247 193.275C172.387 194.139 172.484 195.009 172.535 195.883C172.535 196.538 172.453 197.191 172.395 197.844C172.313 198.766 172.294 199.693 172.339 200.617C172.373 201.328 172.455 202.074 172.824 202.673C172.399 203.28 171.982 203.824 171.306 204.13C169.931 204.732 168.352 204.528 166.866 204.312C166.948 204.038 167.075 203.727 166.956 203.465C166.887 203.338 166.801 203.221 166.701 203.118C166.378 202.655 166.152 202.131 166.039 201.578C165.86 200.92 165.68 200.214 166.039 199.585C166.165 199.364 166.222 199.11 166.202 198.857C165.894 194.73 164.975 190.447 165.821 186.39C165.911 185.958 166.017 185.526 166.063 185.086C166.109 184.454 166.117 183.821 166.088 183.188L166.097 182.282C166.054 181.343 166.097 180.379 165.903 179.449C165.77 178.784 165.518 178.114 165.828 177.434C165.895 177.279 165.926 177.111 165.918 176.943C165.91 176.775 165.863 176.61 165.782 176.463C165.129 175.317 164.604 174.103 164.216 172.843C164.136 172.491 164.025 172.146 163.886 171.813C163.697 171.462 163.48 171.127 163.236 170.811C162.509 169.74 162.058 168.499 161.626 167.276C161.672 167.162 161.626 167.006 161.517 167.033C161.458 167.048 161.403 167.074 161.354 167.11C161.305 167.146 161.264 167.192 161.233 167.244C160.642 168.041 160.591 169.104 160.564 170.099C160.52 171.022 160.536 171.947 160.613 172.867C160.661 173.353 160.746 173.838 160.79 174.324C160.847 175.225 160.832 176.129 160.746 177.028L160.448 181.432C160.405 181.798 160.426 182.169 160.511 182.527C160.705 183.147 160.8 183.794 160.792 184.443C160.716 187.114 160.95 189.785 161.49 192.401C161.636 193.13 161.808 193.843 161.934 194.569C162.186 196.291 162.311 198.029 162.307 199.77C162.334 200.84 162.351 201.955 161.929 202.926C161.764 203.231 161.643 203.558 161.57 203.897C161.57 204.071 161.547 204.244 161.502 204.412C161.379 204.73 161.017 204.866 160.676 204.938C160.049 205.075 159.407 205.12 158.767 205.074C158.617 205.073 158.47 205.04 158.333 204.977C158.091 204.854 157.97 204.591 157.788 204.395C157.397 203.967 156.747 203.836 156.391 203.38C155.945 202.807 156.132 201.979 156.391 201.304C156.65 200.629 156.983 199.898 156.755 199.209C156.486 198.4 155.542 197.963 155.276 197.148C156.003 193.86 154.214 190.461 154.366 187.099C154.403 186.315 154.538 185.538 154.541 184.754C154.541 182.734 153.675 180.767 153.813 178.752C154.18 173.632 152.436 168.519 151.699 163.438C151.558 162.68 151.506 161.908 151.544 161.138C151.653 159.866 152.242 158.684 152.95 157.623C153.459 156.863 154.07 156.118 154.912 155.763C155.605 155.469 156.381 155.472 157.133 155.477C159.01 155.491 160.887 155.506 162.763 155.54C164.041 155.521 165.316 155.635 166.57 155.88C167.586 156.11 168.537 156.584 169.567 156.732Z" fill="#2F2E41"/>
<g opacity="0.1">
<path opacity="0.1" d="M161.825 167.23C161.888 167.125 161.99 167.049 162.109 167.019C162.23 167.002 162.266 167.157 162.22 167.262C162.652 168.476 163.093 169.726 163.828 170.797C164.073 171.112 164.291 171.447 164.48 171.799C164.618 172.133 164.729 172.477 164.81 172.829C165.198 174.089 165.722 175.303 166.374 176.448C166.455 176.596 166.502 176.76 166.51 176.929C166.518 177.097 166.487 177.265 166.42 177.42C166.11 178.099 166.362 178.769 166.497 179.435C166.684 180.365 166.648 181.328 166.691 182.268C166.691 182.562 166.691 182.855 166.708 183.149C166.74 183.782 166.733 184.416 166.687 185.048C166.636 185.487 166.529 185.919 166.444 186.352C165.6 190.408 166.517 194.684 166.825 198.818C166.846 199.072 166.79 199.326 166.665 199.547C166.296 200.175 166.476 200.882 166.665 201.54C166.776 202.093 167.002 202.618 167.327 203.079C167.421 203.185 167.503 203.301 167.569 203.426C167.688 203.688 167.569 203.999 167.477 204.274C168.134 204.379 168.796 204.45 169.461 204.485C168.598 204.492 167.737 204.421 166.888 204.274C166.97 203.999 167.096 203.688 166.978 203.426C166.909 203.3 166.823 203.183 166.723 203.079C166.4 202.617 166.174 202.093 166.061 201.54C165.882 200.882 165.702 200.175 166.061 199.547C166.187 199.326 166.244 199.072 166.223 198.818C165.916 194.691 164.997 190.408 165.843 186.352C165.932 185.919 166.039 185.487 166.085 185.048C166.131 184.416 166.139 183.782 166.109 183.149C166.109 182.855 166.097 182.562 166.09 182.268C166.046 181.328 166.09 180.365 165.896 179.435C165.763 178.769 165.511 178.099 165.821 177.42C165.888 177.265 165.918 177.097 165.91 176.929C165.902 176.76 165.856 176.596 165.775 176.448C165.122 175.303 164.596 174.089 164.208 172.829C164.127 172.477 164.017 172.133 163.879 171.799C163.69 171.448 163.472 171.112 163.229 170.797C162.526 169.774 162.092 168.599 161.679 167.429C161.733 167.368 161.776 167.298 161.825 167.23Z" fill="black"/>
</g>
<path d="M139.245 133.389C139.063 132.498 139.408 131.543 139.139 130.677C139.042 130.364 138.804 130.038 138.477 130.045C138.149 130.053 137.943 130.366 137.662 130.514C137.208 130.757 136.656 130.536 136.207 130.298C135.758 130.06 135.237 129.788 134.752 129.931C134.694 130.242 134.903 130.536 135.13 130.752C135.38 130.943 135.588 131.185 135.739 131.461C135.853 131.747 135.8 132.068 135.824 132.376C135.875 133.08 136.309 133.69 136.767 134.238C137.485 135.123 138.249 135.969 139.054 136.775C139.054 136.775 140.266 135.26 140.249 134.996C140.232 134.731 139.818 134.51 139.667 134.311C139.46 134.039 139.316 133.723 139.245 133.389Z" fill="#A1616A"/>
<path d="M175.632 152.034C175.74 152.317 175.822 152.61 175.874 152.908C176.189 154.438 176.388 155.989 176.585 157.538C176.635 157.951 176.689 158.366 176.703 158.781C176.76 159.771 176.557 160.757 176.114 161.644C175.667 162.536 174.904 163.228 173.973 163.586C173.687 163.688 173.287 163.707 173.161 163.431C173.116 163.302 173.116 163.163 173.161 163.035C173.275 162.622 173.505 162.251 173.646 161.85C173.867 161.252 173.904 160.6 173.752 159.981C173.694 159.738 173.571 159.478 173.331 159.43C173.45 159.977 173.349 160.549 173.049 161.022C173.016 161.088 172.97 161.146 172.915 161.193C172.859 161.241 172.794 161.277 172.724 161.299C172.625 161.309 172.526 161.285 172.442 161.232C172.358 161.178 172.296 161.097 172.264 161.003C172.205 160.812 172.193 160.61 172.227 160.413C172.303 159.419 172.454 158.432 172.678 157.461C172.945 156.395 173.369 155.344 173.34 154.244C173.316 153.248 172.921 152.27 173.032 151.282C173.03 151.227 173.047 151.173 173.08 151.129C173.112 151.085 173.159 151.053 173.212 151.039C173.49 150.925 173.776 150.83 174.068 150.755C174.24 150.711 174.827 150.512 174.991 150.6C175.156 150.687 175.166 151.117 175.234 151.267C175.362 151.517 175.52 151.765 175.632 152.034Z" fill="#A1616A"/>
<path d="M156.008 122.537C158.251 122.537 160.069 120.716 160.069 118.47C160.069 116.224 158.251 114.403 156.008 114.403C153.765 114.403 151.946 116.224 151.946 118.47C151.946 120.716 153.765 122.537 156.008 122.537Z" fill="#A1616A"/>
<path d="M159.648 121.412C159.646 121.672 159.666 121.931 159.708 122.187C159.765 122.446 159.846 122.699 159.951 122.942C160.086 123.339 160.277 123.715 160.518 124.059C160.763 124.405 161.131 124.645 161.546 124.729C158.769 126.033 155.805 126.89 152.761 127.271C153.24 126.952 153.639 126.525 153.925 126.025C154.078 125.705 154.182 125.364 154.233 125.013C154.493 123.542 154.362 122.029 153.852 120.626C153.801 120.49 153.753 120.32 153.852 120.206C153.894 120.165 153.943 120.134 153.998 120.113C155.203 119.601 156.506 119.357 157.814 119.4C158.149 119.4 158.484 119.417 158.818 119.441C158.998 119.456 159.393 119.417 159.546 119.548C159.698 119.679 159.631 120.194 159.635 120.405L159.648 121.412Z" fill="#A1616A"/>
<path d="M161.796 124.379C161.198 123.613 160.362 123.069 159.419 122.834C158.477 122.599 157.484 122.687 156.597 123.082C154.657 124.007 153.712 126.239 152.012 127.53C151.625 127.82 151.213 128.074 150.78 128.29C150.525 128.431 150.253 128.538 149.97 128.611C149.653 128.681 149.323 128.671 149 128.746C148.397 128.924 147.884 129.323 147.562 129.863C147.404 130.146 147.227 130.419 147.034 130.679C146.857 130.89 146.636 131.063 146.449 131.264C145.773 131.992 145.589 133.036 145.436 134.017C144.906 134.575 144.329 135.084 143.709 135.539C143.515 135.689 143.299 135.809 143.069 135.894C142.475 136.088 141.818 135.843 141.311 135.476C140.805 135.11 140.392 134.627 139.893 134.262C139.435 134.918 138.954 135.578 138.465 136.205C138.391 136.327 138.278 136.419 138.145 136.467C138.052 136.778 138.273 137.098 138.438 137.375L139.323 138.866C139.617 139.408 139.976 139.911 140.392 140.366C140.822 140.813 141.401 141.086 142.019 141.131C142.41 141.127 142.797 141.052 143.161 140.91C144.859 140.342 146.398 139.436 148.011 138.664C148.302 138.498 148.627 138.403 148.961 138.385C149.129 138.381 149.292 138.432 149.428 138.53C149.563 138.627 149.664 138.766 149.713 138.926C149.897 139.859 150.079 140.786 150.331 141.699C150.572 142.563 150.795 143.43 150.998 144.299C151.135 144.833 151.232 145.375 151.289 145.923C151.316 146.234 151.318 146.545 151.323 146.858L151.357 150.626C151.357 151.034 151.129 151.286 150.95 151.65C150.679 152.217 150.639 152.866 150.836 153.462C150.935 153.755 151.093 154.027 151.204 154.319C151.471 155.02 151.461 155.792 151.447 156.542L151.415 158.261C151.406 158.333 151.419 158.406 151.452 158.47C151.556 158.633 151.808 158.538 151.968 158.426L152.761 157.883C153.836 158.031 154.921 158.084 156.005 158.04C159.087 157.997 162.172 158.118 165.246 158.334C166.274 158.407 167.334 158.485 168.304 158.142C168.789 157.968 169.25 157.688 169.759 157.55C169.967 157.516 170.164 157.433 170.333 157.307C170.615 157.047 170.54 156.579 170.426 156.224C170.324 155.904 170.21 155.586 170.081 155.275C169.951 154.989 169.844 154.693 169.761 154.389C169.608 153.704 169.761 152.91 169.332 152.352C168.377 151.102 169.053 149.176 168.651 147.654C168.522 147.169 168.331 146.683 168.209 146.198C168.132 145.887 168.083 145.571 168.037 145.256C167.91 144.572 167.847 143.878 167.85 143.182C167.85 142.835 167.906 142.488 167.95 142.143L168.253 139.744C168.631 140.454 168.894 141.22 169.034 142.012C169.309 143.196 169.649 144.364 170.052 145.51C170.28 146.202 170.508 146.892 170.755 147.579C170.914 147.971 171.035 148.378 171.117 148.793C171.17 149.125 171.172 149.465 171.211 149.798C171.293 150.515 171.542 151.203 171.939 151.806C172.013 151.946 172.135 152.054 172.283 152.112C172.381 152.133 172.483 152.133 172.581 152.112C173.654 151.9 174.691 151.54 175.666 151.043C175.873 150.957 176.053 150.816 176.187 150.636C176.449 150.208 176.155 149.677 176.027 149.191C175.898 148.705 175.923 148.048 175.515 147.7C174.092 146.486 174.788 144.027 174.087 142.298C173.961 141.995 173.815 141.701 173.709 141.39C173.626 141.148 173.566 140.905 173.505 140.662C173.009 138.65 172.477 136.646 171.91 134.648C171.323 132.58 171.386 130.427 170.646 128.407C170.507 127.985 170.326 127.578 170.106 127.193C169.858 126.79 169.527 126.445 169.136 126.18C168.061 125.469 166.98 124.864 165.717 124.607C164.453 124.35 163.081 124.364 161.796 124.379Z" fill="#3F3D56"/>
<path d="M152.317 119.465C151.772 119.171 151.915 118.37 151.832 117.766C151.641 116.501 150.217 115.753 149.893 114.52C150.277 114.568 150.667 114.512 151.023 114.359C151.091 113.95 151.01 113.53 150.795 113.175C151.966 112.689 152.916 111.764 154.104 111.334C155.603 110.793 157.257 111.126 158.779 111.628C159.533 111.871 160.317 112.204 160.773 112.854C161.272 113.57 161.258 114.51 161.238 115.384C161.197 116.753 161.141 118.171 160.532 119.397C159.759 120.958 157.565 122.403 155.751 121.98C154.999 121.806 154.781 121.33 154.458 120.674C154.26 120.266 154.187 119.793 153.731 119.579C153.275 119.366 152.761 119.703 152.317 119.465Z" fill="#3F3D56"/>
<g opacity="0.1">
<path opacity="0.1" d="M151.435 156.832C151.434 156.84 151.434 156.847 151.435 156.854C151.539 157.017 151.791 156.922 151.951 156.81L152.756 156.254C153.831 156.402 154.917 156.454 156.001 156.41C159.082 156.366 162.167 156.488 165.241 156.704C166.269 156.776 167.329 156.854 168.299 156.512C168.784 156.337 169.245 156.06 169.754 155.919C169.93 155.887 170.099 155.826 170.256 155.74C170.314 155.9 170.37 156.06 170.421 156.225C170.535 156.592 170.61 157.048 170.329 157.308C170.159 157.434 169.962 157.517 169.754 157.551C169.249 157.689 168.784 157.969 168.299 158.143C167.329 158.486 166.269 158.408 165.241 158.335C162.167 158.119 159.082 157.998 156.001 158.041C154.918 158.085 153.834 158.032 152.761 157.884L151.956 158.442C151.796 158.554 151.544 158.648 151.44 158.486C151.407 158.421 151.394 158.349 151.403 158.277C151.414 157.796 151.425 157.315 151.435 156.832Z" fill="black"/>
<path opacity="0.1" d="M169.034 142.008C168.894 141.216 168.631 140.45 168.253 139.74L167.95 142.139C167.93 142.29 167.911 142.44 167.894 142.591C167.855 142.246 167.841 141.899 167.85 141.552C167.85 141.204 167.906 140.857 167.95 140.512L168.253 138.114C168.631 138.824 168.894 139.589 169.034 140.381C169.309 141.565 169.649 142.733 170.052 143.88C170.28 144.572 170.508 145.264 170.755 145.948C170.913 146.341 171.034 146.747 171.117 147.162C171.17 147.495 171.172 147.835 171.211 148.167C171.291 148.885 171.54 149.573 171.939 150.175C172.011 150.316 172.133 150.424 172.281 150.481C172.38 150.499 172.481 150.495 172.579 150.469C173.651 150.257 174.689 149.897 175.663 149.401C175.792 149.337 175.913 149.26 176.024 149.17C176.153 149.656 176.446 150.187 176.184 150.615C176.05 150.795 175.87 150.935 175.663 151.022C174.689 151.519 173.651 151.879 172.579 152.091C172.481 152.112 172.379 152.112 172.281 152.091C172.133 152.034 172.011 151.925 171.939 151.785C171.541 151.183 171.291 150.494 171.211 149.777C171.172 149.444 171.17 149.104 171.117 148.772C171.035 148.357 170.914 147.95 170.755 147.558C170.513 146.871 170.27 146.181 170.052 145.489C169.65 144.348 169.31 143.186 169.034 142.008Z" fill="black"/>
<path opacity="0.1" d="M168.784 148.619C168.784 148.725 168.784 148.835 168.784 148.944C168.789 148.835 168.786 148.728 168.784 148.619Z" fill="black"/>
<path opacity="0.1" d="M151.197 152.702C151.464 153.404 151.454 154.176 151.439 154.926C151.439 155.123 151.439 155.317 151.439 155.514C151.419 155.109 151.337 154.709 151.197 154.329C151.085 154.038 150.928 153.766 150.828 153.472C150.659 152.958 150.666 152.402 150.848 151.892C150.947 152.168 151.09 152.428 151.197 152.702Z" fill="black"/>
<path opacity="0.1" d="M138.469 136.191L138.608 136.011L139.335 137.225C139.628 137.767 139.988 138.271 140.404 138.726C140.829 139.181 141.407 139.462 142.027 139.515C142.417 139.511 142.804 139.437 143.169 139.296C144.866 138.726 146.406 137.82 148.018 137.048C148.304 136.882 148.624 136.784 148.954 136.761C149.121 136.758 149.285 136.809 149.421 136.908C149.556 137.006 149.656 137.145 149.706 137.305C149.89 138.235 150.072 139.163 150.324 140.075C150.565 140.94 150.787 141.806 150.991 142.676C151.128 143.209 151.225 143.752 151.282 144.3C151.309 144.611 151.311 144.924 151.313 145.235L151.35 149.005C151.35 149.06 151.345 149.116 151.335 149.17L151.313 146.861C151.313 146.548 151.313 146.237 151.282 145.926C151.225 145.379 151.128 144.836 150.991 144.302C150.784 143.433 150.562 142.566 150.324 141.702C150.082 140.789 149.89 139.862 149.706 138.929C149.656 138.77 149.556 138.63 149.421 138.533C149.285 138.435 149.121 138.384 148.954 138.388C148.62 138.406 148.295 138.502 148.004 138.667C146.398 139.439 144.851 140.345 143.154 140.913C142.79 141.055 142.403 141.13 142.012 141.134C141.392 141.081 140.814 140.8 140.39 140.345C139.974 139.89 139.614 139.386 139.321 138.844C139.027 138.347 138.731 137.852 138.435 137.354C138.271 137.077 138.05 136.757 138.142 136.446C138.277 136.401 138.393 136.311 138.469 136.191Z" fill="black"/>
</g>
<g opacity="0.1">
<path opacity="0.1" d="M151.003 113.762C150.967 113.552 150.891 113.35 150.78 113.167C150.848 113.14 150.916 113.111 150.984 113.08C151.036 113.304 151.043 113.536 151.003 113.762Z" fill="black"/>
<path opacity="0.1" d="M151.823 117.166C151.915 117.781 151.772 118.579 152.308 118.866C152.749 119.109 153.277 118.766 153.712 118.975C154.146 119.184 154.23 119.662 154.439 120.07C154.757 120.725 154.98 121.199 155.731 121.376C157.545 121.799 159.74 120.352 160.513 118.791C161.122 117.564 161.177 116.147 161.219 114.777C161.219 114.709 161.219 114.644 161.219 114.576C161.219 114.84 161.219 115.108 161.219 115.37C161.177 116.739 161.122 118.157 160.513 119.383C159.74 120.944 157.545 122.389 155.731 121.966C154.98 121.791 154.761 121.315 154.439 120.66C154.24 120.252 154.167 119.779 153.712 119.565C153.256 119.351 152.742 119.696 152.308 119.458C151.762 119.164 151.905 118.363 151.823 117.759C151.631 116.494 150.208 115.746 149.883 114.513C149.97 114.524 150.059 114.53 150.147 114.53C150.668 115.43 151.665 116.125 151.823 117.166Z" fill="black"/>
</g>
<path d="M57.0891 187.242C56.4218 186.882 55.7028 186.627 54.9577 186.487C55.4985 186.412 56.0322 186.292 56.5532 186.128C57.9377 185.689 58.6361 185.101 58.1123 184.812C57.5886 184.523 56.0391 184.645 54.6546 185.084C54.1872 185.22 53.7402 185.418 53.3258 185.674C53.1827 185.37 52.7948 185.018 52.1862 184.683C50.9568 184.006 49.3031 183.666 48.4932 183.921C47.6833 184.176 48.0252 184.933 49.257 185.621C49.8584 185.944 50.5013 186.184 51.1678 186.332C50.7252 186.386 50.2863 186.467 49.8535 186.575C48.3477 186.936 47.4748 187.485 47.9137 187.789C48.3526 188.092 49.919 188.063 51.4272 187.701C51.9756 187.582 52.5068 187.393 53.0082 187.14C53.1318 187.454 53.5271 187.827 54.1672 188.179C55.3966 188.854 57.0503 189.197 57.8601 188.942C58.67 188.687 58.3184 187.917 57.0891 187.242Z" fill="#0098AC"/>
<path d="M39.0244 163.906C38.6054 163.681 38.1538 163.522 37.6859 163.435C38.0263 163.389 38.3622 163.313 38.6898 163.21C39.5554 162.935 39.9943 162.566 39.6597 162.387C39.325 162.207 38.3648 162.282 37.4968 162.556C37.2049 162.641 36.9259 162.765 36.6675 162.926C36.4902 162.653 36.2374 162.438 35.94 162.306C35.1714 161.882 34.136 161.668 33.6292 161.821C33.1224 161.974 33.3383 162.455 34.1142 162.879C34.496 163.082 34.904 163.232 35.3266 163.324C35.0485 163.357 34.7724 163.405 34.4997 163.469C33.5565 163.695 33.0109 164.04 33.2873 164.234C33.5638 164.428 34.5409 164.406 35.4842 164.181C35.8273 164.106 36.1597 163.989 36.4735 163.831C36.6417 164.119 36.8963 164.345 37.2009 164.479C37.972 164.904 39.0074 165.118 39.5142 164.965C40.021 164.812 39.7955 164.331 39.0244 163.906Z" fill="#0098AC"/>
<path d="M187.064 199.665C191.389 199.665 194.894 198.99 194.894 198.158C194.894 197.325 191.389 196.65 187.064 196.65C182.74 196.65 179.235 197.325 179.235 198.158C179.235 198.99 182.74 199.665 187.064 199.665Z" fill="#0098AC"/>
<path d="M186.933 198.711C187.437 198.711 187.845 198.176 187.845 197.517C187.845 196.857 187.437 196.322 186.933 196.322C186.43 196.322 186.022 196.857 186.022 197.517C186.022 198.176 186.43 198.711 186.933 198.711Z" fill="#3F3D56"/>
<path d="M186.933 197.252C187.437 197.252 187.845 196.717 187.845 196.058C187.845 195.398 187.437 194.863 186.933 194.863C186.43 194.863 186.022 195.398 186.022 196.058C186.022 196.717 186.43 197.252 186.933 197.252Z" fill="#3F3D56"/>
<path d="M186.933 195.791C187.437 195.791 187.845 195.256 187.845 194.596C187.845 193.937 187.437 193.402 186.933 193.402C186.43 193.402 186.022 193.937 186.022 194.596C186.022 195.256 186.43 195.791 186.933 195.791Z" fill="#3F3D56"/>
<path d="M186.933 194.331C187.437 194.331 187.845 193.797 187.845 193.137C187.845 192.477 187.437 191.942 186.933 191.942C186.43 191.942 186.022 192.477 186.022 193.137C186.022 193.797 186.43 194.331 186.933 194.331Z" fill="#3F3D56"/>
<path d="M186.933 192.87C187.437 192.87 187.845 192.335 187.845 191.675C187.845 191.016 187.437 190.481 186.933 190.481C186.43 190.481 186.022 191.016 186.022 191.675C186.022 192.335 186.43 192.87 186.933 192.87Z" fill="#3F3D56"/>
<path d="M186.933 191.411C187.437 191.411 187.845 190.877 187.845 190.217C187.845 189.557 187.437 189.022 186.933 189.022C186.43 189.022 186.022 189.557 186.022 190.217C186.022 190.877 186.43 191.411 186.933 191.411Z" fill="#3F3D56"/>
<path d="M186.933 189.95C187.437 189.95 187.845 189.415 187.845 188.755C187.845 188.095 187.437 187.561 186.933 187.561C186.43 187.561 186.022 188.095 186.022 188.755C186.022 189.415 186.43 189.95 186.933 189.95Z" fill="#3F3D56"/>
<path d="M190.345 178.762C190.469 178.603 190.583 178.436 190.685 178.262L188.289 177.869L190.879 177.888C191.127 177.347 191.263 176.76 191.277 176.165C191.292 175.569 191.185 174.977 190.963 174.424L187.486 176.23L190.692 173.87C190.391 173.352 189.987 172.902 189.505 172.547C189.023 172.192 188.473 171.94 187.889 171.807C187.306 171.674 186.701 171.662 186.113 171.773C185.525 171.884 184.966 172.114 184.471 172.45C183.975 172.787 183.554 173.221 183.234 173.727C182.913 174.233 182.7 174.799 182.607 175.391C182.515 175.983 182.545 176.588 182.695 177.168C182.846 177.748 183.114 178.29 183.483 178.762C183.289 179.01 183.121 179.278 182.983 179.561L186.094 181.178L182.777 180.063C182.625 180.516 182.547 180.99 182.547 181.467C182.545 182.447 182.875 183.4 183.483 184.169C182.977 184.814 182.663 185.588 182.575 186.403C182.488 187.218 182.632 188.042 182.99 188.779C183.348 189.516 183.906 190.138 184.6 190.573C185.294 191.008 186.096 191.238 186.915 191.238C187.734 191.238 188.536 191.008 189.231 190.573C189.925 190.138 190.483 189.516 190.841 188.779C191.199 188.042 191.342 187.218 191.255 186.403C191.168 185.588 190.853 184.814 190.347 184.169C190.953 183.398 191.282 182.446 191.282 181.465C191.281 180.484 190.951 179.532 190.345 178.762Z" fill="#0098AC"/>
<path opacity="0.1" d="M182.547 181.464C182.545 182.445 182.875 183.397 183.483 184.166C182.977 184.811 182.663 185.585 182.575 186.401C182.488 187.216 182.632 188.039 182.99 188.776C183.348 189.514 183.906 190.135 184.6 190.57C185.294 191.005 186.096 191.236 186.915 191.236C187.734 191.236 188.536 191.005 189.231 190.57C189.925 190.135 190.483 189.514 190.841 188.776C191.199 188.039 191.342 187.216 191.255 186.401C191.168 185.585 190.853 184.811 190.347 184.166C190.932 183.424 182.547 180.974 182.547 181.464Z" fill="black"/>
<defs>
<linearGradient id="paint0_linear_86_8267" x1="155.346" y1="206.974" x2="155.346" y2="110.558" gradientUnits="userSpaceOnUse">
<stop stop-color="#808080" stop-opacity="0.25"/>
<stop offset="0.54" stop-color="#808080" stop-opacity="0.12"/>
<stop offset="1" stop-color="#808080" stop-opacity="0.1"/>
</linearGradient>
</defs>
</svg>
