<svg width="252" height="178" viewBox="0 0 252 178" fill="none" xmlns="http://www.w3.org/2000/svg">
<g clip-path="url(#clip0_86_8318)">
<path opacity="0.1" d="M111.067 6.71965C101.094 2.8566 90.5575 -0.368361 79.8015 0.036914C63.9864 0.629737 48.8185 9.69454 41.3725 23.0018C35.0623 34.2762 34.284 47.4908 31.5667 60.0026C28.2137 75.4203 21.8017 90.0663 14.9507 104.393C11.2719 112.089 7.38938 119.951 6.78754 128.389C5.94815 140.098 11.8239 151.769 21.0415 159.56C30.259 167.351 42.4947 171.462 54.778 172.359C61.3144 172.835 68.145 172.393 73.9529 169.494C80.0933 166.428 84.5731 160.886 90.7385 157.864C96.4537 155.061 103.139 154.667 109.556 155.033C117.96 155.514 126.24 157.191 134.122 160.009C143.091 163.218 151.431 167.864 160.379 171.119C169.327 174.374 179.325 176.187 188.473 173.473C197.057 170.923 203.858 164.73 209.967 158.456C220.019 148.158 229.186 137.106 237.382 125.409C242.905 117.528 248.045 109.211 250.489 100.024C255.156 82.4587 248.731 62.6412 234.479 50.6575C222.678 40.7132 206.831 36.4018 191.319 33.7761C177.174 31.3897 160.818 31.241 147.797 25.0196C135.38 19.087 124.081 11.764 111.067 6.71965Z" fill="#0098AC"/>
<path d="M211.327 124.368L211.704 124.73L211.874 124.107L211.693 123.493H211.227L211.327 124.368Z" fill="#464A5F"/>
<path opacity="0.1" d="M211.327 124.368L211.704 124.73L211.874 124.107L211.693 123.493H211.227L211.327 124.368Z" fill="black"/>
<path d="M211.327 124.368L211.693 124.741L211.327 125.15L210.933 125.01L210.836 124.829L211.327 124.368Z" fill="#9C9CA1"/>
<path opacity="0.1" d="M211.327 124.368L211.693 124.741L211.327 125.15L210.933 125.01L210.836 124.829L211.327 124.368Z" fill="black"/>
<path d="M141.682 58.8809L100.304 98.3047C99.5606 99.0135 99.1418 99.9742 99.1397 100.977C99.1375 101.979 99.5523 102.941 100.293 103.653L163.716 164.563C164.458 165.275 165.465 165.677 166.518 165.682C167.571 165.688 168.582 165.295 169.332 164.591L211.327 125.152L141.682 58.8809Z" fill="#9C9CA1"/>
<path opacity="0.1" d="M141.682 58.8809L100.304 98.3047C99.5606 99.0135 99.1418 99.9742 99.1397 100.977C99.1375 101.979 99.5523 102.941 100.293 103.653L163.716 164.563C164.458 165.275 165.465 165.677 166.518 165.682C167.571 165.688 168.582 165.295 169.332 164.591L211.327 125.152L141.682 58.8809Z" fill="black"/>
<path d="M141.682 58.0991L100.304 97.5229C99.5606 98.2318 99.1418 99.1925 99.1397 100.195C99.1375 101.197 99.5523 102.16 100.293 102.871L163.716 163.779C164.458 164.491 165.465 164.894 166.517 164.9C167.57 164.905 168.582 164.513 169.332 163.809L211.327 124.36L141.682 58.0991Z" fill="#9C9CA1"/>
<path d="M146.026 30.3871L142.229 57.8381L211.874 124.107L215.874 96.2034C215.965 95.5792 215.9 94.9435 215.687 94.3471C215.473 93.7508 215.116 93.2105 214.643 92.7694L147.446 29.9172C147.334 29.8136 147.195 29.7417 147.042 29.7095C146.89 29.6773 146.731 29.686 146.584 29.7348C146.437 29.7835 146.306 29.8703 146.208 29.9855C146.109 30.1007 146.046 30.2398 146.026 30.3871Z" fill="#464A5F"/>
<path opacity="0.1" d="M146.026 30.3871L142.229 57.8381L211.874 124.107L215.874 96.2034C215.965 95.5792 215.9 94.9435 215.687 94.3471C215.473 93.7508 215.116 93.2105 214.643 92.7694L147.446 29.9172C147.334 29.8136 147.195 29.7417 147.042 29.7095C146.89 29.6773 146.731 29.686 146.584 29.7348C146.437 29.7835 146.306 29.8703 146.208 29.9855C146.109 30.1007 146.046 30.2398 146.026 30.3871Z" fill="black"/>
<path d="M145.478 30.6479L141.682 58.0988L211.327 124.368L215.327 96.4642C215.417 95.84 215.353 95.2042 215.139 94.6079C214.926 94.0116 214.568 93.4712 214.096 93.0301L146.899 30.1779C146.787 30.0743 146.647 30.0024 146.495 29.9702C146.343 29.938 146.184 29.9468 146.037 29.9955C145.889 30.0443 145.759 30.1311 145.66 30.2463C145.562 30.3615 145.499 30.5005 145.478 30.6479Z" fill="#464A5F"/>
<g opacity="0.1">
<path opacity="0.1" d="M141.867 70.7142L139.349 73.135C139.274 73.2057 139.215 73.2897 139.175 73.3822C139.135 73.4747 139.114 73.5738 139.114 73.674C139.114 73.7741 139.135 73.8732 139.175 73.9657C139.215 74.0582 139.274 74.1422 139.349 74.2129L141.901 76.7071C142.048 76.8527 142.25 76.9367 142.462 76.9407C142.674 76.9448 142.879 76.8685 143.032 76.7286L145.539 74.4737C145.691 74.3366 145.781 74.1478 145.789 73.9481C145.796 73.7485 145.721 73.554 145.58 73.4067L143.028 70.7465C142.955 70.6692 142.867 70.6067 142.769 70.5629C142.67 70.5192 142.563 70.4951 142.455 70.492C142.346 70.489 142.238 70.5071 142.137 70.5453C142.036 70.5835 141.944 70.641 141.867 70.7142Z" fill="black"/>
<path opacity="0.1" d="M146.56 75.1872L144.05 77.6059C143.904 77.7482 143.821 77.9399 143.821 78.1395C143.821 78.3391 143.904 78.5307 144.05 78.673L146.603 81.1672C146.675 81.2395 146.762 81.2975 146.859 81.3377C146.955 81.378 147.058 81.3997 147.164 81.4017C147.269 81.4038 147.373 81.386 147.471 81.3494C147.569 81.3129 147.658 81.2583 147.734 81.1887L150.241 78.936C150.395 78.7979 150.487 78.607 150.494 78.4051C150.502 78.2031 150.425 78.0065 150.281 77.8581L147.72 75.2044C147.647 75.1281 147.558 75.0668 147.459 75.0244C147.36 74.982 147.252 74.9592 147.144 74.9576C147.035 74.956 146.927 74.9755 146.827 75.015C146.726 75.0545 146.635 75.1131 146.56 75.1872Z" fill="black"/>
<path opacity="0.1" d="M151.487 79.8798L148.978 82.3007C148.832 82.4433 148.75 82.6348 148.75 82.8342C148.75 83.0337 148.832 83.2252 148.978 83.3678L151.532 85.862C151.68 86.0075 151.881 86.0916 152.093 86.0956C152.305 86.0997 152.511 86.0234 152.664 85.8835L155.17 83.6286C155.323 83.4915 155.413 83.3027 155.42 83.103C155.428 82.9034 155.353 82.7089 155.211 82.5615L152.659 79.9014C152.586 79.8231 152.497 79.76 152.397 79.7162C152.297 79.6723 152.188 79.6487 152.078 79.6466C151.968 79.6446 151.859 79.6643 151.757 79.7044C151.655 79.7445 151.563 79.8043 151.487 79.8798Z" fill="black"/>
<path opacity="0.1" d="M156.469 84.6294L153.963 87.0611C153.816 87.2037 153.734 87.3952 153.734 87.5946C153.734 87.7941 153.816 87.9856 153.963 88.1282L156.517 90.6223C156.664 90.7679 156.866 90.852 157.078 90.856C157.29 90.8601 157.495 90.7838 157.648 90.6439L160.153 88.389C160.306 88.2524 160.397 88.0637 160.405 87.8639C160.413 87.6641 160.338 87.4693 160.196 87.3219L157.63 84.651C157.557 84.5747 157.468 84.5133 157.369 84.4707C157.27 84.428 157.163 84.405 157.055 84.403C156.946 84.401 156.838 84.42 156.738 84.4589C156.637 84.4979 156.546 84.5559 156.469 84.6294Z" fill="black"/>
<path opacity="0.1" d="M161.454 89.3782L158.947 91.8034C158.797 91.9465 158.713 92.1403 158.713 92.3423C158.713 92.5444 158.797 92.7382 158.947 92.8813L161.501 95.3755C161.649 95.5211 161.85 95.6051 162.062 95.6091C162.274 95.6132 162.48 95.5369 162.633 95.397L165.137 93.1421C165.291 93.0055 165.381 92.8168 165.389 92.617C165.397 92.4172 165.322 92.2224 165.18 92.075L162.628 89.4149C162.556 89.3355 162.467 89.2712 162.368 89.226C162.268 89.1808 162.16 89.1557 162.049 89.1523C161.939 89.1488 161.829 89.1671 161.727 89.206C161.624 89.2449 161.531 89.3035 161.454 89.3782Z" fill="black"/>
<path opacity="0.1" d="M166.752 93.8231L163.637 96.8304C163.568 96.8972 163.53 96.987 163.53 97.0804C163.53 97.1739 163.568 97.2637 163.637 97.3305L166.775 100.394C166.845 100.459 166.939 100.496 167.038 100.496C167.136 100.496 167.23 100.459 167.3 100.394L170.415 97.5914C170.487 97.5271 170.529 97.4385 170.532 97.3448C170.536 97.2512 170.5 97.1601 170.434 97.0912L167.298 93.8231C167.263 93.7879 167.22 93.7597 167.173 93.7405C167.127 93.7213 167.076 93.7114 167.025 93.7114C166.974 93.7114 166.924 93.7213 166.877 93.7405C166.83 93.7597 166.788 93.7879 166.752 93.8231Z" fill="black"/>
<path opacity="0.1" d="M171.737 98.5728L168.622 101.591C168.553 101.657 168.515 101.747 168.515 101.84C168.515 101.933 168.553 102.022 168.622 102.089L171.76 105.154C171.83 105.219 171.924 105.256 172.022 105.256C172.12 105.256 172.214 105.219 172.285 105.154L175.4 102.352C175.472 102.287 175.514 102.199 175.517 102.105C175.521 102.012 175.485 101.92 175.418 101.852L172.282 98.5835C172.248 98.5475 172.206 98.5186 172.16 98.4984C172.113 98.4783 172.063 98.4674 172.012 98.4664C171.961 98.4654 171.91 98.4743 171.863 98.4926C171.816 98.5109 171.773 98.5381 171.737 98.5728Z" fill="black"/>
<path opacity="0.1" d="M176.149 102.776L173.033 105.794C172.965 105.861 172.927 105.95 172.927 106.043C172.927 106.136 172.965 106.226 173.033 106.292L176.172 109.357C176.242 109.423 176.336 109.459 176.434 109.459C176.532 109.459 176.626 109.423 176.696 109.357L179.812 106.555C179.884 106.491 179.926 106.402 179.929 106.308C179.932 106.215 179.897 106.124 179.83 106.055L176.692 102.798C176.658 102.761 176.618 102.732 176.572 102.711C176.526 102.69 176.476 102.678 176.425 102.676C176.375 102.674 176.324 102.682 176.276 102.699C176.229 102.716 176.186 102.742 176.149 102.776Z" fill="black"/>
<path opacity="0.1" d="M181.09 107.484L177.975 110.489C177.905 110.556 177.867 110.646 177.867 110.74C177.867 110.833 177.905 110.923 177.975 110.99L181.113 114.053C181.183 114.119 181.277 114.156 181.375 114.156C181.473 114.156 181.568 114.119 181.638 114.053L184.753 111.25C184.824 111.186 184.866 111.097 184.869 111.004C184.872 110.91 184.837 110.819 184.771 110.75L181.635 107.482C181.6 107.447 181.558 107.419 181.511 107.4C181.464 107.381 181.413 107.371 181.362 107.372C181.311 107.372 181.261 107.382 181.214 107.401C181.167 107.421 181.125 107.449 181.09 107.484Z" fill="black"/>
<path opacity="0.1" d="M185.876 112.044L182.76 115.049C182.691 115.115 182.652 115.205 182.652 115.299C182.652 115.393 182.691 115.482 182.76 115.549L185.898 118.614C185.968 118.68 186.063 118.716 186.161 118.716C186.259 118.716 186.353 118.68 186.423 118.614L189.539 115.812C189.61 115.747 189.651 115.659 189.655 115.565C189.658 115.472 189.623 115.381 189.557 115.312L186.41 112.055C186.375 112.02 186.334 111.993 186.289 111.973C186.244 111.954 186.195 111.944 186.145 111.943C186.095 111.942 186.046 111.95 186 111.968C185.953 111.985 185.911 112.011 185.876 112.044Z" fill="black"/>
<path opacity="0.1" d="M190.661 116.595L187.541 119.613C187.472 119.679 187.434 119.769 187.434 119.862C187.434 119.955 187.472 120.044 187.541 120.111L190.679 123.176C190.749 123.242 190.843 123.278 190.941 123.278C191.039 123.278 191.133 123.242 191.204 123.176L194.319 120.374C194.391 120.31 194.433 120.221 194.436 120.127C194.439 120.034 194.404 119.943 194.337 119.874L191.201 116.606C191.167 116.57 191.126 116.542 191.08 116.522C191.034 116.503 190.984 116.492 190.933 116.491C190.883 116.49 190.833 116.499 190.786 116.516C190.739 116.534 190.696 116.561 190.661 116.595Z" fill="black"/>
<path opacity="0.1" d="M195.446 121.162L192.331 124.169C192.262 124.236 192.224 124.326 192.224 124.419C192.224 124.513 192.262 124.603 192.331 124.669L195.46 127.733C195.528 127.799 195.622 127.838 195.72 127.84C195.818 127.842 195.913 127.807 195.985 127.743L199.1 124.941C199.172 124.877 199.214 124.788 199.217 124.695C199.22 124.601 199.185 124.51 199.118 124.441L195.982 121.173C195.948 121.138 195.907 121.11 195.861 121.091C195.816 121.072 195.766 121.061 195.717 121.06C195.667 121.059 195.617 121.068 195.57 121.085C195.524 121.103 195.482 121.129 195.446 121.162Z" fill="black"/>
<path opacity="0.1" d="M137.313 75.0556L134.806 77.4743C134.731 77.545 134.672 77.629 134.632 77.7215C134.592 77.814 134.571 77.9131 134.571 78.0133C134.571 78.1134 134.592 78.2126 134.632 78.305C134.672 78.3975 134.731 78.4815 134.806 78.5522L137.36 81.0464C137.433 81.1187 137.52 81.1767 137.616 81.2169C137.712 81.2572 137.816 81.2789 137.921 81.2809C138.026 81.2829 138.131 81.2652 138.229 81.2286C138.326 81.1921 138.416 81.1375 138.492 81.0679L140.996 78.8152C141.152 78.6776 141.244 78.4869 141.252 78.2847C141.26 78.0826 141.183 77.8858 141.039 77.7373L138.471 75.075C138.398 74.9992 138.309 74.9383 138.21 74.896C138.111 74.8538 138.005 74.831 137.896 74.8292C137.788 74.8274 137.68 74.8465 137.58 74.8855C137.48 74.9244 137.389 74.9823 137.313 75.0556Z" fill="black"/>
<path opacity="0.1" d="M127.357 84.539L124.848 86.9577C124.699 87.1007 124.615 87.2945 124.615 87.4966C124.615 87.6987 124.699 87.8925 124.848 88.0355L127.4 90.5103C127.547 90.6535 127.746 90.7362 127.955 90.7406C128.165 90.745 128.368 90.6708 128.52 90.534L131.027 88.2791C131.18 88.1423 131.27 87.9534 131.278 87.7536C131.286 87.5538 131.21 87.3592 131.068 87.2121L128.516 84.5605C128.443 84.4842 128.354 84.4229 128.255 84.3803C128.157 84.3377 128.05 84.3147 127.942 84.3126C127.833 84.3106 127.726 84.3297 127.625 84.3686C127.525 84.4075 127.434 84.4654 127.357 84.539Z" fill="black"/>
<path opacity="0.1" d="M142.005 79.5263L139.496 81.945C139.422 82.0157 139.363 82.0997 139.322 82.1921C139.282 82.2846 139.261 82.3838 139.261 82.4839C139.261 82.584 139.282 82.6832 139.322 82.7757C139.363 82.8681 139.422 82.9521 139.496 83.0228L142.048 85.517C142.195 85.6629 142.397 85.7473 142.609 85.7518C142.821 85.7562 143.026 85.6803 143.179 85.5407L145.684 83.2751C145.839 83.1369 145.93 82.946 145.938 82.7441C145.945 82.5422 145.869 82.3456 145.725 82.1972L143.173 79.5392C143.099 79.4618 143.009 79.3998 142.91 79.3569C142.81 79.3141 142.701 79.2913 142.592 79.2901C142.482 79.2889 142.374 79.3092 142.273 79.3499C142.172 79.3905 142.081 79.4505 142.005 79.5263Z" fill="black"/>
<path opacity="0.1" d="M146.931 84.2221L144.424 86.6408C144.277 86.7832 144.195 86.9748 144.195 87.1744C144.195 87.374 144.277 87.5656 144.424 87.7079L146.978 90.2021C147.051 90.2745 147.138 90.3324 147.234 90.3727C147.33 90.4129 147.434 90.4347 147.539 90.4367C147.644 90.4387 147.749 90.4209 147.847 90.3843C147.944 90.3478 148.034 90.2932 148.109 90.2237L150.614 87.9709C150.77 87.8334 150.862 87.6426 150.87 87.4405C150.878 87.2384 150.801 87.0415 150.657 86.8931L148.105 84.2329C148.031 84.1552 147.94 84.093 147.84 84.0501C147.739 84.0071 147.63 83.9844 147.52 83.9834C147.41 83.9824 147.301 84.0031 147.199 84.0442C147.098 84.0852 147.006 84.1458 146.931 84.2221Z" fill="black"/>
<path opacity="0.1" d="M151.915 88.9691L149.408 91.3899C149.261 91.5322 149.179 91.7239 149.179 91.9235C149.179 92.1231 149.261 92.3147 149.408 92.457L151.962 94.9512C152.108 95.0945 152.308 95.1772 152.518 95.1812C152.727 95.1853 152.93 95.1103 153.082 94.9727L155.589 92.72C155.745 92.5824 155.837 92.3916 155.845 92.1895C155.853 91.9874 155.776 91.7906 155.632 91.6421L153.075 89.0014C153.003 88.9246 152.915 88.8626 152.816 88.8192C152.718 88.7758 152.611 88.7519 152.502 88.7489C152.394 88.7458 152.286 88.7638 152.185 88.8016C152.084 88.8395 151.992 88.8964 151.915 88.9691Z" fill="black"/>
<path opacity="0.1" d="M132.21 88.859L129.701 91.2777C129.554 91.42 129.472 91.6116 129.472 91.8112C129.472 92.0108 129.554 92.2025 129.701 92.3448L132.253 94.839C132.326 94.9113 132.413 94.9693 132.509 95.0095C132.606 95.0498 132.709 95.0715 132.814 95.0735C132.92 95.0755 133.024 95.0578 133.122 95.0212C133.22 94.9847 133.309 94.93 133.385 94.8605L135.892 92.6078C136.046 92.4696 136.137 92.2788 136.145 92.0768C136.153 91.8749 136.076 91.6783 135.932 91.5299L133.38 88.8719C133.307 88.7942 133.217 88.7318 133.117 88.6888C133.017 88.6457 132.908 88.6228 132.798 88.6216C132.688 88.6204 132.58 88.6409 132.478 88.6817C132.377 88.7226 132.286 88.7829 132.21 88.859Z" fill="black"/>
<path opacity="0.1" d="M137.136 93.5518L134.629 95.9727C134.555 96.0434 134.496 96.1273 134.456 96.2198C134.415 96.3123 134.395 96.4115 134.395 96.5116C134.395 96.6117 134.415 96.7109 134.456 96.8033C134.496 96.8958 134.555 96.9798 134.629 97.0505L137.184 99.5447C137.256 99.617 137.343 99.675 137.44 99.7152C137.536 99.7555 137.64 99.7772 137.745 99.7792C137.85 99.7812 137.954 99.7635 138.052 99.7269C138.15 99.6904 138.239 99.6358 138.315 99.5662L140.82 97.3135C140.975 97.176 141.067 96.9852 141.075 96.7831C141.083 96.581 141.007 96.3841 140.863 96.2357L138.31 93.5755C138.237 93.497 138.148 93.4337 138.048 93.3897C137.948 93.3456 137.839 93.3217 137.729 93.3195C137.619 93.3173 137.509 93.3368 137.407 93.3767C137.305 93.4167 137.213 93.4763 137.136 93.5518Z" fill="black"/>
<path opacity="0.1" d="M142.12 98.3009L139.613 100.722C139.467 100.864 139.384 101.056 139.384 101.255C139.384 101.455 139.467 101.647 139.613 101.789L142.168 104.283C142.315 104.429 142.517 104.513 142.729 104.517C142.941 104.521 143.146 104.444 143.299 104.305L145.804 102.05C145.957 101.913 146.048 101.724 146.056 101.525C146.064 101.325 145.989 101.13 145.847 100.983L143.295 98.3224C143.221 98.2441 143.132 98.181 143.031 98.1371C142.931 98.0932 142.823 98.0695 142.712 98.0675C142.602 98.0655 142.493 98.0852 142.391 98.1253C142.289 98.1655 142.197 98.2253 142.12 98.3009Z" fill="black"/>
<path opacity="0.1" d="M156.899 93.7176L154.393 96.1384C154.246 96.2807 154.163 96.4723 154.163 96.6719C154.163 96.8715 154.246 97.0632 154.393 97.2055L156.947 99.6996C157.02 99.772 157.107 99.8299 157.203 99.8702C157.299 99.9104 157.403 99.9322 157.508 99.9342C157.613 99.9362 157.717 99.9184 157.815 99.8819C157.913 99.8453 158.002 99.7907 158.078 99.7212L160.585 97.4685C160.662 97.4004 160.724 97.3184 160.768 97.2273C160.812 97.1362 160.837 97.0378 160.84 96.9376C160.844 96.8375 160.827 96.7376 160.79 96.6437C160.753 96.5499 160.698 96.4638 160.626 96.3906L158.058 93.7434C157.985 93.6668 157.897 93.6052 157.798 93.5622C157.7 93.5192 157.593 93.4958 157.484 93.4934C157.376 93.491 157.268 93.5096 157.168 93.5481C157.067 93.5867 156.976 93.6443 156.899 93.7176Z" fill="black"/>
<path opacity="0.1" d="M161.884 98.4667L159.374 100.888C159.228 101.03 159.145 101.222 159.145 101.421C159.145 101.621 159.228 101.812 159.374 101.955L161.929 104.449C162.002 104.521 162.089 104.579 162.185 104.619C162.281 104.66 162.385 104.681 162.49 104.683C162.595 104.685 162.699 104.668 162.797 104.631C162.895 104.595 162.984 104.54 163.06 104.47L165.567 102.216C165.72 102.079 165.81 101.89 165.818 101.69C165.825 101.49 165.75 101.296 165.608 101.148L163.042 98.4861C162.969 98.41 162.88 98.3489 162.781 98.3064C162.682 98.264 162.576 98.2412 162.467 98.2394C162.359 98.2376 162.251 98.2568 162.151 98.2959C162.051 98.335 161.96 98.3931 161.884 98.4667Z" fill="black"/>
<path opacity="0.1" d="M167.178 102.912L164.062 105.93C163.993 105.997 163.955 106.087 163.955 106.18C163.955 106.274 163.993 106.364 164.062 106.43L167.203 109.481C167.273 109.547 167.367 109.583 167.465 109.583C167.563 109.583 167.658 109.547 167.728 109.481L170.843 106.678C170.914 106.614 170.956 106.525 170.959 106.432C170.963 106.338 170.927 106.247 170.861 106.178L167.725 102.91C167.69 102.875 167.648 102.846 167.6 102.827C167.553 102.808 167.502 102.798 167.451 102.798C167.4 102.799 167.349 102.809 167.302 102.828C167.255 102.848 167.213 102.877 167.178 102.912Z" fill="black"/>
<path opacity="0.1" d="M171.594 107.109L168.479 110.127C168.41 110.194 168.371 110.284 168.371 110.377C168.371 110.471 168.41 110.561 168.479 110.628L171.617 113.691C171.687 113.757 171.781 113.794 171.879 113.794C171.978 113.794 172.072 113.757 172.142 113.691L175.257 110.888C175.328 110.824 175.37 110.735 175.373 110.642C175.377 110.548 175.342 110.457 175.276 110.388L172.14 107.12C172.105 107.084 172.064 107.055 172.017 107.035C171.971 107.015 171.921 107.004 171.869 107.003C171.818 107.002 171.768 107.011 171.72 107.029C171.673 107.047 171.63 107.075 171.594 107.109Z" fill="black"/>
<path opacity="0.1" d="M176.536 111.824L173.418 114.842C173.35 114.908 173.311 114.997 173.311 115.091C173.311 115.184 173.35 115.273 173.418 115.34L176.554 118.405C176.624 118.47 176.718 118.507 176.816 118.507C176.914 118.507 177.009 118.47 177.079 118.405L180.194 115.603C180.266 115.539 180.309 115.45 180.312 115.356C180.316 115.263 180.281 115.172 180.215 115.102L177.079 111.834C177.044 111.799 177.003 111.77 176.957 111.75C176.91 111.73 176.86 111.719 176.81 111.718C176.759 111.717 176.708 111.726 176.661 111.744C176.614 111.762 176.572 111.789 176.536 111.824Z" fill="black"/>
<path opacity="0.1" d="M181.321 116.379L178.205 119.397C178.136 119.463 178.098 119.553 178.098 119.647C178.098 119.741 178.136 119.83 178.205 119.897L181.341 122.96C181.412 123.026 181.506 123.062 181.605 123.062C181.703 123.062 181.798 123.026 181.869 122.96L184.982 120.158C185.054 120.094 185.096 120.005 185.1 119.912C185.104 119.818 185.069 119.727 185.002 119.658L181.866 116.39C181.832 116.354 181.79 116.325 181.744 116.305C181.697 116.284 181.647 116.274 181.596 116.273C181.545 116.272 181.494 116.28 181.447 116.299C181.4 116.317 181.357 116.344 181.321 116.379Z" fill="black"/>
<path opacity="0.1" d="M142.195 88.7338L139.686 91.1568C139.539 91.2991 139.457 91.4908 139.457 91.6904C139.457 91.89 139.539 92.0816 139.686 92.2239L142.24 94.7181C142.313 94.7907 142.4 94.8489 142.496 94.8893C142.592 94.9297 142.696 94.9515 142.801 94.9535C142.906 94.9555 143.011 94.9377 143.109 94.901C143.207 94.8642 143.296 94.8094 143.372 94.7396L145.879 92.4869C146.034 92.3491 146.125 92.1581 146.133 91.956C146.141 91.7539 146.064 91.5572 145.919 91.409L143.354 88.7553C143.281 88.6788 143.192 88.6172 143.093 88.5744C142.995 88.5316 142.888 88.5085 142.779 88.5065C142.671 88.5045 142.563 88.5236 142.463 88.5627C142.362 88.6018 142.271 88.66 142.195 88.7338Z" fill="black"/>
<path opacity="0.1" d="M147.18 93.4828L144.67 95.8993C144.523 96.0417 144.441 96.2333 144.441 96.4329C144.441 96.6325 144.523 96.8241 144.67 96.9664L147.225 99.4606C147.297 99.5332 147.384 99.5914 147.481 99.6318C147.577 99.6722 147.681 99.6941 147.786 99.6961C147.891 99.6981 147.995 99.6802 148.093 99.6435C148.191 99.6068 148.281 99.5519 148.356 99.4821L150.863 97.2294C151.018 97.0913 151.109 96.9004 151.117 96.6985C151.124 96.4966 151.048 96.3 150.904 96.1516L148.352 93.4935C148.278 93.4156 148.188 93.3532 148.087 93.3101C147.987 93.267 147.878 93.2442 147.768 93.2432C147.658 93.2422 147.549 93.263 147.447 93.3042C147.346 93.3454 147.255 93.4062 147.18 93.4828Z" fill="black"/>
<path opacity="0.1" d="M152.164 98.2314L149.655 100.642C149.508 100.784 149.426 100.975 149.426 101.175C149.426 101.375 149.508 101.566 149.655 101.709L152.207 104.203C152.28 104.275 152.367 104.333 152.463 104.373C152.559 104.414 152.663 104.435 152.768 104.437C152.873 104.439 152.977 104.422 153.075 104.385C153.173 104.348 153.262 104.294 153.338 104.224L155.845 101.972C156 101.833 156.091 101.643 156.098 101.441C156.106 101.239 156.03 101.042 155.886 100.894L153.334 98.2336C153.259 98.1569 153.169 98.0956 153.068 98.0537C152.968 98.0117 152.859 97.9899 152.749 97.9897C152.639 97.9895 152.531 98.0109 152.43 98.0525C152.329 98.0941 152.239 98.155 152.164 98.2314Z" fill="black"/>
<path opacity="0.1" d="M157.148 102.981L154.639 105.399C154.492 105.542 154.41 105.733 154.41 105.933C154.41 106.132 154.492 106.324 154.639 106.466L157.191 108.961C157.264 109.033 157.351 109.091 157.447 109.131C157.543 109.171 157.647 109.193 157.752 109.195C157.857 109.197 157.962 109.179 158.06 109.143C158.157 109.106 158.247 109.052 158.322 108.982L160.829 106.729C160.984 106.591 161.075 106.4 161.083 106.198C161.09 105.997 161.014 105.8 160.87 105.652L158.318 102.991C158.244 102.914 158.154 102.852 158.054 102.809C157.954 102.767 157.845 102.744 157.736 102.743C157.626 102.742 157.517 102.763 157.416 102.804C157.315 102.844 157.224 102.905 157.148 102.981Z" fill="black"/>
<path opacity="0.1" d="M162.447 107.426L159.329 110.431C159.261 110.498 159.222 110.588 159.222 110.681C159.222 110.775 159.261 110.865 159.329 110.931L162.465 113.995C162.535 114.061 162.629 114.097 162.728 114.097C162.826 114.097 162.92 114.061 162.99 113.995L166.106 111.192C166.177 111.128 166.22 111.04 166.224 110.946C166.227 110.853 166.192 110.761 166.126 110.692L162.99 107.422C162.955 107.387 162.913 107.359 162.866 107.34C162.819 107.322 162.768 107.312 162.718 107.313C162.667 107.313 162.617 107.323 162.57 107.343C162.523 107.362 162.482 107.391 162.447 107.426Z" fill="black"/>
<path opacity="0.1" d="M166.859 111.636L163.741 114.641C163.673 114.708 163.634 114.798 163.634 114.891C163.634 114.985 163.673 115.074 163.741 115.141L166.877 118.205C166.947 118.27 167.041 118.307 167.14 118.307C167.238 118.307 167.332 118.27 167.402 118.205L170.518 115.402C170.589 115.338 170.632 115.25 170.636 115.156C170.639 115.062 170.604 114.971 170.538 114.902L167.404 111.636C167.369 111.601 167.327 111.572 167.28 111.553C167.233 111.533 167.183 111.523 167.132 111.523C167.08 111.523 167.03 111.533 166.983 111.553C166.936 111.572 166.894 111.601 166.859 111.636Z" fill="black"/>
<path opacity="0.1" d="M171.798 116.336L168.683 119.354C168.614 119.42 168.576 119.51 168.576 119.604C168.576 119.697 168.614 119.787 168.683 119.854L171.818 122.917C171.887 122.984 171.98 123.023 172.079 123.025C172.177 123.027 172.272 122.992 172.343 122.928L175.459 120.125C175.531 120.061 175.573 119.973 175.577 119.879C175.581 119.786 175.546 119.694 175.479 119.625L172.341 116.357C172.308 116.321 172.267 116.291 172.221 116.27C172.175 116.249 172.125 116.238 172.074 116.236C172.024 116.234 171.973 116.241 171.926 116.259C171.878 116.276 171.835 116.302 171.798 116.336Z" fill="black"/>
<path opacity="0.1" d="M176.586 120.906L173.468 123.902C173.399 123.969 173.361 124.059 173.361 124.152C173.361 124.246 173.399 124.336 173.468 124.402L176.604 127.466C176.672 127.533 176.765 127.572 176.864 127.574C176.962 127.576 177.057 127.541 177.129 127.477L180.244 124.674C180.316 124.61 180.358 124.522 180.362 124.428C180.366 124.334 180.331 124.243 180.264 124.174L177.133 120.906C177.098 120.87 177.056 120.841 177.009 120.821C176.962 120.801 176.911 120.791 176.859 120.791C176.808 120.791 176.757 120.801 176.71 120.821C176.663 120.841 176.62 120.87 176.586 120.906Z" fill="black"/>
<path opacity="0.1" d="M186.106 120.943L182.991 123.961C182.922 124.027 182.883 124.117 182.883 124.211C182.883 124.304 182.922 124.394 182.991 124.461L186.129 127.524C186.197 127.591 186.291 127.63 186.389 127.632C186.487 127.634 186.582 127.599 186.654 127.535L189.769 124.732C189.84 124.668 189.882 124.579 189.885 124.486C189.889 124.392 189.853 124.301 189.787 124.232L186.651 120.964C186.618 120.928 186.577 120.898 186.531 120.877C186.485 120.856 186.435 120.844 186.384 120.842C186.333 120.84 186.282 120.848 186.234 120.865C186.186 120.882 186.143 120.909 186.106 120.943Z" fill="black"/>
<path opacity="0.1" d="M190.891 125.504L187.767 128.509C187.698 128.575 187.659 128.665 187.659 128.759C187.659 128.853 187.698 128.942 187.767 129.009L190.912 132.072C190.98 132.14 191.074 132.178 191.172 132.18C191.27 132.182 191.365 132.147 191.437 132.083L194.552 129.281C194.623 129.216 194.665 129.128 194.668 129.034C194.672 128.941 194.636 128.85 194.57 128.781L191.434 125.512C191.4 125.477 191.358 125.448 191.312 125.428C191.266 125.408 191.216 125.397 191.165 125.397C191.114 125.396 191.063 125.405 191.016 125.423C190.969 125.442 190.927 125.469 190.891 125.504Z" fill="black"/>
<path opacity="0.1" d="M166.649 121.244L163.707 124.075C163.615 124.164 163.563 124.284 163.563 124.41C163.563 124.535 163.615 124.655 163.707 124.745L166.669 127.638C166.761 127.727 166.886 127.779 167.018 127.781C167.15 127.784 167.277 127.737 167.373 127.651L170.314 125.014C170.406 124.929 170.461 124.813 170.467 124.691C170.473 124.568 170.43 124.448 170.345 124.355L167.384 121.268C167.338 121.218 167.283 121.178 167.22 121.15C167.158 121.122 167.09 121.107 167.022 121.104C166.953 121.102 166.884 121.113 166.82 121.137C166.756 121.161 166.697 121.198 166.649 121.244Z" fill="black"/>
<path opacity="0.1" d="M171.434 125.803L168.492 128.634C168.4 128.723 168.349 128.844 168.349 128.969C168.349 129.095 168.4 129.215 168.492 129.304L171.454 132.197C171.546 132.287 171.672 132.338 171.803 132.341C171.935 132.343 172.062 132.296 172.158 132.21L175.099 129.574C175.195 129.488 175.251 129.369 175.257 129.244C175.262 129.118 175.215 128.996 175.126 128.903L172.155 125.816C172.109 125.77 172.054 125.732 171.992 125.706C171.931 125.68 171.865 125.666 171.797 125.665C171.73 125.664 171.663 125.676 171.601 125.699C171.538 125.723 171.482 125.758 171.434 125.803Z" fill="black"/>
<path opacity="0.1" d="M176.228 130.363L173.287 133.193C173.195 133.283 173.143 133.403 173.143 133.528C173.143 133.654 173.195 133.774 173.287 133.863L176.249 136.756C176.34 136.846 176.465 136.898 176.597 136.901C176.729 136.904 176.856 136.857 176.952 136.772L179.893 134.133C179.99 134.047 180.047 133.929 180.052 133.803C180.057 133.677 180.01 133.555 179.921 133.462L176.959 130.378C176.913 130.329 176.858 130.29 176.795 130.262C176.733 130.235 176.666 130.22 176.597 130.219C176.528 130.217 176.46 130.229 176.397 130.254C176.333 130.279 176.276 130.316 176.228 130.363Z" fill="black"/>
<path opacity="0.1" d="M181.099 134.831L177.984 137.839C177.915 137.906 177.877 137.995 177.877 138.089C177.877 138.182 177.915 138.272 177.984 138.339L181.122 141.402C181.192 141.468 181.286 141.505 181.384 141.505C181.483 141.505 181.577 141.468 181.647 141.402L184.762 138.6C184.834 138.535 184.876 138.447 184.879 138.353C184.883 138.259 184.847 138.168 184.78 138.1L181.645 134.831C181.61 134.796 181.567 134.768 181.52 134.749C181.474 134.73 181.423 134.72 181.372 134.72C181.321 134.72 181.27 134.73 181.224 134.749C181.177 134.768 181.134 134.796 181.099 134.831Z" fill="black"/>
<path opacity="0.1" d="M132.38 79.5031L129.706 82.1029C129.632 82.1736 129.573 82.2576 129.532 82.3501C129.492 82.4426 129.471 82.5417 129.471 82.6419C129.471 82.742 129.492 82.8412 129.532 82.9336C129.573 83.0261 129.632 83.1101 129.706 83.1808L137.172 90.2235C137.32 90.3622 137.518 90.4409 137.725 90.4433C137.932 90.4458 138.132 90.3716 138.283 90.2365L141.071 87.738C141.149 87.6678 141.212 87.5834 141.255 87.4897C141.298 87.396 141.321 87.2949 141.323 87.1926C141.324 87.0902 141.304 86.9886 141.264 86.8938C141.223 86.7989 141.163 86.7129 141.086 86.6407L133.507 79.4967C133.356 79.3556 133.153 79.2771 132.942 79.2783C132.731 79.2795 132.529 79.3604 132.38 79.5031Z" fill="black"/>
<path opacity="0.1" d="M181.253 125.493L177.984 128.666C177.915 128.734 177.876 128.824 177.876 128.918C177.876 129.013 177.915 129.103 177.984 129.171L186.041 136.769C186.11 136.834 186.204 136.87 186.301 136.87C186.398 136.87 186.491 136.834 186.561 136.769L189.968 133.715C190.005 133.682 190.033 133.642 190.053 133.598C190.073 133.554 190.083 133.506 190.083 133.458C190.083 133.41 190.073 133.363 190.053 133.319C190.033 133.275 190.005 133.235 189.968 133.202L181.771 125.476C181.699 125.415 181.605 125.382 181.509 125.385C181.412 125.389 181.321 125.427 181.253 125.493Z" fill="black"/>
<path opacity="0.1" d="M147.268 102.759L144.148 105.704C144.113 105.737 144.085 105.776 144.066 105.819C144.048 105.862 144.038 105.908 144.038 105.955C144.038 106.002 144.048 106.048 144.066 106.091C144.085 106.134 144.113 106.173 144.148 106.206L161.522 123.174C161.592 123.239 161.686 123.275 161.784 123.275C161.882 123.275 161.976 123.239 162.047 123.174L165.44 120.123C165.476 120.09 165.505 120.05 165.524 120.007C165.544 119.963 165.554 119.915 165.554 119.868C165.554 119.82 165.544 119.773 165.524 119.729C165.505 119.685 165.476 119.646 165.44 119.612L147.793 102.752C147.722 102.688 147.627 102.653 147.529 102.654C147.431 102.655 147.337 102.693 147.268 102.759Z" fill="black"/>
</g>
<path d="M141.867 70.1923L139.349 72.6175C139.202 72.7598 139.12 72.9515 139.12 73.1511C139.12 73.3507 139.202 73.5423 139.349 73.6846L141.901 76.1788C142.048 76.3244 142.25 76.4084 142.462 76.4124C142.674 76.4165 142.879 76.3402 143.032 76.2003L145.539 73.9454C145.692 73.8083 145.781 73.6195 145.789 73.4198C145.796 73.2202 145.721 73.0257 145.58 72.8784L143.028 70.2182C142.955 70.1413 142.866 70.0793 142.768 70.0361C142.669 69.993 142.562 69.9694 142.453 69.967C142.345 69.9646 142.237 69.9833 142.136 70.0221C142.035 70.0608 141.943 70.1187 141.867 70.1923Z" fill="#464A5F"/>
<path d="M146.56 74.6656L144.05 77.0844C143.904 77.2267 143.821 77.4183 143.821 77.6179C143.821 77.8175 143.904 78.0091 144.05 78.1514L146.603 80.6456C146.675 80.7179 146.762 80.7759 146.859 80.8162C146.955 80.8564 147.058 80.8782 147.164 80.8802C147.269 80.8822 147.373 80.8644 147.471 80.8278C147.569 80.7913 147.658 80.7367 147.734 80.6672L150.241 78.4144C150.395 78.2763 150.487 78.0854 150.494 77.8835C150.502 77.6816 150.425 77.485 150.281 77.3366L147.72 74.685C147.647 74.6086 147.558 74.5471 147.459 74.5045C147.36 74.4619 147.253 74.4389 147.144 74.4371C147.036 74.4353 146.928 74.4546 146.827 74.4939C146.727 74.5332 146.636 74.5917 146.56 74.6656Z" fill="#464A5F"/>
<path d="M151.487 79.3585L148.978 81.7794C148.832 81.922 148.75 82.1135 148.75 82.3129C148.75 82.5124 148.832 82.7039 148.978 82.8465L151.528 85.3363C151.675 85.4819 151.877 85.566 152.089 85.57C152.301 85.574 152.506 85.4978 152.659 85.3579L155.166 83.103C155.243 83.0349 155.306 82.9529 155.35 82.8618C155.393 82.7707 155.418 82.6723 155.422 82.5721C155.425 82.472 155.408 82.3721 155.372 82.2782C155.335 82.1844 155.279 82.0984 155.207 82.0251L152.655 79.365C152.581 79.2883 152.491 79.227 152.39 79.1849C152.29 79.1428 152.182 79.1207 152.073 79.1201C151.963 79.1195 151.855 79.1404 151.754 79.1814C151.653 79.2224 151.563 79.2827 151.487 79.3585Z" fill="#464A5F"/>
<path d="M156.469 84.1075L153.962 86.5262C153.813 86.6695 153.729 86.8632 153.729 87.0651C153.729 87.267 153.813 87.4607 153.962 87.6041L156.517 90.0982C156.664 90.2438 156.866 90.3279 157.078 90.3319C157.29 90.3359 157.495 90.2597 157.648 90.1198L160.153 87.8649C160.306 87.7283 160.396 87.5396 160.405 87.3398C160.413 87.14 160.337 86.9452 160.196 86.7978L157.63 84.129C157.557 84.0527 157.468 83.9913 157.369 83.9487C157.27 83.906 157.163 83.883 157.054 83.881C156.946 83.879 156.838 83.898 156.737 83.937C156.637 83.9759 156.546 84.0339 156.469 84.1075Z" fill="#464A5F"/>
<path d="M161.454 88.8566L158.947 91.2753C158.797 91.4184 158.713 91.6122 158.713 91.8143C158.713 92.0163 158.797 92.2101 158.947 92.3532L161.501 94.8452C161.648 94.9911 161.85 95.0755 162.062 95.08C162.274 95.0844 162.479 95.0085 162.632 94.8689L165.137 92.614C165.215 92.5462 165.277 92.4645 165.322 92.3734C165.366 92.2824 165.391 92.1839 165.395 92.0837C165.399 91.9834 165.382 91.8834 165.345 91.7895C165.308 91.6955 165.252 91.6094 165.18 91.5362L162.628 88.876C162.554 88.7978 162.465 88.7348 162.364 88.6912C162.264 88.6475 162.155 88.624 162.045 88.6222C161.935 88.6204 161.826 88.6402 161.724 88.6806C161.622 88.7209 161.53 88.7808 161.454 88.8566Z" fill="#464A5F"/>
<path d="M166.753 93.3122L163.637 96.3087C163.569 96.3752 163.531 96.4646 163.531 96.5577C163.531 96.6508 163.569 96.7402 163.637 96.8067L166.775 99.8721C166.844 99.9389 166.937 99.9774 167.035 99.9794C167.134 99.9814 167.229 99.9468 167.3 99.8829L170.416 97.0805C170.487 97.0162 170.529 96.9276 170.533 96.8339C170.536 96.7403 170.501 96.6492 170.434 96.5803L167.296 93.3122C167.261 93.2773 167.218 93.2495 167.172 93.2305C167.125 93.2115 167.075 93.2017 167.024 93.2017C166.973 93.2017 166.923 93.2115 166.877 93.2305C166.83 93.2495 166.788 93.2773 166.753 93.3122Z" fill="#464A5F"/>
<path d="M171.737 98.0549L168.621 101.062C168.553 101.129 168.515 101.218 168.515 101.311C168.515 101.404 168.553 101.494 168.621 101.56L171.759 104.626C171.83 104.691 171.924 104.727 172.022 104.727C172.12 104.727 172.214 104.691 172.284 104.626L175.4 101.823C175.471 101.759 175.513 101.67 175.517 101.577C175.52 101.483 175.485 101.392 175.418 101.323L172.28 98.0549C172.245 98.02 172.203 97.9922 172.156 97.9731C172.109 97.9541 172.059 97.9443 172.008 97.9443C171.958 97.9443 171.907 97.9541 171.861 97.9731C171.814 97.9922 171.772 98.02 171.737 98.0549Z" fill="#464A5F"/>
<path d="M176.149 102.254L173.033 105.262C172.965 105.328 172.927 105.417 172.927 105.511C172.927 105.604 172.965 105.693 173.033 105.759L176.169 108.834C176.239 108.899 176.334 108.935 176.432 108.935C176.53 108.935 176.624 108.899 176.694 108.834L179.81 106.031C179.881 105.967 179.923 105.878 179.927 105.785C179.93 105.691 179.895 105.6 179.828 105.531L176.692 102.263C176.658 102.227 176.616 102.199 176.57 102.179C176.523 102.159 176.473 102.149 176.422 102.148C176.372 102.147 176.321 102.156 176.274 102.174C176.227 102.193 176.185 102.22 176.149 102.254Z" fill="#464A5F"/>
<path d="M181.09 106.963L177.975 109.968C177.906 110.034 177.867 110.124 177.867 110.218C177.867 110.311 177.906 110.401 177.975 110.468L181.113 113.531C181.181 113.598 181.275 113.637 181.373 113.639C181.471 113.641 181.566 113.606 181.638 113.542L184.753 110.739C184.824 110.675 184.866 110.586 184.869 110.493C184.873 110.399 184.838 110.308 184.771 110.239L181.636 106.969C181.601 106.933 181.559 106.905 181.512 106.885C181.466 106.865 181.415 106.855 181.364 106.854C181.313 106.853 181.263 106.863 181.216 106.881C181.168 106.9 181.126 106.928 181.09 106.963Z" fill="#464A5F"/>
<path d="M185.875 111.522L182.76 114.527C182.691 114.594 182.652 114.684 182.652 114.777C182.652 114.871 182.691 114.961 182.76 115.027L185.896 118.104C185.966 118.169 186.06 118.206 186.158 118.206C186.256 118.206 186.35 118.169 186.421 118.104L189.536 115.301C189.607 115.237 189.649 115.148 189.652 115.055C189.656 114.961 189.62 114.87 189.554 114.801L186.409 111.533C186.375 111.499 186.334 111.471 186.289 111.452C186.243 111.433 186.194 111.422 186.145 111.421C186.095 111.42 186.046 111.429 185.999 111.446C185.953 111.463 185.911 111.489 185.875 111.522Z" fill="#464A5F"/>
<path d="M190.661 116.081L187.545 119.099C187.477 119.166 187.438 119.255 187.438 119.348C187.438 119.441 187.477 119.531 187.545 119.597L190.683 122.662C190.753 122.728 190.848 122.764 190.946 122.764C191.044 122.764 191.138 122.728 191.208 122.662L194.324 119.86C194.395 119.796 194.437 119.707 194.441 119.614C194.444 119.52 194.409 119.429 194.342 119.36L191.206 116.092C191.172 116.056 191.13 116.027 191.084 116.007C191.037 115.987 190.987 115.976 190.936 115.975C190.885 115.974 190.834 115.983 190.787 116.001C190.739 116.019 190.697 116.046 190.661 116.081Z" fill="#464A5F"/>
<path d="M195.446 120.64L192.331 123.658C192.262 123.725 192.224 123.815 192.224 123.909C192.224 124.002 192.262 124.092 192.331 124.159L195.46 127.211C195.53 127.276 195.624 127.313 195.722 127.313C195.82 127.313 195.914 127.276 195.985 127.211L199.1 124.409C199.172 124.344 199.214 124.256 199.217 124.162C199.22 124.068 199.185 123.977 199.118 123.909L195.982 120.64C195.947 120.607 195.906 120.58 195.86 120.561C195.814 120.543 195.764 120.533 195.714 120.533C195.664 120.533 195.615 120.543 195.569 120.561C195.523 120.58 195.481 120.607 195.446 120.64Z" fill="#464A5F"/>
<path d="M137.312 74.534L134.806 76.9527C134.659 77.0951 134.576 77.2867 134.576 77.4863C134.576 77.6859 134.659 77.8775 134.806 78.0198L137.36 80.514C137.433 80.5864 137.52 80.6443 137.616 80.6846C137.712 80.7248 137.816 80.7466 137.921 80.7486C138.026 80.7506 138.131 80.7328 138.228 80.6963C138.326 80.6597 138.416 80.6051 138.491 80.5356L140.996 78.2828C141.152 78.1453 141.243 77.9545 141.251 77.7524C141.26 77.5503 141.183 77.3534 141.039 77.205L138.471 74.5577C138.398 74.4816 138.309 74.4203 138.211 74.3777C138.112 74.3351 138.005 74.312 137.897 74.3097C137.789 74.3075 137.681 74.3263 137.581 74.3648C137.48 74.4034 137.389 74.4609 137.312 74.534Z" fill="#464A5F"/>
<path d="M127.358 84.0174L124.848 86.4361C124.699 86.5791 124.615 86.7729 124.615 86.975C124.615 87.1771 124.699 87.3709 124.848 87.5139L127.403 90.0059C127.549 90.1491 127.748 90.2318 127.958 90.2362C128.167 90.2407 128.37 90.1665 128.523 90.0296L131.03 87.7748C131.185 87.6369 131.276 87.446 131.284 87.2439C131.292 87.0418 131.215 86.845 131.07 86.6969L128.516 84.0432C128.443 83.9664 128.355 83.9045 128.256 83.8613C128.158 83.8181 128.051 83.7946 127.943 83.7922C127.834 83.7898 127.726 83.8085 127.626 83.8472C127.525 83.8859 127.434 83.9438 127.358 84.0174Z" fill="#464A5F"/>
<path d="M142.005 79.0054L139.496 81.4241C139.349 81.5665 139.267 81.7581 139.267 81.9577C139.267 82.1573 139.349 82.3489 139.496 82.4912L142.048 84.9854C142.121 85.0577 142.208 85.1157 142.304 85.1559C142.4 85.1962 142.504 85.2179 142.609 85.2199C142.714 85.2219 142.818 85.2042 142.916 85.1676C143.014 85.1311 143.103 85.0764 143.179 85.0069L145.684 82.7499C145.839 82.6117 145.93 82.4209 145.937 82.219C145.945 82.017 145.868 81.8204 145.724 81.672L143.172 79.014C143.098 78.937 143.009 78.8752 142.909 78.8328C142.808 78.7903 142.7 78.7679 142.591 78.7671C142.481 78.7663 142.372 78.787 142.272 78.8281C142.171 78.8691 142.08 78.9294 142.005 79.0054Z" fill="#464A5F"/>
<path d="M146.931 83.6978L144.424 86.1187C144.277 86.261 144.195 86.4526 144.195 86.6522C144.195 86.8518 144.277 87.0434 144.424 87.1857L146.978 89.6799C147.051 89.7523 147.138 89.8102 147.234 89.8505C147.33 89.8907 147.434 89.9125 147.539 89.9145C147.644 89.9165 147.749 89.8987 147.847 89.8621C147.944 89.8256 148.034 89.771 148.109 89.7015L150.614 87.4487C150.77 87.3112 150.862 87.1204 150.87 86.9183C150.878 86.7162 150.801 86.5193 150.657 86.3709L148.091 83.7194C148.018 83.6433 147.929 83.5822 147.83 83.5397C147.731 83.4973 147.624 83.4743 147.516 83.4723C147.407 83.4703 147.3 83.4892 147.199 83.528C147.098 83.5668 147.007 83.6245 146.931 83.6978Z" fill="#464A5F"/>
<path d="M151.915 88.4469L149.408 90.8678C149.261 91.0101 149.179 91.2017 149.179 91.4013C149.179 91.6009 149.261 91.7925 149.408 91.9349L151.963 94.429C152.109 94.5719 152.308 94.6542 152.518 94.6582C152.727 94.6623 152.93 94.5877 153.082 94.4506L155.589 92.1979C155.745 92.0603 155.837 91.8695 155.845 91.6674C155.853 91.4653 155.777 91.2684 155.632 91.12L153.08 88.4599C153.006 88.3834 152.917 88.3222 152.817 88.2799C152.717 88.2376 152.61 88.2151 152.501 88.2139C152.391 88.2127 152.283 88.2327 152.183 88.2728C152.082 88.3129 151.991 88.3721 151.915 88.4469Z" fill="#464A5F"/>
<path d="M132.21 88.3369L129.701 90.7557C129.554 90.898 129.472 91.0896 129.472 91.2892C129.472 91.4888 129.554 91.6804 129.701 91.8228L132.253 94.317C132.326 94.3893 132.413 94.4473 132.509 94.4875C132.606 94.5278 132.709 94.5495 132.814 94.5515C132.92 94.5535 133.024 94.5357 133.122 94.4992C133.22 94.4626 133.309 94.408 133.385 94.3385L135.892 92.0858C136.046 91.9476 136.137 91.7568 136.145 91.5548C136.153 91.3529 136.076 91.1563 135.932 91.0079L133.369 88.3542C133.296 88.2779 133.207 88.2167 133.108 88.1743C133.009 88.1318 132.902 88.1091 132.794 88.1075C132.685 88.1059 132.577 88.1254 132.477 88.1649C132.377 88.2043 132.286 88.2629 132.21 88.3369Z" fill="#464A5F"/>
<path d="M137.136 93.0302L134.629 95.451C134.482 95.5934 134.4 95.785 134.4 95.9846C134.4 96.1842 134.482 96.3758 134.629 96.5181L137.183 99.0123C137.331 99.1579 137.532 99.2419 137.744 99.2459C137.957 99.25 138.162 99.1737 138.315 99.0338L140.819 96.7811C140.975 96.6435 141.067 96.4528 141.075 96.2507C141.083 96.0485 141.007 95.8517 140.862 95.7032L138.31 93.0431C138.236 92.9653 138.146 92.9029 138.046 92.8597C137.945 92.8166 137.836 92.7937 137.726 92.7925C137.616 92.7913 137.507 92.8118 137.405 92.8527C137.303 92.8936 137.212 92.954 137.136 93.0302Z" fill="#464A5F"/>
<path d="M142.121 97.7792L139.614 100.211C139.467 100.353 139.385 100.545 139.385 100.744C139.385 100.944 139.467 101.136 139.614 101.278L142.168 103.772C142.315 103.918 142.517 104.002 142.729 104.006C142.941 104.01 143.146 103.934 143.299 103.794L145.804 101.539C145.957 101.402 146.048 101.213 146.056 101.014C146.064 100.814 145.989 100.619 145.847 100.472L143.295 97.8115C143.222 97.7324 143.133 97.6684 143.034 97.6236C142.934 97.5788 142.825 97.5541 142.715 97.5511C142.605 97.5481 142.495 97.5668 142.393 97.606C142.291 97.6452 142.198 97.7042 142.121 97.7792Z" fill="#464A5F"/>
<path d="M156.899 93.1958L154.393 95.6167C154.246 95.759 154.163 95.9506 154.163 96.1502C154.163 96.3498 154.246 96.5414 154.393 96.6838L156.947 99.1779C157.02 99.2503 157.107 99.3082 157.203 99.3485C157.299 99.3887 157.403 99.4105 157.508 99.4125C157.613 99.4145 157.717 99.3967 157.815 99.3601C157.913 99.3236 158.003 99.269 158.078 99.1995L160.585 96.9446C160.663 96.8766 160.725 96.7947 160.769 96.7036C160.813 96.6125 160.838 96.514 160.841 96.4138C160.845 96.3135 160.828 96.2136 160.791 96.1197C160.754 96.0258 160.698 95.9398 160.626 95.8667L158.074 93.2066C158 93.1286 157.91 93.0661 157.809 93.023C157.708 92.9799 157.599 92.9571 157.489 92.9561C157.379 92.9551 157.269 92.9759 157.168 93.0171C157.066 93.0584 156.975 93.1192 156.899 93.1958Z" fill="#464A5F"/>
<path d="M161.884 97.9448L159.375 100.366C159.228 100.508 159.146 100.7 159.146 100.899C159.146 101.099 159.228 101.29 159.375 101.433L161.929 103.927C162.002 103.999 162.089 104.057 162.185 104.097C162.281 104.138 162.385 104.159 162.49 104.161C162.595 104.163 162.7 104.146 162.797 104.109C162.895 104.073 162.985 104.018 163.06 103.948L165.567 101.694C165.72 101.557 165.81 101.368 165.818 101.168C165.826 100.968 165.75 100.774 165.608 100.626L163.056 97.9663C162.983 97.888 162.893 97.8249 162.793 97.7811C162.693 97.7373 162.585 97.7136 162.475 97.7116C162.365 97.7095 162.255 97.7292 162.154 97.7693C162.052 97.8095 161.96 97.8692 161.884 97.9448Z" fill="#464A5F"/>
<path d="M167.178 102.39L164.062 105.397C163.993 105.464 163.955 105.554 163.955 105.647C163.955 105.741 163.993 105.831 164.062 105.897L167.201 108.961C167.27 109.027 167.365 109.063 167.463 109.063C167.561 109.063 167.656 109.027 167.725 108.961L170.841 106.158C170.912 106.094 170.954 106.005 170.957 105.912C170.96 105.818 170.925 105.727 170.859 105.658L167.723 102.39C167.688 102.355 167.646 102.327 167.599 102.307C167.552 102.288 167.502 102.278 167.451 102.278C167.4 102.278 167.349 102.288 167.302 102.307C167.255 102.327 167.213 102.355 167.178 102.39Z" fill="#464A5F"/>
<path d="M171.594 106.594L168.479 109.601C168.41 109.668 168.371 109.758 168.371 109.851C168.371 109.945 168.41 110.035 168.479 110.102L171.617 113.165C171.687 113.231 171.781 113.268 171.88 113.268C171.978 113.268 172.072 113.231 172.142 113.165L175.258 110.362C175.329 110.298 175.37 110.209 175.374 110.116C175.377 110.022 175.342 109.931 175.276 109.862L172.14 106.594C172.105 106.559 172.062 106.531 172.015 106.512C171.969 106.492 171.918 106.482 171.867 106.482C171.816 106.482 171.766 106.492 171.719 106.512C171.672 106.531 171.63 106.559 171.594 106.594Z" fill="#464A5F"/>
<path d="M176.536 111.302L173.418 114.309C173.35 114.376 173.311 114.465 173.311 114.558C173.311 114.651 173.35 114.741 173.418 114.807L176.554 117.873C176.624 117.938 176.718 117.975 176.816 117.975C176.914 117.975 177.009 117.938 177.079 117.873L180.194 115.07C180.266 115.006 180.309 114.918 180.312 114.824C180.316 114.731 180.281 114.639 180.215 114.57L177.079 111.313C177.044 111.277 177.003 111.249 176.957 111.229C176.91 111.209 176.86 111.198 176.81 111.197C176.759 111.196 176.708 111.205 176.661 111.223C176.614 111.241 176.572 111.268 176.536 111.302Z" fill="#464A5F"/>
<path d="M181.321 115.861L178.205 118.868C178.136 118.935 178.098 119.025 178.098 119.119C178.098 119.212 178.136 119.302 178.205 119.369L181.341 122.432C181.412 122.497 181.506 122.534 181.605 122.534C181.703 122.534 181.798 122.497 181.868 122.432L184.982 119.629C185.054 119.565 185.096 119.477 185.1 119.383C185.104 119.29 185.068 119.198 185.002 119.129L181.866 115.861C181.831 115.826 181.789 115.798 181.742 115.779C181.695 115.759 181.645 115.75 181.594 115.75C181.543 115.75 181.492 115.759 181.445 115.779C181.398 115.798 181.356 115.826 181.321 115.861Z" fill="#464A5F"/>
<path d="M142.195 88.2118L139.686 90.6305C139.539 90.7729 139.457 90.9645 139.457 91.1641C139.457 91.3637 139.539 91.5553 139.686 91.6976L142.24 94.1918C142.313 94.2644 142.4 94.3226 142.496 94.363C142.592 94.4034 142.696 94.4252 142.801 94.4272C142.906 94.4293 143.011 94.4114 143.109 94.3747C143.207 94.3379 143.296 94.2831 143.372 94.2133L145.878 91.9606C146.034 91.8228 146.125 91.6318 146.133 91.4297C146.141 91.2276 146.064 91.0309 145.919 90.8827L143.354 88.2334C143.281 88.1568 143.192 88.0952 143.093 88.0524C142.995 88.0097 142.888 87.9865 142.779 87.9845C142.671 87.9825 142.563 88.0016 142.463 88.0407C142.362 88.0798 142.271 88.138 142.195 88.2118Z" fill="#464A5F"/>
<path d="M147.18 92.9614L144.67 95.3801C144.596 95.4508 144.537 95.5348 144.497 95.6272C144.456 95.7197 144.436 95.8189 144.436 95.919C144.436 96.0191 144.456 96.1183 144.497 96.2108C144.537 96.3032 144.596 96.3872 144.67 96.4579L147.225 98.9521C147.297 99.0247 147.384 99.0829 147.481 99.1233C147.577 99.1637 147.681 99.1855 147.786 99.1875C147.891 99.1896 147.995 99.1717 148.093 99.135C148.191 99.0982 148.281 99.0434 148.356 98.9736L150.863 96.7209C151.018 96.5828 151.109 96.3919 151.116 96.19C151.124 95.9881 151.048 95.7915 150.904 95.6431L148.352 92.9851C148.279 92.9063 148.189 92.8428 148.09 92.7986C147.99 92.7544 147.881 92.7304 147.771 92.7282C147.661 92.726 147.551 92.7455 147.45 92.7857C147.348 92.8258 147.256 92.8856 147.18 92.9614Z" fill="#464A5F"/>
<path d="M152.164 97.7101L149.655 100.129C149.508 100.271 149.426 100.463 149.426 100.662C149.426 100.862 149.508 101.054 149.655 101.196L152.207 103.69C152.28 103.762 152.367 103.82 152.463 103.861C152.559 103.901 152.663 103.923 152.768 103.925C152.873 103.927 152.977 103.909 153.075 103.872C153.173 103.836 153.262 103.781 153.338 103.712L155.845 101.459C156 101.321 156.091 101.13 156.099 100.928C156.106 100.726 156.03 100.529 155.886 100.381L153.334 97.7209C153.26 97.6436 153.17 97.5817 153.07 97.539C152.969 97.4963 152.861 97.4737 152.751 97.4727C152.641 97.4717 152.533 97.4922 152.432 97.5331C152.331 97.5739 152.239 97.6342 152.164 97.7101Z" fill="#464A5F"/>
<path d="M157.148 102.457L154.639 104.878C154.565 104.949 154.506 105.033 154.465 105.125C154.425 105.218 154.404 105.317 154.404 105.417C154.404 105.517 154.425 105.616 154.465 105.709C154.506 105.801 154.565 105.885 154.639 105.956L157.191 108.45C157.264 108.522 157.351 108.58 157.447 108.621C157.543 108.661 157.647 108.683 157.752 108.685C157.857 108.687 157.962 108.669 158.06 108.632C158.157 108.596 158.247 108.541 158.322 108.472L160.829 106.219C160.984 106.081 161.075 105.89 161.083 105.688C161.09 105.486 161.014 105.289 160.87 105.141L158.318 102.481C158.245 102.403 158.156 102.34 158.056 102.297C157.956 102.253 157.848 102.229 157.738 102.227C157.629 102.225 157.52 102.244 157.418 102.284C157.317 102.323 157.225 102.382 157.148 102.457Z" fill="#464A5F"/>
<path d="M162.447 106.904L159.329 109.911C159.261 109.978 159.222 110.068 159.222 110.161C159.222 110.255 159.261 110.345 159.329 110.412L162.465 113.475C162.533 113.542 162.627 113.581 162.725 113.583C162.823 113.585 162.918 113.55 162.99 113.486L166.105 110.683C166.177 110.619 166.22 110.53 166.224 110.436C166.227 110.342 166.192 110.25 166.126 110.181L162.99 106.913C162.956 106.877 162.914 106.848 162.868 106.828C162.821 106.808 162.771 106.798 162.72 106.797C162.669 106.796 162.619 106.805 162.572 106.824C162.525 106.842 162.482 106.87 162.447 106.904Z" fill="#464A5F"/>
<path d="M166.859 111.108L163.741 114.113C163.673 114.18 163.634 114.27 163.634 114.363C163.634 114.457 163.673 114.546 163.741 114.613L166.877 117.672C166.945 117.739 167.039 117.778 167.137 117.78C167.235 117.782 167.331 117.747 167.402 117.683L170.517 114.88C170.589 114.816 170.632 114.727 170.636 114.633C170.64 114.539 170.604 114.448 170.538 114.378L167.404 111.117C167.37 111.08 167.328 111.051 167.282 111.031C167.235 111.011 167.185 111 167.134 111C167.082 110.999 167.032 111.008 166.984 111.027C166.937 111.045 166.895 111.073 166.859 111.108Z" fill="#464A5F"/>
<path d="M171.798 115.814L168.683 118.832C168.614 118.899 168.576 118.988 168.576 119.082C168.576 119.175 168.614 119.265 168.683 119.332L171.818 122.395C171.888 122.461 171.983 122.498 172.081 122.498C172.179 122.498 172.273 122.461 172.343 122.395L175.459 119.593C175.531 119.529 175.573 119.44 175.577 119.347C175.581 119.253 175.546 119.162 175.479 119.093L172.341 115.825C172.307 115.789 172.265 115.76 172.219 115.74C172.173 115.72 172.123 115.71 172.072 115.709C172.021 115.708 171.971 115.716 171.924 115.734C171.877 115.753 171.834 115.78 171.798 115.814Z" fill="#464A5F"/>
<path d="M176.586 120.375L173.468 123.38C173.399 123.447 173.361 123.537 173.361 123.63C173.361 123.724 173.399 123.814 173.468 123.88L176.604 126.942C176.674 127.007 176.768 127.044 176.866 127.044C176.964 127.044 177.059 127.007 177.129 126.942L180.244 124.139C180.316 124.075 180.358 123.987 180.362 123.893C180.366 123.799 180.331 123.708 180.264 123.639L177.133 120.384C177.099 120.347 177.057 120.318 177.01 120.297C176.964 120.277 176.913 120.266 176.861 120.265C176.81 120.264 176.759 120.273 176.711 120.292C176.664 120.311 176.621 120.34 176.586 120.375Z" fill="#464A5F"/>
<path d="M186.106 120.421L182.991 123.439C182.922 123.505 182.883 123.595 182.883 123.689C182.883 123.782 182.922 123.872 182.991 123.939L186.129 127.002C186.199 127.068 186.293 127.105 186.391 127.105C186.49 127.105 186.584 127.068 186.654 127.002L189.769 124.2C189.84 124.135 189.882 124.047 189.885 123.953C189.889 123.86 189.853 123.769 189.787 123.7L186.649 120.432C186.615 120.396 186.573 120.367 186.527 120.347C186.481 120.327 186.431 120.317 186.38 120.316C186.329 120.314 186.279 120.323 186.232 120.341C186.185 120.359 186.142 120.386 186.106 120.421Z" fill="#464A5F"/>
<path d="M190.892 124.98L187.776 127.998C187.707 128.065 187.668 128.155 187.668 128.248C187.668 128.342 187.707 128.432 187.776 128.498L190.914 131.562C190.984 131.627 191.078 131.664 191.177 131.664C191.275 131.664 191.369 131.627 191.439 131.562L194.555 128.759C194.626 128.695 194.667 128.606 194.671 128.513C194.674 128.419 194.639 128.328 194.573 128.259L191.435 125.002C191.401 124.965 191.36 124.936 191.314 124.915C191.268 124.894 191.219 124.882 191.168 124.88C191.117 124.878 191.066 124.886 191.019 124.903C190.971 124.92 190.928 124.947 190.892 124.98Z" fill="#464A5F"/>
<path d="M166.649 120.722L163.707 123.553C163.615 123.642 163.563 123.763 163.563 123.888C163.563 124.014 163.615 124.134 163.707 124.223L166.669 127.116C166.761 127.206 166.886 127.257 167.018 127.26C167.15 127.262 167.277 127.215 167.373 127.129L170.314 124.493C170.409 124.407 170.465 124.288 170.47 124.163C170.475 124.038 170.429 123.915 170.341 123.822L167.379 120.735C167.333 120.687 167.277 120.649 167.215 120.622C167.153 120.595 167.085 120.581 167.017 120.58C166.948 120.578 166.881 120.591 166.817 120.615C166.754 120.64 166.697 120.676 166.649 120.722Z" fill="#464A5F"/>
<path d="M171.434 125.281L168.492 128.112C168.4 128.201 168.349 128.322 168.349 128.447C168.349 128.573 168.4 128.693 168.492 128.782L171.461 131.684C171.554 131.769 171.679 131.817 171.808 131.817C171.938 131.817 172.062 131.769 172.155 131.684L175.097 129.048C175.193 128.962 175.249 128.843 175.254 128.718C175.259 128.592 175.213 128.47 175.124 128.377L172.155 125.294C172.109 125.248 172.054 125.21 171.992 125.184C171.931 125.158 171.865 125.144 171.797 125.143C171.73 125.142 171.663 125.154 171.601 125.177C171.538 125.201 171.482 125.236 171.434 125.281Z" fill="#464A5F"/>
<path d="M176.228 129.841L173.287 132.672C173.195 132.761 173.143 132.881 173.143 133.007C173.143 133.132 173.195 133.253 173.287 133.342L176.249 136.235C176.34 136.325 176.466 136.377 176.598 136.379C176.729 136.382 176.857 136.335 176.952 136.248L179.894 133.611C179.99 133.526 180.047 133.407 180.052 133.282C180.057 133.156 180.01 133.034 179.921 132.941L176.959 129.854C176.913 129.806 176.857 129.767 176.795 129.74C176.732 129.713 176.665 129.699 176.597 129.697C176.528 129.696 176.46 129.708 176.397 129.733C176.333 129.758 176.276 129.795 176.228 129.841Z" fill="#464A5F"/>
<path d="M181.099 134.31L177.984 137.328C177.915 137.395 177.877 137.485 177.877 137.578C177.877 137.671 177.915 137.761 177.984 137.828L181.122 140.891C181.19 140.958 181.284 140.997 181.382 140.999C181.48 141.001 181.575 140.966 181.647 140.902L184.762 138.1C184.834 138.035 184.876 137.947 184.879 137.853C184.883 137.76 184.847 137.668 184.78 137.6L181.644 134.331C181.611 134.295 181.57 134.265 181.524 134.244C181.478 134.223 181.428 134.211 181.377 134.209C181.326 134.207 181.275 134.215 181.227 134.232C181.179 134.249 181.136 134.276 181.099 134.31Z" fill="#464A5F"/>
<path d="M132.38 78.9811L129.706 81.583C129.632 81.6537 129.573 81.7377 129.532 81.8302C129.492 81.9227 129.471 82.0218 129.471 82.122C129.471 82.2221 129.492 82.3212 129.532 82.4137C129.573 82.5062 129.632 82.5902 129.706 82.6609L137.172 89.7036C137.32 89.8423 137.518 89.921 137.725 89.9235C137.932 89.9259 138.132 89.8517 138.283 89.7166L141.071 87.2181C141.149 87.1479 141.212 87.0635 141.255 86.9698C141.298 86.8761 141.321 86.775 141.323 86.6727C141.324 86.5703 141.304 86.4687 141.263 86.3738C141.223 86.279 141.163 86.193 141.086 86.1208L133.507 78.9768C133.357 78.8354 133.154 78.7565 132.943 78.7573C132.732 78.7581 132.529 78.8386 132.38 78.9811Z" fill="#464A5F"/>
<path d="M181.253 124.972L177.984 128.151C177.915 128.219 177.876 128.31 177.876 128.404C177.876 128.498 177.915 128.588 177.984 128.656L186.041 136.255C186.11 136.319 186.204 136.355 186.301 136.355C186.398 136.355 186.491 136.319 186.561 136.255L189.968 133.2C190.005 133.167 190.034 133.127 190.053 133.083C190.073 133.039 190.083 132.992 190.083 132.944C190.083 132.896 190.073 132.848 190.053 132.804C190.034 132.76 190.005 132.72 189.968 132.687L181.771 124.961C181.7 124.899 181.607 124.865 181.51 124.867C181.413 124.869 181.321 124.906 181.253 124.972Z" fill="#464A5F"/>
<path d="M147.268 102.237L144.148 105.182C144.113 105.215 144.085 105.254 144.066 105.297C144.048 105.34 144.038 105.386 144.038 105.433C144.038 105.48 144.048 105.526 144.066 105.569C144.085 105.612 144.113 105.651 144.148 105.684L161.522 122.652C161.592 122.717 161.686 122.754 161.784 122.754C161.882 122.754 161.976 122.717 162.047 122.652L165.44 119.601C165.476 119.568 165.505 119.528 165.524 119.485C165.544 119.441 165.554 119.394 165.554 119.346C165.554 119.298 165.544 119.251 165.524 119.207C165.505 119.163 165.476 119.124 165.44 119.09L147.793 102.231C147.722 102.166 147.627 102.131 147.529 102.132C147.431 102.133 147.337 102.171 147.268 102.237Z" fill="#464A5F"/>
<path opacity="0.1" d="M135.012 104.307L121.294 117.29C120.914 117.651 120.698 118.14 120.694 118.651C120.69 119.162 120.897 119.654 121.271 120.02L146.643 144.845C146.831 145.028 147.054 145.174 147.3 145.275C147.547 145.376 147.812 145.429 148.08 145.432C148.349 145.435 148.615 145.387 148.864 145.291C149.112 145.196 149.339 145.054 149.53 144.875L163.655 131.637C163.847 131.457 163.999 131.243 164.103 131.007C164.207 130.772 164.261 130.518 164.262 130.263C164.263 130.007 164.211 129.753 164.109 129.517C164.007 129.28 163.856 129.065 163.667 128.884L137.887 104.307C137.506 103.944 136.989 103.74 136.45 103.74C135.911 103.74 135.393 103.944 135.012 104.307Z" fill="black"/>
<path d="M135.012 103.774L121.294 116.768C120.914 117.129 120.698 117.618 120.694 118.129C120.69 118.64 120.897 119.132 121.271 119.498L146.643 144.323C146.831 144.506 147.054 144.652 147.3 144.753C147.547 144.854 147.812 144.907 148.08 144.91C148.349 144.913 148.615 144.865 148.864 144.769C149.112 144.674 149.339 144.532 149.53 144.353L163.655 131.115C163.847 130.935 163.999 130.721 164.103 130.485C164.207 130.25 164.261 129.996 164.262 129.741C164.263 129.485 164.211 129.231 164.109 128.995C164.007 128.758 163.856 128.543 163.667 128.362L137.887 103.787C137.507 103.422 136.991 103.216 136.452 103.214C135.913 103.211 135.395 103.413 135.012 103.774Z" fill="#939498"/>
<path d="M148.189 35.6387L144.716 58.7738L209.066 119.891L212.342 96.9581C212.43 96.3389 212.367 95.7086 212.157 95.1167C211.947 94.5247 211.596 93.987 211.132 93.5456L149.616 35.1816C149.505 35.0765 149.366 35.0028 149.214 34.9688C149.062 34.9349 148.902 34.9421 148.754 34.9895C148.606 35.037 148.474 35.1228 148.374 35.2375C148.275 35.3522 148.21 35.4911 148.189 35.6387Z" fill="#0098AC"/>
<path opacity="0.1" d="M66.7648 147.781C69.6526 147.781 71.9935 147.475 71.9935 147.098C71.9935 146.72 69.6526 146.415 66.7648 146.415C63.8771 146.415 61.5361 146.72 61.5361 147.098C61.5361 147.475 63.8771 147.781 66.7648 147.781Z" fill="#0098AC"/>
<path opacity="0.1" d="M46.7324 149.717C49.6201 149.717 51.961 149.411 51.961 149.034C51.961 148.657 49.6201 148.351 46.7324 148.351C43.8446 148.351 41.5037 148.657 41.5037 149.034C41.5037 149.411 43.8446 149.717 46.7324 149.717Z" fill="#0098AC"/>
<path opacity="0.1" d="M23.1388 147.098C26.0266 147.098 28.3675 146.792 28.3675 146.414C28.3675 146.037 26.0266 145.731 23.1388 145.731C20.2511 145.731 17.9102 146.037 17.9102 146.414C17.9102 146.792 20.2511 147.098 23.1388 147.098Z" fill="#0098AC"/>
<path opacity="0.1" d="M54.7508 155.031C56.8038 155.031 58.4681 154.812 58.4681 154.543C58.4681 154.274 56.8038 154.056 54.7508 154.056C52.6978 154.056 51.0334 154.274 51.0334 154.543C51.0334 154.812 52.6978 155.031 54.7508 155.031Z" fill="#0098AC"/>
<path opacity="0.1" d="M33.9605 154.544C36.0135 154.544 37.6778 154.326 37.6778 154.057C37.6778 153.787 36.0135 153.569 33.9605 153.569C31.9075 153.569 30.2432 153.787 30.2432 154.057C30.2432 154.326 31.9075 154.544 33.9605 154.544Z" fill="#0098AC"/>
<path d="M46.6215 148.88C46.6215 148.88 53.9544 125.974 45.4722 116.81C39.1371 109.946 31.9264 110.774 28.7001 111.617C27.8658 111.828 27.0898 112.21 26.4257 112.736C25.7616 113.261 25.2252 113.918 24.8538 114.661C23.7225 116.98 23.9307 120.742 31.8902 125.133C45.221 132.486 46.0491 142.573 46.0491 142.573L46.6215 148.88Z" fill="#0098AC"/>
<path d="M29.8428 114.854C29.8428 114.854 51.4635 121.294 46.6171 148.88" stroke="#565987" stroke-miterlimit="10"/>
<path d="M42.4744 117.164C42.4744 117.164 39.4992 119.074 40.4381 121.947" stroke="#565987" stroke-miterlimit="10"/>
<path d="M32.0171 118.864C32.0171 118.864 33.8271 117.101 36.0512 118.073" stroke="#565987" stroke-miterlimit="10"/>
<path d="M40.5625 127.735C40.5625 127.735 43.7572 126.19 44.5853 128.126" stroke="#565987" stroke-miterlimit="10"/>
<path d="M48.4701 130.956C48.4701 130.956 46.0696 130.775 46.0266 131.868" stroke="#565987" stroke-miterlimit="10"/>
<path d="M46.9179 149.064C46.9179 149.064 38.3203 132.415 35.9672 132.779C34.8473 132.952 34.3314 134.002 34.0984 135.058C33.8093 136.422 33.9722 137.838 34.5645 139.111C35.784 141.775 39.0579 146.835 46.9179 149.064Z" fill="#0098AC"/>
<path d="M36.033 135.938C36.033 135.938 45.0469 148.395 46.789 148.941" stroke="#565987" stroke-miterlimit="10"/>
<path d="M35.2026 137.882H37.3068" stroke="#565987" stroke-miterlimit="10"/>
<path d="M37.7231 142.439L41.0219 142.573" stroke="#565987" stroke-miterlimit="10"/>
<path d="M39.7298 138.794L39.3723 140.43" stroke="#565987" stroke-miterlimit="10"/>
<path d="M43.2392 143.776L43.1736 145.263" stroke="#565987" stroke-miterlimit="10"/>
<path d="M46.6624 149.064C46.6624 149.064 55.26 132.415 57.6107 132.779C58.742 132.952 59.2488 134.002 59.4818 135.058C59.7714 136.422 59.6077 137.839 59.0135 139.111C57.7963 141.775 54.5224 146.835 46.6624 149.064Z" fill="#0098AC"/>
<path d="M57.5474 135.938C57.5474 135.938 48.5312 148.395 46.7891 148.941" stroke="#565987" stroke-miterlimit="10"/>
<path d="M58.3754 137.882H56.2712" stroke="#565987" stroke-miterlimit="10"/>
<path d="M55.8549 142.439L52.5562 142.573" stroke="#565987" stroke-miterlimit="10"/>
<path d="M53.8481 138.794L54.2056 140.43" stroke="#565987" stroke-miterlimit="10"/>
<path d="M50.3411 143.776L50.4044 145.263" stroke="#565987" stroke-miterlimit="10"/>
<path d="M31.9129 152.951C31.6787 152.77 31.5082 152.524 31.4242 152.248C31.3866 152.11 31.4 151.963 31.4622 151.833C31.5244 151.702 31.6316 151.597 31.7659 151.532C32.0804 151.418 32.4152 151.625 32.6709 151.834C32.9266 152.043 33.2184 152.283 33.551 152.24C33.3796 152.092 33.2514 151.905 33.1788 151.696C33.1062 151.487 33.0918 151.263 33.137 151.047C33.1507 150.958 33.1907 150.873 33.2524 150.804C33.4266 150.627 33.7411 150.703 33.9492 150.843C34.6144 151.287 34.7977 152.136 34.8022 152.919C34.8393 152.632 34.8431 152.343 34.8135 152.056C34.801 151.914 34.8251 151.77 34.8839 151.638C34.9426 151.506 35.0342 151.39 35.1506 151.3C35.3085 151.22 35.4855 151.18 35.6642 151.185C35.8115 151.163 35.9619 151.171 36.1058 151.208C36.2497 151.245 36.3837 151.311 36.4991 151.401C36.7525 151.66 36.6869 152.091 36.4652 152.375C36.2199 152.641 35.9283 152.864 35.6031 153.035C35.3552 153.175 35.144 153.366 34.9855 153.596C34.9673 153.627 34.9521 153.66 34.9402 153.695H33.0714C32.652 153.497 32.2623 153.247 31.9129 152.951Z" fill="#0098AC"/>
<path d="M64.6448 146.246C64.4104 146.065 64.2392 145.82 64.1538 145.544C64.1166 145.405 64.1302 145.259 64.1924 145.128C64.2545 144.998 64.3615 144.892 64.4955 144.828C64.81 144.714 65.1448 144.921 65.4005 145.13C65.6562 145.339 65.9458 145.578 66.2784 145.533C66.1073 145.385 65.9793 145.197 65.9068 144.989C65.8343 144.78 65.8196 144.556 65.8643 144.341C65.8796 144.252 65.9194 144.168 65.9797 144.099C66.1539 143.92 66.4684 143.998 66.6788 144.138C67.3417 144.582 67.5273 145.431 67.5295 146.212C67.5676 145.926 67.5721 145.637 67.5431 145.35C67.5288 145.207 67.5521 145.063 67.6109 144.93C67.6698 144.798 67.7624 144.682 67.8802 144.593C68.0375 144.511 68.2149 144.472 68.3938 144.479C68.5407 144.457 68.6907 144.465 68.8341 144.502C68.9775 144.539 69.1112 144.605 69.2264 144.694C69.4798 144.953 69.4142 145.386 69.1947 145.671C68.9477 145.932 68.6553 146.151 68.3305 146.317C68.0847 146.459 67.8746 146.65 67.7151 146.878C67.6959 146.91 67.6807 146.944 67.6698 146.979H65.7987C65.3815 146.785 64.9934 146.539 64.6448 146.246Z" fill="#0098AC"/>
<path d="M53.735 152.951C53.5008 152.77 53.3303 152.524 53.2463 152.248C53.2086 152.11 53.222 151.963 53.2842 151.833C53.3464 151.702 53.4536 151.597 53.5879 151.532C53.9024 151.418 54.2373 151.625 54.4929 151.834C54.7486 152.043 55.0404 152.283 55.373 152.24C55.2017 152.092 55.0734 151.905 55.0008 151.696C54.9283 151.487 54.9139 151.263 54.959 151.047C54.9728 150.958 55.0127 150.873 55.0744 150.804C55.2486 150.627 55.5631 150.703 55.7712 150.843C56.4342 151.287 56.6197 152.136 56.6242 152.919C56.6613 152.632 56.6651 152.343 56.6355 152.056C56.6231 151.914 56.6471 151.771 56.7054 151.64C56.7637 151.508 56.8547 151.392 56.9704 151.302C57.1283 151.222 57.3053 151.183 57.484 151.188C57.6312 151.165 57.7817 151.173 57.9256 151.21C58.0694 151.248 58.2034 151.313 58.3188 151.403C58.5722 151.662 58.5066 152.093 58.2849 152.378C58.0397 152.643 57.748 152.866 57.4229 153.037C57.175 153.177 56.9638 153.369 56.8052 153.598C56.787 153.629 56.7719 153.663 56.76 153.697H54.8911C54.4724 153.499 54.0835 153.248 53.735 152.951Z" fill="#0098AC"/>
<path d="M22.7994 139.397C22.7994 139.397 22.098 140.271 23.1229 141.588C24.1479 142.905 24.9918 144.019 24.6501 144.841C24.6501 144.841 23.1048 142.392 21.8469 142.359C20.5889 142.327 21.4147 140.87 22.7994 139.397Z" fill="#0098AC"/>
<path opacity="0.1" d="M22.7994 139.397C22.7387 139.482 22.6908 139.574 22.6569 139.671C21.4283 141.044 20.7744 142.327 21.9555 142.359C23.0528 142.387 24.3718 144.261 24.6863 144.731C24.6767 144.767 24.6646 144.803 24.6501 144.838C24.6501 144.838 23.1048 142.39 21.8469 142.357C20.5889 142.325 21.4147 140.87 22.7994 139.397Z" fill="black"/>
<path d="M21.4963 140.509C21.4963 140.818 21.5325 141.066 21.5778 141.066C21.623 141.066 21.6592 140.818 21.6592 140.509C21.6592 140.201 21.614 140.348 21.5687 140.348C21.5235 140.348 21.4963 140.201 21.4963 140.509Z" fill="#FFD037"/>
<path d="M21.0506 140.876C21.3334 141.023 21.58 141.113 21.6004 141.074C21.6208 141.035 21.4103 140.889 21.1275 140.74C20.8447 140.591 20.9556 140.701 20.9352 140.74C20.9148 140.779 20.7678 140.738 21.0506 140.876Z" fill="#FFD037"/>
<path d="M26.501 139.397C26.501 139.397 27.2001 140.271 26.1775 141.588C25.1548 142.905 24.3086 144.019 24.6503 144.841C24.6503 144.841 26.1956 142.392 27.4535 142.359C28.7115 142.327 27.8834 140.87 26.501 139.397Z" fill="#0098AC"/>
<path opacity="0.1" d="M26.501 139.397C26.5617 139.482 26.6097 139.574 26.6436 139.671C27.8698 141.044 28.5237 142.327 27.3449 142.359C26.2454 142.387 24.9286 144.261 24.6118 144.731C24.6223 144.767 24.6351 144.803 24.6503 144.838C24.6503 144.838 26.1956 142.39 27.4535 142.357C28.7115 142.325 27.8834 140.87 26.501 139.397Z" fill="black"/>
<path d="M27.8064 140.509C27.8064 140.818 27.7702 141.066 27.7272 141.066C27.6842 141.066 27.6458 140.818 27.6458 140.509C27.6458 140.201 27.691 140.348 27.7363 140.348C27.7815 140.348 27.8064 140.201 27.8064 140.509Z" fill="#FFD037"/>
<path d="M28.259 140.876C27.9762 141.023 27.7296 141.113 27.707 141.074C27.6843 141.035 27.8993 140.889 28.1821 140.74C28.4649 140.591 28.354 140.701 28.3744 140.74C28.3948 140.779 28.5328 140.738 28.259 140.876Z" fill="#FFD037"/>
<path d="M27.5802 144.726C27.5802 144.726 25.6209 144.668 25.0304 144.269C24.4399 143.871 22.0167 143.39 21.8628 144.032C21.709 144.675 18.9216 147.227 21.1321 147.244C23.3425 147.261 26.2702 146.917 26.8608 146.574C27.4513 146.231 27.5802 144.726 27.5802 144.726Z" fill="#A8A8A8"/>
<path opacity="0.2" d="M21.0982 147.02C23.3109 147.037 26.2386 146.692 26.8269 146.35C27.2794 146.089 27.4536 145.155 27.5056 144.724H27.5803C27.5803 144.724 27.4559 146.233 26.8676 146.572C26.2794 146.91 23.3494 147.259 21.1389 147.242C20.5009 147.242 20.2791 147.026 20.2904 146.701C20.3809 146.895 20.623 147.016 21.0982 147.02Z" fill="black"/>
<path d="M39.0195 72.0184C38.9833 72.9238 39.7978 74.1267 39.7978 74.1267C40.0467 74.698 43.0988 77.3452 43.0988 77.3452L45.3613 78.7853C44.9043 79.1066 44.425 79.3983 43.9269 79.6583C42.825 80.1951 42.2232 81.9714 42.2232 81.9714C42.2232 81.9714 40.5535 85.7935 43.9269 86.3303L43.9903 86.3411L44.2934 86.6536C45.0401 87.4211 45.9519 88.3373 46.2686 88.542C46.8365 88.9107 48.5764 91.6937 48.5764 91.6937C48.5764 91.6937 50.4203 94.5781 52.8752 94.7117C55.33 94.8454 55.3232 92.1637 55.1377 91.9955C55.064 91.8833 55.0126 91.759 54.9861 91.629C55.5721 92.528 56.3708 93.7093 56.6287 93.8731C57.0541 94.1405 58.4387 96.2444 58.4387 96.2444C58.4387 96.2444 60.1786 100.032 60.4614 100.435C60.7442 100.838 61.242 102.85 61.242 102.85C61.242 102.85 62.2375 105.63 62.6991 106.001C63.1606 106.372 63.4072 107.711 63.4072 107.711C63.4072 107.711 64.862 109.722 65.1109 110.056C65.402 110.544 65.6627 111.048 65.8915 111.565C65.8915 111.565 66.6721 112.772 66.6721 113.242C66.6721 113.712 68.3056 114.514 68.3056 114.514C68.3056 114.514 69.4776 115.823 70.1518 116.058C70.8261 116.293 71.4641 117.834 71.5704 117.733C71.6332 117.704 71.7023 117.691 71.7718 117.694L72.0478 117.957C73.1248 118.979 75.2764 121.016 75.8285 121.488C76.5751 122.135 78.2788 122.225 79.6974 121.958C80.4259 121.82 81.3129 121.162 82.0029 120.555C82.159 120.415 82.284 120.248 82.3702 120.061C82.4565 119.875 82.5022 119.674 82.5048 119.47C82.5073 119.267 82.4665 119.065 82.385 118.876C82.3034 118.688 82.1827 118.518 82.0301 118.375C81.3513 117.752 80.5662 117.069 80.2201 116.963C79.582 116.76 77.772 115.555 76.9213 114.549C76.4688 114.025 75.6746 113.527 75.0072 113.171L74.9258 113.126C74.8238 112.757 74.7549 112.381 74.7199 112.001C74.7199 112.001 75.8918 109.487 75.2516 109.353C74.6113 109.22 72.1994 105.229 72.1994 105.229C72.1655 102.211 69.2581 99.6634 69.2581 99.6634C69.2581 99.6634 67.8033 96.3781 67.378 95.6753C67.2515 95.4971 67.1839 95.2869 67.1839 95.0717C67.1839 94.8566 67.2515 94.6464 67.378 94.4681C67.378 94.4681 66.5612 93.8645 66.4209 93.5627C66.2806 93.2609 65.6041 90.9759 65.6041 90.9759C65.6041 90.9759 64.7874 89.6005 64.7512 88.9646C64.715 88.3286 63.1244 86.5545 63.1244 86.5545C63.1244 86.5545 62.4796 83.5666 61.7669 83.0299C61.6289 82.9264 61.6493 82.5319 61.7669 81.9649L61.8008 81.9305L61.9094 81.8291L61.9411 81.799C62.2672 81.4925 62.574 81.1678 62.8597 80.8267L62.8733 80.8095C62.9185 80.7556 62.9615 80.7038 63.0022 80.65C64.0317 79.3091 64.6697 76.1229 64.6697 76.1229C64.6697 76.1229 64.8734 76.0324 65.1381 75.8944C65.51 75.7174 65.8543 75.4917 66.1607 75.224C66.1754 75.2085 66.1875 75.1911 66.1969 75.1723C66.1981 75.1666 66.1981 75.1607 66.1969 75.155C66.2039 75.1418 66.21 75.1281 66.215 75.1141C66.2159 75.1062 66.2159 75.0982 66.215 75.0903C66.2163 75.0746 66.2163 75.0587 66.215 75.0429C66.215 75.0429 66.215 75.0278 66.215 75.0192V74.9416C66.215 74.9136 66.215 74.8856 66.2037 74.8554C66.2035 74.8518 66.2035 74.8482 66.2037 74.8446C66.2037 74.8187 66.1924 74.7929 66.1856 74.7648V74.739C66.1856 74.7153 66.172 74.6915 66.163 74.6657C66.1637 74.6563 66.1637 74.647 66.163 74.6376L66.1358 74.5579C66.135 74.5514 66.135 74.5449 66.1358 74.5385C66.0929 74.4307 66.0408 74.3229 65.982 74.2065L65.9209 74.0966C65.81 73.8961 65.6947 73.6999 65.5725 73.5296L65.5544 73.5037C65.8033 72.8355 66.2852 71.6584 66.7331 71.2359C67.3712 70.6323 66.3779 67.4138 66.3779 67.4138C66.3779 67.4138 66.1653 65.1352 65.8802 64.4648C65.5951 63.7944 65.8802 63.6974 65.6539 63.1239C65.3802 62.4772 65.1811 62.5203 65.534 61.0458C65.6675 60.4896 65.8734 59.8774 66.0589 59.3062L66.2852 59.5045C67.5974 60.6837 69.6586 62.2185 69.6586 62.2185C69.6586 62.2185 73.704 65.7043 74.0592 65.8057C74.4144 65.907 75.4801 69.3259 75.4801 69.3259C75.4801 69.3259 75.2312 74.9912 78.496 75.2262C79.8829 75.3253 80.4712 74.3035 80.6839 73.0985C80.8412 72.1632 80.7793 71.2064 80.5028 70.2967C80.2262 69.3869 79.7418 68.5467 79.0843 67.8363L77.1294 65.7194L75.3896 62.7704C74.282 61.1055 73.3491 59.3408 72.6044 57.5018C71.8139 55.6998 70.654 54.0662 69.1925 52.6967L69.0522 52.5652L69.2332 52.4057C69.2332 52.4057 68.9482 50.1939 68.7355 49.9266C68.5228 49.6593 67.7422 48.1158 67.7422 47.7709C67.7422 47.426 67.2445 47.3699 66.9617 46.9668C66.9617 46.9668 66.4639 46.0291 66.0024 45.8889C65.918 45.8578 65.8411 45.8109 65.7761 45.751C64.9668 45.0693 63.9511 44.6503 62.8755 44.5546L62.5927 44.5287C61.9638 44.5016 61.3337 44.5102 60.7058 44.5546H60.6899C60.208 44.4166 59.8438 44.0587 59.4704 43.7397C58.8692 43.2272 58.2026 42.789 57.4862 42.4355C56.7509 42.0712 55.9183 41.7888 55.097 41.9224C54.4544 42.0216 53.8797 42.3536 53.253 42.5282C52.3616 42.7675 51.2665 42.7179 50.7054 43.4142C50.4362 43.7462 50.3593 44.1881 50.1081 44.5308C49.7506 45.018 49.0945 45.2444 48.7257 45.7251C48.4789 46.075 48.3662 46.4953 48.4067 46.9151C48.3944 47.2548 48.4371 47.5944 48.5334 47.9218C48.6274 48.2032 48.6962 48.4916 48.7393 48.7841C48.7343 48.832 48.726 48.8795 48.7144 48.9264C48.6646 49.1419 48.5492 49.323 48.504 49.5321C48.4811 49.6458 48.4773 49.7622 48.4927 49.877C48.4248 50.3922 48.7732 50.8816 49.0085 51.3602C49.1906 51.734 49.3104 52.1325 49.3637 52.5415C48.775 52.7074 48.2008 52.9172 47.6465 53.1688C46.9066 53.5094 46.1623 53.9707 45.7369 54.5614C45.0445 55.4891 44.1776 56.2865 43.1803 56.9133C42.8733 57.6334 42.6126 58.3705 42.3997 59.1208C42.187 59.9831 41.9743 61.3994 41.3363 62.1388C40.6983 62.8782 40.4041 65.0727 40.4041 65.0727C40.4041 65.0727 39.5512 66.3791 39.5512 66.6485C39.5512 66.918 39.4448 68.1575 39.5512 68.524C39.6138 68.6391 39.6973 68.7428 39.7978 68.8301L39.7344 69.0457C39.4403 70.0309 39.0421 71.4515 39.0195 72.0184ZM59.0293 56.9176C59.0112 56.9931 58.9908 57.0642 58.9659 57.1332C58.9659 57.0642 58.9772 56.9974 58.9817 56.9284L59.0293 56.9176ZM50.943 85.5715L50.8299 85.4723L50.7756 85.4249C50.7756 85.399 50.7891 85.3731 50.7959 85.343L50.943 85.5715ZM45.0604 71.8503L45.1057 71.7705L45.2731 71.4817L46.6306 70.4254L46.8048 70.5763C46.8048 70.5763 46.6623 71.984 46.3093 71.9171C46.2279 71.902 46.1917 72.2254 46.1826 72.732C45.5423 72.2103 45.0536 71.8503 45.0536 71.8503H45.0604Z" fill="url(#paint0_linear_86_8318)"/>
<path d="M57.312 45.7382C57.312 45.7382 61.5361 45.376 62.5407 45.4752L62.8145 45.4989C63.8626 45.6006 64.8494 46.0182 65.6313 46.691C65.6965 46.7501 65.7734 46.7963 65.8575 46.8268C66.31 46.9583 66.792 47.8831 66.792 47.8831C66.792 47.8831 65.7195 55.9649 65.7195 56.0641C65.7195 56.1633 63.5023 59.8237 63.5023 59.8237L61.3551 60.617L57.6514 61.115L57.5473 59.593C57.5473 59.593 59.3302 58.6618 59.1311 56.7367C58.932 54.8116 57.312 45.7382 57.312 45.7382Z" fill="#464353"/>
<path d="M59.389 55.337C59.389 55.337 58.484 59.2303 59.389 60.4827C60.294 61.7352 50.4565 58.4391 50.4565 58.4391L48.6465 55.337C48.6465 55.337 49.3252 54.8779 50.09 54.2851C51.1669 53.4594 52.4566 52.3772 52.4566 51.9138C52.4679 51.114 59.389 55.337 59.389 55.337Z" fill="#ECB4B6"/>
<path opacity="0.1" d="M59.389 55.337C59.389 55.337 58.484 59.2303 59.389 60.4827C60.294 61.7352 50.4565 58.4391 50.4565 58.4391L48.6465 55.337C48.6465 55.337 49.3252 54.8779 50.09 54.2851C51.1669 53.4594 52.4566 52.3772 52.4566 51.9138C52.4679 51.114 59.389 55.337 59.389 55.337Z" fill="black"/>
<path opacity="0.1" d="M57.312 57.9174C60.6395 57.9174 63.3371 55.3472 63.3371 52.1767C63.3371 49.0062 60.6395 46.436 57.312 46.436C53.9844 46.436 51.2869 49.0062 51.2869 52.1767C51.2869 55.3472 53.9844 57.9174 57.312 57.9174Z" fill="black"/>
<path d="M57.312 57.6523C60.6395 57.6523 63.3371 55.0821 63.3371 51.9116C63.3371 48.7411 60.6395 46.1709 57.312 46.1709C53.9844 46.1709 51.2869 48.7411 51.2869 51.9116C51.2869 55.0821 53.9844 57.6523 57.312 57.6523Z" fill="#ECB4B6"/>
<path d="M65.102 59.0369C65.1246 59.2525 65.5545 59.6987 66.1382 60.2269C67.4188 61.3866 69.4302 62.8978 69.4302 62.8978C69.4302 62.8978 73.3783 66.3275 73.729 66.4267C74.0797 66.5259 75.1137 69.891 75.1137 69.891C75.1137 69.891 74.8716 75.4656 78.0549 75.6963C79.4125 75.7933 79.9826 74.7909 80.1908 73.6031C80.3439 72.6846 80.2837 71.7452 80.0144 70.8513C79.745 69.9573 79.2731 69.1306 78.6319 68.4294L76.7404 66.3319L75.0435 63.4281C73.9558 61.7932 73.0395 60.0603 72.3081 58.2544C71.5424 56.4786 70.4125 54.8662 68.9845 53.5118C68.6293 53.1755 68.4008 52.9966 68.4008 52.9966L66.817 53.4579C66.817 53.4579 65.0341 58.3729 65.102 59.0369Z" fill="#ECB4B6"/>
<path d="M71.1609 117.162L71.7672 117.741C72.8171 118.748 74.9167 120.759 75.4552 121.216C76.1814 121.844 77.8444 121.943 79.229 121.678C79.9395 121.544 80.8128 120.895 81.478 120.298C81.6318 120.161 81.7548 119.996 81.8397 119.813C81.9246 119.629 81.9696 119.431 81.9719 119.231C81.9742 119.03 81.9339 118.831 81.8532 118.646C81.7726 118.461 81.6534 118.293 81.5029 118.153C80.8467 117.541 80.0775 116.86 79.7472 116.763C79.125 116.564 77.3579 115.379 76.5276 114.392C76.0954 113.876 75.3126 113.387 74.6633 113.036C74.066 112.714 73.584 112.512 73.584 112.512L71.1609 117.162Z" fill="#C17174"/>
<path opacity="0.1" d="M72.0161 117.162C72.0161 117.162 72.2175 117.358 72.5297 117.655C73.4234 118.517 75.2085 120.216 75.6678 120.611C76.2855 121.143 77.7041 121.227 78.8761 121.003C79.4055 120.902 80.0368 120.468 80.5707 120.02C80.733 119.885 80.8641 119.719 80.9556 119.533C81.0472 119.346 81.0972 119.144 81.1025 118.939C81.1078 118.733 81.0683 118.529 80.9865 118.339C80.9047 118.149 80.7824 117.977 80.6273 117.834C80.1159 117.366 79.5684 116.903 79.3173 116.823C78.7878 116.655 77.281 115.644 76.5796 114.803C76.1253 114.335 75.5895 113.945 74.9959 113.65C74.4891 113.376 74.0795 113.204 74.0795 113.204L72.0161 117.162Z" fill="black"/>
<path d="M43.644 85.8192C43.644 85.8192 44.1192 86.3301 44.6961 86.9294C45.4224 87.686 46.3138 88.5871 46.6215 88.7876C47.1758 89.1519 48.8727 91.8897 48.8727 91.8897C48.8727 91.8897 50.6828 94.7266 53.0629 94.8581C55.4431 94.9896 55.4522 92.351 55.2779 92.1872C55.1037 92.0234 54.8639 90.5359 54.5177 89.4473C54.2553 88.6238 52.1081 86.6664 51.081 85.7631C50.7506 85.4721 50.5357 85.291 50.5357 85.291L43.644 85.8192Z" fill="#C17174"/>
<path opacity="0.1" d="M44.1531 86.1985C44.1531 86.1985 44.583 86.6641 45.1101 87.2117C45.773 87.9015 46.5853 88.7207 46.8658 88.9061C47.3727 89.2381 48.918 91.7344 48.918 91.7344C48.918 91.7344 50.5606 94.3213 52.7394 94.4398C54.9182 94.5584 54.9159 92.1548 54.7598 92.0039C54.6037 91.853 54.3797 90.4949 54.0652 89.5075C53.8254 88.7573 51.8683 86.9724 50.9316 86.1489C50.6307 85.8838 50.4339 85.7178 50.4339 85.7178L44.1531 86.1985Z" fill="black"/>
<path opacity="0.1" d="M43.644 85.8192C43.644 85.8192 44.1192 86.3301 44.6961 86.9294C47.7369 87.3605 49.151 86.8755 49.151 86.8755C49.151 86.8755 50.5696 86.2805 50.8819 86.2482C50.961 86.2482 51.0176 86.052 51.081 85.7631C50.7506 85.4721 50.5357 85.291 50.5357 85.291L43.644 85.8192Z" fill="black"/>
<path d="M47.3071 78.0347C47.3071 78.0347 45.402 79.5156 44.3228 80.046C43.2436 80.5763 42.6666 82.3181 42.6666 82.3181C42.6666 82.3181 41.0399 86.0798 44.3273 86.6058C47.6148 87.1318 49.142 86.6058 49.142 86.6058C49.142 86.6058 50.5606 86.013 50.8728 85.9807C51.185 85.9483 51.1828 83.1092 52.3254 82.2513C53.4679 81.3933 56.0992 79.4488 56.0992 79.4488L47.3071 78.0347Z" fill="#5E5A6B"/>
<path opacity="0.1" d="M47.3071 78.0347C47.3071 78.0347 45.402 79.5156 44.3228 80.046C43.2436 80.5763 42.6666 82.3181 42.6666 82.3181C42.6666 82.3181 41.0399 86.0798 44.3273 86.6058C47.6148 87.1318 49.142 86.6058 49.142 86.6058C49.142 86.6058 50.5606 86.013 50.8728 85.9807C51.185 85.9483 51.1828 83.1092 52.3254 82.2513C53.4679 81.3933 56.0992 79.4488 56.0992 79.4488L47.3071 78.0347Z" fill="black"/>
<path d="M65.0996 73.5142C65.0996 73.5142 66.4571 75.2754 66.0363 75.6979C65.6154 76.1204 64.5837 76.5818 64.5837 76.5818C64.5837 76.5818 63.9593 79.7162 62.9547 81.0355C61.9502 82.3548 59.9795 83.8077 59.9795 83.8077L61.3619 76.4502L65.0996 73.5142Z" fill="#5E5A6B"/>
<path opacity="0.1" d="M59.9817 83.8077C60.5977 83.3441 61.1883 82.8505 61.751 82.3289C62.1886 81.9298 62.5912 81.4972 62.9547 81.0355C63.9592 79.7162 64.5837 76.5818 64.5837 76.5818C64.5837 76.5818 65.6222 76.1204 66.0362 75.6979C66.2896 75.4414 65.8892 74.6933 65.5362 74.1436C65.31 73.7858 65.1018 73.5142 65.1018 73.5142L63.1402 75.0533L61.3618 76.4502L60.8392 79.3001L59.9817 83.8077Z" fill="black"/>
<path opacity="0.1" d="M71.1609 117.161L71.7672 117.741C72.1496 117.741 72.7198 117.786 72.7198 117.786C72.7198 117.786 75.5231 114.585 75.0728 114.024C74.8691 113.722 74.7299 113.384 74.6633 113.031C74.066 112.709 73.5841 112.507 73.5841 112.507L71.1609 117.161Z" fill="black"/>
<path d="M49.7642 83.3788C49.7642 83.9393 54.4725 90.801 54.4725 90.801C54.4725 90.801 56.3074 93.7694 56.7237 94.0345C57.14 94.2997 58.4884 96.3756 58.4884 96.3756C58.4884 96.3756 60.1853 100.103 60.4636 100.5C60.7419 100.896 61.2238 102.871 61.2238 102.871C61.2238 102.871 62.1945 105.609 62.6447 105.971C63.095 106.333 63.337 107.654 63.337 107.654C63.337 107.654 64.7556 109.633 64.9977 109.963C65.2819 110.443 65.5365 110.938 65.7602 111.446C65.7602 111.446 66.5227 112.634 66.5227 113.098C66.5227 113.561 68.1064 114.35 68.1064 114.35C68.1064 114.35 69.2377 115.643 69.9051 115.859C70.5726 116.075 71.188 117.607 71.2898 117.508C71.3916 117.409 72.5727 117.508 72.5727 117.508C72.5727 117.508 75.3759 114.309 74.9257 113.749C74.4754 113.188 74.3714 111.867 74.3714 111.867C74.3714 111.867 75.5026 109.394 74.8917 109.263C74.2809 109.131 71.9256 105.216 71.9256 105.216C71.8916 102.248 69.0522 99.7407 69.0522 99.7407C69.0522 99.7407 67.6313 96.5071 67.2173 95.8152C67.0934 95.6396 67.0273 95.4328 67.0273 95.2213C67.0273 95.0097 67.0934 94.803 67.2173 94.6274C67.2173 94.6274 66.4209 94.0345 66.2828 93.737C66.1448 93.4396 65.4864 91.1976 65.4864 91.1976C65.4864 91.1976 64.69 89.8438 64.6538 89.2165C64.6176 88.5892 63.0701 86.8452 63.0701 86.8452C63.0701 86.8452 62.4411 83.907 61.7487 83.3788C61.613 83.2753 61.6356 82.8895 61.7487 82.329C62.0678 80.8523 63.0836 78.1835 63.785 76.4352C64.1855 75.435 64.4819 74.7344 64.4819 74.7344L63.1425 75.0534L51.7393 77.7696C51.7393 77.7696 51.1217 79.3498 50.5787 80.8394C50.1465 82.0121 49.7642 83.1309 49.7642 83.3788Z" fill="#5E5A6B"/>
<path opacity="0.1" d="M71.8895 110.396C71.8895 110.396 75.4552 109.077 73.6995 110.759C71.9438 112.44 68.5771 112.343 68.5771 112.343L71.8895 110.396Z" fill="black"/>
<path opacity="0.1" d="M65.7943 103.66C65.7943 103.66 63.7874 104.716 64.1675 105.738C64.5476 106.76 65.7943 103.66 65.7943 103.66Z" fill="black"/>
<path opacity="0.1" d="M63.7807 95.4854C63.587 95.8165 63.2984 96.0884 62.9487 96.2693C62.599 96.4502 62.2026 96.5327 61.8055 96.5072C60.3598 96.4749 63.7807 95.4854 63.7807 95.4854Z" fill="black"/>
<path opacity="0.1" d="M44.9519 80.8096C44.9519 80.8096 45.7143 83.0537 44.9519 83.2175C44.1895 83.3813 44.9519 80.8096 44.9519 80.8096Z" fill="black"/>
<path opacity="0.1" d="M65.102 59.037C65.1246 59.2526 65.5545 59.6988 66.1382 60.227C66.4686 59.2138 66.7763 58.2868 66.5907 57.9807C66.3147 57.5194 67.3962 56.5299 67.2016 55.8702C67.0523 55.3658 68.3555 54.0875 68.9754 53.5162C68.6202 53.1799 68.3917 53.001 68.3917 53.001L66.8079 53.4623C66.8079 53.4623 65.0341 58.373 65.102 59.037Z" fill="black"/>
<path opacity="0.1" d="M50.5764 80.8394C51.8909 80.7704 54.9567 79.865 54.9567 79.865C54.9567 79.865 58.5111 79.7529 60.8392 79.3002C61.9705 79.0847 62.7941 78.7764 62.7941 78.369C62.7941 77.8236 63.2624 77.0928 63.7941 76.4288C64.1576 75.9902 64.5458 75.5706 64.957 75.172C65.1732 74.961 65.3377 74.707 65.4389 74.4283C65.4706 74.3399 65.5091 74.2408 65.5475 74.1373C65.3213 73.7794 65.1131 73.5078 65.1131 73.5078L63.1515 75.047L51.7484 77.7632C51.7484 77.7632 51.1104 79.3498 50.5764 80.8394Z" fill="black"/>
<path d="M46.7868 78.6945C46.7868 78.6945 49.3479 80.1453 50.1104 80.4083C50.8729 80.6713 54.9567 79.4684 54.9567 79.4684C54.9567 79.4684 62.7828 79.2226 62.7828 77.9594C62.7828 76.9915 64.267 75.4351 64.9458 74.7754C65.1624 74.5639 65.327 74.3091 65.4277 74.0295C65.6652 73.3828 66.1449 72.1821 66.5906 71.7574C67.2151 71.1646 66.2445 67.9978 66.2445 67.9978C66.2445 67.9978 66.0363 65.7537 65.7603 65.0941C65.4842 64.4344 65.7603 64.3374 65.534 63.7748C65.267 63.1431 65.0815 63.1798 65.4186 61.729C65.7557 60.2782 66.5951 58.4307 66.3236 57.9673C66.0521 57.5038 67.1291 56.5164 66.9345 55.8568C66.7399 55.1971 69.0228 53.2182 69.0228 53.2182C69.0228 53.2182 68.7378 51.0603 68.5319 50.7844C68.326 50.5085 67.5635 49.0038 67.5635 48.6739C67.5635 48.3441 67.0771 48.2773 66.801 47.8828C66.525 47.4883 63.3281 58.1095 63.3281 58.1095L58.6695 59.1098L58.4116 59.1637C58.4116 59.1637 55.7622 59.2822 54.0427 58.3725C54.0427 58.3725 51.072 57.9112 50.1014 53.2268C49.359 53.4044 48.6374 53.6528 47.9474 53.9684C47.2257 54.3025 46.5017 54.7574 46.0854 55.3373C45.4137 56.2494 44.5698 57.0346 43.5966 57.6525C43.2974 58.361 43.0428 59.0859 42.8341 59.8233C42.6282 60.6856 42.4201 62.0674 41.7956 62.7939C41.1712 63.5204 40.8906 65.6955 40.8906 65.6955L47.1329 71.1085C47.1329 71.1085 46.9949 72.4946 46.6487 72.4278C46.3026 72.361 46.7868 78.6945 46.7868 78.6945Z" fill="#464353"/>
<path opacity="0.1" d="M47.9565 54.2316L51.287 60.8475C51.287 60.8475 52.6716 61.7098 53.1581 61.242C53.6445 60.7742 55.4772 60.7807 55.4772 60.7807L55.7193 61.242L59.2284 60.453L58.6786 59.3751L58.4207 59.4312C58.4207 59.4312 55.7713 59.5498 54.0518 58.64C54.0518 58.64 51.0811 58.1766 50.1105 53.4922C49.3682 53.6691 48.6466 53.9168 47.9565 54.2316Z" fill="black"/>
<path d="M47.9565 53.9681L51.287 60.5819C51.287 60.5819 52.6716 61.4442 53.1581 60.9785C53.6445 60.5129 55.4772 60.5172 55.4772 60.5172L55.7193 60.9785L59.2284 60.1874L58.6786 59.1095L58.4207 59.1634C58.4207 59.1634 55.7713 59.282 54.0518 58.3723C54.0518 58.3723 51.0811 57.9109 50.1105 53.2266C49.3681 53.4041 48.6465 53.6526 47.9565 53.9681Z" fill="#464353"/>
<path opacity="0.1" d="M49.418 73.2168C49.418 73.2168 56.7666 75.42 57.3119 75.698C57.8572 75.9761 49.4519 73.9756 49.418 73.2168Z" fill="black"/>
<path opacity="0.1" d="M54.0516 76.582C54.0516 76.582 52.1194 77.606 51.4271 77.2417C50.7347 76.8774 54.0516 76.582 54.0516 76.582Z" fill="black"/>
<path opacity="0.1" d="M60.1174 64.3457C60.1174 64.3457 61.9773 73.8115 59.2283 76.5816L60.1174 64.3457Z" fill="black"/>
<path opacity="0.1" d="M63.1741 50.0946C63.518 49.7414 63.7153 49.281 63.729 48.7994C63.7428 48.3178 63.5721 47.848 63.2488 47.4775C63.0089 47.2188 62.6944 47.0227 62.4976 46.7316C62.3968 46.5288 62.274 46.3366 62.1311 46.1582C61.7736 45.809 61.1718 45.9017 60.6808 45.7594C60.1898 45.6171 59.8572 45.2722 59.493 44.9596C58.9083 44.4521 58.2583 44.0175 57.5585 43.6662C56.839 43.3084 56.0268 43.0367 55.2259 43.1618C54.5991 43.2609 54.0403 43.5929 53.4271 43.7589C52.5583 43.9939 51.4882 43.9464 50.9384 44.632C50.6782 44.9575 50.6035 45.3908 50.3569 45.7292C50.0085 46.2078 49.3682 46.432 48.9994 46.9041C48.5944 47.4366 48.6374 48.1674 48.8116 48.8033C48.927 49.215 49.0899 49.6376 48.9881 50.0515C48.9383 50.2541 48.8274 50.4416 48.7844 50.6464C48.6713 51.181 49.0333 51.6876 49.2754 52.1835C49.536 52.72 49.6645 53.3062 49.651 53.8973C49.634 54.0298 49.6535 54.1643 49.7076 54.2874C49.7761 54.3864 49.8704 54.4666 49.9813 54.5203L51.0221 55.1454C51.071 55.1785 51.1264 55.2019 51.185 55.2144C51.3886 55.2446 51.513 55.0226 51.6375 54.8738C51.9859 54.4772 52.6488 54.5073 53.1398 54.7315C53.6308 54.9557 54.0335 55.3243 54.5267 55.5378C55.6829 56.04 57.0155 55.5938 58.2667 55.3632C58.6951 55.3043 59.118 55.2135 59.5314 55.0915C59.9212 54.9409 60.2929 54.7508 60.6401 54.5246C60.9923 54.3357 61.312 54.0965 61.5881 53.8153C61.7377 53.6605 61.8448 53.4727 61.8996 53.2689C61.9545 53.065 61.9555 52.8513 61.9026 52.6469C61.8008 52.2999 61.475 51.9873 61.5406 51.6014C61.6718 50.9331 62.7193 50.5343 63.1741 50.0946Z" fill="black"/>
<path d="M63.1741 49.8316C63.5182 49.4781 63.7155 49.0173 63.7293 48.5354C63.743 48.0534 63.5722 47.5832 63.2488 47.2124C63.0089 46.9558 62.6944 46.7575 62.4976 46.4687C62.3963 46.2654 62.2735 46.0725 62.1311 45.8931C61.7736 45.546 61.1718 45.6387 60.6808 45.4964C60.1898 45.3541 59.8572 45.0071 59.493 44.6945C58.9089 44.1862 58.2588 43.7515 57.5585 43.4011C56.839 43.0432 56.0268 42.7716 55.2259 42.8966C54.5991 42.9958 54.0403 43.3278 53.4271 43.4938C52.5583 43.7287 51.4882 43.6791 50.9384 44.356C50.6782 44.6837 50.6035 45.117 50.3569 45.4555C50.0085 45.934 49.3682 46.1582 48.9994 46.6303C48.5944 47.1628 48.6374 47.8936 48.8116 48.5295C48.927 48.9391 49.0899 49.3638 48.9881 49.7777C48.9383 49.9803 48.8274 50.1679 48.7844 50.3727C48.6713 50.9073 49.0333 51.4139 49.2754 51.9075C49.544 52.4511 49.6764 53.0466 49.6623 53.6472C49.6453 53.7804 49.6648 53.9156 49.7189 54.0395C49.7887 54.1374 49.8827 54.2174 49.9926 54.2724L51.0334 54.8954C51.0822 54.9292 51.1376 54.9534 51.1963 54.9665C51.3999 54.9945 51.5244 54.7746 51.6488 54.6237C51.9972 54.2271 52.6601 54.2594 53.1511 54.4815C53.6421 54.7035 54.0448 55.0743 54.538 55.2877C55.6942 55.79 57.0268 55.3438 58.278 55.1152C58.7063 55.0547 59.1291 54.9632 59.5427 54.8415C59.9324 54.6915 60.3041 54.5021 60.6514 54.2767C61.0037 54.0871 61.3234 53.8471 61.5994 53.5653C61.749 53.4109 61.8561 53.2235 61.911 53.0199C61.9658 52.8164 61.9668 52.603 61.9139 52.399C61.8121 52.0498 61.4863 51.7372 61.5519 51.3535C61.6718 50.668 62.7193 50.2692 63.1741 49.8316Z" fill="#464353"/>
<path d="M39.5512 72.5249C39.515 73.4152 40.3115 74.603 40.3115 74.603C40.5535 75.1635 43.531 77.7698 43.531 77.7698L45.8863 79.2788C45.8863 79.2788 49.038 81.1262 49.7824 81.456C50.1557 81.622 50.5562 82.3183 50.8661 82.9995C51.1761 83.6807 51.391 84.293 51.391 84.293C52.0733 84.1975 52.7026 83.8878 53.1793 83.4129C53.6559 82.9381 53.9526 82.3253 54.0224 81.6716C54.1106 80.8223 54.1694 80.0591 54.0925 80.044C53.9183 80.0117 51.9793 78.6256 51.9793 78.6256C51.9793 78.6256 49.7303 77.2394 49.0018 75.8555C48.2733 74.4715 45.4361 72.3589 45.4361 72.3589L45.4813 72.2791L45.6442 71.9946L45.9904 70.9059L40.5603 68.5972C40.5603 68.5972 40.4268 69.0175 40.2549 69.5931C39.9608 70.5632 39.5716 71.9709 39.5512 72.5249Z" fill="#ECB4B6"/>
<path opacity="0.1" d="M40.2502 69.5995C41.2762 70.562 42.3734 71.4531 43.5332 72.2661C43.8703 72.4536 45.0513 72.3372 45.4835 72.2855L45.6464 72.0009L45.9925 70.9123L40.5625 68.6035C40.5625 68.6035 40.4199 69.0196 40.2502 69.5995Z" fill="black"/>
<path d="M45.6441 65.5963C45.6441 65.5963 48.4134 67.1808 48.2754 67.8728C48.1374 68.5647 46.9631 70.9576 46.9631 70.9576L45.6441 71.9966C45.6441 71.9966 43.9472 72.2273 43.5309 71.9966C43.1146 71.766 40.1733 69.4572 40.0692 69.095C39.9651 68.7329 40.0692 67.5106 40.0692 67.2476C40.0692 66.9846 40.8996 65.6955 40.8996 65.6955L42.1123 63.6519L45.6441 65.5963Z" fill="#464353"/>
<path opacity="0.1" d="M54.9568 79.8584L55.7713 81.943L54.3979 83.1804L54.3346 83.5533L51.287 85.224L50.3186 82.8937L54.9568 79.8584Z" fill="black"/>
<path d="M54.9568 79.7271L55.7713 81.8095L54.3979 83.049L54.3346 83.422L51.287 85.0926L50.3186 82.7623L54.9568 79.7271Z" fill="#5E5A6B"/>
<g opacity="0.1">
<path opacity="0.1" d="M61.604 51.1898C61.556 51.0711 61.5404 50.9428 61.5587 50.8168C61.6719 50.1421 62.7194 49.739 63.1742 49.3078C63.4709 49.0135 63.6591 48.6352 63.7104 48.23C63.7541 48.5202 63.7286 48.8161 63.6358 49.0956C63.5429 49.3752 63.3852 49.6312 63.1742 49.8446C62.7556 50.2348 61.837 50.6056 61.604 51.1898Z" fill="black"/>
<path opacity="0.1" d="M48.8096 50.3447C48.9297 50.7103 49.0897 51.0629 49.287 51.3967C49.5483 51.9331 49.6776 52.5193 49.6648 53.1105C49.6469 53.2436 49.6656 53.3788 49.7191 53.5029C49.7888 53.6008 49.8828 53.6808 49.9929 53.7357L51.0336 54.3587C51.0826 54.3936 51.139 54.4179 51.1988 54.4298C51.4002 54.4579 51.5246 54.238 51.6513 54.0892C51.9997 53.6926 52.6649 53.7227 53.1536 53.9448C53.6423 54.1668 54.0473 54.5376 54.5406 54.7532C55.699 55.2533 57.0293 54.8092 58.2805 54.5786C58.709 54.519 59.1319 54.4275 59.5453 54.3048C59.9352 54.1553 60.3069 53.966 60.6539 53.74C61.007 53.5506 61.3275 53.3107 61.6042 53.0286C61.7593 52.8565 61.8694 52.6519 61.9254 52.4315C61.9692 52.6299 61.9629 52.8353 61.9071 53.031C61.8512 53.2266 61.7474 53.4068 61.6042 53.5568C61.3269 53.8382 61.0065 54.078 60.6539 54.2681C60.3069 54.4941 59.9352 54.6835 59.5453 54.8329C59.1316 54.9546 58.7088 55.0462 58.2805 55.1067C57.0316 55.3352 55.699 55.7815 54.5406 55.2792C54.0473 55.0636 53.6355 54.6971 53.1536 54.4729C52.6717 54.2487 51.9997 54.2186 51.6513 54.6152C51.5201 54.7661 51.3956 54.986 51.1988 54.958C51.1393 54.9451 51.0831 54.9209 51.0336 54.8868L49.9929 54.2638C49.8838 54.2077 49.79 54.1279 49.7191 54.031C49.6658 53.9069 49.6471 53.7717 49.6648 53.6387C49.6776 53.0474 49.5483 52.4612 49.287 51.9249C49.0449 51.4312 48.6829 50.9246 48.796 50.39C48.7995 50.3746 48.804 50.3595 48.8096 50.3447Z" fill="black"/>
<path opacity="0.1" d="M48.8253 48.0187C48.9362 48.4197 49.0946 48.8357 49.0063 49.241C48.9656 49.0082 48.8887 48.7753 48.8253 48.5468C48.717 48.1842 48.6787 47.8059 48.7122 47.4302C48.7324 47.629 48.7703 47.8259 48.8253 48.0187Z" fill="black"/>
</g>
<path opacity="0.1" d="M4.89384 33.3618C7.59663 33.3618 9.78768 31.2742 9.78768 28.699C9.78768 26.1238 7.59663 24.0361 4.89384 24.0361C2.19105 24.0361 0 26.1238 0 28.699C0 31.2742 2.19105 33.3618 4.89384 33.3618Z" fill="#0098AC"/>
<path opacity="0.1" d="M137.729 13.7148C140.432 13.7148 142.623 11.6272 142.623 9.05198C142.623 6.47678 140.432 4.38916 137.729 4.38916C135.026 4.38916 132.835 6.47678 132.835 9.05198C132.835 11.6272 135.026 13.7148 137.729 13.7148Z" fill="#0098AC"/>
<path opacity="0.1" d="M215.367 32.1352C218.07 32.1352 220.261 30.0476 220.261 27.4724C220.261 24.8972 218.07 22.8096 215.367 22.8096C212.665 22.8096 210.474 24.8972 210.474 27.4724C210.474 30.0476 212.665 32.1352 215.367 32.1352Z" fill="#0098AC"/>
<path opacity="0.1" d="M14.6792 62.2378C19.2088 62.2378 22.8808 58.7392 22.8808 54.4234C22.8808 50.1075 19.2088 46.6089 14.6792 46.6089C10.1495 46.6089 6.47754 50.1075 6.47754 54.4234C6.47754 58.7392 10.1495 62.2378 14.6792 62.2378Z" fill="#0098AC"/>
<path opacity="0.1" d="M114.855 178.002C119.384 178.002 123.056 174.504 123.056 170.188C123.056 165.872 119.384 162.374 114.855 162.374C110.325 162.374 106.653 165.872 106.653 170.188C106.653 174.504 110.325 178.002 114.855 178.002Z" fill="#0098AC"/>
<path opacity="0.1" d="M224.114 173.497C228.644 173.497 232.316 169.998 232.316 165.682C232.316 161.366 228.644 157.868 224.114 157.868C219.585 157.868 215.913 161.366 215.913 165.682C215.913 169.998 219.585 173.497 224.114 173.497Z" fill="#0098AC"/>
</g>
<defs>
<linearGradient id="paint0_linear_86_8318" x1="60.7601" y1="122.107" x2="60.7601" y2="41.8858" gradientUnits="userSpaceOnUse">
<stop stop-color="#808080" stop-opacity="0.25"/>
<stop offset="0.54" stop-color="#808080" stop-opacity="0.12"/>
<stop offset="1" stop-color="#808080" stop-opacity="0.1"/>
</linearGradient>
<clipPath id="clip0_86_8318">
<rect width="252" height="178" fill="white"/>
</clipPath>
</defs>
</svg>
