<svg width="38" height="20" viewBox="0 0 38 20" fill="none" xmlns="http://www.w3.org/2000/svg">
<path d="M37.5646 11.0507C37.5642 11.0512 37.5638 11.0517 37.5633 11.0521L29.8071 18.7709C29.2261 19.3491 28.2862 19.347 27.7079 18.7658C27.1296 18.1848 27.1318 17.2449 27.7128 16.6666L32.9203 11.4844H1.48438C0.664555 11.4844 0 10.8198 0 10C0 9.18019 0.664555 8.51564 1.48438 8.51564H32.9202L27.7129 3.33339C27.1319 2.75508 27.1296 1.81525 27.7079 1.23419C28.2863 0.652985 29.2262 0.650982 29.8072 1.22915L37.5634 8.94789C37.5638 8.94833 37.5642 8.94885 37.5647 8.9493C38.1461 9.52954 38.1442 10.4724 37.5646 11.0507Z" fill="black"/>
</svg>
