<svg width="38" height="20" viewBox="0 0 38 20" fill="none" xmlns="http://www.w3.org/2000/svg">
<path d="M0.435368 11.0507C0.435814 11.0512 0.436184 11.0517 0.436703 11.0521L8.19286 18.7709C8.77392 19.3491 9.71375 19.347 10.2921 18.7658C10.8704 18.1848 10.8682 17.2449 10.2872 16.6666L5.07968 11.4844H36.5156C37.3354 11.4844 38 10.8198 38 10C38 9.18019 37.3354 8.51564 36.5156 8.51564H5.07975L10.2871 3.33339C10.8681 2.75508 10.8704 1.81525 10.2921 1.23419C9.71368 0.652985 8.77377 0.650982 8.19279 1.22915L0.43663 8.94789C0.436184 8.94833 0.43581 8.94885 0.435291 8.9493C-0.146065 9.52954 -0.144207 10.4724 0.435368 11.0507Z" fill="black"/>
</svg>
