<svg width="306" height="212" viewBox="0 0 306 212" fill="none" xmlns="http://www.w3.org/2000/svg">
<path opacity="0.1" d="M178.757 33.3426C159.289 32.6691 140.746 26.4167 123.037 19.5746C105.328 12.7325 87.7934 5.15114 68.7908 1.54153C56.5686 -0.790043 42.5927 -1.11928 32.7439 5.39956C23.2682 11.6849 20.2059 22.5048 18.5574 32.5524C17.321 40.1158 16.59 48.0713 19.9863 55.1499C22.3417 60.0644 26.526 64.1948 29.4199 68.9029C39.4852 85.2808 32.3709 105.478 21.4603 121.47C16.3464 128.97 10.4083 136.136 6.45853 144.115C2.50881 152.094 0.682849 161.25 4.13623 169.397C7.56253 177.478 15.7237 183.536 24.5617 187.801C42.5175 196.463 63.6679 198.944 84.3099 200.348C129.98 203.458 175.897 202.111 221.687 200.764C238.635 200.264 255.655 199.759 272.327 197.152C281.586 195.703 291.146 193.404 297.866 187.873C306.397 180.831 308.512 168.903 302.796 160.074C293.206 145.261 266.698 141.58 259.987 125.684C256.296 116.935 260.086 107.187 265.447 99.0727C276.95 81.6622 296.229 66.3917 297.246 46.491C297.944 32.8248 288.676 19.1376 274.345 12.6697C259.322 5.89042 238.494 6.74344 227.418 17.9643C215.999 29.4905 195.946 33.9352 178.757 33.3426Z" fill="#0098AC"/>
<g opacity="0.1">
<path opacity="0.1" d="M25.9757 98.2796C25.9757 98.2796 3.49261 88.8695 0.535575 105.837C0.535575 105.837 -1.0016 108.483 1.13721 110.668C1.13721 110.668 1.59746 109.494 3.76936 110.707C4.5451 111.134 5.36911 111.467 6.22402 111.7C7.37859 112.017 8.60539 111.952 9.71952 111.515C9.71952 111.515 17.1166 111.117 23.3375 101.488C23.3375 101.488 26.0057 99.8479 26.1381 99.2314L21.68 99.5307C21.68 99.5307 22.0229 102.778 20.1759 104.727C20.1759 104.727 21.8124 99.6863 21.0272 99.5456C20.8678 99.5157 18.6718 99.803 18.6718 99.803C18.6718 99.803 19.2404 105.451 16.2653 108.372C16.2653 108.372 19.0268 102.628 17.8265 99.9048L14.5356 100.536C14.5356 100.536 15.438 106.478 12.1832 109.931C12.1832 109.931 14.8605 103.826 13.8257 100.725L10.6761 101.778C10.6761 101.778 11.4342 107.588 8.71178 110.458C8.71178 110.458 11.0882 103.092 9.96919 102.078C9.96919 102.078 7.1355 103.221 6.53086 103.874C6.53086 103.874 6.97907 108.064 5.24938 109.575C5.24938 109.575 6.31126 104.487 5.78483 104.278C5.78483 104.278 2.49389 106.744 1.48916 108.872C1.48916 108.872 2.74056 105.622 5.37271 103.784C5.37271 103.784 3.16171 103.413 1.46209 104.331C1.46209 104.331 2.59918 102.174 6.16988 103.197C6.16988 103.197 8.81406 101.374 9.34349 101.401C9.34349 101.401 5.96532 99.9048 3.5257 100.09C3.5257 100.09 6.1428 98.5938 10.1677 101.093L13.3113 99.9647C13.3113 99.9647 8.94942 97.7408 6.76549 97.7498C6.76549 97.7498 9.67139 96.6304 14.1265 99.7432L17.3452 99.0907C17.3452 99.0907 13.7354 96.8908 11.3018 96.379C11.3018 96.379 14.2197 95.9181 18.2747 98.938L20.4737 98.7555C20.4737 98.7555 17.8115 97.1931 17.0053 96.813C16.1991 96.4329 16.2352 96.1874 16.2352 96.1874C18.153 96.5193 19.9403 97.3753 21.3972 98.6597C21.3972 98.6597 25.9576 98.5579 25.9757 98.2796Z" fill="#0098AC"/>
</g>
<g opacity="0.1">
<path opacity="0.1" d="M25.1514 81.4108C25.1514 81.4108 17.1768 63.0724 5.70961 71.4828C5.70961 71.4828 3.28503 72.1832 3.30308 74.6854C3.30308 74.6854 4.24764 74.2484 4.84627 76.2029C5.06577 76.8961 5.36879 77.5604 5.74872 78.1813C6.25086 79.0251 7.01685 79.6821 7.92964 80.0519C7.92964 80.0519 12.5532 84.0087 21.7672 81.8148C21.7672 81.8148 24.2941 82.3506 24.7243 82.0632L21.9086 79.7077C21.9086 79.7077 20.2511 81.8328 18.0311 81.9345C18.0311 81.9345 21.8906 79.8693 21.5055 79.3396C21.4273 79.2318 19.9563 78.1603 19.9563 78.1603C19.9563 78.1603 17.0624 81.8358 13.6391 81.8926C13.6391 81.8926 18.5695 80.0429 19.4148 77.7473L17.0985 76.2507C17.0985 76.2507 14.2288 80.2884 10.3211 80.4979C10.3211 80.4979 15.408 78.3878 16.5691 75.9574L14.0934 74.7991C14.0934 74.7991 11.2176 78.6901 7.96574 78.8367C7.96574 78.8367 13.597 75.8078 13.5098 74.5717C13.5098 74.5717 11.1724 73.6438 10.4294 73.6977C10.4294 73.6977 8.30266 76.4363 6.4045 76.3585C6.4045 76.3585 9.95113 73.9371 9.75861 73.5151C9.75861 73.5151 6.38946 73.114 4.57553 73.8144C4.57553 73.8144 7.18061 72.5933 9.79471 72.9943C9.79471 72.9943 8.69372 71.5187 7.16256 71.1087C7.16256 71.1087 9.07576 70.4712 10.6099 73.0991C10.6099 73.0991 13.221 73.5181 13.5278 73.8294C13.5278 73.8294 12.3817 71.0189 10.8205 69.7529C10.8205 69.7529 13.227 70.3515 14.1896 74.1137L16.7045 75.2241C16.7045 75.2241 15.3869 71.429 14.0813 70.1988C14.0813 70.1988 16.4488 71.1805 17.3151 75.5564L19.6013 76.99C19.6013 76.99 18.7169 73.6378 17.5648 71.9527C17.5648 71.9527 19.5622 73.3355 20.2391 77.427L21.6529 78.5644C21.6529 78.5644 20.964 76.128 20.7023 75.4456C20.4406 74.7632 20.6031 74.6375 20.6031 74.6375C21.5533 75.9209 22.1252 77.4424 22.2545 79.0313C22.2545 79.0313 24.9739 81.5634 25.1514 81.4108Z" fill="#0098AC"/>
</g>
<path d="M280.743 199.681C280.443 198.597 280.142 197.499 279.54 196.556C278.982 195.756 278.318 195.034 277.567 194.41C275.386 192.438 272.706 190.435 269.815 190.935C268.918 191.13 268.052 191.444 267.24 191.869C266.819 192.064 266.394 192.258 265.961 192.423C264.741 192.93 263.392 193.047 262.102 192.758C261.44 192.581 260.823 192.264 260.171 192.067C259.86 191.974 259.542 191.906 259.22 191.863C259.85 191.579 260.463 191.258 261.055 190.902C264.301 188.906 266.891 185.314 266.527 181.513C266.406 180.226 265.961 178.996 265.522 177.784C265.137 176.724 264.751 175.664 264.364 174.602C263.865 173.222 263.35 171.819 262.436 170.672C261.419 169.397 259.975 168.532 258.483 167.886C255.276 166.5 251.772 166.012 248.312 165.539L248.072 165.506V128.321C248.074 128.005 248.013 127.692 247.893 127.4C247.773 127.108 247.596 126.842 247.372 126.618C247.149 126.394 246.883 126.216 246.59 126.095C246.297 125.974 245.982 125.911 245.665 125.911H241.114C240.913 124.69 240.713 123.47 240.512 122.251C239.938 118.776 239.345 115.232 237.736 112.101C236.683 110.051 235.004 108.1 232.745 107.696C232.3 107.654 231.863 107.554 231.446 107.396C230.784 107.073 230.423 106.355 229.911 105.822C228.6 104.454 226.467 104.433 224.707 103.727C223.155 103.113 221.886 101.955 220.472 101.066C219.058 100.177 217.298 99.5426 215.731 100.123C215.731 100.237 215.71 100.348 215.698 100.461L214.693 100.013C213.61 99.5157 212.503 99.0009 211.634 98.1808C210.515 97.1302 209.919 95.7444 209.456 94.2659C209.408 94.1102 209.363 93.9666 209.317 93.802C211.24 91.8475 212.541 89.3731 213.06 86.6875C213.141 86.9479 213.225 87.2113 213.306 87.4747C213.38 87.7424 213.481 88.0021 213.607 88.2499C213.649 88.3317 213.696 88.4107 213.748 88.4863C213.848 88.6332 213.972 88.7619 214.115 88.8664C214.258 88.9696 214.425 89.0346 214.6 89.055C214.684 89.0668 214.769 89.0668 214.852 89.055C215.08 89.0072 215.291 88.9036 215.468 88.7535C215.644 88.6035 215.78 88.4118 215.863 88.196C215.911 88.0783 215.946 87.9559 215.969 87.8308C215.98 87.7555 215.987 87.6796 215.99 87.6034C215.99 87.5794 215.99 87.5555 215.99 87.5315C215.99 87.5076 215.99 87.4268 215.99 87.3759C215.99 87.325 215.99 87.319 215.99 87.2921C215.99 87.2652 215.99 87.1903 215.99 87.1424V87.0646C215.99 87.0048 215.972 86.9449 215.959 86.888C215.947 86.8312 215.959 86.8551 215.959 86.8401C215.944 86.7623 215.926 86.6875 215.911 86.6097C215.91 86.5928 215.91 86.5757 215.911 86.5588L215.866 86.3702L215.839 86.2565V86.2266C215.809 86.1098 215.782 85.9901 215.755 85.8704C215.536 84.8306 215.48 83.7635 215.589 82.7068C215.771 81.1566 216.058 79.6206 216.45 78.1094L216.513 77.8371L216.585 77.5198C216.633 77.3043 216.678 77.0888 216.724 76.8733C216.763 76.6907 216.799 76.5052 216.832 76.3196C216.865 76.134 216.889 75.9934 216.913 75.8288C216.913 75.8078 216.913 75.7898 216.913 75.7689C217.097 74.6533 217.146 73.52 217.06 72.3927C216.919 70.8274 216.432 69.3458 215.361 68.1636C214.606 67.3285 213.613 66.7119 212.912 65.835C212.253 65.0119 211.883 64.0002 211.204 63.1951C209.323 60.9623 204.501 59.2413 201.541 58.942C198.151 58.6008 192.673 59.4628 189.942 61.4562C188.931 62.1924 188.239 63.252 187.535 64.2606C186.242 66.1343 184.771 68.0019 182.698 69.0495C181.913 69.4446 181.017 69.7439 180.496 70.4323C180.182 70.899 179.976 71.4297 179.895 71.9857C179.495 73.9363 179.287 75.9211 179.275 77.9119C179.23 78.7827 179.342 79.6544 179.606 80.4859C179.648 80.5997 179.699 80.7164 179.753 80.8271C179.801 80.9259 179.855 81.0247 179.913 81.1264L179.949 81.1893C180.312 81.7078 180.635 82.2531 180.914 82.8205C180.981 82.9804 181.029 83.147 181.059 83.3173C181.11 83.7568 181.082 84.2019 180.974 84.6313C180.974 84.6971 180.95 84.76 180.935 84.8228L180.908 84.9605C180.908 85.0024 180.908 85.0473 180.884 85.0892C180.86 85.2189 180.839 85.3476 180.821 85.4753C180.821 85.5651 180.803 85.6579 180.8 85.7507C180.779 86.1214 180.85 86.4916 181.008 86.8282C181.047 86.9084 181.094 86.9846 181.149 87.0556C181.257 87.1992 181.396 87.3168 181.555 87.3998C181.913 87.5338 182.287 87.6223 182.668 87.6632C183.793 87.9146 184.497 88.7707 184.954 89.8212C185.056 90.057 185.145 90.2978 185.222 90.5425C185.41 91.1567 185.55 91.784 185.643 92.4192C186.155 92.3922 186.452 91.9433 186.633 91.4524C186.689 91.2906 186.736 91.1257 186.774 90.9586C186.843 90.6443 186.913 90.33 186.985 90.0158C188.172 92.5225 190.085 94.6195 192.478 96.0378C192.562 96.2832 192.643 96.5316 192.718 96.783C193.112 98.1389 193.302 99.5606 192.619 100.746C192.132 101.587 191.311 102.108 190.396 102.467C190.264 102.291 190.095 102.147 189.9 102.045C189.106 101.65 188.155 102.132 187.493 102.721C186.29 103.805 185.309 105.358 183.724 105.714C183.152 105.846 182.521 105.819 182.042 106.166C181.727 106.461 181.464 106.806 181.263 107.187C180.919 107.678 180.457 108.075 179.919 108.341C179.381 108.608 178.784 108.736 178.183 108.713C177.632 108.686 176.98 108.561 176.604 108.962C176.324 109.261 176.303 109.737 176.002 110.021C175.596 110.416 174.937 110.222 174.372 110.198C173.963 110.199 173.559 110.283 173.184 110.444C172.809 110.606 172.471 110.842 172.191 111.138C172.155 109.93 171.69 108.774 170.879 107.875C170.067 107.043 168.939 106.615 167.976 105.963C165.57 104.334 164.366 101.473 163.112 98.8512C161.858 96.2293 160.203 93.4637 157.466 92.509C156.837 92.2875 155.962 92.2695 155.679 92.8771C155.583 93.1307 155.567 93.4075 155.634 93.6703C155.898 95.065 156.897 96.1844 157.76 97.3068C159.213 99.1984 160.432 101.512 160.08 103.877C159.668 106.675 157.162 108.848 156.861 111.658C156.729 112.898 157.044 114.143 157.041 115.388C157.041 116.166 156.918 116.953 157.087 117.71C157.266 118.286 157.477 118.85 157.721 119.401C157.992 120.306 158.132 121.244 158.136 122.188C158.349 126.155 158.561 130.123 158.771 134.091C158.931 137.051 158.281 139.973 157.625 142.885C156.812 144.611 156.181 146.417 155.742 148.272C155.002 151.514 154.981 154.968 156.043 158.122C156.611 159.837 157.484 161.445 157.95 163.19C157.95 163.229 157.968 163.264 157.977 163.3C158.022 163.672 158.073 164.043 158.142 164.411C158.228 164.836 158.34 165.256 158.476 165.668C158.613 166.377 158.835 167.068 159.138 167.724C159.56 168.558 160.18 169.277 160.943 169.819C160.51 170.663 159.809 171.343 159.343 172.169C158.531 173.599 158.497 175.356 158.792 176.979C159.361 180.109 161.06 182.908 163.304 185.183C163.204 185.177 163.104 185.177 163.004 185.183C162.27 185.263 161.565 185.514 160.946 185.916C156.196 188.678 153.48 194.596 154.473 200.013C154.668 201.073 155.008 202.144 155.718 202.949C156.309 203.59 157.069 204.054 157.911 204.287C158.437 204.445 158.978 204.545 159.526 204.586C163.229 204.886 166.815 203.177 170.527 203.033C171.758 203.014 172.989 203.071 174.212 203.204C175.999 203.351 177.79 203.445 179.585 203.485C182.5 203.554 184.142 202.782 186.004 200.612C186.462 200.073 186.843 199.475 187.138 198.834C188.721 198.744 190.468 198.606 191.735 198.502L191.753 198.678C191.822 199.277 191.927 199.965 192.409 200.345C192.68 200.529 192.988 200.653 193.311 200.71C196.352 201.456 199.43 202.207 202.558 202.207C204.027 202.177 205.494 202.064 206.95 201.869L212.455 201.237C214.057 201.442 215.638 201.785 217.181 202.261C218.769 202.8 220.255 203.599 221.807 204.227C225.417 205.685 229.304 206.206 233.151 206.714C233.807 206.801 234.559 206.861 235.046 206.415C235.672 205.817 235.461 204.814 235.287 203.976C235.215 203.635 235.161 203.287 235.116 202.94C237.712 203.619 240.253 204.497 242.714 205.565L243.147 205.754C243.271 206.406 243.878 206.93 244.459 207.633C244.649 207.929 244.872 208.203 245.124 208.45C245.41 208.638 245.737 208.756 246.077 208.795C250.143 209.548 254.294 209.734 258.411 209.348C259.253 209.234 260.105 209.205 260.953 209.262C261.575 209.345 262.189 209.484 262.788 209.675L266.271 210.665C268.837 211.399 271.469 212.138 274.131 211.973C274.672 211.938 275.209 211.861 275.738 211.743C277.844 211.258 279.808 210.085 280.819 208.199C282.175 205.634 281.517 202.482 280.743 199.681ZM178.568 152.867C178.461 154.164 178.12 155.433 177.563 156.611C177.19 157.362 176.709 158.054 176.36 158.808C176.029 159.49 175.782 160.78 175.635 162.196C175.454 162.166 175.271 162.139 175.091 162.118C175.358 161.184 175.56 160.227 175.828 159.29C176.462 157.063 177.506 154.959 178.568 152.867Z" fill="url(#paint0_linear_254_1255)"/>
<path d="M183.204 198.899C182.569 197.463 181.967 195.811 182.602 194.374C183.016 193.528 183.728 192.862 184.602 192.503C185.468 192.152 186.38 191.928 187.31 191.839C190.229 191.458 193.183 191.418 196.112 191.719C196.325 193.401 195.874 195.107 195.486 196.733C195.134 198.229 194.932 198.451 193.38 198.528C192.375 198.582 183.441 199.429 183.204 198.899Z" fill="#FBBEBE"/>
<path d="M209.991 189.208C233.749 189.208 253.008 183.848 253.008 177.236C253.008 170.624 233.749 165.264 209.991 165.264C186.234 165.264 166.975 170.624 166.975 177.236C166.975 183.848 186.234 189.208 209.991 189.208Z" fill="#464353"/>
<path opacity="0.1" d="M209.991 189.208C233.749 189.208 253.008 183.848 253.008 177.236C253.008 170.624 233.749 165.264 209.991 165.264C186.234 165.264 166.975 170.624 166.975 177.236C166.975 183.848 186.234 189.208 209.991 189.208Z" fill="black"/>
<path d="M217.704 114.035C216.23 116.87 213.781 119.083 210.804 120.272C209.051 120.908 207.206 121.258 205.341 121.308C203.298 121.401 201.214 121.269 199.294 120.575C196.719 119.647 194.581 117.749 192.977 115.537C191.374 113.325 190.27 110.799 189.31 108.252C188.805 106.926 188.324 105.514 188.561 104.113C190.11 103.763 191.807 103.248 192.607 101.88C193.29 100.707 193.101 99.3 192.707 97.9591C192.595 97.579 192.466 97.2019 192.337 96.8397C192.036 95.9718 190.998 94.3226 191.72 93.5803C192.18 93.1104 194.108 92.871 194.773 92.5657C196.822 91.6259 198.711 90.267 200.961 89.8211C202.907 89.435 204.917 89.7971 206.86 90.1982C207.118 90.2355 207.365 90.324 207.588 90.4586C207.842 90.6714 208.03 90.9517 208.129 91.2667C208.683 92.6076 209.008 94.0891 209.453 95.4869C209.916 96.9505 210.512 98.3243 211.628 99.3629C212.497 100.174 213.604 100.683 214.687 101.177L217.353 102.392C217.827 102.568 218.257 102.845 218.613 103.203C218.961 103.68 219.17 104.243 219.215 104.831C219.692 107.981 219.164 111.2 217.704 114.035Z" fill="#FBBEBE"/>
<path opacity="0.1" d="M209.441 95.4869C207.319 97.6827 204.526 99.1165 201.498 99.5639C198.469 100.011 195.378 99.4469 192.706 97.9591C192.595 97.579 192.466 97.2019 192.336 96.8397C192.036 95.9717 190.998 94.3226 191.72 93.5803C192.18 93.1104 194.108 92.871 194.773 92.5657C196.822 91.6259 198.711 90.267 200.961 89.8211C202.907 89.435 204.917 89.7971 206.86 90.1982C207.118 90.2355 207.365 90.324 207.588 90.4586C207.842 90.6714 208.029 90.9517 208.129 91.2667C208.671 92.6076 208.996 94.0891 209.441 95.4869Z" fill="black"/>
<path d="M199.463 99.1174C207.105 99.1174 213.3 92.9533 213.3 85.3495C213.3 77.7456 207.105 71.5815 199.463 71.5815C191.82 71.5815 185.625 77.7456 185.625 85.3495C185.625 92.9533 191.82 99.1174 199.463 99.1174Z" fill="#FBBEBE"/>
<path d="M241.622 130.033L240.485 123.179C239.911 119.74 239.318 116.235 237.712 113.137C236.656 111.108 234.98 109.174 232.721 108.773C232.276 108.734 231.839 108.633 231.422 108.474C230.76 108.156 230.399 107.444 229.89 106.917C228.579 105.565 226.443 105.544 224.686 104.855C223.134 104.257 221.865 103.104 220.451 102.224C219.037 101.344 217.277 100.728 215.713 101.29C215.46 103.969 215.193 106.708 214.049 109.147C213.305 110.735 212.214 112.138 210.855 113.252C209.496 114.366 207.904 115.165 206.196 115.588C204.487 116.011 202.705 116.05 200.979 115.7C199.254 115.35 197.629 114.62 196.223 113.565C193.543 111.557 191.825 108.459 191.025 105.217C190.829 104.427 190.607 103.52 189.876 103.158C189.085 102.763 188.134 103.242 187.469 103.823C186.251 104.897 185.282 106.435 183.7 106.798C183.128 106.929 182.497 106.902 182.021 107.247C181.706 107.537 181.441 107.878 181.239 108.255C180.893 108.742 180.43 109.135 179.893 109.4C179.356 109.664 178.761 109.791 178.162 109.77C177.611 109.743 176.959 109.617 176.583 110.015C176.303 110.314 176.282 110.781 175.981 111.06C175.575 111.452 174.916 111.26 174.351 111.239C173.28 111.194 172.284 111.877 171.67 112.736C171.057 113.595 170.768 114.657 170.467 115.687C173.755 122.972 176.763 130.266 180.051 137.551C180.205 137.826 180.287 138.135 180.289 138.449C180.223 138.775 180.083 139.083 179.88 139.347C178.267 141.924 178.318 145.165 178.496 148.194C178.673 151.223 178.89 154.423 177.53 157.138C177.16 157.883 176.679 158.565 176.327 159.311C175.503 160.999 175.205 166.398 175.686 168.212H243.671C242.374 164.665 242.868 157.548 243.138 153.782C243.328 151.149 242.838 148.518 242.627 145.884C242.185 140.505 242.516 135.402 241.622 130.033Z" fill="#F86D70"/>
<path d="M245.103 166.117C246.105 165.737 247.209 165.874 248.282 166.018C251.739 166.488 255.246 166.97 258.45 168.344C259.954 168.984 261.386 169.84 262.403 171.1C263.305 172.234 263.832 173.623 264.331 174.991L265.486 178.131C265.925 179.328 266.371 180.549 266.494 181.821C266.855 185.589 264.265 189.142 261.007 191.1C257.749 193.057 253.914 193.754 250.178 194.485C246.441 195.215 242.69 196.023 238.969 196.879C237.234 197.327 235.473 197.672 233.696 197.912C229.713 198.361 225.55 197.699 221.765 199.01C220.261 199.534 218.784 200.312 217.223 200.674C216.188 200.9 215.14 201.068 214.086 201.177L206.923 201.991C205.467 202.185 204 202.297 202.531 202.326C199.403 202.326 196.325 201.59 193.287 200.854C192.964 200.797 192.657 200.674 192.385 200.492C191.903 200.115 191.798 199.447 191.729 198.843C191.422 196.167 191.153 193.488 190.923 190.806C190.85 189.935 190.796 188.992 191.275 188.259C191.876 187.361 193.049 187.08 194.12 186.906C198.661 186.167 203.262 185.85 207.862 185.958C209.609 184.219 212.491 184.21 214.78 183.264C215.623 182.879 216.438 182.438 217.22 181.944C221.313 179.568 225.887 178.129 230.609 177.733C231.535 177.705 232.454 177.574 233.35 177.344C235.122 176.796 236.737 175.305 238.557 175.67C238.783 175.051 238.939 174.222 239.459 173.797C239.718 173.578 240.037 173.432 240.275 173.198C240.777 172.692 240.822 171.896 240.747 171.19C240.672 170.484 240.503 169.759 240.687 169.071C240.763 168.81 240.876 168.561 241.021 168.332C241.926 166.757 243.289 165.967 245.103 166.117Z" fill="#464353"/>
<path opacity="0.05" d="M245.103 166.117C246.105 165.737 247.209 165.874 248.282 166.018C251.739 166.488 255.246 166.97 258.45 168.344C259.954 168.984 261.386 169.84 262.403 171.1C263.305 172.234 263.832 173.623 264.331 174.991L265.486 178.131C265.925 179.328 266.371 180.549 266.494 181.821C266.855 185.589 264.265 189.142 261.007 191.1C257.749 193.057 253.914 193.754 250.178 194.485C246.441 195.215 242.69 196.023 238.969 196.879C237.234 197.327 235.473 197.672 233.696 197.912C229.713 198.361 225.55 197.699 221.765 199.01C220.261 199.534 218.784 200.312 217.223 200.674C216.188 200.9 215.14 201.068 214.086 201.177L206.923 201.991C205.467 202.185 204 202.297 202.531 202.326C199.403 202.326 196.325 201.59 193.287 200.854C192.964 200.797 192.657 200.674 192.385 200.492C191.903 200.115 191.798 199.447 191.729 198.843C191.422 196.167 191.153 193.488 190.923 190.806C190.85 189.935 190.796 188.992 191.275 188.259C191.876 187.361 193.049 187.08 194.12 186.906C198.661 186.167 203.262 185.85 207.862 185.958C209.609 184.219 212.491 184.21 214.78 183.264C215.623 182.879 216.438 182.438 217.22 181.944C221.313 179.568 225.887 178.129 230.609 177.733C231.535 177.705 232.454 177.574 233.35 177.344C235.122 176.796 236.737 175.305 238.557 175.67C238.783 175.051 238.939 174.222 239.459 173.797C239.718 173.578 240.037 173.432 240.275 173.198C240.777 172.692 240.822 171.896 240.747 171.19C240.672 170.484 240.503 169.759 240.687 169.071C240.763 168.81 240.876 168.561 241.021 168.332C241.926 166.757 243.289 165.967 245.103 166.117Z" fill="black"/>
<path d="M185.971 200.749C184.109 202.895 182.47 203.661 179.555 203.592C177.762 203.551 175.971 203.458 174.182 203.314C172.959 203.183 171.73 203.126 170.5 203.144C166.788 203.287 163.205 204.978 159.502 204.682C158.955 204.639 158.413 204.539 157.887 204.383C157.052 204.151 156.297 203.694 155.706 203.063C154.996 202.264 154.656 201.204 154.461 200.156C153.471 194.787 156.184 188.939 160.934 186.206C161.554 185.808 162.258 185.559 162.992 185.479C163.711 185.476 164.422 185.631 165.073 185.933L165.119 185.951C167.048 186.741 168.801 187.905 170.275 189.375C170.498 189.63 170.765 189.844 171.063 190.007C171.36 190.119 171.675 190.177 171.992 190.181L175.945 190.429C176.615 190.449 177.28 190.54 177.93 190.701C178.647 190.95 179.345 191.25 180.018 191.599C182.145 192.545 184.503 192.797 186.801 193.162C187.023 193.174 187.234 193.258 187.403 193.401C187.495 193.515 187.559 193.648 187.59 193.79C187.91 194.994 187.931 196.257 187.649 197.47C187.367 198.682 186.791 199.808 185.971 200.749Z" fill="#3F3D56"/>
<path opacity="0.1" d="M165.106 185.951C163.573 187.408 162.242 189.063 161.151 190.872C159.399 193.857 158.298 197.175 157.92 200.611C157.777 201.865 157.766 203.13 157.887 204.386C157.051 204.153 156.296 203.695 155.706 203.063C154.996 202.264 154.656 201.204 154.461 200.156C153.471 194.787 156.184 188.938 160.934 186.206C161.554 185.808 162.258 185.559 162.992 185.479C163.711 185.476 164.422 185.631 165.073 185.933L165.106 185.951Z" fill="black"/>
<path d="M241.662 193.395C243.873 193.335 246.354 193.225 247.979 194.706C249.528 196.107 249.733 198.417 249.835 200.498L249.952 202.913C249.988 203.649 250.018 204.41 249.721 205.092C249.191 206.289 247.738 206.867 246.412 206.798C245.085 206.729 243.867 206.152 242.654 205.631C239.363 204.22 235.936 203.146 232.427 202.425C232.541 200.755 232.731 199.093 232.998 197.439C233.182 196.292 233.212 194.374 233.982 193.422C234.797 192.416 235.859 192.961 236.966 193.147C238.519 193.383 240.092 193.466 241.662 193.395Z" fill="#FBBEBE"/>
<path d="M183.237 169.128C183.237 169.427 182.764 169.128 182.722 168.807C182.391 166.386 180.46 164.39 178.21 163.42C175.96 162.45 173.397 162.399 170.96 162.63C167.275 162.977 163.154 164.381 161.791 167.808C161.472 168.61 161.328 169.478 160.937 170.247C160.504 171.091 159.797 171.765 159.328 172.585C158.518 174.003 158.485 175.742 158.777 177.347C159.562 181.627 162.504 185.287 166.069 187.822C169.634 190.357 173.8 191.872 177.954 193.237C188.939 196.841 200.209 199.52 211.646 201.243C213.499 201.521 215.37 201.779 217.145 202.371C218.733 202.901 220.219 203.694 221.771 204.317C225.381 205.76 229.265 206.274 233.112 206.78C233.768 206.864 234.52 206.924 235.004 206.481C235.63 205.903 235.422 204.898 235.245 204.069C234.592 200.919 235.137 197.64 236.776 194.868C237.42 193.79 238.256 192.686 238.136 191.438C237.991 189.983 236.535 188.954 235.085 188.72C233.636 188.487 232.162 188.831 230.706 189.02C230.203 189.085 229.656 189.127 229.201 188.873C228.985 188.727 228.789 188.554 228.618 188.358C227.615 187.395 226.331 186.773 224.951 186.581C223.571 186.389 222.165 186.637 220.935 187.29C220.397 187.589 219.581 186.921 219.022 186.67L212.702 183.818C205.434 180.546 198.13 177.26 190.441 175.189C189.828 175.069 189.245 174.827 188.727 174.479C188.344 174.18 188.071 173.773 187.719 173.441C186.952 172.719 185.884 172.432 184.963 171.92C184.043 171.408 183.02 170.154 183.237 169.128Z" fill="#464353"/>
<path d="M280.758 208.244C279.748 210.108 277.786 211.27 275.681 211.749C275.152 211.867 274.615 211.943 274.074 211.976C271.412 212.141 268.783 211.407 266.217 210.683L262.733 209.701C262.135 209.514 261.521 209.378 260.898 209.294C260.051 209.238 259.201 209.267 258.36 209.381C254.242 209.762 250.092 209.577 246.026 208.83C245.686 208.794 245.359 208.678 245.072 208.492C244.821 208.247 244.598 207.975 244.408 207.681C243.46 206.547 242.44 205.885 243.562 204.389C244.209 203.521 245.409 203.087 245.912 202.09C246.414 201.093 246.092 199.678 245.794 198.648C245.388 197.226 244.053 196.613 243.574 195.308C243.216 194.323 243.818 193.18 244.723 192.644C245.629 192.108 246.748 192.066 247.792 192.204C248.836 192.342 249.858 192.635 250.908 192.716C253.995 192.961 257.15 191.378 260.113 192.27C260.766 192.467 261.383 192.782 262.045 192.955C263.335 193.242 264.683 193.126 265.904 192.623C266.337 192.461 266.761 192.267 267.182 192.075C267.995 191.655 268.86 191.344 269.754 191.151C272.645 190.657 275.326 192.647 277.507 194.59C278.255 195.208 278.918 195.922 279.477 196.715C280.079 197.648 280.397 198.735 280.68 199.806C281.477 202.581 282.136 205.7 280.758 208.244Z" fill="#3F3D56"/>
<path opacity="0.1" d="M280.758 208.244C279.748 210.109 277.786 211.27 275.681 211.749C276.5 210.165 276.869 208.389 276.748 206.613C276.568 203.766 275.311 201.085 273.707 198.72C272.721 197.264 271.599 195.905 270.356 194.658C269.4 193.701 268.223 192.94 267.195 192.063C268.007 191.643 268.872 191.332 269.767 191.139C272.657 190.645 275.338 192.635 277.519 194.578C278.267 195.196 278.93 195.91 279.489 196.703C280.091 197.637 280.409 198.723 280.692 199.795C281.477 202.581 282.136 205.7 280.758 208.244Z" fill="black"/>
<path d="M189.903 63.0034C188.892 63.7307 188.2 64.7753 187.496 65.7779C186.2 67.6306 184.732 69.4803 182.659 70.5129C181.874 70.905 180.977 71.2013 180.457 71.8837C180.148 72.3453 179.948 72.87 179.87 73.4192C179.473 75.35 179.266 77.3147 179.251 79.2855C179.251 80.2673 179.293 81.2789 179.729 82.1708C180.141 83.0089 180.884 83.7182 181.038 84.6311C181.155 85.3434 180.89 86.0528 180.797 86.7681C180.704 87.4835 180.866 88.3305 181.531 88.6717C181.889 88.8058 182.263 88.8933 182.644 88.9321C184.644 89.3751 185.315 91.7096 185.619 93.6402C186.299 93.6012 186.606 92.8261 186.747 92.1945L188.832 82.973C189.057 81.9733 189.433 80.815 190.435 80.4648C191.106 80.2343 191.84 80.4498 192.541 80.5097C195.293 80.7342 197.622 78.6181 200.314 78.0344C201.176 77.8624 202.057 77.805 202.934 77.8638C205.058 77.9686 207.527 78.8366 207.979 80.809C208.054 81.1292 208.099 81.5124 208.4 81.671C208.701 81.8296 209.001 81.6949 209.332 81.671C210.68 81.5363 211.474 83.0448 211.862 84.2779L213.276 88.7675C213.487 89.4469 213.842 90.2461 214.582 90.3328C215.264 90.4167 215.845 89.7732 215.947 89.1356C216.05 88.4981 215.827 87.8367 215.68 87.1961C215.015 84.248 216.032 81.231 216.651 78.2769C217.271 75.3228 217.382 71.9286 215.304 69.6539C214.549 68.8308 213.556 68.2173 212.852 67.3493C212.196 66.5352 211.826 65.5355 211.146 64.7364C209.266 62.5305 204.444 60.8275 201.487 60.5461C198.121 60.178 192.634 61.031 189.903 63.0034Z" fill="#3F3D56"/>
<g opacity="0.1">
<path opacity="0.1" d="M214.594 88.2349C213.854 88.1451 213.499 87.337 213.288 86.6695C212.817 85.171 212.346 83.6745 211.874 82.18C211.486 80.9438 210.692 79.4353 209.345 79.573C209.044 79.6059 208.689 79.7287 208.412 79.573C208.135 79.4174 208.066 79.0313 207.991 78.711C207.54 76.7356 205.07 75.8706 202.946 75.7659C202.069 75.7086 201.188 75.7659 200.326 75.9365C197.619 76.5351 195.305 78.6302 192.553 78.4117C191.843 78.3548 191.109 78.1394 190.447 78.3698C189.433 78.717 189.069 79.8663 188.844 80.878L186.759 90.0966C186.618 90.7311 186.311 91.5063 185.631 91.5422C185.33 89.6147 184.656 87.2801 182.656 86.8371C182.276 86.7955 181.902 86.708 181.543 86.5767C181.281 86.4345 181.076 86.2074 180.962 85.9332C180.908 86.2116 180.845 86.4899 180.809 86.7683C180.719 87.4806 180.878 88.3307 181.543 88.6719C181.901 88.8059 182.275 88.8935 182.656 88.9323C184.656 89.3752 185.327 91.7098 185.631 93.6403C186.311 93.6014 186.618 92.8262 186.759 92.1947L188.844 82.9731C189.069 81.9734 189.445 80.8151 190.447 80.4649C191.118 80.2345 191.852 80.45 192.553 80.5098C195.305 80.7343 197.634 78.6182 200.326 78.0346C201.184 77.8636 202.061 77.8062 202.934 77.864C205.058 77.9687 207.528 78.8367 207.979 80.8091C208.054 81.1294 208.099 81.5125 208.4 81.6711C208.701 81.8298 209.002 81.6951 209.332 81.6711C210.68 81.5365 211.474 83.0449 211.862 84.2781C212.332 85.7766 212.803 87.2731 213.276 88.7676C213.487 89.4471 213.842 90.2462 214.582 90.333C215.265 90.4168 215.845 89.7733 215.947 89.1358C215.994 88.5994 215.932 88.0591 215.767 87.5465C215.66 87.7624 215.492 87.9426 215.284 88.0649C215.075 88.1872 214.835 88.2463 214.594 88.2349Z" fill="black"/>
<path opacity="0.1" d="M181.041 82.536C180.887 81.6231 180.138 80.9138 179.732 80.0757C179.471 79.5105 179.32 78.9011 179.287 78.2799C179.287 78.6151 179.257 78.9504 179.254 79.2886C179.254 80.2703 179.296 81.2819 179.732 82.1738C180.066 82.8533 180.617 83.4519 180.893 84.1433C181.039 83.6207 181.089 83.0762 181.041 82.536Z" fill="black"/>
<path opacity="0.1" d="M216.663 76.1668C216.116 78.7767 215.262 81.4346 215.526 84.0505C215.698 82.12 216.263 80.1775 216.663 78.2619C216.997 76.8083 217.114 75.3138 217.012 73.8263C216.947 74.6131 216.83 75.3949 216.663 76.1668Z" fill="black"/>
</g>
<path d="M182.226 143.262C181.862 149.206 177.479 154.118 175.809 159.834C175.394 161.265 175.145 162.75 174.549 164.111C173.346 166.85 170.87 168.837 168.232 170.238C167.269 170.792 166.216 171.173 165.121 171.364C163.918 171.504 162.7 171.275 161.63 170.709C160.559 170.143 159.688 169.265 159.132 168.194C158.443 166.802 158.347 165.201 157.929 163.704C157.463 161.977 156.59 160.385 156.022 158.688C154.975 155.566 154.996 152.148 155.721 148.94C156.408 146.149 157.495 143.472 158.949 140.99C159.159 140.622 159.373 140.257 159.592 139.895C160.213 138.848 160.91 137.847 161.677 136.902C163.482 134.738 165.801 133.074 168.096 131.433C168.272 131.29 168.477 131.187 168.698 131.134H168.734C168.993 131.125 169.25 131.185 169.477 131.308C172.66 132.677 175.716 134.324 178.607 136.228C179.642 136.914 181.275 137.68 181.817 138.847C182.358 140.014 182.304 141.993 182.226 143.262Z" fill="#FBBEBE"/>
<path d="M170.283 115.908C169.99 116.214 169.763 116.575 169.616 116.971C167.184 122.423 165.748 128.263 165.374 134.217C165.381 134.507 165.313 134.794 165.179 135.052C165.046 135.223 164.898 135.382 164.736 135.528C164.59 135.7 164.481 135.901 164.415 136.118C164.35 136.334 164.33 136.561 164.356 136.786C164.383 137.01 164.455 137.227 164.569 137.422C164.683 137.618 164.836 137.788 165.019 137.922C165.515 136.991 166.704 136.689 167.76 136.608C172.816 136.21 177.756 138.551 182.827 138.374C182.469 137.144 181.955 135.962 181.663 134.717C180.373 129.188 183.592 123.169 181.618 117.845C181.224 116.779 180.565 115.732 179.527 115.265C179.098 115.092 178.648 114.973 178.189 114.912C176.907 114.681 174.356 113.696 173.117 114.092C172.66 114.238 172.479 114.666 172.1 114.924C171.538 115.292 170.774 115.42 170.283 115.908Z" fill="#F86D70"/>
<path opacity="0.1" d="M172.356 165.399C171.582 166.704 170.484 167.789 169.167 168.55C167.85 169.31 166.358 169.721 164.835 169.741C164.011 169.763 163.192 169.613 162.429 169.301C160.507 168.457 159.421 166.368 159.018 164.315C158.615 162.262 158.741 160.143 158.455 158.069C158.227 156.416 157.739 154.812 157.487 153.163C156.867 149.083 158.088 145.055 158.958 140.993C159.168 140.625 159.382 140.26 159.601 139.898C160.222 138.851 160.919 137.85 161.686 136.905C163.491 134.741 165.81 133.077 168.105 131.436H165.699C165.757 131.394 165.825 131.368 165.897 131.36C165.969 131.352 166.041 131.363 166.107 131.392C166.173 131.421 166.231 131.466 166.274 131.524C166.316 131.582 166.343 131.65 166.352 131.721C166.589 133.816 169.558 135.911 170.205 137.946C170.605 139.197 171.086 140.425 171.408 141.7C171.662 142.786 171.855 143.885 171.986 144.992C172.413 148.091 172.838 151.184 173.261 154.27C173.794 158.039 174.251 162.112 172.356 165.399Z" fill="black"/>
<path d="M168.373 126.1L171.276 117.04C171.709 115.684 172.149 114.307 172.2 112.882C172.251 111.458 171.875 109.964 170.873 108.947C170.061 108.123 168.936 107.698 167.973 107.055C165.567 105.442 164.363 102.616 163.109 100.015C161.855 97.4144 160.203 94.6937 157.466 93.7299C156.834 93.5084 155.962 93.4905 155.679 94.0921C155.581 94.3422 155.565 94.6167 155.634 94.8763C155.898 96.259 156.894 97.3635 157.76 98.4679C159.213 100.339 160.429 102.628 160.08 104.969C159.665 107.74 157.162 109.889 156.861 112.676C156.729 113.903 157.045 115.133 157.042 116.369C157.042 117.135 156.915 117.917 157.087 118.665C157.265 119.243 157.477 119.811 157.721 120.365C157.989 121.26 158.129 122.188 158.136 123.122L158.771 134.902C159.114 141.274 155.64 147.473 156.596 153.758C156.849 155.407 157.336 157.012 157.565 158.664C157.866 160.738 157.724 162.854 158.127 164.91C158.531 166.967 159.632 169.053 161.539 169.897C162.301 170.208 163.121 170.358 163.945 170.337C165.468 170.316 166.96 169.906 168.277 169.145C169.594 168.384 170.692 167.299 171.466 165.994C173.361 162.701 172.904 158.634 172.386 154.881L171.111 145.602C170.98 144.495 170.787 143.396 170.533 142.31C170.214 141.035 169.733 139.808 169.33 138.557C168.039 134.465 167.074 130.164 168.373 126.1Z" fill="#FBBEBE"/>
<path d="M245.647 126.803H183.36C182.036 126.803 180.962 127.871 180.962 129.189V166.919C180.962 168.236 182.036 169.304 183.36 169.304H245.647C246.971 169.304 248.045 168.236 248.045 166.919V129.189C248.045 127.871 246.971 126.803 245.647 126.803Z" fill="#3F3D56"/>
<path opacity="0.2" d="M245.647 126.803H183.36C182.036 126.803 180.962 127.871 180.962 129.189V166.919C180.962 168.236 182.036 169.304 183.36 169.304H245.647C246.971 169.304 248.045 168.236 248.045 166.919V129.189C248.045 127.871 246.971 126.803 245.647 126.803Z" fill="black"/>
<path d="M214.353 149.849C215.35 149.849 216.158 149.045 216.158 148.054C216.158 147.062 215.35 146.258 214.353 146.258C213.356 146.258 212.548 147.062 212.548 148.054C212.548 149.045 213.356 149.849 214.353 149.849Z" fill="white"/>
<path d="M135.199 182.875H138.842C140.837 182.875 142.749 183.663 144.16 185.066C145.57 186.47 146.362 188.373 146.362 190.357V201.464H127.679V190.357C127.679 188.373 128.471 186.47 129.881 185.066C131.292 183.663 133.205 182.875 135.199 182.875Z" fill="#3F3D56"/>
<path opacity="0.1" d="M135.199 182.875H138.842C140.837 182.875 142.749 183.663 144.16 185.066C145.57 186.47 146.362 188.373 146.362 190.357V201.464H127.679V190.357C127.679 188.373 128.471 186.47 129.881 185.066C131.292 183.663 133.205 182.875 135.199 182.875Z" fill="black"/>
<path d="M136.276 186.966C137.102 186.966 137.771 186.3 137.771 185.479C137.771 184.657 137.102 183.991 136.276 183.991C135.45 183.991 134.781 184.657 134.781 185.479C134.781 186.3 135.45 186.966 136.276 186.966Z" fill="#3F3D56"/>
<path d="M136.276 185.108C137.102 185.108 137.771 184.442 137.771 183.62C137.771 182.798 137.102 182.132 136.276 182.132C135.45 182.132 134.781 182.798 134.781 183.62C134.781 184.442 135.45 185.108 136.276 185.108Z" fill="#3F3D56"/>
<path d="M136.276 183.249C137.102 183.249 137.771 182.583 137.771 181.761C137.771 180.94 137.102 180.274 136.276 180.274C135.45 180.274 134.781 180.94 134.781 181.761C134.781 182.583 135.45 183.249 136.276 183.249Z" fill="#3F3D56"/>
<path d="M136.276 181.39C137.102 181.39 137.771 180.724 137.771 179.903C137.771 179.081 137.102 178.415 136.276 178.415C135.45 178.415 134.781 179.081 134.781 179.903C134.781 180.724 135.45 181.39 136.276 181.39Z" fill="#3F3D56"/>
<path d="M136.276 179.532C137.102 179.532 137.771 178.866 137.771 178.044C137.771 177.222 137.102 176.556 136.276 176.556C135.45 176.556 134.781 177.222 134.781 178.044C134.781 178.866 135.45 179.532 136.276 179.532Z" fill="#3F3D56"/>
<path d="M136.276 177.673C137.102 177.673 137.771 177.007 137.771 176.185C137.771 175.364 137.102 174.698 136.276 174.698C135.45 174.698 134.781 175.364 134.781 176.185C134.781 177.007 135.45 177.673 136.276 177.673Z" fill="#3F3D56"/>
<path d="M136.276 175.814C137.102 175.814 137.771 175.148 137.771 174.327C137.771 173.505 137.102 172.839 136.276 172.839C135.45 172.839 134.781 173.505 134.781 174.327C134.781 175.148 135.45 175.814 136.276 175.814Z" fill="#3F3D56"/>
<path d="M138.517 176.557C139.343 176.557 140.012 175.891 140.012 175.069C140.012 174.247 139.343 173.581 138.517 173.581C137.692 173.581 137.022 174.247 137.022 175.069C137.022 175.891 137.692 176.557 138.517 176.557Z" fill="#3F3D56"/>
<path d="M140.012 175.814C140.838 175.814 141.507 175.148 141.507 174.327C141.507 173.505 140.838 172.839 140.012 172.839C139.187 172.839 138.517 173.505 138.517 174.327C138.517 175.148 139.187 175.814 140.012 175.814Z" fill="#3F3D56"/>
<path d="M141.508 175.069C142.333 175.069 143.003 174.403 143.003 173.581C143.003 172.76 142.333 172.094 141.508 172.094C140.682 172.094 140.012 172.76 140.012 173.581C140.012 174.403 140.682 175.069 141.508 175.069Z" fill="#3F3D56"/>
<path d="M136.276 173.952C137.102 173.952 137.771 173.286 137.771 172.465C137.771 171.643 137.102 170.977 136.276 170.977C135.45 170.977 134.781 171.643 134.781 172.465C134.781 173.286 135.45 173.952 136.276 173.952Z" fill="#3F3D56"/>
<path d="M136.276 172.094C137.102 172.094 137.771 171.428 137.771 170.606C137.771 169.785 137.102 169.119 136.276 169.119C135.45 169.119 134.781 169.785 134.781 170.606C134.781 171.428 135.45 172.094 136.276 172.094Z" fill="#3F3D56"/>
<path d="M136.276 170.235C137.102 170.235 137.771 169.569 137.771 168.747C137.771 167.926 137.102 167.26 136.276 167.26C135.45 167.26 134.781 167.926 134.781 168.747C134.781 169.569 135.45 170.235 136.276 170.235Z" fill="#3F3D56"/>
<path d="M136.276 168.376C137.102 168.376 137.771 167.71 137.771 166.889C137.771 166.067 137.102 165.401 136.276 165.401C135.45 165.401 134.781 166.067 134.781 166.889C134.781 167.71 135.45 168.376 136.276 168.376Z" fill="#3F3D56"/>
<path d="M142.47 162.091C142.1 162.145 141.727 162.184 141.354 162.208C141.701 161.907 142.023 161.579 142.316 161.226C142.108 160.602 141.804 160.013 141.414 159.481C141.043 159.688 140.634 159.817 140.211 159.858C139.841 159.912 139.468 159.954 139.095 159.978C139.596 159.503 140.073 159.004 140.524 158.482C139.442 157.514 138.059 156.945 136.607 156.87C135.154 156.796 133.72 157.219 132.544 158.071C131.368 158.923 130.522 160.151 130.146 161.549C129.771 162.947 129.891 164.431 130.484 165.753C131.077 167.074 132.108 168.153 133.405 168.808C134.702 169.463 136.186 169.655 137.608 169.352C139.03 169.049 140.305 168.27 141.218 167.143C142.132 166.017 142.629 164.613 142.626 163.166C142.626 162.801 142.594 162.438 142.53 162.079L142.47 162.091Z" fill="#0098AC"/>
<path d="M147.466 169.481C147.085 169.713 146.655 169.857 146.209 169.9C145.839 169.954 145.466 169.993 145.093 170.017C145.489 169.663 145.859 169.281 146.2 168.873C145.299 168.639 144.342 168.749 143.517 169.179C142.692 169.61 142.058 170.331 141.74 171.202C141.421 172.073 141.44 173.031 141.793 173.888C142.147 174.746 142.809 175.442 143.65 175.839C144.491 176.237 145.452 176.308 146.343 176.039C147.234 175.77 147.993 175.179 148.47 174.383C148.947 173.587 149.109 172.643 148.923 171.734C148.737 170.826 148.218 170.019 147.466 169.472V169.481Z" fill="#0098AC"/>
<path d="M134.032 176.557C134.858 176.557 135.527 175.891 135.527 175.069C135.527 174.247 134.858 173.581 134.032 173.581C133.206 173.581 132.537 174.247 132.537 175.069C132.537 175.891 133.206 176.557 134.032 176.557Z" fill="#3F3D56"/>
<path d="M132.537 175.814C133.363 175.814 134.032 175.148 134.032 174.327C134.032 173.505 133.363 172.839 132.537 172.839C131.711 172.839 131.042 173.505 131.042 174.327C131.042 175.148 131.711 175.814 132.537 175.814Z" fill="#3F3D56"/>
<path d="M131.042 175.069C131.868 175.069 132.537 174.403 132.537 173.581C132.537 172.76 131.868 172.094 131.042 172.094C130.216 172.094 129.547 172.76 129.547 173.581C129.547 174.403 130.216 175.069 131.042 175.069Z" fill="#3F3D56"/>
<path d="M125.083 169.481C125.464 169.714 125.894 169.857 126.34 169.9C126.71 169.954 127.083 169.993 127.456 170.017C127.059 169.664 126.689 169.281 126.349 168.873C127.25 168.639 128.207 168.749 129.032 169.179C129.857 169.61 130.491 170.331 130.809 171.202C131.128 172.073 131.109 173.031 130.756 173.888C130.402 174.746 129.74 175.442 128.899 175.839C128.058 176.237 127.097 176.308 126.206 176.039C125.315 175.77 124.556 175.179 124.079 174.383C123.602 173.587 123.44 172.643 123.626 171.734C123.812 170.826 124.331 170.019 125.083 169.472V169.481Z" fill="#0098AC"/>
<path d="M135.199 183.991H138.842C140.837 183.991 142.749 184.779 144.16 186.183C145.57 187.586 146.362 189.489 146.362 191.474V201.312C146.362 201.648 146.228 201.971 145.989 202.209C145.75 202.447 145.425 202.581 145.087 202.581H128.954C128.616 202.581 128.291 202.447 128.052 202.209C127.813 201.971 127.679 201.648 127.679 201.312V191.474C127.679 189.489 128.471 187.586 129.881 186.183C131.292 184.779 133.205 183.991 135.199 183.991Z" fill="#3F3D56"/>
<g opacity="0.1">
<path opacity="0.1" d="M142.584 162.498C142.433 162.659 142.272 162.811 142.103 162.953C142.274 162.953 142.443 162.926 142.614 162.908C142.608 162.77 142.599 162.633 142.584 162.498Z" fill="black"/>
<path opacity="0.1" d="M139.859 160.72C140.235 160.696 140.605 160.657 140.978 160.603C141.313 160.561 141.64 160.473 141.95 160.34C141.797 160.041 141.622 159.754 141.426 159.481C141.239 159.594 141.036 159.68 140.825 159.735C140.53 160.089 140.207 160.418 139.859 160.72Z" fill="black"/>
<path opacity="0.1" d="M130.669 163.914C130.667 162.779 130.972 161.665 131.553 160.688C132.134 159.711 132.969 158.909 133.969 158.365C134.97 157.821 136.1 157.555 137.24 157.596C138.379 157.637 139.487 157.983 140.445 158.598L140.542 158.496C139.916 157.942 139.187 157.517 138.395 157.245C137.603 156.973 136.766 156.86 135.93 156.911C135.094 156.963 134.277 157.178 133.525 157.546C132.773 157.913 132.102 158.424 131.55 159.051C130.998 159.677 130.576 160.406 130.308 161.196C130.041 161.985 129.933 162.82 129.991 163.651C130.048 164.482 130.271 165.294 130.646 166.039C131.02 166.784 131.539 167.448 132.173 167.993C131.2 166.854 130.667 165.408 130.669 163.914Z" fill="black"/>
</g>
<g opacity="0.1">
<path opacity="0.1" d="M145.093 170.759C145.466 170.735 145.839 170.696 146.209 170.642C146.655 170.6 147.085 170.457 147.466 170.223C147.889 170.533 148.241 170.927 148.5 171.381C148.759 171.835 148.92 172.337 148.971 172.857C148.985 172.727 148.992 172.596 148.992 172.465C148.994 171.884 148.86 171.31 148.598 170.79C148.337 170.27 147.957 169.818 147.488 169.472C147.106 169.704 146.676 169.848 146.23 169.891L145.929 169.927C145.673 170.225 145.393 170.503 145.093 170.759Z" fill="black"/>
<path opacity="0.1" d="M145.243 169.49C145.368 169.491 145.493 169.5 145.616 169.517C145.812 169.31 146.004 169.089 146.2 168.873C145.647 168.726 145.067 168.708 144.506 168.819C143.945 168.931 143.417 169.17 142.963 169.517C142.509 169.864 142.142 170.311 141.889 170.822C141.637 171.333 141.506 171.895 141.507 172.465C141.507 172.59 141.507 172.713 141.525 172.836C141.618 171.919 142.049 171.069 142.736 170.45C143.423 169.832 144.317 169.49 145.243 169.49Z" fill="black"/>
</g>
<g opacity="0.1">
<path opacity="0.1" d="M127.456 170.759C127.083 170.735 126.71 170.696 126.34 170.642C125.894 170.601 125.464 170.457 125.083 170.223C124.66 170.533 124.308 170.927 124.049 171.381C123.79 171.835 123.629 172.337 123.578 172.857C123.564 172.727 123.557 172.596 123.557 172.465C123.555 171.884 123.689 171.31 123.951 170.79C124.212 170.27 124.592 169.818 125.062 169.472C125.443 169.705 125.873 169.848 126.319 169.891L126.62 169.927C126.875 170.227 127.155 170.505 127.456 170.759Z" fill="black"/>
<path opacity="0.1" d="M127.305 169.49C127.18 169.491 127.054 169.5 126.929 169.517C126.737 169.31 126.544 169.089 126.349 168.873C126.902 168.726 127.482 168.708 128.043 168.819C128.604 168.931 129.132 169.17 129.586 169.517C130.04 169.864 130.407 170.311 130.659 170.822C130.912 171.333 131.043 171.895 131.042 172.465C131.042 172.59 131.042 172.713 131.024 172.836C130.931 171.919 130.499 171.069 129.812 170.45C129.125 169.832 128.232 169.49 127.305 169.49Z" fill="black"/>
</g>
<path d="M155.41 40H51.5903C49.6074 40 48 43.0526 48 46.8182V83.1818C48 86.9474 49.6074 90 51.5903 90H155.41C157.393 90 159 86.9474 159 83.1818V46.8182C159 43.0526 157.393 40 155.41 40Z" stroke="#3F3D56" stroke-width="4" stroke-miterlimit="10"/>
<path d="M62.348 65.754C62.348 66.438 62.432 67.062 62.6 67.626C62.768 68.178 63.008 68.652 63.32 69.048C63.644 69.432 64.034 69.732 64.49 69.948C64.946 70.164 65.462 70.272 66.038 70.272C66.602 70.272 67.112 70.164 67.568 69.948C68.024 69.732 68.408 69.432 68.72 69.048C69.044 68.652 69.29 68.178 69.458 67.626C69.626 67.062 69.71 66.438 69.71 65.754C69.71 65.07 69.626 64.452 69.458 63.9C69.29 63.336 69.044 62.862 68.72 62.478C68.408 62.082 68.024 61.776 67.568 61.56C67.112 61.344 66.602 61.236 66.038 61.236C65.462 61.236 64.946 61.344 64.49 61.56C64.034 61.776 63.644 62.082 63.32 62.478C63.008 62.874 62.768 63.348 62.6 63.9C62.432 64.452 62.348 65.07 62.348 65.754ZM72.086 65.754C72.086 66.822 71.924 67.764 71.6 68.58C71.288 69.396 70.856 70.08 70.304 70.632C69.764 71.172 69.128 71.58 68.396 71.856C67.664 72.132 66.884 72.27 66.056 72.27C65.228 72.27 64.442 72.132 63.698 71.856C62.966 71.58 62.324 71.172 61.772 70.632C61.232 70.08 60.8 69.396 60.476 68.58C60.152 67.764 59.99 66.822 59.99 65.754C59.99 64.686 60.152 63.75 60.476 62.946C60.8 62.13 61.238 61.446 61.79 60.894C62.354 60.342 63.002 59.928 63.734 59.652C64.466 59.376 65.24 59.238 66.056 59.238C66.872 59.238 67.646 59.376 68.378 59.652C69.11 59.928 69.746 60.342 70.286 60.894C70.838 61.446 71.276 62.13 71.6 62.946C71.924 63.75 72.086 64.686 72.086 65.754ZM82.5481 59.94C82.4281 59.964 82.2961 59.988 82.1521 60.012C82.0201 60.036 81.8581 60.06 81.6661 60.084C81.4741 60.108 81.2461 60.138 80.9821 60.174C80.7301 60.198 80.4361 60.228 80.1001 60.264C79.5841 60.324 79.1221 60.426 78.7141 60.57C78.3061 60.702 77.9521 60.9 77.6521 61.164C77.3521 61.416 77.1061 61.74 76.9141 62.136C76.7221 62.532 76.5841 63.012 76.5001 63.576C76.8721 63.336 77.2741 63.15 77.7061 63.018C78.1501 62.886 78.5821 62.82 79.0021 62.82C80.2501 62.82 81.2401 63.216 81.9721 64.008C82.7041 64.8 83.0701 65.946 83.0701 67.446C83.0701 68.166 82.9681 68.82 82.7641 69.408C82.5601 69.996 82.2661 70.5 81.8821 70.92C81.4981 71.34 81.0361 71.67 80.4961 71.91C79.9561 72.138 79.3441 72.252 78.6601 72.252C77.8081 72.252 77.0941 72.114 76.5181 71.838C75.9421 71.55 75.4801 71.148 75.1321 70.632C74.7841 70.104 74.5321 69.474 74.3761 68.742C74.2201 68.01 74.1421 67.194 74.1421 66.294C74.1421 65.118 74.2381 64.08 74.4301 63.18C74.6341 62.268 74.9581 61.488 75.4021 60.84C75.8581 60.192 76.4461 59.67 77.1661 59.274C77.8981 58.866 78.7861 58.584 79.8301 58.428C80.3701 58.344 80.8201 58.278 81.1801 58.23C81.5521 58.182 81.9241 58.116 82.2961 58.032L82.5481 59.94ZM76.4281 65.484C76.4041 65.64 76.3921 65.832 76.3921 66.06C76.3921 66.276 76.3921 66.48 76.3921 66.672C76.3921 67.212 76.4281 67.71 76.5001 68.166C76.5721 68.622 76.6981 69.012 76.8781 69.336C77.0581 69.66 77.2921 69.912 77.5801 70.092C77.8681 70.272 78.2281 70.362 78.6601 70.362C79.0321 70.362 79.3561 70.29 79.6321 70.146C79.9081 70.002 80.1361 69.798 80.3161 69.534C80.4961 69.27 80.6281 68.964 80.7121 68.616C80.8081 68.256 80.8561 67.866 80.8561 67.446C80.8561 67.086 80.8141 66.744 80.7301 66.42C80.6581 66.084 80.5321 65.79 80.3521 65.538C80.1841 65.274 79.9561 65.064 79.6681 64.908C79.3801 64.752 79.0261 64.674 78.6061 64.674C78.1981 64.674 77.7901 64.746 77.3821 64.89C76.9861 65.034 76.6681 65.232 76.4281 65.484ZM93.0154 62.586C92.0434 66.162 90.9154 69.402 89.6314 72.306C89.3914 72.846 89.1454 73.308 88.8934 73.692C88.6414 74.076 88.3594 74.394 88.0474 74.646C87.7354 74.898 87.3874 75.078 87.0034 75.186C86.6194 75.306 86.1754 75.366 85.6714 75.366C85.3354 75.366 84.9994 75.33 84.6634 75.258C84.3394 75.186 84.0934 75.108 83.9254 75.024L84.3214 73.278C84.7534 73.446 85.1794 73.53 85.5994 73.53C86.1634 73.53 86.6014 73.392 86.9134 73.116C87.2374 72.852 87.5194 72.438 87.7594 71.874C87.0754 70.554 86.4154 69.114 85.7794 67.554C85.1554 65.994 84.5974 64.338 84.1054 62.586H86.4274C86.5474 63.09 86.6914 63.636 86.8594 64.224C87.0394 64.812 87.2314 65.412 87.4354 66.024C87.6394 66.624 87.8554 67.224 88.0834 67.824C88.3114 68.424 88.5394 68.982 88.7674 69.498C89.1514 68.43 89.5114 67.296 89.8474 66.096C90.1834 64.884 90.4894 63.714 90.7654 62.586H93.0154ZM96.2293 65.502C96.2293 66.078 96.3913 66.486 96.7153 66.726C97.0513 66.954 97.5073 67.068 98.0833 67.068C98.3593 67.068 98.6293 67.056 98.8933 67.032C99.1693 66.996 99.4093 66.954 99.6133 66.906V62.586H101.791V72H99.6133V68.634C99.3973 68.67 99.1153 68.718 98.7673 68.778C98.4193 68.826 98.1073 68.85 97.8313 68.85C97.2673 68.85 96.7513 68.796 96.2833 68.688C95.8273 68.58 95.4313 68.4 95.0953 68.148C94.7593 67.884 94.5013 67.542 94.3213 67.122C94.1413 66.69 94.0513 66.156 94.0513 65.52V62.586H96.2293V65.502ZM104.038 67.338C104.038 66.51 104.158 65.784 104.398 65.16C104.65 64.536 104.98 64.02 105.388 63.612C105.796 63.192 106.264 62.88 106.792 62.676C107.32 62.46 107.86 62.352 108.412 62.352C109.708 62.352 110.716 62.754 111.436 63.558C112.168 64.362 112.534 65.562 112.534 67.158C112.534 67.278 112.528 67.416 112.516 67.572C112.516 67.716 112.51 67.848 112.498 67.968H106.288C106.348 68.724 106.612 69.312 107.08 69.732C107.56 70.14 108.25 70.344 109.15 70.344C109.678 70.344 110.158 70.296 110.59 70.2C111.034 70.104 111.382 70.002 111.634 69.894L111.922 71.676C111.802 71.736 111.634 71.802 111.418 71.874C111.214 71.934 110.974 71.988 110.698 72.036C110.434 72.096 110.146 72.144 109.834 72.18C109.522 72.216 109.204 72.234 108.88 72.234C108.052 72.234 107.332 72.114 106.72 71.874C106.108 71.622 105.604 71.28 105.208 70.848C104.812 70.404 104.518 69.888 104.326 69.3C104.134 68.7 104.038 68.046 104.038 67.338ZM110.356 66.366C110.356 66.066 110.314 65.784 110.23 65.52C110.146 65.244 110.02 65.01 109.852 64.818C109.696 64.614 109.498 64.458 109.258 64.35C109.03 64.23 108.754 64.17 108.43 64.17C108.094 64.17 107.8 64.236 107.548 64.368C107.296 64.488 107.08 64.65 106.9 64.854C106.732 65.058 106.6 65.292 106.504 65.556C106.408 65.82 106.342 66.09 106.306 66.366H110.356ZM122.745 72H120.567V68.058H117.021V72H114.843V62.586H117.021V66.258H120.567V62.586H122.745V72ZM133.757 62.586V72H131.597C131.597 71.316 131.597 70.638 131.597 69.966C131.609 69.294 131.615 68.67 131.615 68.094C131.627 67.518 131.633 67.02 131.633 66.6C131.645 66.168 131.651 65.85 131.651 65.646C131.291 66.114 130.919 66.63 130.535 67.194C130.151 67.758 129.767 68.322 129.383 68.886C129.011 69.45 128.657 70.002 128.321 70.542C127.985 71.082 127.691 71.568 127.439 72H125.513V62.586H127.655C127.655 63.282 127.649 63.948 127.637 64.584C127.637 65.208 127.637 65.778 127.637 66.294C127.637 66.81 127.631 67.26 127.619 67.644C127.619 68.028 127.619 68.322 127.619 68.526C127.955 68.01 128.303 67.482 128.663 66.942C129.023 66.39 129.383 65.856 129.743 65.34C130.115 64.812 130.481 64.314 130.841 63.846C131.201 63.378 131.549 62.958 131.885 62.586H133.757ZM136.012 67.338C136.012 66.51 136.132 65.784 136.372 65.16C136.624 64.536 136.954 64.02 137.362 63.612C137.77 63.192 138.238 62.88 138.766 62.676C139.294 62.46 139.834 62.352 140.386 62.352C141.682 62.352 142.69 62.754 143.41 63.558C144.142 64.362 144.508 65.562 144.508 67.158C144.508 67.278 144.502 67.416 144.49 67.572C144.49 67.716 144.484 67.848 144.472 67.968H138.262C138.322 68.724 138.586 69.312 139.054 69.732C139.534 70.14 140.224 70.344 141.124 70.344C141.652 70.344 142.132 70.296 142.564 70.2C143.008 70.104 143.356 70.002 143.608 69.894L143.896 71.676C143.776 71.736 143.608 71.802 143.392 71.874C143.188 71.934 142.948 71.988 142.672 72.036C142.408 72.096 142.12 72.144 141.808 72.18C141.496 72.216 141.178 72.234 140.854 72.234C140.026 72.234 139.306 72.114 138.694 71.874C138.082 71.622 137.578 71.28 137.182 70.848C136.786 70.404 136.492 69.888 136.3 69.3C136.108 68.7 136.012 68.046 136.012 67.338ZM142.33 66.366C142.33 66.066 142.288 65.784 142.204 65.52C142.12 65.244 141.994 65.01 141.826 64.818C141.67 64.614 141.472 64.458 141.232 64.35C141.004 64.23 140.728 64.17 140.404 64.17C140.068 64.17 139.774 64.236 139.522 64.368C139.27 64.488 139.054 64.65 138.874 64.854C138.706 65.058 138.574 65.292 138.478 65.556C138.382 65.82 138.316 66.09 138.28 66.366H142.33Z" fill="#3F3D56"/>
<defs>
<linearGradient id="paint0_linear_254_1255" x1="217.921" y1="211.997" x2="217.921" y2="58.8582" gradientUnits="userSpaceOnUse">
<stop stop-color="#808080" stop-opacity="0.25"/>
<stop offset="0.54" stop-color="#808080" stop-opacity="0.12"/>
<stop offset="1" stop-color="#808080" stop-opacity="0.1"/>
</linearGradient>
</defs>
</svg>
