<svg width="392" height="433" viewBox="0 0 392 433" fill="none" xmlns="http://www.w3.org/2000/svg">
<path d="M266.653 284.238C247.503 355.328 206.961 417.545 133.327 417.545C59.6924 417.545 0 357.861 0 284.238C0 210.615 77.6109 199.067 133.327 150.931C246.469 53.1818 326.126 63.4706 266.653 284.238Z" fill="#F2F2F2"/>
<path d="M305.714 108.647C329.222 108.647 348.278 89.5929 348.278 66.0888C348.278 42.5846 329.222 23.5308 305.714 23.5308C282.206 23.5308 263.15 42.5846 263.15 66.0888C263.15 89.5929 282.206 108.647 305.714 108.647Z" fill="#FF6584"/>
<path d="M382.706 6.63232H360.171V29.163H382.706V6.63232Z" fill="#FF6584"/>
<path d="M134.953 432.292C193.722 432.292 241.364 425.812 241.364 417.818C241.364 409.824 193.722 403.344 134.953 403.344C76.1836 403.344 28.5417 409.824 28.5417 417.818C28.5417 425.812 76.1836 432.292 134.953 432.292Z" fill="#3F3D56"/>
<path d="M308.844 81.1089H164.876V154.334H308.844V81.1089Z" fill="#0098AC"/>
<path d="M129.197 396.539C156.507 396.539 178.647 374.403 178.647 347.097C178.647 319.79 156.507 297.654 129.197 297.654C101.887 297.654 79.7471 319.79 79.7471 347.097C79.7471 374.403 101.887 396.539 129.197 396.539Z" fill="#2F2E41"/>
<path d="M121.686 385.899H106.663V412.811H121.686V385.899Z" fill="#2F2E41"/>
<path d="M151.731 385.899H136.708V412.811H151.731V385.899Z" fill="#2F2E41"/>
<path d="M119.182 417.818C126.096 417.818 131.701 415.716 131.701 413.124C131.701 410.532 126.096 408.43 119.182 408.43C112.268 408.43 106.663 410.532 106.663 413.124C106.663 415.716 112.268 417.818 119.182 417.818Z" fill="#2F2E41"/>
<path d="M149.227 417.192C156.141 417.192 161.746 415.09 161.746 412.498C161.746 409.906 156.141 407.804 149.227 407.804C142.313 407.804 136.708 409.906 136.708 412.498C136.708 415.09 142.313 417.192 149.227 417.192Z" fill="#2F2E41"/>
<path d="M130.449 351.478C139.783 351.478 147.349 343.912 147.349 334.58C147.349 325.247 139.783 317.682 130.449 317.682C121.115 317.682 113.548 325.247 113.548 334.58C113.548 343.912 121.115 351.478 130.449 351.478Z" fill="white"/>
<path d="M130.449 340.212C133.56 340.212 136.082 337.69 136.082 334.579C136.082 331.469 133.56 328.947 130.449 328.947C127.338 328.947 124.815 331.469 124.815 334.579C124.815 337.69 127.338 340.212 130.449 340.212Z" fill="#3F3D56"/>
<path d="M81.2289 301.116C77.236 283.237 89.9995 265.171 109.737 260.765C129.474 256.358 148.712 267.28 152.705 285.159C156.697 303.038 143.617 309.632 123.879 314.039C104.142 318.445 85.2217 318.995 81.2289 301.116Z" fill="#0098AC"/>
<path d="M112.296 254.47C139.607 254.47 161.746 232.334 161.746 205.028C161.746 177.722 139.607 155.585 112.296 155.585C84.9859 155.585 62.8464 177.722 62.8464 205.028C62.8464 232.334 84.9859 254.47 112.296 254.47Z" fill="#2F2E41"/>
<path d="M104.785 243.831H89.7622V270.743H104.785V243.831Z" fill="#2F2E41"/>
<path d="M134.83 243.831H119.808V270.743H134.83V243.831Z" fill="#2F2E41"/>
<path d="M102.281 275.749C109.195 275.749 114.8 273.648 114.8 271.055C114.8 268.463 109.195 266.361 102.281 266.361C95.3671 266.361 89.7622 268.463 89.7622 271.055C89.7622 273.648 95.3671 275.749 102.281 275.749Z" fill="#2F2E41"/>
<path d="M132.327 275.124C139.241 275.124 144.845 273.022 144.845 270.43C144.845 267.837 139.241 265.736 132.327 265.736C125.413 265.736 119.808 267.837 119.808 270.43C119.808 273.022 125.413 275.124 132.327 275.124Z" fill="#2F2E41"/>
<path d="M113.548 209.409C122.882 209.409 130.449 201.843 130.449 192.511C130.449 183.178 122.882 175.613 113.548 175.613C104.214 175.613 96.6475 183.178 96.6475 192.511C96.6475 201.843 104.214 209.409 113.548 209.409Z" fill="white"/>
<path d="M113.548 198.144C116.659 198.144 119.182 195.622 119.182 192.511C119.182 189.4 116.659 186.878 113.548 186.878C110.437 186.878 107.915 189.4 107.915 192.511C107.915 195.622 110.437 198.144 113.548 198.144Z" fill="#3F3D56"/>
<path d="M64.3282 159.048C60.3354 141.169 73.0989 123.103 92.8364 118.696C112.574 114.29 131.811 125.211 135.804 143.09C139.797 160.97 126.716 167.564 106.979 171.97C87.2411 176.377 68.3211 176.927 64.3282 159.048Z" fill="#0098AC"/>
<path d="M165.253 170.463C170.128 157.71 170.834 146.13 166.83 144.6C162.826 143.07 155.628 152.168 150.752 164.921C145.877 177.675 145.171 189.254 149.175 190.784C153.179 192.314 160.378 183.216 165.253 170.463Z" fill="#2F2E41"/>
<path d="M78.9391 192.68C80.7761 188.808 72.2635 180.925 59.9256 175.075C47.5878 169.224 36.0968 167.62 34.2598 171.493C32.4228 175.365 40.9354 183.248 53.2732 189.099C65.6111 194.949 77.1021 196.553 78.9391 192.68Z" fill="#2F2E41"/>
<path d="M88.0068 222.865C88.0068 227.704 100.469 237.26 114.297 237.26C128.125 237.26 141.09 223.636 141.09 218.797C141.09 213.958 128.125 219.736 114.297 219.736C100.469 219.736 88.0068 218.026 88.0068 222.865Z" fill="white"/>
<path d="M322.615 70.4697H178.647V143.695H322.615V70.4697Z" stroke="#3F3D56" stroke-width="2" stroke-miterlimit="10"/>
<path d="M390.217 1H367.683V23.5307H390.217V1Z" stroke="#3F3D56" stroke-width="2" stroke-miterlimit="10"/>
</svg>
