<svg width="301" height="406" viewBox="0 0 301 406" fill="none" xmlns="http://www.w3.org/2000/svg">
<path d="M300.813 251.362C300.813 302.574 270.364 320.455 232.803 320.455C195.242 320.455 164.792 302.574 164.792 251.362C164.792 200.15 232.803 135 232.803 135C232.803 135 300.813 200.15 300.813 251.362Z" fill="#F2F2F2"/>
<path d="M230.325 312.621L231.022 269.761L260.01 216.738L231.131 263.038L231.444 243.766L251.422 205.404L231.527 238.666V238.667L232.09 204.006L253.483 173.465L232.179 198.555L232.53 135L230.32 219.136L230.501 215.665L208.751 182.377L230.152 222.328L228.126 261.038L228.066 260.01L202.991 224.98L227.989 263.64L227.736 268.481L227.691 268.554L227.711 268.951L222.57 367.162H229.44L230.263 316.435L255.201 277.869L230.325 312.621Z" fill="#3F3D56"/>
<path d="M225.491 374.166C238.552 374.166 249.139 371.029 249.139 367.16C249.139 363.291 238.552 360.154 225.491 360.154C212.431 360.154 201.844 363.291 201.844 367.16C201.844 371.029 212.431 374.166 225.491 374.166Z" fill="#3F3D56"/>
<path d="M119.411 405.215C178.18 405.215 225.822 398.735 225.822 390.741C225.822 382.747 178.18 376.267 119.411 376.267C60.6418 376.267 13 382.747 13 390.741C13 398.735 60.6418 405.215 119.411 405.215Z" fill="#3F3D56"/>
<path d="M120.663 366.02C147.973 366.02 170.113 343.884 170.113 316.578C170.113 289.271 147.973 267.135 120.663 267.135C93.3526 267.135 71.2131 289.271 71.2131 316.578C71.2131 343.884 93.3526 366.02 120.663 366.02Z" fill="#2F2E41"/>
<path d="M128.174 382.292H143.197V355.38H128.174V382.292Z" fill="#2F2E41"/>
<path d="M98.1288 382.292H113.152V355.38H98.1288V382.292Z" fill="#2F2E41"/>
<path d="M104.858 389.173C110.845 385.717 114.649 381.095 113.352 378.85C112.056 376.605 106.151 377.587 100.163 381.043C94.1754 384.5 90.3723 389.122 91.6687 391.367C92.9651 393.612 98.87 392.63 104.858 389.173Z" fill="#2F2E41"/>
<path d="M134.277 389.173C140.265 385.717 144.068 381.095 142.772 378.85C141.475 376.605 135.57 377.587 129.583 381.043C123.595 384.5 119.792 389.122 121.088 391.367C122.385 393.612 128.29 392.63 134.277 389.173Z" fill="#2F2E41"/>
<path d="M119.411 320.959C128.745 320.959 136.312 313.393 136.312 304.061C136.312 294.728 128.745 287.163 119.411 287.163C110.077 287.163 102.51 294.728 102.51 304.061C102.51 313.393 110.077 320.959 119.411 320.959Z" fill="white"/>
<path d="M113.655 302.496C116.766 302.496 119.289 299.974 119.289 296.863C119.289 293.752 116.766 291.23 113.655 291.23C110.544 291.23 108.022 293.752 108.022 296.863C108.022 299.974 110.544 302.496 113.655 302.496Z" fill="#3F3D56"/>
<path d="M168.631 270.597C172.624 252.718 159.86 234.652 140.123 230.246C120.385 225.839 101.148 236.761 97.1552 254.64C93.1623 272.519 106.243 279.113 125.981 283.52C145.718 287.926 164.638 288.476 168.631 270.597Z" fill="#0098AC"/>
<path d="M100.068 309.309C101.755 305.369 92.9456 297.819 80.3919 292.447C67.8383 287.075 56.2941 285.914 54.6074 289.855C52.9206 293.795 61.73 301.344 74.2836 306.717C86.8373 312.089 98.3815 313.249 100.068 309.309Z" fill="#2F2E41"/>
<path d="M192.708 342.479C194.395 338.539 185.586 330.989 173.032 325.617C160.478 320.245 148.934 319.084 147.248 323.024C145.561 326.965 154.37 334.514 166.924 339.886C179.477 345.259 191.022 346.419 192.708 342.479Z" fill="#2F2E41"/>
<path d="M59.8236 269.952H37.2896V292.482H59.8236V269.952Z" fill="#FF6584"/>
<path d="M36.0378 229.897H13.5037V252.428H36.0378V229.897Z" stroke="#3F3D56" stroke-width="2" stroke-miterlimit="10"/>
<path d="M130.556 338.169C130.556 341.157 129.369 344.023 127.256 346.135C125.143 348.248 122.277 349.435 119.289 349.435C116.3 349.435 113.435 348.248 111.322 346.135C109.209 344.023 108.021 341.157 108.021 338.169C108.021 331.948 113.066 330.659 119.289 330.659C125.511 330.659 130.556 331.948 130.556 338.169Z" fill="white"/>
<path d="M44.5995 137.286L40.047 111.874L54.4649 111.171V137.286H64.3302L74.1956 109.221" stroke="#B3B3B3" stroke-miterlimit="10"/>
<path d="M61.3033 134.629H47.6268C40.5064 134.629 34.7343 140.399 34.7343 147.515V149.809C34.7343 156.926 40.5064 162.695 47.6268 162.695H61.3033C68.4236 162.695 74.1958 156.926 74.1958 149.809V147.515C74.1958 140.399 68.4236 134.629 61.3033 134.629Z" fill="#0098AC"/>
<path opacity="0.05" d="M60.5382 134.629H49.1568C45.4366 134.641 41.872 136.123 39.2413 138.752C36.6107 141.381 35.1279 144.944 35.1167 148.662C35.1167 148.983 35.1167 149.294 35.1545 149.606C35.4049 146.061 36.9875 142.742 39.5847 140.316C42.1819 137.889 45.6014 136.534 49.1568 136.522H60.5382C64.0936 136.534 67.5131 137.889 70.1103 140.316C72.7075 142.742 74.2901 146.061 74.5405 149.606C74.5405 149.294 74.5783 148.978 74.5783 148.662C74.5671 144.944 73.0842 141.381 70.4536 138.752C67.823 136.123 64.2584 134.641 60.5382 134.629Z" fill="black"/>
<path d="M114.328 58.6794C114.328 91.0871 87.2394 117.359 58.3989 117.359C29.5583 117.359 0 91.0871 0 58.6794C0 26.2717 29.5584 0 58.4036 0C87.2489 0 114.328 26.2717 114.328 58.6794Z" fill="url(#paint0_linear_226_0)"/>
<path d="M111.65 58.6791C111.65 89.5717 85.832 114.611 58.3374 114.611C30.8428 114.611 2.66809 89.5717 2.66809 58.6791C2.66809 27.7865 30.8522 2.76562 58.3421 2.76562C85.832 2.76562 111.65 27.7818 111.65 58.6791Z" fill="#0098AC"/>
<path d="M62.1674 116.575H49.7991V120.894H62.1674V116.575Z" fill="#0098AC"/>
<g opacity="0.2">
<path opacity="0.2" d="M58.3421 2.55322C57.6857 2.55322 57.034 2.55322 56.3776 2.60042C83.1213 3.75683 107.726 28.3293 107.726 58.4856C107.726 88.6418 83.1213 113.214 56.3964 114.371C57.0529 114.399 57.7093 114.418 58.361 114.418C85.8509 114.418 111.674 89.3782 111.674 58.4856C111.674 27.593 85.832 2.55322 58.3421 2.55322Z" fill="black"/>
</g>
<g opacity="0.2">
<path opacity="0.2" d="M5.81812 58.6791C5.81812 28.2302 33.2088 3.45475 60.3068 2.76562C59.9148 2.76562 59.5228 2.76562 59.1308 2.76562C31.6409 2.76562 3.46155 27.8054 3.46155 58.698C3.46155 89.5906 31.6362 114.63 59.1261 114.63C59.5181 114.63 59.9101 114.63 60.302 114.63C33.1947 113.894 5.81812 89.1422 5.81812 58.6791Z" fill="white"/>
</g>
<path d="M74.3469 106.762H38.8051V118.34H74.3469V106.762Z" fill="#0098AC"/>
<path opacity="0.2" d="M38.8051 6.82013C38.8051 6.82013 -3.40966 55.0494 38.8051 110.538L52.746 110.491C52.746 110.491 14.2621 64.6499 50.9798 3.34619L44.1179 4.90852L38.8051 6.82013Z" fill="white"/>
<path opacity="0.2" d="M75.5227 6.06997C75.5227 6.06997 117.737 55.0355 75.5227 110.524L61.5818 110.477C61.5818 110.477 100.066 64.2207 63.348 2.93115L70.2193 4.30468L75.5227 6.06997Z" fill="white"/>
<path d="M41.4858 150.228C41.4858 148.566 42.8331 147.219 44.495 147.219H52.7703V150.228H41.4858Z" fill="white"/>
<path d="M49.7611 150.229L49.7611 141.202L52.7703 141.202L52.7703 150.229L49.7611 150.229Z" fill="white"/>
<path d="M66.2262 147.973C66.2262 149.635 64.8789 150.982 63.217 150.982L54.9417 150.982L54.9417 147.973L66.2262 147.973Z" fill="white"/>
<path d="M41.4858 153.991H52.7703V157H44.495C42.8331 157 41.4858 155.653 41.4858 153.991Z" fill="white"/>
<path d="M66.2262 144.21L54.9417 144.21L54.9417 141.201L63.217 141.201C64.8789 141.201 66.2262 142.549 66.2262 144.21Z" fill="white"/>
<path d="M57.9509 147.972L57.9509 156.999L54.9417 156.999L54.9417 147.972L57.9509 147.972Z" fill="white"/>
<rect x="41.4858" y="155.494" width="6.77068" height="3.00919" rx="1.5046" transform="rotate(-90 41.4858 155.494)" fill="white"/>
<rect x="66.2262" y="142.707" width="6.77068" height="3.00919" rx="1.5046" transform="rotate(90 66.2262 142.707)" fill="white"/>
<path d="M121.186 259.724C121.477 258.302 122.866 257.385 124.288 257.677L131.369 259.126L130.842 261.701L121.186 259.724Z" fill="white"/>
<path d="M128.267 261.175L129.848 253.45L132.423 253.977L130.842 261.702L128.267 261.175Z" fill="white"/>
<path d="M142.751 262.128C142.46 263.55 141.071 264.467 139.649 264.176L132.568 262.726L133.095 260.151L142.751 262.128Z" fill="white"/>
<path d="M120.527 262.943L130.183 264.92L129.656 267.495L122.575 266.045C121.153 265.754 120.236 264.365 120.527 262.943Z" fill="white"/>
<path d="M143.41 258.909L133.754 256.932L134.281 254.357L141.362 255.807C142.784 256.098 143.701 257.487 143.41 258.909Z" fill="white"/>
<path d="M135.67 260.678L134.089 268.402L131.514 267.875L133.095 260.151L135.67 260.678Z" fill="white"/>
<rect x="120.264" y="264.23" width="5.91354" height="2.62824" rx="1.31412" transform="rotate(-78.4294 120.264 264.23)" fill="white"/>
<rect x="143.673" y="257.622" width="5.91354" height="2.62824" rx="1.31412" transform="rotate(101.571 143.673 257.622)" fill="white"/>
<defs>
<linearGradient id="paint0_linear_226_0" x1="104110" y1="53137.7" x2="104110" y2="23957.6" gradientUnits="userSpaceOnUse">
<stop stop-color="#808080" stop-opacity="0.25"/>
<stop offset="0.54" stop-color="#808080" stop-opacity="0.12"/>
<stop offset="1" stop-color="#808080" stop-opacity="0.1"/>
</linearGradient>
</defs>
</svg>
