<svg width="517" height="349" viewBox="0 0 517 349" fill="none" xmlns="http://www.w3.org/2000/svg">
<g clip-path="url(#clip0_78_61)">
<path d="M402.513 158.819L99.1589 -27L6.83639e-06 135.266L303.354 321.085L402.513 158.819Z" fill="#F2F2F2"/>
<path d="M31.8354 321.269H500.476" stroke="#3F3D56" stroke-width="2" stroke-miterlimit="10"/>
<path d="M131.369 201.391C144.441 201.391 155.038 190.781 155.038 177.693C155.038 164.605 144.441 153.995 131.369 153.995C118.296 153.995 107.699 164.605 107.699 177.693C107.699 190.781 118.296 201.391 131.369 201.391Z" fill="#0098AC"/>
<path d="M91.1368 257.163C104.209 257.163 114.806 246.553 114.806 233.465C114.806 220.377 104.209 209.768 91.1368 209.768C78.0645 209.768 67.4673 220.377 67.4673 233.465C67.4673 246.553 78.0645 257.163 91.1368 257.163Z" fill="#0098AC"/>
<path d="M41.6202 301.704C54.6926 301.704 65.2898 291.094 65.2898 278.006C65.2898 264.918 54.6926 254.308 41.6202 254.308C28.5479 254.308 17.9507 264.918 17.9507 278.006C17.9507 291.094 28.5479 301.704 41.6202 301.704Z" fill="#0098AC"/>
<path d="M41.5991 320.862V277.875" stroke="#3F3D56" stroke-width="2" stroke-miterlimit="10"/>
<path d="M41.5993 283.954C44.9526 283.954 47.671 281.233 47.671 277.875C47.671 274.518 44.9526 271.797 41.5993 271.797C38.246 271.797 35.5276 274.518 35.5276 277.875C35.5276 281.233 38.246 283.954 41.5993 283.954Z" fill="#3F3D56"/>
<path d="M41.5992 304.369C41.5992 304.369 40.7319 285.691 22.9504 287.862L41.5992 304.369Z" fill="#3F3D56"/>
<path d="M131.384 321.164V177.78" stroke="#3F3D56" stroke-width="2" stroke-miterlimit="10"/>
<path d="M131.384 183.791C134.737 183.791 137.455 181.069 137.455 177.712C137.455 174.355 134.737 171.633 131.384 171.633C128.03 171.633 125.312 174.355 125.312 177.712C125.312 181.069 128.03 183.791 131.384 183.791Z" fill="#3F3D56"/>
<path d="M112.735 287.53C116.088 287.53 118.807 284.808 118.807 281.451C118.807 278.094 116.088 275.372 112.735 275.372C109.382 275.372 106.663 278.094 106.663 281.451C106.663 284.808 109.382 287.53 112.735 287.53Z" fill="#3F3D56"/>
<path d="M131.384 208.764C131.384 208.764 130.517 190.086 112.735 192.257L131.384 208.764Z" fill="#3F3D56"/>
<path d="M131.384 261.713C131.384 261.713 130.517 243.035 112.735 245.206L131.384 261.713Z" fill="#3F3D56"/>
<path d="M131.384 319.493C131.384 319.493 135.287 283.188 112.735 281.451" stroke="#3F3D56" stroke-width="2" stroke-miterlimit="10"/>
<path d="M150.035 287.53C153.389 287.53 156.107 284.808 156.107 281.451C156.107 278.094 153.389 275.372 150.035 275.372C146.682 275.372 143.964 278.094 143.964 281.451C143.964 284.808 146.682 287.53 150.035 287.53Z" fill="#3F3D56"/>
<path d="M131.387 319.493C131.387 319.493 127.483 283.188 150.035 281.451" stroke="#3F3D56" stroke-width="2" stroke-miterlimit="10"/>
<path d="M150.405 230.507C153.759 230.507 156.477 227.786 156.477 224.428C156.477 221.071 153.759 218.349 150.405 218.349C147.052 218.349 144.333 221.071 144.333 224.428C144.333 227.786 147.052 230.507 150.405 230.507Z" fill="#3F3D56"/>
<path d="M131.756 260.534C131.756 260.534 127.853 226.165 150.405 224.428" stroke="#3F3D56" stroke-width="2" stroke-miterlimit="10"/>
<path d="M91.1582 320.962V233.439" stroke="#3F3D56" stroke-width="2" stroke-miterlimit="10"/>
<path d="M91.1584 239.518C94.5117 239.518 97.2301 236.796 97.2301 233.439C97.2301 230.081 94.5117 227.36 91.1584 227.36C87.8051 227.36 85.0867 230.081 85.0867 233.439C85.0867 236.796 87.8051 239.518 91.1584 239.518Z" fill="#3F3D56"/>
<path d="M91.1586 258.196C91.1586 258.196 90.2912 239.518 72.5098 241.689L91.1586 258.196Z" fill="#3F3D56"/>
<path d="M91.1586 319.291C91.1586 319.291 95.0618 283.373 72.5098 281.636" stroke="#3F3D56" stroke-width="2" stroke-miterlimit="10"/>
<path d="M72.5097 287.715C75.863 287.715 78.5814 284.993 78.5814 281.636C78.5814 278.279 75.863 275.557 72.5097 275.557C69.1564 275.557 66.438 278.279 66.438 281.636C66.438 284.993 69.1564 287.715 72.5097 287.715Z" fill="#3F3D56"/>
<path d="M424.582 187.994C430.088 187.994 434.552 183.525 434.552 178.012C434.552 172.498 430.088 168.029 424.582 168.029C419.075 168.029 414.611 172.498 414.611 178.012C414.611 183.525 419.075 187.994 424.582 187.994Z" fill="#F2F2F2"/>
<path opacity="0.3" d="M428.309 178.592C428.179 178.269 427.939 178.002 427.631 177.839C427.44 177.727 427.233 177.642 427.018 177.589C427.163 177.519 427.296 177.426 427.412 177.314C427.583 177.154 427.713 176.954 427.788 176.731C427.858 176.503 427.887 176.264 427.872 176.026C427.871 175.63 427.761 175.242 427.554 174.905C427.323 174.597 427.008 174.363 426.647 174.23C426.296 174.094 425.925 174.018 425.549 174.007V172.409L424.583 173.034V174.01H423.811V172.984L422.822 172.409V174.01H420.72L421.396 175.21C421.539 175.2 421.683 175.22 421.818 175.268C421.886 175.298 421.941 175.351 421.975 175.418C422.016 175.56 422.032 175.708 422.021 175.856V180.187C422.031 180.334 422.016 180.481 421.975 180.623C421.944 180.688 421.927 180.745 421.852 180.78C421.777 180.815 421.775 180.813 421.567 180.813H421.565L420.72 182.013H422.82V183.614H423.809V182.013H424.581V183.614H425.546V182.003C426.035 181.995 426.519 181.908 426.98 181.746C427.407 181.593 427.782 181.319 428.058 180.958C428.299 180.573 428.431 180.131 428.439 179.677C428.465 179.31 428.421 178.942 428.309 178.592ZM423.809 175.36H423.809V175.327H424.484C424.863 175.327 426.128 175.196 426.149 176.267C426.171 177.338 424.484 177.294 424.484 177.294H423.809V177.211H423.809V175.36ZM423.809 178.412H424.581C424.738 178.412 425.277 178.436 425.474 178.446C425.554 178.449 425.633 178.463 425.709 178.489C425.737 178.499 425.763 178.51 425.792 178.522C425.911 178.562 426.024 178.621 426.125 178.697C426.191 178.742 426.249 178.799 426.297 178.864C426.37 178.97 426.423 179.089 426.454 179.214C426.477 179.302 426.489 179.392 426.49 179.482C426.498 179.655 426.456 179.826 426.369 179.975C426.245 180.173 426.064 180.329 425.849 180.42C425.447 180.585 425.016 180.667 424.581 180.663H423.809V178.412Z" fill="#0098AC"/>
<path d="M165.263 218.969C165.263 213.447 169.74 208.969 175.263 208.969H292.974V243.017H165.263V218.969Z" fill="#3F3D56"/>
<path d="M258.918 243.018L258.918 140.873L292.974 140.873L292.974 243.018L258.918 243.018Z" fill="#3F3D56"/>
<path d="M445.262 241.529C445.262 247.052 440.785 251.529 435.262 251.529L317.55 251.529L317.55 217.482L445.262 217.482L445.262 241.529Z" fill="#3F3D56"/>
<path d="M165.263 285.577H292.974V319.625H175.263C169.74 319.625 165.263 315.148 165.263 309.625V285.577Z" fill="#3F3D56"/>
<path d="M445.262 174.921L317.55 174.921L317.55 140.873L435.262 140.873C440.785 140.873 445.262 145.351 445.262 150.873L445.262 174.921Z" fill="#3F3D56"/>
<path d="M351.607 217.481L351.607 319.625L317.551 319.625L317.551 217.481L351.607 217.481Z" fill="#3F3D56"/>
<rect x="165.263" y="302.601" width="76.608" height="34.0563" rx="10" transform="rotate(-90 165.263 302.601)" fill="#3F3D56"/>
<rect x="445.262" y="157.897" width="76.608" height="34.0564" rx="10" transform="rotate(90 445.262 157.897)" fill="#3F3D56"/>
<path d="M442.113 236.873C445.701 236.873 448.61 233.96 448.61 230.368C448.61 226.775 445.701 223.863 442.113 223.863C438.525 223.863 435.616 226.775 435.616 230.368C435.616 233.96 438.525 236.873 442.113 236.873Z" fill="#FF6584"/>
<path d="M493.333 301.179V227.113" stroke="#3F3D56" stroke-width="2" stroke-miterlimit="10"/>
<path d="M493.333 237.587C499.111 237.587 503.795 232.897 503.795 227.113C503.795 221.328 499.111 216.639 493.333 216.639C487.555 216.639 482.872 221.328 482.872 227.113C482.872 232.897 487.555 237.587 493.333 237.587Z" fill="#3F3D56"/>
<path d="M472.73 268.583C457.618 291.784 461.759 321.293 461.759 321.293C461.759 321.293 490.399 313.186 505.511 289.984C520.622 266.783 516.481 237.274 516.481 237.274C516.481 237.274 487.841 245.382 472.73 268.583Z" fill="#3F3D56"/>
<path d="M461.678 321.024C461.678 321.024 461.31 320.965 460.633 320.828C460.093 320.718 459.35 320.561 458.442 320.346C450.325 318.43 428.746 311.953 414.638 294.925C396.981 273.602 397.724 243.813 397.724 243.813C397.724 243.813 424.723 248.205 442.514 267.353C443.285 268.176 444.035 269.029 444.764 269.912C460.129 288.464 461.561 313.426 461.674 319.597C461.69 320.522 461.678 321.024 461.678 321.024Z" fill="#0098AC"/>
<path d="M450.788 268.583C465.899 291.784 461.759 321.293 461.759 321.293C461.759 321.293 433.118 313.186 418.007 289.984C402.896 266.783 407.036 237.274 407.036 237.274C407.036 237.274 435.677 245.382 450.788 268.583Z" stroke="#3F3D56" stroke-width="2" stroke-miterlimit="10"/>
<path opacity="0.1" d="M461.674 319.597C461.275 320.079 460.923 320.491 460.633 320.828C459.992 321.56 459.628 321.944 459.628 321.944C459.628 321.944 459.185 321.388 458.442 320.346C454.36 314.649 441.231 294.392 442.244 270.993C442.299 269.767 442.389 268.553 442.514 267.353C443.285 268.176 444.035 269.029 444.764 269.912C460.129 288.464 461.561 313.426 461.674 319.597Z" fill="black"/>
<path d="M484.08 272.685C482.886 300.357 462.369 321.945 462.369 321.945C462.369 321.945 443.788 298.666 444.982 270.993C446.177 243.321 466.694 221.734 466.694 221.734C466.694 221.734 485.275 245.013 484.08 272.685Z" fill="#0098AC"/>
<path d="M462.369 321.161L466.879 222.863" stroke="#3F3D56" stroke-width="2" stroke-miterlimit="10"/>
<path opacity="0.1" d="M235.209 208.822C222.491 214.612 206.111 214.201 206.111 214.201H188.385V210.813C195.608 208.794 205.596 207.546 216.636 207.546C222.849 207.524 229.057 207.951 235.209 208.822Z" fill="black"/>
<path opacity="0.1" d="M256.519 218.638C256.519 224.766 238.66 229.73 216.636 229.73C194.611 229.73 176.752 224.766 176.752 218.638C176.752 215.582 181.195 212.815 188.385 210.813V214.201H206.111C206.111 214.201 222.491 214.612 235.209 208.822C247.878 210.674 256.519 214.373 256.519 218.638Z" fill="black"/>
<path d="M221.73 149.574H204.76V166.594H221.73V149.574Z" fill="#2F2E41"/>
<path d="M211.071 161.61C211.071 161.61 212.475 166.532 210.017 166.884C208.492 167.122 207.046 167.725 205.803 168.642L210.368 174.619H218.796L224.063 169.345C224.063 169.345 217.04 164.071 218.445 160.907C219.85 157.743 211.071 161.61 211.071 161.61Z" fill="#FFB9B9"/>
<path opacity="0.1" d="M211.071 161.61C211.071 161.61 212.475 166.532 210.017 166.884C208.492 167.122 207.046 167.725 205.803 168.642L210.368 174.619H218.796L224.063 169.345C224.063 169.345 217.04 164.071 218.445 160.907C219.85 157.743 211.071 161.61 211.071 161.61Z" fill="black"/>
<path d="M213.177 222.785L221.254 225.597L226.872 225.949L226.521 221.026L214.933 217.595L213.177 222.785Z" fill="#FFB9B9"/>
<path d="M223.537 221.73C223.537 221.73 223.537 226.652 224.239 226.652C224.941 226.652 234.423 225.597 237.232 226.652C240.041 227.707 244.255 223.839 242.148 221.73C240.041 219.62 236.604 216.456 234.46 217.159C232.316 217.862 223.537 219.62 223.537 219.62L223.537 221.73Z" fill="#2F2E41"/>
<path d="M197.727 217.159C197.727 217.159 193.513 225.597 196.322 226.3C199.131 227.003 202.292 225.949 202.643 225.597C202.994 225.246 207.91 223.839 208.612 224.542C209.315 225.246 209.315 221.73 209.315 221.73L197.727 217.159Z" fill="#2F2E41"/>
<path d="M201.238 205.557C201.238 205.557 194.566 214.698 199.482 217.159C204.398 219.62 227.926 219.62 229.682 217.159C231.438 214.698 232.14 206.964 229.682 206.26C227.224 205.557 201.238 205.557 201.238 205.557Z" fill="#2F2E41"/>
<path opacity="0.2" d="M201.238 205.557C201.238 205.557 194.566 214.698 199.482 217.159C204.398 219.62 227.926 219.62 229.682 217.159C231.438 214.698 232.14 206.964 229.682 206.26C227.224 205.557 201.238 205.557 201.238 205.557Z" fill="black"/>
<path d="M213.88 164.071C218.34 164.071 221.956 160.451 221.956 155.985C221.956 151.519 218.34 147.899 213.88 147.899C209.419 147.899 205.803 151.519 205.803 155.985C205.803 160.451 209.419 164.071 213.88 164.071Z" fill="#FFB9B9"/>
<path d="M201.238 168.642L208.261 167.235C208.261 167.235 210.017 172.861 215.635 171.806C221.254 170.751 222.659 167.235 222.659 167.235C222.659 167.235 226.873 168.993 227.224 168.993C227.575 168.993 232.14 170.751 232.14 171.806C232.14 172.861 226.873 183.408 226.873 183.408L227.575 202.393L201.589 201.69L203.345 183.056L201.238 168.642Z" fill="#0098AC"/>
<path d="M197.375 177.783C197.375 177.783 195.268 196.416 196.673 197.823C198.078 199.229 203.696 203.096 203.696 203.096V198.877L200.887 193.604L203.696 181.298L197.375 177.783Z" fill="#FFB9B9"/>
<path d="M233.72 177.255C233.72 177.255 232.491 196.416 232.491 197.119C232.491 197.823 229.331 200.284 228.277 200.284C227.224 200.284 226.521 198.526 226.521 198.526L228.98 195.713L227.224 181.298L233.72 177.255Z" fill="#FFB9B9"/>
<path d="M230.384 204.151C230.384 204.151 246.186 195.362 246.537 204.151C246.889 212.94 238.461 216.456 238.461 216.456C238.461 216.456 216.689 222.992 215.811 220.603C214.933 218.214 213.177 214.347 214.582 213.995C215.987 213.643 217.742 212.94 218.445 213.643C219.147 214.347 227.926 208.37 227.926 208.37L230.384 204.151Z" fill="#2F2E41"/>
<path opacity="0.2" d="M237.758 203.096C237.758 203.096 234.598 204.503 233.545 205.557C232.491 206.612 227.926 208.37 227.926 208.37" stroke="black" stroke-width="2" stroke-miterlimit="10"/>
<path d="M203.345 169.345L201.238 168.642C201.238 168.642 193.513 176.728 195.971 178.837C198.429 180.947 199.833 181.65 200.536 182.353C201.238 183.056 204.75 183.408 204.75 183.408L203.345 169.345Z" fill="#0098AC"/>
<path d="M228.98 171.103L232.14 171.806C232.14 171.806 234.598 177.08 235.301 177.783C236.003 178.486 234.247 178.134 233.194 179.541C232.14 180.947 231.087 183.408 228.98 183.408C226.873 183.408 224.063 179.892 224.063 179.892L228.98 171.103Z" fill="#0098AC"/>
<path d="M201.94 207.315C201.94 207.315 188.596 197.823 184.031 204.854C179.466 211.886 203.696 221.378 207.208 222.785C210.719 224.191 213.88 225.597 213.88 225.597C213.88 225.597 217.04 217.862 217.04 216.456C217.04 215.05 214.582 215.05 213.88 215.05C213.177 215.05 210.017 214.347 209.315 213.292C208.612 212.237 201.94 207.315 201.94 207.315Z" fill="#2F2E41"/>
<path opacity="0.2" d="M194.566 204.854C194.566 204.854 198.078 207.667 201.238 208.37C204.398 209.073 205.452 210.831 205.452 210.831" stroke="black" stroke-width="2" stroke-miterlimit="10"/>
<path d="M199.518 191.635L199.799 206.521C199.808 207.013 200.011 207.481 200.363 207.823C200.716 208.166 201.189 208.355 201.681 208.349L229.349 208.038C229.821 208.033 230.273 207.848 230.614 207.522C230.955 207.196 231.159 206.753 231.187 206.282L232.027 191.707C232.041 191.454 232.004 191.2 231.917 190.962C231.83 190.723 231.696 190.505 231.522 190.321C231.348 190.136 231.138 189.989 230.905 189.889C230.673 189.788 230.422 189.736 230.168 189.736H201.379C201.132 189.736 200.887 189.786 200.659 189.882C200.431 189.977 200.224 190.118 200.051 190.295C199.877 190.471 199.741 190.681 199.65 190.911C199.558 191.141 199.513 191.387 199.518 191.635Z" fill="#575A89"/>
<path d="M196.318 168.73C197.071 167.065 198.084 165.503 198.566 163.74C199.145 161.627 198.92 159.392 198.851 157.202C198.741 155.265 198.906 153.323 199.34 151.432C199.782 149.533 200.772 147.806 202.189 146.467C205.869 143.178 212.604 142.942 217.097 144.311C218.869 144.851 220.756 145.879 221.195 147.68C221.261 147.952 221.291 148.232 221.365 148.502C221.733 149.843 223.103 150.691 223.598 151.991C224.237 153.672 223.251 155.5 223.122 157.294C222.972 159.388 224 161.367 225.014 163.205C225.616 164.298 226.243 165.462 226.183 166.709C226.133 167.391 225.926 168.052 225.578 168.641C224.932 169.707 224.026 170.592 222.945 171.213C221.865 171.833 220.644 172.168 219.398 172.187C218.588 172.252 217.779 172.061 217.083 171.64C215.987 170.884 215.666 169.362 215.894 168.048C216.123 166.735 216.788 165.547 217.31 164.321C217.47 163.944 217.615 163.562 217.748 163.175C219.366 162.271 220.612 160.824 221.268 159.089C221.923 157.353 221.945 155.442 221.33 153.693C220.714 151.943 219.501 150.467 217.904 149.526C216.308 148.585 214.43 148.239 212.604 148.549C210.777 148.86 209.119 149.806 207.921 151.222C206.724 152.637 206.065 154.431 206.06 156.286C206.055 158.141 206.705 159.938 207.896 161.359C209.086 162.781 210.739 163.736 212.565 164.055C212.958 166.04 212.779 168.095 212.049 169.981C211.385 171.516 210.552 172.971 209.564 174.32C209.16 175.011 208.621 175.614 207.98 176.094C207.558 176.344 207.104 176.538 206.632 176.671C204.648 177.309 202.559 177.823 200.496 177.536C198.432 177.248 196.388 176.002 195.685 174.039C195.069 172.318 195.564 170.395 196.318 168.73Z" fill="#2F2E41"/>
<path d="M213.488 156.308C218.222 156.308 222.06 154.13 222.06 151.445C222.06 148.759 218.222 146.582 213.488 146.582C208.755 146.582 204.917 148.759 204.917 151.445C204.917 154.13 208.755 156.308 213.488 156.308Z" fill="#2F2E41"/>
<path d="M448.057 48.1725C459.135 48.1725 468.115 39.1796 468.115 28.0862C468.115 16.9929 459.135 8 448.057 8C436.98 8 428 16.9929 428 28.0862C428 39.1796 436.98 48.1725 448.057 48.1725Z" fill="#F2F2F2"/>
<path d="M439.799 28.7945C439.799 27.6589 440.719 26.7384 441.855 26.7384H447.509V28.7945H439.799Z" fill="#B3E0E6"/>
<path d="M445.453 28.7945L445.453 22.6261L447.509 22.6261L447.509 28.7945L445.453 28.7945Z" fill="#B3E0E6"/>
<path d="M456.704 27.2524C456.704 28.388 455.783 29.3086 454.647 29.3086L448.993 29.3086L448.993 27.2524L456.704 27.2524Z" fill="#B3E0E6"/>
<path d="M439.799 31.3647H447.509V33.4208H441.855C440.719 33.4208 439.799 32.5003 439.799 31.3647Z" fill="#B3E0E6"/>
<path d="M456.704 24.6823L448.993 24.6823L448.993 22.6261L454.647 22.6261C455.783 22.6261 456.704 23.5467 456.704 24.6823Z" fill="#B3E0E6"/>
<path d="M451.049 27.2524L451.049 33.4208L448.993 33.4208L448.993 27.2524L451.049 27.2524Z" fill="#B3E0E6"/>
<rect x="439.799" y="32.3928" width="4.62631" height="2.05614" rx="1.02807" transform="rotate(-90 439.799 32.3928)" fill="#B3E0E6"/>
<rect x="456.704" y="23.6542" width="4.62631" height="2.05614" rx="1.02807" transform="rotate(90 456.704 23.6542)" fill="#B3E0E6"/>
<path d="M238.057 19.1725C249.135 19.1725 258.115 10.1796 258.115 -0.913761C258.115 -12.0071 249.135 -21 238.057 -21C226.98 -21 218 -12.0071 218 -0.913761C218 10.1796 226.98 19.1725 238.057 19.1725Z" fill="#F2F2F2"/>
<path d="M246.704 -1.74758C246.704 -0.612002 245.783 0.308563 244.647 0.308563L238.993 0.308564L238.993 -1.74758L246.704 -1.74758Z" fill="#B3E0E6"/>
<path d="M229.799 2.36469H237.509V4.42082H231.855C230.719 4.42082 229.799 3.50026 229.799 2.36469Z" fill="#B3E0E6"/>
<path d="M241.049 -1.74759L241.049 4.42083L238.993 4.42083L238.993 -1.74759L241.049 -1.74759Z" fill="#B3E0E6"/>
<rect x="229.799" y="3.39276" width="4.62631" height="2.05614" rx="1.02807" transform="rotate(-90 229.799 3.39276)" fill="#B3E0E6"/>
<path d="M475.057 196.172C486.135 196.172 495.115 187.18 495.115 176.086C495.115 164.993 486.135 156 475.057 156C463.98 156 455 164.993 455 176.086C455 187.18 463.98 196.172 475.057 196.172Z" fill="#F2F2F2"/>
<path d="M466.799 176.794C466.799 175.659 467.719 174.738 468.855 174.738H474.509V176.794H466.799Z" fill="#B3E0E6"/>
<path d="M472.453 176.794L472.453 170.626L474.509 170.626L474.509 176.794L472.453 176.794Z" fill="#B3E0E6"/>
<path d="M483.704 175.252C483.704 176.388 482.783 177.309 481.647 177.309L475.993 177.309L475.993 175.252L483.704 175.252Z" fill="#B3E0E6"/>
<path d="M466.799 179.365H474.509V181.421H468.855C467.719 181.421 466.799 180.5 466.799 179.365Z" fill="#B3E0E6"/>
<path d="M483.704 172.682L475.993 172.682L475.993 170.626L481.647 170.626C482.783 170.626 483.704 171.547 483.704 172.682Z" fill="#B3E0E6"/>
<path d="M478.049 175.252L478.049 181.421L475.993 181.421L475.993 175.252L478.049 175.252Z" fill="#B3E0E6"/>
<rect x="466.799" y="180.393" width="4.62631" height="2.05614" rx="1.02807" transform="rotate(-90 466.799 180.393)" fill="#B3E0E6"/>
<rect x="483.704" y="171.654" width="4.62631" height="2.05614" rx="1.02807" transform="rotate(90 483.704 171.654)" fill="#B3E0E6"/>
<path d="M478.282 2.59702C484.513 2.59702 489.565 -2.4615 489.565 -8.70149C489.565 -14.9415 484.513 -20 478.282 -20C472.051 -20 467 -14.9415 467 -8.70149C467 -2.4615 472.051 2.59702 478.282 2.59702Z" fill="#F2F2F2"/>
<path d="M43.2823 214.597C49.5133 214.597 54.5646 209.538 54.5646 203.299C54.5646 197.059 49.5133 192 43.2823 192C37.0512 192 32 197.059 32 203.299C32 209.538 37.0512 214.597 43.2823 214.597Z" fill="#F2F2F2"/>
<path d="M36.7703 204.715C36.7703 203.836 37.4834 203.123 38.363 203.123H42.7431V204.715H36.7703Z" fill="#B3E0E6"/>
<path d="M41.1504 204.715L41.1504 199.937L42.7432 199.937L42.7432 204.715L41.1504 204.715Z" fill="#B3E0E6"/>
<path d="M49.8655 203.521C49.8655 204.4 49.1524 205.113 48.2727 205.113L43.8926 205.113L43.8926 203.521L49.8655 203.521Z" fill="#B3E0E6"/>
<path d="M36.7703 206.706H42.7431V208.299H38.363C37.4834 208.299 36.7703 207.586 36.7703 206.706Z" fill="#B3E0E6"/>
<path d="M49.8655 201.53L43.8926 201.53L43.8926 199.937L48.2727 199.937C49.1524 199.937 49.8655 200.65 49.8655 201.53Z" fill="#B3E0E6"/>
<path d="M45.4851 203.521L45.4851 208.299L43.8923 208.299L43.8923 203.521L45.4851 203.521Z" fill="#B3E0E6"/>
<rect x="36.7703" y="207.503" width="3.58372" height="1.59276" rx="0.796382" transform="rotate(-90 36.7703 207.503)" fill="#B3E0E6"/>
<rect x="49.8655" y="200.733" width="3.58372" height="1.59276" rx="0.796382" transform="rotate(90 49.8655 200.733)" fill="#B3E0E6"/>
</g>
<defs>
<clipPath id="clip0_78_61">
<rect width="517" height="349" fill="white"/>
</clipPath>
</defs>
</svg>
