<svg width="585" height="395" viewBox="0 0 585 395" fill="none" xmlns="http://www.w3.org/2000/svg">
<g clip-path="url(#clip0_4_50)">
<path d="M455.455 210.311L112.201 -7.62939e-06L-5.53034e-06 183.653L343.254 393.964L455.455 210.311Z" fill="#F2F2F2"/>
<path d="M36.0229 394.172H566.303" stroke="#3F3D56" stroke-width="2" stroke-miterlimit="10"/>
<path d="M148.648 258.494C163.439 258.494 175.43 246.485 175.43 231.672C175.43 216.859 163.439 204.851 148.648 204.851C133.856 204.851 121.865 216.859 121.865 231.672C121.865 246.485 133.856 258.494 148.648 258.494Z" fill="#0098AC"/>
<path d="M103.124 321.617C117.916 321.617 129.907 309.609 129.907 294.796C129.907 279.983 117.916 267.975 103.124 267.975C88.3321 267.975 76.3411 279.983 76.3411 294.796C76.3411 309.609 88.3321 321.617 103.124 321.617Z" fill="#0098AC"/>
<path d="M47.0945 372.028C61.8862 372.028 73.8773 360.02 73.8773 345.207C73.8773 330.394 61.8862 318.386 47.0945 318.386C32.3028 318.386 20.3118 330.394 20.3118 345.207C20.3118 360.02 32.3028 372.028 47.0945 372.028Z" fill="#0098AC"/>
<path d="M47.0707 393.712V345.06" stroke="#3F3D56" stroke-width="2" stroke-miterlimit="10"/>
<path d="M47.0707 351.94C50.8651 351.94 53.941 348.859 53.941 345.06C53.941 341.26 50.8651 338.179 47.0707 338.179C43.2764 338.179 40.2004 341.26 40.2004 345.06C40.2004 348.859 43.2764 351.94 47.0707 351.94Z" fill="#3F3D56"/>
<path d="M47.0707 375.045C47.0707 375.045 46.0892 353.905 25.9691 356.363L47.0707 375.045Z" fill="#3F3D56"/>
<path d="M148.664 394.054V231.771" stroke="#3F3D56" stroke-width="2" stroke-miterlimit="10"/>
<path d="M148.664 238.574C152.459 238.574 155.535 235.494 155.535 231.694C155.535 227.894 152.459 224.814 148.664 224.814C144.87 224.814 141.794 227.894 141.794 231.694C141.794 235.494 144.87 238.574 148.664 238.574Z" fill="#3F3D56"/>
<path d="M127.563 355.987C131.357 355.987 134.433 352.906 134.433 349.106C134.433 345.307 131.357 342.226 127.563 342.226C123.768 342.226 120.692 345.307 120.692 349.106C120.692 352.906 123.768 355.987 127.563 355.987Z" fill="#3F3D56"/>
<path d="M148.664 266.838C148.664 266.838 147.683 245.699 127.563 248.156L148.664 266.838Z" fill="#3F3D56"/>
<path d="M148.664 326.767C148.664 326.767 147.683 305.627 127.563 308.085L148.664 326.767Z" fill="#3F3D56"/>
<path d="M148.664 392.162C148.664 392.162 153.081 351.072 127.563 349.106" stroke="#3F3D56" stroke-width="2" stroke-miterlimit="10"/>
<path d="M169.769 355.987C173.563 355.987 176.639 352.906 176.639 349.106C176.639 345.307 173.563 342.226 169.769 342.226C165.975 342.226 162.899 345.307 162.899 349.106C162.899 352.906 165.975 355.987 169.769 355.987Z" fill="#3F3D56"/>
<path d="M148.667 392.162C148.667 392.162 144.251 351.072 169.769 349.106" stroke="#3F3D56" stroke-width="2" stroke-miterlimit="10"/>
<path d="M170.188 291.448C173.982 291.448 177.058 288.368 177.058 284.568C177.058 280.768 173.982 277.688 170.188 277.688C166.393 277.688 163.317 280.768 163.317 284.568C163.317 288.368 166.393 291.448 170.188 291.448Z" fill="#3F3D56"/>
<path d="M149.086 325.432C149.086 325.432 144.669 286.534 170.188 284.568" stroke="#3F3D56" stroke-width="2" stroke-miterlimit="10"/>
<path d="M103.148 393.825V294.766" stroke="#3F3D56" stroke-width="2" stroke-miterlimit="10"/>
<path d="M103.148 301.646C106.943 301.646 110.019 298.566 110.019 294.766C110.019 290.966 106.943 287.886 103.148 287.886C99.3539 287.886 96.278 290.966 96.278 294.766C96.278 298.566 99.3539 301.646 103.148 301.646Z" fill="#3F3D56"/>
<path d="M103.148 322.786C103.148 322.786 102.167 301.646 82.0466 304.103L103.148 322.786Z" fill="#3F3D56"/>
<path d="M103.148 391.934C103.148 391.934 107.565 351.282 82.0466 349.316" stroke="#3F3D56" stroke-width="2" stroke-miterlimit="10"/>
<path d="M82.0466 356.196C85.8409 356.196 88.9169 353.116 88.9169 349.316C88.9169 345.516 85.8409 342.436 82.0466 342.436C78.2522 342.436 75.1763 345.516 75.1763 349.316C75.1763 353.116 78.2522 356.196 82.0466 356.196Z" fill="#3F3D56"/>
<path d="M480.426 243.332C486.657 243.332 491.708 238.273 491.708 232.033C491.708 225.793 486.657 220.735 480.426 220.735C474.195 220.735 469.144 225.793 469.144 232.033C469.144 238.273 474.195 243.332 480.426 243.332Z" fill="#F2F2F2"/>
<path opacity="0.3" d="M484.644 232.69C484.496 232.324 484.224 232.023 483.877 231.838C483.66 231.711 483.427 231.615 483.183 231.555C483.347 231.476 483.497 231.37 483.628 231.243C483.823 231.062 483.969 230.836 484.054 230.584C484.133 230.326 484.166 230.055 484.15 229.786C484.148 229.338 484.024 228.899 483.789 228.517C483.528 228.169 483.171 227.903 482.763 227.753C482.366 227.599 481.946 227.514 481.52 227.501V225.692L480.428 226.4V227.504H479.554V226.343L478.435 225.692V227.504H476.057L476.821 228.863C476.983 228.852 477.146 228.874 477.299 228.928C477.376 228.962 477.439 229.022 477.477 229.098C477.523 229.258 477.541 229.426 477.528 229.593V234.496C477.54 234.662 477.523 234.829 477.477 234.988C477.441 235.062 477.422 235.127 477.337 235.167C477.253 235.206 477.25 235.204 477.015 235.204H477.012L476.057 236.562H478.432V238.374H479.552V236.562H480.425V238.374H481.517V236.551C482.07 236.541 482.618 236.443 483.139 236.259C483.623 236.086 484.047 235.777 484.36 235.368C484.632 234.933 484.781 234.432 484.791 233.918C484.82 233.503 484.77 233.086 484.644 232.69ZM479.552 229.033H479.552V228.995H480.315C480.745 228.995 482.176 228.847 482.2 230.058C482.224 231.27 480.315 231.221 480.315 231.221H479.552V231.127H479.552V229.033ZM479.552 232.486H480.425C480.603 232.486 481.213 232.514 481.436 232.525C481.526 232.528 481.616 232.545 481.702 232.574C481.734 232.585 481.763 232.597 481.795 232.611C481.931 232.657 482.058 232.723 482.172 232.809C482.247 232.86 482.313 232.925 482.367 232.998C482.449 233.118 482.51 233.253 482.545 233.394C482.571 233.493 482.584 233.595 482.585 233.698C482.594 233.893 482.547 234.086 482.449 234.255C482.309 234.48 482.103 234.656 481.86 234.759C481.405 234.946 480.917 235.039 480.425 235.034H479.552V232.486Z" fill="#0098AC"/>
<path d="M187 277.071C187 271.549 191.477 267.071 197 267.071H331.509V305.607H187V277.071Z" fill="#3F3D56"/>
<path d="M292.973 305.607L292.973 190L331.509 190L331.509 305.607L292.973 305.607Z" fill="#3F3D56"/>
<path d="M503.826 305.241C503.826 310.764 499.349 315.241 493.826 315.241L359.317 315.241L359.317 276.705L503.826 276.705L503.826 305.241Z" fill="#3F3D56"/>
<path d="M187 353.777H331.509V392.312H197C191.477 392.312 187 387.835 187 382.312V353.777Z" fill="#3F3D56"/>
<path d="M503.826 228.536L359.317 228.536L359.317 190L493.826 190C499.349 190 503.826 194.477 503.826 200L503.826 228.536Z" fill="#3F3D56"/>
<path d="M397.853 276.705L397.853 392.312L359.318 392.312L359.318 276.705L397.853 276.705Z" fill="#3F3D56"/>
<rect x="187" y="373.045" width="86.7053" height="38.5357" rx="10" transform="rotate(-90 187 373.045)" fill="#3F3D56"/>
<rect x="503.826" y="209.268" width="86.7053" height="38.5357" rx="10" transform="rotate(90 503.826 209.268)" fill="#3F3D56"/>
<path d="M500.263 298.653C504.324 298.653 507.615 295.356 507.615 291.29C507.615 287.224 504.324 283.928 500.263 283.928C496.203 283.928 492.911 287.224 492.911 291.29C492.911 295.356 496.203 298.653 500.263 298.653Z" fill="#FF6584"/>
<path d="M558.22 371.435V287.606" stroke="#3F3D56" stroke-width="2" stroke-miterlimit="10"/>
<path d="M558.22 299.461C564.758 299.461 570.058 294.153 570.058 287.606C570.058 281.059 564.758 275.752 558.22 275.752C551.682 275.752 546.383 281.059 546.383 287.606C546.383 294.153 551.682 299.461 558.22 299.461Z" fill="#3F3D56"/>
<path d="M534.907 334.542C517.808 360.802 522.493 394.2 522.493 394.2C522.493 394.2 554.901 385.024 571.999 358.765C589.098 332.505 584.413 299.107 584.413 299.107C584.413 299.107 552.005 308.283 534.907 334.542Z" fill="#3F3D56"/>
<path d="M522.402 393.895C522.402 393.895 521.986 393.828 521.22 393.673C520.608 393.549 519.767 393.372 518.74 393.128C509.556 390.959 485.139 383.629 469.175 364.356C449.195 340.223 450.036 306.507 450.036 306.507C450.036 306.507 480.587 311.479 500.717 333.15C501.589 334.081 502.438 335.047 503.263 336.046C520.648 357.044 522.269 385.296 522.397 392.281C522.415 393.327 522.402 393.895 522.402 393.895Z" fill="#0098AC"/>
<path d="M510.079 334.542C527.178 360.802 522.493 394.2 522.493 394.2C522.493 394.2 490.085 385.024 472.987 358.765C455.888 332.505 460.573 299.107 460.573 299.107C460.573 299.107 492.981 308.283 510.079 334.542Z" stroke="#3F3D56" stroke-width="2" stroke-miterlimit="10"/>
<path opacity="0.1" d="M522.398 392.281C521.946 392.826 521.547 393.292 521.22 393.673C520.493 394.502 520.082 394.937 520.082 394.937C520.082 394.937 519.581 394.307 518.74 393.128C514.121 386.68 499.265 363.753 500.412 337.27C500.474 335.882 500.576 334.509 500.717 333.15C501.59 334.081 502.438 335.047 503.263 336.046C520.648 357.044 522.269 385.296 522.398 392.281Z" fill="black"/>
<path d="M547.751 339.185C546.399 370.505 523.183 394.937 523.183 394.937C523.183 394.937 502.158 368.59 503.51 337.271C504.861 305.951 528.077 281.518 528.077 281.518C528.077 281.518 549.102 307.865 547.751 339.185Z" fill="#0098AC"/>
<path d="M523.183 394.05L528.287 282.796" stroke="#3F3D56" stroke-width="2" stroke-miterlimit="10"/>
<path opacity="0.1" d="M266.146 266.904C251.754 273.457 233.22 272.993 233.22 272.993H213.163V269.158C221.336 266.873 232.637 265.46 245.129 265.46C252.16 265.436 259.184 265.918 266.146 266.904Z" fill="black"/>
<path opacity="0.1" d="M290.258 278.014C290.258 284.95 270.05 290.568 245.129 290.568C220.208 290.568 200 284.95 200 278.014C200 274.556 205.027 271.423 213.163 269.157V272.993H233.22C233.22 272.993 251.754 273.457 266.146 266.904C280.48 269.001 290.258 273.187 290.258 278.014Z" fill="black"/>
<path d="M250.893 199.847H231.692V219.111H250.893V199.847Z" fill="#2F2E41"/>
<path d="M238.832 213.47C238.832 213.47 240.422 219.041 237.64 219.439C235.914 219.708 234.278 220.391 232.872 221.428L238.037 228.193H247.574L253.534 222.224C253.534 222.224 245.587 216.255 247.176 212.674C248.766 209.093 238.832 213.47 238.832 213.47Z" fill="#FFB9B9"/>
<path opacity="0.1" d="M238.832 213.47C238.832 213.47 240.422 219.041 237.64 219.439C235.914 219.708 234.278 220.391 232.872 221.428L238.037 228.193H247.574L253.534 222.224C253.534 222.224 245.587 216.255 247.176 212.674C248.766 209.093 238.832 213.47 238.832 213.47Z" fill="black"/>
<path d="M241.216 282.707L250.355 285.89L256.712 286.288L256.315 280.718L243.203 276.834L241.216 282.707Z" fill="#FFB9B9"/>
<path d="M252.938 281.514C252.938 281.514 252.938 287.084 253.732 287.084C254.527 287.084 265.255 285.891 268.434 287.084C271.613 288.278 276.381 283.901 273.997 281.514C271.613 279.126 267.724 275.545 265.298 276.341C262.871 277.137 252.938 279.126 252.938 279.126L252.938 281.514Z" fill="#2F2E41"/>
<path d="M223.733 276.341C223.733 276.341 218.965 285.891 222.144 286.687C225.322 287.482 228.898 286.289 229.296 285.891C229.693 285.493 235.256 283.901 236.051 284.697C236.845 285.493 236.845 281.514 236.845 281.514L223.733 276.341Z" fill="#2F2E41"/>
<path d="M227.706 263.21C227.706 263.21 220.157 273.555 225.72 276.341C231.283 279.126 257.905 279.126 259.891 276.341C261.878 273.555 262.673 264.801 259.891 264.005C257.11 263.21 227.706 263.21 227.706 263.21Z" fill="#2F2E41"/>
<path opacity="0.2" d="M227.706 263.21C227.706 263.21 220.157 273.555 225.72 276.341C231.283 279.126 257.905 279.126 259.891 276.341C261.878 273.555 262.673 264.801 259.891 264.005C257.11 263.21 227.706 263.21 227.706 263.21Z" fill="black"/>
<path d="M242.011 216.255C247.058 216.255 251.15 212.158 251.15 207.103C251.15 202.049 247.058 197.951 242.011 197.951C236.964 197.951 232.872 202.049 232.872 207.103C232.872 212.158 236.964 216.255 242.011 216.255Z" fill="#FFB9B9"/>
<path d="M227.706 221.428L235.653 219.837C235.653 219.837 237.64 226.203 243.998 225.01C250.355 223.816 251.944 219.837 251.944 219.837C251.944 219.837 256.713 221.826 257.11 221.826C257.507 221.826 262.673 223.816 262.673 225.01C262.673 226.203 256.713 238.141 256.713 238.141L257.507 259.628L228.104 258.832L230.09 237.743L227.706 221.428Z" fill="#0098AC"/>
<path d="M223.336 231.774C223.336 231.774 220.952 252.864 222.541 254.455C224.13 256.047 230.488 260.424 230.488 260.424V255.649L227.309 249.68L230.488 235.753L223.336 231.774Z" fill="#FFB9B9"/>
<path d="M264.461 231.177C264.461 231.177 263.07 252.864 263.07 253.66C263.07 254.455 259.494 257.241 258.302 257.241C257.11 257.241 256.315 255.251 256.315 255.251L259.097 252.068L257.11 235.753L264.461 231.177Z" fill="#FFB9B9"/>
<path d="M260.686 261.618C260.686 261.618 278.567 251.67 278.964 261.618C279.361 271.566 269.825 275.545 269.825 275.545C269.825 275.545 245.19 282.943 244.196 280.239C243.203 277.534 241.216 273.157 242.805 272.759C244.395 272.362 246.382 271.566 247.176 272.362C247.971 273.157 257.905 266.393 257.905 266.393L260.686 261.618Z" fill="#2F2E41"/>
<path opacity="0.2" d="M269.03 260.424C269.03 260.424 265.454 262.016 264.262 263.21C263.07 264.403 257.905 266.393 257.905 266.393" stroke="black" stroke-width="2" stroke-miterlimit="10"/>
<path d="M230.09 222.224L227.706 221.428C227.706 221.428 218.965 230.58 221.746 232.968C224.528 235.355 226.117 236.151 226.912 236.947C227.706 237.743 231.68 238.141 231.68 238.141L230.09 222.224Z" fill="#0098AC"/>
<path d="M259.097 224.214L262.673 225.01C262.673 225.01 265.454 230.978 266.249 231.774C267.044 232.57 265.057 232.172 263.865 233.764C262.673 235.355 261.481 238.141 259.097 238.141C256.713 238.141 253.534 234.162 253.534 234.162L259.097 224.214Z" fill="#0098AC"/>
<path d="M228.501 265.199C228.501 265.199 213.402 254.455 208.237 262.414C203.071 270.372 230.488 281.116 234.461 282.707C238.435 284.299 242.011 285.891 242.011 285.891C242.011 285.891 245.587 277.137 245.587 275.545C245.587 273.953 242.806 273.953 242.011 273.953C241.216 273.953 237.64 273.157 236.845 271.964C236.051 270.77 228.501 265.199 228.501 265.199Z" fill="#2F2E41"/>
<path opacity="0.2" d="M220.157 262.414C220.157 262.414 224.13 265.597 227.706 266.393C231.283 267.189 232.475 269.178 232.475 269.178" stroke="black" stroke-width="2" stroke-miterlimit="10"/>
<path d="M225.76 247.452L226.078 264.3C226.088 264.857 226.318 265.386 226.717 265.774C227.116 266.162 227.651 266.376 228.207 266.369L259.515 266.017C260.049 266.011 260.56 265.803 260.946 265.434C261.332 265.065 261.563 264.563 261.594 264.03L262.544 247.534C262.561 247.247 262.519 246.96 262.421 246.69C262.322 246.42 262.17 246.174 261.973 245.965C261.776 245.756 261.539 245.589 261.276 245.476C261.012 245.362 260.729 245.303 260.442 245.303H227.866C227.586 245.303 227.309 245.359 227.051 245.468C226.793 245.576 226.559 245.735 226.363 245.935C226.167 246.135 226.012 246.373 225.909 246.633C225.806 246.893 225.755 247.172 225.76 247.452Z" fill="#575A89"/>
<path d="M222.139 221.529C222.992 219.644 224.137 217.876 224.683 215.881C225.338 213.489 225.083 210.959 225.005 208.481C224.881 206.289 225.067 204.09 225.559 201.951C226.059 199.801 227.18 197.846 228.782 196.331C232.946 192.609 240.567 192.341 245.652 193.891C247.656 194.502 249.791 195.665 250.288 197.704C250.364 198.012 250.397 198.329 250.481 198.634C250.897 200.152 252.448 201.112 253.007 202.583C253.731 204.485 252.615 206.554 252.469 208.585C252.299 210.955 253.462 213.195 254.609 215.275C255.291 216.512 256 217.83 255.933 219.241C255.876 220.013 255.642 220.761 255.248 221.427C254.517 222.634 253.492 223.636 252.269 224.338C251.046 225.04 249.665 225.42 248.255 225.441C247.339 225.515 246.423 225.298 245.636 224.822C244.395 223.966 244.032 222.243 244.29 220.757C244.549 219.27 245.302 217.926 245.892 216.538C246.074 216.112 246.237 215.679 246.388 215.241C248.218 214.218 249.629 212.58 250.371 210.616C251.112 208.652 251.137 206.489 250.441 204.509C249.744 202.529 248.372 200.858 246.565 199.793C244.758 198.728 242.634 198.336 240.567 198.688C238.5 199.039 236.624 200.11 235.269 201.712C233.914 203.314 233.168 205.344 233.163 207.444C233.157 209.543 233.893 211.577 235.24 213.186C236.586 214.795 238.458 215.876 240.523 216.237C240.968 218.483 240.766 220.809 239.94 222.944C239.188 224.681 238.245 226.328 237.127 227.855C236.67 228.637 236.061 229.32 235.336 229.863C234.858 230.146 234.344 230.366 233.809 230.515C231.565 231.238 229.202 231.82 226.867 231.495C224.532 231.17 222.219 229.759 221.423 227.537C220.726 225.589 221.286 223.413 222.139 221.529Z" fill="#2F2E41"/>
<path d="M241.568 207.468C246.925 207.468 251.267 205.004 251.267 201.965C251.267 198.925 246.925 196.461 241.568 196.461C236.212 196.461 231.869 198.925 231.869 201.965C231.869 205.004 236.212 207.468 241.568 207.468Z" fill="#2F2E41"/>
</g>
<defs>
<clipPath id="clip0_4_50">
<rect width="585" height="395" fill="white"/>
</clipPath>
</defs>
</svg>
