<svg width="20" height="20" viewBox="0 0 20 20" fill="none" xmlns="http://www.w3.org/2000/svg">
<path d="M14.5862 0H5.41381C2.42858 0 0 2.42858 0 5.41381V14.5863C0 17.5714 2.42858 20 5.41381 20H14.5863C17.5714 20 20 17.5714 20 14.5863V5.41381C20 2.42858 17.5714 0 14.5862 0V0ZM18.8275 14.5863C18.8275 16.9249 16.9249 18.8275 14.5862 18.8275H5.41381C3.0751 18.8275 1.17248 16.9249 1.17248 14.5863V5.41381C1.17248 3.0751 3.0751 1.17248 5.41381 1.17248H14.5863C16.9249 1.17248 18.8275 3.0751 18.8275 5.41381V14.5863Z" fill="black"/>
<path d="M9.99996 4.53139C6.98452 4.53139 4.53137 6.98454 4.53137 9.99997C4.53137 13.0154 6.98452 15.4686 9.99996 15.4686C13.0154 15.4686 15.4685 13.0154 15.4685 9.99997C15.4685 6.98454 13.0154 4.53139 9.99996 4.53139ZM9.99996 14.2961C7.63119 14.2961 5.70386 12.3689 5.70386 9.99997C5.70386 7.6312 7.63119 5.70387 9.99996 5.70387C12.3689 5.70387 14.2961 7.6312 14.2961 9.99997C14.2961 12.3689 12.3689 14.2961 9.99996 14.2961Z" fill="black"/>
<path d="M15.5993 2.58926C14.7082 2.58926 13.9834 3.31421 13.9834 4.20517C13.9834 5.09628 14.7082 5.82122 15.5993 5.82122C16.4904 5.82122 17.2154 5.09628 17.2154 4.20517C17.2154 3.31405 16.4904 2.58926 15.5993 2.58926ZM15.5993 4.64859C15.3549 4.64859 15.1559 4.44961 15.1559 4.20517C15.1559 3.96057 15.3549 3.76175 15.5993 3.76175C15.8439 3.76175 16.0429 3.96057 16.0429 4.20517C16.0429 4.44961 15.8439 4.64859 15.5993 4.64859Z" fill="black"/>
</svg>
