<svg width="201" height="62" viewBox="0 0 201 62" fill="none" xmlns="http://www.w3.org/2000/svg">
<path d="M199.301 0C199.751 0.000499994 200.183 0.181563 200.502 0.50347C200.82 0.825376 201 1.26183 201 1.71707V60.2829C201 60.7382 200.82 61.1746 200.502 61.4965C200.183 61.8184 199.751 61.9995 199.301 62H1.69902C1.24856 61.9995 0.816715 61.8184 0.49819 61.4965C0.179666 61.1746 0.000486253 60.7382 -8.48764e-06 60.2829V1.71707C0.000486253 1.26183 0.179666 0.825376 0.49819 0.50347C0.816715 0.181563 1.24856 0.000499994 1.69902 0H199.301Z" fill="#E6E6E6"/>
<path d="M197 57H4V5H197V57Z" fill="white"/>
<path d="M28.1666 47C28.918 47 29.6387 47.3161 30.1701 47.8787C30.7015 48.4413 31 49.2043 31 50C31 50.7956 30.7015 51.5587 30.1701 52.1213C29.6387 52.6839 28.918 53 28.1666 53H16.8334C16.082 53 15.3613 52.6839 14.8299 52.1213C14.2985 51.5587 14 50.7956 14 50C14 49.2043 14.2985 48.4413 14.8299 47.8787C15.3613 47.3161 16.082 47 16.8334 47H28.1666Z" fill="#0098AC"/>
<path d="M14 41H145V42H14V41Z" fill="#E6E6E6"/>
<path d="M171.5 48C162.387 48 155 40.3889 155 31C155 21.6112 162.387 14 171.5 14C180.613 14 188 21.6112 188 31C188 40.3889 180.613 48 171.5 48Z" fill="#0098AC"/>
<path d="M144.588 37L145 36.3748L131.434 27.239L122.132 31.7497L108.751 23.112L82.1334 34.5806L60.9369 24.0628L40.3562 32.4944L14.4932 22L14 22.5627L40.2054 33.3661L60.9074 24.8884L82.1115 35.4094L108.681 23.961L122.079 32.6081L131.373 28.1019L144.588 37Z" fill="#3F3D56"/>
<path d="M141.631 47.0003C142.263 47.0109 142.865 47.2789 143.308 47.7464C143.752 48.214 144 48.8437 144 49.4997C144 50.1558 143.752 50.7855 143.308 51.2531C142.865 51.7206 142.263 51.9886 141.631 51.9992H116.447C115.808 52.01 115.192 51.757 114.733 51.2959C114.274 50.8348 114.011 50.2033 114 49.5404C113.99 48.8776 114.234 48.2375 114.678 47.7612C115.122 47.2848 115.73 47.0111 116.368 47.0003C116.394 46.9999 116.421 46.9999 116.447 47.0003H141.631Z" fill="#E6E6E6"/>
<path d="M178.707 31.7058C178.614 31.7987 178.504 31.8723 178.383 31.9226C178.261 31.9728 178.131 31.9987 178 31.9987C177.869 31.9987 177.739 31.9728 177.617 31.9226C177.496 31.8723 177.386 31.7987 177.293 31.7058L173.001 27.4137V37.9976C173.001 38.1292 172.975 38.2594 172.925 38.381C172.875 38.5026 172.801 38.6132 172.709 38.7063C172.616 38.7994 172.505 38.8733 172.384 38.9237C172.262 38.9741 172.132 39 172.001 39C171.869 39 171.739 38.9741 171.617 38.9237C171.496 38.8733 171.386 38.7994 171.293 38.7063C171.2 38.6132 171.126 38.5026 171.076 38.381C171.026 38.2594 171 38.1292 171.001 37.9976V27.4137L166.708 31.7058C166.616 31.7989 166.505 31.8729 166.384 31.9233C166.263 31.9738 166.132 31.9999 166.001 32C165.869 32.0001 165.739 31.9743 165.618 31.9241C165.496 31.8739 165.386 31.8001 165.293 31.7072C165.2 31.6142 165.126 31.5039 165.076 31.3824C165.026 31.2609 165 31.1307 165 30.9992C165 30.8678 165.026 30.7376 165.077 30.6162C165.127 30.4949 165.201 30.3846 165.294 30.2918L171.294 24.2928C171.481 24.1053 171.735 24 172.001 24C172.266 24 172.52 24.1053 172.708 24.2928L178.707 30.2918C178.895 30.4793 179 30.7337 179 30.9988C179 31.264 178.895 31.5183 178.707 31.7058V31.7058Z" fill="white"/>
</svg>
