<svg width="42" height="42" viewBox="0 0 42 42" fill="none" xmlns="http://www.w3.org/2000/svg">
<path d="M20.9811 41.3052C32.2504 41.3052 41.3859 32.2116 41.3859 20.9941C41.3859 9.77666 32.2504 0.683105 20.9811 0.683105C9.71175 0.683105 0.576172 9.77666 0.576172 20.9941C0.576172 32.2116 9.71175 41.3052 20.9811 41.3052Z" fill="#0098AC"/>
<path d="M9.33759 23.2959C9.33759 21.837 10.5203 20.6543 11.9792 20.6543H19.2436V23.2959H9.33759Z" fill="white"/>
<path d="M16.6019 23.2974L16.6019 15.3725L19.2435 15.3725L19.2435 23.2974L16.6019 23.2974Z" fill="white"/>
<path d="M31.0559 21.3159C31.0559 22.7748 29.8732 23.9575 28.4143 23.9575L21.1499 23.9575L21.1499 21.3159L31.0559 21.3159Z" fill="white"/>
<path d="M9.33759 26.5986H19.2436V29.2402H11.9792C10.5203 29.2402 9.33759 28.0576 9.33759 26.5986Z" fill="white"/>
<path d="M31.0559 18.0132L21.1499 18.0132L21.1499 15.3716L28.4143 15.3716C29.8732 15.3716 31.0559 16.5543 31.0559 18.0132Z" fill="white"/>
<path d="M23.7914 21.3154L23.7914 29.2403L21.1498 29.2403L21.1498 21.3154L23.7914 21.3154Z" fill="white"/>
<rect x="9.33759" y="27.9185" width="5.94362" height="2.64161" rx="1.32081" transform="rotate(-90 9.33759 27.9185)" fill="white"/>
<rect x="31.0559" y="16.6929" width="5.94362" height="2.64161" rx="1.32081" transform="rotate(90 31.0559 16.6929)" fill="white"/>
</svg>
