<svg width="150" height="97" viewBox="0 0 150 97" fill="none" xmlns="http://www.w3.org/2000/svg">
<path d="M150 0H0V96.0744H150V0Z" fill="#E6E6E6"/>
<path d="M145.661 12.0864H4.33884V90.4955H145.661V12.0864Z" fill="white"/>
<path d="M150 0H0V6.19835H150V0Z" fill="#0098AC"/>
<path d="M4.64876 4.33871C5.33341 4.33871 5.88843 3.78369 5.88843 3.09904C5.88843 2.41439 5.33341 1.85938 4.64876 1.85938C3.96411 1.85938 3.40909 2.41439 3.40909 3.09904C3.40909 3.78369 3.96411 4.33871 4.64876 4.33871Z" fill="white"/>
<path d="M9.14256 4.33871C9.74163 4.33871 10.2273 3.78369 10.2273 3.09904C10.2273 2.41439 9.74163 1.85938 9.14256 1.85938C8.5435 1.85938 8.05785 2.41439 8.05785 3.09904C8.05785 3.78369 8.5435 4.33871 9.14256 4.33871Z" fill="white"/>
<path d="M13.6364 4.33871C14.321 4.33871 14.876 3.78369 14.876 3.09904C14.876 2.41439 14.321 1.85938 13.6364 1.85938C12.9517 1.85938 12.3967 2.41439 12.3967 3.09904C12.3967 3.78369 12.9517 4.33871 13.6364 4.33871Z" fill="white"/>
</svg>
