<svg width="215" height="86" viewBox="0 0 215 86" fill="none" xmlns="http://www.w3.org/2000/svg">
<path d="M15.6742 49.3025C18.6587 49.3025 21.0781 46.8831 21.0781 43.8986C21.0781 40.9141 18.6587 38.4946 15.6742 38.4946C12.6897 38.4946 10.2703 40.9141 10.2703 43.8986C10.2703 46.8831 12.6897 49.3025 15.6742 49.3025Z" fill="#E6E6E6"/>
<path d="M31.886 49.3025C34.8705 49.3025 37.2899 46.8831 37.2899 43.8986C37.2899 40.9141 34.8705 38.4946 31.886 38.4946C28.9015 38.4946 26.4821 40.9141 26.4821 43.8986C26.4821 46.8831 28.9015 49.3025 31.886 49.3025Z" fill="#E6E6E6"/>
<path d="M48.0978 49.3025C51.0823 49.3025 53.5018 46.8831 53.5018 43.8986C53.5018 40.9141 51.0823 38.4946 48.0978 38.4946C45.1133 38.4946 42.6939 40.9141 42.6939 43.8986C42.6939 46.8831 45.1133 49.3025 48.0978 49.3025Z" fill="#E6E6E6"/>
<path d="M64.3096 49.3025C67.2941 49.3025 69.7136 46.8831 69.7136 43.8986C69.7136 40.9141 67.2941 38.4946 64.3096 38.4946C61.3251 38.4946 58.9057 40.9141 58.9057 43.8986C58.9057 46.8831 61.3251 49.3025 64.3096 49.3025Z" fill="#E6E6E6"/>
<path d="M80.5214 49.3025C83.5059 49.3025 85.9253 46.8831 85.9253 43.8986C85.9253 40.9141 83.5059 38.4946 80.5214 38.4946C77.5369 38.4946 75.1174 40.9141 75.1174 43.8986C75.1174 46.8831 77.5369 49.3025 80.5214 49.3025Z" fill="#E6E6E6"/>
<path d="M96.7331 49.3025C99.7176 49.3025 102.137 46.8831 102.137 43.8986C102.137 40.9141 99.7176 38.4946 96.7331 38.4946C93.7486 38.4946 91.3292 40.9141 91.3292 43.8986C91.3292 46.8831 93.7486 49.3025 96.7331 49.3025Z" fill="#E6E6E6"/>
<path d="M112.945 49.3025C115.929 49.3025 118.349 46.8831 118.349 43.8986C118.349 40.9141 115.929 38.4946 112.945 38.4946C109.96 38.4946 107.541 40.9141 107.541 43.8986C107.541 46.8831 109.96 49.3025 112.945 49.3025Z" fill="#E6E6E6"/>
<path d="M125.432 50.4788H3.18684C2.60381 50.4781 2.04486 50.2462 1.63259 49.8339C1.22032 49.4217 0.988417 48.8627 0.987732 48.2797V39.5165C0.988416 38.9335 1.22032 38.3745 1.63259 37.9622C2.04486 37.55 2.60381 37.3181 3.18684 37.3174H125.432C126.015 37.3181 126.574 37.55 126.987 37.9622C127.399 38.3745 127.631 38.9335 127.631 39.5165V48.2797C127.631 48.8627 127.399 49.4217 126.987 49.8339C126.574 50.2462 126.015 50.4781 125.432 50.4788ZM3.18684 38.197C2.83702 38.1974 2.50163 38.3366 2.25426 38.5839C2.0069 38.8313 1.86776 39.1667 1.86738 39.5165V48.2797C1.86776 48.6295 2.0069 48.9649 2.25426 49.2123C2.50163 49.4596 2.83702 49.5988 3.18684 49.5991H125.432C125.782 49.5988 126.118 49.4596 126.365 49.2123C126.612 48.9649 126.751 48.6295 126.752 48.2797V39.5165C126.751 39.1667 126.612 38.8313 126.365 38.5839C126.118 38.3366 125.782 38.1974 125.432 38.197L3.18684 38.197Z" fill="#E6E6E6"/>
<path d="M29.3481 1.26352C29.6831 1.26391 30.0043 1.39715 30.2411 1.63402C30.478 1.87089 30.6112 2.19204 30.6116 2.52703V29.9074C30.6112 30.2423 30.478 30.5635 30.2411 30.8004C30.0043 31.0372 29.6831 31.1705 29.3481 31.1709H2.52706C2.19207 31.1705 1.87092 31.0372 1.63405 30.8004C1.39718 30.5635 1.26393 30.2423 1.26355 29.9074V2.52705C1.26393 2.19207 1.39718 1.87091 1.63405 1.63404C1.87092 1.39717 2.19207 1.26392 2.52706 1.26354H29.3481V1.26352ZM29.3481 1.81483e-05H2.52706C1.85684 1.81483e-05 1.21408 0.266259 0.740162 0.740174C0.266247 1.21409 0 1.85686 0 2.52707V29.9074C0 30.5776 0.266247 31.2203 0.740162 31.6943C1.21408 32.1682 1.85684 32.4344 2.52706 32.4344H29.3481C30.0183 32.4344 30.6611 32.1682 31.135 31.6943C31.6089 31.2203 31.8752 30.5776 31.8752 29.9074V2.52705C31.8752 1.85684 31.6089 1.21407 31.135 0.740156C30.6611 0.266242 30.0183 1.05147e-06 29.3481 0V1.81483e-05Z" fill="#E6E6E6"/>
<path d="M25.1647 8.46078H7.26986C7.18657 8.46129 7.104 8.44533 7.0269 8.41382C6.94981 8.3823 6.87971 8.33584 6.82063 8.27713C6.76155 8.21841 6.71467 8.1486 6.68268 8.07169C6.65069 7.99479 6.63422 7.91232 6.63422 7.82903C6.63422 7.74574 6.65069 7.66327 6.68268 7.58637C6.71467 7.50947 6.76155 7.43965 6.82063 7.38094C6.87971 7.32222 6.94981 7.27577 7.0269 7.24425C7.104 7.21273 7.18657 7.19677 7.26986 7.19728H25.1647C25.248 7.19677 25.3305 7.21273 25.4076 7.24425C25.4847 7.27577 25.5548 7.32222 25.6139 7.38094C25.673 7.43965 25.7199 7.50947 25.7519 7.58637C25.7838 7.66327 25.8003 7.74574 25.8003 7.82903C25.8003 7.91232 25.7838 7.99479 25.7519 8.07169C25.7199 8.1486 25.673 8.21841 25.6139 8.27713C25.5548 8.33584 25.4847 8.3823 25.4076 8.41382C25.3305 8.44533 25.248 8.46129 25.1647 8.46078Z" fill="#0098AC"/>
<path d="M25.1647 12.9344H7.26986C7.18657 12.9349 7.104 12.919 7.0269 12.8874C6.94981 12.8559 6.87971 12.8095 6.82063 12.7508C6.76155 12.692 6.71467 12.6222 6.68268 12.5453C6.65069 12.4684 6.63422 12.386 6.63422 12.3027C6.63422 12.2194 6.65069 12.1369 6.68268 12.06C6.71467 11.9831 6.76155 11.9133 6.82063 11.8546C6.87971 11.7959 6.94981 11.7494 7.0269 11.7179C7.104 11.6864 7.18657 11.6704 7.26986 11.6709H25.1647C25.248 11.6704 25.3305 11.6864 25.4076 11.7179C25.4847 11.7494 25.5548 11.7959 25.6139 11.8546C25.673 11.9133 25.7199 11.9831 25.7519 12.06C25.7838 12.1369 25.8003 12.2194 25.8003 12.3027C25.8003 12.386 25.7838 12.4684 25.7519 12.5453C25.7199 12.6222 25.673 12.692 25.6139 12.7508C25.5548 12.8095 25.4847 12.8559 25.4076 12.8874C25.3305 12.919 25.248 12.9349 25.1647 12.9344Z" fill="#0098AC"/>
<path d="M25.1647 17.408H7.26986C7.18657 17.4086 7.104 17.3926 7.0269 17.3611C6.94981 17.3296 6.87971 17.2831 6.82063 17.2244C6.76155 17.1657 6.71467 17.0959 6.68268 17.019C6.65069 16.9421 6.63422 16.8596 6.63422 16.7763C6.63422 16.693 6.65069 16.6105 6.68268 16.5336C6.71467 16.4567 6.76155 16.3869 6.82063 16.3282C6.87971 16.2695 6.94981 16.223 7.0269 16.1915C7.104 16.16 7.18657 16.144 7.26986 16.1445H25.1647C25.248 16.144 25.3305 16.16 25.4076 16.1915C25.4847 16.223 25.5548 16.2695 25.6139 16.3282C25.673 16.3869 25.7199 16.4567 25.7519 16.5336C25.7838 16.6105 25.8003 16.693 25.8003 16.7763C25.8003 16.8596 25.7838 16.9421 25.7519 17.019C25.7199 17.0959 25.673 17.1657 25.6139 17.2244C25.5548 17.2831 25.4847 17.3296 25.4076 17.3611C25.3305 17.3926 25.248 17.4086 25.1647 17.408Z" fill="#0098AC"/>
<path d="M25.1647 21.8822H7.26986C7.18657 21.8827 7.104 21.8667 7.0269 21.8352C6.94981 21.8037 6.87971 21.7572 6.82063 21.6985C6.76155 21.6398 6.71467 21.57 6.68268 21.4931C6.65069 21.4162 6.63422 21.3337 6.63422 21.2504C6.63422 21.1671 6.65069 21.0847 6.68268 21.0078C6.71467 20.9309 6.76155 20.861 6.82063 20.8023C6.87971 20.7436 6.94981 20.6972 7.0269 20.6656C7.104 20.6341 7.18657 20.6182 7.26986 20.6187H25.1647C25.248 20.6182 25.3305 20.6341 25.4076 20.6656C25.4847 20.6972 25.5548 20.7436 25.6139 20.8023C25.673 20.861 25.7199 20.9309 25.7519 21.0078C25.7838 21.0847 25.8003 21.1671 25.8003 21.2504C25.8003 21.3337 25.7838 21.4162 25.7519 21.4931C25.7199 21.57 25.673 21.6398 25.6139 21.6985C25.5548 21.7572 25.4847 21.8037 25.4076 21.8352C25.3305 21.8667 25.248 21.8827 25.1647 21.8822Z" fill="#0098AC"/>
<path d="M25.1646 26.3553H7.26976C7.10221 26.3553 6.94151 26.2888 6.82303 26.1703C6.70456 26.0518 6.638 25.8911 6.638 25.7236C6.638 25.556 6.70456 25.3953 6.82303 25.2768C6.94151 25.1584 7.10221 25.0918 7.26976 25.0918H25.1646C25.3321 25.0918 25.4928 25.1584 25.6113 25.2768C25.7298 25.3953 25.7963 25.556 25.7963 25.7236C25.7963 25.8911 25.7298 26.0518 25.6113 26.1703C25.4928 26.2888 25.3321 26.3553 25.1646 26.3553Z" fill="#0098AC"/>
<path d="M120.954 1.26352C121.289 1.26391 121.61 1.39715 121.847 1.63402C122.084 1.87089 122.217 2.19204 122.217 2.52703V29.9074C122.217 30.2423 122.084 30.5635 121.847 30.8004C121.61 31.0372 121.289 31.1705 120.954 31.1709H94.1327C93.7977 31.1705 93.4766 31.0372 93.2397 30.8004C93.0028 30.5635 92.8696 30.2423 92.8692 29.9074V2.52705C92.8696 2.19207 93.0028 1.87091 93.2397 1.63404C93.4766 1.39717 93.7977 1.26392 94.1327 1.26354H120.954V1.26352ZM120.954 1.81483e-05H94.1327C93.4625 1.81483e-05 92.8197 0.266259 92.3458 0.740174C91.8719 1.21409 91.6057 1.85686 91.6057 2.52707V29.9074C91.6057 30.5776 91.8719 31.2203 92.3458 31.6943C92.8197 32.1682 93.4625 32.4344 94.1327 32.4344H120.954C121.624 32.4344 122.267 32.1682 122.741 31.6943C123.215 31.2203 123.481 30.5776 123.481 29.9074V2.52705C123.481 1.85684 123.215 1.21407 122.741 0.740156C122.267 0.266241 121.624 0 120.954 0V1.81483e-05Z" fill="#E6E6E6"/>
<path d="M116.77 8.46078H98.8755C98.7922 8.46129 98.7096 8.44533 98.6325 8.41382C98.5555 8.3823 98.4854 8.33584 98.4263 8.27713C98.3672 8.21841 98.3203 8.1486 98.2883 8.07169C98.2563 7.99479 98.2399 7.91232 98.2399 7.82903C98.2399 7.74574 98.2563 7.66327 98.2883 7.58637C98.3203 7.50947 98.3672 7.43965 98.4263 7.38094C98.4854 7.32222 98.5555 7.27577 98.6325 7.24425C98.7096 7.21273 98.7922 7.19677 98.8755 7.19728H116.77C116.937 7.1983 117.097 7.26531 117.215 7.38368C117.332 7.50204 117.398 7.66215 117.398 7.82903C117.398 7.99592 117.332 8.15602 117.215 8.27438C117.097 8.39275 116.937 8.45976 116.77 8.46078H116.77Z" fill="#0098AC"/>
<path d="M116.77 12.9344H98.8755C98.7922 12.9349 98.7096 12.919 98.6325 12.8874C98.5555 12.8559 98.4854 12.8095 98.4263 12.7508C98.3672 12.692 98.3203 12.6222 98.2883 12.5453C98.2563 12.4684 98.2399 12.386 98.2399 12.3027C98.2399 12.2194 98.2563 12.1369 98.2883 12.06C98.3203 11.9831 98.3672 11.9133 98.4263 11.8546C98.4854 11.7959 98.5555 11.7494 98.6325 11.7179C98.7096 11.6864 98.7922 11.6704 98.8755 11.6709H116.77C116.937 11.6719 117.097 11.7389 117.215 11.8573C117.332 11.9757 117.398 12.1358 117.398 12.3027C117.398 12.4695 117.332 12.6296 117.215 12.748C117.097 12.8664 116.937 12.9334 116.77 12.9344H116.77Z" fill="#0098AC"/>
<path d="M116.77 17.408H98.8755C98.7922 17.4086 98.7096 17.3926 98.6325 17.3611C98.5555 17.3296 98.4854 17.2831 98.4263 17.2244C98.3672 17.1657 98.3203 17.0959 98.2883 17.019C98.2563 16.9421 98.2399 16.8596 98.2399 16.7763C98.2399 16.693 98.2563 16.6105 98.2883 16.5336C98.3203 16.4567 98.3672 16.3869 98.4263 16.3282C98.4854 16.2695 98.5555 16.223 98.6325 16.1915C98.7096 16.16 98.7922 16.144 98.8755 16.1445H116.77C116.937 16.1456 117.097 16.2126 117.215 16.3309C117.332 16.4493 117.398 16.6094 117.398 16.7763C117.398 16.9432 117.332 17.1033 117.215 17.2216C117.097 17.34 116.937 17.407 116.77 17.408H116.77Z" fill="#0098AC"/>
<path d="M116.77 21.8822H98.8755C98.7922 21.8827 98.7096 21.8667 98.6325 21.8352C98.5555 21.8037 98.4854 21.7572 98.4263 21.6985C98.3672 21.6398 98.3203 21.57 98.2883 21.4931C98.2563 21.4162 98.2399 21.3337 98.2399 21.2504C98.2399 21.1671 98.2563 21.0847 98.2883 21.0078C98.3203 20.9309 98.3672 20.861 98.4263 20.8023C98.4854 20.7436 98.5555 20.6972 98.6325 20.6656C98.7096 20.6341 98.7922 20.6182 98.8755 20.6187H116.77C116.937 20.6197 117.097 20.6867 117.215 20.8051C117.332 20.9234 117.398 21.0835 117.398 21.2504C117.398 21.4173 117.332 21.5774 117.215 21.6958C117.097 21.8141 116.937 21.8811 116.77 21.8822H116.77Z" fill="#0098AC"/>
<path d="M116.77 26.3553H98.8755C98.708 26.3553 98.5473 26.2888 98.4288 26.1703C98.3103 26.0518 98.2438 25.8911 98.2438 25.7236C98.2438 25.556 98.3103 25.3953 98.4288 25.2768C98.5473 25.1584 98.708 25.0918 98.8755 25.0918H116.77C116.938 25.0918 117.099 25.1584 117.217 25.2768C117.336 25.3953 117.402 25.556 117.402 25.7236C117.402 25.8911 117.336 26.0518 117.217 26.1703C117.099 26.2888 116.938 26.3553 116.77 26.3553H116.77Z" fill="#0098AC"/>
<path d="M212.115 53.9095C212.45 53.9099 212.771 54.0432 213.008 54.28C213.244 54.5169 213.378 54.838 213.378 55.173V82.5533C213.378 82.8883 213.244 83.2095 213.008 83.4463C212.771 83.6832 212.45 83.8164 212.115 83.8168H185.293C184.958 83.8164 184.637 83.6832 184.4 83.4463C184.164 83.2095 184.03 82.8883 184.03 82.5533V55.1731C184.03 54.8381 184.164 54.5169 184.4 54.28C184.637 54.0432 184.958 53.9099 185.293 53.9095H212.115V53.9095ZM212.115 52.646H185.293C184.623 52.646 183.98 52.9123 183.507 53.3862C183.033 53.8601 182.766 54.5029 182.766 55.1731V82.5534C182.766 83.2236 183.033 83.8664 183.507 84.3403C183.98 84.8142 184.623 85.0804 185.293 85.0804H212.115C212.785 85.0804 213.428 84.8142 213.901 84.3403C214.375 83.8664 214.642 83.2236 214.642 82.5534V55.1731C214.642 54.5028 214.375 53.8601 213.901 53.3862C213.428 52.9122 212.785 52.646 212.115 52.646V52.646Z" fill="#0098AC"/>
<path d="M207.931 61.1063H190.036C189.953 61.1068 189.87 61.0908 189.793 61.0593C189.716 61.0278 189.646 60.9814 189.587 60.9226C189.528 60.8639 189.481 60.7941 189.449 60.7172C189.417 60.6403 189.401 60.5578 189.401 60.4745C189.401 60.3913 189.417 60.3088 189.449 60.2319C189.481 60.155 189.528 60.0852 189.587 60.0264C189.646 59.9677 189.716 59.9213 189.793 59.8898C189.87 59.8582 189.953 59.8423 190.036 59.8428H207.931C208.098 59.8438 208.258 59.9108 208.375 60.0292C208.493 60.1476 208.559 60.3077 208.559 60.4745C208.559 60.6414 208.493 60.8015 208.375 60.9199C208.258 61.0383 208.098 61.1053 207.931 61.1063Z" fill="#0098AC"/>
<path d="M207.931 65.5799H190.036C189.869 65.5799 189.708 65.5134 189.59 65.3949C189.471 65.2764 189.405 65.1157 189.405 64.9482C189.405 64.7806 189.471 64.6199 189.59 64.5014C189.708 64.383 189.869 64.3164 190.036 64.3164H207.931C208.099 64.3164 208.259 64.383 208.378 64.5014C208.496 64.6199 208.563 64.7806 208.563 64.9482C208.563 65.1157 208.496 65.2764 208.378 65.3949C208.259 65.5134 208.099 65.5799 207.931 65.5799Z" fill="#0098AC"/>
<path d="M207.931 70.0535H190.036C189.953 70.054 189.871 70.0379 189.794 70.0064C189.716 69.9748 189.646 69.9283 189.587 69.8696C189.528 69.8109 189.482 69.7411 189.45 69.6643C189.418 69.5874 189.401 69.505 189.401 69.4218C189.401 69.3386 189.418 69.2562 189.45 69.1793C189.482 69.1024 189.528 69.0327 189.587 68.974C189.646 68.9152 189.716 68.8688 189.794 68.8372C189.871 68.8057 189.953 68.7896 190.036 68.79H207.931C208.098 68.7911 208.258 68.8581 208.375 68.9764C208.493 69.0948 208.559 69.2549 208.559 69.4218C208.559 69.5887 208.493 69.7488 208.375 69.8672C208.258 69.9855 208.098 70.0525 207.931 70.0535Z" fill="#0098AC"/>
<path d="M207.931 74.5282H190.036C189.953 74.5287 189.87 74.5127 189.793 74.4812C189.716 74.4497 189.646 74.4032 189.587 74.3445C189.528 74.2858 189.481 74.216 189.449 74.1391C189.417 74.0622 189.401 73.9797 189.401 73.8964C189.401 73.8131 189.417 73.7307 189.449 73.6537C189.481 73.5768 189.528 73.507 189.587 73.4483C189.646 73.3896 189.716 73.3431 189.793 73.3116C189.87 73.2801 189.953 73.2641 190.036 73.2647H207.931C208.098 73.2657 208.258 73.3327 208.375 73.4511C208.493 73.5694 208.559 73.7295 208.559 73.8964C208.559 74.0633 208.493 74.2234 208.375 74.3418C208.258 74.4601 208.098 74.5271 207.931 74.5282Z" fill="#0098AC"/>
<path d="M207.931 79.0018H190.036C189.953 79.0023 189.87 78.9863 189.793 78.9548C189.716 78.9233 189.646 78.8769 189.587 78.8181C189.528 78.7594 189.481 78.6896 189.449 78.6127C189.417 78.5358 189.401 78.4533 189.401 78.37C189.401 78.2868 189.417 78.2043 189.449 78.1274C189.481 78.0505 189.528 77.9807 189.587 77.922C189.646 77.8632 189.716 77.8168 189.793 77.7853C189.87 77.7537 189.953 77.7378 190.036 77.7383H207.931C208.098 77.7393 208.258 77.8063 208.375 77.9247C208.493 78.0431 208.559 78.2032 208.559 78.37C208.559 78.5369 208.493 78.697 208.375 78.8154C208.258 78.9338 208.098 79.0008 207.931 79.0018Z" fill="#0098AC"/>
<path d="M75.502 32.4347H47.9787C47.2343 32.4338 46.5208 32.1378 45.9945 31.6115C45.4681 31.0852 45.1721 30.3716 45.1712 29.6273V9.93277C45.172 9.1884 45.4681 8.47475 45.9944 7.94838C46.5207 7.422 47.2343 7.12589 47.9787 7.125H75.502C76.2464 7.12582 76.9601 7.4219 77.4865 7.94828C78.0129 8.47466 78.309 9.18835 78.3098 9.93277V29.6273C78.3089 30.3716 78.0128 31.0852 77.4864 31.6116C76.96 32.1379 76.2464 32.4339 75.502 32.4347ZM47.9787 8.38852C47.5693 8.38903 47.1768 8.5519 46.8874 8.8414C46.598 9.1309 46.4352 9.52339 46.4347 9.93277V29.6273C46.4352 30.0366 46.598 30.429 46.8874 30.7185C47.1769 31.0079 47.5693 31.1707 47.9787 31.1712H75.502C75.9114 31.1708 76.3039 31.008 76.5934 30.7185C76.8829 30.4291 77.0458 30.0366 77.0463 29.6273V9.93277C77.0458 9.52336 76.8829 9.13087 76.5934 8.84137C76.3039 8.55188 75.9114 8.38902 75.502 8.38852H47.9787Z" fill="#E6E6E6"/>
<path d="M70.6879 15.9373H52.7931C52.6262 15.9363 52.4665 15.8693 52.3488 15.7509C52.2312 15.6326 52.1652 15.4725 52.1652 15.3056C52.1652 15.1387 52.2312 14.9786 52.3488 14.8602C52.4665 14.7419 52.6262 14.6749 52.7931 14.6738H70.6879C70.7712 14.6733 70.8537 14.6893 70.9308 14.7208C71.0079 14.7523 71.078 14.7988 71.1371 14.8575C71.1962 14.9162 71.2431 14.986 71.2751 15.0629C71.3071 15.1398 71.3235 15.2223 71.3235 15.3056C71.3235 15.3889 71.3071 15.4714 71.2751 15.5483C71.2431 15.6252 71.1962 15.695 71.1371 15.7537C71.078 15.8124 71.0079 15.8589 70.9308 15.8904C70.8537 15.9219 70.7712 15.9379 70.6879 15.9373Z" fill="#0098AC"/>
<path d="M70.6879 20.411H52.7931C52.6262 20.41 52.4665 20.3429 52.3488 20.2246C52.2312 20.1062 52.1652 19.9461 52.1652 19.7792C52.1652 19.6123 52.2312 19.4522 52.3488 19.3339C52.4665 19.2155 52.6262 19.1485 52.7931 19.1475H70.6879C70.7712 19.147 70.8537 19.1629 70.9308 19.1944C71.0079 19.226 71.078 19.2724 71.1371 19.3311C71.1962 19.3898 71.2431 19.4597 71.2751 19.5366C71.3071 19.6135 71.3235 19.6959 71.3235 19.7792C71.3235 19.8625 71.3071 19.945 71.2751 20.0219C71.2431 20.0988 71.1962 20.1686 71.1371 20.2273C71.078 20.286 71.0079 20.3325 70.9308 20.364C70.8537 20.3955 70.7712 20.4115 70.6879 20.411Z" fill="#0098AC"/>
<path d="M70.6879 24.8851H52.7931C52.6262 24.8841 52.4665 24.8171 52.3488 24.6987C52.2312 24.5803 52.1652 24.4202 52.1652 24.2533C52.1652 24.0865 52.2312 23.9264 52.3488 23.808C52.4665 23.6896 52.6262 23.6226 52.7931 23.6216H70.6879C70.7712 23.6211 70.8537 23.637 70.9308 23.6686C71.0079 23.7001 71.078 23.7465 71.1371 23.8052C71.1962 23.864 71.2431 23.9338 71.2751 24.0107C71.3071 24.0876 71.3235 24.1701 71.3235 24.2533C71.3235 24.3366 71.3071 24.4191 71.2751 24.496C71.2431 24.5729 71.1962 24.6427 71.1371 24.7014C71.078 24.7602 71.0079 24.8066 70.9308 24.8381C70.8537 24.8696 70.7712 24.8856 70.6879 24.8851Z" fill="#0098AC"/>
<path d="M166.829 43.3476L140.395 35.6817C139.68 35.4735 139.077 34.9904 138.718 34.3383C138.359 33.6863 138.274 32.9185 138.48 32.2034L143.966 13.2882C144.174 12.5735 144.657 11.9706 145.309 11.6116C145.961 11.2526 146.729 11.167 147.444 11.3735L173.878 19.0394C174.593 19.2476 175.196 19.7307 175.555 20.3829C175.914 21.035 176 21.8029 175.793 22.5181L170.308 41.4333C170.099 42.1479 169.616 42.7508 168.964 43.1097C168.312 43.4686 167.544 43.5541 166.829 43.3476ZM147.092 12.587C146.699 12.4735 146.277 12.5206 145.918 12.718C145.559 12.9154 145.294 13.2471 145.179 13.6401L139.694 32.5553C139.58 32.9485 139.627 33.3708 139.825 33.7294C140.022 34.088 140.354 34.3537 140.747 34.4681L167.181 42.1341C167.574 42.2477 167.997 42.2007 168.355 42.0033C168.714 41.8059 168.98 41.4744 169.094 41.0813L174.58 22.1662C174.693 21.7729 174.646 21.3505 174.449 20.9919C174.251 20.6332 173.92 20.3675 173.526 20.2529L147.092 12.587Z" fill="#E6E6E6"/>
<path d="M166.8 26.1628L149.613 21.1786C149.453 21.1317 149.317 21.023 149.237 20.8763C149.156 20.7296 149.137 20.5569 149.184 20.3962C149.23 20.2355 149.339 20.0999 149.485 20.019C149.632 19.9382 149.805 19.9188 149.965 19.9651L167.152 24.9492C167.313 24.9959 167.449 25.1046 167.53 25.2514C167.61 25.3982 167.63 25.571 167.583 25.732C167.536 25.8929 167.428 26.0287 167.281 26.1095C167.134 26.1903 166.961 26.2094 166.8 26.1628H166.8Z" fill="#0098AC"/>
<path d="M165.554 30.46L148.367 25.4758C148.288 25.4527 148.213 25.4141 148.149 25.3623C148.084 25.3105 148.03 25.2464 147.99 25.1737C147.95 25.101 147.925 25.0212 147.915 24.9387C147.906 24.8562 147.913 24.7728 147.937 24.6931C147.96 24.6134 147.998 24.5391 148.05 24.4743C148.102 24.4095 148.166 24.3556 148.239 24.3156C148.311 24.2756 148.391 24.2503 148.474 24.2412C148.556 24.232 148.64 24.2392 148.719 24.2623L165.906 29.2465C166.067 29.2934 166.202 29.4021 166.283 29.5488C166.363 29.6955 166.382 29.8681 166.336 30.0288C166.289 30.1896 166.181 30.3252 166.034 30.406C165.887 30.4869 165.715 30.5063 165.554 30.46Z" fill="#0098AC"/>
<path d="M164.308 34.7565L147.121 29.7724C146.961 29.7254 146.825 29.6167 146.745 29.47C146.664 29.3233 146.645 29.1507 146.692 28.99C146.738 28.8293 146.847 28.6936 146.993 28.6128C147.14 28.5319 147.312 28.5125 147.473 28.5588L164.66 33.543C164.821 33.5897 164.957 33.6983 165.037 33.8451C165.118 33.9919 165.137 34.1648 165.091 34.3257C165.044 34.4866 164.935 34.6224 164.789 34.7032C164.642 34.784 164.469 34.8032 164.308 34.7565Z" fill="#0098AC"/>
</svg>
