<svg width="444" height="291" viewBox="0 0 444 291" fill="none" xmlns="http://www.w3.org/2000/svg">
<g clip-path="url(#clip0_17_967)">
<path d="M63.6211 291C98.7581 291 127.242 288.826 127.242 286.143C127.242 283.461 98.7581 281.286 63.6211 281.286C28.4841 281.286 0 283.461 0 286.143C0 288.826 28.4841 291 63.6211 291Z" fill="#E6E6E6"/>
<path d="M84.2268 73.1021L58.8453 66.1735C65.6229 59.7721 68.5712 53.7417 67.6904 48.0823H84.2268V73.1021Z" fill="#9F616A"/>
<path d="M86.9189 267.872L78.7204 269.027L68.844 178.186L53.0767 268.642L44.6162 269.027V154.321H96.9176L86.9189 267.872Z" fill="#2F2E41"/>
<path d="M48.8741 286.185C50.161 286.221 51.4231 285.826 52.4596 285.062C53.496 284.297 54.247 283.208 54.5931 281.967L55.1919 273.022L53.9847 266.678C50.7996 264.058 47.5796 264.113 44.327 266.678L43.2898 279.966C43.229 280.745 43.3271 281.529 43.5781 282.269C43.8291 283.01 44.2278 283.692 44.75 284.273C45.2722 284.855 45.9071 285.324 46.616 285.653C47.3249 285.981 48.0932 286.162 48.8741 286.185Z" fill="#2F2E41"/>
<path d="M82.7161 286.185C84.003 286.221 85.2652 285.826 86.3016 285.062C87.338 284.297 88.089 283.208 88.4351 281.967L89.0339 273.022L87.8267 266.678C84.6416 264.058 81.4216 264.113 78.169 266.678L77.1319 279.966C77.071 280.745 77.1691 281.529 77.4201 282.269C77.6711 283.01 78.0698 283.692 78.592 284.273C79.1142 284.855 79.7491 285.324 80.458 285.653C81.167 285.981 81.9352 286.162 82.7161 286.185Z" fill="#2F2E41"/>
<path d="M80.7657 60.0149C88.8366 60.0149 95.3793 53.4662 95.3793 45.388C95.3793 37.3097 88.8366 30.761 80.7657 30.761C72.6949 30.761 66.1521 37.3097 66.1521 45.388C66.1521 53.4662 72.6949 60.0149 80.7657 60.0149Z" fill="#9F616A"/>
<path d="M99.225 156.245H43.4626C50.69 122.719 50.6697 95.7182 44.9128 73.8813C44.5461 72.491 44.7051 71.0142 45.3594 69.7341C46.0137 68.454 47.1172 67.4608 48.4581 66.945L63.4601 61.1697C67.9641 66.9915 74.3198 69.5343 84.2268 65.7887L92.0882 67.4028C94.0025 67.7934 95.7104 68.8652 96.8957 70.4195C98.081 71.9739 98.6634 73.9056 98.535 75.8567C97.9564 84.3971 98.1845 93.0028 97.6867 100.432C96.1452 123.436 95.4794 141.37 99.225 156.245Z" fill="#E6E6E6"/>
<path d="M73.0744 26.142C73.0744 26.142 81.5349 16.519 91.5337 25.7571L94.2256 26.527L92.3028 28.0666C92.3028 28.0666 102.302 32.6857 101.532 42.3087C101.532 42.3087 99.9942 41.9238 99.225 42.3087C98.4559 42.6936 98.0713 46.9278 98.0713 46.9278C98.0713 46.9278 96.9176 43.8484 96.533 43.4635C96.1485 43.0786 90.7645 47.6976 81.9194 40.769C81.9194 40.769 79.2275 47.6976 76.151 46.9278C73.0744 46.1579 68.8442 46.5428 66.9213 51.5468C66.9213 51.5468 56.5379 29.2214 73.0744 26.142Z" fill="#2F2E41"/>
<path d="M101.917 147.777L96.9803 154.4C96.4662 155.089 96.0942 155.875 95.886 156.71C95.6779 157.545 95.6377 158.413 95.7679 159.263C95.898 160.114 96.1959 160.93 96.6442 161.665C97.0925 162.399 97.6822 163.037 98.379 163.541C99.2764 164.19 100.325 164.599 101.425 164.727C102.525 164.856 103.639 164.701 104.662 164.276C105.685 163.851 106.582 163.172 107.268 162.302C107.954 161.432 108.406 160.401 108.581 159.306L109.993 150.471L112.685 112.364L110.762 93.1182L98.4559 97.7372L101.917 114.289V147.777Z" fill="#9F616A"/>
<path d="M96.9176 102.356L111.916 95.4276L111.147 89.9739C111.147 85.4587 109.783 81.0491 107.234 77.3237C104.685 73.5983 101.071 70.7313 96.8647 69.0989L92.3028 67.3284L96.9176 102.356Z" fill="#E6E6E6"/>
<path d="M42.3089 146.237L47.2455 152.86C47.7597 153.55 48.1317 154.335 48.3399 155.17C48.548 156.005 48.5882 156.873 48.458 157.724C48.3278 158.574 48.03 159.39 47.5817 160.125C47.1334 160.859 46.5437 161.497 45.8468 162.001C44.9494 162.65 43.9009 163.059 42.8011 163.188C41.7013 163.316 40.5869 163.161 39.5641 162.736C38.5413 162.312 37.6442 161.632 36.9582 160.762C36.2722 159.892 35.8202 158.861 35.6453 157.766L34.233 148.932L31.541 110.824L33.4638 91.5784L45.77 96.1974L42.3089 112.749V146.237Z" fill="#9F616A"/>
<path d="M47.3083 100.817L32.3101 93.888L33.0793 88.4343C33.0793 83.9192 34.4432 79.5095 36.9919 75.7841C39.5407 72.0587 43.1553 69.1917 47.3612 67.5594L51.9231 65.7888L47.3083 100.817Z" fill="#E6E6E6"/>
<path d="M439.956 248.097H183.315C182.243 248.096 181.215 247.669 180.457 246.911C179.699 246.152 179.273 245.123 179.271 244.05V132.341C179.273 131.268 179.699 130.239 180.457 129.48C181.215 128.722 182.243 128.295 183.315 128.294H439.956C441.028 128.295 442.056 128.722 442.814 129.48C443.572 130.239 443.999 131.268 444 132.341V244.05C443.999 245.123 443.572 246.152 442.814 246.911C442.056 247.669 441.028 248.096 439.956 248.097ZM183.315 129.913C182.672 129.913 182.055 130.169 181.6 130.625C181.145 131.08 180.89 131.697 180.889 132.341V244.05C180.89 244.694 181.145 245.311 181.6 245.766C182.055 246.222 182.672 246.478 183.315 246.478H439.956C440.6 246.478 441.216 246.222 441.671 245.766C442.126 245.311 442.382 244.694 442.383 244.05V132.341C442.382 131.697 442.126 131.08 441.671 130.625C441.216 130.169 440.6 129.913 439.956 129.913H183.315Z" fill="#E6E6E6"/>
<path d="M193.829 142.055C193.185 142.055 192.568 142.311 192.113 142.766C191.658 143.222 191.403 143.839 191.403 144.483C191.403 145.127 191.658 145.745 192.113 146.201C192.568 146.656 193.185 146.912 193.829 146.912H227.796C228.439 146.912 229.057 146.656 229.512 146.201C229.967 145.745 230.222 145.127 230.222 144.483C230.222 143.839 229.967 143.222 229.512 142.766C229.057 142.311 228.439 142.055 227.796 142.055H193.829Z" fill="#E6E6E6"/>
<path d="M426.364 158.944V203.978H197.312V180.266C198.898 179.247 200.493 178.232 202.103 177.251C208.98 173.039 216.34 169.1 224.362 167.64C228.155 166.932 232.043 166.884 235.853 167.497C239.878 168.162 243.731 169.55 247.545 170.943C251.307 172.321 255.078 173.743 259.012 174.542C262.846 175.295 266.781 175.373 270.642 174.772C278.007 173.666 284.927 170.703 291.817 168.023C298.751 165.328 305.896 162.782 313.4 162.447C320.808 162.112 328.126 163.864 335.155 166.037C349.488 170.464 364.122 177.031 379.298 172.527C394.709 167.961 408.883 154.779 425.962 158.69C426.123 158.72 426.267 158.811 426.364 158.944Z" fill="#E6E6E6"/>
<path d="M426.364 159.728C426.291 159.866 426.174 159.974 426.032 160.037C425.89 160.099 425.73 160.112 425.58 160.073C423.545 159.606 421.46 159.391 419.373 159.432C402.574 159.729 389.658 173.264 373.233 175.289C358.423 177.112 344.484 169.904 330.559 166.137C323.324 164.18 315.864 163.141 308.419 164.472C301.031 165.788 294.097 168.813 287.135 171.498C280.43 174.083 273.463 176.485 266.204 176.605C258.223 176.739 251.036 173.446 243.634 170.938C239.784 169.631 235.834 168.597 231.756 168.497C227.78 168.449 223.824 169.062 220.049 170.311C212.183 172.814 205.096 177.275 198.196 181.707C198.078 181.791 197.934 181.83 197.79 181.817C197.641 181.797 197.501 181.732 197.39 181.631C197.279 181.53 197.201 181.398 197.167 181.251C197.132 181.105 197.144 180.951 197.198 180.811C197.253 180.671 197.35 180.551 197.474 180.467L197.79 180.266C199.373 179.247 200.965 178.232 202.572 177.251C209.434 173.039 216.779 169.1 224.784 167.64C228.569 166.932 232.448 166.884 236.251 167.497C240.267 168.162 244.112 169.55 247.918 170.943C251.672 172.321 255.435 173.743 259.361 174.542C263.187 175.295 267.115 175.373 270.967 174.772C278.317 173.666 285.222 170.703 292.098 168.023C299.018 165.328 306.147 162.782 313.636 162.447C321.029 162.112 328.331 163.864 335.346 166.037C349.648 170.464 364.252 177.031 379.396 172.527C394.775 167.961 408.92 154.779 425.963 158.69C426.124 158.72 426.268 158.811 426.364 158.944C426.438 159.061 426.477 159.197 426.477 159.336C426.477 159.475 426.438 159.611 426.364 159.728Z" fill="#0098AC"/>
<path d="M228.872 171.431C230.721 171.431 232.219 169.931 232.219 168.081C232.219 166.23 230.721 164.73 228.872 164.73C227.023 164.73 225.525 166.23 225.525 168.081C225.525 169.931 227.023 171.431 228.872 171.431Z" fill="#0098AC"/>
<path d="M313.512 167.123C315.36 167.123 316.859 165.623 316.859 163.773C316.859 161.923 315.36 160.423 313.512 160.423C311.663 160.423 310.164 161.923 310.164 163.773C310.164 165.623 311.663 167.123 313.512 167.123Z" fill="#0098AC"/>
<path d="M416.8 162.816C418.649 162.816 420.148 161.316 420.148 159.465C420.148 157.615 418.649 156.115 416.8 156.115C414.952 156.115 413.453 157.615 413.453 159.465C413.453 161.316 414.952 162.816 416.8 162.816Z" fill="#0098AC"/>
<path d="M226.987 223.003C226.344 223.003 225.727 223.259 225.272 223.715C224.817 224.17 224.561 224.788 224.561 225.432C224.561 226.076 224.817 226.694 225.272 227.149C225.727 227.604 226.344 227.86 226.987 227.86H260.954C261.598 227.86 262.215 227.604 262.67 227.149C263.125 226.694 263.381 226.076 263.381 225.432C263.381 224.788 263.125 224.17 262.67 223.715C262.215 223.259 261.598 223.003 260.954 223.003H226.987Z" fill="#E6E6E6"/>
<path d="M205.151 234.336C210.213 234.336 214.317 230.229 214.317 225.162C214.317 220.095 210.213 215.988 205.151 215.988C200.089 215.988 195.985 220.095 195.985 225.162C195.985 230.229 200.089 234.336 205.151 234.336Z" fill="#0098AC"/>
<path d="M308.94 223.003C308.296 223.003 307.679 223.259 307.224 223.715C306.769 224.17 306.514 224.788 306.514 225.432C306.514 226.076 306.769 226.694 307.224 227.149C307.679 227.604 308.296 227.86 308.94 227.86H342.907C343.551 227.86 344.168 227.604 344.623 227.149C345.078 226.694 345.333 226.076 345.333 225.432C345.333 224.788 345.078 224.17 344.623 223.715C344.168 223.259 343.551 223.003 342.907 223.003H308.94Z" fill="#E6E6E6"/>
<path d="M287.104 234.336C292.166 234.336 296.27 230.229 296.27 225.162C296.27 220.095 292.166 215.988 287.104 215.988C282.042 215.988 277.938 220.095 277.938 225.162C277.938 230.229 282.042 234.336 287.104 234.336Z" fill="#0098AC"/>
<path d="M390.893 223.003C390.249 223.003 389.632 223.259 389.177 223.715C388.722 224.17 388.466 224.788 388.466 225.432C388.466 226.076 388.722 226.694 389.177 227.149C389.632 227.604 390.249 227.86 390.893 227.86H424.86C425.503 227.86 426.12 227.604 426.575 227.149C427.03 226.694 427.286 226.076 427.286 225.432C427.286 224.788 427.03 224.17 426.575 223.715C426.12 223.259 425.503 223.003 424.86 223.003H390.893Z" fill="#E6E6E6"/>
<path d="M369.056 234.336C374.119 234.336 378.222 230.229 378.222 225.162C378.222 220.095 374.119 215.988 369.056 215.988C363.994 215.988 359.891 220.095 359.891 225.162C359.891 230.229 363.994 234.336 369.056 234.336Z" fill="#0098AC"/>
<path d="M422.39 98.1321H295.774C293.306 98.1321 291.306 96.7057 291.303 94.9481V67.403C291.306 65.6453 293.306 64.219 295.774 64.219H422.39C424.858 64.219 426.858 65.6453 426.861 67.403V94.9475C426.859 96.7052 424.858 98.1299 422.39 98.1321ZM295.774 65.4915C294.293 65.4915 293.093 66.3474 293.091 67.4019V94.9465C293.091 96.0009 294.293 96.8558 295.774 96.8568H422.39C423.871 96.8568 425.071 96.0009 425.073 94.9465V67.403C425.073 66.3485 423.871 65.4937 422.39 65.4926L295.774 65.4915Z" fill="#E6E6E6"/>
<path d="M324.403 79.873C323.688 79.8739 323.003 80.1584 322.497 80.6643C321.992 81.1701 321.708 81.856 321.707 82.5713V101.459C321.708 102.175 321.992 102.86 322.497 103.366C323.003 103.872 323.688 104.157 324.403 104.158H420.913C421.627 104.157 422.312 103.872 422.818 103.366C423.323 102.86 423.608 102.175 423.608 101.459V82.5713C423.608 81.856 423.323 81.1701 422.818 80.6643C422.312 80.1584 421.627 79.8739 420.913 79.873H324.403Z" fill="#0098AC"/>
<path d="M337.882 98.2213C341.157 98.2213 343.812 95.5636 343.812 92.2851C343.812 89.0066 341.157 86.3489 337.882 86.3489C334.606 86.3489 331.951 89.0066 331.951 92.2851C331.951 95.5636 334.606 98.2213 337.882 98.2213Z" fill="white"/>
<path d="M364.911 89.7083C364.267 89.7083 363.65 89.9641 363.195 90.4195C362.74 90.875 362.485 91.4926 362.485 92.1367C362.485 92.7808 362.74 93.3985 363.195 93.8539C363.65 94.3093 364.267 94.5652 364.911 94.5652H398.878C399.521 94.5652 400.139 94.3093 400.594 93.8539C401.049 93.3985 401.304 92.7808 401.304 92.1367C401.304 91.4926 401.049 90.875 400.594 90.4195C400.139 89.9641 399.521 89.7083 398.878 89.7083H364.911Z" fill="white"/>
<path d="M327.497 33.9131H200.882C198.413 33.9131 196.413 32.4867 196.41 30.7291V3.18397C196.413 1.42632 198.413 0 200.882 0H327.497C329.966 0 331.966 1.42632 331.969 3.18397V30.7285C331.966 32.4862 329.966 33.9109 327.497 33.9131ZM200.882 1.27251C199.4 1.27251 198.2 2.1284 198.199 3.18289V30.7275C198.199 31.7819 199.4 32.6368 200.882 32.6378H327.497C328.978 32.6378 330.179 31.7819 330.18 30.7275V3.18397C330.18 2.12949 328.978 1.27467 327.497 1.27359L200.882 1.27251Z" fill="#E6E6E6"/>
<path d="M229.51 15.6538C228.795 15.6546 228.11 15.9392 227.605 16.445C227.099 16.9509 226.815 17.6367 226.814 18.3521V37.24C226.815 37.9554 227.099 38.6412 227.605 39.1471C228.11 39.6529 228.795 39.9375 229.51 39.9383H326.02C326.735 39.9375 327.42 39.6529 327.925 39.1471C328.431 38.6412 328.715 37.9554 328.716 37.24V18.3521C328.715 17.6367 328.431 16.9509 327.925 16.445C327.42 15.9392 326.735 15.6546 326.02 15.6538H229.51Z" fill="#0098AC"/>
<path d="M242.989 34.0023C246.265 34.0023 248.92 31.3446 248.92 28.0661C248.92 24.7876 246.265 22.1299 242.989 22.1299C239.714 22.1299 237.058 24.7876 237.058 28.0661C237.058 31.3446 239.714 34.0023 242.989 34.0023Z" fill="white"/>
<path d="M270.018 25.4893C269.375 25.4893 268.758 25.7451 268.303 26.2005C267.848 26.656 267.592 27.2736 267.592 27.9177C267.592 28.5618 267.848 29.1795 268.303 29.6349C268.758 30.0903 269.375 30.3462 270.018 30.3462H303.985C304.629 30.3462 305.246 30.0903 305.701 29.6349C306.156 29.1795 306.412 28.5618 306.412 27.9177C306.412 27.2736 306.156 26.656 305.701 26.2005C305.246 25.7451 304.629 25.4893 303.985 25.4893H270.018Z" fill="white"/>
</g>
<defs>
<clipPath id="clip0_17_967">
<rect width="444" height="291" fill="white"/>
</clipPath>
</defs>
</svg>
