<?xml version="1.0" standalone="no"?>
<!DOCTYPE svg PUBLIC "-//W3C//DTD SVG 20010904//EN"
 "http://www.w3.org/TR/2001/REC-SVG-20010904/DTD/svg10.dtd">
<svg version="1.0" xmlns="http://www.w3.org/2000/svg"
 width="1216.000000pt" height="1216.000000pt" viewBox="0 0 1216.000000 1216.000000"
 preserveAspectRatio="xMidYMid meet">
<metadata>
Created by potrace 1.14, written by Peter Selinger 2001-2017
</metadata>
<g transform="translate(0.000000,1216.000000) scale(0.100000,-0.100000)"
fill="#000000" stroke="none">
<path d="M3970 8475 l0 -1445 -1322 -1 c-728 0 -1331 -2 -1340 -4 -10 -2 -42
-6 -70 -9 -96 -11 -119 -16 -136 -25 -9 -5 -21 -10 -27 -10 -97 -13 -403 -151
-445 -202 -3 -3 -14 -11 -26 -17 -66 -35 -272 -243 -339 -343 -27 -41 -52 -76
-56 -79 -6 -6 -104 -202 -104 -210 0 -3 -3 -9 -6 -15 -8 -12 -43 -125 -57
-180 -10 -38 -13 -55 -30 -155 -9 -60 -9 -2145 1 -2190 4 -19 9 -51 12 -71 4
-39 40 -173 50 -189 3 -5 8 -20 10 -32 3 -12 11 -36 19 -53 32 -68 49 -110 48
-117 -1 -5 2 -8 8 -8 5 0 10 -4 10 -9 0 -15 79 -141 129 -206 46 -60 179 -197
237 -245 33 -27 45 -36 113 -78 24 -15 48 -32 55 -37 12 -12 159 -83 221 -108
116 -47 305 -88 417 -91 21 -1 38 -4 38 -8 0 -4 11 -3 24 2 13 5 26 7 28 5 2
-3 161 -5 354 -4 192 0 387 -1 434 -1 47 -1 92 -1 100 -1 60 -1 468 0 478 0 6
1 18 1 25 2 6 1 68 1 137 0 69 0 132 0 140 0 22 1 940 0 1040 -1 47 -1 92 -1
100 -1 39 0 467 0 480 0 8 0 69 0 135 0 66 -1 127 -1 135 -1 8 1 107 1 220 1
l205 0 -1 703 c-1 387 -2 712 -3 723 -1 20 -8 20 -1984 20 l-1982 0 0 900 0
900 1980 0 c1089 0 1982 3 1985 7 4 5 5 4293 1 4321 0 4 -325 7 -721 7 l-720
0 0 -1445z"/>
<path d="M6458 9913 c-3 -7 -2 -1399 1 -1428 1 -7 669 -10 1984 -10 l1983 0 0
-902 0 -902 -1950 0 c-1073 0 -1967 0 -1986 0 l-35 -1 0 -2158 c1 -1186 4
-2162 7 -2168 4 -6 30 -8 66 -4 33 3 71 3 85 -1 14 -4 29 -4 35 0 5 3 72 4
147 1 75 -3 138 -4 140 -2 1 1 219 2 484 2 l481 0 2 1442 3 1443 1290 2 c710
0 1319 4 1355 7 75 6 170 22 218 35 18 5 33 9 35 9 6 -3 120 37 187 65 280
118 538 346 692 615 18 31 33 63 34 70 2 8 10 22 18 31 9 10 16 22 16 27 0 5
14 44 30 86 26 66 48 146 66 233 5 24 13 86 19 140 5 47 5 2018 0 2055 -1 14
-6 49 -10 79 -4 30 -8 61 -10 70 -60 290 -191 537 -395 741 -91 92 -281 240
-307 240 -4 0 -25 11 -46 25 -20 14 -37 23 -37 19 0 -3 -15 3 -32 13 -33 19
-191 77 -238 87 -14 3 -47 10 -75 16 -27 6 -61 14 -75 17 -35 10 -4178 15
-4182 6z"/>
</g>
</svg>
