<svg width="348" height="248" viewBox="0 0 348 248" fill="none" xmlns="http://www.w3.org/2000/svg">
<path d="M26.7075 0C26.2548 0.000499994 25.8208 0.181568 25.5007 0.503475C25.1805 0.825381 25.0005 1.26183 25 1.71708V60.2829C25.0005 60.7382 25.1805 61.1746 25.5007 61.4965C25.8208 61.8184 26.2548 61.9995 26.7075 62H225.292C225.745 61.9995 226.179 61.8184 226.499 61.4965C226.819 61.1746 226.999 60.7382 227 60.2829V1.71708C226.999 1.26183 226.819 0.825381 226.499 0.503475C226.179 0.181568 225.745 0.000499994 225.292 0H26.7075Z" fill="#E6E6E6"/>
<path d="M30 58H223V5H30V58Z" fill="white"/>
<path d="M198.833 47C198.082 47 197.361 47.2634 196.83 47.7322C196.299 48.2011 196 48.837 196 49.5C196 50.163 196.299 50.7989 196.83 51.2678C197.361 51.7366 198.082 52 198.833 52H210.167C210.918 52 211.639 51.7366 212.17 51.2678C212.701 50.7989 213 50.163 213 49.5C213 48.837 212.701 48.2011 212.17 47.7322C211.639 47.2634 210.918 47 210.167 47H198.833Z" fill="#0098AC"/>
<path d="M213 41H82V42H213V41Z" fill="#E6E6E6"/>
<path d="M55 48C64.3888 48 72 40.6127 72 31.5C72 22.3873 64.3888 15 55 15C45.6112 15 38 22.3873 38 31.5C38 40.6127 45.6112 48 55 48Z" fill="#E6E6E6"/>
<path d="M82.4124 36.6541L82 36.0392L95.5656 27.0559L104.868 31.4916L118.248 23L118.429 23.0765L144.865 34.2786L166.062 23.9356L186.644 32.2246L212.507 37.4467L213 38L186.792 33.0819L166.09 24.7444L144.886 35.0905L118.317 23.8324L104.918 32.3352L95.6244 27.9038L82.4124 36.6541Z" fill="#3F3D56"/>
<path d="M84.3691 47.0003C83.7373 47.0109 83.1348 47.2789 82.6916 47.7465C82.2484 48.2142 82 48.8439 82 49.5C82 50.1561 82.2484 50.7859 82.6916 51.2535C83.1348 51.7212 83.7373 51.9892 84.3691 51.9997H109.557C110.195 52.0095 110.81 51.7559 111.268 51.2948C111.726 50.8336 111.989 50.2025 112 49.5401C112.01 48.8777 111.767 48.2381 111.323 47.7619C110.879 47.2857 110.272 47.0118 109.634 47.0003C109.608 46.9999 109.582 46.9999 109.557 47.0003H84.3691Z" fill="#E6E6E6"/>
<path d="M61.7281 30.2916C61.6418 30.1987 61.5395 30.1251 61.4268 30.0748C61.3142 30.0245 61.1934 29.9987 61.0715 29.9987C60.9496 29.9987 60.8288 30.0245 60.7162 30.0748C60.6035 30.1251 60.5012 30.1987 60.415 30.2916L56.4291 34.5852V23.9977C56.4285 23.7328 56.3304 23.4791 56.1563 23.2921C55.9823 23.105 55.7465 23 55.5006 23C55.2548 23 55.019 23.105 54.8449 23.2921C54.6709 23.4791 54.5728 23.7328 54.5721 23.9977V34.5852L50.5863 30.2916C50.5001 30.1984 50.3978 30.1245 50.285 30.074C50.1723 30.0235 50.0515 29.9974 49.9294 29.9973C49.8073 29.9972 49.6864 30.023 49.5736 30.0732C49.4608 30.1235 49.3583 30.1972 49.2719 30.2902C49.1856 30.3832 49.1172 30.4936 49.0705 30.6151C49.0238 30.7367 48.9999 30.8669 49 30.9984C49.0001 31.1299 49.0243 31.2601 49.0712 31.3815C49.1181 31.503 49.1867 31.6132 49.2732 31.7061L54.8441 37.7071C55.0182 37.8946 55.2544 38 55.5006 38C55.7469 38 55.983 37.8946 56.1572 37.7071L61.7281 31.7061C61.9022 31.5185 62 31.2641 62 30.9988C62 30.7336 61.9022 30.4792 61.7281 30.2916Z" fill="white"/>
<path d="M148.699 93C148.249 93.0005 147.817 93.1816 147.498 93.5035C147.18 93.8254 147 94.2618 147 94.7171V153.283C147 153.738 147.18 154.175 147.498 154.497C147.817 154.818 148.249 155 148.699 155H346.301C346.751 155 347.183 154.818 347.502 154.497C347.82 154.175 348 153.738 348 153.283V94.7171C348 94.2618 347.82 93.8254 347.502 93.5035C347.183 93.1816 346.751 93.0005 346.301 93H148.699Z" fill="#E6E6E6"/>
<path d="M150 151H343V98H150V151Z" fill="white"/>
<path d="M318.834 140C318.082 140 317.361 140.263 316.83 140.732C316.299 141.201 316 141.837 316 142.5C316 143.163 316.299 143.799 316.83 144.268C317.361 144.737 318.082 145 318.834 145H330.166C330.918 145 331.639 144.737 332.17 144.268C332.701 143.799 333 143.163 333 142.5C333 141.837 332.701 141.201 332.17 140.732C331.639 140.263 330.918 140 330.166 140H318.832H318.834Z" fill="#0098AC"/>
<path d="M333 134H203V135H333V134Z" fill="#E6E6E6"/>
<path d="M176 141C184.837 141 192 133.613 192 124.5C192 115.387 184.837 108 176 108C167.163 108 160 115.387 160 124.5C160 133.613 167.163 141 176 141Z" fill="#0098AC"/>
<path d="M203.413 130L203 129.389L216.566 120.467L225.868 124.872L239.249 116.438L239.429 116.514L265.865 127.641L287.062 117.368L307.644 125.6L333.507 103L334 103.55L307.792 126.449L287.09 118.169L265.887 128.445L239.318 117.263L225.92 125.709L216.628 121.309L203.413 130Z" fill="#3F3D56"/>
<path d="M205.447 140C205.131 139.995 204.817 140.054 204.523 140.175C204.229 140.296 203.96 140.475 203.733 140.704C203.506 140.932 203.324 141.205 203.199 141.506C203.073 141.807 203.005 142.131 203 142.459C202.995 142.788 203.052 143.114 203.169 143.419C203.285 143.724 203.458 144.003 203.678 144.239C203.898 144.475 204.16 144.663 204.45 144.794C204.74 144.924 205.052 144.994 205.368 145C205.394 145 205.421 145 205.447 145H230.631C231.263 144.989 231.865 144.721 232.308 144.253C232.752 143.786 233 143.156 233 142.5C233 141.844 232.752 141.214 232.308 140.747C231.865 140.279 231.263 140.011 230.631 140H205.447Z" fill="#E6E6E6"/>
<path d="M169.293 124.193C169.386 124.28 169.496 124.349 169.617 124.396C169.739 124.443 169.869 124.467 170 124.467C170.131 124.467 170.261 124.443 170.383 124.396C170.504 124.349 170.614 124.28 170.707 124.193L175 120.187V130.067C175 130.314 175.105 130.552 175.293 130.727C175.48 130.902 175.735 131 176 131C176.265 131 176.52 130.902 176.707 130.727C176.895 130.552 177 130.314 177 130.067V120.187L181.293 124.193C181.386 124.28 181.496 124.349 181.617 124.396C181.739 124.443 181.869 124.467 182 124.467C182.131 124.467 182.261 124.443 182.383 124.396C182.504 124.349 182.614 124.28 182.707 124.193C182.8 124.107 182.874 124.004 182.924 123.891C182.974 123.777 183 123.656 183 123.533C183 123.411 182.974 123.289 182.924 123.176C182.874 123.063 182.8 122.96 182.707 122.873L176.707 117.273C176.52 117.098 176.265 117 176 117C175.735 117 175.48 117.098 175.293 117.273L169.293 122.873C169.105 123.048 169 123.286 169 123.533C169 123.781 169.105 124.018 169.293 124.193Z" fill="white"/>
<path d="M1.69903 186C1.24857 186 0.816704 186.182 0.49818 186.503C0.179655 186.825 0.000494741 187.262 0 187.717V246.283C0.000494741 246.738 0.179655 247.175 0.49818 247.497C0.816704 247.818 1.24857 248 1.69903 248H199.301C199.751 248 200.183 247.818 200.502 247.497C200.82 247.175 201 246.738 201 246.283V187.717C201 187.262 200.82 186.825 200.502 186.503C200.183 186.182 199.751 186 199.301 186H1.69903Z" fill="#E6E6E6"/>
<path d="M4 243H197V191H4V243Z" fill="white"/>
<path d="M172.833 233C172.082 233 171.361 233.316 170.83 233.879C170.299 234.441 170 235.204 170 236C170 236.796 170.299 237.559 170.83 238.121C171.361 238.684 172.082 239 172.833 239H184.167C184.918 239 185.639 238.684 186.17 238.121C186.701 237.559 187 236.796 187 236C187 235.204 186.701 234.441 186.17 233.879C185.639 233.316 184.918 233 184.167 233H172.833Z" fill="#0098AC"/>
<path d="M187 227H56V228H187V227Z" fill="#E6E6E6"/>
<path d="M29.5 234C38.6127 234 46 226.389 46 217C46 207.611 38.6127 200 29.5 200C20.3873 200 13 207.611 13 217C13 226.389 20.3873 234 29.5 234Z" fill="#0098AC"/>
<path d="M56.4125 223L56 222.375L69.5658 213.239L78.8682 217.75L92.2494 209.112L118.867 220.581L140.063 210.063L160.644 218.494L186.507 208L187 208.563L160.795 219.366L140.093 210.888L118.889 221.409L92.3189 209.961L78.9208 218.608L69.6265 214.102L56.4125 223Z" fill="#3F3D56"/>
<path d="M59.3688 233C58.7371 233.011 58.1346 233.279 57.6915 233.747C57.2484 234.214 57 234.844 57 235.5C57 236.156 57.2484 236.786 57.6915 237.253C58.1346 237.721 58.7371 237.989 59.3688 238H84.5533C85.1917 238.01 85.8081 237.757 86.2669 237.296C86.7257 236.835 86.9893 236.204 86.9997 235.541C87.0101 234.878 86.7664 234.238 86.3223 233.761C85.8783 233.285 85.2701 233.011 84.6317 233C84.6056 233 84.5794 233 84.5533 233H59.3688Z" fill="#E6E6E6"/>
<path d="M22.2929 217.706C22.3857 217.799 22.4959 217.872 22.6173 217.923C22.7386 217.973 22.8686 217.999 22.9999 217.999C23.1312 217.999 23.2612 217.973 23.3826 217.923C23.5039 217.872 23.6141 217.799 23.707 217.706L27.9994 213.414V223.998C27.9991 224.129 28.0247 224.259 28.0748 224.381C28.1249 224.503 28.1985 224.613 28.2914 224.706C28.3843 224.799 28.4946 224.873 28.6161 224.924C28.7376 224.974 28.8678 225 28.9993 225C29.1308 225 29.2611 224.974 29.3826 224.924C29.504 224.873 29.6144 224.799 29.7073 224.706C29.8001 224.613 29.8737 224.503 29.9239 224.381C29.974 224.259 29.9996 224.129 29.9992 223.998V213.414L34.2917 217.706C34.3845 217.799 34.4947 217.873 34.6161 217.923C34.7375 217.974 34.8677 218 34.9991 218C35.1306 218 35.2608 217.974 35.3823 217.924C35.5038 217.874 35.6142 217.8 35.7071 217.707C35.8001 217.614 35.8738 217.504 35.9241 217.382C35.9743 217.261 36.0001 217.131 36 216.999C35.9999 216.868 35.9738 216.738 35.9233 216.616C35.8729 216.495 35.7989 216.385 35.7058 216.292L29.7064 210.293C29.5188 210.105 29.2645 210 28.9993 210C28.7341 210 28.4798 210.105 28.2923 210.293L22.2929 216.292C22.1053 216.479 22 216.734 22 216.999C22 217.264 22.1053 217.518 22.2929 217.706Z" fill="white"/>
</svg>
