<svg width="31" height="31" viewBox="0 0 31 31" fill="none" xmlns="http://www.w3.org/2000/svg">
<g filter="url(#filter0_d_17_270)">
<path d="M15.4169 22.8764C21.6479 22.8764 26.6992 17.8179 26.6992 11.5779C26.6992 5.33793 21.6479 0.279419 15.4169 0.279419C9.18583 0.279419 4.13458 5.33793 4.13458 11.5779C4.13458 17.8179 9.18583 22.8764 15.4169 22.8764Z" fill="#F2F2F2"/>
<path d="M8.90485 12.9947C8.90485 12.115 9.61795 11.4019 10.4976 11.4019H14.8777V12.9947H8.90485Z" fill="#B3E0E6"/>
<path d="M13.2849 12.9947L13.2849 8.2164L14.8777 8.2164L14.8777 12.9947L13.2849 12.9947Z" fill="#B3E0E6"/>
<path d="M22 11.8001C22 12.6798 21.2869 13.3929 20.4072 13.3929L16.0271 13.3929L16.0271 11.8001L22 11.8001Z" fill="#B3E0E6"/>
<path d="M8.90485 14.9857H14.8777V16.5784H10.4976C9.61795 16.5784 8.90485 15.8653 8.90485 14.9857Z" fill="#B3E0E6"/>
<path d="M22 9.80917L16.0271 9.80917L16.0271 8.21641L20.4072 8.21641C21.2869 8.21641 22 8.92951 22 9.80917Z" fill="#B3E0E6"/>
<path d="M17.6198 11.8001L17.6198 16.5784L16.027 16.5784L16.027 11.8001L17.6198 11.8001Z" fill="#B3E0E6"/>
<rect x="8.90485" y="15.782" width="3.58372" height="1.59276" rx="0.796382" transform="rotate(-90 8.90485 15.782)" fill="#B3E0E6"/>
<rect x="22" y="9.01279" width="3.58372" height="1.59276" rx="0.796382" transform="rotate(90 22 9.01279)" fill="#B3E0E6"/>
</g>
<defs>
<filter id="filter0_d_17_270" x="0.134583" y="0.279419" width="30.5646" height="30.597" filterUnits="userSpaceOnUse" color-interpolation-filters="sRGB">
<feFlood flood-opacity="0" result="BackgroundImageFix"/>
<feColorMatrix in="SourceAlpha" type="matrix" values="0 0 0 0 0 0 0 0 0 0 0 0 0 0 0 0 0 0 127 0" result="hardAlpha"/>
<feOffset dy="4"/>
<feGaussianBlur stdDeviation="2"/>
<feComposite in2="hardAlpha" operator="out"/>
<feColorMatrix type="matrix" values="0 0 0 0 0 0 0 0 0 0 0 0 0 0 0 0 0 0 0.25 0"/>
<feBlend mode="normal" in2="BackgroundImageFix" result="effect1_dropShadow_17_270"/>
<feBlend mode="normal" in="SourceGraphic" in2="effect1_dropShadow_17_270" result="shape"/>
</filter>
</defs>
</svg>
